G75*
%MOIN*%
%OFA0B0*%
%FSLAX25Y25*%
%IPPOS*%
%LPD*%
%AMOC8*
5,1,8,0,0,1.08239X$1,22.5*
%
%ADD10C,0.00394*%
%ADD11C,0.00402*%
%ADD12C,0.00396*%
%ADD13C,0.00409*%
%ADD14C,0.00390*%
%ADD15C,0.00406*%
D10*
X0173723Y0087244D02*
X0177659Y0087244D01*
X0173723Y0087244D02*
X0173723Y0090786D01*
X0177659Y0090786D01*
X0177659Y0087244D01*
X0177659Y0087637D02*
X0173723Y0087637D01*
X0173723Y0088030D02*
X0177659Y0088030D01*
X0177659Y0088423D02*
X0173723Y0088423D01*
X0173723Y0088816D02*
X0177659Y0088816D01*
X0177659Y0089209D02*
X0173723Y0089209D01*
X0173723Y0089602D02*
X0177659Y0089602D01*
X0177659Y0089995D02*
X0173723Y0089995D01*
X0173723Y0090388D02*
X0177659Y0090388D01*
X0177659Y0090781D02*
X0173723Y0090781D01*
X0180416Y0087244D02*
X0184352Y0087244D01*
X0180416Y0087244D02*
X0180416Y0090786D01*
X0184352Y0090786D01*
X0184352Y0087244D01*
X0184352Y0087637D02*
X0180416Y0087637D01*
X0180416Y0088030D02*
X0184352Y0088030D01*
X0184352Y0088423D02*
X0180416Y0088423D01*
X0180416Y0088816D02*
X0184352Y0088816D01*
X0184352Y0089209D02*
X0180416Y0089209D01*
X0180416Y0089602D02*
X0184352Y0089602D01*
X0184352Y0089995D02*
X0180416Y0089995D01*
X0180416Y0090388D02*
X0184352Y0090388D01*
X0184352Y0090781D02*
X0180416Y0090781D01*
X0293209Y0091787D02*
X0293209Y0087851D01*
X0289667Y0087851D01*
X0289667Y0091787D01*
X0293209Y0091787D01*
X0293209Y0088244D02*
X0289667Y0088244D01*
X0289667Y0088637D02*
X0293209Y0088637D01*
X0293209Y0089030D02*
X0289667Y0089030D01*
X0289667Y0089423D02*
X0293209Y0089423D01*
X0293209Y0089816D02*
X0289667Y0089816D01*
X0289667Y0090209D02*
X0293209Y0090209D01*
X0293209Y0090602D02*
X0289667Y0090602D01*
X0289667Y0090995D02*
X0293209Y0090995D01*
X0293209Y0091388D02*
X0289667Y0091388D01*
X0289667Y0091781D02*
X0293209Y0091781D01*
X0293209Y0094543D02*
X0293209Y0098479D01*
X0293209Y0094543D02*
X0289667Y0094543D01*
X0289667Y0098479D01*
X0293209Y0098479D01*
X0293209Y0094936D02*
X0289667Y0094936D01*
X0289667Y0095329D02*
X0293209Y0095329D01*
X0293209Y0095722D02*
X0289667Y0095722D01*
X0289667Y0096115D02*
X0293209Y0096115D01*
X0293209Y0096508D02*
X0289667Y0096508D01*
X0289667Y0096901D02*
X0293209Y0096901D01*
X0293209Y0097294D02*
X0289667Y0097294D01*
X0289667Y0097687D02*
X0293209Y0097687D01*
X0293209Y0098080D02*
X0289667Y0098080D01*
X0289667Y0098473D02*
X0293209Y0098473D01*
X0448873Y0069044D02*
X0452809Y0069044D01*
X0448873Y0069044D02*
X0448873Y0072586D01*
X0452809Y0072586D01*
X0452809Y0069044D01*
X0452809Y0069437D02*
X0448873Y0069437D01*
X0448873Y0069830D02*
X0452809Y0069830D01*
X0452809Y0070223D02*
X0448873Y0070223D01*
X0448873Y0070616D02*
X0452809Y0070616D01*
X0452809Y0071009D02*
X0448873Y0071009D01*
X0448873Y0071402D02*
X0452809Y0071402D01*
X0452809Y0071795D02*
X0448873Y0071795D01*
X0448873Y0072188D02*
X0452809Y0072188D01*
X0452809Y0072581D02*
X0448873Y0072581D01*
X0455566Y0069044D02*
X0459502Y0069044D01*
X0455566Y0069044D02*
X0455566Y0072586D01*
X0459502Y0072586D01*
X0459502Y0069044D01*
X0459502Y0069437D02*
X0455566Y0069437D01*
X0455566Y0069830D02*
X0459502Y0069830D01*
X0459502Y0070223D02*
X0455566Y0070223D01*
X0455566Y0070616D02*
X0459502Y0070616D01*
X0459502Y0071009D02*
X0455566Y0071009D01*
X0455566Y0071402D02*
X0459502Y0071402D01*
X0459502Y0071795D02*
X0455566Y0071795D01*
X0455566Y0072188D02*
X0459502Y0072188D01*
X0459502Y0072581D02*
X0455566Y0072581D01*
X0498320Y0072756D02*
X0498320Y0074330D01*
X0501862Y0074330D01*
X0501862Y0072756D01*
X0498320Y0072756D01*
X0498320Y0073149D02*
X0501862Y0073149D01*
X0501862Y0073542D02*
X0498320Y0073542D01*
X0498320Y0073935D02*
X0501862Y0073935D01*
X0501862Y0074328D02*
X0498320Y0074328D01*
X0498320Y0076300D02*
X0498320Y0077874D01*
X0501862Y0077874D01*
X0501862Y0076300D01*
X0498320Y0076300D01*
X0498320Y0076693D02*
X0501862Y0076693D01*
X0501862Y0077086D02*
X0498320Y0077086D01*
X0498320Y0077479D02*
X0501862Y0077479D01*
X0501862Y0077872D02*
X0498320Y0077872D01*
X0498320Y0079843D02*
X0498320Y0081417D01*
X0501862Y0081417D01*
X0501862Y0079843D01*
X0498320Y0079843D01*
X0498320Y0080236D02*
X0501862Y0080236D01*
X0501862Y0080629D02*
X0498320Y0080629D01*
X0498320Y0081022D02*
X0501862Y0081022D01*
X0501862Y0081415D02*
X0498320Y0081415D01*
X0505013Y0081417D02*
X0505013Y0079843D01*
X0505013Y0081417D02*
X0508555Y0081417D01*
X0508555Y0079843D01*
X0505013Y0079843D01*
X0505013Y0080236D02*
X0508555Y0080236D01*
X0508555Y0080629D02*
X0505013Y0080629D01*
X0505013Y0081022D02*
X0508555Y0081022D01*
X0508555Y0081415D02*
X0505013Y0081415D01*
X0505013Y0077874D02*
X0505013Y0076300D01*
X0505013Y0077874D02*
X0508555Y0077874D01*
X0508555Y0076300D01*
X0505013Y0076300D01*
X0505013Y0076693D02*
X0508555Y0076693D01*
X0508555Y0077086D02*
X0505013Y0077086D01*
X0505013Y0077479D02*
X0508555Y0077479D01*
X0508555Y0077872D02*
X0505013Y0077872D01*
X0505013Y0074330D02*
X0505013Y0072756D01*
X0505013Y0074330D02*
X0508555Y0074330D01*
X0508555Y0072756D01*
X0505013Y0072756D01*
X0505013Y0073149D02*
X0508555Y0073149D01*
X0508555Y0073542D02*
X0505013Y0073542D01*
X0505013Y0073935D02*
X0508555Y0073935D01*
X0508555Y0074328D02*
X0505013Y0074328D01*
X0505013Y0070787D02*
X0505013Y0069213D01*
X0505013Y0070787D02*
X0508555Y0070787D01*
X0508555Y0069213D01*
X0505013Y0069213D01*
X0505013Y0069606D02*
X0508555Y0069606D01*
X0508555Y0069999D02*
X0505013Y0069999D01*
X0505013Y0070392D02*
X0508555Y0070392D01*
X0508555Y0070785D02*
X0505013Y0070785D01*
X0498320Y0070787D02*
X0498320Y0069213D01*
X0498320Y0070787D02*
X0501862Y0070787D01*
X0501862Y0069213D01*
X0498320Y0069213D01*
X0498320Y0069606D02*
X0501862Y0069606D01*
X0501862Y0069999D02*
X0498320Y0069999D01*
X0498320Y0070392D02*
X0501862Y0070392D01*
X0501862Y0070785D02*
X0498320Y0070785D01*
X0518373Y0082336D02*
X0522309Y0082336D01*
X0522309Y0078794D01*
X0518373Y0078794D01*
X0518373Y0082336D01*
X0518373Y0079187D02*
X0522309Y0079187D01*
X0522309Y0079580D02*
X0518373Y0079580D01*
X0518373Y0079973D02*
X0522309Y0079973D01*
X0522309Y0080366D02*
X0518373Y0080366D01*
X0518373Y0080759D02*
X0522309Y0080759D01*
X0522309Y0081152D02*
X0518373Y0081152D01*
X0518373Y0081545D02*
X0522309Y0081545D01*
X0522309Y0081938D02*
X0518373Y0081938D01*
X0518373Y0082331D02*
X0522309Y0082331D01*
X0525066Y0082336D02*
X0529002Y0082336D01*
X0529002Y0078794D01*
X0525066Y0078794D01*
X0525066Y0082336D01*
X0525066Y0079187D02*
X0529002Y0079187D01*
X0529002Y0079580D02*
X0525066Y0079580D01*
X0525066Y0079973D02*
X0529002Y0079973D01*
X0529002Y0080366D02*
X0525066Y0080366D01*
X0525066Y0080759D02*
X0529002Y0080759D01*
X0529002Y0081152D02*
X0525066Y0081152D01*
X0525066Y0081545D02*
X0529002Y0081545D01*
X0529002Y0081938D02*
X0525066Y0081938D01*
X0525066Y0082331D02*
X0529002Y0082331D01*
X0509252Y0102044D02*
X0505316Y0102044D01*
X0505316Y0105586D01*
X0509252Y0105586D01*
X0509252Y0102044D01*
X0509252Y0102437D02*
X0505316Y0102437D01*
X0505316Y0102830D02*
X0509252Y0102830D01*
X0509252Y0103223D02*
X0505316Y0103223D01*
X0505316Y0103616D02*
X0509252Y0103616D01*
X0509252Y0104009D02*
X0505316Y0104009D01*
X0505316Y0104402D02*
X0509252Y0104402D01*
X0509252Y0104795D02*
X0505316Y0104795D01*
X0505316Y0105188D02*
X0509252Y0105188D01*
X0509252Y0105581D02*
X0505316Y0105581D01*
X0502559Y0102044D02*
X0498623Y0102044D01*
X0498623Y0105586D01*
X0502559Y0105586D01*
X0502559Y0102044D01*
X0502559Y0102437D02*
X0498623Y0102437D01*
X0498623Y0102830D02*
X0502559Y0102830D01*
X0502559Y0103223D02*
X0498623Y0103223D01*
X0498623Y0103616D02*
X0502559Y0103616D01*
X0502559Y0104009D02*
X0498623Y0104009D01*
X0498623Y0104402D02*
X0502559Y0104402D01*
X0502559Y0104795D02*
X0498623Y0104795D01*
X0498623Y0105188D02*
X0502559Y0105188D01*
X0502559Y0105581D02*
X0498623Y0105581D01*
X0522373Y0109594D02*
X0526309Y0109594D01*
X0522373Y0109594D02*
X0522373Y0113136D01*
X0526309Y0113136D01*
X0526309Y0109594D01*
X0526309Y0109987D02*
X0522373Y0109987D01*
X0522373Y0110380D02*
X0526309Y0110380D01*
X0526309Y0110773D02*
X0522373Y0110773D01*
X0522373Y0111166D02*
X0526309Y0111166D01*
X0526309Y0111559D02*
X0522373Y0111559D01*
X0522373Y0111952D02*
X0526309Y0111952D01*
X0526309Y0112345D02*
X0522373Y0112345D01*
X0522373Y0112738D02*
X0526309Y0112738D01*
X0526309Y0113131D02*
X0522373Y0113131D01*
X0529066Y0109594D02*
X0533002Y0109594D01*
X0529066Y0109594D02*
X0529066Y0113136D01*
X0533002Y0113136D01*
X0533002Y0109594D01*
X0533002Y0109987D02*
X0529066Y0109987D01*
X0529066Y0110380D02*
X0533002Y0110380D01*
X0533002Y0110773D02*
X0529066Y0110773D01*
X0529066Y0111166D02*
X0533002Y0111166D01*
X0533002Y0111559D02*
X0529066Y0111559D01*
X0529066Y0111952D02*
X0533002Y0111952D01*
X0533002Y0112345D02*
X0529066Y0112345D01*
X0529066Y0112738D02*
X0533002Y0112738D01*
X0533002Y0113131D02*
X0529066Y0113131D01*
X0569586Y0073682D02*
X0571160Y0073682D01*
X0571160Y0070140D01*
X0569586Y0070140D01*
X0569586Y0073682D01*
X0569586Y0070533D02*
X0571160Y0070533D01*
X0571160Y0070926D02*
X0569586Y0070926D01*
X0569586Y0071319D02*
X0571160Y0071319D01*
X0571160Y0071712D02*
X0569586Y0071712D01*
X0569586Y0072105D02*
X0571160Y0072105D01*
X0571160Y0072498D02*
X0569586Y0072498D01*
X0569586Y0072891D02*
X0571160Y0072891D01*
X0571160Y0073284D02*
X0569586Y0073284D01*
X0569586Y0073677D02*
X0571160Y0073677D01*
X0573129Y0073682D02*
X0574703Y0073682D01*
X0574703Y0070140D01*
X0573129Y0070140D01*
X0573129Y0073682D01*
X0573129Y0070533D02*
X0574703Y0070533D01*
X0574703Y0070926D02*
X0573129Y0070926D01*
X0573129Y0071319D02*
X0574703Y0071319D01*
X0574703Y0071712D02*
X0573129Y0071712D01*
X0573129Y0072105D02*
X0574703Y0072105D01*
X0574703Y0072498D02*
X0573129Y0072498D01*
X0573129Y0072891D02*
X0574703Y0072891D01*
X0574703Y0073284D02*
X0573129Y0073284D01*
X0573129Y0073677D02*
X0574703Y0073677D01*
X0576672Y0073682D02*
X0578246Y0073682D01*
X0578246Y0070140D01*
X0576672Y0070140D01*
X0576672Y0073682D01*
X0576672Y0070533D02*
X0578246Y0070533D01*
X0578246Y0070926D02*
X0576672Y0070926D01*
X0576672Y0071319D02*
X0578246Y0071319D01*
X0578246Y0071712D02*
X0576672Y0071712D01*
X0576672Y0072105D02*
X0578246Y0072105D01*
X0578246Y0072498D02*
X0576672Y0072498D01*
X0576672Y0072891D02*
X0578246Y0072891D01*
X0578246Y0073284D02*
X0576672Y0073284D01*
X0576672Y0073677D02*
X0578246Y0073677D01*
X0580216Y0073682D02*
X0581790Y0073682D01*
X0581790Y0070140D01*
X0580216Y0070140D01*
X0580216Y0073682D01*
X0580216Y0070533D02*
X0581790Y0070533D01*
X0581790Y0070926D02*
X0580216Y0070926D01*
X0580216Y0071319D02*
X0581790Y0071319D01*
X0581790Y0071712D02*
X0580216Y0071712D01*
X0580216Y0072105D02*
X0581790Y0072105D01*
X0581790Y0072498D02*
X0580216Y0072498D01*
X0580216Y0072891D02*
X0581790Y0072891D01*
X0581790Y0073284D02*
X0580216Y0073284D01*
X0580216Y0073677D02*
X0581790Y0073677D01*
X0581790Y0066990D02*
X0580216Y0066990D01*
X0581790Y0066990D02*
X0581790Y0063448D01*
X0580216Y0063448D01*
X0580216Y0066990D01*
X0580216Y0063841D02*
X0581790Y0063841D01*
X0581790Y0064234D02*
X0580216Y0064234D01*
X0580216Y0064627D02*
X0581790Y0064627D01*
X0581790Y0065020D02*
X0580216Y0065020D01*
X0580216Y0065413D02*
X0581790Y0065413D01*
X0581790Y0065806D02*
X0580216Y0065806D01*
X0580216Y0066199D02*
X0581790Y0066199D01*
X0581790Y0066592D02*
X0580216Y0066592D01*
X0580216Y0066985D02*
X0581790Y0066985D01*
X0578246Y0066990D02*
X0576672Y0066990D01*
X0578246Y0066990D02*
X0578246Y0063448D01*
X0576672Y0063448D01*
X0576672Y0066990D01*
X0576672Y0063841D02*
X0578246Y0063841D01*
X0578246Y0064234D02*
X0576672Y0064234D01*
X0576672Y0064627D02*
X0578246Y0064627D01*
X0578246Y0065020D02*
X0576672Y0065020D01*
X0576672Y0065413D02*
X0578246Y0065413D01*
X0578246Y0065806D02*
X0576672Y0065806D01*
X0576672Y0066199D02*
X0578246Y0066199D01*
X0578246Y0066592D02*
X0576672Y0066592D01*
X0576672Y0066985D02*
X0578246Y0066985D01*
X0574703Y0066990D02*
X0573129Y0066990D01*
X0574703Y0066990D02*
X0574703Y0063448D01*
X0573129Y0063448D01*
X0573129Y0066990D01*
X0573129Y0063841D02*
X0574703Y0063841D01*
X0574703Y0064234D02*
X0573129Y0064234D01*
X0573129Y0064627D02*
X0574703Y0064627D01*
X0574703Y0065020D02*
X0573129Y0065020D01*
X0573129Y0065413D02*
X0574703Y0065413D01*
X0574703Y0065806D02*
X0573129Y0065806D01*
X0573129Y0066199D02*
X0574703Y0066199D01*
X0574703Y0066592D02*
X0573129Y0066592D01*
X0573129Y0066985D02*
X0574703Y0066985D01*
X0571160Y0066990D02*
X0569586Y0066990D01*
X0571160Y0066990D02*
X0571160Y0063448D01*
X0569586Y0063448D01*
X0569586Y0066990D01*
X0569586Y0063841D02*
X0571160Y0063841D01*
X0571160Y0064234D02*
X0569586Y0064234D01*
X0569586Y0064627D02*
X0571160Y0064627D01*
X0571160Y0065020D02*
X0569586Y0065020D01*
X0569586Y0065413D02*
X0571160Y0065413D01*
X0571160Y0065806D02*
X0569586Y0065806D01*
X0569586Y0066199D02*
X0571160Y0066199D01*
X0571160Y0066592D02*
X0569586Y0066592D01*
X0569586Y0066985D02*
X0571160Y0066985D01*
X0528221Y0208644D02*
X0523891Y0208644D01*
X0523891Y0212186D01*
X0528221Y0212186D01*
X0528221Y0208644D01*
X0528221Y0209037D02*
X0523891Y0209037D01*
X0523891Y0209430D02*
X0528221Y0209430D01*
X0528221Y0209823D02*
X0523891Y0209823D01*
X0523891Y0210216D02*
X0528221Y0210216D01*
X0528221Y0210609D02*
X0523891Y0210609D01*
X0523891Y0211002D02*
X0528221Y0211002D01*
X0528221Y0211395D02*
X0523891Y0211395D01*
X0523891Y0211788D02*
X0528221Y0211788D01*
X0528221Y0212181D02*
X0523891Y0212181D01*
X0517985Y0208644D02*
X0513655Y0208644D01*
X0513655Y0212186D01*
X0517985Y0212186D01*
X0517985Y0208644D01*
X0517985Y0209037D02*
X0513655Y0209037D01*
X0513655Y0209430D02*
X0517985Y0209430D01*
X0517985Y0209823D02*
X0513655Y0209823D01*
X0513655Y0210216D02*
X0517985Y0210216D01*
X0517985Y0210609D02*
X0513655Y0210609D01*
X0513655Y0211002D02*
X0517985Y0211002D01*
X0517985Y0211395D02*
X0513655Y0211395D01*
X0513655Y0211788D02*
X0517985Y0211788D01*
X0517985Y0212181D02*
X0513655Y0212181D01*
X0513655Y0289094D02*
X0517985Y0289094D01*
X0513655Y0289094D02*
X0513655Y0292636D01*
X0517985Y0292636D01*
X0517985Y0289094D01*
X0517985Y0289487D02*
X0513655Y0289487D01*
X0513655Y0289880D02*
X0517985Y0289880D01*
X0517985Y0290273D02*
X0513655Y0290273D01*
X0513655Y0290666D02*
X0517985Y0290666D01*
X0517985Y0291059D02*
X0513655Y0291059D01*
X0513655Y0291452D02*
X0517985Y0291452D01*
X0517985Y0291845D02*
X0513655Y0291845D01*
X0513655Y0292238D02*
X0517985Y0292238D01*
X0517985Y0292631D02*
X0513655Y0292631D01*
X0523891Y0289094D02*
X0528221Y0289094D01*
X0523891Y0289094D02*
X0523891Y0292636D01*
X0528221Y0292636D01*
X0528221Y0289094D01*
X0528221Y0289487D02*
X0523891Y0289487D01*
X0523891Y0289880D02*
X0528221Y0289880D01*
X0528221Y0290273D02*
X0523891Y0290273D01*
X0523891Y0290666D02*
X0528221Y0290666D01*
X0528221Y0291059D02*
X0523891Y0291059D01*
X0523891Y0291452D02*
X0528221Y0291452D01*
X0528221Y0291845D02*
X0523891Y0291845D01*
X0523891Y0292238D02*
X0528221Y0292238D01*
X0528221Y0292631D02*
X0523891Y0292631D01*
X0316471Y0352294D02*
X0312141Y0352294D01*
X0312141Y0355836D01*
X0316471Y0355836D01*
X0316471Y0352294D01*
X0316471Y0352687D02*
X0312141Y0352687D01*
X0312141Y0353080D02*
X0316471Y0353080D01*
X0316471Y0353473D02*
X0312141Y0353473D01*
X0312141Y0353866D02*
X0316471Y0353866D01*
X0316471Y0354259D02*
X0312141Y0354259D01*
X0312141Y0354652D02*
X0316471Y0354652D01*
X0316471Y0355045D02*
X0312141Y0355045D01*
X0312141Y0355438D02*
X0316471Y0355438D01*
X0316471Y0355831D02*
X0312141Y0355831D01*
X0306235Y0352294D02*
X0301905Y0352294D01*
X0301905Y0355836D01*
X0306235Y0355836D01*
X0306235Y0352294D01*
X0306235Y0352687D02*
X0301905Y0352687D01*
X0301905Y0353080D02*
X0306235Y0353080D01*
X0306235Y0353473D02*
X0301905Y0353473D01*
X0301905Y0353866D02*
X0306235Y0353866D01*
X0306235Y0354259D02*
X0301905Y0354259D01*
X0301905Y0354652D02*
X0306235Y0354652D01*
X0306235Y0355045D02*
X0301905Y0355045D01*
X0301905Y0355438D02*
X0306235Y0355438D01*
X0306235Y0355831D02*
X0301905Y0355831D01*
X0299721Y0355836D02*
X0295391Y0355836D01*
X0299721Y0355836D02*
X0299721Y0352294D01*
X0295391Y0352294D01*
X0295391Y0355836D01*
X0295391Y0352687D02*
X0299721Y0352687D01*
X0299721Y0353080D02*
X0295391Y0353080D01*
X0295391Y0353473D02*
X0299721Y0353473D01*
X0299721Y0353866D02*
X0295391Y0353866D01*
X0295391Y0354259D02*
X0299721Y0354259D01*
X0299721Y0354652D02*
X0295391Y0354652D01*
X0295391Y0355045D02*
X0299721Y0355045D01*
X0299721Y0355438D02*
X0295391Y0355438D01*
X0295391Y0355831D02*
X0299721Y0355831D01*
X0289485Y0355836D02*
X0285155Y0355836D01*
X0289485Y0355836D02*
X0289485Y0352294D01*
X0285155Y0352294D01*
X0285155Y0355836D01*
X0285155Y0352687D02*
X0289485Y0352687D01*
X0289485Y0353080D02*
X0285155Y0353080D01*
X0285155Y0353473D02*
X0289485Y0353473D01*
X0289485Y0353866D02*
X0285155Y0353866D01*
X0285155Y0354259D02*
X0289485Y0354259D01*
X0289485Y0354652D02*
X0285155Y0354652D01*
X0285155Y0355045D02*
X0289485Y0355045D01*
X0289485Y0355438D02*
X0285155Y0355438D01*
X0285155Y0355831D02*
X0289485Y0355831D01*
D11*
X0462958Y0086565D02*
X0468658Y0086565D01*
X0468658Y0084605D01*
X0462958Y0084605D01*
X0462958Y0086565D01*
X0462958Y0085006D02*
X0468658Y0085006D01*
X0468658Y0085407D02*
X0462958Y0085407D01*
X0462958Y0085808D02*
X0468658Y0085808D01*
X0468658Y0086209D02*
X0462958Y0086209D01*
X0462958Y0081565D02*
X0468658Y0081565D01*
X0468658Y0079605D01*
X0462958Y0079605D01*
X0462958Y0081565D01*
X0462958Y0080006D02*
X0468658Y0080006D01*
X0468658Y0080407D02*
X0462958Y0080407D01*
X0462958Y0080808D02*
X0468658Y0080808D01*
X0468658Y0081209D02*
X0462958Y0081209D01*
X0462958Y0076565D02*
X0468658Y0076565D01*
X0468658Y0074605D01*
X0462958Y0074605D01*
X0462958Y0076565D01*
X0462958Y0075006D02*
X0468658Y0075006D01*
X0468658Y0075407D02*
X0462958Y0075407D01*
X0462958Y0075808D02*
X0468658Y0075808D01*
X0468658Y0076209D02*
X0462958Y0076209D01*
X0462958Y0071565D02*
X0468658Y0071565D01*
X0468658Y0069605D01*
X0462958Y0069605D01*
X0462958Y0071565D01*
X0462958Y0070006D02*
X0468658Y0070006D01*
X0468658Y0070407D02*
X0462958Y0070407D01*
X0462958Y0070808D02*
X0468658Y0070808D01*
X0468658Y0071209D02*
X0462958Y0071209D01*
X0484218Y0071565D02*
X0489918Y0071565D01*
X0489918Y0069605D01*
X0484218Y0069605D01*
X0484218Y0071565D01*
X0484218Y0070006D02*
X0489918Y0070006D01*
X0489918Y0070407D02*
X0484218Y0070407D01*
X0484218Y0070808D02*
X0489918Y0070808D01*
X0489918Y0071209D02*
X0484218Y0071209D01*
X0484218Y0076565D02*
X0489918Y0076565D01*
X0489918Y0074605D01*
X0484218Y0074605D01*
X0484218Y0076565D01*
X0484218Y0075006D02*
X0489918Y0075006D01*
X0489918Y0075407D02*
X0484218Y0075407D01*
X0484218Y0075808D02*
X0489918Y0075808D01*
X0489918Y0076209D02*
X0484218Y0076209D01*
X0484218Y0081565D02*
X0489918Y0081565D01*
X0489918Y0079605D01*
X0484218Y0079605D01*
X0484218Y0081565D01*
X0484218Y0080006D02*
X0489918Y0080006D01*
X0489918Y0080407D02*
X0484218Y0080407D01*
X0484218Y0080808D02*
X0489918Y0080808D01*
X0489918Y0081209D02*
X0484218Y0081209D01*
X0484218Y0086565D02*
X0489918Y0086565D01*
X0489918Y0084605D01*
X0484218Y0084605D01*
X0484218Y0086565D01*
X0484218Y0085006D02*
X0489918Y0085006D01*
X0489918Y0085407D02*
X0484218Y0085407D01*
X0484218Y0085808D02*
X0489918Y0085808D01*
X0489918Y0086209D02*
X0484218Y0086209D01*
D12*
X0535136Y0085767D02*
X0535136Y0085063D01*
X0535136Y0085767D02*
X0540540Y0085767D01*
X0540540Y0085063D01*
X0535136Y0085063D01*
X0535136Y0085458D02*
X0540540Y0085458D01*
X0535136Y0087063D02*
X0535136Y0087767D01*
X0540540Y0087767D01*
X0540540Y0087063D01*
X0535136Y0087063D01*
X0535136Y0087458D02*
X0540540Y0087458D01*
X0535136Y0088963D02*
X0535136Y0089667D01*
X0540540Y0089667D01*
X0540540Y0088963D01*
X0535136Y0088963D01*
X0535136Y0089358D02*
X0540540Y0089358D01*
X0535136Y0090963D02*
X0535136Y0091667D01*
X0540540Y0091667D01*
X0540540Y0090963D01*
X0535136Y0090963D01*
X0535136Y0091358D02*
X0540540Y0091358D01*
X0535136Y0092963D02*
X0535136Y0093667D01*
X0540540Y0093667D01*
X0540540Y0092963D01*
X0535136Y0092963D01*
X0535136Y0093358D02*
X0540540Y0093358D01*
X0535136Y0094963D02*
X0535136Y0095667D01*
X0540540Y0095667D01*
X0540540Y0094963D01*
X0535136Y0094963D01*
X0535136Y0095358D02*
X0540540Y0095358D01*
X0535136Y0096863D02*
X0535136Y0097567D01*
X0540540Y0097567D01*
X0540540Y0096863D01*
X0535136Y0096863D01*
X0535136Y0097258D02*
X0540540Y0097258D01*
X0535136Y0098863D02*
X0535136Y0099567D01*
X0540540Y0099567D01*
X0540540Y0098863D01*
X0535136Y0098863D01*
X0535136Y0099258D02*
X0540540Y0099258D01*
X0535136Y0100863D02*
X0535136Y0101567D01*
X0540540Y0101567D01*
X0540540Y0100863D01*
X0535136Y0100863D01*
X0535136Y0101258D02*
X0540540Y0101258D01*
X0535136Y0102763D02*
X0535136Y0103467D01*
X0540540Y0103467D01*
X0540540Y0102763D01*
X0535136Y0102763D01*
X0535136Y0103158D02*
X0540540Y0103158D01*
X0543286Y0111617D02*
X0543990Y0111617D01*
X0543990Y0106213D01*
X0543286Y0106213D01*
X0543286Y0111617D01*
X0543286Y0106608D02*
X0543990Y0106608D01*
X0543990Y0107003D02*
X0543286Y0107003D01*
X0543286Y0107398D02*
X0543990Y0107398D01*
X0543990Y0107793D02*
X0543286Y0107793D01*
X0543286Y0108188D02*
X0543990Y0108188D01*
X0543990Y0108583D02*
X0543286Y0108583D01*
X0543286Y0108978D02*
X0543990Y0108978D01*
X0543990Y0109373D02*
X0543286Y0109373D01*
X0543286Y0109768D02*
X0543990Y0109768D01*
X0543990Y0110163D02*
X0543286Y0110163D01*
X0543286Y0110558D02*
X0543990Y0110558D01*
X0543990Y0110953D02*
X0543286Y0110953D01*
X0543286Y0111348D02*
X0543990Y0111348D01*
X0545186Y0111617D02*
X0545890Y0111617D01*
X0545890Y0106213D01*
X0545186Y0106213D01*
X0545186Y0111617D01*
X0545186Y0106608D02*
X0545890Y0106608D01*
X0545890Y0107003D02*
X0545186Y0107003D01*
X0545186Y0107398D02*
X0545890Y0107398D01*
X0545890Y0107793D02*
X0545186Y0107793D01*
X0545186Y0108188D02*
X0545890Y0108188D01*
X0545890Y0108583D02*
X0545186Y0108583D01*
X0545186Y0108978D02*
X0545890Y0108978D01*
X0545890Y0109373D02*
X0545186Y0109373D01*
X0545186Y0109768D02*
X0545890Y0109768D01*
X0545890Y0110163D02*
X0545186Y0110163D01*
X0545186Y0110558D02*
X0545890Y0110558D01*
X0545890Y0110953D02*
X0545186Y0110953D01*
X0545186Y0111348D02*
X0545890Y0111348D01*
X0547186Y0111617D02*
X0547890Y0111617D01*
X0547890Y0106213D01*
X0547186Y0106213D01*
X0547186Y0111617D01*
X0547186Y0106608D02*
X0547890Y0106608D01*
X0547890Y0107003D02*
X0547186Y0107003D01*
X0547186Y0107398D02*
X0547890Y0107398D01*
X0547890Y0107793D02*
X0547186Y0107793D01*
X0547186Y0108188D02*
X0547890Y0108188D01*
X0547890Y0108583D02*
X0547186Y0108583D01*
X0547186Y0108978D02*
X0547890Y0108978D01*
X0547890Y0109373D02*
X0547186Y0109373D01*
X0547186Y0109768D02*
X0547890Y0109768D01*
X0547890Y0110163D02*
X0547186Y0110163D01*
X0547186Y0110558D02*
X0547890Y0110558D01*
X0547890Y0110953D02*
X0547186Y0110953D01*
X0547186Y0111348D02*
X0547890Y0111348D01*
X0549186Y0111617D02*
X0549890Y0111617D01*
X0549890Y0106213D01*
X0549186Y0106213D01*
X0549186Y0111617D01*
X0549186Y0106608D02*
X0549890Y0106608D01*
X0549890Y0107003D02*
X0549186Y0107003D01*
X0549186Y0107398D02*
X0549890Y0107398D01*
X0549890Y0107793D02*
X0549186Y0107793D01*
X0549186Y0108188D02*
X0549890Y0108188D01*
X0549890Y0108583D02*
X0549186Y0108583D01*
X0549186Y0108978D02*
X0549890Y0108978D01*
X0549890Y0109373D02*
X0549186Y0109373D01*
X0549186Y0109768D02*
X0549890Y0109768D01*
X0549890Y0110163D02*
X0549186Y0110163D01*
X0549186Y0110558D02*
X0549890Y0110558D01*
X0549890Y0110953D02*
X0549186Y0110953D01*
X0549186Y0111348D02*
X0549890Y0111348D01*
X0551086Y0111617D02*
X0551790Y0111617D01*
X0551790Y0106213D01*
X0551086Y0106213D01*
X0551086Y0111617D01*
X0551086Y0106608D02*
X0551790Y0106608D01*
X0551790Y0107003D02*
X0551086Y0107003D01*
X0551086Y0107398D02*
X0551790Y0107398D01*
X0551790Y0107793D02*
X0551086Y0107793D01*
X0551086Y0108188D02*
X0551790Y0108188D01*
X0551790Y0108583D02*
X0551086Y0108583D01*
X0551086Y0108978D02*
X0551790Y0108978D01*
X0551790Y0109373D02*
X0551086Y0109373D01*
X0551086Y0109768D02*
X0551790Y0109768D01*
X0551790Y0110163D02*
X0551086Y0110163D01*
X0551086Y0110558D02*
X0551790Y0110558D01*
X0551790Y0110953D02*
X0551086Y0110953D01*
X0551086Y0111348D02*
X0551790Y0111348D01*
X0553086Y0111617D02*
X0553790Y0111617D01*
X0553790Y0106213D01*
X0553086Y0106213D01*
X0553086Y0111617D01*
X0553086Y0106608D02*
X0553790Y0106608D01*
X0553790Y0107003D02*
X0553086Y0107003D01*
X0553086Y0107398D02*
X0553790Y0107398D01*
X0553790Y0107793D02*
X0553086Y0107793D01*
X0553086Y0108188D02*
X0553790Y0108188D01*
X0553790Y0108583D02*
X0553086Y0108583D01*
X0553086Y0108978D02*
X0553790Y0108978D01*
X0553790Y0109373D02*
X0553086Y0109373D01*
X0553086Y0109768D02*
X0553790Y0109768D01*
X0553790Y0110163D02*
X0553086Y0110163D01*
X0553086Y0110558D02*
X0553790Y0110558D01*
X0553790Y0110953D02*
X0553086Y0110953D01*
X0553086Y0111348D02*
X0553790Y0111348D01*
X0555086Y0111617D02*
X0555790Y0111617D01*
X0555790Y0106213D01*
X0555086Y0106213D01*
X0555086Y0111617D01*
X0555086Y0106608D02*
X0555790Y0106608D01*
X0555790Y0107003D02*
X0555086Y0107003D01*
X0555086Y0107398D02*
X0555790Y0107398D01*
X0555790Y0107793D02*
X0555086Y0107793D01*
X0555086Y0108188D02*
X0555790Y0108188D01*
X0555790Y0108583D02*
X0555086Y0108583D01*
X0555086Y0108978D02*
X0555790Y0108978D01*
X0555790Y0109373D02*
X0555086Y0109373D01*
X0555086Y0109768D02*
X0555790Y0109768D01*
X0555790Y0110163D02*
X0555086Y0110163D01*
X0555086Y0110558D02*
X0555790Y0110558D01*
X0555790Y0110953D02*
X0555086Y0110953D01*
X0555086Y0111348D02*
X0555790Y0111348D01*
X0557086Y0111617D02*
X0557790Y0111617D01*
X0557790Y0106213D01*
X0557086Y0106213D01*
X0557086Y0111617D01*
X0557086Y0106608D02*
X0557790Y0106608D01*
X0557790Y0107003D02*
X0557086Y0107003D01*
X0557086Y0107398D02*
X0557790Y0107398D01*
X0557790Y0107793D02*
X0557086Y0107793D01*
X0557086Y0108188D02*
X0557790Y0108188D01*
X0557790Y0108583D02*
X0557086Y0108583D01*
X0557086Y0108978D02*
X0557790Y0108978D01*
X0557790Y0109373D02*
X0557086Y0109373D01*
X0557086Y0109768D02*
X0557790Y0109768D01*
X0557790Y0110163D02*
X0557086Y0110163D01*
X0557086Y0110558D02*
X0557790Y0110558D01*
X0557790Y0110953D02*
X0557086Y0110953D01*
X0557086Y0111348D02*
X0557790Y0111348D01*
X0558986Y0111617D02*
X0559690Y0111617D01*
X0559690Y0106213D01*
X0558986Y0106213D01*
X0558986Y0111617D01*
X0558986Y0106608D02*
X0559690Y0106608D01*
X0559690Y0107003D02*
X0558986Y0107003D01*
X0558986Y0107398D02*
X0559690Y0107398D01*
X0559690Y0107793D02*
X0558986Y0107793D01*
X0558986Y0108188D02*
X0559690Y0108188D01*
X0559690Y0108583D02*
X0558986Y0108583D01*
X0558986Y0108978D02*
X0559690Y0108978D01*
X0559690Y0109373D02*
X0558986Y0109373D01*
X0558986Y0109768D02*
X0559690Y0109768D01*
X0559690Y0110163D02*
X0558986Y0110163D01*
X0558986Y0110558D02*
X0559690Y0110558D01*
X0559690Y0110953D02*
X0558986Y0110953D01*
X0558986Y0111348D02*
X0559690Y0111348D01*
X0560986Y0111617D02*
X0561690Y0111617D01*
X0561690Y0106213D01*
X0560986Y0106213D01*
X0560986Y0111617D01*
X0560986Y0106608D02*
X0561690Y0106608D01*
X0561690Y0107003D02*
X0560986Y0107003D01*
X0560986Y0107398D02*
X0561690Y0107398D01*
X0561690Y0107793D02*
X0560986Y0107793D01*
X0560986Y0108188D02*
X0561690Y0108188D01*
X0561690Y0108583D02*
X0560986Y0108583D01*
X0560986Y0108978D02*
X0561690Y0108978D01*
X0561690Y0109373D02*
X0560986Y0109373D01*
X0560986Y0109768D02*
X0561690Y0109768D01*
X0561690Y0110163D02*
X0560986Y0110163D01*
X0560986Y0110558D02*
X0561690Y0110558D01*
X0561690Y0110953D02*
X0560986Y0110953D01*
X0560986Y0111348D02*
X0561690Y0111348D01*
X0562986Y0111617D02*
X0563690Y0111617D01*
X0563690Y0106213D01*
X0562986Y0106213D01*
X0562986Y0111617D01*
X0562986Y0106608D02*
X0563690Y0106608D01*
X0563690Y0107003D02*
X0562986Y0107003D01*
X0562986Y0107398D02*
X0563690Y0107398D01*
X0563690Y0107793D02*
X0562986Y0107793D01*
X0562986Y0108188D02*
X0563690Y0108188D01*
X0563690Y0108583D02*
X0562986Y0108583D01*
X0562986Y0108978D02*
X0563690Y0108978D01*
X0563690Y0109373D02*
X0562986Y0109373D01*
X0562986Y0109768D02*
X0563690Y0109768D01*
X0563690Y0110163D02*
X0562986Y0110163D01*
X0562986Y0110558D02*
X0563690Y0110558D01*
X0563690Y0110953D02*
X0562986Y0110953D01*
X0562986Y0111348D02*
X0563690Y0111348D01*
X0564886Y0111617D02*
X0565590Y0111617D01*
X0565590Y0106213D01*
X0564886Y0106213D01*
X0564886Y0111617D01*
X0564886Y0106608D02*
X0565590Y0106608D01*
X0565590Y0107003D02*
X0564886Y0107003D01*
X0564886Y0107398D02*
X0565590Y0107398D01*
X0565590Y0107793D02*
X0564886Y0107793D01*
X0564886Y0108188D02*
X0565590Y0108188D01*
X0565590Y0108583D02*
X0564886Y0108583D01*
X0564886Y0108978D02*
X0565590Y0108978D01*
X0565590Y0109373D02*
X0564886Y0109373D01*
X0564886Y0109768D02*
X0565590Y0109768D01*
X0565590Y0110163D02*
X0564886Y0110163D01*
X0564886Y0110558D02*
X0565590Y0110558D01*
X0565590Y0110953D02*
X0564886Y0110953D01*
X0564886Y0111348D02*
X0565590Y0111348D01*
X0568336Y0103467D02*
X0568336Y0102763D01*
X0568336Y0103467D02*
X0573740Y0103467D01*
X0573740Y0102763D01*
X0568336Y0102763D01*
X0568336Y0103158D02*
X0573740Y0103158D01*
X0568336Y0101567D02*
X0568336Y0100863D01*
X0568336Y0101567D02*
X0573740Y0101567D01*
X0573740Y0100863D01*
X0568336Y0100863D01*
X0568336Y0101258D02*
X0573740Y0101258D01*
X0568336Y0099567D02*
X0568336Y0098863D01*
X0568336Y0099567D02*
X0573740Y0099567D01*
X0573740Y0098863D01*
X0568336Y0098863D01*
X0568336Y0099258D02*
X0573740Y0099258D01*
X0568336Y0097567D02*
X0568336Y0096863D01*
X0568336Y0097567D02*
X0573740Y0097567D01*
X0573740Y0096863D01*
X0568336Y0096863D01*
X0568336Y0097258D02*
X0573740Y0097258D01*
X0568336Y0095667D02*
X0568336Y0094963D01*
X0568336Y0095667D02*
X0573740Y0095667D01*
X0573740Y0094963D01*
X0568336Y0094963D01*
X0568336Y0095358D02*
X0573740Y0095358D01*
X0568336Y0093667D02*
X0568336Y0092963D01*
X0568336Y0093667D02*
X0573740Y0093667D01*
X0573740Y0092963D01*
X0568336Y0092963D01*
X0568336Y0093358D02*
X0573740Y0093358D01*
X0568336Y0091667D02*
X0568336Y0090963D01*
X0568336Y0091667D02*
X0573740Y0091667D01*
X0573740Y0090963D01*
X0568336Y0090963D01*
X0568336Y0091358D02*
X0573740Y0091358D01*
X0568336Y0089667D02*
X0568336Y0088963D01*
X0568336Y0089667D02*
X0573740Y0089667D01*
X0573740Y0088963D01*
X0568336Y0088963D01*
X0568336Y0089358D02*
X0573740Y0089358D01*
X0568336Y0087767D02*
X0568336Y0087063D01*
X0568336Y0087767D02*
X0573740Y0087767D01*
X0573740Y0087063D01*
X0568336Y0087063D01*
X0568336Y0087458D02*
X0573740Y0087458D01*
X0568336Y0085767D02*
X0568336Y0085063D01*
X0568336Y0085767D02*
X0573740Y0085767D01*
X0573740Y0085063D01*
X0568336Y0085063D01*
X0568336Y0085458D02*
X0573740Y0085458D01*
X0568336Y0083767D02*
X0568336Y0083063D01*
X0568336Y0083767D02*
X0573740Y0083767D01*
X0573740Y0083063D01*
X0568336Y0083063D01*
X0568336Y0083458D02*
X0573740Y0083458D01*
X0568336Y0081867D02*
X0568336Y0081163D01*
X0568336Y0081867D02*
X0573740Y0081867D01*
X0573740Y0081163D01*
X0568336Y0081163D01*
X0568336Y0081558D02*
X0573740Y0081558D01*
X0565590Y0078417D02*
X0564886Y0078417D01*
X0565590Y0078417D02*
X0565590Y0073013D01*
X0564886Y0073013D01*
X0564886Y0078417D01*
X0564886Y0073408D02*
X0565590Y0073408D01*
X0565590Y0073803D02*
X0564886Y0073803D01*
X0564886Y0074198D02*
X0565590Y0074198D01*
X0565590Y0074593D02*
X0564886Y0074593D01*
X0564886Y0074988D02*
X0565590Y0074988D01*
X0565590Y0075383D02*
X0564886Y0075383D01*
X0564886Y0075778D02*
X0565590Y0075778D01*
X0565590Y0076173D02*
X0564886Y0076173D01*
X0564886Y0076568D02*
X0565590Y0076568D01*
X0565590Y0076963D02*
X0564886Y0076963D01*
X0564886Y0077358D02*
X0565590Y0077358D01*
X0565590Y0077753D02*
X0564886Y0077753D01*
X0564886Y0078148D02*
X0565590Y0078148D01*
X0563690Y0078417D02*
X0562986Y0078417D01*
X0563690Y0078417D02*
X0563690Y0073013D01*
X0562986Y0073013D01*
X0562986Y0078417D01*
X0562986Y0073408D02*
X0563690Y0073408D01*
X0563690Y0073803D02*
X0562986Y0073803D01*
X0562986Y0074198D02*
X0563690Y0074198D01*
X0563690Y0074593D02*
X0562986Y0074593D01*
X0562986Y0074988D02*
X0563690Y0074988D01*
X0563690Y0075383D02*
X0562986Y0075383D01*
X0562986Y0075778D02*
X0563690Y0075778D01*
X0563690Y0076173D02*
X0562986Y0076173D01*
X0562986Y0076568D02*
X0563690Y0076568D01*
X0563690Y0076963D02*
X0562986Y0076963D01*
X0562986Y0077358D02*
X0563690Y0077358D01*
X0563690Y0077753D02*
X0562986Y0077753D01*
X0562986Y0078148D02*
X0563690Y0078148D01*
X0561690Y0078417D02*
X0560986Y0078417D01*
X0561690Y0078417D02*
X0561690Y0073013D01*
X0560986Y0073013D01*
X0560986Y0078417D01*
X0560986Y0073408D02*
X0561690Y0073408D01*
X0561690Y0073803D02*
X0560986Y0073803D01*
X0560986Y0074198D02*
X0561690Y0074198D01*
X0561690Y0074593D02*
X0560986Y0074593D01*
X0560986Y0074988D02*
X0561690Y0074988D01*
X0561690Y0075383D02*
X0560986Y0075383D01*
X0560986Y0075778D02*
X0561690Y0075778D01*
X0561690Y0076173D02*
X0560986Y0076173D01*
X0560986Y0076568D02*
X0561690Y0076568D01*
X0561690Y0076963D02*
X0560986Y0076963D01*
X0560986Y0077358D02*
X0561690Y0077358D01*
X0561690Y0077753D02*
X0560986Y0077753D01*
X0560986Y0078148D02*
X0561690Y0078148D01*
X0559690Y0078417D02*
X0558986Y0078417D01*
X0559690Y0078417D02*
X0559690Y0073013D01*
X0558986Y0073013D01*
X0558986Y0078417D01*
X0558986Y0073408D02*
X0559690Y0073408D01*
X0559690Y0073803D02*
X0558986Y0073803D01*
X0558986Y0074198D02*
X0559690Y0074198D01*
X0559690Y0074593D02*
X0558986Y0074593D01*
X0558986Y0074988D02*
X0559690Y0074988D01*
X0559690Y0075383D02*
X0558986Y0075383D01*
X0558986Y0075778D02*
X0559690Y0075778D01*
X0559690Y0076173D02*
X0558986Y0076173D01*
X0558986Y0076568D02*
X0559690Y0076568D01*
X0559690Y0076963D02*
X0558986Y0076963D01*
X0558986Y0077358D02*
X0559690Y0077358D01*
X0559690Y0077753D02*
X0558986Y0077753D01*
X0558986Y0078148D02*
X0559690Y0078148D01*
X0557790Y0078417D02*
X0557086Y0078417D01*
X0557790Y0078417D02*
X0557790Y0073013D01*
X0557086Y0073013D01*
X0557086Y0078417D01*
X0557086Y0073408D02*
X0557790Y0073408D01*
X0557790Y0073803D02*
X0557086Y0073803D01*
X0557086Y0074198D02*
X0557790Y0074198D01*
X0557790Y0074593D02*
X0557086Y0074593D01*
X0557086Y0074988D02*
X0557790Y0074988D01*
X0557790Y0075383D02*
X0557086Y0075383D01*
X0557086Y0075778D02*
X0557790Y0075778D01*
X0557790Y0076173D02*
X0557086Y0076173D01*
X0557086Y0076568D02*
X0557790Y0076568D01*
X0557790Y0076963D02*
X0557086Y0076963D01*
X0557086Y0077358D02*
X0557790Y0077358D01*
X0557790Y0077753D02*
X0557086Y0077753D01*
X0557086Y0078148D02*
X0557790Y0078148D01*
X0555790Y0078417D02*
X0555086Y0078417D01*
X0555790Y0078417D02*
X0555790Y0073013D01*
X0555086Y0073013D01*
X0555086Y0078417D01*
X0555086Y0073408D02*
X0555790Y0073408D01*
X0555790Y0073803D02*
X0555086Y0073803D01*
X0555086Y0074198D02*
X0555790Y0074198D01*
X0555790Y0074593D02*
X0555086Y0074593D01*
X0555086Y0074988D02*
X0555790Y0074988D01*
X0555790Y0075383D02*
X0555086Y0075383D01*
X0555086Y0075778D02*
X0555790Y0075778D01*
X0555790Y0076173D02*
X0555086Y0076173D01*
X0555086Y0076568D02*
X0555790Y0076568D01*
X0555790Y0076963D02*
X0555086Y0076963D01*
X0555086Y0077358D02*
X0555790Y0077358D01*
X0555790Y0077753D02*
X0555086Y0077753D01*
X0555086Y0078148D02*
X0555790Y0078148D01*
X0553790Y0078417D02*
X0553086Y0078417D01*
X0553790Y0078417D02*
X0553790Y0073013D01*
X0553086Y0073013D01*
X0553086Y0078417D01*
X0553086Y0073408D02*
X0553790Y0073408D01*
X0553790Y0073803D02*
X0553086Y0073803D01*
X0553086Y0074198D02*
X0553790Y0074198D01*
X0553790Y0074593D02*
X0553086Y0074593D01*
X0553086Y0074988D02*
X0553790Y0074988D01*
X0553790Y0075383D02*
X0553086Y0075383D01*
X0553086Y0075778D02*
X0553790Y0075778D01*
X0553790Y0076173D02*
X0553086Y0076173D01*
X0553086Y0076568D02*
X0553790Y0076568D01*
X0553790Y0076963D02*
X0553086Y0076963D01*
X0553086Y0077358D02*
X0553790Y0077358D01*
X0553790Y0077753D02*
X0553086Y0077753D01*
X0553086Y0078148D02*
X0553790Y0078148D01*
X0551790Y0078417D02*
X0551086Y0078417D01*
X0551790Y0078417D02*
X0551790Y0073013D01*
X0551086Y0073013D01*
X0551086Y0078417D01*
X0551086Y0073408D02*
X0551790Y0073408D01*
X0551790Y0073803D02*
X0551086Y0073803D01*
X0551086Y0074198D02*
X0551790Y0074198D01*
X0551790Y0074593D02*
X0551086Y0074593D01*
X0551086Y0074988D02*
X0551790Y0074988D01*
X0551790Y0075383D02*
X0551086Y0075383D01*
X0551086Y0075778D02*
X0551790Y0075778D01*
X0551790Y0076173D02*
X0551086Y0076173D01*
X0551086Y0076568D02*
X0551790Y0076568D01*
X0551790Y0076963D02*
X0551086Y0076963D01*
X0551086Y0077358D02*
X0551790Y0077358D01*
X0551790Y0077753D02*
X0551086Y0077753D01*
X0551086Y0078148D02*
X0551790Y0078148D01*
X0549890Y0078417D02*
X0549186Y0078417D01*
X0549890Y0078417D02*
X0549890Y0073013D01*
X0549186Y0073013D01*
X0549186Y0078417D01*
X0549186Y0073408D02*
X0549890Y0073408D01*
X0549890Y0073803D02*
X0549186Y0073803D01*
X0549186Y0074198D02*
X0549890Y0074198D01*
X0549890Y0074593D02*
X0549186Y0074593D01*
X0549186Y0074988D02*
X0549890Y0074988D01*
X0549890Y0075383D02*
X0549186Y0075383D01*
X0549186Y0075778D02*
X0549890Y0075778D01*
X0549890Y0076173D02*
X0549186Y0076173D01*
X0549186Y0076568D02*
X0549890Y0076568D01*
X0549890Y0076963D02*
X0549186Y0076963D01*
X0549186Y0077358D02*
X0549890Y0077358D01*
X0549890Y0077753D02*
X0549186Y0077753D01*
X0549186Y0078148D02*
X0549890Y0078148D01*
X0547890Y0078417D02*
X0547186Y0078417D01*
X0547890Y0078417D02*
X0547890Y0073013D01*
X0547186Y0073013D01*
X0547186Y0078417D01*
X0547186Y0073408D02*
X0547890Y0073408D01*
X0547890Y0073803D02*
X0547186Y0073803D01*
X0547186Y0074198D02*
X0547890Y0074198D01*
X0547890Y0074593D02*
X0547186Y0074593D01*
X0547186Y0074988D02*
X0547890Y0074988D01*
X0547890Y0075383D02*
X0547186Y0075383D01*
X0547186Y0075778D02*
X0547890Y0075778D01*
X0547890Y0076173D02*
X0547186Y0076173D01*
X0547186Y0076568D02*
X0547890Y0076568D01*
X0547890Y0076963D02*
X0547186Y0076963D01*
X0547186Y0077358D02*
X0547890Y0077358D01*
X0547890Y0077753D02*
X0547186Y0077753D01*
X0547186Y0078148D02*
X0547890Y0078148D01*
X0545890Y0078417D02*
X0545186Y0078417D01*
X0545890Y0078417D02*
X0545890Y0073013D01*
X0545186Y0073013D01*
X0545186Y0078417D01*
X0545186Y0073408D02*
X0545890Y0073408D01*
X0545890Y0073803D02*
X0545186Y0073803D01*
X0545186Y0074198D02*
X0545890Y0074198D01*
X0545890Y0074593D02*
X0545186Y0074593D01*
X0545186Y0074988D02*
X0545890Y0074988D01*
X0545890Y0075383D02*
X0545186Y0075383D01*
X0545186Y0075778D02*
X0545890Y0075778D01*
X0545890Y0076173D02*
X0545186Y0076173D01*
X0545186Y0076568D02*
X0545890Y0076568D01*
X0545890Y0076963D02*
X0545186Y0076963D01*
X0545186Y0077358D02*
X0545890Y0077358D01*
X0545890Y0077753D02*
X0545186Y0077753D01*
X0545186Y0078148D02*
X0545890Y0078148D01*
X0543990Y0078417D02*
X0543286Y0078417D01*
X0543990Y0078417D02*
X0543990Y0073013D01*
X0543286Y0073013D01*
X0543286Y0078417D01*
X0543286Y0073408D02*
X0543990Y0073408D01*
X0543990Y0073803D02*
X0543286Y0073803D01*
X0543286Y0074198D02*
X0543990Y0074198D01*
X0543990Y0074593D02*
X0543286Y0074593D01*
X0543286Y0074988D02*
X0543990Y0074988D01*
X0543990Y0075383D02*
X0543286Y0075383D01*
X0543286Y0075778D02*
X0543990Y0075778D01*
X0543990Y0076173D02*
X0543286Y0076173D01*
X0543286Y0076568D02*
X0543990Y0076568D01*
X0543990Y0076963D02*
X0543286Y0076963D01*
X0543286Y0077358D02*
X0543990Y0077358D01*
X0543990Y0077753D02*
X0543286Y0077753D01*
X0543286Y0078148D02*
X0543990Y0078148D01*
X0535136Y0081163D02*
X0535136Y0081867D01*
X0540540Y0081867D01*
X0540540Y0081163D01*
X0535136Y0081163D01*
X0535136Y0081558D02*
X0540540Y0081558D01*
X0535136Y0083063D02*
X0535136Y0083767D01*
X0540540Y0083767D01*
X0540540Y0083063D01*
X0535136Y0083063D01*
X0535136Y0083458D02*
X0540540Y0083458D01*
X0530340Y0164217D02*
X0521736Y0164217D01*
X0530340Y0164217D02*
X0530340Y0162413D01*
X0521736Y0162413D01*
X0521736Y0164217D01*
X0521736Y0162808D02*
X0530340Y0162808D01*
X0530340Y0163203D02*
X0521736Y0163203D01*
X0521736Y0163598D02*
X0530340Y0163598D01*
X0530340Y0163993D02*
X0521736Y0163993D01*
X0521736Y0169217D02*
X0530340Y0169217D01*
X0530340Y0167413D01*
X0521736Y0167413D01*
X0521736Y0169217D01*
X0521736Y0167808D02*
X0530340Y0167808D01*
X0530340Y0168203D02*
X0521736Y0168203D01*
X0521736Y0168598D02*
X0530340Y0168598D01*
X0530340Y0168993D02*
X0521736Y0168993D01*
X0521736Y0174217D02*
X0530340Y0174217D01*
X0530340Y0172413D01*
X0521736Y0172413D01*
X0521736Y0174217D01*
X0521736Y0172808D02*
X0530340Y0172808D01*
X0530340Y0173203D02*
X0521736Y0173203D01*
X0521736Y0173598D02*
X0530340Y0173598D01*
X0530340Y0173993D02*
X0521736Y0173993D01*
X0521736Y0179217D02*
X0530340Y0179217D01*
X0530340Y0177413D01*
X0521736Y0177413D01*
X0521736Y0179217D01*
X0521736Y0177808D02*
X0530340Y0177808D01*
X0530340Y0178203D02*
X0521736Y0178203D01*
X0521736Y0178598D02*
X0530340Y0178598D01*
X0530340Y0178993D02*
X0521736Y0178993D01*
X0521736Y0184217D02*
X0530340Y0184217D01*
X0530340Y0182413D01*
X0521736Y0182413D01*
X0521736Y0184217D01*
X0521736Y0182808D02*
X0530340Y0182808D01*
X0530340Y0183203D02*
X0521736Y0183203D01*
X0521736Y0183598D02*
X0530340Y0183598D01*
X0530340Y0183993D02*
X0521736Y0183993D01*
X0521736Y0189217D02*
X0530340Y0189217D01*
X0530340Y0187413D01*
X0521736Y0187413D01*
X0521736Y0189217D01*
X0521736Y0187808D02*
X0530340Y0187808D01*
X0530340Y0188203D02*
X0521736Y0188203D01*
X0521736Y0188598D02*
X0530340Y0188598D01*
X0530340Y0188993D02*
X0521736Y0188993D01*
X0521736Y0194217D02*
X0530340Y0194217D01*
X0530340Y0192413D01*
X0521736Y0192413D01*
X0521736Y0194217D01*
X0521736Y0192808D02*
X0530340Y0192808D01*
X0530340Y0193203D02*
X0521736Y0193203D01*
X0521736Y0193598D02*
X0530340Y0193598D01*
X0530340Y0193993D02*
X0521736Y0193993D01*
X0521736Y0199217D02*
X0530340Y0199217D01*
X0530340Y0197413D01*
X0521736Y0197413D01*
X0521736Y0199217D01*
X0521736Y0197808D02*
X0530340Y0197808D01*
X0530340Y0198203D02*
X0521736Y0198203D01*
X0521736Y0198598D02*
X0530340Y0198598D01*
X0530340Y0198993D02*
X0521736Y0198993D01*
X0521736Y0204217D02*
X0530340Y0204217D01*
X0530340Y0202413D01*
X0521736Y0202413D01*
X0521736Y0204217D01*
X0521736Y0202808D02*
X0530340Y0202808D01*
X0530340Y0203203D02*
X0521736Y0203203D01*
X0521736Y0203598D02*
X0530340Y0203598D01*
X0530340Y0203993D02*
X0521736Y0203993D01*
X0559036Y0204217D02*
X0567640Y0204217D01*
X0567640Y0202413D01*
X0559036Y0202413D01*
X0559036Y0204217D01*
X0559036Y0202808D02*
X0567640Y0202808D01*
X0567640Y0203203D02*
X0559036Y0203203D01*
X0559036Y0203598D02*
X0567640Y0203598D01*
X0567640Y0203993D02*
X0559036Y0203993D01*
X0559036Y0199217D02*
X0567640Y0199217D01*
X0567640Y0197413D01*
X0559036Y0197413D01*
X0559036Y0199217D01*
X0559036Y0197808D02*
X0567640Y0197808D01*
X0567640Y0198203D02*
X0559036Y0198203D01*
X0559036Y0198598D02*
X0567640Y0198598D01*
X0567640Y0198993D02*
X0559036Y0198993D01*
X0559036Y0194217D02*
X0567640Y0194217D01*
X0567640Y0192413D01*
X0559036Y0192413D01*
X0559036Y0194217D01*
X0559036Y0192808D02*
X0567640Y0192808D01*
X0567640Y0193203D02*
X0559036Y0193203D01*
X0559036Y0193598D02*
X0567640Y0193598D01*
X0567640Y0193993D02*
X0559036Y0193993D01*
X0559036Y0189217D02*
X0567640Y0189217D01*
X0567640Y0187413D01*
X0559036Y0187413D01*
X0559036Y0189217D01*
X0559036Y0187808D02*
X0567640Y0187808D01*
X0567640Y0188203D02*
X0559036Y0188203D01*
X0559036Y0188598D02*
X0567640Y0188598D01*
X0567640Y0188993D02*
X0559036Y0188993D01*
X0559036Y0184217D02*
X0567640Y0184217D01*
X0567640Y0182413D01*
X0559036Y0182413D01*
X0559036Y0184217D01*
X0559036Y0182808D02*
X0567640Y0182808D01*
X0567640Y0183203D02*
X0559036Y0183203D01*
X0559036Y0183598D02*
X0567640Y0183598D01*
X0567640Y0183993D02*
X0559036Y0183993D01*
X0559036Y0179217D02*
X0567640Y0179217D01*
X0567640Y0177413D01*
X0559036Y0177413D01*
X0559036Y0179217D01*
X0559036Y0177808D02*
X0567640Y0177808D01*
X0567640Y0178203D02*
X0559036Y0178203D01*
X0559036Y0178598D02*
X0567640Y0178598D01*
X0567640Y0178993D02*
X0559036Y0178993D01*
X0559036Y0174217D02*
X0567640Y0174217D01*
X0567640Y0172413D01*
X0559036Y0172413D01*
X0559036Y0174217D01*
X0559036Y0172808D02*
X0567640Y0172808D01*
X0567640Y0173203D02*
X0559036Y0173203D01*
X0559036Y0173598D02*
X0567640Y0173598D01*
X0567640Y0173993D02*
X0559036Y0173993D01*
X0559036Y0169217D02*
X0567640Y0169217D01*
X0567640Y0167413D01*
X0559036Y0167413D01*
X0559036Y0169217D01*
X0559036Y0167808D02*
X0567640Y0167808D01*
X0567640Y0168203D02*
X0559036Y0168203D01*
X0559036Y0168598D02*
X0567640Y0168598D01*
X0567640Y0168993D02*
X0559036Y0168993D01*
X0559036Y0164217D02*
X0567640Y0164217D01*
X0567640Y0162413D01*
X0559036Y0162413D01*
X0559036Y0164217D01*
X0559036Y0162808D02*
X0567640Y0162808D01*
X0567640Y0163203D02*
X0559036Y0163203D01*
X0559036Y0163598D02*
X0567640Y0163598D01*
X0567640Y0163993D02*
X0559036Y0163993D01*
X0559036Y0243967D02*
X0567640Y0243967D01*
X0567640Y0242163D01*
X0559036Y0242163D01*
X0559036Y0243967D01*
X0559036Y0242558D02*
X0567640Y0242558D01*
X0567640Y0242953D02*
X0559036Y0242953D01*
X0559036Y0243348D02*
X0567640Y0243348D01*
X0567640Y0243743D02*
X0559036Y0243743D01*
X0559036Y0248967D02*
X0567640Y0248967D01*
X0567640Y0247163D01*
X0559036Y0247163D01*
X0559036Y0248967D01*
X0559036Y0247558D02*
X0567640Y0247558D01*
X0567640Y0247953D02*
X0559036Y0247953D01*
X0559036Y0248348D02*
X0567640Y0248348D01*
X0567640Y0248743D02*
X0559036Y0248743D01*
X0559036Y0253967D02*
X0567640Y0253967D01*
X0567640Y0252163D01*
X0559036Y0252163D01*
X0559036Y0253967D01*
X0559036Y0252558D02*
X0567640Y0252558D01*
X0567640Y0252953D02*
X0559036Y0252953D01*
X0559036Y0253348D02*
X0567640Y0253348D01*
X0567640Y0253743D02*
X0559036Y0253743D01*
X0559036Y0258967D02*
X0567640Y0258967D01*
X0567640Y0257163D01*
X0559036Y0257163D01*
X0559036Y0258967D01*
X0559036Y0257558D02*
X0567640Y0257558D01*
X0567640Y0257953D02*
X0559036Y0257953D01*
X0559036Y0258348D02*
X0567640Y0258348D01*
X0567640Y0258743D02*
X0559036Y0258743D01*
X0559036Y0263967D02*
X0567640Y0263967D01*
X0567640Y0262163D01*
X0559036Y0262163D01*
X0559036Y0263967D01*
X0559036Y0262558D02*
X0567640Y0262558D01*
X0567640Y0262953D02*
X0559036Y0262953D01*
X0559036Y0263348D02*
X0567640Y0263348D01*
X0567640Y0263743D02*
X0559036Y0263743D01*
X0559036Y0268967D02*
X0567640Y0268967D01*
X0567640Y0267163D01*
X0559036Y0267163D01*
X0559036Y0268967D01*
X0559036Y0267558D02*
X0567640Y0267558D01*
X0567640Y0267953D02*
X0559036Y0267953D01*
X0559036Y0268348D02*
X0567640Y0268348D01*
X0567640Y0268743D02*
X0559036Y0268743D01*
X0559036Y0273967D02*
X0567640Y0273967D01*
X0567640Y0272163D01*
X0559036Y0272163D01*
X0559036Y0273967D01*
X0559036Y0272558D02*
X0567640Y0272558D01*
X0567640Y0272953D02*
X0559036Y0272953D01*
X0559036Y0273348D02*
X0567640Y0273348D01*
X0567640Y0273743D02*
X0559036Y0273743D01*
X0559036Y0278967D02*
X0567640Y0278967D01*
X0567640Y0277163D01*
X0559036Y0277163D01*
X0559036Y0278967D01*
X0559036Y0277558D02*
X0567640Y0277558D01*
X0567640Y0277953D02*
X0559036Y0277953D01*
X0559036Y0278348D02*
X0567640Y0278348D01*
X0567640Y0278743D02*
X0559036Y0278743D01*
X0559036Y0283967D02*
X0567640Y0283967D01*
X0567640Y0282163D01*
X0559036Y0282163D01*
X0559036Y0283967D01*
X0559036Y0282558D02*
X0567640Y0282558D01*
X0567640Y0282953D02*
X0559036Y0282953D01*
X0559036Y0283348D02*
X0567640Y0283348D01*
X0567640Y0283743D02*
X0559036Y0283743D01*
X0530340Y0283967D02*
X0521736Y0283967D01*
X0530340Y0283967D02*
X0530340Y0282163D01*
X0521736Y0282163D01*
X0521736Y0283967D01*
X0521736Y0282558D02*
X0530340Y0282558D01*
X0530340Y0282953D02*
X0521736Y0282953D01*
X0521736Y0283348D02*
X0530340Y0283348D01*
X0530340Y0283743D02*
X0521736Y0283743D01*
X0521736Y0278967D02*
X0530340Y0278967D01*
X0530340Y0277163D01*
X0521736Y0277163D01*
X0521736Y0278967D01*
X0521736Y0277558D02*
X0530340Y0277558D01*
X0530340Y0277953D02*
X0521736Y0277953D01*
X0521736Y0278348D02*
X0530340Y0278348D01*
X0530340Y0278743D02*
X0521736Y0278743D01*
X0521736Y0273967D02*
X0530340Y0273967D01*
X0530340Y0272163D01*
X0521736Y0272163D01*
X0521736Y0273967D01*
X0521736Y0272558D02*
X0530340Y0272558D01*
X0530340Y0272953D02*
X0521736Y0272953D01*
X0521736Y0273348D02*
X0530340Y0273348D01*
X0530340Y0273743D02*
X0521736Y0273743D01*
X0521736Y0268967D02*
X0530340Y0268967D01*
X0530340Y0267163D01*
X0521736Y0267163D01*
X0521736Y0268967D01*
X0521736Y0267558D02*
X0530340Y0267558D01*
X0530340Y0267953D02*
X0521736Y0267953D01*
X0521736Y0268348D02*
X0530340Y0268348D01*
X0530340Y0268743D02*
X0521736Y0268743D01*
X0521736Y0263967D02*
X0530340Y0263967D01*
X0530340Y0262163D01*
X0521736Y0262163D01*
X0521736Y0263967D01*
X0521736Y0262558D02*
X0530340Y0262558D01*
X0530340Y0262953D02*
X0521736Y0262953D01*
X0521736Y0263348D02*
X0530340Y0263348D01*
X0530340Y0263743D02*
X0521736Y0263743D01*
X0521736Y0258967D02*
X0530340Y0258967D01*
X0530340Y0257163D01*
X0521736Y0257163D01*
X0521736Y0258967D01*
X0521736Y0257558D02*
X0530340Y0257558D01*
X0530340Y0257953D02*
X0521736Y0257953D01*
X0521736Y0258348D02*
X0530340Y0258348D01*
X0530340Y0258743D02*
X0521736Y0258743D01*
X0521736Y0253967D02*
X0530340Y0253967D01*
X0530340Y0252163D01*
X0521736Y0252163D01*
X0521736Y0253967D01*
X0521736Y0252558D02*
X0530340Y0252558D01*
X0530340Y0252953D02*
X0521736Y0252953D01*
X0521736Y0253348D02*
X0530340Y0253348D01*
X0530340Y0253743D02*
X0521736Y0253743D01*
X0521736Y0248967D02*
X0530340Y0248967D01*
X0530340Y0247163D01*
X0521736Y0247163D01*
X0521736Y0248967D01*
X0521736Y0247558D02*
X0530340Y0247558D01*
X0530340Y0247953D02*
X0521736Y0247953D01*
X0521736Y0248348D02*
X0530340Y0248348D01*
X0530340Y0248743D02*
X0521736Y0248743D01*
X0521736Y0243967D02*
X0530340Y0243967D01*
X0530340Y0242163D01*
X0521736Y0242163D01*
X0521736Y0243967D01*
X0521736Y0242558D02*
X0530340Y0242558D01*
X0530340Y0242953D02*
X0521736Y0242953D01*
X0521736Y0243348D02*
X0530340Y0243348D01*
X0530340Y0243743D02*
X0521736Y0243743D01*
X0521386Y0315717D02*
X0526990Y0315717D01*
X0526990Y0313913D01*
X0521386Y0313913D01*
X0521386Y0315717D01*
X0521386Y0314308D02*
X0526990Y0314308D01*
X0526990Y0314703D02*
X0521386Y0314703D01*
X0521386Y0315098D02*
X0526990Y0315098D01*
X0526990Y0315493D02*
X0521386Y0315493D01*
X0518490Y0319717D02*
X0512886Y0319717D01*
X0518490Y0319717D02*
X0518490Y0317913D01*
X0512886Y0317913D01*
X0512886Y0319717D01*
X0512886Y0318308D02*
X0518490Y0318308D01*
X0518490Y0318703D02*
X0512886Y0318703D01*
X0512886Y0319098D02*
X0518490Y0319098D01*
X0518490Y0319493D02*
X0512886Y0319493D01*
X0521386Y0323717D02*
X0526990Y0323717D01*
X0526990Y0321913D01*
X0521386Y0321913D01*
X0521386Y0323717D01*
X0521386Y0322308D02*
X0526990Y0322308D01*
X0526990Y0322703D02*
X0521386Y0322703D01*
X0521386Y0323098D02*
X0526990Y0323098D01*
X0526990Y0323493D02*
X0521386Y0323493D01*
X0421740Y0104917D02*
X0416936Y0104917D01*
X0421740Y0104917D02*
X0421740Y0103113D01*
X0416936Y0103113D01*
X0416936Y0104917D01*
X0416936Y0103508D02*
X0421740Y0103508D01*
X0421740Y0103903D02*
X0416936Y0103903D01*
X0416936Y0104298D02*
X0421740Y0104298D01*
X0421740Y0104693D02*
X0416936Y0104693D01*
X0416936Y0101217D02*
X0421740Y0101217D01*
X0421740Y0099413D01*
X0416936Y0099413D01*
X0416936Y0101217D01*
X0416936Y0099808D02*
X0421740Y0099808D01*
X0421740Y0100203D02*
X0416936Y0100203D01*
X0416936Y0100598D02*
X0421740Y0100598D01*
X0421740Y0100993D02*
X0416936Y0100993D01*
X0416936Y0097517D02*
X0421740Y0097517D01*
X0421740Y0095713D01*
X0416936Y0095713D01*
X0416936Y0097517D01*
X0416936Y0096108D02*
X0421740Y0096108D01*
X0421740Y0096503D02*
X0416936Y0096503D01*
X0416936Y0096898D02*
X0421740Y0096898D01*
X0421740Y0097293D02*
X0416936Y0097293D01*
X0410940Y0097517D02*
X0406136Y0097517D01*
X0410940Y0097517D02*
X0410940Y0095713D01*
X0406136Y0095713D01*
X0406136Y0097517D01*
X0406136Y0096108D02*
X0410940Y0096108D01*
X0410940Y0096503D02*
X0406136Y0096503D01*
X0406136Y0096898D02*
X0410940Y0096898D01*
X0410940Y0097293D02*
X0406136Y0097293D01*
X0406136Y0104917D02*
X0410940Y0104917D01*
X0410940Y0103113D01*
X0406136Y0103113D01*
X0406136Y0104917D01*
X0406136Y0103508D02*
X0410940Y0103508D01*
X0410940Y0103903D02*
X0406136Y0103903D01*
X0406136Y0104298D02*
X0410940Y0104298D01*
X0410940Y0104693D02*
X0406136Y0104693D01*
X0286490Y0087753D02*
X0281086Y0087753D01*
X0281086Y0089557D01*
X0286490Y0089557D01*
X0286490Y0087753D01*
X0286490Y0088148D02*
X0281086Y0088148D01*
X0281086Y0088543D02*
X0286490Y0088543D01*
X0286490Y0088938D02*
X0281086Y0088938D01*
X0281086Y0089333D02*
X0286490Y0089333D01*
X0286490Y0080273D02*
X0281086Y0080273D01*
X0281086Y0082077D01*
X0286490Y0082077D01*
X0286490Y0080273D01*
X0286490Y0080668D02*
X0281086Y0080668D01*
X0281086Y0081063D02*
X0286490Y0081063D01*
X0286490Y0081458D02*
X0281086Y0081458D01*
X0281086Y0081853D02*
X0286490Y0081853D01*
X0277090Y0080273D02*
X0271686Y0080273D01*
X0271686Y0082077D01*
X0277090Y0082077D01*
X0277090Y0080273D01*
X0277090Y0080668D02*
X0271686Y0080668D01*
X0271686Y0081063D02*
X0277090Y0081063D01*
X0277090Y0081458D02*
X0271686Y0081458D01*
X0271686Y0081853D02*
X0277090Y0081853D01*
X0277090Y0084013D02*
X0271686Y0084013D01*
X0271686Y0085817D01*
X0277090Y0085817D01*
X0277090Y0084013D01*
X0277090Y0084408D02*
X0271686Y0084408D01*
X0271686Y0084803D02*
X0277090Y0084803D01*
X0277090Y0085198D02*
X0271686Y0085198D01*
X0271686Y0085593D02*
X0277090Y0085593D01*
X0277090Y0087753D02*
X0271686Y0087753D01*
X0271686Y0089557D01*
X0277090Y0089557D01*
X0277090Y0087753D01*
X0277090Y0088148D02*
X0271686Y0088148D01*
X0271686Y0088543D02*
X0277090Y0088543D01*
X0277090Y0088938D02*
X0271686Y0088938D01*
X0271686Y0089333D02*
X0277090Y0089333D01*
D13*
X0163553Y0091764D02*
X0158843Y0091764D01*
X0163553Y0091764D02*
X0163553Y0086266D01*
X0158843Y0086266D01*
X0158843Y0091764D01*
X0158843Y0086674D02*
X0163553Y0086674D01*
X0163553Y0087082D02*
X0158843Y0087082D01*
X0158843Y0087490D02*
X0163553Y0087490D01*
X0163553Y0087898D02*
X0158843Y0087898D01*
X0158843Y0088306D02*
X0163553Y0088306D01*
X0163553Y0088714D02*
X0158843Y0088714D01*
X0158843Y0089122D02*
X0163553Y0089122D01*
X0163553Y0089530D02*
X0158843Y0089530D01*
X0158843Y0089938D02*
X0163553Y0089938D01*
X0163553Y0090346D02*
X0158843Y0090346D01*
X0158843Y0090754D02*
X0163553Y0090754D01*
X0163553Y0091162D02*
X0158843Y0091162D01*
X0158843Y0091570D02*
X0163553Y0091570D01*
X0166323Y0091764D02*
X0171033Y0091764D01*
X0171033Y0086266D01*
X0166323Y0086266D01*
X0166323Y0091764D01*
X0166323Y0086674D02*
X0171033Y0086674D01*
X0171033Y0087082D02*
X0166323Y0087082D01*
X0166323Y0087490D02*
X0171033Y0087490D01*
X0171033Y0087898D02*
X0166323Y0087898D01*
X0166323Y0088306D02*
X0171033Y0088306D01*
X0171033Y0088714D02*
X0166323Y0088714D01*
X0166323Y0089122D02*
X0171033Y0089122D01*
X0171033Y0089530D02*
X0166323Y0089530D01*
X0166323Y0089938D02*
X0171033Y0089938D01*
X0171033Y0090346D02*
X0166323Y0090346D01*
X0166323Y0090754D02*
X0171033Y0090754D01*
X0171033Y0091162D02*
X0166323Y0091162D01*
X0166323Y0091570D02*
X0171033Y0091570D01*
X0250893Y0090764D02*
X0255603Y0090764D01*
X0255603Y0085266D01*
X0250893Y0085266D01*
X0250893Y0090764D01*
X0250893Y0085674D02*
X0255603Y0085674D01*
X0255603Y0086082D02*
X0250893Y0086082D01*
X0250893Y0086490D02*
X0255603Y0086490D01*
X0255603Y0086898D02*
X0250893Y0086898D01*
X0250893Y0087306D02*
X0255603Y0087306D01*
X0255603Y0087714D02*
X0250893Y0087714D01*
X0250893Y0088122D02*
X0255603Y0088122D01*
X0255603Y0088530D02*
X0250893Y0088530D01*
X0250893Y0088938D02*
X0255603Y0088938D01*
X0255603Y0089346D02*
X0250893Y0089346D01*
X0250893Y0089754D02*
X0255603Y0089754D01*
X0255603Y0090162D02*
X0250893Y0090162D01*
X0250893Y0090570D02*
X0255603Y0090570D01*
X0258373Y0090764D02*
X0263083Y0090764D01*
X0263083Y0085266D01*
X0258373Y0085266D01*
X0258373Y0090764D01*
X0258373Y0085674D02*
X0263083Y0085674D01*
X0263083Y0086082D02*
X0258373Y0086082D01*
X0258373Y0086490D02*
X0263083Y0086490D01*
X0263083Y0086898D02*
X0258373Y0086898D01*
X0258373Y0087306D02*
X0263083Y0087306D01*
X0263083Y0087714D02*
X0258373Y0087714D01*
X0258373Y0088122D02*
X0263083Y0088122D01*
X0263083Y0088530D02*
X0258373Y0088530D01*
X0258373Y0088938D02*
X0263083Y0088938D01*
X0263083Y0089346D02*
X0258373Y0089346D01*
X0258373Y0089754D02*
X0263083Y0089754D01*
X0263083Y0090162D02*
X0258373Y0090162D01*
X0258373Y0090570D02*
X0263083Y0090570D01*
X0272893Y0093216D02*
X0277603Y0093216D01*
X0272893Y0093216D02*
X0272893Y0098714D01*
X0277603Y0098714D01*
X0277603Y0093216D01*
X0277603Y0093624D02*
X0272893Y0093624D01*
X0272893Y0094032D02*
X0277603Y0094032D01*
X0277603Y0094440D02*
X0272893Y0094440D01*
X0272893Y0094848D02*
X0277603Y0094848D01*
X0277603Y0095256D02*
X0272893Y0095256D01*
X0272893Y0095664D02*
X0277603Y0095664D01*
X0277603Y0096072D02*
X0272893Y0096072D01*
X0272893Y0096480D02*
X0277603Y0096480D01*
X0277603Y0096888D02*
X0272893Y0096888D01*
X0272893Y0097296D02*
X0277603Y0097296D01*
X0277603Y0097704D02*
X0272893Y0097704D01*
X0272893Y0098112D02*
X0277603Y0098112D01*
X0277603Y0098520D02*
X0272893Y0098520D01*
X0272893Y0106464D02*
X0277603Y0106464D01*
X0277603Y0100966D01*
X0272893Y0100966D01*
X0272893Y0106464D01*
X0272893Y0101374D02*
X0277603Y0101374D01*
X0277603Y0101782D02*
X0272893Y0101782D01*
X0272893Y0102190D02*
X0277603Y0102190D01*
X0277603Y0102598D02*
X0272893Y0102598D01*
X0272893Y0103006D02*
X0277603Y0103006D01*
X0277603Y0103414D02*
X0272893Y0103414D01*
X0272893Y0103822D02*
X0277603Y0103822D01*
X0277603Y0104230D02*
X0272893Y0104230D01*
X0272893Y0104638D02*
X0277603Y0104638D01*
X0277603Y0105046D02*
X0272893Y0105046D01*
X0272893Y0105454D02*
X0277603Y0105454D01*
X0277603Y0105862D02*
X0272893Y0105862D01*
X0272893Y0106270D02*
X0277603Y0106270D01*
X0280373Y0106464D02*
X0285083Y0106464D01*
X0285083Y0100966D01*
X0280373Y0100966D01*
X0280373Y0106464D01*
X0280373Y0101374D02*
X0285083Y0101374D01*
X0285083Y0101782D02*
X0280373Y0101782D01*
X0280373Y0102190D02*
X0285083Y0102190D01*
X0285083Y0102598D02*
X0280373Y0102598D01*
X0280373Y0103006D02*
X0285083Y0103006D01*
X0285083Y0103414D02*
X0280373Y0103414D01*
X0280373Y0103822D02*
X0285083Y0103822D01*
X0285083Y0104230D02*
X0280373Y0104230D01*
X0280373Y0104638D02*
X0285083Y0104638D01*
X0285083Y0105046D02*
X0280373Y0105046D01*
X0280373Y0105454D02*
X0285083Y0105454D01*
X0285083Y0105862D02*
X0280373Y0105862D01*
X0280373Y0106270D02*
X0285083Y0106270D01*
X0285083Y0093216D02*
X0280373Y0093216D01*
X0280373Y0098714D01*
X0285083Y0098714D01*
X0285083Y0093216D01*
X0285083Y0093624D02*
X0280373Y0093624D01*
X0280373Y0094032D02*
X0285083Y0094032D01*
X0285083Y0094440D02*
X0280373Y0094440D01*
X0280373Y0094848D02*
X0285083Y0094848D01*
X0285083Y0095256D02*
X0280373Y0095256D01*
X0280373Y0095664D02*
X0285083Y0095664D01*
X0285083Y0096072D02*
X0280373Y0096072D01*
X0280373Y0096480D02*
X0285083Y0096480D01*
X0285083Y0096888D02*
X0280373Y0096888D01*
X0280373Y0097296D02*
X0285083Y0097296D01*
X0285083Y0097704D02*
X0280373Y0097704D01*
X0280373Y0098112D02*
X0285083Y0098112D01*
X0285083Y0098520D02*
X0280373Y0098520D01*
X0301993Y0084766D02*
X0306703Y0084766D01*
X0301993Y0084766D02*
X0301993Y0090264D01*
X0306703Y0090264D01*
X0306703Y0084766D01*
X0306703Y0085174D02*
X0301993Y0085174D01*
X0301993Y0085582D02*
X0306703Y0085582D01*
X0306703Y0085990D02*
X0301993Y0085990D01*
X0301993Y0086398D02*
X0306703Y0086398D01*
X0306703Y0086806D02*
X0301993Y0086806D01*
X0301993Y0087214D02*
X0306703Y0087214D01*
X0306703Y0087622D02*
X0301993Y0087622D01*
X0301993Y0088030D02*
X0306703Y0088030D01*
X0306703Y0088438D02*
X0301993Y0088438D01*
X0301993Y0088846D02*
X0306703Y0088846D01*
X0306703Y0089254D02*
X0301993Y0089254D01*
X0301993Y0089662D02*
X0306703Y0089662D01*
X0306703Y0090070D02*
X0301993Y0090070D01*
X0309473Y0084766D02*
X0314183Y0084766D01*
X0309473Y0084766D02*
X0309473Y0090264D01*
X0314183Y0090264D01*
X0314183Y0084766D01*
X0314183Y0085174D02*
X0309473Y0085174D01*
X0309473Y0085582D02*
X0314183Y0085582D01*
X0314183Y0085990D02*
X0309473Y0085990D01*
X0309473Y0086398D02*
X0314183Y0086398D01*
X0314183Y0086806D02*
X0309473Y0086806D01*
X0309473Y0087214D02*
X0314183Y0087214D01*
X0314183Y0087622D02*
X0309473Y0087622D01*
X0309473Y0088030D02*
X0314183Y0088030D01*
X0314183Y0088438D02*
X0309473Y0088438D01*
X0309473Y0088846D02*
X0314183Y0088846D01*
X0314183Y0089254D02*
X0309473Y0089254D01*
X0309473Y0089662D02*
X0314183Y0089662D01*
X0314183Y0090070D02*
X0309473Y0090070D01*
X0342652Y0099164D02*
X0347362Y0099164D01*
X0347362Y0093666D01*
X0342652Y0093666D01*
X0342652Y0099164D01*
X0342652Y0094074D02*
X0347362Y0094074D01*
X0347362Y0094482D02*
X0342652Y0094482D01*
X0342652Y0094890D02*
X0347362Y0094890D01*
X0347362Y0095298D02*
X0342652Y0095298D01*
X0342652Y0095706D02*
X0347362Y0095706D01*
X0347362Y0096114D02*
X0342652Y0096114D01*
X0342652Y0096522D02*
X0347362Y0096522D01*
X0347362Y0096930D02*
X0342652Y0096930D01*
X0342652Y0097338D02*
X0347362Y0097338D01*
X0347362Y0097746D02*
X0342652Y0097746D01*
X0342652Y0098154D02*
X0347362Y0098154D01*
X0347362Y0098562D02*
X0342652Y0098562D01*
X0342652Y0098970D02*
X0347362Y0098970D01*
X0350133Y0099164D02*
X0354843Y0099164D01*
X0354843Y0093666D01*
X0350133Y0093666D01*
X0350133Y0099164D01*
X0350133Y0094074D02*
X0354843Y0094074D01*
X0354843Y0094482D02*
X0350133Y0094482D01*
X0350133Y0094890D02*
X0354843Y0094890D01*
X0354843Y0095298D02*
X0350133Y0095298D01*
X0350133Y0095706D02*
X0354843Y0095706D01*
X0354843Y0096114D02*
X0350133Y0096114D01*
X0350133Y0096522D02*
X0354843Y0096522D01*
X0354843Y0096930D02*
X0350133Y0096930D01*
X0350133Y0097338D02*
X0354843Y0097338D01*
X0354843Y0097746D02*
X0350133Y0097746D01*
X0350133Y0098154D02*
X0354843Y0098154D01*
X0354843Y0098562D02*
X0350133Y0098562D01*
X0350133Y0098970D02*
X0354843Y0098970D01*
X0357613Y0099164D02*
X0362323Y0099164D01*
X0362323Y0093666D01*
X0357613Y0093666D01*
X0357613Y0099164D01*
X0357613Y0094074D02*
X0362323Y0094074D01*
X0362323Y0094482D02*
X0357613Y0094482D01*
X0357613Y0094890D02*
X0362323Y0094890D01*
X0362323Y0095298D02*
X0357613Y0095298D01*
X0357613Y0095706D02*
X0362323Y0095706D01*
X0362323Y0096114D02*
X0357613Y0096114D01*
X0357613Y0096522D02*
X0362323Y0096522D01*
X0362323Y0096930D02*
X0357613Y0096930D01*
X0357613Y0097338D02*
X0362323Y0097338D01*
X0362323Y0097746D02*
X0357613Y0097746D01*
X0357613Y0098154D02*
X0362323Y0098154D01*
X0362323Y0098562D02*
X0357613Y0098562D01*
X0357613Y0098970D02*
X0362323Y0098970D01*
X0390343Y0098064D02*
X0395053Y0098064D01*
X0395053Y0092566D01*
X0390343Y0092566D01*
X0390343Y0098064D01*
X0390343Y0092974D02*
X0395053Y0092974D01*
X0395053Y0093382D02*
X0390343Y0093382D01*
X0390343Y0093790D02*
X0395053Y0093790D01*
X0395053Y0094198D02*
X0390343Y0094198D01*
X0390343Y0094606D02*
X0395053Y0094606D01*
X0395053Y0095014D02*
X0390343Y0095014D01*
X0390343Y0095422D02*
X0395053Y0095422D01*
X0395053Y0095830D02*
X0390343Y0095830D01*
X0390343Y0096238D02*
X0395053Y0096238D01*
X0395053Y0096646D02*
X0390343Y0096646D01*
X0390343Y0097054D02*
X0395053Y0097054D01*
X0395053Y0097462D02*
X0390343Y0097462D01*
X0390343Y0097870D02*
X0395053Y0097870D01*
X0395053Y0100316D02*
X0390343Y0100316D01*
X0390343Y0105814D01*
X0395053Y0105814D01*
X0395053Y0100316D01*
X0395053Y0100724D02*
X0390343Y0100724D01*
X0390343Y0101132D02*
X0395053Y0101132D01*
X0395053Y0101540D02*
X0390343Y0101540D01*
X0390343Y0101948D02*
X0395053Y0101948D01*
X0395053Y0102356D02*
X0390343Y0102356D01*
X0390343Y0102764D02*
X0395053Y0102764D01*
X0395053Y0103172D02*
X0390343Y0103172D01*
X0390343Y0103580D02*
X0395053Y0103580D01*
X0395053Y0103988D02*
X0390343Y0103988D01*
X0390343Y0104396D02*
X0395053Y0104396D01*
X0395053Y0104804D02*
X0390343Y0104804D01*
X0390343Y0105212D02*
X0395053Y0105212D01*
X0395053Y0105620D02*
X0390343Y0105620D01*
X0397823Y0100316D02*
X0402533Y0100316D01*
X0397823Y0100316D02*
X0397823Y0105814D01*
X0402533Y0105814D01*
X0402533Y0100316D01*
X0402533Y0100724D02*
X0397823Y0100724D01*
X0397823Y0101132D02*
X0402533Y0101132D01*
X0402533Y0101540D02*
X0397823Y0101540D01*
X0397823Y0101948D02*
X0402533Y0101948D01*
X0402533Y0102356D02*
X0397823Y0102356D01*
X0397823Y0102764D02*
X0402533Y0102764D01*
X0402533Y0103172D02*
X0397823Y0103172D01*
X0397823Y0103580D02*
X0402533Y0103580D01*
X0402533Y0103988D02*
X0397823Y0103988D01*
X0397823Y0104396D02*
X0402533Y0104396D01*
X0402533Y0104804D02*
X0397823Y0104804D01*
X0397823Y0105212D02*
X0402533Y0105212D01*
X0402533Y0105620D02*
X0397823Y0105620D01*
X0397823Y0098064D02*
X0402533Y0098064D01*
X0402533Y0092566D01*
X0397823Y0092566D01*
X0397823Y0098064D01*
X0397823Y0092974D02*
X0402533Y0092974D01*
X0402533Y0093382D02*
X0397823Y0093382D01*
X0397823Y0093790D02*
X0402533Y0093790D01*
X0402533Y0094198D02*
X0397823Y0094198D01*
X0397823Y0094606D02*
X0402533Y0094606D01*
X0402533Y0095014D02*
X0397823Y0095014D01*
X0397823Y0095422D02*
X0402533Y0095422D01*
X0402533Y0095830D02*
X0397823Y0095830D01*
X0397823Y0096238D02*
X0402533Y0096238D01*
X0402533Y0096646D02*
X0397823Y0096646D01*
X0397823Y0097054D02*
X0402533Y0097054D01*
X0402533Y0097462D02*
X0397823Y0097462D01*
X0397823Y0097870D02*
X0402533Y0097870D01*
X0424939Y0098200D02*
X0424939Y0102910D01*
X0430437Y0102910D01*
X0430437Y0098200D01*
X0424939Y0098200D01*
X0424939Y0098608D02*
X0430437Y0098608D01*
X0430437Y0099016D02*
X0424939Y0099016D01*
X0424939Y0099424D02*
X0430437Y0099424D01*
X0430437Y0099832D02*
X0424939Y0099832D01*
X0424939Y0100240D02*
X0430437Y0100240D01*
X0430437Y0100648D02*
X0424939Y0100648D01*
X0424939Y0101056D02*
X0430437Y0101056D01*
X0430437Y0101464D02*
X0424939Y0101464D01*
X0424939Y0101872D02*
X0430437Y0101872D01*
X0430437Y0102280D02*
X0424939Y0102280D01*
X0424939Y0102688D02*
X0430437Y0102688D01*
X0424939Y0095430D02*
X0424939Y0090720D01*
X0424939Y0095430D02*
X0430437Y0095430D01*
X0430437Y0090720D01*
X0424939Y0090720D01*
X0424939Y0091128D02*
X0430437Y0091128D01*
X0430437Y0091536D02*
X0424939Y0091536D01*
X0424939Y0091944D02*
X0430437Y0091944D01*
X0430437Y0092352D02*
X0424939Y0092352D01*
X0424939Y0092760D02*
X0430437Y0092760D01*
X0430437Y0093168D02*
X0424939Y0093168D01*
X0424939Y0093576D02*
X0430437Y0093576D01*
X0430437Y0093984D02*
X0424939Y0093984D01*
X0424939Y0094392D02*
X0430437Y0094392D01*
X0430437Y0094800D02*
X0424939Y0094800D01*
X0424939Y0095208D02*
X0430437Y0095208D01*
X0459843Y0096816D02*
X0464553Y0096816D01*
X0459843Y0096816D02*
X0459843Y0102314D01*
X0464553Y0102314D01*
X0464553Y0096816D01*
X0464553Y0097224D02*
X0459843Y0097224D01*
X0459843Y0097632D02*
X0464553Y0097632D01*
X0464553Y0098040D02*
X0459843Y0098040D01*
X0459843Y0098448D02*
X0464553Y0098448D01*
X0464553Y0098856D02*
X0459843Y0098856D01*
X0459843Y0099264D02*
X0464553Y0099264D01*
X0464553Y0099672D02*
X0459843Y0099672D01*
X0459843Y0100080D02*
X0464553Y0100080D01*
X0464553Y0100488D02*
X0459843Y0100488D01*
X0459843Y0100896D02*
X0464553Y0100896D01*
X0464553Y0101304D02*
X0459843Y0101304D01*
X0459843Y0101712D02*
X0464553Y0101712D01*
X0464553Y0102120D02*
X0459843Y0102120D01*
X0467323Y0096816D02*
X0472033Y0096816D01*
X0467323Y0096816D02*
X0467323Y0102314D01*
X0472033Y0102314D01*
X0472033Y0096816D01*
X0472033Y0097224D02*
X0467323Y0097224D01*
X0467323Y0097632D02*
X0472033Y0097632D01*
X0472033Y0098040D02*
X0467323Y0098040D01*
X0467323Y0098448D02*
X0472033Y0098448D01*
X0472033Y0098856D02*
X0467323Y0098856D01*
X0467323Y0099264D02*
X0472033Y0099264D01*
X0472033Y0099672D02*
X0467323Y0099672D01*
X0467323Y0100080D02*
X0472033Y0100080D01*
X0472033Y0100488D02*
X0467323Y0100488D01*
X0467323Y0100896D02*
X0472033Y0100896D01*
X0472033Y0101304D02*
X0467323Y0101304D01*
X0467323Y0101712D02*
X0472033Y0101712D01*
X0472033Y0102120D02*
X0467323Y0102120D01*
X0520093Y0106914D02*
X0524803Y0106914D01*
X0524803Y0101416D01*
X0520093Y0101416D01*
X0520093Y0106914D01*
X0520093Y0101824D02*
X0524803Y0101824D01*
X0524803Y0102232D02*
X0520093Y0102232D01*
X0520093Y0102640D02*
X0524803Y0102640D01*
X0524803Y0103048D02*
X0520093Y0103048D01*
X0520093Y0103456D02*
X0524803Y0103456D01*
X0524803Y0103864D02*
X0520093Y0103864D01*
X0520093Y0104272D02*
X0524803Y0104272D01*
X0524803Y0104680D02*
X0520093Y0104680D01*
X0520093Y0105088D02*
X0524803Y0105088D01*
X0524803Y0105496D02*
X0520093Y0105496D01*
X0520093Y0105904D02*
X0524803Y0105904D01*
X0524803Y0106312D02*
X0520093Y0106312D01*
X0520093Y0106720D02*
X0524803Y0106720D01*
X0527573Y0106914D02*
X0532283Y0106914D01*
X0532283Y0101416D01*
X0527573Y0101416D01*
X0527573Y0106914D01*
X0527573Y0101824D02*
X0532283Y0101824D01*
X0532283Y0102232D02*
X0527573Y0102232D01*
X0527573Y0102640D02*
X0532283Y0102640D01*
X0532283Y0103048D02*
X0527573Y0103048D01*
X0527573Y0103456D02*
X0532283Y0103456D01*
X0532283Y0103864D02*
X0527573Y0103864D01*
X0527573Y0104272D02*
X0532283Y0104272D01*
X0532283Y0104680D02*
X0527573Y0104680D01*
X0527573Y0105088D02*
X0532283Y0105088D01*
X0532283Y0105496D02*
X0527573Y0105496D01*
X0527573Y0105904D02*
X0532283Y0105904D01*
X0532283Y0106312D02*
X0527573Y0106312D01*
X0527573Y0106720D02*
X0532283Y0106720D01*
X0531283Y0085066D02*
X0526573Y0085066D01*
X0526573Y0090564D01*
X0531283Y0090564D01*
X0531283Y0085066D01*
X0531283Y0085474D02*
X0526573Y0085474D01*
X0526573Y0085882D02*
X0531283Y0085882D01*
X0531283Y0086290D02*
X0526573Y0086290D01*
X0526573Y0086698D02*
X0531283Y0086698D01*
X0531283Y0087106D02*
X0526573Y0087106D01*
X0526573Y0087514D02*
X0531283Y0087514D01*
X0531283Y0087922D02*
X0526573Y0087922D01*
X0526573Y0088330D02*
X0531283Y0088330D01*
X0531283Y0088738D02*
X0526573Y0088738D01*
X0526573Y0089146D02*
X0531283Y0089146D01*
X0531283Y0089554D02*
X0526573Y0089554D01*
X0526573Y0089962D02*
X0531283Y0089962D01*
X0531283Y0090370D02*
X0526573Y0090370D01*
X0523803Y0085066D02*
X0519093Y0085066D01*
X0519093Y0090564D01*
X0523803Y0090564D01*
X0523803Y0085066D01*
X0523803Y0085474D02*
X0519093Y0085474D01*
X0519093Y0085882D02*
X0523803Y0085882D01*
X0523803Y0086290D02*
X0519093Y0086290D01*
X0519093Y0086698D02*
X0523803Y0086698D01*
X0523803Y0087106D02*
X0519093Y0087106D01*
X0519093Y0087514D02*
X0523803Y0087514D01*
X0523803Y0087922D02*
X0519093Y0087922D01*
X0519093Y0088330D02*
X0523803Y0088330D01*
X0523803Y0088738D02*
X0519093Y0088738D01*
X0519093Y0089146D02*
X0523803Y0089146D01*
X0523803Y0089554D02*
X0519093Y0089554D01*
X0519093Y0089962D02*
X0523803Y0089962D01*
X0523803Y0090370D02*
X0519093Y0090370D01*
X0535687Y0312720D02*
X0535687Y0317430D01*
X0535687Y0312720D02*
X0530189Y0312720D01*
X0530189Y0317430D01*
X0535687Y0317430D01*
X0535687Y0313128D02*
X0530189Y0313128D01*
X0530189Y0313536D02*
X0535687Y0313536D01*
X0535687Y0313944D02*
X0530189Y0313944D01*
X0530189Y0314352D02*
X0535687Y0314352D01*
X0535687Y0314760D02*
X0530189Y0314760D01*
X0530189Y0315168D02*
X0535687Y0315168D01*
X0535687Y0315576D02*
X0530189Y0315576D01*
X0530189Y0315984D02*
X0535687Y0315984D01*
X0535687Y0316392D02*
X0530189Y0316392D01*
X0530189Y0316800D02*
X0535687Y0316800D01*
X0535687Y0317208D02*
X0530189Y0317208D01*
X0535687Y0320200D02*
X0535687Y0324910D01*
X0535687Y0320200D02*
X0530189Y0320200D01*
X0530189Y0324910D01*
X0535687Y0324910D01*
X0535687Y0320608D02*
X0530189Y0320608D01*
X0530189Y0321016D02*
X0535687Y0321016D01*
X0535687Y0321424D02*
X0530189Y0321424D01*
X0530189Y0321832D02*
X0535687Y0321832D01*
X0535687Y0322240D02*
X0530189Y0322240D01*
X0530189Y0322648D02*
X0535687Y0322648D01*
X0535687Y0323056D02*
X0530189Y0323056D01*
X0530189Y0323464D02*
X0535687Y0323464D01*
X0535687Y0323872D02*
X0530189Y0323872D01*
X0530189Y0324280D02*
X0535687Y0324280D01*
X0535687Y0324688D02*
X0530189Y0324688D01*
D14*
X0573133Y0143310D02*
X0585543Y0143310D01*
X0573133Y0143310D02*
X0573133Y0145920D01*
X0585543Y0145920D01*
X0585543Y0143310D01*
X0585543Y0143699D02*
X0573133Y0143699D01*
X0573133Y0144088D02*
X0585543Y0144088D01*
X0585543Y0144477D02*
X0573133Y0144477D01*
X0573133Y0144866D02*
X0585543Y0144866D01*
X0585543Y0145255D02*
X0573133Y0145255D01*
X0573133Y0145644D02*
X0585543Y0145644D01*
X0592133Y0143310D02*
X0604543Y0143310D01*
X0592133Y0143310D02*
X0592133Y0145920D01*
X0604543Y0145920D01*
X0604543Y0143310D01*
X0604543Y0143699D02*
X0592133Y0143699D01*
X0592133Y0144088D02*
X0604543Y0144088D01*
X0604543Y0144477D02*
X0592133Y0144477D01*
X0592133Y0144866D02*
X0604543Y0144866D01*
X0604543Y0145255D02*
X0592133Y0145255D01*
X0592133Y0145644D02*
X0604543Y0145644D01*
D15*
X0494885Y0102918D02*
X0490691Y0102918D01*
X0490691Y0103912D01*
X0494885Y0103912D01*
X0494885Y0102918D01*
X0494885Y0103323D02*
X0490691Y0103323D01*
X0490691Y0103728D02*
X0494885Y0103728D01*
X0494885Y0097718D02*
X0490691Y0097718D01*
X0490691Y0098712D01*
X0494885Y0098712D01*
X0494885Y0097718D01*
X0494885Y0098123D02*
X0490691Y0098123D01*
X0490691Y0098528D02*
X0494885Y0098528D01*
X0486685Y0097718D02*
X0482491Y0097718D01*
X0482491Y0098712D01*
X0486685Y0098712D01*
X0486685Y0097718D01*
X0486685Y0098123D02*
X0482491Y0098123D01*
X0482491Y0098528D02*
X0486685Y0098528D01*
X0486685Y0100318D02*
X0482491Y0100318D01*
X0482491Y0101312D01*
X0486685Y0101312D01*
X0486685Y0100318D01*
X0486685Y0100723D02*
X0482491Y0100723D01*
X0482491Y0101128D02*
X0486685Y0101128D01*
X0486685Y0102918D02*
X0482491Y0102918D01*
X0482491Y0103912D01*
X0486685Y0103912D01*
X0486685Y0102918D01*
X0486685Y0103323D02*
X0482491Y0103323D01*
X0482491Y0103728D02*
X0486685Y0103728D01*
M02*
