G75*
%MOIN*%
%OFA0B0*%
%FSLAX25Y25*%
%IPPOS*%
%LPD*%
%AMOC8*
5,1,8,0,0,1.08239X$1,22.5*
%
%ADD10C,0.00500*%
%ADD11R,0.87000X0.22250*%
%ADD12R,0.01485X0.00015*%
%ADD13R,0.00045X0.00015*%
%ADD14R,0.00105X0.00015*%
%ADD15R,0.00165X0.00015*%
%ADD16R,0.00225X0.00015*%
%ADD17R,0.00285X0.00015*%
%ADD18R,0.00345X0.00015*%
%ADD19R,0.00405X0.00015*%
%ADD20R,0.00435X0.00015*%
%ADD21R,0.00465X0.00015*%
%ADD22R,0.00495X0.00015*%
%ADD23R,0.00540X0.00015*%
%ADD24R,0.00585X0.00015*%
%ADD25R,0.00645X0.00015*%
%ADD26R,0.00150X0.00015*%
%ADD27R,0.00675X0.00015*%
%ADD28R,0.00195X0.00015*%
%ADD29R,0.00705X0.00015*%
%ADD30R,0.00240X0.00015*%
%ADD31R,0.00735X0.00015*%
%ADD32R,0.00270X0.00015*%
%ADD33R,0.00765X0.00015*%
%ADD34R,0.00300X0.00015*%
%ADD35R,0.00810X0.00015*%
%ADD36R,0.00360X0.00015*%
%ADD37R,0.00855X0.00015*%
%ADD38R,0.00435X0.00015*%
%ADD39R,0.00915X0.00015*%
%ADD40R,0.00465X0.00015*%
%ADD41R,0.00945X0.00015*%
%ADD42R,0.00960X0.00015*%
%ADD43R,0.00525X0.00015*%
%ADD44R,0.00990X0.00015*%
%ADD45R,0.00555X0.00015*%
%ADD46R,0.01035X0.00015*%
%ADD47R,0.00600X0.00015*%
%ADD48R,0.01080X0.00015*%
%ADD49R,0.01125X0.00015*%
%ADD50R,0.01170X0.00015*%
%ADD51R,0.00720X0.00015*%
%ADD52R,0.01200X0.00015*%
%ADD53R,0.00750X0.00015*%
%ADD54R,0.01230X0.00015*%
%ADD55R,0.00780X0.00015*%
%ADD56R,0.01260X0.00015*%
%ADD57R,0.00810X0.00015*%
%ADD58R,0.01305X0.00015*%
%ADD59R,0.01365X0.00015*%
%ADD60R,0.00900X0.00015*%
%ADD61R,0.01395X0.00015*%
%ADD62R,0.01440X0.00015*%
%ADD63R,0.01470X0.00015*%
%ADD64R,0.01005X0.00015*%
%ADD65R,0.01500X0.00015*%
%ADD66R,0.01020X0.00015*%
%ADD67R,0.01530X0.00015*%
%ADD68R,0.01065X0.00015*%
%ADD69R,0.01575X0.00015*%
%ADD70R,0.01095X0.00015*%
%ADD71R,0.01635X0.00015*%
%ADD72R,0.01155X0.00015*%
%ADD73R,0.01680X0.00015*%
%ADD74R,0.01200X0.00015*%
%ADD75R,0.01710X0.00015*%
%ADD76R,0.01230X0.00015*%
%ADD77R,0.01725X0.00015*%
%ADD78R,0.01245X0.00015*%
%ADD79R,0.01755X0.00015*%
%ADD80R,0.01275X0.00015*%
%ADD81R,0.01800X0.00015*%
%ADD82R,0.01320X0.00015*%
%ADD83R,0.01860X0.00015*%
%ADD84R,0.01905X0.00015*%
%ADD85R,0.01410X0.00015*%
%ADD86R,0.01935X0.00015*%
%ADD87R,0.01455X0.00015*%
%ADD88R,0.01965X0.00015*%
%ADD89R,0.01485X0.00015*%
%ADD90R,0.01995X0.00015*%
%ADD91R,0.01515X0.00015*%
%ADD92R,0.02040X0.00015*%
%ADD93R,0.01530X0.00015*%
%ADD94R,0.02070X0.00015*%
%ADD95R,0.01575X0.00015*%
%ADD96R,0.02115X0.00015*%
%ADD97R,0.01620X0.00015*%
%ADD98R,0.02160X0.00015*%
%ADD99R,0.01665X0.00015*%
%ADD100R,0.02190X0.00015*%
%ADD101R,0.00075X0.00015*%
%ADD102R,0.01695X0.00015*%
%ADD103R,0.02220X0.00015*%
%ADD104R,0.00105X0.00015*%
%ADD105R,0.02235X0.00015*%
%ADD106R,0.00135X0.00015*%
%ADD107R,0.01755X0.00015*%
%ADD108R,0.02280X0.00015*%
%ADD109R,0.00180X0.00015*%
%ADD110R,0.01785X0.00015*%
%ADD111R,0.02340X0.00015*%
%ADD112R,0.00240X0.00015*%
%ADD113R,0.01830X0.00015*%
%ADD114R,0.02385X0.00015*%
%ADD115R,0.01890X0.00015*%
%ADD116R,0.02415X0.00015*%
%ADD117R,0.00330X0.00015*%
%ADD118R,0.00120X0.00015*%
%ADD119R,0.01920X0.00015*%
%ADD120R,0.02430X0.00015*%
%ADD121R,0.00375X0.00015*%
%ADD122R,0.02460X0.00015*%
%ADD123R,0.00405X0.00015*%
%ADD124R,0.00195X0.00015*%
%ADD125R,0.01965X0.00015*%
%ADD126R,0.02505X0.00015*%
%ADD127R,0.00210X0.00015*%
%ADD128R,0.02010X0.00015*%
%ADD129R,0.02535X0.00015*%
%ADD130R,0.00480X0.00015*%
%ADD131R,0.02580X0.00015*%
%ADD132R,0.00540X0.00015*%
%ADD133R,0.02085X0.00015*%
%ADD134R,0.02625X0.00015*%
%ADD135R,0.02130X0.00015*%
%ADD136R,0.02670X0.00015*%
%ADD137R,0.00630X0.00015*%
%ADD138R,0.02700X0.00015*%
%ADD139R,0.00660X0.00015*%
%ADD140R,0.00450X0.00015*%
%ADD141R,0.02190X0.00015*%
%ADD142R,0.02715X0.00015*%
%ADD143R,0.02205X0.00015*%
%ADD144R,0.02745X0.00015*%
%ADD145R,0.00510X0.00015*%
%ADD146R,0.02235X0.00015*%
%ADD147R,0.02775X0.00015*%
%ADD148R,0.02820X0.00015*%
%ADD149R,0.02310X0.00015*%
%ADD150R,0.02880X0.00015*%
%ADD151R,0.00855X0.00015*%
%ADD152R,0.02355X0.00015*%
%ADD153R,0.02895X0.00015*%
%ADD154R,0.00870X0.00015*%
%ADD155R,0.00660X0.00015*%
%ADD156R,0.02925X0.00015*%
%ADD157R,0.00690X0.00015*%
%ADD158R,0.02970X0.00015*%
%ADD159R,0.03000X0.00015*%
%ADD160R,0.00750X0.00015*%
%ADD161R,0.03045X0.00015*%
%ADD162R,0.01005X0.00015*%
%ADD163R,0.00780X0.00015*%
%ADD164R,0.02505X0.00015*%
%ADD165R,0.03090X0.00015*%
%ADD166R,0.01050X0.00015*%
%ADD167R,0.00825X0.00015*%
%ADD168R,0.02550X0.00015*%
%ADD169R,0.03135X0.00015*%
%ADD170R,0.01095X0.00015*%
%ADD171R,0.00870X0.00015*%
%ADD172R,0.03165X0.00015*%
%ADD173R,0.01125X0.00015*%
%ADD174R,0.02625X0.00015*%
%ADD175R,0.03195X0.00015*%
%ADD176R,0.01140X0.00015*%
%ADD177R,0.00930X0.00015*%
%ADD178R,0.02655X0.00015*%
%ADD179R,0.03210X0.00015*%
%ADD180R,0.00960X0.00015*%
%ADD181R,0.03240X0.00015*%
%ADD182R,0.02700X0.00015*%
%ADD183R,0.03285X0.00015*%
%ADD184R,0.01245X0.00015*%
%ADD185R,0.02745X0.00015*%
%ADD186R,0.03330X0.00015*%
%ADD187R,0.02790X0.00015*%
%ADD188R,0.03360X0.00015*%
%ADD189R,0.01110X0.00015*%
%ADD190R,0.02835X0.00015*%
%ADD191R,0.03390X0.00015*%
%ADD192R,0.01335X0.00015*%
%ADD193R,0.01140X0.00015*%
%ADD194R,0.02865X0.00015*%
%ADD195R,0.03420X0.00015*%
%ADD196R,0.01155X0.00015*%
%ADD197R,0.04905X0.00015*%
%ADD198R,0.04920X0.00015*%
%ADD199R,0.02940X0.00015*%
%ADD200R,0.04950X0.00015*%
%ADD201R,0.02985X0.00015*%
%ADD202R,0.04965X0.00015*%
%ADD203R,0.01275X0.00015*%
%ADD204R,0.03015X0.00015*%
%ADD205R,0.04980X0.00015*%
%ADD206R,0.03045X0.00015*%
%ADD207R,0.05010X0.00015*%
%ADD208R,0.01335X0.00015*%
%ADD209R,0.03075X0.00015*%
%ADD210R,0.01350X0.00015*%
%ADD211R,0.03105X0.00015*%
%ADD212R,0.05040X0.00015*%
%ADD213R,0.01380X0.00015*%
%ADD214R,0.05040X0.00015*%
%ADD215R,0.01410X0.00015*%
%ADD216R,0.03180X0.00015*%
%ADD217R,0.05070X0.00015*%
%ADD218R,0.03225X0.00015*%
%ADD219R,0.03255X0.00015*%
%ADD220R,0.05085X0.00015*%
%ADD221R,0.01515X0.00015*%
%ADD222R,0.03300X0.00015*%
%ADD223R,0.05100X0.00015*%
%ADD224R,0.04935X0.00015*%
%ADD225R,0.05115X0.00015*%
%ADD226R,0.04995X0.00015*%
%ADD227R,0.05130X0.00015*%
%ADD228R,0.05010X0.00015*%
%ADD229R,0.05130X0.00015*%
%ADD230R,0.05010X0.00015*%
%ADD231R,0.05025X0.00015*%
%ADD232R,0.05040X0.00015*%
%ADD233R,0.05055X0.00015*%
%ADD234R,0.05130X0.00015*%
%ADD235R,0.05085X0.00015*%
%ADD236R,0.05115X0.00015*%
%ADD237R,0.05145X0.00015*%
%ADD238R,0.05160X0.00015*%
%ADD239R,0.05130X0.00015*%
%ADD240R,0.05190X0.00015*%
%ADD241R,0.05190X0.00015*%
%ADD242R,0.05205X0.00015*%
%ADD243R,0.05220X0.00015*%
%ADD244R,0.05070X0.00015*%
%ADD245R,0.05085X0.00015*%
%ADD246R,0.05205X0.00015*%
%ADD247R,0.05220X0.00015*%
%ADD248R,0.05055X0.00015*%
%ADD249R,0.05025X0.00015*%
%ADD250R,0.05205X0.00015*%
%ADD251R,0.05025X0.00015*%
%ADD252R,0.05190X0.00015*%
%ADD253R,0.05190X0.00015*%
%ADD254R,0.04995X0.00015*%
%ADD255R,0.05175X0.00015*%
%ADD256R,0.04950X0.00015*%
%ADD257R,0.05145X0.00015*%
%ADD258R,0.05145X0.00015*%
%ADD259R,0.04920X0.00015*%
%ADD260R,0.04905X0.00015*%
%ADD261R,0.04905X0.00015*%
%ADD262R,0.05115X0.00015*%
%ADD263R,0.04890X0.00015*%
%ADD264R,0.04890X0.00015*%
%ADD265R,0.04875X0.00015*%
%ADD266R,0.04845X0.00015*%
%ADD267R,0.04830X0.00015*%
%ADD268R,0.04830X0.00015*%
%ADD269R,0.05070X0.00015*%
%ADD270R,0.04830X0.00015*%
%ADD271R,0.04815X0.00015*%
%ADD272R,0.04800X0.00015*%
%ADD273R,0.04800X0.00015*%
%ADD274R,0.05010X0.00015*%
%ADD275R,0.04785X0.00015*%
%ADD276R,0.04770X0.00015*%
%ADD277R,0.04770X0.00015*%
%ADD278R,0.04755X0.00015*%
%ADD279R,0.04740X0.00015*%
%ADD280R,0.04725X0.00015*%
%ADD281R,0.04725X0.00015*%
%ADD282R,0.04980X0.00015*%
%ADD283R,0.04710X0.00015*%
%ADD284R,0.04725X0.00015*%
%ADD285R,0.04710X0.00015*%
%ADD286R,0.04695X0.00015*%
%ADD287R,0.04680X0.00015*%
%ADD288R,0.04695X0.00015*%
%ADD289R,0.04680X0.00015*%
%ADD290R,0.04905X0.00015*%
%ADD291R,0.04665X0.00015*%
%ADD292R,0.04650X0.00015*%
%ADD293R,0.04635X0.00015*%
%ADD294R,0.04620X0.00015*%
%ADD295R,0.04620X0.00015*%
%ADD296R,0.04890X0.00015*%
%ADD297R,0.04605X0.00015*%
%ADD298R,0.04605X0.00015*%
%ADD299R,0.04590X0.00015*%
%ADD300R,0.04845X0.00015*%
%ADD301R,0.04575X0.00015*%
%ADD302R,0.04590X0.00015*%
%ADD303R,0.04575X0.00015*%
%ADD304R,0.04845X0.00015*%
%ADD305R,0.04560X0.00015*%
%ADD306R,0.04545X0.00015*%
%ADD307R,0.04530X0.00015*%
%ADD308R,0.04515X0.00015*%
%ADD309R,0.04530X0.00015*%
%ADD310R,0.04500X0.00015*%
%ADD311R,0.04515X0.00015*%
%ADD312R,0.04785X0.00015*%
%ADD313R,0.04485X0.00015*%
%ADD314R,0.04755X0.00015*%
%ADD315R,0.04470X0.00015*%
%ADD316R,0.04740X0.00015*%
%ADD317R,0.04485X0.00015*%
%ADD318R,0.04755X0.00015*%
%ADD319R,0.04545X0.00015*%
%ADD320R,0.04695X0.00015*%
%ADD321R,0.04680X0.00015*%
%ADD322R,0.04665X0.00015*%
%ADD323R,0.04725X0.00015*%
%ADD324R,0.04680X0.00015*%
%ADD325R,0.04860X0.00015*%
%ADD326R,0.04740X0.00015*%
%ADD327R,0.04875X0.00015*%
%ADD328R,0.04965X0.00015*%
%ADD329R,0.04860X0.00015*%
%ADD330R,0.04995X0.00015*%
%ADD331R,0.04875X0.00015*%
%ADD332R,0.04980X0.00015*%
%ADD333R,0.05235X0.00015*%
%ADD334R,0.05235X0.00015*%
%ADD335R,0.05250X0.00015*%
%ADD336R,0.05280X0.00015*%
%ADD337R,0.05295X0.00015*%
%ADD338R,0.05325X0.00015*%
%ADD339R,0.05340X0.00015*%
%ADD340R,0.05235X0.00015*%
%ADD341R,0.05355X0.00015*%
%ADD342R,0.05370X0.00015*%
%ADD343R,0.05265X0.00015*%
%ADD344R,0.05370X0.00015*%
%ADD345R,0.05280X0.00015*%
%ADD346R,0.05385X0.00015*%
%ADD347R,0.05295X0.00015*%
%ADD348R,0.05400X0.00015*%
%ADD349R,0.05415X0.00015*%
%ADD350R,0.05310X0.00015*%
%ADD351R,0.05430X0.00015*%
%ADD352R,0.05445X0.00015*%
%ADD353R,0.05460X0.00015*%
%ADD354R,0.05355X0.00015*%
%ADD355R,0.05475X0.00015*%
%ADD356R,0.05505X0.00015*%
%ADD357R,0.05520X0.00015*%
%ADD358R,0.05535X0.00015*%
%ADD359R,0.05550X0.00015*%
%ADD360R,0.05550X0.00015*%
%ADD361R,0.05475X0.00015*%
%ADD362R,0.05490X0.00015*%
%ADD363R,0.05475X0.00015*%
%ADD364R,0.05385X0.00015*%
%ADD365R,0.05370X0.00015*%
%ADD366R,0.05325X0.00015*%
%ADD367R,0.05310X0.00015*%
%ADD368R,0.05265X0.00015*%
%ADD369R,0.05175X0.00015*%
%ADD370R,0.04980X0.00015*%
%ADD371R,0.04965X0.00015*%
%ADD372R,0.04860X0.00015*%
%ADD373R,0.04845X0.00015*%
%ADD374R,0.04815X0.00015*%
%ADD375R,0.04770X0.00015*%
%ADD376R,0.05295X0.00015*%
%ADD377R,0.04635X0.00015*%
%ADD378R,0.05610X0.00015*%
%ADD379R,0.05700X0.00015*%
%ADD380R,0.05760X0.00015*%
%ADD381R,0.05805X0.00015*%
%ADD382R,0.05850X0.00015*%
%ADD383R,0.05895X0.00015*%
%ADD384R,0.06000X0.00015*%
%ADD385R,0.06135X0.00015*%
%ADD386R,0.06225X0.00015*%
%ADD387R,0.06300X0.00015*%
%ADD388R,0.06330X0.00015*%
%ADD389R,0.06375X0.00015*%
%ADD390R,0.06450X0.00015*%
%ADD391R,0.06570X0.00015*%
%ADD392R,0.05565X0.00015*%
%ADD393R,0.06690X0.00015*%
%ADD394R,0.06735X0.00015*%
%ADD395R,0.05790X0.00015*%
%ADD396R,0.06765X0.00015*%
%ADD397R,0.05850X0.00015*%
%ADD398R,0.06780X0.00015*%
%ADD399R,0.05895X0.00015*%
%ADD400R,0.06795X0.00015*%
%ADD401R,0.05955X0.00015*%
%ADD402R,0.06810X0.00015*%
%ADD403R,0.06060X0.00015*%
%ADD404R,0.06195X0.00015*%
%ADD405R,0.06825X0.00015*%
%ADD406R,0.06330X0.00015*%
%ADD407R,0.06840X0.00015*%
%ADD408R,0.06390X0.00015*%
%ADD409R,0.06495X0.00015*%
%ADD410R,0.06840X0.00015*%
%ADD411R,0.06555X0.00015*%
%ADD412R,0.06825X0.00015*%
%ADD413R,0.06645X0.00015*%
%ADD414R,0.06825X0.00015*%
%ADD415R,0.06705X0.00015*%
%ADD416R,0.06705X0.00015*%
%ADD417R,0.06810X0.00015*%
%ADD418R,0.06720X0.00015*%
%ADD419R,0.06795X0.00015*%
%ADD420R,0.06750X0.00015*%
%ADD421R,0.06765X0.00015*%
%ADD422R,0.06795X0.00015*%
%ADD423R,0.06780X0.00015*%
%ADD424R,0.06780X0.00015*%
%ADD425R,0.06750X0.00015*%
%ADD426R,0.06720X0.00015*%
%ADD427R,0.06720X0.00015*%
%ADD428R,0.06705X0.00015*%
%ADD429R,0.06705X0.00015*%
%ADD430R,0.06690X0.00015*%
%ADD431R,0.06675X0.00015*%
%ADD432R,0.06690X0.00015*%
%ADD433R,0.06675X0.00015*%
%ADD434R,0.06675X0.00015*%
%ADD435R,0.06660X0.00015*%
%ADD436R,0.06675X0.00015*%
%ADD437R,0.06660X0.00015*%
%ADD438R,0.06660X0.00015*%
%ADD439R,0.06645X0.00015*%
%ADD440R,0.06630X0.00015*%
%ADD441R,0.06660X0.00015*%
%ADD442R,0.06630X0.00015*%
%ADD443R,0.06645X0.00015*%
%ADD444R,0.06735X0.00015*%
%ADD445R,0.06765X0.00015*%
%ADD446R,0.06780X0.00015*%
%ADD447R,0.06825X0.00015*%
%ADD448R,0.06855X0.00015*%
%ADD449R,0.06855X0.00015*%
%ADD450R,0.06870X0.00015*%
%ADD451R,0.06885X0.00015*%
%ADD452R,0.06525X0.00015*%
%ADD453R,0.06405X0.00015*%
%ADD454R,0.06255X0.00015*%
%ADD455R,0.06165X0.00015*%
%ADD456R,0.06870X0.00015*%
%ADD457R,0.06120X0.00015*%
%ADD458R,0.06885X0.00015*%
%ADD459R,0.06060X0.00015*%
%ADD460R,0.06015X0.00015*%
%ADD461R,0.05910X0.00015*%
%ADD462R,0.05670X0.00015*%
%ADD463R,0.05595X0.00015*%
%ADD464R,0.06585X0.00015*%
%ADD465R,0.05160X0.00015*%
%ADD466R,0.06390X0.00015*%
%ADD467R,0.05025X0.00015*%
%ADD468R,0.06330X0.00015*%
%ADD469R,0.06075X0.00015*%
%ADD470R,0.05820X0.00015*%
%ADD471R,0.05775X0.00015*%
%ADD472R,0.05685X0.00015*%
%ADD473R,0.05460X0.00015*%
%ADD474R,0.04860X0.00015*%
%ADD475R,0.04935X0.00015*%
%ADD476R,0.05160X0.00015*%
%ADD477R,0.05325X0.00015*%
%ADD478R,0.05340X0.00015*%
%ADD479R,0.05355X0.00015*%
%ADD480R,0.05430X0.00015*%
%ADD481R,0.05535X0.00015*%
%ADD482R,0.05595X0.00015*%
%ADD483R,0.05640X0.00015*%
%ADD484R,0.05640X0.00015*%
%ADD485R,0.05670X0.00015*%
%ADD486R,0.05685X0.00015*%
%ADD487R,0.05700X0.00015*%
%ADD488R,0.05715X0.00015*%
%ADD489R,0.05715X0.00015*%
%ADD490R,0.05730X0.00015*%
%ADD491R,0.05745X0.00015*%
%ADD492R,0.05760X0.00015*%
%ADD493R,0.06000X0.00015*%
%ADD494R,0.06105X0.00015*%
%ADD495R,0.06180X0.00015*%
%ADD496R,0.06210X0.00015*%
%ADD497R,0.12690X0.00015*%
%ADD498R,0.12675X0.00015*%
%ADD499R,0.12660X0.00015*%
%ADD500R,0.12660X0.00015*%
%ADD501R,0.12645X0.00015*%
%ADD502R,0.12615X0.00015*%
%ADD503R,0.12600X0.00015*%
%ADD504R,0.12585X0.00015*%
%ADD505R,0.12555X0.00015*%
%ADD506R,0.12540X0.00015*%
%ADD507R,0.12525X0.00015*%
%ADD508R,0.12510X0.00015*%
%ADD509R,0.12510X0.00015*%
%ADD510R,0.12480X0.00015*%
%ADD511R,0.12450X0.00015*%
%ADD512R,0.12435X0.00015*%
%ADD513R,0.12420X0.00015*%
%ADD514R,0.12390X0.00015*%
%ADD515R,0.12375X0.00015*%
%ADD516R,0.12360X0.00015*%
%ADD517R,0.12330X0.00015*%
%ADD518R,0.12300X0.00015*%
%ADD519R,0.12285X0.00015*%
%ADD520R,0.12270X0.00015*%
%ADD521R,0.12255X0.00015*%
%ADD522R,0.12240X0.00015*%
%ADD523R,0.12225X0.00015*%
%ADD524R,0.12195X0.00015*%
%ADD525R,0.12165X0.00015*%
%ADD526R,0.12150X0.00015*%
%ADD527R,0.12135X0.00015*%
%ADD528R,0.12120X0.00015*%
%ADD529R,0.12090X0.00015*%
%ADD530R,0.12075X0.00015*%
%ADD531R,0.12060X0.00015*%
%ADD532R,0.12045X0.00015*%
%ADD533R,0.12015X0.00015*%
%ADD534R,0.12000X0.00015*%
%ADD535R,0.11985X0.00015*%
%ADD536R,0.11955X0.00015*%
%ADD537R,0.11940X0.00015*%
%ADD538R,0.11925X0.00015*%
%ADD539R,0.11910X0.00015*%
%ADD540R,0.11910X0.00015*%
%ADD541R,0.11880X0.00015*%
%ADD542R,0.11850X0.00015*%
%ADD543R,0.11835X0.00015*%
%ADD544R,0.11805X0.00015*%
%ADD545R,0.11775X0.00015*%
%ADD546R,0.11760X0.00015*%
%ADD547R,0.11745X0.00015*%
%ADD548R,0.11730X0.00015*%
%ADD549R,0.11700X0.00015*%
%ADD550R,0.11700X0.00015*%
%ADD551R,0.11685X0.00015*%
%ADD552R,0.11655X0.00015*%
%ADD553R,0.11640X0.00015*%
%ADD554R,0.11625X0.00015*%
%ADD555R,0.11625X0.00015*%
%ADD556R,0.11670X0.00015*%
%ADD557R,0.11715X0.00015*%
%ADD558R,0.11790X0.00015*%
%ADD559R,0.11820X0.00015*%
%ADD560R,0.11820X0.00015*%
%ADD561R,0.11880X0.00015*%
%ADD562R,0.11895X0.00015*%
%ADD563R,0.11970X0.00015*%
%ADD564R,0.12045X0.00015*%
%ADD565R,0.12075X0.00015*%
%ADD566R,0.12105X0.00015*%
%ADD567R,0.12135X0.00015*%
%ADD568R,0.12165X0.00015*%
%ADD569R,0.12180X0.00015*%
%ADD570R,0.12195X0.00015*%
%ADD571R,0.12210X0.00015*%
%ADD572R,0.12225X0.00015*%
%ADD573R,0.12255X0.00015*%
%ADD574R,0.12360X0.00015*%
%ADD575R,0.12390X0.00015*%
%ADD576R,0.12405X0.00015*%
%ADD577R,0.12435X0.00015*%
%ADD578R,0.12480X0.00015*%
%ADD579R,0.12480X0.00015*%
%ADD580R,0.12510X0.00015*%
%ADD581R,0.12570X0.00015*%
%ADD582R,0.12630X0.00015*%
%ADD583R,0.12675X0.00015*%
%ADD584R,0.12705X0.00015*%
%ADD585R,0.12735X0.00015*%
%ADD586R,0.12750X0.00015*%
%ADD587R,0.12780X0.00015*%
%ADD588R,0.12795X0.00015*%
%ADD589R,0.12810X0.00015*%
%ADD590R,0.12840X0.00015*%
%ADD591R,0.12855X0.00015*%
%ADD592R,0.12885X0.00015*%
%ADD593R,0.12900X0.00015*%
%ADD594R,0.12915X0.00015*%
%ADD595R,0.12945X0.00015*%
%ADD596R,0.12960X0.00015*%
%ADD597R,0.12990X0.00015*%
%ADD598R,0.13005X0.00015*%
%ADD599R,0.13020X0.00015*%
%ADD600R,0.13035X0.00015*%
%ADD601R,0.13065X0.00015*%
%ADD602R,0.13080X0.00015*%
%ADD603R,0.13110X0.00015*%
%ADD604R,0.13125X0.00015*%
%ADD605R,0.13155X0.00015*%
%ADD606R,0.13170X0.00015*%
%ADD607R,0.13200X0.00015*%
%ADD608R,0.13230X0.00015*%
%ADD609R,0.13260X0.00015*%
%ADD610R,0.13290X0.00015*%
%ADD611R,0.13320X0.00015*%
%ADD612R,0.13350X0.00015*%
%ADD613R,0.13365X0.00015*%
%ADD614R,0.13395X0.00015*%
%ADD615R,0.13425X0.00015*%
%ADD616R,0.13455X0.00015*%
%ADD617R,0.13470X0.00015*%
%ADD618R,0.13500X0.00015*%
%ADD619R,0.13530X0.00015*%
%ADD620R,0.13560X0.00015*%
%ADD621R,0.13575X0.00015*%
%ADD622R,0.13605X0.00015*%
%ADD623R,0.13635X0.00015*%
%ADD624R,0.13650X0.00015*%
%ADD625R,0.13680X0.00015*%
%ADD626R,0.13695X0.00015*%
%ADD627R,0.13725X0.00015*%
%ADD628R,0.13740X0.00015*%
%ADD629R,0.13770X0.00015*%
%ADD630R,0.13785X0.00015*%
%ADD631R,0.13800X0.00015*%
%ADD632R,0.13830X0.00015*%
%ADD633R,0.13860X0.00015*%
%ADD634R,0.13875X0.00015*%
%ADD635R,0.13905X0.00015*%
%ADD636R,0.13935X0.00015*%
%ADD637R,0.13950X0.00015*%
%ADD638R,0.13980X0.00015*%
%ADD639R,0.14010X0.00015*%
%ADD640R,0.14025X0.00015*%
%ADD641R,0.14055X0.00015*%
%ADD642R,0.14070X0.00015*%
%ADD643R,0.14085X0.00015*%
%ADD644R,0.14115X0.00015*%
%ADD645R,0.14145X0.00015*%
%ADD646R,0.14160X0.00015*%
%ADD647R,0.14190X0.00015*%
%ADD648R,0.14205X0.00015*%
%ADD649R,0.14220X0.00015*%
%ADD650R,0.14235X0.00015*%
%ADD651R,0.14265X0.00015*%
%ADD652R,0.14280X0.00015*%
%ADD653R,0.14295X0.00015*%
%ADD654R,0.14295X0.00015*%
%ADD655R,0.14250X0.00015*%
%ADD656R,0.14205X0.00015*%
%ADD657R,0.14175X0.00015*%
%ADD658R,0.14160X0.00015*%
%ADD659R,0.14130X0.00015*%
%ADD660R,0.14100X0.00015*%
%ADD661R,0.14040X0.00015*%
%ADD662R,0.14010X0.00015*%
%ADD663R,0.03465X0.00015*%
%ADD664R,0.10440X0.00015*%
%ADD665R,0.03420X0.00015*%
%ADD666R,0.10395X0.00015*%
%ADD667R,0.03375X0.00015*%
%ADD668R,0.10335X0.00015*%
%ADD669R,0.03570X0.00015*%
%ADD670R,0.06600X0.00015*%
%ADD671R,0.03525X0.00015*%
%ADD672R,0.03270X0.00015*%
%ADD673R,0.03495X0.00015*%
%ADD674R,0.03210X0.00015*%
%ADD675R,0.06480X0.00015*%
%ADD676R,0.03435X0.00015*%
%ADD677R,0.03165X0.00015*%
%ADD678R,0.03390X0.00015*%
%ADD679R,0.03120X0.00015*%
%ADD680R,0.06315X0.00015*%
%ADD681R,0.03345X0.00015*%
%ADD682R,0.03090X0.00015*%
%ADD683R,0.03075X0.00015*%
%ADD684R,0.06225X0.00015*%
%ADD685R,0.03270X0.00015*%
%ADD686R,0.06180X0.00015*%
%ADD687R,0.02970X0.00015*%
%ADD688R,0.06075X0.00015*%
%ADD689R,0.03195X0.00015*%
%ADD690R,0.02925X0.00015*%
%ADD691R,0.05985X0.00015*%
%ADD692R,0.03135X0.00015*%
%ADD693R,0.02850X0.00015*%
%ADD694R,0.05835X0.00015*%
%ADD695R,0.03030X0.00015*%
%ADD696R,0.02805X0.00015*%
%ADD697R,0.02730X0.00015*%
%ADD698R,0.05625X0.00015*%
%ADD699R,0.02925X0.00015*%
%ADD700R,0.02640X0.00015*%
%ADD701R,0.02595X0.00015*%
%ADD702R,0.02565X0.00015*%
%ADD703R,0.02760X0.00015*%
%ADD704R,0.02520X0.00015*%
%ADD705R,0.02730X0.00015*%
%ADD706R,0.02475X0.00015*%
%ADD707R,0.02685X0.00015*%
%ADD708R,0.02445X0.00015*%
%ADD709R,0.02400X0.00015*%
%ADD710R,0.02370X0.00015*%
%ADD711R,0.02565X0.00015*%
%ADD712R,0.02340X0.00015*%
%ADD713R,0.02325X0.00015*%
%ADD714R,0.02505X0.00015*%
%ADD715R,0.02280X0.00015*%
%ADD716R,0.02460X0.00015*%
%ADD717R,0.04560X0.00015*%
%ADD718R,0.02190X0.00015*%
%ADD719R,0.04440X0.00015*%
%ADD720R,0.02370X0.00015*%
%ADD721R,0.02145X0.00015*%
%ADD722R,0.04365X0.00015*%
%ADD723R,0.04320X0.00015*%
%ADD724R,0.02310X0.00015*%
%ADD725R,0.02100X0.00015*%
%ADD726R,0.04260X0.00015*%
%ADD727R,0.04200X0.00015*%
%ADD728R,0.02265X0.00015*%
%ADD729R,0.02040X0.00015*%
%ADD730R,0.04095X0.00015*%
%ADD731R,0.02220X0.00015*%
%ADD732R,0.03915X0.00015*%
%ADD733R,0.02175X0.00015*%
%ADD734R,0.03765X0.00015*%
%ADD735R,0.03675X0.00015*%
%ADD736R,0.01890X0.00015*%
%ADD737R,0.03615X0.00015*%
%ADD738R,0.02055X0.00015*%
%ADD739R,0.01860X0.00015*%
%ADD740R,0.03555X0.00015*%
%ADD741R,0.01815X0.00015*%
%ADD742R,0.03450X0.00015*%
%ADD743R,0.01725X0.00015*%
%ADD744R,0.03315X0.00015*%
%ADD745R,0.01905X0.00015*%
%ADD746R,0.01680X0.00015*%
%ADD747R,0.01650X0.00015*%
%ADD748R,0.01620X0.00015*%
%ADD749R,0.01590X0.00015*%
%ADD750R,0.01770X0.00015*%
%ADD751R,0.01560X0.00015*%
%ADD752R,0.03240X0.00015*%
%ADD753R,0.01740X0.00015*%
%ADD754R,0.01665X0.00015*%
%ADD755R,0.01455X0.00015*%
%ADD756R,0.01635X0.00015*%
%ADD757R,0.01410X0.00015*%
%ADD758R,0.01395X0.00015*%
%ADD759R,0.01365X0.00015*%
%ADD760R,0.01335X0.00015*%
%ADD761R,0.01290X0.00015*%
%ADD762R,0.03210X0.00015*%
%ADD763R,0.01455X0.00015*%
%ADD764R,0.01185X0.00015*%
%ADD765R,0.01290X0.00015*%
%ADD766R,0.01110X0.00015*%
%ADD767R,0.01260X0.00015*%
%ADD768R,0.03180X0.00015*%
%ADD769R,0.00975X0.00015*%
%ADD770R,0.03150X0.00015*%
%ADD771R,0.00885X0.00015*%
%ADD772R,0.03150X0.00015*%
%ADD773R,0.01050X0.00015*%
%ADD774R,0.00795X0.00015*%
%ADD775R,0.00885X0.00015*%
%ADD776R,0.00690X0.00015*%
%ADD777R,0.00840X0.00015*%
%ADD778R,0.00570X0.00015*%
%ADD779R,0.00525X0.00015*%
%ADD780R,0.03105X0.00015*%
%ADD781R,0.00660X0.00015*%
%ADD782R,0.00615X0.00015*%
%ADD783R,0.00420X0.00015*%
%ADD784R,0.00555X0.00015*%
%ADD785R,0.00390X0.00015*%
%ADD786R,0.00525X0.00015*%
%ADD787R,0.00360X0.00015*%
%ADD788R,0.00495X0.00015*%
%ADD789R,0.03075X0.00015*%
%ADD790R,0.00450X0.00015*%
%ADD791R,0.00225X0.00015*%
%ADD792R,0.00345X0.00015*%
%ADD793R,0.00255X0.00015*%
%ADD794R,0.03060X0.00015*%
%ADD795R,0.00180X0.00015*%
%ADD796R,0.00075X0.00015*%
%ADD797R,0.03000X0.00015*%
%ADD798R,0.02955X0.00015*%
%ADD799R,0.02940X0.00015*%
%ADD800R,0.02940X0.00015*%
%ADD801R,0.02910X0.00015*%
%ADD802R,0.02910X0.00015*%
%ADD803R,0.02865X0.00015*%
%ADD804R,0.02805X0.00015*%
%ADD805R,0.02775X0.00015*%
%ADD806R,0.02760X0.00015*%
%ADD807R,0.02655X0.00015*%
%ADD808R,0.02640X0.00015*%
%ADD809R,0.02610X0.00015*%
%ADD810R,0.02595X0.00015*%
%ADD811R,0.02535X0.00015*%
%ADD812R,0.02475X0.00015*%
%ADD813R,0.02175X0.00015*%
%ADD814R,0.01575X0.00015*%
%ADD815C,0.00300*%
%ADD816C,0.02600*%
%ADD817C,0.00400*%
%ADD818C,0.00800*%
%ADD819C,0.00700*%
%ADD820C,0.00600*%
%ADD821C,0.00100*%
%ADD822C,0.01000*%
%ADD823R,0.00787X0.05512*%
D10*
X0116138Y0087415D02*
X0117639Y0087415D01*
X0116888Y0087415D02*
X0116888Y0091919D01*
X0116138Y0091919D02*
X0117639Y0091919D01*
X0119207Y0091168D02*
X0119207Y0088166D01*
X0119958Y0087415D01*
X0121459Y0087415D01*
X0122209Y0088166D01*
X0123811Y0088166D02*
X0124562Y0087415D01*
X0126063Y0087415D01*
X0126813Y0088166D01*
X0126813Y0088916D01*
X0126063Y0089667D01*
X0123811Y0089667D01*
X0123811Y0088166D01*
X0123811Y0089667D02*
X0125312Y0091168D01*
X0126813Y0091919D01*
X0122209Y0091168D02*
X0121459Y0091919D01*
X0119958Y0091919D01*
X0119207Y0091168D01*
X0133490Y0096315D02*
X0149986Y0096315D01*
X0147265Y0090315D02*
X0146210Y0090315D01*
X0151240Y0094287D02*
X0151136Y0094502D01*
X0151027Y0094715D01*
X0150913Y0094925D01*
X0150794Y0095132D01*
X0150671Y0095337D01*
X0150543Y0095539D01*
X0150410Y0095738D01*
X0150273Y0095933D01*
X0150132Y0096126D01*
X0149986Y0096315D01*
X0157170Y0092885D02*
X0172705Y0092885D01*
X0172705Y0085145D01*
X0157170Y0085145D01*
X0157170Y0092885D01*
X0151238Y0085343D02*
X0151126Y0085113D01*
X0151009Y0084886D01*
X0150887Y0084662D01*
X0150759Y0084441D01*
X0150625Y0084224D01*
X0150487Y0084009D01*
X0150343Y0083798D01*
X0150194Y0083591D01*
X0150040Y0083387D01*
X0149882Y0083187D01*
X0149718Y0082991D01*
X0149550Y0082799D01*
X0149377Y0082611D01*
X0149199Y0082427D01*
X0149018Y0082248D01*
X0148831Y0082073D01*
X0148641Y0081903D01*
X0148447Y0081738D01*
X0148248Y0081577D01*
X0148046Y0081421D01*
X0147840Y0081270D01*
X0147630Y0081124D01*
X0147417Y0080984D01*
X0147201Y0080848D01*
X0146981Y0080718D01*
X0146758Y0080593D01*
X0146533Y0080474D01*
X0146304Y0080360D01*
X0146073Y0080252D01*
X0145839Y0080149D01*
X0145603Y0080052D01*
X0145364Y0079961D01*
X0145124Y0079876D01*
X0144881Y0079796D01*
X0144636Y0079723D01*
X0144390Y0079655D01*
X0144142Y0079594D01*
X0143893Y0079539D01*
X0143643Y0079489D01*
X0143391Y0079446D01*
X0143138Y0079409D01*
X0142885Y0079378D01*
X0142631Y0079353D01*
X0142376Y0079334D01*
X0142121Y0079322D01*
X0141866Y0079316D01*
X0141610Y0079316D01*
X0141355Y0079322D01*
X0141100Y0079334D01*
X0140845Y0079353D01*
X0140591Y0079378D01*
X0140338Y0079409D01*
X0140085Y0079446D01*
X0139833Y0079489D01*
X0139583Y0079539D01*
X0139334Y0079594D01*
X0139086Y0079655D01*
X0138840Y0079723D01*
X0138595Y0079796D01*
X0138352Y0079876D01*
X0138112Y0079961D01*
X0137873Y0080052D01*
X0137637Y0080149D01*
X0137403Y0080252D01*
X0137172Y0080360D01*
X0136943Y0080474D01*
X0136718Y0080593D01*
X0136495Y0080718D01*
X0136275Y0080848D01*
X0136059Y0080984D01*
X0135846Y0081124D01*
X0135636Y0081270D01*
X0135430Y0081421D01*
X0135228Y0081577D01*
X0135029Y0081738D01*
X0134835Y0081903D01*
X0134645Y0082073D01*
X0134458Y0082248D01*
X0134277Y0082427D01*
X0134099Y0082611D01*
X0133926Y0082799D01*
X0133758Y0082991D01*
X0133594Y0083187D01*
X0133436Y0083387D01*
X0133282Y0083591D01*
X0133133Y0083798D01*
X0132989Y0084009D01*
X0132851Y0084224D01*
X0132717Y0084441D01*
X0132589Y0084662D01*
X0132467Y0084886D01*
X0132350Y0085113D01*
X0132238Y0085343D01*
X0136210Y0090315D02*
X0137265Y0090315D01*
X0132192Y0094193D02*
X0132299Y0094418D01*
X0132411Y0094641D01*
X0132528Y0094861D01*
X0132650Y0095078D01*
X0132778Y0095293D01*
X0132911Y0095504D01*
X0133048Y0095712D01*
X0133191Y0095916D01*
X0133338Y0096118D01*
X0133490Y0096315D01*
X0172738Y0092385D02*
X0172738Y0085645D01*
X0185337Y0085645D01*
X0185337Y0092385D01*
X0172738Y0092385D01*
X0249220Y0091885D02*
X0249220Y0084145D01*
X0264755Y0084145D01*
X0264755Y0091885D01*
X0249220Y0091885D01*
X0271220Y0092095D02*
X0271220Y0099835D01*
X0286755Y0099835D01*
X0286755Y0092095D01*
X0271220Y0092095D01*
X0271220Y0099845D02*
X0271220Y0107585D01*
X0286755Y0107585D01*
X0286755Y0099845D01*
X0271220Y0099845D01*
X0288068Y0099464D02*
X0288068Y0086866D01*
X0294808Y0086866D01*
X0294808Y0099464D01*
X0288068Y0099464D01*
X0300320Y0091385D02*
X0300320Y0083645D01*
X0315855Y0083645D01*
X0315855Y0091385D01*
X0300320Y0091385D01*
X0302451Y0079781D02*
X0301783Y0079114D01*
X0302451Y0079781D02*
X0303785Y0079781D01*
X0304452Y0079114D01*
X0304452Y0078447D01*
X0301783Y0075778D01*
X0304452Y0075778D01*
X0303118Y0069781D02*
X0303118Y0065778D01*
X0304452Y0065778D02*
X0301783Y0065778D01*
X0301783Y0068447D02*
X0303118Y0069781D01*
X0340980Y0092545D02*
X0340980Y0100285D01*
X0363996Y0100285D01*
X0363996Y0092545D01*
X0340980Y0092545D01*
X0388670Y0091445D02*
X0388670Y0099185D01*
X0404205Y0099185D01*
X0404205Y0091445D01*
X0388670Y0091445D01*
X0388670Y0099195D02*
X0388670Y0106935D01*
X0404205Y0106935D01*
X0404205Y0099195D01*
X0388670Y0099195D01*
X0423818Y0104583D02*
X0423818Y0089047D01*
X0431558Y0089047D01*
X0431558Y0104583D01*
X0423818Y0104583D01*
X0458170Y0103435D02*
X0458170Y0095695D01*
X0473705Y0095695D01*
X0473705Y0103435D01*
X0458170Y0103435D01*
X0497638Y0100445D02*
X0497638Y0107185D01*
X0510237Y0107185D01*
X0510237Y0100445D01*
X0497638Y0100445D01*
X0517420Y0091685D02*
X0517420Y0083945D01*
X0532955Y0083945D01*
X0532955Y0091685D01*
X0517420Y0091685D01*
X0517388Y0083935D02*
X0529987Y0083935D01*
X0529987Y0077195D01*
X0517388Y0077195D01*
X0517388Y0083935D01*
X0518420Y0100295D02*
X0518420Y0108035D01*
X0533955Y0108035D01*
X0533955Y0100295D01*
X0518420Y0100295D01*
X0521388Y0107995D02*
X0521388Y0114735D01*
X0533987Y0114735D01*
X0533987Y0107995D01*
X0521388Y0107995D01*
X0522689Y0123365D02*
X0522689Y0127869D01*
X0521188Y0127869D02*
X0524190Y0127869D01*
X0525792Y0127869D02*
X0528044Y0127869D01*
X0528794Y0127118D01*
X0528794Y0125617D01*
X0528044Y0124866D01*
X0525792Y0124866D01*
X0525792Y0123365D02*
X0525792Y0127869D01*
X0530396Y0126368D02*
X0531897Y0127869D01*
X0531897Y0123365D01*
X0530396Y0123365D02*
X0533398Y0123365D01*
X0521714Y0134365D02*
X0521716Y0134502D01*
X0521722Y0134640D01*
X0521732Y0134777D01*
X0521746Y0134913D01*
X0521764Y0135050D01*
X0521786Y0135185D01*
X0521812Y0135320D01*
X0521841Y0135454D01*
X0521875Y0135588D01*
X0521912Y0135720D01*
X0521954Y0135851D01*
X0521999Y0135981D01*
X0522048Y0136109D01*
X0522100Y0136236D01*
X0522157Y0136361D01*
X0522216Y0136485D01*
X0522280Y0136607D01*
X0522347Y0136727D01*
X0522417Y0136845D01*
X0522491Y0136961D01*
X0522568Y0137075D01*
X0522649Y0137186D01*
X0522732Y0137295D01*
X0522819Y0137402D01*
X0522909Y0137505D01*
X0523002Y0137607D01*
X0523098Y0137705D01*
X0523196Y0137801D01*
X0523298Y0137894D01*
X0523401Y0137984D01*
X0523508Y0138071D01*
X0523617Y0138154D01*
X0523728Y0138235D01*
X0523842Y0138312D01*
X0523958Y0138386D01*
X0524076Y0138456D01*
X0524196Y0138523D01*
X0524318Y0138587D01*
X0524442Y0138646D01*
X0524567Y0138703D01*
X0524694Y0138755D01*
X0524822Y0138804D01*
X0524952Y0138849D01*
X0525083Y0138891D01*
X0525215Y0138928D01*
X0525349Y0138962D01*
X0525483Y0138991D01*
X0525618Y0139017D01*
X0525753Y0139039D01*
X0525890Y0139057D01*
X0526026Y0139071D01*
X0526163Y0139081D01*
X0526301Y0139087D01*
X0526438Y0139089D01*
X0526575Y0139087D01*
X0526713Y0139081D01*
X0526850Y0139071D01*
X0526986Y0139057D01*
X0527123Y0139039D01*
X0527258Y0139017D01*
X0527393Y0138991D01*
X0527527Y0138962D01*
X0527661Y0138928D01*
X0527793Y0138891D01*
X0527924Y0138849D01*
X0528054Y0138804D01*
X0528182Y0138755D01*
X0528309Y0138703D01*
X0528434Y0138646D01*
X0528558Y0138587D01*
X0528680Y0138523D01*
X0528800Y0138456D01*
X0528918Y0138386D01*
X0529034Y0138312D01*
X0529148Y0138235D01*
X0529259Y0138154D01*
X0529368Y0138071D01*
X0529475Y0137984D01*
X0529578Y0137894D01*
X0529680Y0137801D01*
X0529778Y0137705D01*
X0529874Y0137607D01*
X0529967Y0137505D01*
X0530057Y0137402D01*
X0530144Y0137295D01*
X0530227Y0137186D01*
X0530308Y0137075D01*
X0530385Y0136961D01*
X0530459Y0136845D01*
X0530529Y0136727D01*
X0530596Y0136607D01*
X0530660Y0136485D01*
X0530719Y0136361D01*
X0530776Y0136236D01*
X0530828Y0136109D01*
X0530877Y0135981D01*
X0530922Y0135851D01*
X0530964Y0135720D01*
X0531001Y0135588D01*
X0531035Y0135454D01*
X0531064Y0135320D01*
X0531090Y0135185D01*
X0531112Y0135050D01*
X0531130Y0134913D01*
X0531144Y0134777D01*
X0531154Y0134640D01*
X0531160Y0134502D01*
X0531162Y0134365D01*
X0531160Y0134228D01*
X0531154Y0134090D01*
X0531144Y0133953D01*
X0531130Y0133817D01*
X0531112Y0133680D01*
X0531090Y0133545D01*
X0531064Y0133410D01*
X0531035Y0133276D01*
X0531001Y0133142D01*
X0530964Y0133010D01*
X0530922Y0132879D01*
X0530877Y0132749D01*
X0530828Y0132621D01*
X0530776Y0132494D01*
X0530719Y0132369D01*
X0530660Y0132245D01*
X0530596Y0132123D01*
X0530529Y0132003D01*
X0530459Y0131885D01*
X0530385Y0131769D01*
X0530308Y0131655D01*
X0530227Y0131544D01*
X0530144Y0131435D01*
X0530057Y0131328D01*
X0529967Y0131225D01*
X0529874Y0131123D01*
X0529778Y0131025D01*
X0529680Y0130929D01*
X0529578Y0130836D01*
X0529475Y0130746D01*
X0529368Y0130659D01*
X0529259Y0130576D01*
X0529148Y0130495D01*
X0529034Y0130418D01*
X0528918Y0130344D01*
X0528800Y0130274D01*
X0528680Y0130207D01*
X0528558Y0130143D01*
X0528434Y0130084D01*
X0528309Y0130027D01*
X0528182Y0129975D01*
X0528054Y0129926D01*
X0527924Y0129881D01*
X0527793Y0129839D01*
X0527661Y0129802D01*
X0527527Y0129768D01*
X0527393Y0129739D01*
X0527258Y0129713D01*
X0527123Y0129691D01*
X0526986Y0129673D01*
X0526850Y0129659D01*
X0526713Y0129649D01*
X0526575Y0129643D01*
X0526438Y0129641D01*
X0526301Y0129643D01*
X0526163Y0129649D01*
X0526026Y0129659D01*
X0525890Y0129673D01*
X0525753Y0129691D01*
X0525618Y0129713D01*
X0525483Y0129739D01*
X0525349Y0129768D01*
X0525215Y0129802D01*
X0525083Y0129839D01*
X0524952Y0129881D01*
X0524822Y0129926D01*
X0524694Y0129975D01*
X0524567Y0130027D01*
X0524442Y0130084D01*
X0524318Y0130143D01*
X0524196Y0130207D01*
X0524076Y0130274D01*
X0523958Y0130344D01*
X0523842Y0130418D01*
X0523728Y0130495D01*
X0523617Y0130576D01*
X0523508Y0130659D01*
X0523401Y0130746D01*
X0523298Y0130836D01*
X0523196Y0130929D01*
X0523098Y0131025D01*
X0523002Y0131123D01*
X0522909Y0131225D01*
X0522819Y0131328D01*
X0522732Y0131435D01*
X0522649Y0131544D01*
X0522568Y0131655D01*
X0522491Y0131769D01*
X0522417Y0131885D01*
X0522347Y0132003D01*
X0522280Y0132123D01*
X0522216Y0132245D01*
X0522157Y0132369D01*
X0522100Y0132494D01*
X0522048Y0132621D01*
X0521999Y0132749D01*
X0521954Y0132879D01*
X0521912Y0133010D01*
X0521875Y0133142D01*
X0521841Y0133276D01*
X0521812Y0133410D01*
X0521786Y0133545D01*
X0521764Y0133680D01*
X0521746Y0133817D01*
X0521732Y0133953D01*
X0521722Y0134090D01*
X0521716Y0134228D01*
X0521714Y0134365D01*
X0549938Y0119569D02*
X0551439Y0119569D01*
X0550688Y0119569D02*
X0550688Y0115065D01*
X0549938Y0115065D02*
X0551439Y0115065D01*
X0553007Y0115816D02*
X0553758Y0115065D01*
X0555259Y0115065D01*
X0556009Y0115816D01*
X0557611Y0115065D02*
X0560613Y0115065D01*
X0559112Y0115065D02*
X0559112Y0119569D01*
X0557611Y0118068D01*
X0556009Y0118818D02*
X0555259Y0119569D01*
X0553758Y0119569D01*
X0553007Y0118818D01*
X0553007Y0115816D01*
X0593338Y0133365D02*
X0593338Y0141615D01*
X0600588Y0141615D01*
X0600091Y0140063D01*
X0599387Y0138593D01*
X0598489Y0137233D01*
X0597413Y0136009D01*
X0596180Y0134944D01*
X0594813Y0134057D01*
X0593338Y0133365D01*
X0593338Y0133502D02*
X0593631Y0133502D01*
X0593338Y0134001D02*
X0594694Y0134001D01*
X0595495Y0134499D02*
X0593338Y0134499D01*
X0593338Y0134998D02*
X0596243Y0134998D01*
X0596820Y0135496D02*
X0593338Y0135496D01*
X0593338Y0135995D02*
X0597396Y0135995D01*
X0597839Y0136493D02*
X0593338Y0136493D01*
X0593338Y0136992D02*
X0598277Y0136992D01*
X0598659Y0137490D02*
X0593338Y0137490D01*
X0593338Y0137989D02*
X0598988Y0137989D01*
X0599317Y0138487D02*
X0593338Y0138487D01*
X0593338Y0138986D02*
X0599575Y0138986D01*
X0599814Y0139484D02*
X0593338Y0139484D01*
X0593338Y0139983D02*
X0600053Y0139983D01*
X0600225Y0140481D02*
X0593338Y0140481D01*
X0593338Y0140980D02*
X0600385Y0140980D01*
X0600544Y0141479D02*
X0593338Y0141479D01*
X0600588Y0141615D02*
X0600515Y0141329D01*
X0600434Y0141045D01*
X0600347Y0140763D01*
X0600252Y0140483D01*
X0600151Y0140205D01*
X0600043Y0139931D01*
X0599928Y0139658D01*
X0599807Y0139389D01*
X0599679Y0139123D01*
X0599545Y0138860D01*
X0599404Y0138600D01*
X0599257Y0138344D01*
X0599104Y0138091D01*
X0598945Y0137842D01*
X0598779Y0137597D01*
X0598608Y0137357D01*
X0598431Y0137120D01*
X0598248Y0136888D01*
X0598060Y0136661D01*
X0597866Y0136438D01*
X0597667Y0136220D01*
X0597462Y0136007D01*
X0597252Y0135799D01*
X0597038Y0135596D01*
X0596818Y0135398D01*
X0596594Y0135206D01*
X0596365Y0135020D01*
X0596131Y0134839D01*
X0595893Y0134663D01*
X0595651Y0134494D01*
X0595405Y0134331D01*
X0595155Y0134173D01*
X0594901Y0134022D01*
X0594644Y0133877D01*
X0594383Y0133739D01*
X0594119Y0133607D01*
X0593852Y0133481D01*
X0593581Y0133362D01*
X0593308Y0133249D01*
X0593032Y0133143D01*
X0592754Y0133044D01*
X0592473Y0132952D01*
X0592191Y0132867D01*
X0591906Y0132788D01*
X0591619Y0132717D01*
X0591331Y0132653D01*
X0591041Y0132595D01*
X0590750Y0132545D01*
X0590458Y0132502D01*
X0590165Y0132466D01*
X0589871Y0132437D01*
X0589576Y0132416D01*
X0589281Y0132401D01*
X0588986Y0132394D01*
X0588690Y0132394D01*
X0588395Y0132401D01*
X0588100Y0132416D01*
X0587805Y0132437D01*
X0587511Y0132466D01*
X0587218Y0132502D01*
X0586926Y0132545D01*
X0586635Y0132595D01*
X0586345Y0132653D01*
X0586057Y0132717D01*
X0585770Y0132788D01*
X0585485Y0132867D01*
X0585203Y0132952D01*
X0584922Y0133044D01*
X0584644Y0133143D01*
X0584368Y0133249D01*
X0584095Y0133362D01*
X0583824Y0133481D01*
X0583557Y0133607D01*
X0583293Y0133739D01*
X0583032Y0133877D01*
X0582775Y0134022D01*
X0582521Y0134173D01*
X0582271Y0134331D01*
X0582025Y0134494D01*
X0581783Y0134663D01*
X0581545Y0134839D01*
X0581311Y0135020D01*
X0581082Y0135206D01*
X0580858Y0135398D01*
X0580638Y0135596D01*
X0580424Y0135799D01*
X0580214Y0136007D01*
X0580009Y0136220D01*
X0579810Y0136438D01*
X0579616Y0136661D01*
X0579428Y0136888D01*
X0579245Y0137120D01*
X0579068Y0137357D01*
X0578897Y0137597D01*
X0578731Y0137842D01*
X0578572Y0138091D01*
X0578419Y0138344D01*
X0578272Y0138600D01*
X0578131Y0138860D01*
X0577997Y0139123D01*
X0577869Y0139389D01*
X0577748Y0139658D01*
X0577633Y0139931D01*
X0577525Y0140205D01*
X0577424Y0140483D01*
X0577329Y0140763D01*
X0577242Y0141045D01*
X0577161Y0141329D01*
X0577088Y0141615D01*
X0577088Y0147615D02*
X0577161Y0147901D01*
X0577242Y0148185D01*
X0577329Y0148467D01*
X0577424Y0148747D01*
X0577525Y0149025D01*
X0577633Y0149299D01*
X0577748Y0149572D01*
X0577869Y0149841D01*
X0577997Y0150107D01*
X0578131Y0150370D01*
X0578272Y0150630D01*
X0578419Y0150886D01*
X0578572Y0151139D01*
X0578731Y0151388D01*
X0578897Y0151633D01*
X0579068Y0151873D01*
X0579245Y0152110D01*
X0579428Y0152342D01*
X0579616Y0152569D01*
X0579810Y0152792D01*
X0580009Y0153010D01*
X0580214Y0153223D01*
X0580424Y0153431D01*
X0580638Y0153634D01*
X0580858Y0153832D01*
X0581082Y0154024D01*
X0581311Y0154210D01*
X0581545Y0154391D01*
X0581783Y0154567D01*
X0582025Y0154736D01*
X0582271Y0154899D01*
X0582521Y0155057D01*
X0582775Y0155208D01*
X0583032Y0155353D01*
X0583293Y0155491D01*
X0583557Y0155623D01*
X0583824Y0155749D01*
X0584095Y0155868D01*
X0584368Y0155981D01*
X0584644Y0156087D01*
X0584922Y0156186D01*
X0585203Y0156278D01*
X0585485Y0156363D01*
X0585770Y0156442D01*
X0586057Y0156513D01*
X0586345Y0156577D01*
X0586635Y0156635D01*
X0586926Y0156685D01*
X0587218Y0156728D01*
X0587511Y0156764D01*
X0587805Y0156793D01*
X0588100Y0156814D01*
X0588395Y0156829D01*
X0588690Y0156836D01*
X0588986Y0156836D01*
X0589281Y0156829D01*
X0589576Y0156814D01*
X0589871Y0156793D01*
X0590165Y0156764D01*
X0590458Y0156728D01*
X0590750Y0156685D01*
X0591041Y0156635D01*
X0591331Y0156577D01*
X0591619Y0156513D01*
X0591906Y0156442D01*
X0592191Y0156363D01*
X0592473Y0156278D01*
X0592754Y0156186D01*
X0593032Y0156087D01*
X0593308Y0155981D01*
X0593581Y0155868D01*
X0593852Y0155749D01*
X0594119Y0155623D01*
X0594383Y0155491D01*
X0594644Y0155353D01*
X0594901Y0155208D01*
X0595155Y0155057D01*
X0595405Y0154899D01*
X0595651Y0154736D01*
X0595893Y0154567D01*
X0596131Y0154391D01*
X0596365Y0154210D01*
X0596594Y0154024D01*
X0596818Y0153832D01*
X0597038Y0153634D01*
X0597252Y0153431D01*
X0597462Y0153223D01*
X0597667Y0153010D01*
X0597866Y0152792D01*
X0598060Y0152569D01*
X0598248Y0152342D01*
X0598431Y0152110D01*
X0598608Y0151873D01*
X0598779Y0151633D01*
X0598945Y0151388D01*
X0599104Y0151139D01*
X0599257Y0150886D01*
X0599404Y0150630D01*
X0599545Y0150370D01*
X0599679Y0150107D01*
X0599807Y0149841D01*
X0599928Y0149572D01*
X0600043Y0149299D01*
X0600151Y0149025D01*
X0600252Y0148747D01*
X0600347Y0148467D01*
X0600434Y0148185D01*
X0600515Y0147901D01*
X0600588Y0147615D01*
X0600091Y0149167D01*
X0599387Y0150637D01*
X0598489Y0151996D01*
X0597413Y0153221D01*
X0596180Y0154286D01*
X0594813Y0155173D01*
X0593338Y0155865D01*
X0593338Y0147615D01*
X0600588Y0147615D01*
X0600478Y0147959D02*
X0593338Y0147959D01*
X0593338Y0148458D02*
X0600318Y0148458D01*
X0600159Y0148956D02*
X0593338Y0148956D01*
X0593338Y0149455D02*
X0599953Y0149455D01*
X0599715Y0149953D02*
X0593338Y0149953D01*
X0593338Y0150452D02*
X0599476Y0150452D01*
X0599180Y0150950D02*
X0593338Y0150950D01*
X0593338Y0151449D02*
X0598851Y0151449D01*
X0598521Y0151947D02*
X0593338Y0151947D01*
X0593338Y0152446D02*
X0598094Y0152446D01*
X0597656Y0152944D02*
X0593338Y0152944D01*
X0593338Y0153443D02*
X0597156Y0153443D01*
X0596579Y0153941D02*
X0593338Y0153941D01*
X0593338Y0154440D02*
X0595943Y0154440D01*
X0595175Y0154938D02*
X0593338Y0154938D01*
X0593338Y0155437D02*
X0594251Y0155437D01*
X0591844Y0158615D02*
X0590342Y0158615D01*
X0589592Y0159366D01*
X0587990Y0159366D02*
X0587240Y0158615D01*
X0585738Y0158615D01*
X0584988Y0159366D01*
X0584988Y0162368D01*
X0585738Y0163119D01*
X0587240Y0163119D01*
X0587990Y0162368D01*
X0589592Y0162368D02*
X0590342Y0163119D01*
X0591844Y0163119D01*
X0592594Y0162368D01*
X0592594Y0161618D01*
X0591844Y0160867D01*
X0592594Y0160116D01*
X0592594Y0159366D01*
X0591844Y0158615D01*
X0591844Y0160867D02*
X0591093Y0160867D01*
X0550263Y0207965D02*
X0548762Y0207965D01*
X0548011Y0208716D01*
X0548011Y0209466D01*
X0548762Y0210217D01*
X0550263Y0210217D01*
X0551013Y0209466D01*
X0551013Y0208716D01*
X0550263Y0207965D01*
X0550263Y0210217D02*
X0551013Y0210968D01*
X0551013Y0211718D01*
X0550263Y0212469D01*
X0548762Y0212469D01*
X0548011Y0211718D01*
X0548011Y0210968D01*
X0548762Y0210217D01*
X0546409Y0211718D02*
X0545659Y0212469D01*
X0544158Y0212469D01*
X0543407Y0211718D01*
X0543407Y0208716D01*
X0544158Y0207965D01*
X0545659Y0207965D01*
X0546409Y0208716D01*
X0541839Y0207965D02*
X0540338Y0207965D01*
X0541088Y0207965D02*
X0541088Y0212469D01*
X0540338Y0212469D02*
X0541839Y0212469D01*
X0470794Y0247716D02*
X0470044Y0246965D01*
X0468542Y0246965D01*
X0467792Y0247716D01*
X0467792Y0248466D01*
X0468542Y0249217D01*
X0470044Y0249217D01*
X0470794Y0248466D01*
X0470794Y0247716D01*
X0470044Y0249217D02*
X0470794Y0249968D01*
X0470794Y0250718D01*
X0470044Y0251469D01*
X0468542Y0251469D01*
X0467792Y0250718D01*
X0467792Y0249968D01*
X0468542Y0249217D01*
X0466190Y0251469D02*
X0463188Y0248466D01*
X0463938Y0249217D02*
X0466190Y0246965D01*
X0463188Y0246965D02*
X0463188Y0251469D01*
X0463390Y0296015D02*
X0461138Y0298267D01*
X0460388Y0297516D02*
X0463390Y0300519D01*
X0464992Y0299018D02*
X0466493Y0300519D01*
X0466493Y0296015D01*
X0464992Y0296015D02*
X0467994Y0296015D01*
X0469596Y0296766D02*
X0472598Y0299768D01*
X0472598Y0296766D01*
X0471847Y0296015D01*
X0470346Y0296015D01*
X0469596Y0296766D01*
X0469596Y0299768D01*
X0470346Y0300519D01*
X0471847Y0300519D01*
X0472598Y0299768D01*
X0460388Y0300519D02*
X0460388Y0296015D01*
X0517088Y0326566D02*
X0517838Y0325815D01*
X0519340Y0325815D01*
X0520090Y0326566D01*
X0520090Y0329568D01*
X0519340Y0330319D01*
X0517838Y0330319D01*
X0517088Y0329568D01*
X0517088Y0326566D01*
X0518589Y0327316D02*
X0520090Y0325815D01*
X0521692Y0325815D02*
X0524694Y0325815D01*
X0523193Y0325815D02*
X0523193Y0330319D01*
X0521692Y0328818D01*
X0529068Y0326583D02*
X0536808Y0326583D01*
X0536808Y0311047D01*
X0529068Y0311047D01*
X0529068Y0326583D01*
X0539850Y0353949D02*
X0538348Y0355450D01*
X0538348Y0356952D01*
X0539850Y0358453D01*
X0541418Y0357702D02*
X0542168Y0358453D01*
X0543669Y0358453D01*
X0544420Y0357702D01*
X0541418Y0354700D01*
X0542168Y0353949D01*
X0543669Y0353949D01*
X0544420Y0354700D01*
X0544420Y0357702D01*
X0546021Y0356201D02*
X0548273Y0358453D01*
X0548273Y0353949D01*
X0550625Y0353949D02*
X0553628Y0358453D01*
X0555229Y0357702D02*
X0555980Y0358453D01*
X0557481Y0358453D01*
X0558232Y0357702D01*
X0558232Y0356952D01*
X0555229Y0353949D01*
X0558232Y0353949D01*
X0559833Y0354700D02*
X0562836Y0357702D01*
X0562836Y0354700D01*
X0562085Y0353949D01*
X0560584Y0353949D01*
X0559833Y0354700D01*
X0559833Y0357702D01*
X0560584Y0358453D01*
X0562085Y0358453D01*
X0562836Y0357702D01*
X0564437Y0357702D02*
X0565188Y0358453D01*
X0566689Y0358453D01*
X0567440Y0357702D01*
X0567440Y0356952D01*
X0564437Y0353949D01*
X0567440Y0353949D01*
X0569041Y0353949D02*
X0572044Y0353949D01*
X0570542Y0353949D02*
X0570542Y0358453D01*
X0569041Y0356952D01*
X0566689Y0361449D02*
X0564437Y0361449D01*
X0564437Y0365953D01*
X0566689Y0365953D01*
X0567440Y0365202D01*
X0567440Y0364452D01*
X0566689Y0363701D01*
X0564437Y0363701D01*
X0566689Y0363701D02*
X0567440Y0362950D01*
X0567440Y0362200D01*
X0566689Y0361449D01*
X0562869Y0361449D02*
X0561368Y0361449D01*
X0562119Y0361449D02*
X0562119Y0365953D01*
X0562869Y0365953D02*
X0561368Y0365953D01*
X0559767Y0365202D02*
X0559016Y0365953D01*
X0556764Y0365953D01*
X0556764Y0361449D01*
X0559016Y0361449D01*
X0559767Y0362200D01*
X0559767Y0365202D01*
X0550559Y0365202D02*
X0547556Y0362200D01*
X0547556Y0361449D01*
X0550559Y0361449D01*
X0550559Y0365202D02*
X0550559Y0365953D01*
X0547556Y0365953D01*
X0545955Y0365953D02*
X0542952Y0365953D01*
X0542952Y0361449D01*
X0545955Y0361449D01*
X0544453Y0363701D02*
X0542952Y0363701D01*
X0541351Y0361449D02*
X0538348Y0361449D01*
X0538348Y0365953D01*
X0541351Y0365953D01*
X0539850Y0363701D02*
X0538348Y0363701D01*
X0541418Y0357702D02*
X0541418Y0354700D01*
X0546021Y0356201D02*
X0549024Y0356201D01*
X0573645Y0361449D02*
X0573645Y0365953D01*
X0575146Y0364452D01*
X0576648Y0365953D01*
X0576648Y0361449D01*
X0578249Y0362200D02*
X0579000Y0361449D01*
X0580501Y0361449D01*
X0581252Y0362200D01*
X0581252Y0365953D01*
X0582853Y0365953D02*
X0585855Y0361449D01*
X0587457Y0361449D02*
X0590459Y0361449D01*
X0588958Y0361449D02*
X0588958Y0365953D01*
X0587457Y0364452D01*
X0585855Y0365953D02*
X0582853Y0361449D01*
X0583587Y0358453D02*
X0583587Y0353949D01*
X0582086Y0353949D02*
X0585088Y0353949D01*
X0586689Y0353949D02*
X0588941Y0353949D01*
X0589692Y0354700D01*
X0589692Y0355450D01*
X0588941Y0356201D01*
X0586689Y0356201D01*
X0586689Y0353949D02*
X0586689Y0358453D01*
X0588941Y0358453D01*
X0589692Y0357702D01*
X0589692Y0356952D01*
X0588941Y0356201D01*
X0591293Y0354700D02*
X0592044Y0353949D01*
X0593545Y0353949D01*
X0594296Y0354700D01*
X0594296Y0355450D01*
X0593545Y0356201D01*
X0592795Y0356201D01*
X0593545Y0356201D02*
X0594296Y0356952D01*
X0594296Y0357702D01*
X0593545Y0358453D01*
X0592044Y0358453D01*
X0591293Y0357702D01*
X0595897Y0358453D02*
X0597399Y0356952D01*
X0597399Y0355450D01*
X0595897Y0353949D01*
X0596665Y0361449D02*
X0598917Y0361449D01*
X0599667Y0362200D01*
X0599667Y0365202D01*
X0598917Y0365953D01*
X0596665Y0365953D01*
X0596665Y0361449D01*
X0594313Y0361449D02*
X0594313Y0365953D01*
X0592061Y0363701D01*
X0595063Y0363701D01*
X0583587Y0358453D02*
X0582086Y0356952D01*
X0580501Y0356952D02*
X0579750Y0356952D01*
X0578249Y0355450D01*
X0578249Y0353949D02*
X0578249Y0356952D01*
X0578249Y0362200D02*
X0578249Y0365953D01*
X0550613Y0292069D02*
X0547611Y0292069D01*
X0546009Y0291318D02*
X0545259Y0292069D01*
X0543758Y0292069D01*
X0543007Y0291318D01*
X0543007Y0288316D01*
X0543758Y0287565D01*
X0545259Y0287565D01*
X0546009Y0288316D01*
X0547611Y0288316D02*
X0547611Y0287565D01*
X0547611Y0288316D02*
X0550613Y0291318D01*
X0550613Y0292069D01*
X0541439Y0292069D02*
X0539938Y0292069D01*
X0540688Y0292069D02*
X0540688Y0287565D01*
X0539938Y0287565D02*
X0541439Y0287565D01*
X0389848Y0202219D02*
X0389848Y0201468D01*
X0386846Y0198466D01*
X0386846Y0197715D01*
X0385244Y0197715D02*
X0382242Y0197715D01*
X0383743Y0197715D02*
X0383743Y0202219D01*
X0382242Y0200718D01*
X0380640Y0202219D02*
X0377638Y0199216D01*
X0378388Y0199967D02*
X0380640Y0197715D01*
X0377638Y0197715D02*
X0377638Y0202219D01*
X0386846Y0202219D02*
X0389848Y0202219D01*
X0386894Y0247015D02*
X0387644Y0247766D01*
X0387644Y0248516D01*
X0386894Y0249267D01*
X0384642Y0249267D01*
X0384642Y0247766D01*
X0385392Y0247015D01*
X0386894Y0247015D01*
X0384642Y0249267D02*
X0386143Y0250768D01*
X0387644Y0251519D01*
X0383040Y0251519D02*
X0380038Y0248516D01*
X0380788Y0249267D02*
X0383040Y0247015D01*
X0380038Y0247015D02*
X0380038Y0251519D01*
X0379840Y0296015D02*
X0377588Y0298267D01*
X0376838Y0297516D02*
X0379840Y0300519D01*
X0381442Y0300519D02*
X0384444Y0300519D01*
X0384444Y0299768D01*
X0381442Y0296766D01*
X0381442Y0296015D01*
X0376838Y0296015D02*
X0376838Y0300519D01*
X0377588Y0345215D02*
X0377588Y0349719D01*
X0378338Y0347467D02*
X0380590Y0345215D01*
X0382192Y0345215D02*
X0385194Y0345215D01*
X0383693Y0345215D02*
X0383693Y0349719D01*
X0382192Y0348218D01*
X0380590Y0349719D02*
X0377588Y0346716D01*
X0386796Y0345215D02*
X0389798Y0345215D01*
X0388297Y0345215D02*
X0388297Y0349719D01*
X0386796Y0348218D01*
X0385349Y0375135D02*
X0385349Y0379638D01*
X0383097Y0377387D01*
X0386100Y0377387D01*
X0381496Y0379638D02*
X0378493Y0375135D01*
X0381496Y0375135D02*
X0378493Y0379638D01*
X0337182Y0401701D02*
X0332508Y0401701D01*
X0332774Y0401203D02*
X0336917Y0401203D01*
X0336651Y0400704D02*
X0333040Y0400704D01*
X0333305Y0400206D02*
X0336385Y0400206D01*
X0336119Y0399707D02*
X0333571Y0399707D01*
X0333837Y0399209D02*
X0335853Y0399209D01*
X0335587Y0398710D02*
X0334103Y0398710D01*
X0334369Y0398212D02*
X0335321Y0398212D01*
X0335055Y0397713D02*
X0334635Y0397713D01*
X0334845Y0397319D02*
X0331696Y0403224D01*
X0337995Y0403224D01*
X0334845Y0397319D01*
X0332242Y0402200D02*
X0337448Y0402200D01*
X0337714Y0402698D02*
X0331976Y0402698D01*
X0331710Y0403197D02*
X0337980Y0403197D01*
X0259255Y0403224D02*
X0256105Y0397319D01*
X0252955Y0403224D01*
X0259255Y0403224D01*
X0259240Y0403197D02*
X0252970Y0403197D01*
X0253236Y0402698D02*
X0258974Y0402698D01*
X0258708Y0402200D02*
X0253502Y0402200D01*
X0253768Y0401701D02*
X0258442Y0401701D01*
X0258176Y0401203D02*
X0254034Y0401203D01*
X0254299Y0400704D02*
X0257911Y0400704D01*
X0257645Y0400206D02*
X0254565Y0400206D01*
X0254831Y0399707D02*
X0257379Y0399707D01*
X0257113Y0399209D02*
X0255097Y0399209D01*
X0255363Y0398710D02*
X0256847Y0398710D01*
X0256581Y0398212D02*
X0255629Y0398212D01*
X0255895Y0397713D02*
X0256315Y0397713D01*
X0243459Y0379838D02*
X0241958Y0379838D01*
X0241207Y0379088D01*
X0239606Y0379838D02*
X0236603Y0375335D01*
X0239606Y0375335D02*
X0236603Y0379838D01*
X0241207Y0376085D02*
X0241958Y0375335D01*
X0243459Y0375335D01*
X0244209Y0376085D01*
X0244209Y0376836D01*
X0243459Y0377587D01*
X0242708Y0377587D01*
X0243459Y0377587D02*
X0244209Y0378337D01*
X0244209Y0379088D01*
X0243459Y0379838D01*
X0221294Y0349669D02*
X0219792Y0349669D01*
X0219042Y0348918D01*
X0219042Y0348168D01*
X0219792Y0347417D01*
X0222044Y0347417D01*
X0222044Y0345916D02*
X0222044Y0348918D01*
X0221294Y0349669D01*
X0222044Y0345916D02*
X0221294Y0345165D01*
X0219792Y0345165D01*
X0219042Y0345916D01*
X0217440Y0345165D02*
X0215188Y0347417D01*
X0214438Y0346666D02*
X0217440Y0349669D01*
X0214438Y0349669D02*
X0214438Y0345165D01*
X0214790Y0300819D02*
X0211788Y0297816D01*
X0212538Y0298567D02*
X0214790Y0296315D01*
X0216392Y0296315D02*
X0219394Y0299318D01*
X0219394Y0300068D01*
X0218644Y0300819D01*
X0217142Y0300819D01*
X0216392Y0300068D01*
X0216392Y0296315D02*
X0219394Y0296315D01*
X0211788Y0296315D02*
X0211788Y0300819D01*
X0214538Y0251319D02*
X0214538Y0246815D01*
X0214538Y0248316D02*
X0217540Y0251319D01*
X0219142Y0249818D02*
X0220643Y0251319D01*
X0220643Y0246815D01*
X0219142Y0246815D02*
X0222144Y0246815D01*
X0217540Y0246815D02*
X0215288Y0249067D01*
X0214340Y0202419D02*
X0211338Y0199416D01*
X0212088Y0200167D02*
X0214340Y0197915D01*
X0215942Y0197915D02*
X0218944Y0197915D01*
X0217443Y0197915D02*
X0217443Y0202419D01*
X0215942Y0200918D01*
X0220546Y0201668D02*
X0221296Y0202419D01*
X0222797Y0202419D01*
X0223548Y0201668D01*
X0223548Y0200918D01*
X0222797Y0200167D01*
X0223548Y0199416D01*
X0223548Y0198666D01*
X0222797Y0197915D01*
X0221296Y0197915D01*
X0220546Y0198666D01*
X0222047Y0200167D02*
X0222797Y0200167D01*
X0211338Y0202419D02*
X0211338Y0197915D01*
X0213938Y0153219D02*
X0213938Y0148715D01*
X0213938Y0150216D02*
X0216940Y0153219D01*
X0218542Y0151718D02*
X0220043Y0153219D01*
X0220043Y0148715D01*
X0218542Y0148715D02*
X0221544Y0148715D01*
X0223146Y0148715D02*
X0226148Y0151718D01*
X0226148Y0152468D01*
X0225397Y0153219D01*
X0223896Y0153219D01*
X0223146Y0152468D01*
X0223146Y0148715D02*
X0226148Y0148715D01*
X0216940Y0148715D02*
X0214688Y0150967D01*
X0297688Y0150616D02*
X0300690Y0153619D01*
X0302292Y0152118D02*
X0303793Y0153619D01*
X0303793Y0149115D01*
X0302292Y0149115D02*
X0305294Y0149115D01*
X0306896Y0151367D02*
X0309898Y0151367D01*
X0309147Y0153619D02*
X0306896Y0151367D01*
X0309147Y0149115D02*
X0309147Y0153619D01*
X0300690Y0149115D02*
X0298438Y0151367D01*
X0297688Y0153619D02*
X0297688Y0149115D01*
X0297590Y0197815D02*
X0295338Y0200067D01*
X0294588Y0199316D02*
X0297590Y0202319D01*
X0299192Y0200818D02*
X0300693Y0202319D01*
X0300693Y0197815D01*
X0299192Y0197815D02*
X0302194Y0197815D01*
X0303796Y0198566D02*
X0304546Y0197815D01*
X0306047Y0197815D01*
X0306798Y0198566D01*
X0306798Y0200067D01*
X0306047Y0200818D01*
X0305297Y0200818D01*
X0303796Y0200067D01*
X0303796Y0202319D01*
X0306798Y0202319D01*
X0294588Y0202319D02*
X0294588Y0197815D01*
X0297138Y0247165D02*
X0297138Y0251669D01*
X0297888Y0249417D02*
X0300140Y0247165D01*
X0301742Y0247916D02*
X0302492Y0247165D01*
X0303994Y0247165D01*
X0304744Y0247916D01*
X0304744Y0248666D01*
X0303994Y0249417D01*
X0303243Y0249417D01*
X0303994Y0249417D02*
X0304744Y0250168D01*
X0304744Y0250918D01*
X0303994Y0251669D01*
X0302492Y0251669D01*
X0301742Y0250918D01*
X0300140Y0251669D02*
X0297138Y0248666D01*
X0297090Y0296315D02*
X0294838Y0298567D01*
X0294088Y0297816D02*
X0297090Y0300819D01*
X0298692Y0298567D02*
X0301694Y0298567D01*
X0300944Y0296315D02*
X0300944Y0300819D01*
X0298692Y0298567D01*
X0294088Y0300819D02*
X0294088Y0296315D01*
X0295130Y0316065D02*
X0295130Y0320569D01*
X0295880Y0318317D02*
X0298132Y0316065D01*
X0299734Y0316816D02*
X0300484Y0316065D01*
X0301986Y0316065D01*
X0302736Y0316816D01*
X0302736Y0318317D01*
X0301986Y0319068D01*
X0301235Y0319068D01*
X0299734Y0318317D01*
X0299734Y0320569D01*
X0302736Y0320569D01*
X0298132Y0320569D02*
X0295130Y0317566D01*
X0380738Y0153519D02*
X0380738Y0149015D01*
X0380738Y0150516D02*
X0383740Y0153519D01*
X0385342Y0152018D02*
X0386843Y0153519D01*
X0386843Y0149015D01*
X0385342Y0149015D02*
X0388344Y0149015D01*
X0389946Y0149766D02*
X0389946Y0151267D01*
X0392197Y0151267D01*
X0392948Y0150516D01*
X0392948Y0149766D01*
X0392197Y0149015D01*
X0390696Y0149015D01*
X0389946Y0149766D01*
X0389946Y0151267D02*
X0391447Y0152768D01*
X0392948Y0153519D01*
X0383740Y0149015D02*
X0381488Y0151267D01*
X0447888Y0074185D02*
X0447888Y0067445D01*
X0460487Y0067445D01*
X0460487Y0074185D01*
X0447888Y0074185D01*
X0593438Y0067319D02*
X0596440Y0062815D01*
X0598042Y0062815D02*
X0601044Y0062815D01*
X0599543Y0062815D02*
X0599543Y0067319D01*
X0598042Y0065818D01*
X0596440Y0067319D02*
X0593438Y0062815D01*
D11*
X0557888Y0382090D03*
D12*
X0522257Y0357906D03*
D13*
X0519367Y0352196D03*
X0527572Y0353067D03*
X0530752Y0352361D03*
D14*
X0519367Y0352211D03*
D15*
X0519367Y0352226D03*
D16*
X0519367Y0352241D03*
D17*
X0519367Y0352256D03*
X0519457Y0366641D03*
D18*
X0519367Y0352271D03*
X0527617Y0353156D03*
D19*
X0527632Y0353171D03*
X0519367Y0352286D03*
D20*
X0519367Y0352301D03*
D21*
X0519367Y0352317D03*
D22*
X0519367Y0352331D03*
X0530752Y0352496D03*
D23*
X0519375Y0352346D03*
D24*
X0519382Y0352361D03*
X0522397Y0353171D03*
X0527707Y0353261D03*
D25*
X0527722Y0353276D03*
X0530737Y0352556D03*
X0519382Y0352376D03*
D26*
X0527565Y0353096D03*
X0530760Y0352376D03*
D27*
X0530737Y0352571D03*
X0522367Y0353217D03*
X0519382Y0352391D03*
D28*
X0530752Y0352391D03*
D29*
X0527752Y0353321D03*
X0522352Y0353231D03*
X0519382Y0352406D03*
D30*
X0530760Y0352406D03*
D31*
X0519382Y0352421D03*
D32*
X0527595Y0353141D03*
X0530760Y0352421D03*
D33*
X0522337Y0353246D03*
X0519382Y0352436D03*
D34*
X0522495Y0353067D03*
X0530760Y0352436D03*
X0530385Y0366686D03*
D35*
X0519390Y0352451D03*
D36*
X0530760Y0352451D03*
D37*
X0530722Y0352646D03*
X0519397Y0352467D03*
D38*
X0522457Y0353126D03*
X0527647Y0353186D03*
X0530752Y0352467D03*
D39*
X0527812Y0353396D03*
X0522277Y0353321D03*
X0519397Y0352481D03*
X0519487Y0366386D03*
D40*
X0519472Y0366567D03*
X0530752Y0352481D03*
D41*
X0530722Y0352676D03*
X0522262Y0353336D03*
X0519397Y0352496D03*
X0524782Y0368561D03*
X0530362Y0366446D03*
D42*
X0519405Y0352511D03*
D43*
X0530752Y0352511D03*
D44*
X0530715Y0352691D03*
X0527835Y0353441D03*
X0519405Y0352526D03*
X0530355Y0366431D03*
D45*
X0530752Y0352526D03*
D46*
X0519412Y0352541D03*
D47*
X0530745Y0352541D03*
X0519480Y0366521D03*
D48*
X0530355Y0366386D03*
X0527865Y0353471D03*
X0519405Y0352556D03*
D49*
X0519412Y0352571D03*
D50*
X0519420Y0352586D03*
X0522195Y0353426D03*
X0527895Y0353531D03*
X0530340Y0366356D03*
D51*
X0530370Y0366536D03*
X0530730Y0352586D03*
D52*
X0519420Y0352601D03*
D53*
X0530730Y0352601D03*
D54*
X0519420Y0352617D03*
X0519510Y0366267D03*
X0530340Y0366341D03*
D55*
X0530370Y0366506D03*
X0530730Y0352617D03*
D56*
X0519420Y0352631D03*
D57*
X0522315Y0353261D03*
X0530730Y0352631D03*
X0530370Y0366491D03*
D58*
X0527947Y0353591D03*
X0519427Y0352646D03*
D59*
X0519427Y0352661D03*
X0522127Y0353517D03*
X0530692Y0352856D03*
D60*
X0530715Y0352661D03*
X0522285Y0353306D03*
D61*
X0519427Y0352676D03*
D62*
X0519435Y0352691D03*
D63*
X0519435Y0352706D03*
X0527985Y0353681D03*
D64*
X0530707Y0352706D03*
D65*
X0519435Y0352721D03*
X0519525Y0366161D03*
X0530325Y0366236D03*
D66*
X0530355Y0366417D03*
X0519495Y0366356D03*
X0530715Y0352721D03*
D67*
X0519435Y0352736D03*
D68*
X0530707Y0352736D03*
D69*
X0519442Y0352751D03*
D70*
X0530707Y0352751D03*
D71*
X0519442Y0352767D03*
D72*
X0530707Y0352767D03*
D73*
X0519450Y0352781D03*
D74*
X0522195Y0353441D03*
X0527910Y0353546D03*
X0530700Y0352781D03*
D75*
X0519450Y0352796D03*
D76*
X0530700Y0352796D03*
D77*
X0530662Y0353006D03*
X0519457Y0352811D03*
D78*
X0530692Y0352811D03*
D79*
X0519457Y0352826D03*
D80*
X0522157Y0353471D03*
X0530692Y0352826D03*
D81*
X0519450Y0352841D03*
X0530310Y0366117D03*
D82*
X0530340Y0366296D03*
X0522150Y0353486D03*
X0530685Y0352841D03*
D83*
X0519465Y0352856D03*
D84*
X0519472Y0352871D03*
X0519547Y0365996D03*
D85*
X0530685Y0352871D03*
D86*
X0530647Y0353096D03*
X0519472Y0352886D03*
X0519547Y0365981D03*
X0524962Y0368531D03*
D87*
X0527977Y0353667D03*
X0530677Y0352886D03*
D88*
X0519472Y0352901D03*
D89*
X0530677Y0352901D03*
D90*
X0519472Y0352917D03*
X0519547Y0365967D03*
D91*
X0530677Y0352917D03*
D92*
X0530640Y0353141D03*
X0519480Y0352931D03*
X0530295Y0366026D03*
D93*
X0530325Y0366221D03*
X0530670Y0352931D03*
D94*
X0519480Y0352946D03*
X0519555Y0365936D03*
D95*
X0530677Y0352946D03*
D96*
X0519487Y0352961D03*
D97*
X0530670Y0352961D03*
D98*
X0530625Y0353186D03*
X0519495Y0352976D03*
D99*
X0530662Y0352976D03*
D100*
X0519495Y0352991D03*
D101*
X0522547Y0352991D03*
D102*
X0530662Y0352991D03*
D103*
X0519495Y0353006D03*
D104*
X0522547Y0353006D03*
D105*
X0519502Y0353021D03*
X0519562Y0365861D03*
X0524977Y0368486D03*
D106*
X0522547Y0353021D03*
D107*
X0530662Y0353021D03*
D108*
X0530610Y0353246D03*
X0519510Y0353036D03*
D109*
X0522525Y0353036D03*
D110*
X0530662Y0353036D03*
X0519532Y0366056D03*
D111*
X0519510Y0353051D03*
D112*
X0522510Y0353051D03*
D113*
X0530655Y0353051D03*
X0530310Y0366101D03*
D114*
X0530602Y0353291D03*
X0519517Y0353067D03*
D115*
X0530655Y0353067D03*
D116*
X0530602Y0353306D03*
X0519517Y0353081D03*
X0530257Y0365861D03*
D117*
X0519465Y0366626D03*
X0522480Y0353081D03*
D118*
X0527565Y0353081D03*
X0519465Y0366671D03*
D119*
X0530655Y0353081D03*
D120*
X0530595Y0353321D03*
X0519525Y0353096D03*
X0524970Y0368411D03*
D121*
X0522472Y0353096D03*
D122*
X0519525Y0353111D03*
X0530595Y0353336D03*
D123*
X0522472Y0353111D03*
D124*
X0527572Y0353111D03*
D125*
X0530647Y0353111D03*
X0530302Y0366056D03*
D126*
X0519532Y0353126D03*
D127*
X0527580Y0353126D03*
D128*
X0530640Y0353126D03*
X0530295Y0366041D03*
D129*
X0530242Y0365817D03*
X0524962Y0368156D03*
X0524962Y0368171D03*
X0524962Y0368186D03*
X0524962Y0368217D03*
X0519532Y0353141D03*
D130*
X0522450Y0353141D03*
X0527655Y0353217D03*
X0530385Y0366626D03*
D131*
X0530235Y0365786D03*
X0524970Y0368081D03*
X0530580Y0353381D03*
X0519540Y0353156D03*
D132*
X0522420Y0353156D03*
X0527685Y0353246D03*
D133*
X0530632Y0353156D03*
X0530287Y0365996D03*
D134*
X0519547Y0353171D03*
D135*
X0530625Y0353171D03*
X0530280Y0365981D03*
X0519555Y0365906D03*
D136*
X0519615Y0365667D03*
X0524955Y0367871D03*
X0524955Y0367886D03*
X0530565Y0353426D03*
X0519555Y0353186D03*
D137*
X0522390Y0353186D03*
X0519480Y0366506D03*
D138*
X0524955Y0367751D03*
X0519555Y0353201D03*
D139*
X0522375Y0353201D03*
D140*
X0527655Y0353201D03*
D141*
X0530625Y0353201D03*
D142*
X0519562Y0353217D03*
X0524962Y0367646D03*
X0524962Y0367661D03*
X0524962Y0367676D03*
X0524962Y0367691D03*
X0524962Y0367706D03*
D143*
X0530617Y0353217D03*
D144*
X0519562Y0353231D03*
X0524962Y0367571D03*
D145*
X0527670Y0353231D03*
D146*
X0530617Y0353231D03*
D147*
X0519562Y0353246D03*
X0519622Y0365636D03*
X0530212Y0365711D03*
D148*
X0524955Y0367406D03*
X0524955Y0367421D03*
X0519630Y0365606D03*
X0519570Y0353261D03*
D149*
X0530610Y0353261D03*
D150*
X0530550Y0353517D03*
X0519570Y0353276D03*
X0519630Y0365576D03*
X0524955Y0367196D03*
X0524955Y0367211D03*
X0524955Y0367226D03*
X0524955Y0367241D03*
X0524955Y0367256D03*
X0524955Y0367271D03*
X0524955Y0367286D03*
X0530205Y0365667D03*
D151*
X0522292Y0353276D03*
D152*
X0530602Y0353276D03*
D153*
X0530542Y0353531D03*
X0519577Y0353291D03*
D154*
X0522285Y0353291D03*
D155*
X0527730Y0353291D03*
X0519480Y0366491D03*
D156*
X0519577Y0353306D03*
D157*
X0527745Y0353306D03*
D158*
X0519585Y0353321D03*
D159*
X0519585Y0353336D03*
X0530190Y0365621D03*
X0524940Y0366836D03*
X0524940Y0366867D03*
X0524940Y0366881D03*
D160*
X0530370Y0366521D03*
X0519480Y0366461D03*
X0527760Y0353336D03*
D161*
X0519592Y0353351D03*
D162*
X0522247Y0353351D03*
D163*
X0527775Y0353351D03*
D164*
X0530587Y0353351D03*
D165*
X0519600Y0353367D03*
X0524955Y0366596D03*
X0524955Y0366611D03*
X0524955Y0366626D03*
D166*
X0519495Y0366341D03*
X0522225Y0353367D03*
X0527850Y0353456D03*
D167*
X0527797Y0353367D03*
X0519487Y0366431D03*
D168*
X0524970Y0368141D03*
X0530580Y0353367D03*
D169*
X0530512Y0353636D03*
X0519607Y0353381D03*
X0524947Y0366431D03*
X0524947Y0366446D03*
X0524947Y0366461D03*
X0524947Y0366476D03*
X0524947Y0366491D03*
D170*
X0522217Y0353381D03*
D171*
X0527805Y0353381D03*
X0519480Y0366417D03*
D172*
X0524932Y0366371D03*
X0524932Y0366356D03*
X0519607Y0353396D03*
D173*
X0522217Y0353396D03*
X0519502Y0366311D03*
X0530347Y0366371D03*
D174*
X0530227Y0365771D03*
X0524962Y0367976D03*
X0524962Y0367991D03*
X0524962Y0368006D03*
X0519607Y0365696D03*
X0530572Y0353396D03*
D175*
X0519607Y0353411D03*
D176*
X0522210Y0353411D03*
D177*
X0527820Y0353411D03*
D178*
X0530572Y0353411D03*
X0524962Y0367917D03*
X0524962Y0367931D03*
X0524962Y0367946D03*
D179*
X0519615Y0353426D03*
D180*
X0527820Y0353426D03*
D181*
X0519615Y0353441D03*
D182*
X0530565Y0353441D03*
X0524955Y0367721D03*
X0524955Y0367736D03*
X0524955Y0367767D03*
X0524955Y0367781D03*
D183*
X0524947Y0366086D03*
X0519622Y0353456D03*
D184*
X0522172Y0353456D03*
X0527917Y0353561D03*
D185*
X0530557Y0353456D03*
D186*
X0519630Y0353471D03*
X0519675Y0365381D03*
D187*
X0524955Y0367467D03*
X0524955Y0367481D03*
X0530550Y0353471D03*
D188*
X0519630Y0353486D03*
X0524955Y0366056D03*
D189*
X0527880Y0353486D03*
D190*
X0530542Y0353486D03*
X0530212Y0365681D03*
X0524947Y0367376D03*
X0524947Y0367391D03*
D191*
X0519630Y0353501D03*
D192*
X0522142Y0353501D03*
D193*
X0527880Y0353501D03*
D194*
X0530542Y0353501D03*
X0524947Y0367301D03*
D195*
X0519630Y0353517D03*
D196*
X0527887Y0353517D03*
X0519502Y0366296D03*
D197*
X0520537Y0357926D03*
X0520777Y0357656D03*
X0520747Y0354581D03*
X0520357Y0353531D03*
X0529072Y0355271D03*
X0529087Y0355241D03*
X0529687Y0353711D03*
D198*
X0529170Y0355091D03*
X0529155Y0355121D03*
X0529155Y0355136D03*
X0529140Y0355167D03*
X0529095Y0357596D03*
X0529080Y0361361D03*
X0529065Y0361376D03*
X0529050Y0361391D03*
X0520530Y0361031D03*
X0520785Y0357641D03*
X0520800Y0357626D03*
X0520695Y0354506D03*
X0520680Y0354476D03*
X0520665Y0354446D03*
X0520350Y0353546D03*
D199*
X0530535Y0353546D03*
D200*
X0529695Y0353741D03*
X0529185Y0355061D03*
X0528660Y0356456D03*
X0529035Y0361421D03*
X0520875Y0361406D03*
X0520815Y0357596D03*
X0520830Y0357581D03*
X0521325Y0356291D03*
X0521325Y0356276D03*
X0520650Y0354417D03*
X0520350Y0353561D03*
D201*
X0530527Y0353561D03*
X0524947Y0366896D03*
D202*
X0520897Y0361436D03*
X0520882Y0361421D03*
X0520492Y0357941D03*
X0520627Y0354386D03*
X0520627Y0354371D03*
X0520342Y0353576D03*
X0528652Y0356471D03*
X0529192Y0355046D03*
X0529207Y0355031D03*
X0529702Y0353756D03*
X0529012Y0361436D03*
D203*
X0527932Y0353576D03*
D204*
X0530512Y0353576D03*
X0519652Y0365531D03*
D205*
X0520500Y0361017D03*
X0520845Y0357567D03*
X0520620Y0354356D03*
X0520605Y0354326D03*
X0520335Y0353591D03*
X0529215Y0355017D03*
X0529230Y0354986D03*
X0529230Y0354971D03*
X0529245Y0354956D03*
D206*
X0530512Y0353591D03*
X0530182Y0365591D03*
X0524947Y0366746D03*
X0524947Y0366761D03*
X0524947Y0366776D03*
X0519652Y0365517D03*
D207*
X0520920Y0361481D03*
X0520335Y0353621D03*
X0520335Y0353606D03*
X0529320Y0354821D03*
X0529020Y0357506D03*
D208*
X0527947Y0353606D03*
D209*
X0530512Y0353606D03*
D210*
X0527955Y0353621D03*
X0530340Y0366281D03*
D211*
X0524947Y0366506D03*
X0524947Y0366521D03*
X0524947Y0366536D03*
X0524947Y0366567D03*
X0524947Y0366581D03*
X0530512Y0353621D03*
D212*
X0529350Y0354761D03*
X0529335Y0354776D03*
X0520515Y0354176D03*
X0520515Y0354161D03*
X0520500Y0354146D03*
X0520335Y0353636D03*
X0520935Y0361496D03*
X0520950Y0361511D03*
D213*
X0527955Y0353636D03*
D214*
X0520335Y0353651D03*
D215*
X0527970Y0353651D03*
D216*
X0530505Y0353651D03*
D217*
X0520485Y0354117D03*
X0520335Y0353681D03*
X0520335Y0353667D03*
D218*
X0530497Y0353667D03*
X0530167Y0365531D03*
X0524932Y0366191D03*
X0524932Y0366206D03*
X0524932Y0366221D03*
X0524932Y0366236D03*
D219*
X0524932Y0366131D03*
X0519667Y0365426D03*
X0530482Y0353681D03*
D220*
X0520342Y0353696D03*
X0520942Y0357446D03*
D221*
X0527992Y0353696D03*
D222*
X0530475Y0353696D03*
X0530160Y0365486D03*
X0519675Y0365396D03*
D223*
X0528900Y0361571D03*
X0528960Y0357417D03*
X0528660Y0356636D03*
X0528660Y0356621D03*
X0528660Y0356606D03*
X0528660Y0356591D03*
X0529455Y0354581D03*
X0529455Y0354567D03*
X0529470Y0354536D03*
X0521310Y0356486D03*
X0520950Y0357431D03*
X0520455Y0354056D03*
X0520455Y0354041D03*
X0520440Y0354026D03*
X0520440Y0354011D03*
X0520335Y0353726D03*
X0520335Y0353711D03*
D224*
X0520657Y0354431D03*
X0520672Y0354461D03*
X0520687Y0354491D03*
X0520807Y0357611D03*
X0528652Y0356441D03*
X0529072Y0357567D03*
X0529087Y0357581D03*
X0529162Y0355106D03*
X0529177Y0355076D03*
X0529687Y0353726D03*
X0529147Y0361317D03*
X0529042Y0361406D03*
X0524947Y0365786D03*
D225*
X0520342Y0353771D03*
X0520342Y0353756D03*
X0520342Y0353741D03*
D226*
X0521317Y0356336D03*
X0521317Y0356367D03*
X0529252Y0354941D03*
X0529267Y0354926D03*
X0529282Y0354911D03*
X0529282Y0354896D03*
X0529702Y0353771D03*
D227*
X0529500Y0354476D03*
X0529485Y0354491D03*
X0528885Y0361586D03*
X0520350Y0353846D03*
X0520350Y0353831D03*
X0520350Y0353817D03*
X0520350Y0353786D03*
D228*
X0520575Y0354267D03*
X0520590Y0354281D03*
X0521310Y0356381D03*
X0521310Y0356396D03*
X0520875Y0357536D03*
X0529290Y0354881D03*
X0529710Y0353786D03*
D229*
X0520350Y0353801D03*
D230*
X0528660Y0356501D03*
X0529710Y0353801D03*
D231*
X0529717Y0353817D03*
X0528982Y0361481D03*
X0528967Y0361496D03*
X0524947Y0365771D03*
X0520882Y0357521D03*
X0520897Y0357506D03*
X0520897Y0357491D03*
X0521317Y0356411D03*
X0520552Y0354236D03*
D232*
X0520545Y0354221D03*
X0520530Y0354206D03*
X0521310Y0356426D03*
X0521310Y0356441D03*
X0528660Y0356517D03*
X0528660Y0356531D03*
X0528990Y0357461D03*
X0529005Y0357476D03*
X0529710Y0353831D03*
X0528960Y0361511D03*
D233*
X0528952Y0361526D03*
X0528937Y0361541D03*
X0529252Y0361271D03*
X0529372Y0354717D03*
X0529387Y0354686D03*
X0529402Y0354671D03*
X0529717Y0353846D03*
X0520912Y0357476D03*
D234*
X0520980Y0357386D03*
X0521310Y0356517D03*
X0520410Y0353967D03*
X0520380Y0353921D03*
X0520365Y0353891D03*
X0520365Y0353876D03*
X0520365Y0353861D03*
X0521010Y0361571D03*
X0528660Y0356681D03*
X0528660Y0356667D03*
D235*
X0528967Y0357431D03*
X0529657Y0358167D03*
X0528922Y0361556D03*
X0529432Y0354626D03*
X0529432Y0354611D03*
X0529447Y0354596D03*
X0529732Y0353861D03*
X0520462Y0354071D03*
X0520417Y0360986D03*
X0520987Y0361556D03*
D236*
X0520957Y0357417D03*
X0520432Y0353996D03*
X0520417Y0353981D03*
X0529477Y0354506D03*
X0529477Y0354521D03*
X0529732Y0353891D03*
X0529732Y0353876D03*
X0528937Y0357386D03*
D237*
X0528922Y0357371D03*
X0528667Y0356696D03*
X0529522Y0354446D03*
X0529537Y0354417D03*
X0529552Y0354386D03*
X0529567Y0354371D03*
X0529732Y0353906D03*
X0528862Y0361617D03*
X0528847Y0361631D03*
X0524947Y0365756D03*
X0521032Y0361586D03*
X0520987Y0357371D03*
X0520387Y0353936D03*
X0520372Y0353906D03*
D238*
X0521310Y0356531D03*
X0521310Y0356546D03*
X0521055Y0361617D03*
X0528660Y0356711D03*
X0529530Y0354431D03*
X0529575Y0354356D03*
X0529725Y0353936D03*
X0529725Y0353921D03*
D239*
X0528870Y0361601D03*
X0520965Y0357401D03*
X0521310Y0356501D03*
X0520395Y0353951D03*
D240*
X0529725Y0353951D03*
D241*
X0529725Y0353967D03*
X0529725Y0353981D03*
X0521310Y0356576D03*
X0521310Y0356591D03*
X0521010Y0357356D03*
D242*
X0521302Y0356621D03*
X0521302Y0356606D03*
X0528667Y0356741D03*
X0529717Y0358181D03*
X0529717Y0354041D03*
X0529717Y0354026D03*
X0529717Y0354011D03*
X0529717Y0353996D03*
D243*
X0529710Y0354056D03*
X0529710Y0354071D03*
X0529710Y0354086D03*
X0528660Y0356756D03*
X0528810Y0361661D03*
X0521025Y0357341D03*
X0521310Y0356636D03*
D244*
X0521310Y0356471D03*
X0521310Y0356456D03*
X0520425Y0357956D03*
X0520965Y0361541D03*
X0520470Y0354086D03*
X0528660Y0356546D03*
X0528660Y0356561D03*
X0528660Y0356576D03*
X0528975Y0357446D03*
X0529365Y0354731D03*
X0529410Y0354656D03*
X0529425Y0354641D03*
D245*
X0520477Y0354101D03*
D246*
X0529702Y0354101D03*
D247*
X0529695Y0354117D03*
X0529695Y0354131D03*
X0529680Y0354146D03*
X0529680Y0354161D03*
X0529665Y0354176D03*
X0529650Y0354191D03*
X0529635Y0354221D03*
X0528870Y0357326D03*
X0528885Y0357341D03*
X0521100Y0361661D03*
D248*
X0520957Y0361526D03*
X0520927Y0357461D03*
X0520492Y0354131D03*
X0529357Y0354746D03*
D249*
X0529327Y0354791D03*
X0529327Y0354806D03*
X0529312Y0354836D03*
X0529012Y0357491D03*
X0520522Y0354191D03*
D250*
X0529612Y0354267D03*
X0529627Y0354236D03*
X0529642Y0354206D03*
D251*
X0520567Y0354251D03*
D252*
X0529620Y0354251D03*
D253*
X0529605Y0354281D03*
X0529605Y0354296D03*
X0529335Y0361256D03*
X0521085Y0361646D03*
X0520350Y0357971D03*
D254*
X0520912Y0361467D03*
X0520612Y0354341D03*
X0520597Y0354311D03*
X0520597Y0354296D03*
X0529297Y0354867D03*
X0529027Y0357521D03*
X0529042Y0357536D03*
X0529207Y0361286D03*
X0528997Y0361467D03*
D255*
X0528832Y0361646D03*
X0528667Y0356726D03*
X0529582Y0354341D03*
X0529597Y0354326D03*
X0529597Y0354311D03*
X0521302Y0356561D03*
D256*
X0520650Y0354401D03*
X0529575Y0358151D03*
X0529170Y0361301D03*
D257*
X0529552Y0354401D03*
D258*
X0529507Y0354461D03*
D259*
X0528660Y0356411D03*
X0528660Y0356426D03*
X0529110Y0357611D03*
X0521325Y0356261D03*
X0520710Y0354521D03*
X0520860Y0361376D03*
D260*
X0520852Y0361361D03*
X0521332Y0356246D03*
X0520717Y0354536D03*
X0528652Y0356381D03*
X0528652Y0356396D03*
X0529102Y0355226D03*
X0529102Y0355211D03*
X0529117Y0355196D03*
X0529132Y0355181D03*
X0529117Y0357626D03*
X0529132Y0357641D03*
X0529117Y0361331D03*
X0529102Y0361346D03*
D261*
X0520732Y0354551D03*
D262*
X0528667Y0356651D03*
X0528952Y0357401D03*
X0529462Y0354551D03*
D263*
X0528660Y0356367D03*
X0529140Y0357656D03*
X0520740Y0354567D03*
D264*
X0520755Y0354596D03*
X0520755Y0354611D03*
X0520770Y0354641D03*
X0520770Y0357671D03*
X0520830Y0361346D03*
X0529050Y0355317D03*
X0529065Y0355286D03*
X0529080Y0355256D03*
D265*
X0529042Y0355331D03*
X0529042Y0355346D03*
X0520777Y0354656D03*
X0520762Y0354626D03*
X0520762Y0357686D03*
X0520822Y0361331D03*
D266*
X0520792Y0361286D03*
X0520792Y0354671D03*
X0529027Y0355361D03*
D267*
X0529185Y0357717D03*
X0520800Y0354686D03*
X0520785Y0361271D03*
D268*
X0520800Y0354701D03*
D269*
X0529380Y0354701D03*
D270*
X0529020Y0355376D03*
X0529005Y0355406D03*
X0528990Y0355436D03*
X0528975Y0355467D03*
X0528960Y0355481D03*
X0528645Y0356306D03*
X0529515Y0358136D03*
X0521325Y0356171D03*
X0521325Y0356156D03*
X0520830Y0354761D03*
X0520815Y0354731D03*
X0520815Y0354717D03*
X0520725Y0357746D03*
X0520590Y0357896D03*
X0520770Y0361256D03*
X0524955Y0365817D03*
D271*
X0520717Y0357761D03*
X0520867Y0354806D03*
X0520852Y0354791D03*
X0520837Y0354776D03*
X0520822Y0354746D03*
X0528637Y0356276D03*
X0528637Y0356291D03*
X0528922Y0355541D03*
X0528937Y0355526D03*
X0528937Y0355511D03*
X0528952Y0355496D03*
D272*
X0528915Y0355556D03*
X0528915Y0355571D03*
X0529200Y0357746D03*
X0529200Y0357761D03*
X0521325Y0356141D03*
X0521325Y0356126D03*
X0520905Y0354881D03*
X0520890Y0354836D03*
X0520875Y0354821D03*
X0520710Y0357776D03*
X0520695Y0357806D03*
X0520620Y0357881D03*
X0520740Y0361226D03*
X0520755Y0361241D03*
D273*
X0520890Y0354851D03*
X0528900Y0355601D03*
D274*
X0529305Y0354851D03*
D275*
X0528907Y0355586D03*
X0528637Y0356261D03*
X0529207Y0357776D03*
X0529222Y0357791D03*
X0529222Y0357806D03*
X0521332Y0356111D03*
X0520912Y0354911D03*
X0520912Y0354896D03*
X0520897Y0354867D03*
X0520702Y0357791D03*
X0520687Y0357821D03*
X0520717Y0361181D03*
X0520732Y0361196D03*
X0520732Y0361211D03*
D276*
X0520710Y0361167D03*
X0520680Y0357836D03*
X0521340Y0356096D03*
X0520920Y0354926D03*
X0528645Y0356246D03*
X0529230Y0357821D03*
X0524955Y0365831D03*
D277*
X0528885Y0355646D03*
X0520935Y0354941D03*
D278*
X0520942Y0354956D03*
X0520642Y0361061D03*
X0529477Y0358121D03*
D279*
X0520950Y0354971D03*
D280*
X0520957Y0354986D03*
X0520972Y0355017D03*
X0520657Y0361076D03*
X0520672Y0361091D03*
X0528772Y0355826D03*
X0528772Y0355811D03*
D281*
X0520972Y0355001D03*
D282*
X0520905Y0361451D03*
X0529005Y0361451D03*
X0529215Y0355001D03*
D283*
X0528765Y0355841D03*
X0528765Y0355856D03*
X0528750Y0355886D03*
X0521355Y0356036D03*
X0520980Y0355031D03*
D284*
X0520987Y0355046D03*
X0528787Y0355796D03*
X0529252Y0357867D03*
D285*
X0529260Y0357881D03*
X0529275Y0357896D03*
X0529275Y0357911D03*
X0529440Y0358106D03*
X0528645Y0356186D03*
X0528645Y0356171D03*
X0521010Y0355076D03*
X0520995Y0355061D03*
D286*
X0521017Y0355091D03*
X0521032Y0355106D03*
X0529282Y0357926D03*
D287*
X0529290Y0357941D03*
X0528645Y0356141D03*
X0528645Y0356126D03*
X0528645Y0356096D03*
X0528705Y0355961D03*
X0528735Y0355917D03*
X0521355Y0355976D03*
X0521355Y0355991D03*
X0521355Y0356006D03*
X0521070Y0355181D03*
X0521055Y0355167D03*
X0521040Y0355121D03*
D288*
X0521047Y0355136D03*
X0521347Y0356021D03*
X0528637Y0356156D03*
X0528727Y0355931D03*
X0528757Y0355871D03*
X0524962Y0365846D03*
D289*
X0521055Y0355151D03*
D290*
X0529147Y0355151D03*
D291*
X0528712Y0355946D03*
X0528697Y0355976D03*
X0528682Y0355991D03*
X0528652Y0356067D03*
X0528652Y0356081D03*
X0528637Y0356111D03*
X0529297Y0357956D03*
X0529312Y0357971D03*
X0521077Y0355211D03*
X0521077Y0355196D03*
D292*
X0521085Y0355226D03*
X0521355Y0355946D03*
X0521355Y0355961D03*
X0529320Y0357986D03*
X0529335Y0358017D03*
X0529350Y0358031D03*
X0529365Y0358046D03*
X0529380Y0358061D03*
X0529395Y0358076D03*
D293*
X0521107Y0355256D03*
X0521092Y0355241D03*
D294*
X0521115Y0355271D03*
X0521115Y0355286D03*
X0521130Y0355317D03*
X0521355Y0355931D03*
D295*
X0521130Y0355301D03*
D296*
X0529065Y0355301D03*
D297*
X0521137Y0355331D03*
D298*
X0521152Y0355346D03*
X0521167Y0355361D03*
D299*
X0521175Y0355376D03*
X0521190Y0355391D03*
X0521190Y0355406D03*
D300*
X0521332Y0356186D03*
X0520732Y0357731D03*
X0520582Y0361046D03*
X0528997Y0355421D03*
X0529012Y0355391D03*
D301*
X0521197Y0355421D03*
D302*
X0521205Y0355436D03*
X0521355Y0355917D03*
D303*
X0521362Y0355901D03*
X0521212Y0355451D03*
D304*
X0528982Y0355451D03*
D305*
X0521235Y0355481D03*
X0521220Y0355467D03*
D306*
X0521242Y0355496D03*
D307*
X0521250Y0355511D03*
X0521250Y0355526D03*
D308*
X0521257Y0355541D03*
X0521272Y0355571D03*
X0521362Y0355826D03*
X0521362Y0355841D03*
D309*
X0521370Y0355856D03*
X0521265Y0355556D03*
D310*
X0521280Y0355586D03*
X0521295Y0355617D03*
X0521310Y0355631D03*
X0521370Y0355796D03*
X0521370Y0355811D03*
D311*
X0521287Y0355601D03*
D312*
X0520642Y0357867D03*
X0528892Y0355631D03*
X0528892Y0355617D03*
D313*
X0521362Y0355736D03*
X0521362Y0355767D03*
X0521362Y0355781D03*
X0521347Y0355706D03*
X0521347Y0355691D03*
X0521332Y0355661D03*
X0521317Y0355646D03*
D314*
X0520687Y0361121D03*
X0520702Y0361136D03*
X0529237Y0357836D03*
X0528637Y0356231D03*
X0528802Y0355767D03*
X0528832Y0355721D03*
X0528847Y0355691D03*
X0528862Y0355676D03*
X0528862Y0355661D03*
D315*
X0521355Y0355721D03*
X0521340Y0355676D03*
D316*
X0521340Y0356067D03*
X0521340Y0356081D03*
X0520680Y0361106D03*
X0528645Y0356217D03*
X0528795Y0355781D03*
X0528825Y0355736D03*
X0528840Y0355706D03*
D317*
X0521362Y0355751D03*
D318*
X0528817Y0355751D03*
D319*
X0521362Y0355871D03*
X0521362Y0355886D03*
D320*
X0528742Y0355901D03*
D321*
X0528675Y0356006D03*
D322*
X0528667Y0356021D03*
X0528667Y0356036D03*
X0529417Y0358091D03*
D323*
X0521347Y0356051D03*
D324*
X0528660Y0356051D03*
D325*
X0521325Y0356201D03*
X0520755Y0357701D03*
D326*
X0528645Y0356201D03*
X0529245Y0357851D03*
D327*
X0528652Y0356336D03*
X0521332Y0356231D03*
X0521332Y0356217D03*
D328*
X0521317Y0356306D03*
X0521317Y0356321D03*
D329*
X0520740Y0357717D03*
X0520575Y0357911D03*
X0528645Y0356321D03*
X0529155Y0357671D03*
D330*
X0521317Y0356351D03*
D331*
X0528652Y0356351D03*
X0524947Y0365801D03*
D332*
X0528660Y0356486D03*
D333*
X0521302Y0356651D03*
D334*
X0521302Y0356667D03*
X0524947Y0365741D03*
D335*
X0520305Y0357986D03*
X0521040Y0357326D03*
X0521295Y0356681D03*
X0528660Y0356786D03*
X0528855Y0357311D03*
D336*
X0528780Y0361691D03*
X0521145Y0361691D03*
X0521070Y0357296D03*
X0521295Y0356711D03*
X0521295Y0356696D03*
D337*
X0521287Y0356726D03*
X0521077Y0357281D03*
X0528757Y0361706D03*
X0524947Y0365726D03*
D338*
X0521167Y0361736D03*
X0521287Y0356756D03*
X0521287Y0356741D03*
X0528667Y0356906D03*
X0528667Y0356921D03*
X0529447Y0361226D03*
D339*
X0528660Y0356936D03*
X0521295Y0356771D03*
D340*
X0528667Y0356771D03*
D341*
X0528667Y0356967D03*
X0529822Y0358226D03*
X0521287Y0356786D03*
X0520237Y0358017D03*
X0524947Y0365711D03*
D342*
X0521295Y0356801D03*
D343*
X0528667Y0356801D03*
D344*
X0528765Y0357236D03*
X0521295Y0356817D03*
X0521145Y0357236D03*
D345*
X0528660Y0356831D03*
X0528660Y0356817D03*
D346*
X0528667Y0356981D03*
X0528697Y0361767D03*
X0524947Y0365696D03*
X0520207Y0358031D03*
X0521302Y0356846D03*
X0521302Y0356831D03*
D347*
X0521152Y0361706D03*
X0528817Y0357267D03*
X0528667Y0356861D03*
X0528667Y0356846D03*
D348*
X0528675Y0356996D03*
X0528720Y0357191D03*
X0521295Y0356861D03*
X0521190Y0357191D03*
X0521175Y0357206D03*
X0521160Y0357221D03*
X0521220Y0361767D03*
D349*
X0520207Y0360941D03*
X0521302Y0356891D03*
X0521302Y0356876D03*
X0528667Y0357011D03*
X0528712Y0357176D03*
X0529507Y0361196D03*
X0528682Y0361781D03*
D350*
X0528660Y0356891D03*
X0528660Y0356876D03*
X0521160Y0361721D03*
X0520275Y0360956D03*
D351*
X0521205Y0357176D03*
X0521295Y0356921D03*
X0521295Y0356906D03*
D352*
X0521287Y0356936D03*
X0528667Y0357026D03*
X0528667Y0357041D03*
X0528697Y0357161D03*
X0529867Y0358241D03*
X0528667Y0361796D03*
X0524947Y0365681D03*
D353*
X0521295Y0356951D03*
D354*
X0521122Y0357251D03*
X0528667Y0356951D03*
D355*
X0528667Y0357056D03*
X0528667Y0357071D03*
X0528667Y0357086D03*
X0528667Y0357117D03*
X0528682Y0357146D03*
X0521287Y0356981D03*
X0521287Y0356967D03*
D356*
X0521287Y0356996D03*
X0521287Y0357011D03*
X0521257Y0357146D03*
X0520162Y0360926D03*
X0521287Y0361826D03*
D357*
X0521265Y0357131D03*
X0521280Y0357041D03*
X0521280Y0357026D03*
X0528600Y0361841D03*
X0524955Y0365667D03*
D358*
X0521272Y0357117D03*
X0521287Y0357071D03*
X0521287Y0357056D03*
D359*
X0521280Y0357086D03*
X0520125Y0360911D03*
D360*
X0521280Y0357101D03*
D361*
X0528667Y0357101D03*
D362*
X0528675Y0357131D03*
D363*
X0528622Y0361826D03*
X0521272Y0361811D03*
X0521257Y0361796D03*
X0520162Y0358046D03*
X0521227Y0357161D03*
D364*
X0528742Y0357206D03*
D365*
X0528750Y0357221D03*
X0529485Y0361211D03*
D366*
X0528787Y0357251D03*
D367*
X0529785Y0358211D03*
X0528750Y0361721D03*
X0521100Y0357267D03*
D368*
X0521062Y0357311D03*
X0521122Y0361676D03*
X0528787Y0361676D03*
X0529402Y0361241D03*
X0529762Y0358196D03*
X0528847Y0357296D03*
X0528832Y0357281D03*
D369*
X0528907Y0357356D03*
X0521062Y0361631D03*
D370*
X0520860Y0357551D03*
D371*
X0529057Y0357551D03*
D372*
X0529170Y0357686D03*
X0520815Y0361317D03*
D373*
X0529177Y0357701D03*
D374*
X0529192Y0357731D03*
D375*
X0520665Y0357851D03*
X0520710Y0361151D03*
D376*
X0520267Y0358001D03*
D377*
X0529327Y0358001D03*
D378*
X0520080Y0358061D03*
D379*
X0520020Y0358076D03*
X0530025Y0358271D03*
D380*
X0524955Y0365621D03*
X0519990Y0360867D03*
X0519975Y0358091D03*
D381*
X0519937Y0358106D03*
X0524947Y0365606D03*
D382*
X0529800Y0361106D03*
X0519915Y0358121D03*
D383*
X0519877Y0358136D03*
X0524947Y0365576D03*
X0529837Y0361091D03*
D384*
X0519825Y0358151D03*
D385*
X0519742Y0358167D03*
X0524947Y0365531D03*
D386*
X0519697Y0358181D03*
D387*
X0519660Y0358196D03*
X0528150Y0361991D03*
X0530100Y0361017D03*
D388*
X0519630Y0358211D03*
D389*
X0519607Y0358226D03*
D390*
X0519555Y0358241D03*
X0530205Y0360971D03*
X0530460Y0358406D03*
D391*
X0524940Y0365411D03*
X0519480Y0358256D03*
D392*
X0528562Y0361856D03*
X0529597Y0361167D03*
X0529942Y0358256D03*
D393*
X0524955Y0365381D03*
X0519165Y0360056D03*
X0519165Y0360041D03*
X0519165Y0360026D03*
X0519165Y0360011D03*
X0519165Y0359996D03*
X0519165Y0359981D03*
X0519150Y0359891D03*
X0519150Y0359876D03*
X0519150Y0359861D03*
X0519150Y0359111D03*
X0519150Y0359096D03*
X0519150Y0359081D03*
X0519150Y0359067D03*
X0519150Y0359036D03*
X0519150Y0359021D03*
X0519150Y0359006D03*
X0519150Y0358991D03*
X0519150Y0358976D03*
X0519420Y0358271D03*
D394*
X0519382Y0358286D03*
X0519172Y0358781D03*
X0519172Y0358796D03*
X0519172Y0358811D03*
X0519187Y0360176D03*
X0519187Y0360191D03*
X0519397Y0360686D03*
X0530707Y0360281D03*
X0530722Y0360236D03*
X0530737Y0358736D03*
X0530737Y0358721D03*
X0530677Y0358526D03*
X0530662Y0358511D03*
D395*
X0530085Y0358286D03*
D396*
X0519352Y0358301D03*
X0519202Y0360251D03*
D397*
X0530115Y0358301D03*
D398*
X0530700Y0358571D03*
X0530700Y0358586D03*
X0530715Y0358617D03*
X0530715Y0358631D03*
X0530715Y0358646D03*
X0530640Y0360521D03*
X0530415Y0360911D03*
X0519345Y0360656D03*
X0519345Y0358317D03*
D399*
X0530152Y0358317D03*
D400*
X0519322Y0358331D03*
X0519247Y0360476D03*
D401*
X0529882Y0361076D03*
X0530182Y0358331D03*
D402*
X0519315Y0358346D03*
X0519300Y0358361D03*
X0519255Y0360491D03*
X0519300Y0360581D03*
X0519315Y0360626D03*
X0519330Y0360641D03*
D403*
X0530235Y0358346D03*
D404*
X0530317Y0358361D03*
X0530017Y0361046D03*
D405*
X0519307Y0360611D03*
X0519307Y0360596D03*
X0519292Y0360567D03*
X0519277Y0360536D03*
X0519277Y0360521D03*
X0519262Y0360506D03*
X0519292Y0358376D03*
D406*
X0530385Y0358376D03*
D407*
X0519285Y0358391D03*
X0519270Y0358406D03*
X0519270Y0358421D03*
D408*
X0530430Y0358391D03*
D409*
X0530497Y0358421D03*
D410*
X0530595Y0360671D03*
X0530460Y0360881D03*
X0519255Y0358436D03*
D411*
X0530542Y0358436D03*
D412*
X0519247Y0358451D03*
D413*
X0530602Y0358451D03*
X0530797Y0359651D03*
X0530782Y0359801D03*
D414*
X0530617Y0360596D03*
X0530617Y0360611D03*
X0530602Y0360641D03*
X0530602Y0360656D03*
X0519247Y0358467D03*
X0519232Y0358481D03*
D415*
X0530632Y0358467D03*
X0530752Y0358796D03*
X0530752Y0358811D03*
X0530752Y0358826D03*
X0530767Y0358871D03*
X0530767Y0358886D03*
X0530767Y0358917D03*
X0530767Y0358931D03*
X0530767Y0358946D03*
X0530752Y0360086D03*
X0530752Y0360117D03*
X0530752Y0360131D03*
D416*
X0530737Y0360161D03*
X0530737Y0360176D03*
X0530737Y0360191D03*
X0530647Y0358481D03*
X0519157Y0358886D03*
X0519157Y0358917D03*
X0519157Y0358931D03*
X0519157Y0358946D03*
X0519157Y0358961D03*
X0519172Y0360071D03*
X0519172Y0360086D03*
X0519172Y0360117D03*
X0519172Y0360131D03*
D417*
X0519240Y0360461D03*
X0519225Y0358526D03*
X0519225Y0358511D03*
X0519225Y0358496D03*
X0530445Y0360896D03*
X0530610Y0360626D03*
X0530625Y0360581D03*
X0530625Y0360567D03*
D418*
X0530730Y0360221D03*
X0530730Y0360206D03*
X0530745Y0358781D03*
X0530745Y0358767D03*
X0530655Y0358496D03*
X0519165Y0358826D03*
X0519165Y0358841D03*
X0519165Y0358856D03*
X0519165Y0358871D03*
X0519180Y0360146D03*
X0519180Y0360161D03*
D419*
X0519232Y0360431D03*
X0519232Y0360446D03*
X0519217Y0358586D03*
X0519217Y0358571D03*
X0519217Y0358556D03*
X0519217Y0358541D03*
X0530632Y0360536D03*
D420*
X0530670Y0360461D03*
X0530670Y0360446D03*
X0530670Y0360431D03*
X0530685Y0360417D03*
X0530685Y0360386D03*
X0530685Y0360371D03*
X0530685Y0360356D03*
X0530700Y0360341D03*
X0530700Y0360326D03*
X0530700Y0360311D03*
X0530700Y0360296D03*
X0530715Y0360267D03*
X0530385Y0360926D03*
X0530730Y0358706D03*
X0530730Y0358691D03*
X0530685Y0358541D03*
X0519195Y0358721D03*
X0519180Y0358767D03*
X0519195Y0360206D03*
X0519195Y0360221D03*
X0519210Y0360267D03*
X0519375Y0360671D03*
D421*
X0519202Y0360236D03*
X0519187Y0358736D03*
X0519202Y0358706D03*
X0519202Y0358691D03*
X0519202Y0358676D03*
X0530692Y0358556D03*
X0530722Y0358661D03*
X0530722Y0358676D03*
X0530662Y0360476D03*
X0530662Y0360491D03*
X0530647Y0360506D03*
D422*
X0530632Y0360551D03*
X0519217Y0358601D03*
D423*
X0530715Y0358601D03*
D424*
X0519210Y0358617D03*
X0519210Y0358631D03*
X0519210Y0358646D03*
X0519210Y0358661D03*
X0519225Y0360356D03*
X0519225Y0360371D03*
X0519225Y0360386D03*
X0519225Y0360417D03*
D425*
X0519180Y0358751D03*
X0530685Y0360401D03*
D426*
X0530745Y0358751D03*
X0519420Y0360701D03*
D427*
X0530760Y0358856D03*
X0530760Y0358841D03*
D428*
X0519157Y0358901D03*
X0519172Y0360101D03*
D429*
X0530752Y0360101D03*
X0530767Y0358901D03*
D430*
X0530775Y0358961D03*
X0530775Y0358976D03*
X0530775Y0358991D03*
X0530775Y0359006D03*
X0530775Y0359021D03*
X0530760Y0360011D03*
X0530760Y0360026D03*
X0530760Y0360041D03*
X0530760Y0360056D03*
X0530760Y0360071D03*
X0530745Y0360146D03*
D431*
X0530767Y0359996D03*
X0530767Y0359981D03*
X0530767Y0359967D03*
X0530767Y0359936D03*
X0530767Y0359921D03*
X0530782Y0359126D03*
X0530782Y0359111D03*
X0530782Y0359096D03*
X0530782Y0359081D03*
X0530782Y0359067D03*
X0530782Y0359036D03*
X0530347Y0360941D03*
D432*
X0519150Y0359051D03*
D433*
X0530782Y0359051D03*
X0530767Y0359951D03*
D434*
X0519442Y0360717D03*
X0519157Y0359967D03*
X0519157Y0359936D03*
X0519157Y0359921D03*
X0519157Y0359906D03*
X0519142Y0359846D03*
X0519142Y0359831D03*
X0519142Y0359817D03*
X0519142Y0359786D03*
X0519142Y0359771D03*
X0519142Y0359756D03*
X0519142Y0359741D03*
X0519142Y0359217D03*
X0519142Y0359186D03*
X0519142Y0359171D03*
X0519142Y0359156D03*
X0519142Y0359141D03*
X0519142Y0359126D03*
D435*
X0530790Y0359141D03*
X0530790Y0359156D03*
X0530790Y0359171D03*
X0530790Y0359186D03*
X0530790Y0359217D03*
X0530790Y0359726D03*
X0530790Y0359741D03*
X0530790Y0359756D03*
X0530775Y0359817D03*
X0530775Y0359831D03*
X0530775Y0359846D03*
X0530775Y0359861D03*
X0530775Y0359876D03*
X0530775Y0359891D03*
X0530775Y0359906D03*
D436*
X0519157Y0359951D03*
X0519142Y0359801D03*
X0519142Y0359201D03*
D437*
X0530790Y0359201D03*
D438*
X0519135Y0359231D03*
X0519135Y0359246D03*
X0519135Y0359261D03*
X0519135Y0359276D03*
X0519135Y0359291D03*
X0519135Y0359306D03*
X0519120Y0359321D03*
X0519120Y0359336D03*
X0519120Y0359367D03*
X0519120Y0359381D03*
X0519120Y0359396D03*
X0519120Y0359411D03*
X0519135Y0359636D03*
X0519135Y0359667D03*
X0519135Y0359681D03*
X0519135Y0359696D03*
X0519135Y0359711D03*
X0519135Y0359726D03*
D439*
X0519112Y0359456D03*
X0519112Y0359441D03*
X0519112Y0359426D03*
X0530782Y0359771D03*
X0530782Y0359786D03*
X0530797Y0359711D03*
X0530797Y0359696D03*
X0530797Y0359681D03*
X0530797Y0359667D03*
X0530797Y0359636D03*
X0530797Y0359621D03*
X0530797Y0359321D03*
X0530797Y0359306D03*
X0530797Y0359291D03*
X0530797Y0359276D03*
X0530797Y0359261D03*
X0530797Y0359246D03*
X0530797Y0359231D03*
D440*
X0530805Y0359336D03*
X0530805Y0359367D03*
X0530805Y0359381D03*
X0530805Y0359396D03*
X0530805Y0359411D03*
X0530805Y0359426D03*
X0530805Y0359441D03*
X0530805Y0359456D03*
X0530805Y0359471D03*
X0530805Y0359486D03*
X0530805Y0359517D03*
X0530805Y0359531D03*
X0530805Y0359546D03*
X0530805Y0359561D03*
X0530805Y0359576D03*
X0530805Y0359591D03*
X0530805Y0359606D03*
X0519480Y0360731D03*
X0519120Y0359531D03*
X0519120Y0359517D03*
X0519120Y0359486D03*
X0519120Y0359471D03*
D441*
X0519120Y0359351D03*
X0519135Y0359651D03*
D442*
X0519120Y0359501D03*
X0530805Y0359501D03*
X0530805Y0359351D03*
D443*
X0519127Y0359546D03*
X0519127Y0359561D03*
X0519127Y0359576D03*
X0519127Y0359591D03*
X0519127Y0359606D03*
X0519127Y0359621D03*
D444*
X0530722Y0360251D03*
D445*
X0519217Y0360281D03*
X0519217Y0360296D03*
X0519217Y0360311D03*
X0519217Y0360326D03*
X0519217Y0360341D03*
D446*
X0519225Y0360401D03*
D447*
X0519292Y0360551D03*
D448*
X0530482Y0360867D03*
X0530587Y0360686D03*
D449*
X0530587Y0360701D03*
X0530497Y0360851D03*
D450*
X0530520Y0360836D03*
X0530565Y0360746D03*
X0530580Y0360717D03*
D451*
X0530572Y0360731D03*
X0530557Y0360761D03*
X0530557Y0360776D03*
D452*
X0524947Y0365426D03*
X0519532Y0360746D03*
D453*
X0519607Y0360761D03*
X0524947Y0365456D03*
D454*
X0524947Y0365486D03*
X0530062Y0361031D03*
X0519682Y0360776D03*
D455*
X0519727Y0360791D03*
D456*
X0530535Y0360821D03*
X0530550Y0360791D03*
D457*
X0519765Y0360806D03*
D458*
X0530542Y0360806D03*
D459*
X0519795Y0360821D03*
D460*
X0519832Y0360836D03*
D461*
X0519900Y0360851D03*
D462*
X0520050Y0360881D03*
D463*
X0520102Y0360896D03*
D464*
X0530287Y0360956D03*
D465*
X0520365Y0360971D03*
D466*
X0530160Y0360986D03*
D467*
X0520462Y0361001D03*
D468*
X0530130Y0361001D03*
D469*
X0529942Y0361061D03*
D470*
X0529770Y0361121D03*
X0528405Y0361946D03*
X0521505Y0361946D03*
D471*
X0529732Y0361136D03*
D472*
X0529672Y0361151D03*
D473*
X0529545Y0361181D03*
X0528645Y0361811D03*
D474*
X0520800Y0361301D03*
D475*
X0520867Y0361391D03*
D476*
X0521040Y0361601D03*
D477*
X0528742Y0361736D03*
D478*
X0521190Y0361751D03*
D479*
X0528727Y0361751D03*
D480*
X0521235Y0361781D03*
D481*
X0521317Y0361841D03*
D482*
X0521347Y0361856D03*
D483*
X0521385Y0361871D03*
D484*
X0528510Y0361871D03*
D485*
X0521415Y0361886D03*
D486*
X0528487Y0361886D03*
D487*
X0521430Y0361901D03*
D488*
X0528472Y0361901D03*
D489*
X0524947Y0365636D03*
X0521452Y0361917D03*
D490*
X0528450Y0361917D03*
D491*
X0521467Y0361931D03*
D492*
X0528435Y0361931D03*
D493*
X0528315Y0361961D03*
X0521595Y0361961D03*
D494*
X0521662Y0361976D03*
D495*
X0528210Y0361976D03*
D496*
X0521715Y0361991D03*
D497*
X0524955Y0362006D03*
D498*
X0524947Y0362021D03*
D499*
X0524955Y0362036D03*
X0524925Y0363836D03*
D500*
X0524955Y0362051D03*
D501*
X0524947Y0362067D03*
D502*
X0524947Y0362081D03*
X0524917Y0363806D03*
D503*
X0524925Y0363791D03*
X0524940Y0362096D03*
D504*
X0524947Y0362111D03*
X0524917Y0363776D03*
D505*
X0524947Y0362141D03*
X0524947Y0362126D03*
D506*
X0524955Y0362156D03*
X0524925Y0363746D03*
D507*
X0524947Y0362171D03*
D508*
X0524955Y0362186D03*
X0524955Y0362217D03*
D509*
X0524955Y0362201D03*
D510*
X0524955Y0362231D03*
X0524955Y0362246D03*
X0524955Y0362261D03*
D511*
X0524955Y0362276D03*
X0524925Y0363686D03*
D512*
X0524947Y0362291D03*
D513*
X0524955Y0362306D03*
D514*
X0524955Y0362321D03*
D515*
X0524947Y0362336D03*
X0524917Y0363626D03*
D516*
X0524955Y0362351D03*
D517*
X0524955Y0362367D03*
X0524955Y0362381D03*
X0524925Y0363596D03*
D518*
X0524925Y0363581D03*
X0524955Y0362426D03*
X0524955Y0362411D03*
X0524955Y0362396D03*
D519*
X0524947Y0362441D03*
X0524917Y0363567D03*
D520*
X0524955Y0362456D03*
D521*
X0524947Y0362471D03*
D522*
X0524955Y0362486D03*
D523*
X0524947Y0362501D03*
D524*
X0524947Y0362517D03*
X0524947Y0362531D03*
D525*
X0524947Y0362546D03*
D526*
X0524955Y0362561D03*
D527*
X0524947Y0362576D03*
D528*
X0524955Y0362591D03*
X0524955Y0362606D03*
D529*
X0524955Y0362621D03*
X0524955Y0362636D03*
D530*
X0524947Y0362651D03*
D531*
X0524955Y0362667D03*
D532*
X0524947Y0362681D03*
X0524917Y0363417D03*
D533*
X0524917Y0363386D03*
X0524947Y0362696D03*
D534*
X0524940Y0362711D03*
X0524910Y0363371D03*
D535*
X0524917Y0363356D03*
X0524947Y0362726D03*
D536*
X0524947Y0362741D03*
X0524917Y0363326D03*
D537*
X0524955Y0362756D03*
D538*
X0524947Y0362771D03*
X0524917Y0363311D03*
D539*
X0524955Y0362786D03*
D540*
X0524955Y0362801D03*
D541*
X0524955Y0362817D03*
X0524955Y0362831D03*
D542*
X0524955Y0362846D03*
X0524910Y0363267D03*
D543*
X0524947Y0362861D03*
D544*
X0524947Y0362876D03*
D545*
X0524947Y0362891D03*
D546*
X0524955Y0362906D03*
X0524910Y0363191D03*
D547*
X0524917Y0363176D03*
X0524947Y0362921D03*
D548*
X0524955Y0362936D03*
D549*
X0524955Y0362951D03*
D550*
X0524955Y0362967D03*
D551*
X0524947Y0362981D03*
X0524947Y0362996D03*
D552*
X0524947Y0363011D03*
X0524947Y0363026D03*
X0524917Y0363131D03*
D553*
X0524910Y0363117D03*
X0524925Y0363071D03*
X0524925Y0363056D03*
X0524940Y0363041D03*
D554*
X0524917Y0363086D03*
D555*
X0524917Y0363101D03*
D556*
X0524910Y0363146D03*
D557*
X0524917Y0363161D03*
D558*
X0524910Y0363206D03*
X0524910Y0363221D03*
D559*
X0524910Y0363236D03*
D560*
X0524910Y0363251D03*
D561*
X0524910Y0363281D03*
D562*
X0524917Y0363296D03*
D563*
X0524910Y0363341D03*
D564*
X0524917Y0363401D03*
D565*
X0524917Y0363431D03*
D566*
X0524917Y0363446D03*
D567*
X0524917Y0363461D03*
D568*
X0524917Y0363476D03*
D569*
X0524910Y0363491D03*
D570*
X0524917Y0363506D03*
D571*
X0524910Y0363521D03*
D572*
X0524917Y0363536D03*
D573*
X0524917Y0363551D03*
D574*
X0524925Y0363611D03*
D575*
X0524925Y0363641D03*
D576*
X0524917Y0363656D03*
D577*
X0524917Y0363671D03*
D578*
X0524925Y0363701D03*
D579*
X0524925Y0363717D03*
D580*
X0524925Y0363731D03*
D581*
X0524925Y0363761D03*
D582*
X0524925Y0363821D03*
D583*
X0524932Y0363851D03*
D584*
X0524932Y0363867D03*
D585*
X0524932Y0363881D03*
D586*
X0524925Y0363896D03*
D587*
X0524925Y0363911D03*
D588*
X0524917Y0363926D03*
D589*
X0524925Y0363941D03*
D590*
X0524925Y0363956D03*
D591*
X0524932Y0363971D03*
D592*
X0524932Y0363986D03*
D593*
X0524940Y0364001D03*
D594*
X0524932Y0364017D03*
D595*
X0524932Y0364031D03*
D596*
X0524925Y0364046D03*
D597*
X0524925Y0364061D03*
D598*
X0524932Y0364076D03*
D599*
X0524925Y0364091D03*
D600*
X0524932Y0364106D03*
D601*
X0524932Y0364121D03*
D602*
X0524940Y0364136D03*
D603*
X0524940Y0364151D03*
D604*
X0524932Y0364167D03*
D605*
X0524932Y0364181D03*
D606*
X0524925Y0364196D03*
D607*
X0524925Y0364211D03*
X0524925Y0364226D03*
D608*
X0524925Y0364241D03*
D609*
X0524940Y0364256D03*
D610*
X0524940Y0364271D03*
X0524940Y0364286D03*
D611*
X0524940Y0364301D03*
D612*
X0524940Y0364317D03*
D613*
X0524932Y0364331D03*
D614*
X0524932Y0364346D03*
X0524932Y0364361D03*
D615*
X0524932Y0364376D03*
D616*
X0524932Y0364391D03*
D617*
X0524940Y0364406D03*
D618*
X0524940Y0364421D03*
X0524940Y0364436D03*
D619*
X0524940Y0364451D03*
D620*
X0524940Y0364467D03*
D621*
X0524932Y0364481D03*
D622*
X0524932Y0364496D03*
X0524932Y0364511D03*
D623*
X0524932Y0364526D03*
D624*
X0524940Y0364541D03*
D625*
X0524940Y0364556D03*
D626*
X0524947Y0364571D03*
D627*
X0524947Y0364586D03*
D628*
X0524940Y0364601D03*
D629*
X0524940Y0364617D03*
D630*
X0524932Y0364631D03*
D631*
X0524940Y0364646D03*
D632*
X0524940Y0364661D03*
D633*
X0524940Y0364676D03*
D634*
X0524947Y0364691D03*
D635*
X0524947Y0364706D03*
X0524947Y0364721D03*
D636*
X0524947Y0364736D03*
D637*
X0524940Y0364751D03*
D638*
X0524940Y0364767D03*
D639*
X0524940Y0364781D03*
D640*
X0524947Y0364796D03*
D641*
X0524947Y0364811D03*
X0524962Y0365291D03*
D642*
X0524955Y0364826D03*
D643*
X0524947Y0364841D03*
X0524962Y0365276D03*
D644*
X0524947Y0364871D03*
X0524947Y0364856D03*
D645*
X0524947Y0364886D03*
D646*
X0524940Y0364901D03*
D647*
X0524940Y0364917D03*
D648*
X0524947Y0364931D03*
D649*
X0524940Y0364946D03*
X0524955Y0365186D03*
D650*
X0524947Y0364961D03*
D651*
X0524947Y0364976D03*
X0524962Y0365156D03*
D652*
X0524955Y0365141D03*
X0524955Y0365126D03*
X0524955Y0365036D03*
X0524955Y0365021D03*
X0524955Y0365006D03*
X0524955Y0364991D03*
D653*
X0524962Y0365051D03*
D654*
X0524962Y0365067D03*
X0524962Y0365081D03*
X0524962Y0365096D03*
X0524962Y0365111D03*
D655*
X0524955Y0365171D03*
D656*
X0524962Y0365201D03*
D657*
X0524962Y0365217D03*
D658*
X0524955Y0365231D03*
D659*
X0524955Y0365246D03*
D660*
X0524955Y0365261D03*
D661*
X0524955Y0365306D03*
D662*
X0524955Y0365321D03*
D663*
X0530137Y0365426D03*
X0519697Y0365336D03*
D664*
X0526725Y0365336D03*
D665*
X0519690Y0365351D03*
D666*
X0526732Y0365351D03*
D667*
X0519682Y0365367D03*
D668*
X0526747Y0365367D03*
D669*
X0530115Y0365381D03*
D670*
X0524940Y0365396D03*
D671*
X0530137Y0365396D03*
D672*
X0530160Y0365517D03*
X0524940Y0366117D03*
X0519675Y0365411D03*
D673*
X0530137Y0365411D03*
D674*
X0519675Y0365441D03*
D675*
X0524940Y0365441D03*
D676*
X0530137Y0365441D03*
D677*
X0519667Y0365456D03*
D678*
X0530145Y0365456D03*
D679*
X0519660Y0365471D03*
D680*
X0524947Y0365471D03*
D681*
X0530152Y0365471D03*
D682*
X0530175Y0365576D03*
X0519660Y0365486D03*
D683*
X0519652Y0365501D03*
X0524947Y0366701D03*
D684*
X0524947Y0365501D03*
D685*
X0524940Y0366101D03*
X0530160Y0365501D03*
D686*
X0524940Y0365517D03*
D687*
X0524940Y0366911D03*
X0524940Y0366926D03*
X0524940Y0366941D03*
X0530190Y0365636D03*
X0519645Y0365546D03*
D688*
X0524947Y0365546D03*
D689*
X0524932Y0366267D03*
X0524932Y0366281D03*
X0524932Y0366296D03*
X0524932Y0366311D03*
X0524932Y0366326D03*
X0530167Y0365546D03*
D690*
X0524947Y0367031D03*
X0524947Y0367046D03*
X0524947Y0367061D03*
X0519637Y0365561D03*
D691*
X0524947Y0365561D03*
D692*
X0530167Y0365561D03*
D693*
X0524955Y0367331D03*
X0524955Y0367346D03*
X0524955Y0367361D03*
X0519630Y0365591D03*
D694*
X0524947Y0365591D03*
D695*
X0524940Y0366791D03*
X0524940Y0366806D03*
X0524940Y0366821D03*
X0530190Y0365606D03*
D696*
X0530212Y0365696D03*
X0524947Y0367436D03*
X0519622Y0365621D03*
D697*
X0519615Y0365651D03*
X0524955Y0367601D03*
D698*
X0524947Y0365651D03*
D699*
X0530197Y0365651D03*
D700*
X0519615Y0365681D03*
D701*
X0519607Y0365711D03*
X0524962Y0368036D03*
X0524962Y0368067D03*
D702*
X0524962Y0368096D03*
X0524962Y0368111D03*
X0524962Y0368126D03*
X0519607Y0365726D03*
D703*
X0530220Y0365726D03*
D704*
X0524970Y0368231D03*
X0519600Y0365741D03*
D705*
X0524955Y0367586D03*
X0524955Y0367617D03*
X0524955Y0367631D03*
X0530220Y0365741D03*
D706*
X0524962Y0368367D03*
X0519592Y0365756D03*
D707*
X0524962Y0367796D03*
X0524962Y0367811D03*
X0524962Y0367826D03*
X0524962Y0367841D03*
X0524962Y0367856D03*
X0530227Y0365756D03*
D708*
X0519592Y0365771D03*
D709*
X0519585Y0365786D03*
X0524970Y0368426D03*
D710*
X0519585Y0365801D03*
D711*
X0530242Y0365801D03*
D712*
X0530265Y0365891D03*
X0519585Y0365817D03*
D713*
X0519577Y0365831D03*
X0524962Y0368456D03*
D714*
X0524962Y0368336D03*
X0524962Y0368321D03*
X0524962Y0368306D03*
X0524962Y0368291D03*
X0524962Y0368276D03*
X0524962Y0368261D03*
X0524962Y0368246D03*
X0530242Y0365831D03*
D715*
X0530265Y0365921D03*
X0524970Y0368471D03*
X0519570Y0365846D03*
D716*
X0524970Y0368381D03*
X0524970Y0368396D03*
X0530250Y0365846D03*
D717*
X0524955Y0365861D03*
D718*
X0519570Y0365876D03*
D719*
X0524955Y0365876D03*
D720*
X0524970Y0368441D03*
X0530265Y0365876D03*
D721*
X0519562Y0365891D03*
D722*
X0524947Y0365891D03*
D723*
X0524955Y0365906D03*
D724*
X0530265Y0365906D03*
D725*
X0524985Y0368517D03*
X0519555Y0365921D03*
D726*
X0524955Y0365921D03*
D727*
X0524955Y0365936D03*
D728*
X0530272Y0365936D03*
D729*
X0519555Y0365951D03*
D730*
X0524947Y0365951D03*
D731*
X0530280Y0365951D03*
D732*
X0524962Y0365967D03*
D733*
X0530287Y0365967D03*
D734*
X0524962Y0365981D03*
D735*
X0524962Y0365996D03*
D736*
X0519540Y0366011D03*
D737*
X0524962Y0366011D03*
D738*
X0530287Y0366011D03*
D739*
X0530310Y0366086D03*
X0519540Y0366026D03*
D740*
X0524962Y0366026D03*
D741*
X0519532Y0366041D03*
D742*
X0524955Y0366041D03*
D743*
X0519532Y0366071D03*
D744*
X0524947Y0366071D03*
D745*
X0530302Y0366071D03*
D746*
X0519525Y0366086D03*
D747*
X0519525Y0366101D03*
D748*
X0519525Y0366117D03*
D749*
X0519525Y0366131D03*
X0530325Y0366191D03*
D750*
X0530310Y0366131D03*
D751*
X0530325Y0366206D03*
X0519525Y0366146D03*
D752*
X0524940Y0366146D03*
X0524940Y0366161D03*
X0524940Y0366176D03*
D753*
X0530310Y0366146D03*
D754*
X0530317Y0366161D03*
D755*
X0519517Y0366176D03*
D756*
X0530317Y0366176D03*
D757*
X0519510Y0366191D03*
D758*
X0519517Y0366206D03*
X0530332Y0366267D03*
D759*
X0519517Y0366221D03*
D760*
X0519517Y0366236D03*
D761*
X0519510Y0366251D03*
D762*
X0524925Y0366251D03*
D763*
X0530332Y0366251D03*
D764*
X0519502Y0366281D03*
D765*
X0530340Y0366311D03*
D766*
X0519495Y0366326D03*
D767*
X0530340Y0366326D03*
D768*
X0524940Y0366341D03*
D769*
X0519487Y0366371D03*
D770*
X0524940Y0366386D03*
X0524940Y0366417D03*
D771*
X0519487Y0366401D03*
D772*
X0524940Y0366401D03*
D773*
X0530355Y0366401D03*
D774*
X0519487Y0366446D03*
D775*
X0530362Y0366461D03*
D776*
X0519480Y0366476D03*
D777*
X0530370Y0366476D03*
D778*
X0519480Y0366536D03*
D779*
X0519472Y0366551D03*
D780*
X0524947Y0366551D03*
D781*
X0530370Y0366551D03*
D782*
X0530377Y0366567D03*
D783*
X0519465Y0366581D03*
D784*
X0530377Y0366581D03*
D785*
X0530385Y0366656D03*
X0519465Y0366596D03*
D786*
X0530377Y0366596D03*
D787*
X0519465Y0366611D03*
D788*
X0530377Y0366611D03*
D789*
X0524947Y0366641D03*
X0524947Y0366656D03*
X0524947Y0366671D03*
X0524947Y0366686D03*
X0524947Y0366717D03*
D790*
X0530385Y0366641D03*
D791*
X0530392Y0366717D03*
X0519457Y0366656D03*
D792*
X0530392Y0366671D03*
D793*
X0530392Y0366701D03*
D794*
X0524940Y0366731D03*
D795*
X0530400Y0366731D03*
D796*
X0530422Y0366746D03*
D797*
X0524940Y0366851D03*
D798*
X0524947Y0366956D03*
X0524947Y0366971D03*
X0524947Y0366986D03*
D799*
X0524955Y0367001D03*
D800*
X0524955Y0367017D03*
D801*
X0524955Y0367076D03*
X0524955Y0367091D03*
X0524955Y0367106D03*
X0524955Y0367121D03*
X0524955Y0367136D03*
X0524955Y0367167D03*
X0524955Y0367181D03*
D802*
X0524955Y0367151D03*
D803*
X0524947Y0367317D03*
D804*
X0524947Y0367451D03*
D805*
X0524947Y0367496D03*
D806*
X0524955Y0367511D03*
X0524955Y0367526D03*
X0524955Y0367541D03*
X0524955Y0367556D03*
D807*
X0524962Y0367901D03*
D808*
X0524955Y0367961D03*
D809*
X0524970Y0368021D03*
D810*
X0524962Y0368051D03*
D811*
X0524962Y0368201D03*
D812*
X0524962Y0368351D03*
D813*
X0524977Y0368501D03*
D814*
X0524887Y0368546D03*
D815*
X0571573Y0129790D02*
X0573508Y0127855D01*
X0573024Y0128338D02*
X0574475Y0129790D01*
X0574475Y0127855D02*
X0571573Y0127855D01*
X0571573Y0124908D02*
X0574475Y0124908D01*
X0574475Y0126843D01*
X0573992Y0123897D02*
X0574475Y0123413D01*
X0574475Y0122445D01*
X0573992Y0121962D01*
X0572057Y0121962D01*
X0571573Y0122445D01*
X0571573Y0123413D01*
X0572057Y0123897D01*
X0571573Y0120950D02*
X0574475Y0120950D01*
X0573508Y0119983D01*
X0574475Y0119015D01*
X0571573Y0119015D01*
X0572057Y0118004D02*
X0571573Y0117520D01*
X0571573Y0116552D01*
X0572057Y0116069D01*
X0572540Y0116069D01*
X0573024Y0116552D01*
X0573024Y0117520D01*
X0573508Y0118004D01*
X0573992Y0118004D01*
X0574475Y0117520D01*
X0574475Y0116552D01*
X0573992Y0116069D01*
X0576373Y0116552D02*
X0576857Y0116069D01*
X0578792Y0116069D01*
X0579275Y0116552D01*
X0579275Y0117520D01*
X0578792Y0118004D01*
X0577824Y0118004D01*
X0577824Y0117036D01*
X0576857Y0118004D02*
X0576373Y0117520D01*
X0576373Y0116552D01*
X0577340Y0119015D02*
X0577340Y0120466D01*
X0577824Y0120950D01*
X0579275Y0120950D01*
X0578792Y0121962D02*
X0577824Y0121962D01*
X0577340Y0122445D01*
X0577340Y0123897D01*
X0576373Y0123897D02*
X0579275Y0123897D01*
X0579275Y0122445D01*
X0578792Y0121962D01*
X0581173Y0121962D02*
X0581173Y0123413D01*
X0581657Y0123897D01*
X0583592Y0123897D01*
X0584075Y0123413D01*
X0584075Y0121962D01*
X0581173Y0121962D01*
X0581173Y0120950D02*
X0584075Y0120950D01*
X0583108Y0119983D01*
X0584075Y0119015D01*
X0581173Y0119015D01*
X0581657Y0118004D02*
X0581173Y0117520D01*
X0581173Y0116552D01*
X0581657Y0116069D01*
X0582140Y0116069D01*
X0582624Y0116552D01*
X0582624Y0117520D01*
X0583108Y0118004D01*
X0583592Y0118004D01*
X0584075Y0117520D01*
X0584075Y0116552D01*
X0583592Y0116069D01*
X0582624Y0112111D02*
X0582624Y0110176D01*
X0581173Y0111627D01*
X0584075Y0111627D01*
X0579275Y0111627D02*
X0579275Y0110659D01*
X0578792Y0110176D01*
X0577824Y0111143D02*
X0577824Y0111627D01*
X0578308Y0112111D01*
X0578792Y0112111D01*
X0579275Y0111627D01*
X0577824Y0111627D02*
X0577340Y0112111D01*
X0576857Y0112111D01*
X0576373Y0111627D01*
X0576373Y0110659D01*
X0576857Y0110176D01*
X0574475Y0110176D02*
X0572540Y0112111D01*
X0572057Y0112111D01*
X0571573Y0111627D01*
X0571573Y0110659D01*
X0572057Y0110176D01*
X0574475Y0110176D02*
X0574475Y0112111D01*
X0577340Y0119015D02*
X0579275Y0119015D01*
X0581173Y0124908D02*
X0581173Y0125876D01*
X0581173Y0125392D02*
X0584075Y0125392D01*
X0584075Y0124908D02*
X0584075Y0125876D01*
X0583592Y0126873D02*
X0584075Y0127356D01*
X0584075Y0128324D01*
X0583592Y0128808D01*
X0581657Y0128808D01*
X0581173Y0128324D01*
X0581173Y0127356D01*
X0581657Y0126873D01*
X0583592Y0126873D01*
D816*
X0586638Y0124065D02*
X0586640Y0124137D01*
X0586646Y0124208D01*
X0586656Y0124279D01*
X0586669Y0124349D01*
X0586687Y0124419D01*
X0586708Y0124487D01*
X0586734Y0124554D01*
X0586762Y0124620D01*
X0586795Y0124684D01*
X0586831Y0124746D01*
X0586870Y0124806D01*
X0586912Y0124863D01*
X0586958Y0124919D01*
X0587006Y0124971D01*
X0587058Y0125021D01*
X0587112Y0125068D01*
X0587168Y0125112D01*
X0587227Y0125153D01*
X0587288Y0125191D01*
X0587351Y0125225D01*
X0587416Y0125256D01*
X0587482Y0125282D01*
X0587550Y0125306D01*
X0587619Y0125325D01*
X0587689Y0125341D01*
X0587759Y0125353D01*
X0587831Y0125361D01*
X0587902Y0125365D01*
X0587974Y0125365D01*
X0588045Y0125361D01*
X0588117Y0125353D01*
X0588187Y0125341D01*
X0588257Y0125325D01*
X0588326Y0125306D01*
X0588394Y0125282D01*
X0588460Y0125256D01*
X0588525Y0125225D01*
X0588588Y0125191D01*
X0588649Y0125153D01*
X0588708Y0125112D01*
X0588764Y0125068D01*
X0588818Y0125021D01*
X0588870Y0124971D01*
X0588918Y0124919D01*
X0588964Y0124863D01*
X0589006Y0124806D01*
X0589045Y0124746D01*
X0589081Y0124684D01*
X0589114Y0124620D01*
X0589142Y0124554D01*
X0589168Y0124487D01*
X0589189Y0124419D01*
X0589207Y0124349D01*
X0589220Y0124279D01*
X0589230Y0124208D01*
X0589236Y0124137D01*
X0589238Y0124065D01*
X0589236Y0123993D01*
X0589230Y0123922D01*
X0589220Y0123851D01*
X0589207Y0123781D01*
X0589189Y0123711D01*
X0589168Y0123643D01*
X0589142Y0123576D01*
X0589114Y0123510D01*
X0589081Y0123446D01*
X0589045Y0123384D01*
X0589006Y0123324D01*
X0588964Y0123267D01*
X0588918Y0123211D01*
X0588870Y0123159D01*
X0588818Y0123109D01*
X0588764Y0123062D01*
X0588708Y0123018D01*
X0588649Y0122977D01*
X0588588Y0122939D01*
X0588525Y0122905D01*
X0588460Y0122874D01*
X0588394Y0122848D01*
X0588326Y0122824D01*
X0588257Y0122805D01*
X0588187Y0122789D01*
X0588117Y0122777D01*
X0588045Y0122769D01*
X0587974Y0122765D01*
X0587902Y0122765D01*
X0587831Y0122769D01*
X0587759Y0122777D01*
X0587689Y0122789D01*
X0587619Y0122805D01*
X0587550Y0122824D01*
X0587482Y0122848D01*
X0587416Y0122874D01*
X0587351Y0122905D01*
X0587288Y0122939D01*
X0587227Y0122977D01*
X0587168Y0123018D01*
X0587112Y0123062D01*
X0587058Y0123109D01*
X0587006Y0123159D01*
X0586958Y0123211D01*
X0586912Y0123267D01*
X0586870Y0123324D01*
X0586831Y0123384D01*
X0586795Y0123446D01*
X0586762Y0123510D01*
X0586734Y0123576D01*
X0586708Y0123643D01*
X0586687Y0123711D01*
X0586669Y0123781D01*
X0586656Y0123851D01*
X0586646Y0123922D01*
X0586640Y0123993D01*
X0586638Y0124065D01*
D817*
X0520657Y0109565D02*
X0518255Y0109565D01*
X0519456Y0109565D02*
X0519456Y0113168D01*
X0518255Y0111967D01*
X0516973Y0112568D02*
X0516373Y0113168D01*
X0515172Y0113168D01*
X0514571Y0112568D01*
X0514571Y0110165D01*
X0515172Y0109565D01*
X0516373Y0109565D01*
X0516973Y0110165D01*
X0517056Y0106018D02*
X0515855Y0106018D01*
X0515255Y0105418D01*
X0513973Y0105418D02*
X0513373Y0106018D01*
X0512172Y0106018D01*
X0511571Y0105418D01*
X0511571Y0103015D01*
X0512172Y0102415D01*
X0513373Y0102415D01*
X0513973Y0103015D01*
X0515255Y0102415D02*
X0517657Y0104817D01*
X0517657Y0105418D01*
X0517056Y0106018D01*
X0517657Y0102415D02*
X0515255Y0102415D01*
X0506222Y0107915D02*
X0506222Y0111518D01*
X0504421Y0109716D01*
X0506823Y0109716D01*
X0503140Y0108515D02*
X0502539Y0107915D01*
X0501338Y0107915D01*
X0500738Y0108515D01*
X0500738Y0110918D01*
X0501338Y0111518D01*
X0502539Y0111518D01*
X0503140Y0110918D01*
X0493078Y0109018D02*
X0492478Y0109618D01*
X0491277Y0109618D01*
X0490676Y0109018D01*
X0489395Y0109018D02*
X0488795Y0109618D01*
X0487594Y0109618D01*
X0486993Y0109018D01*
X0486993Y0106615D01*
X0487594Y0106015D01*
X0488795Y0106015D01*
X0489395Y0106615D01*
X0490676Y0106015D02*
X0493078Y0108417D01*
X0493078Y0109018D01*
X0493078Y0106015D02*
X0490676Y0106015D01*
X0485739Y0106015D02*
X0484538Y0106015D01*
X0485138Y0106015D02*
X0485138Y0109618D01*
X0484538Y0109618D02*
X0485739Y0109618D01*
X0469273Y0104265D02*
X0466871Y0104265D01*
X0468072Y0104265D02*
X0468072Y0107868D01*
X0466871Y0106667D01*
X0465590Y0106066D02*
X0464989Y0105466D01*
X0463188Y0105466D01*
X0464389Y0105466D02*
X0465590Y0104265D01*
X0465590Y0106066D02*
X0465590Y0107268D01*
X0464989Y0107868D01*
X0463188Y0107868D01*
X0463188Y0104265D01*
X0472038Y0092368D02*
X0473239Y0092368D01*
X0472638Y0092368D02*
X0472638Y0088765D01*
X0472038Y0088765D02*
X0473239Y0088765D01*
X0474493Y0089365D02*
X0475094Y0088765D01*
X0476295Y0088765D01*
X0476895Y0089365D01*
X0478176Y0089365D02*
X0478777Y0088765D01*
X0479978Y0088765D01*
X0480578Y0089365D01*
X0480578Y0089966D01*
X0479978Y0090566D01*
X0479377Y0090566D01*
X0479978Y0090566D02*
X0480578Y0091167D01*
X0480578Y0091768D01*
X0479978Y0092368D01*
X0478777Y0092368D01*
X0478176Y0091768D01*
X0476895Y0091768D02*
X0476295Y0092368D01*
X0475094Y0092368D01*
X0474493Y0091768D01*
X0474493Y0089365D01*
X0457173Y0078418D02*
X0457173Y0077818D01*
X0454771Y0075415D01*
X0454771Y0074815D01*
X0453490Y0075415D02*
X0452889Y0074815D01*
X0451688Y0074815D01*
X0451088Y0075415D01*
X0451088Y0077818D01*
X0451688Y0078418D01*
X0452889Y0078418D01*
X0453490Y0077818D01*
X0454771Y0078418D02*
X0457173Y0078418D01*
X0433805Y0105515D02*
X0432604Y0105515D01*
X0432004Y0106115D01*
X0434406Y0108518D01*
X0434406Y0106115D01*
X0433805Y0105515D01*
X0432004Y0106115D02*
X0432004Y0108518D01*
X0432604Y0109118D01*
X0433805Y0109118D01*
X0434406Y0108518D01*
X0430723Y0105515D02*
X0428321Y0105515D01*
X0429522Y0105515D02*
X0429522Y0109118D01*
X0428321Y0107917D01*
X0427040Y0108518D02*
X0426439Y0109118D01*
X0425238Y0109118D01*
X0424638Y0108518D01*
X0424638Y0106115D01*
X0425238Y0105515D01*
X0426439Y0105515D01*
X0427040Y0106115D01*
X0418728Y0109166D02*
X0416326Y0109166D01*
X0418128Y0110968D01*
X0418128Y0107365D01*
X0415045Y0107965D02*
X0414445Y0107365D01*
X0413244Y0107365D01*
X0412643Y0107965D01*
X0412643Y0110368D01*
X0413244Y0110968D01*
X0414445Y0110968D01*
X0415045Y0110368D01*
X0411389Y0110968D02*
X0410188Y0110968D01*
X0410788Y0110968D02*
X0410788Y0107365D01*
X0410188Y0107365D02*
X0411389Y0107365D01*
X0386607Y0101015D02*
X0384205Y0101015D01*
X0385406Y0101015D02*
X0385406Y0104618D01*
X0384205Y0103417D01*
X0382923Y0101015D02*
X0380521Y0101015D01*
X0381722Y0101015D02*
X0381722Y0104618D01*
X0380521Y0103417D01*
X0379240Y0104018D02*
X0378640Y0104618D01*
X0377439Y0104618D01*
X0376838Y0104018D01*
X0376838Y0101615D01*
X0377439Y0101015D01*
X0378640Y0101015D01*
X0379240Y0101615D01*
X0381872Y0097118D02*
X0381271Y0096518D01*
X0381271Y0094115D01*
X0381872Y0093515D01*
X0383073Y0093515D01*
X0383673Y0094115D01*
X0384955Y0094115D02*
X0385555Y0093515D01*
X0386756Y0093515D01*
X0387357Y0094115D01*
X0387357Y0096518D01*
X0386756Y0097118D01*
X0385555Y0097118D01*
X0384955Y0096518D01*
X0384955Y0095917D01*
X0385555Y0095316D01*
X0387357Y0095316D01*
X0383673Y0096518D02*
X0383073Y0097118D01*
X0381872Y0097118D01*
X0357766Y0101215D02*
X0355364Y0101215D01*
X0356565Y0101215D02*
X0356565Y0104818D01*
X0355364Y0103617D01*
X0354083Y0103016D02*
X0353482Y0102416D01*
X0351681Y0102416D01*
X0351681Y0101215D02*
X0351681Y0104818D01*
X0353482Y0104818D01*
X0354083Y0104218D01*
X0354083Y0103016D01*
X0350400Y0104818D02*
X0349199Y0104818D01*
X0349799Y0104818D02*
X0349799Y0101815D01*
X0349199Y0101215D01*
X0348598Y0101215D01*
X0347998Y0101815D01*
X0323123Y0089568D02*
X0320721Y0089568D01*
X0320721Y0087766D01*
X0321922Y0088367D01*
X0322522Y0088367D01*
X0323123Y0087766D01*
X0323123Y0086565D01*
X0322522Y0085965D01*
X0321321Y0085965D01*
X0320721Y0086565D01*
X0319440Y0085965D02*
X0318239Y0087166D01*
X0318839Y0087166D02*
X0317038Y0087166D01*
X0317038Y0085965D02*
X0317038Y0089568D01*
X0318839Y0089568D01*
X0319440Y0088968D01*
X0319440Y0087766D01*
X0318839Y0087166D01*
X0297356Y0100915D02*
X0296755Y0100315D01*
X0295554Y0100315D01*
X0294954Y0100915D01*
X0293673Y0100315D02*
X0291271Y0100315D01*
X0292472Y0100315D02*
X0292472Y0103918D01*
X0291271Y0102717D01*
X0289990Y0103318D02*
X0289389Y0103918D01*
X0288188Y0103918D01*
X0287588Y0103318D01*
X0287588Y0100915D01*
X0288188Y0100315D01*
X0289389Y0100315D01*
X0289990Y0100915D01*
X0294954Y0103318D02*
X0295554Y0103918D01*
X0296755Y0103918D01*
X0297356Y0103318D01*
X0297356Y0102717D01*
X0296755Y0102116D01*
X0297356Y0101516D01*
X0297356Y0100915D01*
X0296755Y0102116D02*
X0296155Y0102116D01*
X0270557Y0102966D02*
X0268155Y0102966D01*
X0269956Y0104768D01*
X0269956Y0101165D01*
X0266873Y0101165D02*
X0264471Y0101165D01*
X0265672Y0101165D02*
X0265672Y0104768D01*
X0264471Y0103567D01*
X0263190Y0104168D02*
X0262590Y0104768D01*
X0261389Y0104768D01*
X0260788Y0104168D01*
X0260788Y0101765D01*
X0261389Y0101165D01*
X0262590Y0101165D01*
X0263190Y0101765D01*
X0264221Y0097518D02*
X0266023Y0097518D01*
X0266623Y0096918D01*
X0266623Y0095716D01*
X0266023Y0095116D01*
X0264221Y0095116D01*
X0264221Y0093915D02*
X0264221Y0097518D01*
X0265422Y0095116D02*
X0266623Y0093915D01*
X0267905Y0094515D02*
X0268505Y0093915D01*
X0269706Y0093915D01*
X0270307Y0094515D01*
X0270307Y0095116D01*
X0269706Y0095716D01*
X0267905Y0095716D01*
X0267905Y0094515D01*
X0267905Y0095716D02*
X0269106Y0096918D01*
X0270307Y0097518D01*
X0260223Y0094516D02*
X0257821Y0094516D01*
X0259622Y0096318D01*
X0259622Y0092715D01*
X0256540Y0092715D02*
X0255339Y0093916D01*
X0255939Y0093916D02*
X0254138Y0093916D01*
X0254138Y0092715D02*
X0254138Y0096318D01*
X0255939Y0096318D01*
X0256540Y0095718D01*
X0256540Y0094516D01*
X0255939Y0093916D01*
X0274788Y0077518D02*
X0275989Y0077518D01*
X0275388Y0077518D02*
X0275388Y0073915D01*
X0274788Y0073915D02*
X0275989Y0073915D01*
X0277243Y0074515D02*
X0277844Y0073915D01*
X0279045Y0073915D01*
X0279645Y0074515D01*
X0280926Y0074515D02*
X0281527Y0073915D01*
X0282728Y0073915D01*
X0283328Y0074515D01*
X0283328Y0075716D01*
X0282728Y0076317D01*
X0282127Y0076317D01*
X0280926Y0075716D01*
X0280926Y0077518D01*
X0283328Y0077518D01*
X0279645Y0076918D02*
X0279045Y0077518D01*
X0277844Y0077518D01*
X0277243Y0076918D01*
X0277243Y0074515D01*
X0184006Y0081265D02*
X0181604Y0081265D01*
X0184006Y0083667D01*
X0184006Y0084268D01*
X0183405Y0084868D01*
X0182204Y0084868D01*
X0181604Y0084268D01*
X0179122Y0084868D02*
X0179122Y0081265D01*
X0177921Y0081265D02*
X0180323Y0081265D01*
X0177921Y0083667D02*
X0179122Y0084868D01*
X0176640Y0084268D02*
X0176039Y0084868D01*
X0174838Y0084868D01*
X0174238Y0084268D01*
X0174238Y0081865D01*
X0174838Y0081265D01*
X0176039Y0081265D01*
X0176640Y0081865D01*
X0167773Y0081966D02*
X0167773Y0081365D01*
X0167172Y0080765D01*
X0165971Y0080765D01*
X0165371Y0081365D01*
X0164090Y0080765D02*
X0162889Y0081966D01*
X0163489Y0081966D02*
X0161688Y0081966D01*
X0161688Y0080765D02*
X0161688Y0084368D01*
X0163489Y0084368D01*
X0164090Y0083768D01*
X0164090Y0082566D01*
X0163489Y0081966D01*
X0165371Y0083768D02*
X0165971Y0084368D01*
X0167172Y0084368D01*
X0167773Y0083768D01*
X0167773Y0083167D01*
X0167172Y0082566D01*
X0167773Y0081966D01*
X0167172Y0082566D02*
X0166572Y0082566D01*
X0160564Y0104134D02*
X0159797Y0104134D01*
X0159030Y0104902D01*
X0159030Y0106436D01*
X0159797Y0107204D01*
X0160564Y0107204D01*
X0161332Y0106436D01*
X0161332Y0104902D01*
X0160564Y0104134D01*
X0159030Y0104902D02*
X0158262Y0104134D01*
X0157495Y0104134D01*
X0156728Y0104902D01*
X0156728Y0106436D01*
X0157495Y0107204D01*
X0158262Y0107204D01*
X0159030Y0106436D01*
X0110732Y0107204D02*
X0110732Y0108738D01*
X0109964Y0109505D01*
X0109197Y0109505D01*
X0108430Y0108738D01*
X0108430Y0106436D01*
X0109964Y0106436D01*
X0110732Y0107204D01*
X0110732Y0104902D02*
X0110732Y0101832D01*
X0110732Y0103367D02*
X0106128Y0103367D01*
X0107662Y0101832D01*
X0108430Y0106436D02*
X0106895Y0107971D01*
X0106128Y0109505D01*
X0106895Y0209134D02*
X0107662Y0209134D01*
X0108430Y0209902D01*
X0108430Y0212204D01*
X0109964Y0212204D02*
X0106895Y0212204D01*
X0106128Y0211436D01*
X0106128Y0209902D01*
X0106895Y0209134D01*
X0109964Y0209134D02*
X0110732Y0209902D01*
X0110732Y0211436D01*
X0109964Y0212204D01*
X0110732Y0227817D02*
X0110732Y0230886D01*
X0110732Y0229351D02*
X0106128Y0229351D01*
X0107662Y0227817D01*
X0108430Y0232420D02*
X0108430Y0234722D01*
X0109197Y0235490D01*
X0109964Y0235490D01*
X0110732Y0234722D01*
X0110732Y0233188D01*
X0109964Y0232420D01*
X0108430Y0232420D01*
X0106895Y0233955D01*
X0106128Y0235490D01*
X0156728Y0232420D02*
X0157495Y0233188D01*
X0158262Y0233188D01*
X0159030Y0232420D01*
X0159030Y0230886D01*
X0158262Y0230119D01*
X0157495Y0230119D01*
X0156728Y0230886D01*
X0156728Y0232420D01*
X0159030Y0232420D02*
X0159797Y0233188D01*
X0160564Y0233188D01*
X0161332Y0232420D01*
X0161332Y0230886D01*
X0160564Y0230119D01*
X0159797Y0230119D01*
X0159030Y0230886D01*
X0161332Y0212204D02*
X0161332Y0209134D01*
X0161332Y0210669D02*
X0156728Y0210669D01*
X0158262Y0209134D01*
X0158262Y0335119D02*
X0156728Y0336653D01*
X0161332Y0336653D01*
X0161332Y0335119D02*
X0161332Y0338188D01*
X0110732Y0337420D02*
X0109964Y0338188D01*
X0106895Y0338188D01*
X0106128Y0337420D01*
X0106128Y0335886D01*
X0106895Y0335119D01*
X0107662Y0335119D01*
X0108430Y0335886D01*
X0108430Y0338188D01*
X0110732Y0337420D02*
X0110732Y0335886D01*
X0109964Y0335119D01*
X0215016Y0394765D02*
X0215016Y0397167D01*
X0216218Y0398368D01*
X0217419Y0397167D01*
X0217419Y0394765D01*
X0218700Y0394765D02*
X0220501Y0394765D01*
X0221102Y0395365D01*
X0221102Y0397768D01*
X0220501Y0398368D01*
X0218700Y0398368D01*
X0218700Y0394765D01*
X0217419Y0396566D02*
X0215016Y0396566D01*
X0222383Y0394765D02*
X0223584Y0394765D01*
X0222983Y0394765D02*
X0222983Y0398368D01*
X0222383Y0398368D02*
X0223584Y0398368D01*
X0224838Y0398368D02*
X0224838Y0394765D01*
X0226640Y0394765D01*
X0227240Y0395365D01*
X0227240Y0395966D01*
X0226640Y0396566D01*
X0224838Y0396566D01*
X0226640Y0396566D02*
X0227240Y0397167D01*
X0227240Y0397768D01*
X0226640Y0398368D01*
X0224838Y0398368D01*
X0228521Y0397167D02*
X0230323Y0397167D01*
X0230923Y0397167D01*
X0230923Y0395966D02*
X0228521Y0395966D01*
X0229122Y0394765D02*
X0229122Y0398368D01*
X0230323Y0398368D02*
X0230323Y0394765D01*
X0232205Y0394765D02*
X0234607Y0394765D01*
X0233406Y0394765D02*
X0233406Y0398368D01*
X0232205Y0397167D01*
X0288771Y0350118D02*
X0290573Y0350118D01*
X0291173Y0349518D01*
X0291173Y0347115D01*
X0290573Y0346515D01*
X0288771Y0346515D01*
X0288771Y0350118D01*
X0292455Y0348917D02*
X0293656Y0350118D01*
X0293656Y0346515D01*
X0292455Y0346515D02*
X0294857Y0346515D01*
X0303338Y0346515D02*
X0305740Y0346515D01*
X0307021Y0346515D02*
X0307021Y0350118D01*
X0308823Y0350118D01*
X0309423Y0349518D01*
X0309423Y0347115D01*
X0308823Y0346515D01*
X0307021Y0346515D01*
X0305740Y0349518D02*
X0303338Y0347115D01*
X0303338Y0346515D01*
X0303338Y0350118D02*
X0305740Y0350118D01*
X0305740Y0349518D01*
X0310705Y0349518D02*
X0311305Y0350118D01*
X0312506Y0350118D01*
X0313107Y0349518D01*
X0313107Y0348917D01*
X0312506Y0348316D01*
X0313107Y0347716D01*
X0313107Y0347115D01*
X0312506Y0346515D01*
X0311305Y0346515D01*
X0310705Y0347115D01*
X0311906Y0348316D02*
X0312506Y0348316D01*
X0387888Y0393765D02*
X0387888Y0396167D01*
X0389089Y0397368D01*
X0390290Y0396167D01*
X0390290Y0393765D01*
X0391571Y0393765D02*
X0393372Y0393765D01*
X0393973Y0394365D01*
X0393973Y0396768D01*
X0393372Y0397368D01*
X0391571Y0397368D01*
X0391571Y0393765D01*
X0390290Y0395566D02*
X0387888Y0395566D01*
X0395254Y0393765D02*
X0396455Y0393765D01*
X0395854Y0393765D02*
X0395854Y0397368D01*
X0395254Y0397368D02*
X0396455Y0397368D01*
X0397709Y0397368D02*
X0399511Y0397368D01*
X0400111Y0396768D01*
X0400111Y0396167D01*
X0399511Y0395566D01*
X0397709Y0395566D01*
X0397709Y0393765D02*
X0399511Y0393765D01*
X0400111Y0394365D01*
X0400111Y0394966D01*
X0399511Y0395566D01*
X0401393Y0394966D02*
X0403795Y0394966D01*
X0403795Y0396167D02*
X0403194Y0396167D01*
X0401393Y0396167D01*
X0401993Y0397368D02*
X0401993Y0393765D01*
X0403194Y0393765D02*
X0403194Y0397368D01*
X0405076Y0396768D02*
X0405676Y0397368D01*
X0406877Y0397368D01*
X0407478Y0396768D01*
X0407478Y0396167D01*
X0405076Y0393765D01*
X0407478Y0393765D01*
X0397709Y0393765D02*
X0397709Y0397368D01*
X0529888Y0330868D02*
X0531689Y0330868D01*
X0532290Y0330268D01*
X0532290Y0329066D01*
X0531689Y0328466D01*
X0529888Y0328466D01*
X0531089Y0328466D02*
X0532290Y0327265D01*
X0533571Y0327265D02*
X0533571Y0327865D01*
X0535973Y0330268D01*
X0535973Y0330868D01*
X0533571Y0330868D01*
X0529888Y0330868D02*
X0529888Y0327265D01*
X0525055Y0298368D02*
X0523854Y0297167D01*
X0522573Y0297768D02*
X0521972Y0298368D01*
X0520171Y0298368D01*
X0520171Y0294765D01*
X0521972Y0294765D01*
X0522573Y0295365D01*
X0522573Y0297768D01*
X0525055Y0298368D02*
X0525055Y0294765D01*
X0523854Y0294765D02*
X0526256Y0294765D01*
X0518890Y0294765D02*
X0516488Y0294765D01*
X0516488Y0295365D01*
X0518890Y0297768D01*
X0518890Y0298368D01*
X0516488Y0298368D01*
X0516388Y0217868D02*
X0518790Y0217868D01*
X0518790Y0217268D01*
X0516388Y0214865D01*
X0516388Y0214265D01*
X0518790Y0214265D01*
X0520071Y0214265D02*
X0521872Y0214265D01*
X0522473Y0214865D01*
X0522473Y0217268D01*
X0521872Y0217868D01*
X0520071Y0217868D01*
X0520071Y0214265D01*
X0523754Y0214265D02*
X0526156Y0216667D01*
X0526156Y0217268D01*
X0525555Y0217868D01*
X0524354Y0217868D01*
X0523754Y0217268D01*
X0523754Y0214265D02*
X0526156Y0214265D01*
X0516357Y0089118D02*
X0513955Y0089118D01*
X0513955Y0087316D01*
X0515156Y0087917D01*
X0515756Y0087917D01*
X0516357Y0087316D01*
X0516357Y0086115D01*
X0515756Y0085515D01*
X0514555Y0085515D01*
X0513955Y0086115D01*
X0512673Y0086115D02*
X0512073Y0085515D01*
X0510872Y0085515D01*
X0510271Y0086115D01*
X0510271Y0088518D01*
X0510872Y0089118D01*
X0512073Y0089118D01*
X0512673Y0088518D01*
X0508156Y0086268D02*
X0507555Y0086868D01*
X0506354Y0086868D01*
X0505754Y0086268D01*
X0504473Y0086868D02*
X0504473Y0083265D01*
X0502071Y0086868D01*
X0502071Y0083265D01*
X0500790Y0083265D02*
X0499589Y0084466D01*
X0500189Y0084466D02*
X0498388Y0084466D01*
X0498388Y0083265D02*
X0498388Y0086868D01*
X0500189Y0086868D01*
X0500790Y0086268D01*
X0500790Y0085066D01*
X0500189Y0084466D01*
X0505754Y0083265D02*
X0508156Y0085667D01*
X0508156Y0086268D01*
X0508156Y0083265D02*
X0505754Y0083265D01*
X0510271Y0081018D02*
X0510271Y0078615D01*
X0510872Y0078015D01*
X0512073Y0078015D01*
X0512673Y0078615D01*
X0513955Y0078615D02*
X0514555Y0078015D01*
X0515756Y0078015D01*
X0516357Y0078615D01*
X0516357Y0079216D01*
X0515756Y0079816D01*
X0513955Y0079816D01*
X0513955Y0078615D01*
X0513955Y0079816D02*
X0515156Y0081018D01*
X0516357Y0081618D01*
X0512673Y0081018D02*
X0512073Y0081618D01*
X0510872Y0081618D01*
X0510271Y0081018D01*
X0571138Y0079118D02*
X0572939Y0079118D01*
X0573540Y0078518D01*
X0573540Y0077316D01*
X0572939Y0076716D01*
X0571138Y0076716D01*
X0572339Y0076716D02*
X0573540Y0075515D01*
X0574821Y0075515D02*
X0574821Y0079118D01*
X0577223Y0075515D01*
X0577223Y0079118D01*
X0578504Y0077917D02*
X0579705Y0079118D01*
X0579705Y0075515D01*
X0578504Y0075515D02*
X0580906Y0075515D01*
X0571138Y0075515D02*
X0571138Y0079118D01*
D818*
X0592390Y0068557D02*
X0592390Y0119065D01*
X0601485Y0119065D01*
X0601485Y0068557D01*
X0592390Y0068557D01*
X0592390Y0119065D02*
X0592390Y0129573D01*
X0601485Y0129573D01*
X0601485Y0119065D01*
X0444841Y0061610D02*
X0444841Y0053972D01*
X0303825Y0053972D01*
X0303825Y0061610D01*
X0444841Y0061610D01*
D819*
X0300128Y0069515D02*
X0295925Y0069515D01*
X0300128Y0073719D01*
X0300128Y0074770D01*
X0299078Y0075821D01*
X0296976Y0075821D01*
X0295925Y0074770D01*
X0293683Y0075821D02*
X0289479Y0069515D01*
X0293683Y0069515D02*
X0289479Y0075821D01*
D820*
X0282488Y0078915D02*
X0275688Y0078915D01*
X0282488Y0083615D02*
X0282488Y0086215D01*
X0280288Y0090915D02*
X0271388Y0090915D01*
X0262688Y0125815D02*
X0338688Y0125815D01*
X0338688Y0134315D01*
X0338688Y0139315D01*
X0338688Y0147815D01*
X0262688Y0147815D01*
X0262688Y0125815D01*
X0255688Y0125815D02*
X0179688Y0125815D01*
X0179688Y0147815D01*
X0255688Y0147815D01*
X0255688Y0139315D01*
X0255688Y0134315D01*
X0255688Y0125815D01*
X0247688Y0127815D02*
X0247688Y0130815D01*
X0222688Y0130815D01*
X0212688Y0128315D01*
X0212688Y0130815D02*
X0187688Y0130815D01*
X0187688Y0127815D01*
X0187688Y0135815D02*
X0212688Y0135815D01*
X0212688Y0133315D02*
X0222688Y0135815D01*
X0247688Y0135815D01*
X0247688Y0145815D01*
X0237688Y0145815D02*
X0237688Y0141815D01*
X0220188Y0141815D01*
X0220188Y0139315D02*
X0215188Y0144315D01*
X0213188Y0144315D02*
X0210188Y0144315D01*
X0215188Y0141815D02*
X0197688Y0141815D01*
X0197688Y0145815D01*
X0187688Y0145815D02*
X0187688Y0135815D01*
X0222188Y0144315D02*
X0225188Y0144315D01*
X0223688Y0142815D02*
X0223688Y0145815D01*
X0252188Y0139315D02*
X0255688Y0139315D01*
X0252188Y0139315D02*
X0252090Y0139313D01*
X0251992Y0139307D01*
X0251894Y0139298D01*
X0251797Y0139284D01*
X0251700Y0139267D01*
X0251604Y0139246D01*
X0251509Y0139221D01*
X0251415Y0139193D01*
X0251323Y0139160D01*
X0251231Y0139125D01*
X0251141Y0139085D01*
X0251053Y0139043D01*
X0250966Y0138996D01*
X0250882Y0138947D01*
X0250799Y0138894D01*
X0250719Y0138838D01*
X0250640Y0138778D01*
X0250564Y0138716D01*
X0250491Y0138651D01*
X0250420Y0138583D01*
X0250352Y0138512D01*
X0250287Y0138439D01*
X0250225Y0138363D01*
X0250165Y0138284D01*
X0250109Y0138204D01*
X0250056Y0138121D01*
X0250007Y0138037D01*
X0249960Y0137950D01*
X0249918Y0137862D01*
X0249878Y0137772D01*
X0249843Y0137680D01*
X0249810Y0137588D01*
X0249782Y0137494D01*
X0249757Y0137399D01*
X0249736Y0137303D01*
X0249719Y0137206D01*
X0249705Y0137109D01*
X0249696Y0137011D01*
X0249690Y0136913D01*
X0249688Y0136815D01*
X0249690Y0136717D01*
X0249696Y0136619D01*
X0249705Y0136521D01*
X0249719Y0136424D01*
X0249736Y0136327D01*
X0249757Y0136231D01*
X0249782Y0136136D01*
X0249810Y0136042D01*
X0249843Y0135950D01*
X0249878Y0135858D01*
X0249918Y0135768D01*
X0249960Y0135680D01*
X0250007Y0135593D01*
X0250056Y0135509D01*
X0250109Y0135426D01*
X0250165Y0135346D01*
X0250225Y0135267D01*
X0250287Y0135191D01*
X0250352Y0135118D01*
X0250420Y0135047D01*
X0250491Y0134979D01*
X0250564Y0134914D01*
X0250640Y0134852D01*
X0250719Y0134792D01*
X0250799Y0134736D01*
X0250882Y0134683D01*
X0250966Y0134634D01*
X0251053Y0134587D01*
X0251141Y0134545D01*
X0251231Y0134505D01*
X0251323Y0134470D01*
X0251415Y0134437D01*
X0251509Y0134409D01*
X0251604Y0134384D01*
X0251700Y0134363D01*
X0251797Y0134346D01*
X0251894Y0134332D01*
X0251992Y0134323D01*
X0252090Y0134317D01*
X0252188Y0134315D01*
X0255688Y0134315D01*
X0270688Y0135815D02*
X0295688Y0135815D01*
X0295688Y0133315D02*
X0305688Y0135815D01*
X0330688Y0135815D01*
X0330688Y0145815D01*
X0320688Y0145815D02*
X0320688Y0141815D01*
X0303188Y0141815D01*
X0303188Y0139315D02*
X0298188Y0144315D01*
X0296188Y0144315D02*
X0293188Y0144315D01*
X0298188Y0141815D02*
X0280688Y0141815D01*
X0280688Y0145815D01*
X0270688Y0145815D02*
X0270688Y0135815D01*
X0270688Y0130815D02*
X0295688Y0130815D01*
X0295688Y0128315D02*
X0305688Y0130815D01*
X0330688Y0130815D01*
X0330688Y0127815D01*
X0335188Y0134315D02*
X0338688Y0134315D01*
X0335188Y0134315D02*
X0335090Y0134317D01*
X0334992Y0134323D01*
X0334894Y0134332D01*
X0334797Y0134346D01*
X0334700Y0134363D01*
X0334604Y0134384D01*
X0334509Y0134409D01*
X0334415Y0134437D01*
X0334323Y0134470D01*
X0334231Y0134505D01*
X0334141Y0134545D01*
X0334053Y0134587D01*
X0333966Y0134634D01*
X0333882Y0134683D01*
X0333799Y0134736D01*
X0333719Y0134792D01*
X0333640Y0134852D01*
X0333564Y0134914D01*
X0333491Y0134979D01*
X0333420Y0135047D01*
X0333352Y0135118D01*
X0333287Y0135191D01*
X0333225Y0135267D01*
X0333165Y0135346D01*
X0333109Y0135426D01*
X0333056Y0135509D01*
X0333007Y0135593D01*
X0332960Y0135680D01*
X0332918Y0135768D01*
X0332878Y0135858D01*
X0332843Y0135950D01*
X0332810Y0136042D01*
X0332782Y0136136D01*
X0332757Y0136231D01*
X0332736Y0136327D01*
X0332719Y0136424D01*
X0332705Y0136521D01*
X0332696Y0136619D01*
X0332690Y0136717D01*
X0332688Y0136815D01*
X0332690Y0136913D01*
X0332696Y0137011D01*
X0332705Y0137109D01*
X0332719Y0137206D01*
X0332736Y0137303D01*
X0332757Y0137399D01*
X0332782Y0137494D01*
X0332810Y0137588D01*
X0332843Y0137680D01*
X0332878Y0137772D01*
X0332918Y0137862D01*
X0332960Y0137950D01*
X0333007Y0138037D01*
X0333056Y0138121D01*
X0333109Y0138204D01*
X0333165Y0138284D01*
X0333225Y0138363D01*
X0333287Y0138439D01*
X0333352Y0138512D01*
X0333420Y0138583D01*
X0333491Y0138651D01*
X0333564Y0138716D01*
X0333640Y0138778D01*
X0333719Y0138838D01*
X0333799Y0138894D01*
X0333882Y0138947D01*
X0333966Y0138996D01*
X0334053Y0139043D01*
X0334141Y0139085D01*
X0334231Y0139125D01*
X0334323Y0139160D01*
X0334415Y0139193D01*
X0334509Y0139221D01*
X0334604Y0139246D01*
X0334700Y0139267D01*
X0334797Y0139284D01*
X0334894Y0139298D01*
X0334992Y0139307D01*
X0335090Y0139313D01*
X0335188Y0139315D01*
X0338688Y0139315D01*
X0345688Y0147815D02*
X0421688Y0147815D01*
X0421688Y0139315D01*
X0421688Y0134315D01*
X0421688Y0125815D01*
X0345688Y0125815D01*
X0345688Y0147815D01*
X0353688Y0145815D02*
X0353688Y0135815D01*
X0378688Y0135815D01*
X0378688Y0133315D02*
X0388688Y0135815D01*
X0413688Y0135815D01*
X0413688Y0145815D01*
X0403688Y0145815D02*
X0403688Y0141815D01*
X0386188Y0141815D01*
X0386188Y0139315D02*
X0381188Y0144315D01*
X0379188Y0144315D02*
X0376188Y0144315D01*
X0381188Y0141815D02*
X0363688Y0141815D01*
X0363688Y0145815D01*
X0353688Y0130815D02*
X0378688Y0130815D01*
X0378688Y0128315D02*
X0388688Y0130815D01*
X0413688Y0130815D01*
X0413688Y0127815D01*
X0418188Y0134315D02*
X0421688Y0134315D01*
X0418188Y0134315D02*
X0418090Y0134317D01*
X0417992Y0134323D01*
X0417894Y0134332D01*
X0417797Y0134346D01*
X0417700Y0134363D01*
X0417604Y0134384D01*
X0417509Y0134409D01*
X0417415Y0134437D01*
X0417323Y0134470D01*
X0417231Y0134505D01*
X0417141Y0134545D01*
X0417053Y0134587D01*
X0416966Y0134634D01*
X0416882Y0134683D01*
X0416799Y0134736D01*
X0416719Y0134792D01*
X0416640Y0134852D01*
X0416564Y0134914D01*
X0416491Y0134979D01*
X0416420Y0135047D01*
X0416352Y0135118D01*
X0416287Y0135191D01*
X0416225Y0135267D01*
X0416165Y0135346D01*
X0416109Y0135426D01*
X0416056Y0135509D01*
X0416007Y0135593D01*
X0415960Y0135680D01*
X0415918Y0135768D01*
X0415878Y0135858D01*
X0415843Y0135950D01*
X0415810Y0136042D01*
X0415782Y0136136D01*
X0415757Y0136231D01*
X0415736Y0136327D01*
X0415719Y0136424D01*
X0415705Y0136521D01*
X0415696Y0136619D01*
X0415690Y0136717D01*
X0415688Y0136815D01*
X0415690Y0136913D01*
X0415696Y0137011D01*
X0415705Y0137109D01*
X0415719Y0137206D01*
X0415736Y0137303D01*
X0415757Y0137399D01*
X0415782Y0137494D01*
X0415810Y0137588D01*
X0415843Y0137680D01*
X0415878Y0137772D01*
X0415918Y0137862D01*
X0415960Y0137950D01*
X0416007Y0138037D01*
X0416056Y0138121D01*
X0416109Y0138204D01*
X0416165Y0138284D01*
X0416225Y0138363D01*
X0416287Y0138439D01*
X0416352Y0138512D01*
X0416420Y0138583D01*
X0416491Y0138651D01*
X0416564Y0138716D01*
X0416640Y0138778D01*
X0416719Y0138838D01*
X0416799Y0138894D01*
X0416882Y0138947D01*
X0416966Y0138996D01*
X0417053Y0139043D01*
X0417141Y0139085D01*
X0417231Y0139125D01*
X0417323Y0139160D01*
X0417415Y0139193D01*
X0417509Y0139221D01*
X0417604Y0139246D01*
X0417700Y0139267D01*
X0417797Y0139284D01*
X0417894Y0139298D01*
X0417992Y0139307D01*
X0418090Y0139313D01*
X0418188Y0139315D01*
X0421688Y0139315D01*
X0391188Y0144315D02*
X0388188Y0144315D01*
X0389688Y0142815D02*
X0389688Y0145815D01*
X0353688Y0130815D02*
X0353688Y0127815D01*
X0308188Y0144315D02*
X0305188Y0144315D01*
X0306688Y0142815D02*
X0306688Y0145815D01*
X0270688Y0130815D02*
X0270688Y0127815D01*
X0262688Y0174815D02*
X0338688Y0174815D01*
X0338688Y0183315D01*
X0338688Y0188315D01*
X0338688Y0196815D01*
X0262688Y0196815D01*
X0262688Y0174815D01*
X0255688Y0174815D02*
X0179688Y0174815D01*
X0179688Y0196815D01*
X0255688Y0196815D01*
X0255688Y0188315D01*
X0255688Y0183315D01*
X0255688Y0174815D01*
X0247688Y0176815D02*
X0247688Y0179815D01*
X0222688Y0179815D01*
X0212688Y0177315D01*
X0212688Y0179815D02*
X0187688Y0179815D01*
X0187688Y0176815D01*
X0187688Y0184815D02*
X0212688Y0184815D01*
X0212688Y0182315D02*
X0222688Y0184815D01*
X0247688Y0184815D01*
X0247688Y0194815D01*
X0237688Y0194815D02*
X0237688Y0190815D01*
X0220188Y0190815D01*
X0220188Y0188315D02*
X0215188Y0193315D01*
X0213188Y0193315D02*
X0210188Y0193315D01*
X0215188Y0190815D02*
X0197688Y0190815D01*
X0197688Y0194815D01*
X0187688Y0194815D02*
X0187688Y0184815D01*
X0222188Y0193315D02*
X0225188Y0193315D01*
X0223688Y0191815D02*
X0223688Y0194815D01*
X0252188Y0188315D02*
X0255688Y0188315D01*
X0252188Y0188315D02*
X0252090Y0188313D01*
X0251992Y0188307D01*
X0251894Y0188298D01*
X0251797Y0188284D01*
X0251700Y0188267D01*
X0251604Y0188246D01*
X0251509Y0188221D01*
X0251415Y0188193D01*
X0251323Y0188160D01*
X0251231Y0188125D01*
X0251141Y0188085D01*
X0251053Y0188043D01*
X0250966Y0187996D01*
X0250882Y0187947D01*
X0250799Y0187894D01*
X0250719Y0187838D01*
X0250640Y0187778D01*
X0250564Y0187716D01*
X0250491Y0187651D01*
X0250420Y0187583D01*
X0250352Y0187512D01*
X0250287Y0187439D01*
X0250225Y0187363D01*
X0250165Y0187284D01*
X0250109Y0187204D01*
X0250056Y0187121D01*
X0250007Y0187037D01*
X0249960Y0186950D01*
X0249918Y0186862D01*
X0249878Y0186772D01*
X0249843Y0186680D01*
X0249810Y0186588D01*
X0249782Y0186494D01*
X0249757Y0186399D01*
X0249736Y0186303D01*
X0249719Y0186206D01*
X0249705Y0186109D01*
X0249696Y0186011D01*
X0249690Y0185913D01*
X0249688Y0185815D01*
X0249690Y0185717D01*
X0249696Y0185619D01*
X0249705Y0185521D01*
X0249719Y0185424D01*
X0249736Y0185327D01*
X0249757Y0185231D01*
X0249782Y0185136D01*
X0249810Y0185042D01*
X0249843Y0184950D01*
X0249878Y0184858D01*
X0249918Y0184768D01*
X0249960Y0184680D01*
X0250007Y0184593D01*
X0250056Y0184509D01*
X0250109Y0184426D01*
X0250165Y0184346D01*
X0250225Y0184267D01*
X0250287Y0184191D01*
X0250352Y0184118D01*
X0250420Y0184047D01*
X0250491Y0183979D01*
X0250564Y0183914D01*
X0250640Y0183852D01*
X0250719Y0183792D01*
X0250799Y0183736D01*
X0250882Y0183683D01*
X0250966Y0183634D01*
X0251053Y0183587D01*
X0251141Y0183545D01*
X0251231Y0183505D01*
X0251323Y0183470D01*
X0251415Y0183437D01*
X0251509Y0183409D01*
X0251604Y0183384D01*
X0251700Y0183363D01*
X0251797Y0183346D01*
X0251894Y0183332D01*
X0251992Y0183323D01*
X0252090Y0183317D01*
X0252188Y0183315D01*
X0255688Y0183315D01*
X0270688Y0184815D02*
X0295688Y0184815D01*
X0295688Y0182315D02*
X0305688Y0184815D01*
X0330688Y0184815D01*
X0330688Y0194815D01*
X0320688Y0194815D02*
X0320688Y0190815D01*
X0303188Y0190815D01*
X0303188Y0188315D02*
X0298188Y0193315D01*
X0296188Y0193315D02*
X0293188Y0193315D01*
X0298188Y0190815D02*
X0280688Y0190815D01*
X0280688Y0194815D01*
X0270688Y0194815D02*
X0270688Y0184815D01*
X0270688Y0179815D02*
X0295688Y0179815D01*
X0295688Y0177315D02*
X0305688Y0179815D01*
X0330688Y0179815D01*
X0330688Y0176815D01*
X0335188Y0183315D02*
X0338688Y0183315D01*
X0335188Y0183315D02*
X0335090Y0183317D01*
X0334992Y0183323D01*
X0334894Y0183332D01*
X0334797Y0183346D01*
X0334700Y0183363D01*
X0334604Y0183384D01*
X0334509Y0183409D01*
X0334415Y0183437D01*
X0334323Y0183470D01*
X0334231Y0183505D01*
X0334141Y0183545D01*
X0334053Y0183587D01*
X0333966Y0183634D01*
X0333882Y0183683D01*
X0333799Y0183736D01*
X0333719Y0183792D01*
X0333640Y0183852D01*
X0333564Y0183914D01*
X0333491Y0183979D01*
X0333420Y0184047D01*
X0333352Y0184118D01*
X0333287Y0184191D01*
X0333225Y0184267D01*
X0333165Y0184346D01*
X0333109Y0184426D01*
X0333056Y0184509D01*
X0333007Y0184593D01*
X0332960Y0184680D01*
X0332918Y0184768D01*
X0332878Y0184858D01*
X0332843Y0184950D01*
X0332810Y0185042D01*
X0332782Y0185136D01*
X0332757Y0185231D01*
X0332736Y0185327D01*
X0332719Y0185424D01*
X0332705Y0185521D01*
X0332696Y0185619D01*
X0332690Y0185717D01*
X0332688Y0185815D01*
X0332690Y0185913D01*
X0332696Y0186011D01*
X0332705Y0186109D01*
X0332719Y0186206D01*
X0332736Y0186303D01*
X0332757Y0186399D01*
X0332782Y0186494D01*
X0332810Y0186588D01*
X0332843Y0186680D01*
X0332878Y0186772D01*
X0332918Y0186862D01*
X0332960Y0186950D01*
X0333007Y0187037D01*
X0333056Y0187121D01*
X0333109Y0187204D01*
X0333165Y0187284D01*
X0333225Y0187363D01*
X0333287Y0187439D01*
X0333352Y0187512D01*
X0333420Y0187583D01*
X0333491Y0187651D01*
X0333564Y0187716D01*
X0333640Y0187778D01*
X0333719Y0187838D01*
X0333799Y0187894D01*
X0333882Y0187947D01*
X0333966Y0187996D01*
X0334053Y0188043D01*
X0334141Y0188085D01*
X0334231Y0188125D01*
X0334323Y0188160D01*
X0334415Y0188193D01*
X0334509Y0188221D01*
X0334604Y0188246D01*
X0334700Y0188267D01*
X0334797Y0188284D01*
X0334894Y0188298D01*
X0334992Y0188307D01*
X0335090Y0188313D01*
X0335188Y0188315D01*
X0338688Y0188315D01*
X0345688Y0196815D02*
X0421688Y0196815D01*
X0421688Y0188315D01*
X0421688Y0183315D01*
X0421688Y0174815D01*
X0345688Y0174815D01*
X0345688Y0196815D01*
X0353688Y0194815D02*
X0353688Y0184815D01*
X0378688Y0184815D01*
X0378688Y0182315D02*
X0388688Y0184815D01*
X0413688Y0184815D01*
X0413688Y0194815D01*
X0403688Y0194815D02*
X0403688Y0190815D01*
X0386188Y0190815D01*
X0386188Y0188315D02*
X0381188Y0193315D01*
X0379188Y0193315D02*
X0376188Y0193315D01*
X0381188Y0190815D02*
X0363688Y0190815D01*
X0363688Y0194815D01*
X0353688Y0179815D02*
X0378688Y0179815D01*
X0378688Y0177315D02*
X0388688Y0179815D01*
X0413688Y0179815D01*
X0413688Y0176815D01*
X0418188Y0183315D02*
X0421688Y0183315D01*
X0418188Y0183315D02*
X0418090Y0183317D01*
X0417992Y0183323D01*
X0417894Y0183332D01*
X0417797Y0183346D01*
X0417700Y0183363D01*
X0417604Y0183384D01*
X0417509Y0183409D01*
X0417415Y0183437D01*
X0417323Y0183470D01*
X0417231Y0183505D01*
X0417141Y0183545D01*
X0417053Y0183587D01*
X0416966Y0183634D01*
X0416882Y0183683D01*
X0416799Y0183736D01*
X0416719Y0183792D01*
X0416640Y0183852D01*
X0416564Y0183914D01*
X0416491Y0183979D01*
X0416420Y0184047D01*
X0416352Y0184118D01*
X0416287Y0184191D01*
X0416225Y0184267D01*
X0416165Y0184346D01*
X0416109Y0184426D01*
X0416056Y0184509D01*
X0416007Y0184593D01*
X0415960Y0184680D01*
X0415918Y0184768D01*
X0415878Y0184858D01*
X0415843Y0184950D01*
X0415810Y0185042D01*
X0415782Y0185136D01*
X0415757Y0185231D01*
X0415736Y0185327D01*
X0415719Y0185424D01*
X0415705Y0185521D01*
X0415696Y0185619D01*
X0415690Y0185717D01*
X0415688Y0185815D01*
X0415690Y0185913D01*
X0415696Y0186011D01*
X0415705Y0186109D01*
X0415719Y0186206D01*
X0415736Y0186303D01*
X0415757Y0186399D01*
X0415782Y0186494D01*
X0415810Y0186588D01*
X0415843Y0186680D01*
X0415878Y0186772D01*
X0415918Y0186862D01*
X0415960Y0186950D01*
X0416007Y0187037D01*
X0416056Y0187121D01*
X0416109Y0187204D01*
X0416165Y0187284D01*
X0416225Y0187363D01*
X0416287Y0187439D01*
X0416352Y0187512D01*
X0416420Y0187583D01*
X0416491Y0187651D01*
X0416564Y0187716D01*
X0416640Y0187778D01*
X0416719Y0187838D01*
X0416799Y0187894D01*
X0416882Y0187947D01*
X0416966Y0187996D01*
X0417053Y0188043D01*
X0417141Y0188085D01*
X0417231Y0188125D01*
X0417323Y0188160D01*
X0417415Y0188193D01*
X0417509Y0188221D01*
X0417604Y0188246D01*
X0417700Y0188267D01*
X0417797Y0188284D01*
X0417894Y0188298D01*
X0417992Y0188307D01*
X0418090Y0188313D01*
X0418188Y0188315D01*
X0421688Y0188315D01*
X0391188Y0193315D02*
X0388188Y0193315D01*
X0389688Y0191815D02*
X0389688Y0194815D01*
X0353688Y0179815D02*
X0353688Y0176815D01*
X0308188Y0193315D02*
X0305188Y0193315D01*
X0306688Y0191815D02*
X0306688Y0194815D01*
X0270688Y0179815D02*
X0270688Y0176815D01*
X0262688Y0223815D02*
X0338688Y0223815D01*
X0338688Y0232315D01*
X0338688Y0237315D01*
X0338688Y0245815D01*
X0262688Y0245815D01*
X0262688Y0223815D01*
X0255688Y0223815D02*
X0179688Y0223815D01*
X0179688Y0245815D01*
X0255688Y0245815D01*
X0255688Y0237315D01*
X0255688Y0232315D01*
X0255688Y0223815D01*
X0247688Y0225815D02*
X0247688Y0228815D01*
X0222688Y0228815D01*
X0212688Y0226315D01*
X0212688Y0228815D02*
X0187688Y0228815D01*
X0187688Y0225815D01*
X0187688Y0233815D02*
X0212688Y0233815D01*
X0212688Y0231315D02*
X0222688Y0233815D01*
X0247688Y0233815D01*
X0247688Y0243815D01*
X0237688Y0243815D02*
X0237688Y0239815D01*
X0220188Y0239815D01*
X0220188Y0237315D02*
X0215188Y0242315D01*
X0213188Y0242315D02*
X0210188Y0242315D01*
X0215188Y0239815D02*
X0197688Y0239815D01*
X0197688Y0243815D01*
X0187688Y0243815D02*
X0187688Y0233815D01*
X0172050Y0222378D02*
X0172050Y0347063D01*
X0085436Y0347063D01*
X0085436Y0222378D01*
X0172050Y0222378D01*
X0172050Y0221079D02*
X0172050Y0096394D01*
X0085436Y0096394D01*
X0085436Y0221079D01*
X0172050Y0221079D01*
X0222188Y0242315D02*
X0225188Y0242315D01*
X0223688Y0240815D02*
X0223688Y0243815D01*
X0252188Y0237315D02*
X0255688Y0237315D01*
X0252188Y0237315D02*
X0252090Y0237313D01*
X0251992Y0237307D01*
X0251894Y0237298D01*
X0251797Y0237284D01*
X0251700Y0237267D01*
X0251604Y0237246D01*
X0251509Y0237221D01*
X0251415Y0237193D01*
X0251323Y0237160D01*
X0251231Y0237125D01*
X0251141Y0237085D01*
X0251053Y0237043D01*
X0250966Y0236996D01*
X0250882Y0236947D01*
X0250799Y0236894D01*
X0250719Y0236838D01*
X0250640Y0236778D01*
X0250564Y0236716D01*
X0250491Y0236651D01*
X0250420Y0236583D01*
X0250352Y0236512D01*
X0250287Y0236439D01*
X0250225Y0236363D01*
X0250165Y0236284D01*
X0250109Y0236204D01*
X0250056Y0236121D01*
X0250007Y0236037D01*
X0249960Y0235950D01*
X0249918Y0235862D01*
X0249878Y0235772D01*
X0249843Y0235680D01*
X0249810Y0235588D01*
X0249782Y0235494D01*
X0249757Y0235399D01*
X0249736Y0235303D01*
X0249719Y0235206D01*
X0249705Y0235109D01*
X0249696Y0235011D01*
X0249690Y0234913D01*
X0249688Y0234815D01*
X0249690Y0234717D01*
X0249696Y0234619D01*
X0249705Y0234521D01*
X0249719Y0234424D01*
X0249736Y0234327D01*
X0249757Y0234231D01*
X0249782Y0234136D01*
X0249810Y0234042D01*
X0249843Y0233950D01*
X0249878Y0233858D01*
X0249918Y0233768D01*
X0249960Y0233680D01*
X0250007Y0233593D01*
X0250056Y0233509D01*
X0250109Y0233426D01*
X0250165Y0233346D01*
X0250225Y0233267D01*
X0250287Y0233191D01*
X0250352Y0233118D01*
X0250420Y0233047D01*
X0250491Y0232979D01*
X0250564Y0232914D01*
X0250640Y0232852D01*
X0250719Y0232792D01*
X0250799Y0232736D01*
X0250882Y0232683D01*
X0250966Y0232634D01*
X0251053Y0232587D01*
X0251141Y0232545D01*
X0251231Y0232505D01*
X0251323Y0232470D01*
X0251415Y0232437D01*
X0251509Y0232409D01*
X0251604Y0232384D01*
X0251700Y0232363D01*
X0251797Y0232346D01*
X0251894Y0232332D01*
X0251992Y0232323D01*
X0252090Y0232317D01*
X0252188Y0232315D01*
X0255688Y0232315D01*
X0270688Y0233815D02*
X0295688Y0233815D01*
X0295688Y0231315D02*
X0305688Y0233815D01*
X0330688Y0233815D01*
X0330688Y0243815D01*
X0320688Y0243815D02*
X0320688Y0239815D01*
X0303188Y0239815D01*
X0303188Y0237315D02*
X0298188Y0242315D01*
X0296188Y0242315D02*
X0293188Y0242315D01*
X0298188Y0239815D02*
X0280688Y0239815D01*
X0280688Y0243815D01*
X0270688Y0243815D02*
X0270688Y0233815D01*
X0270688Y0228815D02*
X0295688Y0228815D01*
X0295688Y0226315D02*
X0305688Y0228815D01*
X0330688Y0228815D01*
X0330688Y0225815D01*
X0335188Y0232315D02*
X0338688Y0232315D01*
X0335188Y0232315D02*
X0335090Y0232317D01*
X0334992Y0232323D01*
X0334894Y0232332D01*
X0334797Y0232346D01*
X0334700Y0232363D01*
X0334604Y0232384D01*
X0334509Y0232409D01*
X0334415Y0232437D01*
X0334323Y0232470D01*
X0334231Y0232505D01*
X0334141Y0232545D01*
X0334053Y0232587D01*
X0333966Y0232634D01*
X0333882Y0232683D01*
X0333799Y0232736D01*
X0333719Y0232792D01*
X0333640Y0232852D01*
X0333564Y0232914D01*
X0333491Y0232979D01*
X0333420Y0233047D01*
X0333352Y0233118D01*
X0333287Y0233191D01*
X0333225Y0233267D01*
X0333165Y0233346D01*
X0333109Y0233426D01*
X0333056Y0233509D01*
X0333007Y0233593D01*
X0332960Y0233680D01*
X0332918Y0233768D01*
X0332878Y0233858D01*
X0332843Y0233950D01*
X0332810Y0234042D01*
X0332782Y0234136D01*
X0332757Y0234231D01*
X0332736Y0234327D01*
X0332719Y0234424D01*
X0332705Y0234521D01*
X0332696Y0234619D01*
X0332690Y0234717D01*
X0332688Y0234815D01*
X0332690Y0234913D01*
X0332696Y0235011D01*
X0332705Y0235109D01*
X0332719Y0235206D01*
X0332736Y0235303D01*
X0332757Y0235399D01*
X0332782Y0235494D01*
X0332810Y0235588D01*
X0332843Y0235680D01*
X0332878Y0235772D01*
X0332918Y0235862D01*
X0332960Y0235950D01*
X0333007Y0236037D01*
X0333056Y0236121D01*
X0333109Y0236204D01*
X0333165Y0236284D01*
X0333225Y0236363D01*
X0333287Y0236439D01*
X0333352Y0236512D01*
X0333420Y0236583D01*
X0333491Y0236651D01*
X0333564Y0236716D01*
X0333640Y0236778D01*
X0333719Y0236838D01*
X0333799Y0236894D01*
X0333882Y0236947D01*
X0333966Y0236996D01*
X0334053Y0237043D01*
X0334141Y0237085D01*
X0334231Y0237125D01*
X0334323Y0237160D01*
X0334415Y0237193D01*
X0334509Y0237221D01*
X0334604Y0237246D01*
X0334700Y0237267D01*
X0334797Y0237284D01*
X0334894Y0237298D01*
X0334992Y0237307D01*
X0335090Y0237313D01*
X0335188Y0237315D01*
X0338688Y0237315D01*
X0345688Y0245815D02*
X0421688Y0245815D01*
X0421688Y0237315D01*
X0421688Y0232315D01*
X0421688Y0223815D01*
X0345688Y0223815D01*
X0345688Y0245815D01*
X0353688Y0243815D02*
X0353688Y0233815D01*
X0378688Y0233815D01*
X0378688Y0231315D02*
X0388688Y0233815D01*
X0413688Y0233815D01*
X0413688Y0243815D01*
X0403688Y0243815D02*
X0403688Y0239815D01*
X0386188Y0239815D01*
X0386188Y0237315D02*
X0381188Y0242315D01*
X0379188Y0242315D02*
X0376188Y0242315D01*
X0381188Y0239815D02*
X0363688Y0239815D01*
X0363688Y0243815D01*
X0353688Y0228815D02*
X0378688Y0228815D01*
X0378688Y0226315D02*
X0388688Y0228815D01*
X0413688Y0228815D01*
X0413688Y0225815D01*
X0418188Y0232315D02*
X0421688Y0232315D01*
X0418188Y0232315D02*
X0418090Y0232317D01*
X0417992Y0232323D01*
X0417894Y0232332D01*
X0417797Y0232346D01*
X0417700Y0232363D01*
X0417604Y0232384D01*
X0417509Y0232409D01*
X0417415Y0232437D01*
X0417323Y0232470D01*
X0417231Y0232505D01*
X0417141Y0232545D01*
X0417053Y0232587D01*
X0416966Y0232634D01*
X0416882Y0232683D01*
X0416799Y0232736D01*
X0416719Y0232792D01*
X0416640Y0232852D01*
X0416564Y0232914D01*
X0416491Y0232979D01*
X0416420Y0233047D01*
X0416352Y0233118D01*
X0416287Y0233191D01*
X0416225Y0233267D01*
X0416165Y0233346D01*
X0416109Y0233426D01*
X0416056Y0233509D01*
X0416007Y0233593D01*
X0415960Y0233680D01*
X0415918Y0233768D01*
X0415878Y0233858D01*
X0415843Y0233950D01*
X0415810Y0234042D01*
X0415782Y0234136D01*
X0415757Y0234231D01*
X0415736Y0234327D01*
X0415719Y0234424D01*
X0415705Y0234521D01*
X0415696Y0234619D01*
X0415690Y0234717D01*
X0415688Y0234815D01*
X0415690Y0234913D01*
X0415696Y0235011D01*
X0415705Y0235109D01*
X0415719Y0235206D01*
X0415736Y0235303D01*
X0415757Y0235399D01*
X0415782Y0235494D01*
X0415810Y0235588D01*
X0415843Y0235680D01*
X0415878Y0235772D01*
X0415918Y0235862D01*
X0415960Y0235950D01*
X0416007Y0236037D01*
X0416056Y0236121D01*
X0416109Y0236204D01*
X0416165Y0236284D01*
X0416225Y0236363D01*
X0416287Y0236439D01*
X0416352Y0236512D01*
X0416420Y0236583D01*
X0416491Y0236651D01*
X0416564Y0236716D01*
X0416640Y0236778D01*
X0416719Y0236838D01*
X0416799Y0236894D01*
X0416882Y0236947D01*
X0416966Y0236996D01*
X0417053Y0237043D01*
X0417141Y0237085D01*
X0417231Y0237125D01*
X0417323Y0237160D01*
X0417415Y0237193D01*
X0417509Y0237221D01*
X0417604Y0237246D01*
X0417700Y0237267D01*
X0417797Y0237284D01*
X0417894Y0237298D01*
X0417992Y0237307D01*
X0418090Y0237313D01*
X0418188Y0237315D01*
X0421688Y0237315D01*
X0428688Y0245815D02*
X0504688Y0245815D01*
X0504688Y0237315D01*
X0504688Y0232315D01*
X0504688Y0223815D01*
X0428688Y0223815D01*
X0428688Y0245815D01*
X0436688Y0243815D02*
X0436688Y0233815D01*
X0461688Y0233815D01*
X0461688Y0231315D02*
X0471688Y0233815D01*
X0496688Y0233815D01*
X0496688Y0243815D01*
X0486688Y0243815D02*
X0486688Y0239815D01*
X0469188Y0239815D01*
X0469188Y0237315D02*
X0464188Y0242315D01*
X0462188Y0242315D02*
X0459188Y0242315D01*
X0464188Y0239815D02*
X0446688Y0239815D01*
X0446688Y0243815D01*
X0436688Y0228815D02*
X0461688Y0228815D01*
X0461688Y0226315D02*
X0471688Y0228815D01*
X0496688Y0228815D01*
X0496688Y0225815D01*
X0501188Y0232315D02*
X0504688Y0232315D01*
X0501188Y0232315D02*
X0501090Y0232317D01*
X0500992Y0232323D01*
X0500894Y0232332D01*
X0500797Y0232346D01*
X0500700Y0232363D01*
X0500604Y0232384D01*
X0500509Y0232409D01*
X0500415Y0232437D01*
X0500323Y0232470D01*
X0500231Y0232505D01*
X0500141Y0232545D01*
X0500053Y0232587D01*
X0499966Y0232634D01*
X0499882Y0232683D01*
X0499799Y0232736D01*
X0499719Y0232792D01*
X0499640Y0232852D01*
X0499564Y0232914D01*
X0499491Y0232979D01*
X0499420Y0233047D01*
X0499352Y0233118D01*
X0499287Y0233191D01*
X0499225Y0233267D01*
X0499165Y0233346D01*
X0499109Y0233426D01*
X0499056Y0233509D01*
X0499007Y0233593D01*
X0498960Y0233680D01*
X0498918Y0233768D01*
X0498878Y0233858D01*
X0498843Y0233950D01*
X0498810Y0234042D01*
X0498782Y0234136D01*
X0498757Y0234231D01*
X0498736Y0234327D01*
X0498719Y0234424D01*
X0498705Y0234521D01*
X0498696Y0234619D01*
X0498690Y0234717D01*
X0498688Y0234815D01*
X0498690Y0234913D01*
X0498696Y0235011D01*
X0498705Y0235109D01*
X0498719Y0235206D01*
X0498736Y0235303D01*
X0498757Y0235399D01*
X0498782Y0235494D01*
X0498810Y0235588D01*
X0498843Y0235680D01*
X0498878Y0235772D01*
X0498918Y0235862D01*
X0498960Y0235950D01*
X0499007Y0236037D01*
X0499056Y0236121D01*
X0499109Y0236204D01*
X0499165Y0236284D01*
X0499225Y0236363D01*
X0499287Y0236439D01*
X0499352Y0236512D01*
X0499420Y0236583D01*
X0499491Y0236651D01*
X0499564Y0236716D01*
X0499640Y0236778D01*
X0499719Y0236838D01*
X0499799Y0236894D01*
X0499882Y0236947D01*
X0499966Y0236996D01*
X0500053Y0237043D01*
X0500141Y0237085D01*
X0500231Y0237125D01*
X0500323Y0237160D01*
X0500415Y0237193D01*
X0500509Y0237221D01*
X0500604Y0237246D01*
X0500700Y0237267D01*
X0500797Y0237284D01*
X0500894Y0237298D01*
X0500992Y0237307D01*
X0501090Y0237313D01*
X0501188Y0237315D01*
X0504688Y0237315D01*
X0529288Y0239465D02*
X0529288Y0240665D01*
X0529288Y0239465D02*
X0543488Y0239465D01*
X0543490Y0239534D01*
X0543496Y0239602D01*
X0543506Y0239670D01*
X0543519Y0239737D01*
X0543537Y0239803D01*
X0543558Y0239868D01*
X0543583Y0239932D01*
X0543611Y0239994D01*
X0543643Y0240055D01*
X0543678Y0240114D01*
X0543717Y0240170D01*
X0543759Y0240225D01*
X0543804Y0240276D01*
X0543852Y0240326D01*
X0543902Y0240372D01*
X0543955Y0240415D01*
X0544011Y0240456D01*
X0544068Y0240493D01*
X0544128Y0240526D01*
X0544190Y0240557D01*
X0544253Y0240583D01*
X0544317Y0240606D01*
X0544383Y0240626D01*
X0544450Y0240641D01*
X0544517Y0240653D01*
X0544585Y0240661D01*
X0544654Y0240665D01*
X0544722Y0240665D01*
X0544791Y0240661D01*
X0544859Y0240653D01*
X0544926Y0240641D01*
X0544993Y0240626D01*
X0545059Y0240606D01*
X0545123Y0240583D01*
X0545186Y0240557D01*
X0545248Y0240526D01*
X0545308Y0240493D01*
X0545365Y0240456D01*
X0545421Y0240415D01*
X0545474Y0240372D01*
X0545524Y0240326D01*
X0545572Y0240276D01*
X0545617Y0240225D01*
X0545659Y0240170D01*
X0545698Y0240114D01*
X0545733Y0240055D01*
X0545765Y0239994D01*
X0545793Y0239932D01*
X0545818Y0239868D01*
X0545839Y0239803D01*
X0545857Y0239737D01*
X0545870Y0239670D01*
X0545880Y0239602D01*
X0545886Y0239534D01*
X0545888Y0239465D01*
X0560088Y0239465D01*
X0560088Y0240665D01*
X0557738Y0243015D02*
X0554238Y0245515D01*
X0554238Y0243015D01*
X0557738Y0243015D01*
X0557644Y0243082D02*
X0554238Y0243082D01*
X0554238Y0243681D02*
X0556806Y0243681D01*
X0555968Y0244279D02*
X0554238Y0244279D01*
X0554238Y0244878D02*
X0555130Y0244878D01*
X0554292Y0245476D02*
X0554238Y0245476D01*
X0524875Y0213368D02*
X0517001Y0213368D01*
X0520188Y0210415D02*
X0522438Y0208915D01*
X0522438Y0211915D01*
X0520188Y0210415D01*
X0520564Y0210164D02*
X0522438Y0210164D01*
X0522438Y0210762D02*
X0520709Y0210762D01*
X0521607Y0211361D02*
X0522438Y0211361D01*
X0522438Y0209565D02*
X0521462Y0209565D01*
X0522360Y0208967D02*
X0522438Y0208967D01*
X0524875Y0207462D02*
X0517001Y0207462D01*
X0529288Y0206915D02*
X0529288Y0205715D01*
X0529288Y0206915D02*
X0560088Y0206915D01*
X0560088Y0205715D01*
X0554238Y0165765D02*
X0557738Y0163265D01*
X0554238Y0163265D01*
X0554238Y0165765D01*
X0554238Y0165276D02*
X0554923Y0165276D01*
X0554238Y0164677D02*
X0555761Y0164677D01*
X0556599Y0164079D02*
X0554238Y0164079D01*
X0554238Y0163480D02*
X0557437Y0163480D01*
X0560088Y0160915D02*
X0560088Y0159715D01*
X0545888Y0159715D01*
X0545886Y0159784D01*
X0545880Y0159852D01*
X0545870Y0159920D01*
X0545857Y0159987D01*
X0545839Y0160053D01*
X0545818Y0160118D01*
X0545793Y0160182D01*
X0545765Y0160244D01*
X0545733Y0160305D01*
X0545698Y0160364D01*
X0545659Y0160420D01*
X0545617Y0160475D01*
X0545572Y0160526D01*
X0545524Y0160576D01*
X0545474Y0160622D01*
X0545421Y0160665D01*
X0545365Y0160706D01*
X0545308Y0160743D01*
X0545248Y0160776D01*
X0545186Y0160807D01*
X0545123Y0160833D01*
X0545059Y0160856D01*
X0544993Y0160876D01*
X0544926Y0160891D01*
X0544859Y0160903D01*
X0544791Y0160911D01*
X0544722Y0160915D01*
X0544654Y0160915D01*
X0544585Y0160911D01*
X0544517Y0160903D01*
X0544450Y0160891D01*
X0544383Y0160876D01*
X0544317Y0160856D01*
X0544253Y0160833D01*
X0544190Y0160807D01*
X0544128Y0160776D01*
X0544068Y0160743D01*
X0544011Y0160706D01*
X0543955Y0160665D01*
X0543902Y0160622D01*
X0543852Y0160576D01*
X0543804Y0160526D01*
X0543759Y0160475D01*
X0543717Y0160420D01*
X0543678Y0160364D01*
X0543643Y0160305D01*
X0543611Y0160244D01*
X0543583Y0160182D01*
X0543558Y0160118D01*
X0543537Y0160053D01*
X0543519Y0159987D01*
X0543506Y0159920D01*
X0543496Y0159852D01*
X0543490Y0159784D01*
X0543488Y0159715D01*
X0529288Y0159715D01*
X0529288Y0160915D01*
X0575838Y0157615D02*
X0575838Y0147415D01*
X0575838Y0151115D02*
X0582338Y0157615D01*
X0579438Y0155615D02*
X0576438Y0155615D01*
X0575838Y0157615D02*
X0601838Y0157615D01*
X0601838Y0147415D01*
X0601838Y0141815D02*
X0601838Y0131615D01*
X0575838Y0131615D01*
X0575838Y0138115D01*
X0582338Y0131615D01*
X0575838Y0138115D02*
X0575838Y0141815D01*
X0577938Y0154115D02*
X0577938Y0157115D01*
X0569138Y0107015D02*
X0567038Y0107015D01*
X0569138Y0107015D02*
X0569138Y0104915D01*
X0569138Y0079715D02*
X0569138Y0077615D01*
X0567038Y0077615D01*
X0541838Y0077615D02*
X0539738Y0077615D01*
X0539738Y0079715D01*
X0539738Y0104915D02*
X0539738Y0107015D01*
X0541838Y0107015D01*
X0539738Y0104915D01*
X0539738Y0105424D02*
X0540247Y0105424D01*
X0539738Y0106023D02*
X0540846Y0106023D01*
X0541444Y0106621D02*
X0539738Y0106621D01*
X0491488Y0105015D02*
X0489888Y0105015D01*
X0489886Y0104946D01*
X0489880Y0104878D01*
X0489870Y0104810D01*
X0489857Y0104743D01*
X0489839Y0104677D01*
X0489818Y0104612D01*
X0489793Y0104548D01*
X0489765Y0104486D01*
X0489733Y0104425D01*
X0489698Y0104366D01*
X0489659Y0104310D01*
X0489617Y0104255D01*
X0489572Y0104204D01*
X0489524Y0104154D01*
X0489474Y0104108D01*
X0489421Y0104065D01*
X0489365Y0104024D01*
X0489308Y0103987D01*
X0489248Y0103954D01*
X0489186Y0103923D01*
X0489123Y0103897D01*
X0489059Y0103874D01*
X0488993Y0103854D01*
X0488926Y0103839D01*
X0488859Y0103827D01*
X0488791Y0103819D01*
X0488722Y0103815D01*
X0488654Y0103815D01*
X0488585Y0103819D01*
X0488517Y0103827D01*
X0488450Y0103839D01*
X0488383Y0103854D01*
X0488317Y0103874D01*
X0488253Y0103897D01*
X0488190Y0103923D01*
X0488128Y0103954D01*
X0488068Y0103987D01*
X0488011Y0104024D01*
X0487955Y0104065D01*
X0487902Y0104108D01*
X0487852Y0104154D01*
X0487804Y0104204D01*
X0487759Y0104255D01*
X0487717Y0104310D01*
X0487678Y0104366D01*
X0487643Y0104425D01*
X0487611Y0104486D01*
X0487583Y0104548D01*
X0487558Y0104612D01*
X0487537Y0104677D01*
X0487519Y0104743D01*
X0487506Y0104810D01*
X0487496Y0104878D01*
X0487490Y0104946D01*
X0487488Y0105015D01*
X0485888Y0105015D01*
X0491488Y0101815D02*
X0491488Y0099815D01*
X0491488Y0096615D02*
X0485888Y0096615D01*
X0483806Y0087865D02*
X0469069Y0087865D01*
X0479188Y0073315D02*
X0482688Y0070815D01*
X0479188Y0070815D01*
X0479188Y0073315D01*
X0479188Y0073105D02*
X0479482Y0073105D01*
X0479188Y0072506D02*
X0480320Y0072506D01*
X0481158Y0071908D02*
X0479188Y0071908D01*
X0479188Y0071309D02*
X0481996Y0071309D01*
X0483806Y0068265D02*
X0477638Y0068265D01*
X0477636Y0068334D01*
X0477630Y0068402D01*
X0477620Y0068470D01*
X0477607Y0068537D01*
X0477589Y0068603D01*
X0477568Y0068668D01*
X0477543Y0068732D01*
X0477515Y0068794D01*
X0477483Y0068855D01*
X0477448Y0068914D01*
X0477409Y0068970D01*
X0477367Y0069025D01*
X0477322Y0069076D01*
X0477274Y0069126D01*
X0477224Y0069172D01*
X0477171Y0069215D01*
X0477115Y0069256D01*
X0477058Y0069293D01*
X0476998Y0069326D01*
X0476936Y0069357D01*
X0476873Y0069383D01*
X0476809Y0069406D01*
X0476743Y0069426D01*
X0476676Y0069441D01*
X0476609Y0069453D01*
X0476541Y0069461D01*
X0476472Y0069465D01*
X0476404Y0069465D01*
X0476335Y0069461D01*
X0476267Y0069453D01*
X0476200Y0069441D01*
X0476133Y0069426D01*
X0476067Y0069406D01*
X0476003Y0069383D01*
X0475940Y0069357D01*
X0475878Y0069326D01*
X0475818Y0069293D01*
X0475761Y0069256D01*
X0475705Y0069215D01*
X0475652Y0069172D01*
X0475602Y0069126D01*
X0475554Y0069076D01*
X0475509Y0069025D01*
X0475467Y0068970D01*
X0475428Y0068914D01*
X0475393Y0068855D01*
X0475361Y0068794D01*
X0475333Y0068732D01*
X0475308Y0068668D01*
X0475287Y0068603D01*
X0475269Y0068537D01*
X0475256Y0068470D01*
X0475246Y0068402D01*
X0475240Y0068334D01*
X0475238Y0068265D01*
X0469069Y0068265D01*
X0417438Y0094215D02*
X0415138Y0094215D01*
X0415136Y0094284D01*
X0415130Y0094352D01*
X0415120Y0094420D01*
X0415107Y0094487D01*
X0415089Y0094553D01*
X0415068Y0094618D01*
X0415043Y0094682D01*
X0415015Y0094744D01*
X0414983Y0094805D01*
X0414948Y0094864D01*
X0414909Y0094920D01*
X0414867Y0094975D01*
X0414822Y0095026D01*
X0414774Y0095076D01*
X0414724Y0095122D01*
X0414671Y0095165D01*
X0414615Y0095206D01*
X0414558Y0095243D01*
X0414498Y0095276D01*
X0414436Y0095307D01*
X0414373Y0095333D01*
X0414309Y0095356D01*
X0414243Y0095376D01*
X0414176Y0095391D01*
X0414109Y0095403D01*
X0414041Y0095411D01*
X0413972Y0095415D01*
X0413904Y0095415D01*
X0413835Y0095411D01*
X0413767Y0095403D01*
X0413700Y0095391D01*
X0413633Y0095376D01*
X0413567Y0095356D01*
X0413503Y0095333D01*
X0413440Y0095307D01*
X0413378Y0095276D01*
X0413318Y0095243D01*
X0413261Y0095206D01*
X0413205Y0095165D01*
X0413152Y0095122D01*
X0413102Y0095076D01*
X0413054Y0095026D01*
X0413009Y0094975D01*
X0412967Y0094920D01*
X0412928Y0094864D01*
X0412893Y0094805D01*
X0412861Y0094744D01*
X0412833Y0094682D01*
X0412808Y0094618D01*
X0412787Y0094553D01*
X0412769Y0094487D01*
X0412756Y0094420D01*
X0412746Y0094352D01*
X0412740Y0094284D01*
X0412738Y0094215D01*
X0410438Y0094215D01*
X0411538Y0094215D02*
X0412738Y0094215D01*
X0412938Y0096565D02*
X0412938Y0098565D01*
X0415938Y0096565D01*
X0412938Y0096565D01*
X0412938Y0097045D02*
X0415217Y0097045D01*
X0414319Y0097644D02*
X0412938Y0097644D01*
X0412938Y0098242D02*
X0413422Y0098242D01*
X0410438Y0099015D02*
X0410438Y0101615D01*
X0410438Y0106415D02*
X0417438Y0106415D01*
X0436688Y0225815D02*
X0436688Y0228815D01*
X0471188Y0242315D02*
X0474188Y0242315D01*
X0472688Y0240815D02*
X0472688Y0243815D01*
X0504688Y0272815D02*
X0428688Y0272815D01*
X0428688Y0294815D01*
X0504688Y0294815D01*
X0504688Y0286315D01*
X0504688Y0281315D01*
X0504688Y0272815D01*
X0496688Y0274815D02*
X0496688Y0277815D01*
X0471688Y0277815D01*
X0461688Y0275315D01*
X0461688Y0277815D02*
X0436688Y0277815D01*
X0436688Y0274815D01*
X0436688Y0282815D02*
X0461688Y0282815D01*
X0461688Y0280315D02*
X0471688Y0282815D01*
X0496688Y0282815D01*
X0496688Y0292815D01*
X0486688Y0292815D02*
X0486688Y0288815D01*
X0469188Y0288815D01*
X0469188Y0286315D02*
X0464188Y0291315D01*
X0462188Y0291315D02*
X0459188Y0291315D01*
X0464188Y0288815D02*
X0446688Y0288815D01*
X0446688Y0292815D01*
X0436688Y0292815D02*
X0436688Y0282815D01*
X0421688Y0281315D02*
X0421688Y0272815D01*
X0345688Y0272815D01*
X0345688Y0294815D01*
X0421688Y0294815D01*
X0421688Y0286315D01*
X0421688Y0281315D01*
X0418188Y0281315D01*
X0418090Y0281317D01*
X0417992Y0281323D01*
X0417894Y0281332D01*
X0417797Y0281346D01*
X0417700Y0281363D01*
X0417604Y0281384D01*
X0417509Y0281409D01*
X0417415Y0281437D01*
X0417323Y0281470D01*
X0417231Y0281505D01*
X0417141Y0281545D01*
X0417053Y0281587D01*
X0416966Y0281634D01*
X0416882Y0281683D01*
X0416799Y0281736D01*
X0416719Y0281792D01*
X0416640Y0281852D01*
X0416564Y0281914D01*
X0416491Y0281979D01*
X0416420Y0282047D01*
X0416352Y0282118D01*
X0416287Y0282191D01*
X0416225Y0282267D01*
X0416165Y0282346D01*
X0416109Y0282426D01*
X0416056Y0282509D01*
X0416007Y0282593D01*
X0415960Y0282680D01*
X0415918Y0282768D01*
X0415878Y0282858D01*
X0415843Y0282950D01*
X0415810Y0283042D01*
X0415782Y0283136D01*
X0415757Y0283231D01*
X0415736Y0283327D01*
X0415719Y0283424D01*
X0415705Y0283521D01*
X0415696Y0283619D01*
X0415690Y0283717D01*
X0415688Y0283815D01*
X0415690Y0283913D01*
X0415696Y0284011D01*
X0415705Y0284109D01*
X0415719Y0284206D01*
X0415736Y0284303D01*
X0415757Y0284399D01*
X0415782Y0284494D01*
X0415810Y0284588D01*
X0415843Y0284680D01*
X0415878Y0284772D01*
X0415918Y0284862D01*
X0415960Y0284950D01*
X0416007Y0285037D01*
X0416056Y0285121D01*
X0416109Y0285204D01*
X0416165Y0285284D01*
X0416225Y0285363D01*
X0416287Y0285439D01*
X0416352Y0285512D01*
X0416420Y0285583D01*
X0416491Y0285651D01*
X0416564Y0285716D01*
X0416640Y0285778D01*
X0416719Y0285838D01*
X0416799Y0285894D01*
X0416882Y0285947D01*
X0416966Y0285996D01*
X0417053Y0286043D01*
X0417141Y0286085D01*
X0417231Y0286125D01*
X0417323Y0286160D01*
X0417415Y0286193D01*
X0417509Y0286221D01*
X0417604Y0286246D01*
X0417700Y0286267D01*
X0417797Y0286284D01*
X0417894Y0286298D01*
X0417992Y0286307D01*
X0418090Y0286313D01*
X0418188Y0286315D01*
X0421688Y0286315D01*
X0413688Y0282815D02*
X0413688Y0292815D01*
X0403688Y0292815D02*
X0403688Y0288815D01*
X0386188Y0288815D01*
X0386188Y0286315D02*
X0381188Y0291315D01*
X0379188Y0291315D02*
X0376188Y0291315D01*
X0381188Y0288815D02*
X0363688Y0288815D01*
X0363688Y0292815D01*
X0353688Y0292815D02*
X0353688Y0282815D01*
X0378688Y0282815D01*
X0378688Y0280315D02*
X0388688Y0282815D01*
X0413688Y0282815D01*
X0413688Y0277815D02*
X0413688Y0274815D01*
X0413688Y0277815D02*
X0388688Y0277815D01*
X0378688Y0275315D01*
X0378688Y0277815D02*
X0353688Y0277815D01*
X0353688Y0274815D01*
X0338688Y0272815D02*
X0262688Y0272815D01*
X0262688Y0294815D01*
X0338688Y0294815D01*
X0338688Y0286315D01*
X0338688Y0281315D01*
X0338688Y0272815D01*
X0330688Y0274815D02*
X0330688Y0277815D01*
X0305688Y0277815D01*
X0295688Y0275315D01*
X0295688Y0277815D02*
X0270688Y0277815D01*
X0270688Y0274815D01*
X0270688Y0282815D02*
X0295688Y0282815D01*
X0295688Y0280315D02*
X0305688Y0282815D01*
X0330688Y0282815D01*
X0330688Y0292815D01*
X0320688Y0292815D02*
X0320688Y0288815D01*
X0303188Y0288815D01*
X0303188Y0286315D02*
X0298188Y0291315D01*
X0296188Y0291315D02*
X0293188Y0291315D01*
X0298188Y0288815D02*
X0280688Y0288815D01*
X0280688Y0292815D01*
X0270688Y0292815D02*
X0270688Y0282815D01*
X0255688Y0281315D02*
X0255688Y0286315D01*
X0255688Y0294815D01*
X0179688Y0294815D01*
X0179688Y0272815D01*
X0255688Y0272815D01*
X0255688Y0281315D01*
X0252188Y0281315D01*
X0252090Y0281317D01*
X0251992Y0281323D01*
X0251894Y0281332D01*
X0251797Y0281346D01*
X0251700Y0281363D01*
X0251604Y0281384D01*
X0251509Y0281409D01*
X0251415Y0281437D01*
X0251323Y0281470D01*
X0251231Y0281505D01*
X0251141Y0281545D01*
X0251053Y0281587D01*
X0250966Y0281634D01*
X0250882Y0281683D01*
X0250799Y0281736D01*
X0250719Y0281792D01*
X0250640Y0281852D01*
X0250564Y0281914D01*
X0250491Y0281979D01*
X0250420Y0282047D01*
X0250352Y0282118D01*
X0250287Y0282191D01*
X0250225Y0282267D01*
X0250165Y0282346D01*
X0250109Y0282426D01*
X0250056Y0282509D01*
X0250007Y0282593D01*
X0249960Y0282680D01*
X0249918Y0282768D01*
X0249878Y0282858D01*
X0249843Y0282950D01*
X0249810Y0283042D01*
X0249782Y0283136D01*
X0249757Y0283231D01*
X0249736Y0283327D01*
X0249719Y0283424D01*
X0249705Y0283521D01*
X0249696Y0283619D01*
X0249690Y0283717D01*
X0249688Y0283815D01*
X0249690Y0283913D01*
X0249696Y0284011D01*
X0249705Y0284109D01*
X0249719Y0284206D01*
X0249736Y0284303D01*
X0249757Y0284399D01*
X0249782Y0284494D01*
X0249810Y0284588D01*
X0249843Y0284680D01*
X0249878Y0284772D01*
X0249918Y0284862D01*
X0249960Y0284950D01*
X0250007Y0285037D01*
X0250056Y0285121D01*
X0250109Y0285204D01*
X0250165Y0285284D01*
X0250225Y0285363D01*
X0250287Y0285439D01*
X0250352Y0285512D01*
X0250420Y0285583D01*
X0250491Y0285651D01*
X0250564Y0285716D01*
X0250640Y0285778D01*
X0250719Y0285838D01*
X0250799Y0285894D01*
X0250882Y0285947D01*
X0250966Y0285996D01*
X0251053Y0286043D01*
X0251141Y0286085D01*
X0251231Y0286125D01*
X0251323Y0286160D01*
X0251415Y0286193D01*
X0251509Y0286221D01*
X0251604Y0286246D01*
X0251700Y0286267D01*
X0251797Y0286284D01*
X0251894Y0286298D01*
X0251992Y0286307D01*
X0252090Y0286313D01*
X0252188Y0286315D01*
X0255688Y0286315D01*
X0247688Y0282815D02*
X0247688Y0292815D01*
X0237688Y0292815D02*
X0237688Y0288815D01*
X0220188Y0288815D01*
X0220188Y0286315D02*
X0215188Y0291315D01*
X0213188Y0291315D02*
X0210188Y0291315D01*
X0215188Y0288815D02*
X0197688Y0288815D01*
X0197688Y0292815D01*
X0187688Y0292815D02*
X0187688Y0282815D01*
X0212688Y0282815D01*
X0212688Y0280315D02*
X0222688Y0282815D01*
X0247688Y0282815D01*
X0247688Y0277815D02*
X0247688Y0274815D01*
X0247688Y0277815D02*
X0222688Y0277815D01*
X0212688Y0275315D01*
X0212688Y0277815D02*
X0187688Y0277815D01*
X0187688Y0274815D01*
X0222188Y0291315D02*
X0225188Y0291315D01*
X0223688Y0289815D02*
X0223688Y0292815D01*
X0255688Y0321815D02*
X0179688Y0321815D01*
X0179688Y0343815D01*
X0255688Y0343815D01*
X0255688Y0335315D01*
X0255688Y0330315D01*
X0255688Y0321815D01*
X0262688Y0321815D02*
X0338688Y0321815D01*
X0338688Y0330315D01*
X0338688Y0335315D01*
X0338688Y0343815D01*
X0262688Y0343815D01*
X0262688Y0321815D01*
X0270688Y0323815D02*
X0270688Y0326815D01*
X0295688Y0326815D01*
X0295688Y0329315D02*
X0305688Y0331815D01*
X0330688Y0331815D01*
X0330688Y0341815D01*
X0320688Y0341815D02*
X0320688Y0337815D01*
X0303188Y0337815D01*
X0303188Y0335315D02*
X0298188Y0340315D01*
X0296188Y0340315D02*
X0293188Y0340315D01*
X0298188Y0337815D02*
X0280688Y0337815D01*
X0280688Y0341815D01*
X0270688Y0341815D02*
X0270688Y0331815D01*
X0295688Y0331815D01*
X0295688Y0324315D02*
X0305688Y0326815D01*
X0330688Y0326815D01*
X0330688Y0323815D01*
X0335188Y0330315D02*
X0338688Y0330315D01*
X0335188Y0330315D02*
X0335090Y0330317D01*
X0334992Y0330323D01*
X0334894Y0330332D01*
X0334797Y0330346D01*
X0334700Y0330363D01*
X0334604Y0330384D01*
X0334509Y0330409D01*
X0334415Y0330437D01*
X0334323Y0330470D01*
X0334231Y0330505D01*
X0334141Y0330545D01*
X0334053Y0330587D01*
X0333966Y0330634D01*
X0333882Y0330683D01*
X0333799Y0330736D01*
X0333719Y0330792D01*
X0333640Y0330852D01*
X0333564Y0330914D01*
X0333491Y0330979D01*
X0333420Y0331047D01*
X0333352Y0331118D01*
X0333287Y0331191D01*
X0333225Y0331267D01*
X0333165Y0331346D01*
X0333109Y0331426D01*
X0333056Y0331509D01*
X0333007Y0331593D01*
X0332960Y0331680D01*
X0332918Y0331768D01*
X0332878Y0331858D01*
X0332843Y0331950D01*
X0332810Y0332042D01*
X0332782Y0332136D01*
X0332757Y0332231D01*
X0332736Y0332327D01*
X0332719Y0332424D01*
X0332705Y0332521D01*
X0332696Y0332619D01*
X0332690Y0332717D01*
X0332688Y0332815D01*
X0332690Y0332913D01*
X0332696Y0333011D01*
X0332705Y0333109D01*
X0332719Y0333206D01*
X0332736Y0333303D01*
X0332757Y0333399D01*
X0332782Y0333494D01*
X0332810Y0333588D01*
X0332843Y0333680D01*
X0332878Y0333772D01*
X0332918Y0333862D01*
X0332960Y0333950D01*
X0333007Y0334037D01*
X0333056Y0334121D01*
X0333109Y0334204D01*
X0333165Y0334284D01*
X0333225Y0334363D01*
X0333287Y0334439D01*
X0333352Y0334512D01*
X0333420Y0334583D01*
X0333491Y0334651D01*
X0333564Y0334716D01*
X0333640Y0334778D01*
X0333719Y0334838D01*
X0333799Y0334894D01*
X0333882Y0334947D01*
X0333966Y0334996D01*
X0334053Y0335043D01*
X0334141Y0335085D01*
X0334231Y0335125D01*
X0334323Y0335160D01*
X0334415Y0335193D01*
X0334509Y0335221D01*
X0334604Y0335246D01*
X0334700Y0335267D01*
X0334797Y0335284D01*
X0334894Y0335298D01*
X0334992Y0335307D01*
X0335090Y0335313D01*
X0335188Y0335315D01*
X0338688Y0335315D01*
X0345688Y0343815D02*
X0421688Y0343815D01*
X0421688Y0335315D01*
X0421688Y0330315D01*
X0421688Y0321815D01*
X0345688Y0321815D01*
X0345688Y0343815D01*
X0353688Y0341815D02*
X0353688Y0331815D01*
X0378688Y0331815D01*
X0378688Y0329315D02*
X0388688Y0331815D01*
X0413688Y0331815D01*
X0413688Y0341815D01*
X0403688Y0341815D02*
X0403688Y0337815D01*
X0386188Y0337815D01*
X0386188Y0335315D02*
X0381188Y0340315D01*
X0379188Y0340315D02*
X0376188Y0340315D01*
X0381188Y0337815D02*
X0363688Y0337815D01*
X0363688Y0341815D01*
X0353688Y0326815D02*
X0378688Y0326815D01*
X0378688Y0324315D02*
X0388688Y0326815D01*
X0413688Y0326815D01*
X0413688Y0323815D01*
X0418188Y0330315D02*
X0421688Y0330315D01*
X0418188Y0330315D02*
X0418090Y0330317D01*
X0417992Y0330323D01*
X0417894Y0330332D01*
X0417797Y0330346D01*
X0417700Y0330363D01*
X0417604Y0330384D01*
X0417509Y0330409D01*
X0417415Y0330437D01*
X0417323Y0330470D01*
X0417231Y0330505D01*
X0417141Y0330545D01*
X0417053Y0330587D01*
X0416966Y0330634D01*
X0416882Y0330683D01*
X0416799Y0330736D01*
X0416719Y0330792D01*
X0416640Y0330852D01*
X0416564Y0330914D01*
X0416491Y0330979D01*
X0416420Y0331047D01*
X0416352Y0331118D01*
X0416287Y0331191D01*
X0416225Y0331267D01*
X0416165Y0331346D01*
X0416109Y0331426D01*
X0416056Y0331509D01*
X0416007Y0331593D01*
X0415960Y0331680D01*
X0415918Y0331768D01*
X0415878Y0331858D01*
X0415843Y0331950D01*
X0415810Y0332042D01*
X0415782Y0332136D01*
X0415757Y0332231D01*
X0415736Y0332327D01*
X0415719Y0332424D01*
X0415705Y0332521D01*
X0415696Y0332619D01*
X0415690Y0332717D01*
X0415688Y0332815D01*
X0415690Y0332913D01*
X0415696Y0333011D01*
X0415705Y0333109D01*
X0415719Y0333206D01*
X0415736Y0333303D01*
X0415757Y0333399D01*
X0415782Y0333494D01*
X0415810Y0333588D01*
X0415843Y0333680D01*
X0415878Y0333772D01*
X0415918Y0333862D01*
X0415960Y0333950D01*
X0416007Y0334037D01*
X0416056Y0334121D01*
X0416109Y0334204D01*
X0416165Y0334284D01*
X0416225Y0334363D01*
X0416287Y0334439D01*
X0416352Y0334512D01*
X0416420Y0334583D01*
X0416491Y0334651D01*
X0416564Y0334716D01*
X0416640Y0334778D01*
X0416719Y0334838D01*
X0416799Y0334894D01*
X0416882Y0334947D01*
X0416966Y0334996D01*
X0417053Y0335043D01*
X0417141Y0335085D01*
X0417231Y0335125D01*
X0417323Y0335160D01*
X0417415Y0335193D01*
X0417509Y0335221D01*
X0417604Y0335246D01*
X0417700Y0335267D01*
X0417797Y0335284D01*
X0417894Y0335298D01*
X0417992Y0335307D01*
X0418090Y0335313D01*
X0418188Y0335315D01*
X0421688Y0335315D01*
X0391188Y0340315D02*
X0388188Y0340315D01*
X0389688Y0338815D02*
X0389688Y0341815D01*
X0353688Y0326815D02*
X0353688Y0323815D01*
X0389688Y0292815D02*
X0389688Y0289815D01*
X0391188Y0291315D02*
X0388188Y0291315D01*
X0338688Y0286315D02*
X0335188Y0286315D01*
X0335090Y0286313D01*
X0334992Y0286307D01*
X0334894Y0286298D01*
X0334797Y0286284D01*
X0334700Y0286267D01*
X0334604Y0286246D01*
X0334509Y0286221D01*
X0334415Y0286193D01*
X0334323Y0286160D01*
X0334231Y0286125D01*
X0334141Y0286085D01*
X0334053Y0286043D01*
X0333966Y0285996D01*
X0333882Y0285947D01*
X0333799Y0285894D01*
X0333719Y0285838D01*
X0333640Y0285778D01*
X0333564Y0285716D01*
X0333491Y0285651D01*
X0333420Y0285583D01*
X0333352Y0285512D01*
X0333287Y0285439D01*
X0333225Y0285363D01*
X0333165Y0285284D01*
X0333109Y0285204D01*
X0333056Y0285121D01*
X0333007Y0285037D01*
X0332960Y0284950D01*
X0332918Y0284862D01*
X0332878Y0284772D01*
X0332843Y0284680D01*
X0332810Y0284588D01*
X0332782Y0284494D01*
X0332757Y0284399D01*
X0332736Y0284303D01*
X0332719Y0284206D01*
X0332705Y0284109D01*
X0332696Y0284011D01*
X0332690Y0283913D01*
X0332688Y0283815D01*
X0332690Y0283717D01*
X0332696Y0283619D01*
X0332705Y0283521D01*
X0332719Y0283424D01*
X0332736Y0283327D01*
X0332757Y0283231D01*
X0332782Y0283136D01*
X0332810Y0283042D01*
X0332843Y0282950D01*
X0332878Y0282858D01*
X0332918Y0282768D01*
X0332960Y0282680D01*
X0333007Y0282593D01*
X0333056Y0282509D01*
X0333109Y0282426D01*
X0333165Y0282346D01*
X0333225Y0282267D01*
X0333287Y0282191D01*
X0333352Y0282118D01*
X0333420Y0282047D01*
X0333491Y0281979D01*
X0333564Y0281914D01*
X0333640Y0281852D01*
X0333719Y0281792D01*
X0333799Y0281736D01*
X0333882Y0281683D01*
X0333966Y0281634D01*
X0334053Y0281587D01*
X0334141Y0281545D01*
X0334231Y0281505D01*
X0334323Y0281470D01*
X0334415Y0281437D01*
X0334509Y0281409D01*
X0334604Y0281384D01*
X0334700Y0281363D01*
X0334797Y0281346D01*
X0334894Y0281332D01*
X0334992Y0281323D01*
X0335090Y0281317D01*
X0335188Y0281315D01*
X0338688Y0281315D01*
X0308188Y0291315D02*
X0305188Y0291315D01*
X0306688Y0289815D02*
X0306688Y0292815D01*
X0255688Y0330315D02*
X0252188Y0330315D01*
X0252090Y0330317D01*
X0251992Y0330323D01*
X0251894Y0330332D01*
X0251797Y0330346D01*
X0251700Y0330363D01*
X0251604Y0330384D01*
X0251509Y0330409D01*
X0251415Y0330437D01*
X0251323Y0330470D01*
X0251231Y0330505D01*
X0251141Y0330545D01*
X0251053Y0330587D01*
X0250966Y0330634D01*
X0250882Y0330683D01*
X0250799Y0330736D01*
X0250719Y0330792D01*
X0250640Y0330852D01*
X0250564Y0330914D01*
X0250491Y0330979D01*
X0250420Y0331047D01*
X0250352Y0331118D01*
X0250287Y0331191D01*
X0250225Y0331267D01*
X0250165Y0331346D01*
X0250109Y0331426D01*
X0250056Y0331509D01*
X0250007Y0331593D01*
X0249960Y0331680D01*
X0249918Y0331768D01*
X0249878Y0331858D01*
X0249843Y0331950D01*
X0249810Y0332042D01*
X0249782Y0332136D01*
X0249757Y0332231D01*
X0249736Y0332327D01*
X0249719Y0332424D01*
X0249705Y0332521D01*
X0249696Y0332619D01*
X0249690Y0332717D01*
X0249688Y0332815D01*
X0249690Y0332913D01*
X0249696Y0333011D01*
X0249705Y0333109D01*
X0249719Y0333206D01*
X0249736Y0333303D01*
X0249757Y0333399D01*
X0249782Y0333494D01*
X0249810Y0333588D01*
X0249843Y0333680D01*
X0249878Y0333772D01*
X0249918Y0333862D01*
X0249960Y0333950D01*
X0250007Y0334037D01*
X0250056Y0334121D01*
X0250109Y0334204D01*
X0250165Y0334284D01*
X0250225Y0334363D01*
X0250287Y0334439D01*
X0250352Y0334512D01*
X0250420Y0334583D01*
X0250491Y0334651D01*
X0250564Y0334716D01*
X0250640Y0334778D01*
X0250719Y0334838D01*
X0250799Y0334894D01*
X0250882Y0334947D01*
X0250966Y0334996D01*
X0251053Y0335043D01*
X0251141Y0335085D01*
X0251231Y0335125D01*
X0251323Y0335160D01*
X0251415Y0335193D01*
X0251509Y0335221D01*
X0251604Y0335246D01*
X0251700Y0335267D01*
X0251797Y0335284D01*
X0251894Y0335298D01*
X0251992Y0335307D01*
X0252090Y0335313D01*
X0252188Y0335315D01*
X0255688Y0335315D01*
X0247688Y0331815D02*
X0247688Y0341815D01*
X0237688Y0341815D02*
X0237688Y0337815D01*
X0220188Y0337815D01*
X0220188Y0335315D02*
X0215188Y0340315D01*
X0213188Y0340315D02*
X0210188Y0340315D01*
X0215188Y0337815D02*
X0197688Y0337815D01*
X0197688Y0341815D01*
X0187688Y0341815D02*
X0187688Y0331815D01*
X0212688Y0331815D01*
X0212688Y0329315D02*
X0222688Y0331815D01*
X0247688Y0331815D01*
X0247688Y0326815D02*
X0247688Y0323815D01*
X0247688Y0326815D02*
X0222688Y0326815D01*
X0212688Y0324315D01*
X0212688Y0326815D02*
X0187688Y0326815D01*
X0187688Y0323815D01*
X0222188Y0340315D02*
X0225188Y0340315D01*
X0223688Y0338815D02*
X0223688Y0341815D01*
X0236420Y0381256D02*
X0236420Y0403303D01*
X0263979Y0403303D01*
X0279727Y0403303D01*
X0307286Y0403303D01*
X0307286Y0381256D01*
X0236420Y0381256D01*
X0263979Y0387555D02*
X0263979Y0403303D01*
X0279727Y0403303D02*
X0279727Y0387555D01*
X0263979Y0387555D01*
X0288501Y0357018D02*
X0296375Y0357018D01*
X0293188Y0354065D02*
X0290938Y0352565D01*
X0290938Y0355565D01*
X0293188Y0354065D01*
X0292800Y0353807D02*
X0290938Y0353807D01*
X0290938Y0354405D02*
X0292677Y0354405D01*
X0291780Y0355004D02*
X0290938Y0355004D01*
X0290938Y0353208D02*
X0291902Y0353208D01*
X0291005Y0352610D02*
X0290938Y0352610D01*
X0288501Y0351112D02*
X0296375Y0351112D01*
X0305251Y0351112D02*
X0313125Y0351112D01*
X0310688Y0352565D02*
X0308438Y0354065D01*
X0310688Y0355565D01*
X0310688Y0352565D01*
X0310688Y0352610D02*
X0310621Y0352610D01*
X0310688Y0353208D02*
X0309723Y0353208D01*
X0308825Y0353807D02*
X0310688Y0353807D01*
X0310688Y0354405D02*
X0308948Y0354405D01*
X0309846Y0355004D02*
X0310688Y0355004D01*
X0313125Y0357018D02*
X0305251Y0357018D01*
X0306688Y0341815D02*
X0306688Y0338815D01*
X0308188Y0340315D02*
X0305188Y0340315D01*
X0315160Y0381256D02*
X0315160Y0403303D01*
X0342719Y0403303D01*
X0358467Y0403303D01*
X0386026Y0403303D01*
X0386026Y0381256D01*
X0315160Y0381256D01*
X0342719Y0387555D02*
X0358467Y0387555D01*
X0358467Y0403303D01*
X0342719Y0403303D02*
X0342719Y0387555D01*
X0472688Y0292815D02*
X0472688Y0289815D01*
X0474188Y0291315D02*
X0471188Y0291315D01*
X0501188Y0286315D02*
X0504688Y0286315D01*
X0501188Y0286315D02*
X0501090Y0286313D01*
X0500992Y0286307D01*
X0500894Y0286298D01*
X0500797Y0286284D01*
X0500700Y0286267D01*
X0500604Y0286246D01*
X0500509Y0286221D01*
X0500415Y0286193D01*
X0500323Y0286160D01*
X0500231Y0286125D01*
X0500141Y0286085D01*
X0500053Y0286043D01*
X0499966Y0285996D01*
X0499882Y0285947D01*
X0499799Y0285894D01*
X0499719Y0285838D01*
X0499640Y0285778D01*
X0499564Y0285716D01*
X0499491Y0285651D01*
X0499420Y0285583D01*
X0499352Y0285512D01*
X0499287Y0285439D01*
X0499225Y0285363D01*
X0499165Y0285284D01*
X0499109Y0285204D01*
X0499056Y0285121D01*
X0499007Y0285037D01*
X0498960Y0284950D01*
X0498918Y0284862D01*
X0498878Y0284772D01*
X0498843Y0284680D01*
X0498810Y0284588D01*
X0498782Y0284494D01*
X0498757Y0284399D01*
X0498736Y0284303D01*
X0498719Y0284206D01*
X0498705Y0284109D01*
X0498696Y0284011D01*
X0498690Y0283913D01*
X0498688Y0283815D01*
X0498690Y0283717D01*
X0498696Y0283619D01*
X0498705Y0283521D01*
X0498719Y0283424D01*
X0498736Y0283327D01*
X0498757Y0283231D01*
X0498782Y0283136D01*
X0498810Y0283042D01*
X0498843Y0282950D01*
X0498878Y0282858D01*
X0498918Y0282768D01*
X0498960Y0282680D01*
X0499007Y0282593D01*
X0499056Y0282509D01*
X0499109Y0282426D01*
X0499165Y0282346D01*
X0499225Y0282267D01*
X0499287Y0282191D01*
X0499352Y0282118D01*
X0499420Y0282047D01*
X0499491Y0281979D01*
X0499564Y0281914D01*
X0499640Y0281852D01*
X0499719Y0281792D01*
X0499799Y0281736D01*
X0499882Y0281683D01*
X0499966Y0281634D01*
X0500053Y0281587D01*
X0500141Y0281545D01*
X0500231Y0281505D01*
X0500323Y0281470D01*
X0500415Y0281437D01*
X0500509Y0281409D01*
X0500604Y0281384D01*
X0500700Y0281363D01*
X0500797Y0281346D01*
X0500894Y0281332D01*
X0500992Y0281323D01*
X0501090Y0281317D01*
X0501188Y0281315D01*
X0504688Y0281315D01*
X0517001Y0287912D02*
X0524875Y0287912D01*
X0522438Y0289365D02*
X0522438Y0292365D01*
X0520188Y0290865D01*
X0522438Y0289365D01*
X0522438Y0289766D02*
X0521836Y0289766D01*
X0522438Y0290364D02*
X0520938Y0290364D01*
X0520335Y0290963D02*
X0522438Y0290963D01*
X0522438Y0291561D02*
X0521232Y0291561D01*
X0522130Y0292160D02*
X0522438Y0292160D01*
X0524875Y0293818D02*
X0517001Y0293818D01*
X0529288Y0286665D02*
X0529288Y0285465D01*
X0529288Y0286665D02*
X0560088Y0286665D01*
X0560088Y0285465D01*
X0520338Y0312915D02*
X0518738Y0312915D01*
X0517138Y0312915D01*
X0517138Y0316415D01*
X0520037Y0314115D02*
X0519969Y0314119D01*
X0519900Y0314118D01*
X0519832Y0314114D01*
X0519764Y0314106D01*
X0519696Y0314095D01*
X0519629Y0314079D01*
X0519563Y0314059D01*
X0519499Y0314036D01*
X0519436Y0314009D01*
X0519374Y0313979D01*
X0519315Y0313945D01*
X0519257Y0313908D01*
X0519202Y0313867D01*
X0519149Y0313824D01*
X0519098Y0313777D01*
X0519051Y0313728D01*
X0519006Y0313676D01*
X0518964Y0313621D01*
X0518925Y0313565D01*
X0518890Y0313506D01*
X0518858Y0313445D01*
X0518830Y0313383D01*
X0518805Y0313318D01*
X0518784Y0313253D01*
X0518767Y0313187D01*
X0518754Y0313119D01*
X0518744Y0313052D01*
X0518739Y0312983D01*
X0518737Y0312915D01*
X0522738Y0317215D02*
X0522738Y0320415D01*
X0520338Y0324715D02*
X0517138Y0324715D01*
X0517138Y0321215D01*
X0391188Y0242315D02*
X0388188Y0242315D01*
X0389688Y0240815D02*
X0389688Y0243815D01*
X0353688Y0228815D02*
X0353688Y0225815D01*
X0308188Y0242315D02*
X0305188Y0242315D01*
X0306688Y0240815D02*
X0306688Y0243815D01*
X0270688Y0228815D02*
X0270688Y0225815D01*
X0184064Y0102981D02*
X0181929Y0101913D01*
X0179793Y0099778D01*
X0182996Y0099778D01*
X0184064Y0098711D01*
X0184064Y0097643D01*
X0182996Y0096576D01*
X0180861Y0096576D01*
X0179793Y0097643D01*
X0179793Y0099778D01*
X0177618Y0096576D02*
X0173348Y0102981D01*
X0177618Y0102981D02*
X0173348Y0096576D01*
X0170575Y0348889D02*
X0168440Y0348889D01*
X0167372Y0349956D01*
X0167372Y0352091D02*
X0169507Y0353159D01*
X0170575Y0353159D01*
X0171642Y0352091D01*
X0171642Y0349956D01*
X0170575Y0348889D01*
X0167372Y0352091D02*
X0167372Y0355294D01*
X0171642Y0355294D01*
X0165197Y0355294D02*
X0160927Y0348889D01*
X0165197Y0348889D02*
X0160927Y0355294D01*
D821*
X0519538Y0283815D02*
X0519538Y0282315D01*
X0520538Y0282315D01*
X0520538Y0283815D01*
X0519538Y0283815D01*
X0519538Y0283762D02*
X0520538Y0283762D01*
X0520538Y0283664D02*
X0519538Y0283664D01*
X0519538Y0283565D02*
X0520538Y0283565D01*
X0520538Y0283467D02*
X0519538Y0283467D01*
X0519538Y0283368D02*
X0520538Y0283368D01*
X0520538Y0283270D02*
X0519538Y0283270D01*
X0519538Y0283171D02*
X0520538Y0283171D01*
X0520538Y0283073D02*
X0519538Y0283073D01*
X0519538Y0282974D02*
X0520538Y0282974D01*
X0520538Y0282876D02*
X0519538Y0282876D01*
X0519538Y0282777D02*
X0520538Y0282777D01*
X0520538Y0282679D02*
X0519538Y0282679D01*
X0519538Y0282580D02*
X0520538Y0282580D01*
X0520538Y0282482D02*
X0519538Y0282482D01*
X0519538Y0282383D02*
X0520538Y0282383D01*
X0520538Y0204065D02*
X0520538Y0202565D01*
X0519538Y0202565D01*
X0519538Y0204065D01*
X0520538Y0204065D01*
X0520538Y0203968D02*
X0519538Y0203968D01*
X0519538Y0203870D02*
X0520538Y0203870D01*
X0520538Y0203771D02*
X0519538Y0203771D01*
X0519538Y0203673D02*
X0520538Y0203673D01*
X0520538Y0203574D02*
X0519538Y0203574D01*
X0519538Y0203476D02*
X0520538Y0203476D01*
X0520538Y0203377D02*
X0519538Y0203377D01*
X0519538Y0203279D02*
X0520538Y0203279D01*
X0520538Y0203180D02*
X0519538Y0203180D01*
X0519538Y0203081D02*
X0520538Y0203081D01*
X0520538Y0202983D02*
X0519538Y0202983D01*
X0519538Y0202884D02*
X0520538Y0202884D01*
X0520538Y0202786D02*
X0519538Y0202786D01*
X0519538Y0202687D02*
X0520538Y0202687D01*
X0520538Y0202589D02*
X0519538Y0202589D01*
X0558609Y0113815D02*
X0560109Y0113815D01*
X0560109Y0112815D01*
X0558609Y0112815D01*
X0558609Y0113815D01*
X0558609Y0113732D02*
X0560109Y0113732D01*
X0560109Y0113633D02*
X0558609Y0113633D01*
X0558609Y0113535D02*
X0560109Y0113535D01*
X0560109Y0113436D02*
X0558609Y0113436D01*
X0558609Y0113338D02*
X0560109Y0113338D01*
X0560109Y0113239D02*
X0558609Y0113239D01*
X0558609Y0113141D02*
X0560109Y0113141D01*
X0560109Y0113042D02*
X0558609Y0113042D01*
X0558609Y0112944D02*
X0560109Y0112944D01*
X0560109Y0112845D02*
X0558609Y0112845D01*
X0574938Y0092081D02*
X0575938Y0092081D01*
X0575938Y0090581D01*
X0574938Y0090581D01*
X0574938Y0092081D01*
X0574938Y0092059D02*
X0575938Y0092059D01*
X0575938Y0091961D02*
X0574938Y0091961D01*
X0574938Y0091862D02*
X0575938Y0091862D01*
X0575938Y0091764D02*
X0574938Y0091764D01*
X0574938Y0091665D02*
X0575938Y0091665D01*
X0575938Y0091567D02*
X0574938Y0091567D01*
X0574938Y0091468D02*
X0575938Y0091468D01*
X0575938Y0091370D02*
X0574938Y0091370D01*
X0574938Y0091271D02*
X0575938Y0091271D01*
X0575938Y0091173D02*
X0574938Y0091173D01*
X0574938Y0091074D02*
X0575938Y0091074D01*
X0575938Y0090976D02*
X0574938Y0090976D01*
X0574938Y0090877D02*
X0575938Y0090877D01*
X0575938Y0090779D02*
X0574938Y0090779D01*
X0574938Y0090680D02*
X0575938Y0090680D01*
X0575938Y0090582D02*
X0574938Y0090582D01*
X0558140Y0071815D02*
X0556640Y0071815D01*
X0556640Y0070815D01*
X0558140Y0070815D01*
X0558140Y0071815D01*
X0558140Y0071766D02*
X0556640Y0071766D01*
X0556640Y0071667D02*
X0558140Y0071667D01*
X0558140Y0071569D02*
X0556640Y0071569D01*
X0556640Y0071470D02*
X0558140Y0071470D01*
X0558140Y0071372D02*
X0556640Y0071372D01*
X0556640Y0071273D02*
X0558140Y0071273D01*
X0558140Y0071175D02*
X0556640Y0071175D01*
X0556640Y0071076D02*
X0558140Y0071076D01*
X0558140Y0070978D02*
X0556640Y0070978D01*
X0556640Y0070879D02*
X0558140Y0070879D01*
X0533938Y0084675D02*
X0533938Y0086175D01*
X0532938Y0086175D01*
X0532938Y0084675D01*
X0533938Y0084675D01*
X0533938Y0084769D02*
X0532938Y0084769D01*
X0532938Y0084868D02*
X0533938Y0084868D01*
X0533938Y0084966D02*
X0532938Y0084966D01*
X0532938Y0085065D02*
X0533938Y0085065D01*
X0533938Y0085163D02*
X0532938Y0085163D01*
X0532938Y0085262D02*
X0533938Y0085262D01*
X0533938Y0085360D02*
X0532938Y0085360D01*
X0532938Y0085459D02*
X0533938Y0085459D01*
X0533938Y0085557D02*
X0532938Y0085557D01*
X0532938Y0085656D02*
X0533938Y0085656D01*
X0533938Y0085755D02*
X0532938Y0085755D01*
X0532938Y0085853D02*
X0533938Y0085853D01*
X0533938Y0085952D02*
X0532938Y0085952D01*
X0532938Y0086050D02*
X0533938Y0086050D01*
X0533938Y0086149D02*
X0532938Y0086149D01*
D822*
X0386188Y0137815D02*
X0386188Y0139315D01*
X0386188Y0141815D01*
X0386188Y0145815D01*
X0381188Y0145815D01*
X0381188Y0144315D01*
X0381188Y0141815D01*
X0381188Y0137815D01*
X0386188Y0137815D01*
X0386188Y0186815D02*
X0381188Y0186815D01*
X0381188Y0190815D01*
X0381188Y0193315D01*
X0381188Y0194815D01*
X0386188Y0194815D01*
X0386188Y0190815D01*
X0386188Y0188315D01*
X0386188Y0186815D01*
X0386188Y0235815D02*
X0381188Y0235815D01*
X0381188Y0239815D01*
X0381188Y0242315D01*
X0381188Y0243815D01*
X0386188Y0243815D01*
X0386188Y0239815D01*
X0386188Y0237315D01*
X0386188Y0235815D01*
X0386188Y0284815D02*
X0381188Y0284815D01*
X0381188Y0288815D01*
X0381188Y0291315D01*
X0381188Y0292815D01*
X0386188Y0292815D01*
X0386188Y0288815D01*
X0386188Y0286315D01*
X0386188Y0284815D01*
X0386188Y0333815D02*
X0381188Y0333815D01*
X0381188Y0337815D01*
X0381188Y0340315D01*
X0381188Y0341815D01*
X0386188Y0341815D01*
X0386188Y0337815D01*
X0386188Y0335315D01*
X0386188Y0333815D01*
X0464188Y0292815D02*
X0464188Y0291315D01*
X0464188Y0288815D01*
X0464188Y0284815D01*
X0469188Y0284815D01*
X0469188Y0286315D01*
X0469188Y0288815D01*
X0469188Y0292815D01*
X0464188Y0292815D01*
X0464188Y0243815D02*
X0464188Y0242315D01*
X0464188Y0239815D01*
X0464188Y0235815D01*
X0469188Y0235815D01*
X0469188Y0237315D01*
X0469188Y0239815D01*
X0469188Y0243815D01*
X0464188Y0243815D01*
X0303188Y0243815D02*
X0303188Y0239815D01*
X0303188Y0237315D01*
X0303188Y0235815D01*
X0298188Y0235815D01*
X0298188Y0239815D01*
X0298188Y0242315D01*
X0298188Y0243815D01*
X0303188Y0243815D01*
X0303188Y0284815D02*
X0298188Y0284815D01*
X0298188Y0288815D01*
X0298188Y0291315D01*
X0298188Y0292815D01*
X0303188Y0292815D01*
X0303188Y0288815D01*
X0303188Y0286315D01*
X0303188Y0284815D01*
X0303188Y0333815D02*
X0298188Y0333815D01*
X0298188Y0337815D01*
X0298188Y0340315D01*
X0298188Y0341815D01*
X0303188Y0341815D01*
X0303188Y0337815D01*
X0303188Y0335315D01*
X0303188Y0333815D01*
X0220188Y0333815D02*
X0220188Y0335315D01*
X0220188Y0337815D01*
X0220188Y0341815D01*
X0215188Y0341815D01*
X0215188Y0340315D01*
X0215188Y0337815D01*
X0215188Y0333815D01*
X0220188Y0333815D01*
X0220188Y0292815D02*
X0215188Y0292815D01*
X0215188Y0291315D01*
X0215188Y0288815D01*
X0215188Y0284815D01*
X0220188Y0284815D01*
X0220188Y0286315D01*
X0220188Y0288815D01*
X0220188Y0292815D01*
X0220188Y0243815D02*
X0215188Y0243815D01*
X0215188Y0242315D01*
X0215188Y0239815D01*
X0215188Y0235815D01*
X0220188Y0235815D01*
X0220188Y0237315D01*
X0220188Y0239815D01*
X0220188Y0243815D01*
X0220188Y0194815D02*
X0215188Y0194815D01*
X0215188Y0193315D01*
X0215188Y0190815D01*
X0215188Y0186815D01*
X0220188Y0186815D01*
X0220188Y0188315D01*
X0220188Y0190815D01*
X0220188Y0194815D01*
X0220188Y0145815D02*
X0215188Y0145815D01*
X0215188Y0144315D01*
X0215188Y0141815D01*
X0215188Y0137815D01*
X0220188Y0137815D01*
X0220188Y0139315D01*
X0220188Y0141815D01*
X0220188Y0145815D01*
X0298188Y0145815D02*
X0298188Y0144315D01*
X0298188Y0141815D01*
X0298188Y0137815D01*
X0303188Y0137815D01*
X0303188Y0139315D01*
X0303188Y0141815D01*
X0303188Y0145815D01*
X0298188Y0145815D01*
X0298188Y0186815D02*
X0298188Y0190815D01*
X0298188Y0193315D01*
X0298188Y0194815D01*
X0303188Y0194815D01*
X0303188Y0190815D01*
X0303188Y0188315D01*
X0303188Y0186815D01*
X0298188Y0186815D01*
D823*
X0519575Y0210415D03*
X0519575Y0290865D03*
X0307825Y0354065D03*
X0293800Y0354065D03*
M02*
