G75*
%MOIN*%
%OFA0B0*%
%FSLAX25Y25*%
%IPPOS*%
%LPD*%
%AMOC8*
5,1,8,0,0,1.08239X$1,22.5*
%
%ADD10C,0.13198*%
%ADD11OC8,0.06506*%
%ADD12R,0.06506X0.06506*%
%ADD13OC8,0.08277*%
%ADD14C,0.08277*%
%ADD15C,0.00500*%
%ADD16OC8,0.07096*%
%ADD17R,0.05324X0.05324*%
%ADD18OC8,0.05324*%
%ADD19OC8,0.06600*%
%ADD20C,0.06600*%
%ADD21C,0.22254*%
D10*
X0137995Y0087673D03*
X0137995Y0418382D03*
D11*
X0309333Y0115232D03*
X0319333Y0115232D03*
X0329333Y0115232D03*
X0339333Y0115232D03*
X0349333Y0115232D03*
X0359333Y0115232D03*
X0369333Y0115232D03*
X0379333Y0115232D03*
X0389333Y0115232D03*
X0399333Y0115232D03*
X0409333Y0115232D03*
X0419333Y0115232D03*
X0429333Y0115232D03*
X0439333Y0115232D03*
X0439333Y0105232D03*
X0429333Y0105232D03*
X0419333Y0105232D03*
X0409333Y0105232D03*
X0399333Y0105232D03*
X0389333Y0105232D03*
X0379333Y0105232D03*
X0369333Y0105232D03*
X0359333Y0105232D03*
X0349333Y0105232D03*
X0339333Y0105232D03*
X0329333Y0105232D03*
X0319333Y0105232D03*
X0596938Y0111270D03*
X0596938Y0121270D03*
X0596938Y0131270D03*
X0596938Y0141270D03*
X0596938Y0151270D03*
X0596938Y0161270D03*
D12*
X0309333Y0105232D03*
D13*
X0166932Y0248441D03*
X0166932Y0374425D03*
D14*
X0166932Y0359425D03*
X0166932Y0344425D03*
X0166932Y0329425D03*
X0166932Y0314425D03*
X0166932Y0299425D03*
X0166932Y0284425D03*
X0166932Y0269425D03*
X0166932Y0233441D03*
X0166932Y0218441D03*
X0166932Y0203441D03*
X0166932Y0188441D03*
X0166932Y0173441D03*
X0166932Y0158441D03*
X0166932Y0143441D03*
X0116932Y0143441D03*
X0116932Y0158441D03*
X0116932Y0173441D03*
X0116932Y0188441D03*
X0116932Y0203441D03*
X0116932Y0218441D03*
X0116932Y0233441D03*
X0116932Y0248441D03*
X0116932Y0269425D03*
X0116932Y0284425D03*
X0116932Y0299425D03*
X0116932Y0314425D03*
X0116932Y0329425D03*
X0116932Y0344425D03*
X0116932Y0359425D03*
X0116932Y0374425D03*
D15*
X0151243Y0425863D02*
X0150529Y0426363D01*
X0149913Y0426979D01*
X0149413Y0427693D01*
X0149044Y0428483D01*
X0148819Y0429325D01*
X0148743Y0430193D01*
X0148819Y0431061D01*
X0149044Y0431903D01*
X0149413Y0432693D01*
X0149913Y0433407D01*
X0150529Y0434023D01*
X0151243Y0434523D01*
X0152033Y0434891D01*
X0152875Y0435117D01*
X0153743Y0435193D01*
X0154611Y0435117D01*
X0155453Y0434891D01*
X0156243Y0434523D01*
X0156957Y0434023D01*
X0157573Y0433407D01*
X0158073Y0432693D01*
X0158441Y0431903D01*
X0158667Y0431061D01*
X0158743Y0430193D01*
X0158667Y0429325D01*
X0158441Y0428483D01*
X0158073Y0427693D01*
X0157573Y0426979D01*
X0156957Y0426363D01*
X0156243Y0425863D01*
X0155453Y0425494D01*
X0154611Y0425269D01*
X0153743Y0425193D01*
X0152875Y0425269D01*
X0152033Y0425494D01*
X0151243Y0425863D01*
X0151126Y0425945D02*
X0156360Y0425945D01*
X0157037Y0426443D02*
X0150448Y0426443D01*
X0149950Y0426942D02*
X0157536Y0426942D01*
X0157896Y0427440D02*
X0149589Y0427440D01*
X0149298Y0427939D02*
X0158188Y0427939D01*
X0158420Y0428437D02*
X0149065Y0428437D01*
X0148923Y0428936D02*
X0158563Y0428936D01*
X0158676Y0429434D02*
X0148809Y0429434D01*
X0148766Y0429933D02*
X0158720Y0429933D01*
X0158722Y0430431D02*
X0148764Y0430431D01*
X0148807Y0430930D02*
X0158678Y0430930D01*
X0158568Y0431428D02*
X0148917Y0431428D01*
X0149055Y0431927D02*
X0158430Y0431927D01*
X0158198Y0432426D02*
X0149288Y0432426D01*
X0149574Y0432924D02*
X0157911Y0432924D01*
X0157557Y0433423D02*
X0149928Y0433423D01*
X0150427Y0433921D02*
X0157059Y0433921D01*
X0156391Y0434420D02*
X0151095Y0434420D01*
X0152132Y0434918D02*
X0155353Y0434918D01*
X0155273Y0425446D02*
X0152212Y0425446D01*
X0105398Y0116219D02*
X0106240Y0115994D01*
X0107030Y0115625D01*
X0107744Y0115125D01*
X0108360Y0114509D01*
X0108860Y0113795D01*
X0109229Y0113005D01*
X0109454Y0112164D01*
X0109530Y0111295D01*
X0109454Y0110427D01*
X0109229Y0109585D01*
X0108860Y0108795D01*
X0108360Y0108081D01*
X0107744Y0107465D01*
X0107030Y0106965D01*
X0106240Y0106597D01*
X0105398Y0106371D01*
X0104530Y0106295D01*
X0103662Y0106371D01*
X0102820Y0106597D01*
X0102030Y0106965D01*
X0101316Y0107465D01*
X0100700Y0108081D01*
X0100200Y0108795D01*
X0099832Y0109585D01*
X0099606Y0110427D01*
X0099530Y0111295D01*
X0099606Y0112164D01*
X0099832Y0113005D01*
X0100200Y0113795D01*
X0100700Y0114509D01*
X0101316Y0115125D01*
X0102030Y0115625D01*
X0102820Y0115994D01*
X0103662Y0116219D01*
X0104530Y0116295D01*
X0105398Y0116219D01*
X0106504Y0115871D02*
X0102556Y0115871D01*
X0101669Y0115372D02*
X0107392Y0115372D01*
X0107996Y0114874D02*
X0101065Y0114874D01*
X0100606Y0114375D02*
X0108454Y0114375D01*
X0108803Y0113877D02*
X0100257Y0113877D01*
X0100006Y0113378D02*
X0109055Y0113378D01*
X0109262Y0112880D02*
X0099798Y0112880D01*
X0099664Y0112381D02*
X0109396Y0112381D01*
X0109479Y0111883D02*
X0099582Y0111883D01*
X0099538Y0111384D02*
X0109522Y0111384D01*
X0109494Y0110886D02*
X0099566Y0110886D01*
X0099617Y0110387D02*
X0109444Y0110387D01*
X0109310Y0109889D02*
X0099750Y0109889D01*
X0099923Y0109390D02*
X0109138Y0109390D01*
X0108905Y0108892D02*
X0100155Y0108892D01*
X0100482Y0108393D02*
X0108579Y0108393D01*
X0108174Y0107895D02*
X0100887Y0107895D01*
X0101415Y0107396D02*
X0107646Y0107396D01*
X0106885Y0106898D02*
X0102175Y0106898D01*
X0103558Y0106399D02*
X0105502Y0106399D01*
X0593625Y0077831D02*
X0593701Y0078699D01*
X0593926Y0079541D01*
X0594295Y0080331D01*
X0594794Y0081045D01*
X0595411Y0081661D01*
X0596125Y0082161D01*
X0596915Y0082529D01*
X0597756Y0082755D01*
X0598625Y0082831D01*
X0599493Y0082755D01*
X0600335Y0082529D01*
X0601125Y0082161D01*
X0601839Y0081661D01*
X0602455Y0081045D01*
X0602955Y0080331D01*
X0603323Y0079541D01*
X0603549Y0078699D01*
X0603625Y0077831D01*
X0603549Y0076962D01*
X0603323Y0076121D01*
X0602955Y0075331D01*
X0602455Y0074617D01*
X0601839Y0074000D01*
X0601125Y0073501D01*
X0600335Y0073132D01*
X0599493Y0072907D01*
X0598625Y0072831D01*
X0597756Y0072907D01*
X0596915Y0073132D01*
X0596125Y0073501D01*
X0595411Y0074000D01*
X0594794Y0074617D01*
X0594295Y0075331D01*
X0593926Y0076121D01*
X0593701Y0076962D01*
X0593625Y0077831D01*
X0593638Y0077984D02*
X0603611Y0077984D01*
X0603594Y0077485D02*
X0593655Y0077485D01*
X0593698Y0076987D02*
X0603551Y0076987D01*
X0603422Y0076488D02*
X0593828Y0076488D01*
X0593987Y0075990D02*
X0603262Y0075990D01*
X0603030Y0075491D02*
X0594220Y0075491D01*
X0594531Y0074993D02*
X0602718Y0074993D01*
X0602332Y0074494D02*
X0594917Y0074494D01*
X0595417Y0073996D02*
X0601832Y0073996D01*
X0601118Y0073497D02*
X0596132Y0073497D01*
X0597412Y0072999D02*
X0599837Y0072999D01*
X0603568Y0078482D02*
X0593682Y0078482D01*
X0593776Y0078981D02*
X0603473Y0078981D01*
X0603340Y0079479D02*
X0593910Y0079479D01*
X0594130Y0079978D02*
X0603119Y0079978D01*
X0602853Y0080477D02*
X0594397Y0080477D01*
X0594746Y0080975D02*
X0602504Y0080975D01*
X0602026Y0081474D02*
X0595223Y0081474D01*
X0595855Y0081972D02*
X0601394Y0081972D01*
X0600460Y0082471D02*
X0596789Y0082471D01*
D16*
X0526438Y0171570D03*
D17*
X0334845Y0404602D03*
X0256105Y0404602D03*
D18*
X0263979Y0404602D03*
X0271853Y0404602D03*
X0279727Y0404602D03*
X0287601Y0404602D03*
X0287601Y0412476D03*
X0279727Y0412476D03*
X0271853Y0412476D03*
X0263979Y0412476D03*
X0256105Y0412476D03*
X0334845Y0412476D03*
X0342719Y0412476D03*
X0350593Y0412476D03*
X0350593Y0404602D03*
X0342719Y0404602D03*
X0358467Y0404602D03*
X0366341Y0404602D03*
X0366341Y0412476D03*
X0358467Y0412476D03*
D19*
X0353688Y0355020D03*
X0330688Y0336020D03*
X0270688Y0355020D03*
X0247688Y0336020D03*
X0187688Y0355020D03*
X0247688Y0287020D03*
X0247688Y0238020D03*
X0247688Y0189020D03*
X0330688Y0189020D03*
X0330688Y0238020D03*
X0330688Y0287020D03*
X0413688Y0287020D03*
X0413688Y0238020D03*
X0413688Y0189020D03*
X0496688Y0287020D03*
X0496688Y0336020D03*
X0413688Y0336020D03*
D20*
X0403688Y0336020D03*
X0403688Y0355020D03*
X0413688Y0355020D03*
X0436688Y0336020D03*
X0446688Y0336020D03*
X0446688Y0306020D03*
X0436688Y0306020D03*
X0436688Y0287020D03*
X0446688Y0287020D03*
X0413688Y0306020D03*
X0403688Y0306020D03*
X0403688Y0287020D03*
X0403688Y0257020D03*
X0413688Y0257020D03*
X0403688Y0238020D03*
X0436688Y0257020D03*
X0446688Y0257020D03*
X0486688Y0257020D03*
X0496688Y0257020D03*
X0486688Y0287020D03*
X0486688Y0306020D03*
X0496688Y0306020D03*
X0486688Y0336020D03*
X0413688Y0385020D03*
X0403688Y0385020D03*
X0363688Y0385020D03*
X0353688Y0385020D03*
X0330688Y0385020D03*
X0320688Y0385020D03*
X0320688Y0355020D03*
X0330688Y0355020D03*
X0320688Y0336020D03*
X0353688Y0336020D03*
X0363688Y0336020D03*
X0363688Y0355020D03*
X0363688Y0306020D03*
X0353688Y0306020D03*
X0353688Y0287020D03*
X0363688Y0287020D03*
X0330688Y0306020D03*
X0320688Y0306020D03*
X0320688Y0287020D03*
X0320688Y0257020D03*
X0330688Y0257020D03*
X0320688Y0238020D03*
X0353688Y0238020D03*
X0363688Y0238020D03*
X0363688Y0257020D03*
X0353688Y0257020D03*
X0353688Y0208020D03*
X0363688Y0208020D03*
X0363688Y0189020D03*
X0353688Y0189020D03*
X0330688Y0208020D03*
X0320688Y0208020D03*
X0320688Y0189020D03*
X0320688Y0159020D03*
X0330688Y0159020D03*
X0353688Y0159020D03*
X0363688Y0159020D03*
X0403688Y0159020D03*
X0413688Y0159020D03*
X0403688Y0189020D03*
X0403688Y0208020D03*
X0413688Y0208020D03*
X0280688Y0208020D03*
X0270688Y0208020D03*
X0270688Y0189020D03*
X0280688Y0189020D03*
X0247688Y0208020D03*
X0237688Y0208020D03*
X0237688Y0189020D03*
X0237688Y0159020D03*
X0247688Y0159020D03*
X0270688Y0159020D03*
X0280688Y0159020D03*
X0197688Y0159020D03*
X0187688Y0159020D03*
X0187688Y0189020D03*
X0197688Y0189020D03*
X0197688Y0208020D03*
X0187688Y0208020D03*
X0187688Y0238020D03*
X0197688Y0238020D03*
X0197688Y0257020D03*
X0187688Y0257020D03*
X0187688Y0287020D03*
X0197688Y0287020D03*
X0197688Y0306020D03*
X0187688Y0306020D03*
X0187688Y0336020D03*
X0197688Y0336020D03*
X0197688Y0355020D03*
X0197688Y0385020D03*
X0187688Y0385020D03*
X0237688Y0385020D03*
X0247688Y0385020D03*
X0270688Y0385020D03*
X0280688Y0385020D03*
X0280688Y0355020D03*
X0280688Y0336020D03*
X0270688Y0336020D03*
X0247688Y0355020D03*
X0237688Y0355020D03*
X0237688Y0336020D03*
X0237688Y0306020D03*
X0247688Y0306020D03*
X0237688Y0287020D03*
X0270688Y0287020D03*
X0280688Y0287020D03*
X0280688Y0306020D03*
X0270688Y0306020D03*
X0270688Y0257020D03*
X0280688Y0257020D03*
X0280688Y0238020D03*
X0270688Y0238020D03*
X0247688Y0257020D03*
X0237688Y0257020D03*
X0237688Y0238020D03*
D21*
X0137995Y0087673D03*
X0137995Y0418382D03*
M02*
