G75*
%MOIN*%
%OFA0B0*%
%FSLAX25Y25*%
%IPPOS*%
%LPD*%
%AMOC8*
5,1,8,0,0,1.08239X$1,22.5*
%
%ADD10OC8,0.05906*%
%ADD11R,0.05906X0.05906*%
%ADD12OC8,0.07677*%
%ADD13C,0.07677*%
%ADD14C,0.00394*%
%ADD15C,0.00402*%
%ADD16C,0.00396*%
%ADD17C,0.00409*%
%ADD18C,0.00390*%
%ADD19C,0.00406*%
%ADD20C,0.04000*%
%ADD21OC8,0.06496*%
%ADD22C,0.00100*%
%ADD23R,0.04724X0.04724*%
%ADD24OC8,0.04724*%
%ADD25OC8,0.06000*%
%ADD26C,0.06000*%
%ADD27C,0.21654*%
%ADD28R,0.03175X0.03175*%
%ADD29C,0.01600*%
%ADD30C,0.00800*%
%ADD31C,0.01200*%
%ADD32C,0.01000*%
%ADD33OC8,0.03175*%
%ADD34C,0.02000*%
%ADD35C,0.02400*%
%ADD36C,0.03200*%
%ADD37OC8,0.02781*%
D10*
X0309333Y0078028D03*
X0319333Y0078028D03*
X0329333Y0078028D03*
X0339333Y0078028D03*
X0349333Y0078028D03*
X0359333Y0078028D03*
X0369333Y0078028D03*
X0379333Y0078028D03*
X0389333Y0078028D03*
X0399333Y0078028D03*
X0409333Y0078028D03*
X0419333Y0078028D03*
X0429333Y0078028D03*
X0439333Y0078028D03*
X0439333Y0068028D03*
X0429333Y0068028D03*
X0419333Y0068028D03*
X0409333Y0068028D03*
X0399333Y0068028D03*
X0389333Y0068028D03*
X0379333Y0068028D03*
X0369333Y0068028D03*
X0359333Y0068028D03*
X0349333Y0068028D03*
X0339333Y0068028D03*
X0329333Y0068028D03*
X0319333Y0068028D03*
X0596938Y0074065D03*
X0596938Y0084065D03*
X0596938Y0094065D03*
X0596938Y0104065D03*
X0596938Y0114065D03*
X0596938Y0124065D03*
D11*
X0309333Y0068028D03*
D12*
X0166932Y0211236D03*
X0166932Y0337220D03*
D13*
X0166932Y0322220D03*
X0166932Y0307220D03*
X0166932Y0292220D03*
X0166932Y0277220D03*
X0166932Y0262220D03*
X0166932Y0247220D03*
X0166932Y0232220D03*
X0166932Y0196236D03*
X0166932Y0181236D03*
X0166932Y0166236D03*
X0166932Y0151236D03*
X0166932Y0136236D03*
X0166932Y0121236D03*
X0166932Y0106236D03*
X0116932Y0106236D03*
X0116932Y0121236D03*
X0116932Y0136236D03*
X0116932Y0151236D03*
X0116932Y0166236D03*
X0116932Y0181236D03*
X0116932Y0196236D03*
X0116932Y0211236D03*
X0116932Y0232220D03*
X0116932Y0247220D03*
X0116932Y0262220D03*
X0116932Y0277220D03*
X0116932Y0292220D03*
X0116932Y0307220D03*
X0116932Y0322220D03*
X0116932Y0337220D03*
D14*
X0285155Y0355836D02*
X0289485Y0355836D01*
X0289485Y0352294D01*
X0285155Y0352294D01*
X0285155Y0355836D01*
X0285155Y0352687D02*
X0289485Y0352687D01*
X0289485Y0353080D02*
X0285155Y0353080D01*
X0285155Y0353473D02*
X0289485Y0353473D01*
X0289485Y0353866D02*
X0285155Y0353866D01*
X0285155Y0354259D02*
X0289485Y0354259D01*
X0289485Y0354652D02*
X0285155Y0354652D01*
X0285155Y0355045D02*
X0289485Y0355045D01*
X0289485Y0355438D02*
X0285155Y0355438D01*
X0285155Y0355831D02*
X0289485Y0355831D01*
X0295391Y0355836D02*
X0299721Y0355836D01*
X0299721Y0352294D01*
X0295391Y0352294D01*
X0295391Y0355836D01*
X0295391Y0352687D02*
X0299721Y0352687D01*
X0299721Y0353080D02*
X0295391Y0353080D01*
X0295391Y0353473D02*
X0299721Y0353473D01*
X0299721Y0353866D02*
X0295391Y0353866D01*
X0295391Y0354259D02*
X0299721Y0354259D01*
X0299721Y0354652D02*
X0295391Y0354652D01*
X0295391Y0355045D02*
X0299721Y0355045D01*
X0299721Y0355438D02*
X0295391Y0355438D01*
X0295391Y0355831D02*
X0299721Y0355831D01*
X0301905Y0352294D02*
X0306235Y0352294D01*
X0301905Y0352294D02*
X0301905Y0355836D01*
X0306235Y0355836D01*
X0306235Y0352294D01*
X0306235Y0352687D02*
X0301905Y0352687D01*
X0301905Y0353080D02*
X0306235Y0353080D01*
X0306235Y0353473D02*
X0301905Y0353473D01*
X0301905Y0353866D02*
X0306235Y0353866D01*
X0306235Y0354259D02*
X0301905Y0354259D01*
X0301905Y0354652D02*
X0306235Y0354652D01*
X0306235Y0355045D02*
X0301905Y0355045D01*
X0301905Y0355438D02*
X0306235Y0355438D01*
X0306235Y0355831D02*
X0301905Y0355831D01*
X0312141Y0352294D02*
X0316471Y0352294D01*
X0312141Y0352294D02*
X0312141Y0355836D01*
X0316471Y0355836D01*
X0316471Y0352294D01*
X0316471Y0352687D02*
X0312141Y0352687D01*
X0312141Y0353080D02*
X0316471Y0353080D01*
X0316471Y0353473D02*
X0312141Y0353473D01*
X0312141Y0353866D02*
X0316471Y0353866D01*
X0316471Y0354259D02*
X0312141Y0354259D01*
X0312141Y0354652D02*
X0316471Y0354652D01*
X0316471Y0355045D02*
X0312141Y0355045D01*
X0312141Y0355438D02*
X0316471Y0355438D01*
X0316471Y0355831D02*
X0312141Y0355831D01*
X0513655Y0289094D02*
X0517985Y0289094D01*
X0513655Y0289094D02*
X0513655Y0292636D01*
X0517985Y0292636D01*
X0517985Y0289094D01*
X0517985Y0289487D02*
X0513655Y0289487D01*
X0513655Y0289880D02*
X0517985Y0289880D01*
X0517985Y0290273D02*
X0513655Y0290273D01*
X0513655Y0290666D02*
X0517985Y0290666D01*
X0517985Y0291059D02*
X0513655Y0291059D01*
X0513655Y0291452D02*
X0517985Y0291452D01*
X0517985Y0291845D02*
X0513655Y0291845D01*
X0513655Y0292238D02*
X0517985Y0292238D01*
X0517985Y0292631D02*
X0513655Y0292631D01*
X0523891Y0289094D02*
X0528221Y0289094D01*
X0523891Y0289094D02*
X0523891Y0292636D01*
X0528221Y0292636D01*
X0528221Y0289094D01*
X0528221Y0289487D02*
X0523891Y0289487D01*
X0523891Y0289880D02*
X0528221Y0289880D01*
X0528221Y0290273D02*
X0523891Y0290273D01*
X0523891Y0290666D02*
X0528221Y0290666D01*
X0528221Y0291059D02*
X0523891Y0291059D01*
X0523891Y0291452D02*
X0528221Y0291452D01*
X0528221Y0291845D02*
X0523891Y0291845D01*
X0523891Y0292238D02*
X0528221Y0292238D01*
X0528221Y0292631D02*
X0523891Y0292631D01*
X0523891Y0208644D02*
X0528221Y0208644D01*
X0523891Y0208644D02*
X0523891Y0212186D01*
X0528221Y0212186D01*
X0528221Y0208644D01*
X0528221Y0209037D02*
X0523891Y0209037D01*
X0523891Y0209430D02*
X0528221Y0209430D01*
X0528221Y0209823D02*
X0523891Y0209823D01*
X0523891Y0210216D02*
X0528221Y0210216D01*
X0528221Y0210609D02*
X0523891Y0210609D01*
X0523891Y0211002D02*
X0528221Y0211002D01*
X0528221Y0211395D02*
X0523891Y0211395D01*
X0523891Y0211788D02*
X0528221Y0211788D01*
X0528221Y0212181D02*
X0523891Y0212181D01*
X0517985Y0208644D02*
X0513655Y0208644D01*
X0513655Y0212186D01*
X0517985Y0212186D01*
X0517985Y0208644D01*
X0517985Y0209037D02*
X0513655Y0209037D01*
X0513655Y0209430D02*
X0517985Y0209430D01*
X0517985Y0209823D02*
X0513655Y0209823D01*
X0513655Y0210216D02*
X0517985Y0210216D01*
X0517985Y0210609D02*
X0513655Y0210609D01*
X0513655Y0211002D02*
X0517985Y0211002D01*
X0517985Y0211395D02*
X0513655Y0211395D01*
X0513655Y0211788D02*
X0517985Y0211788D01*
X0517985Y0212181D02*
X0513655Y0212181D01*
X0522373Y0109594D02*
X0526309Y0109594D01*
X0522373Y0109594D02*
X0522373Y0113136D01*
X0526309Y0113136D01*
X0526309Y0109594D01*
X0526309Y0109987D02*
X0522373Y0109987D01*
X0522373Y0110380D02*
X0526309Y0110380D01*
X0526309Y0110773D02*
X0522373Y0110773D01*
X0522373Y0111166D02*
X0526309Y0111166D01*
X0526309Y0111559D02*
X0522373Y0111559D01*
X0522373Y0111952D02*
X0526309Y0111952D01*
X0526309Y0112345D02*
X0522373Y0112345D01*
X0522373Y0112738D02*
X0526309Y0112738D01*
X0526309Y0113131D02*
X0522373Y0113131D01*
X0529066Y0109594D02*
X0533002Y0109594D01*
X0529066Y0109594D02*
X0529066Y0113136D01*
X0533002Y0113136D01*
X0533002Y0109594D01*
X0533002Y0109987D02*
X0529066Y0109987D01*
X0529066Y0110380D02*
X0533002Y0110380D01*
X0533002Y0110773D02*
X0529066Y0110773D01*
X0529066Y0111166D02*
X0533002Y0111166D01*
X0533002Y0111559D02*
X0529066Y0111559D01*
X0529066Y0111952D02*
X0533002Y0111952D01*
X0533002Y0112345D02*
X0529066Y0112345D01*
X0529066Y0112738D02*
X0533002Y0112738D01*
X0533002Y0113131D02*
X0529066Y0113131D01*
X0509252Y0102044D02*
X0505316Y0102044D01*
X0505316Y0105586D01*
X0509252Y0105586D01*
X0509252Y0102044D01*
X0509252Y0102437D02*
X0505316Y0102437D01*
X0505316Y0102830D02*
X0509252Y0102830D01*
X0509252Y0103223D02*
X0505316Y0103223D01*
X0505316Y0103616D02*
X0509252Y0103616D01*
X0509252Y0104009D02*
X0505316Y0104009D01*
X0505316Y0104402D02*
X0509252Y0104402D01*
X0509252Y0104795D02*
X0505316Y0104795D01*
X0505316Y0105188D02*
X0509252Y0105188D01*
X0509252Y0105581D02*
X0505316Y0105581D01*
X0502559Y0102044D02*
X0498623Y0102044D01*
X0498623Y0105586D01*
X0502559Y0105586D01*
X0502559Y0102044D01*
X0502559Y0102437D02*
X0498623Y0102437D01*
X0498623Y0102830D02*
X0502559Y0102830D01*
X0502559Y0103223D02*
X0498623Y0103223D01*
X0498623Y0103616D02*
X0502559Y0103616D01*
X0502559Y0104009D02*
X0498623Y0104009D01*
X0498623Y0104402D02*
X0502559Y0104402D01*
X0502559Y0104795D02*
X0498623Y0104795D01*
X0498623Y0105188D02*
X0502559Y0105188D01*
X0502559Y0105581D02*
X0498623Y0105581D01*
X0498320Y0081417D02*
X0498320Y0079843D01*
X0498320Y0081417D02*
X0501862Y0081417D01*
X0501862Y0079843D01*
X0498320Y0079843D01*
X0498320Y0080236D02*
X0501862Y0080236D01*
X0501862Y0080629D02*
X0498320Y0080629D01*
X0498320Y0081022D02*
X0501862Y0081022D01*
X0501862Y0081415D02*
X0498320Y0081415D01*
X0498320Y0077874D02*
X0498320Y0076300D01*
X0498320Y0077874D02*
X0501862Y0077874D01*
X0501862Y0076300D01*
X0498320Y0076300D01*
X0498320Y0076693D02*
X0501862Y0076693D01*
X0501862Y0077086D02*
X0498320Y0077086D01*
X0498320Y0077479D02*
X0501862Y0077479D01*
X0501862Y0077872D02*
X0498320Y0077872D01*
X0498320Y0074330D02*
X0498320Y0072756D01*
X0498320Y0074330D02*
X0501862Y0074330D01*
X0501862Y0072756D01*
X0498320Y0072756D01*
X0498320Y0073149D02*
X0501862Y0073149D01*
X0501862Y0073542D02*
X0498320Y0073542D01*
X0498320Y0073935D02*
X0501862Y0073935D01*
X0501862Y0074328D02*
X0498320Y0074328D01*
X0498320Y0070787D02*
X0498320Y0069213D01*
X0498320Y0070787D02*
X0501862Y0070787D01*
X0501862Y0069213D01*
X0498320Y0069213D01*
X0498320Y0069606D02*
X0501862Y0069606D01*
X0501862Y0069999D02*
X0498320Y0069999D01*
X0498320Y0070392D02*
X0501862Y0070392D01*
X0501862Y0070785D02*
X0498320Y0070785D01*
X0505013Y0070787D02*
X0505013Y0069213D01*
X0505013Y0070787D02*
X0508555Y0070787D01*
X0508555Y0069213D01*
X0505013Y0069213D01*
X0505013Y0069606D02*
X0508555Y0069606D01*
X0508555Y0069999D02*
X0505013Y0069999D01*
X0505013Y0070392D02*
X0508555Y0070392D01*
X0508555Y0070785D02*
X0505013Y0070785D01*
X0505013Y0072756D02*
X0505013Y0074330D01*
X0508555Y0074330D01*
X0508555Y0072756D01*
X0505013Y0072756D01*
X0505013Y0073149D02*
X0508555Y0073149D01*
X0508555Y0073542D02*
X0505013Y0073542D01*
X0505013Y0073935D02*
X0508555Y0073935D01*
X0508555Y0074328D02*
X0505013Y0074328D01*
X0505013Y0076300D02*
X0505013Y0077874D01*
X0508555Y0077874D01*
X0508555Y0076300D01*
X0505013Y0076300D01*
X0505013Y0076693D02*
X0508555Y0076693D01*
X0508555Y0077086D02*
X0505013Y0077086D01*
X0505013Y0077479D02*
X0508555Y0077479D01*
X0508555Y0077872D02*
X0505013Y0077872D01*
X0505013Y0079843D02*
X0505013Y0081417D01*
X0508555Y0081417D01*
X0508555Y0079843D01*
X0505013Y0079843D01*
X0505013Y0080236D02*
X0508555Y0080236D01*
X0508555Y0080629D02*
X0505013Y0080629D01*
X0505013Y0081022D02*
X0508555Y0081022D01*
X0508555Y0081415D02*
X0505013Y0081415D01*
X0518373Y0082336D02*
X0522309Y0082336D01*
X0522309Y0078794D01*
X0518373Y0078794D01*
X0518373Y0082336D01*
X0518373Y0079187D02*
X0522309Y0079187D01*
X0522309Y0079580D02*
X0518373Y0079580D01*
X0518373Y0079973D02*
X0522309Y0079973D01*
X0522309Y0080366D02*
X0518373Y0080366D01*
X0518373Y0080759D02*
X0522309Y0080759D01*
X0522309Y0081152D02*
X0518373Y0081152D01*
X0518373Y0081545D02*
X0522309Y0081545D01*
X0522309Y0081938D02*
X0518373Y0081938D01*
X0518373Y0082331D02*
X0522309Y0082331D01*
X0525066Y0082336D02*
X0529002Y0082336D01*
X0529002Y0078794D01*
X0525066Y0078794D01*
X0525066Y0082336D01*
X0525066Y0079187D02*
X0529002Y0079187D01*
X0529002Y0079580D02*
X0525066Y0079580D01*
X0525066Y0079973D02*
X0529002Y0079973D01*
X0529002Y0080366D02*
X0525066Y0080366D01*
X0525066Y0080759D02*
X0529002Y0080759D01*
X0529002Y0081152D02*
X0525066Y0081152D01*
X0525066Y0081545D02*
X0529002Y0081545D01*
X0529002Y0081938D02*
X0525066Y0081938D01*
X0525066Y0082331D02*
X0529002Y0082331D01*
X0569586Y0073682D02*
X0571160Y0073682D01*
X0571160Y0070140D01*
X0569586Y0070140D01*
X0569586Y0073682D01*
X0569586Y0070533D02*
X0571160Y0070533D01*
X0571160Y0070926D02*
X0569586Y0070926D01*
X0569586Y0071319D02*
X0571160Y0071319D01*
X0571160Y0071712D02*
X0569586Y0071712D01*
X0569586Y0072105D02*
X0571160Y0072105D01*
X0571160Y0072498D02*
X0569586Y0072498D01*
X0569586Y0072891D02*
X0571160Y0072891D01*
X0571160Y0073284D02*
X0569586Y0073284D01*
X0569586Y0073677D02*
X0571160Y0073677D01*
X0573129Y0073682D02*
X0574703Y0073682D01*
X0574703Y0070140D01*
X0573129Y0070140D01*
X0573129Y0073682D01*
X0573129Y0070533D02*
X0574703Y0070533D01*
X0574703Y0070926D02*
X0573129Y0070926D01*
X0573129Y0071319D02*
X0574703Y0071319D01*
X0574703Y0071712D02*
X0573129Y0071712D01*
X0573129Y0072105D02*
X0574703Y0072105D01*
X0574703Y0072498D02*
X0573129Y0072498D01*
X0573129Y0072891D02*
X0574703Y0072891D01*
X0574703Y0073284D02*
X0573129Y0073284D01*
X0573129Y0073677D02*
X0574703Y0073677D01*
X0576672Y0073682D02*
X0578246Y0073682D01*
X0578246Y0070140D01*
X0576672Y0070140D01*
X0576672Y0073682D01*
X0576672Y0070533D02*
X0578246Y0070533D01*
X0578246Y0070926D02*
X0576672Y0070926D01*
X0576672Y0071319D02*
X0578246Y0071319D01*
X0578246Y0071712D02*
X0576672Y0071712D01*
X0576672Y0072105D02*
X0578246Y0072105D01*
X0578246Y0072498D02*
X0576672Y0072498D01*
X0576672Y0072891D02*
X0578246Y0072891D01*
X0578246Y0073284D02*
X0576672Y0073284D01*
X0576672Y0073677D02*
X0578246Y0073677D01*
X0580216Y0073682D02*
X0581790Y0073682D01*
X0581790Y0070140D01*
X0580216Y0070140D01*
X0580216Y0073682D01*
X0580216Y0070533D02*
X0581790Y0070533D01*
X0581790Y0070926D02*
X0580216Y0070926D01*
X0580216Y0071319D02*
X0581790Y0071319D01*
X0581790Y0071712D02*
X0580216Y0071712D01*
X0580216Y0072105D02*
X0581790Y0072105D01*
X0581790Y0072498D02*
X0580216Y0072498D01*
X0580216Y0072891D02*
X0581790Y0072891D01*
X0581790Y0073284D02*
X0580216Y0073284D01*
X0580216Y0073677D02*
X0581790Y0073677D01*
X0581790Y0066990D02*
X0580216Y0066990D01*
X0581790Y0066990D02*
X0581790Y0063448D01*
X0580216Y0063448D01*
X0580216Y0066990D01*
X0580216Y0063841D02*
X0581790Y0063841D01*
X0581790Y0064234D02*
X0580216Y0064234D01*
X0580216Y0064627D02*
X0581790Y0064627D01*
X0581790Y0065020D02*
X0580216Y0065020D01*
X0580216Y0065413D02*
X0581790Y0065413D01*
X0581790Y0065806D02*
X0580216Y0065806D01*
X0580216Y0066199D02*
X0581790Y0066199D01*
X0581790Y0066592D02*
X0580216Y0066592D01*
X0580216Y0066985D02*
X0581790Y0066985D01*
X0578246Y0066990D02*
X0576672Y0066990D01*
X0578246Y0066990D02*
X0578246Y0063448D01*
X0576672Y0063448D01*
X0576672Y0066990D01*
X0576672Y0063841D02*
X0578246Y0063841D01*
X0578246Y0064234D02*
X0576672Y0064234D01*
X0576672Y0064627D02*
X0578246Y0064627D01*
X0578246Y0065020D02*
X0576672Y0065020D01*
X0576672Y0065413D02*
X0578246Y0065413D01*
X0578246Y0065806D02*
X0576672Y0065806D01*
X0576672Y0066199D02*
X0578246Y0066199D01*
X0578246Y0066592D02*
X0576672Y0066592D01*
X0576672Y0066985D02*
X0578246Y0066985D01*
X0574703Y0066990D02*
X0573129Y0066990D01*
X0574703Y0066990D02*
X0574703Y0063448D01*
X0573129Y0063448D01*
X0573129Y0066990D01*
X0573129Y0063841D02*
X0574703Y0063841D01*
X0574703Y0064234D02*
X0573129Y0064234D01*
X0573129Y0064627D02*
X0574703Y0064627D01*
X0574703Y0065020D02*
X0573129Y0065020D01*
X0573129Y0065413D02*
X0574703Y0065413D01*
X0574703Y0065806D02*
X0573129Y0065806D01*
X0573129Y0066199D02*
X0574703Y0066199D01*
X0574703Y0066592D02*
X0573129Y0066592D01*
X0573129Y0066985D02*
X0574703Y0066985D01*
X0571160Y0066990D02*
X0569586Y0066990D01*
X0571160Y0066990D02*
X0571160Y0063448D01*
X0569586Y0063448D01*
X0569586Y0066990D01*
X0569586Y0063841D02*
X0571160Y0063841D01*
X0571160Y0064234D02*
X0569586Y0064234D01*
X0569586Y0064627D02*
X0571160Y0064627D01*
X0571160Y0065020D02*
X0569586Y0065020D01*
X0569586Y0065413D02*
X0571160Y0065413D01*
X0571160Y0065806D02*
X0569586Y0065806D01*
X0569586Y0066199D02*
X0571160Y0066199D01*
X0571160Y0066592D02*
X0569586Y0066592D01*
X0569586Y0066985D02*
X0571160Y0066985D01*
X0459502Y0069044D02*
X0455566Y0069044D01*
X0455566Y0072586D01*
X0459502Y0072586D01*
X0459502Y0069044D01*
X0459502Y0069437D02*
X0455566Y0069437D01*
X0455566Y0069830D02*
X0459502Y0069830D01*
X0459502Y0070223D02*
X0455566Y0070223D01*
X0455566Y0070616D02*
X0459502Y0070616D01*
X0459502Y0071009D02*
X0455566Y0071009D01*
X0455566Y0071402D02*
X0459502Y0071402D01*
X0459502Y0071795D02*
X0455566Y0071795D01*
X0455566Y0072188D02*
X0459502Y0072188D01*
X0459502Y0072581D02*
X0455566Y0072581D01*
X0452809Y0069044D02*
X0448873Y0069044D01*
X0448873Y0072586D01*
X0452809Y0072586D01*
X0452809Y0069044D01*
X0452809Y0069437D02*
X0448873Y0069437D01*
X0448873Y0069830D02*
X0452809Y0069830D01*
X0452809Y0070223D02*
X0448873Y0070223D01*
X0448873Y0070616D02*
X0452809Y0070616D01*
X0452809Y0071009D02*
X0448873Y0071009D01*
X0448873Y0071402D02*
X0452809Y0071402D01*
X0452809Y0071795D02*
X0448873Y0071795D01*
X0448873Y0072188D02*
X0452809Y0072188D01*
X0452809Y0072581D02*
X0448873Y0072581D01*
D15*
X0462958Y0071565D02*
X0468658Y0071565D01*
X0468658Y0069605D01*
X0462958Y0069605D01*
X0462958Y0071565D01*
X0462958Y0070006D02*
X0468658Y0070006D01*
X0468658Y0070407D02*
X0462958Y0070407D01*
X0462958Y0070808D02*
X0468658Y0070808D01*
X0468658Y0071209D02*
X0462958Y0071209D01*
X0462958Y0076565D02*
X0468658Y0076565D01*
X0468658Y0074605D01*
X0462958Y0074605D01*
X0462958Y0076565D01*
X0462958Y0075006D02*
X0468658Y0075006D01*
X0468658Y0075407D02*
X0462958Y0075407D01*
X0462958Y0075808D02*
X0468658Y0075808D01*
X0468658Y0076209D02*
X0462958Y0076209D01*
X0462958Y0081565D02*
X0468658Y0081565D01*
X0468658Y0079605D01*
X0462958Y0079605D01*
X0462958Y0081565D01*
X0462958Y0080006D02*
X0468658Y0080006D01*
X0468658Y0080407D02*
X0462958Y0080407D01*
X0462958Y0080808D02*
X0468658Y0080808D01*
X0468658Y0081209D02*
X0462958Y0081209D01*
X0462958Y0086565D02*
X0468658Y0086565D01*
X0468658Y0084605D01*
X0462958Y0084605D01*
X0462958Y0086565D01*
X0462958Y0085006D02*
X0468658Y0085006D01*
X0468658Y0085407D02*
X0462958Y0085407D01*
X0462958Y0085808D02*
X0468658Y0085808D01*
X0468658Y0086209D02*
X0462958Y0086209D01*
X0484218Y0086565D02*
X0489918Y0086565D01*
X0489918Y0084605D01*
X0484218Y0084605D01*
X0484218Y0086565D01*
X0484218Y0085006D02*
X0489918Y0085006D01*
X0489918Y0085407D02*
X0484218Y0085407D01*
X0484218Y0085808D02*
X0489918Y0085808D01*
X0489918Y0086209D02*
X0484218Y0086209D01*
X0484218Y0081565D02*
X0489918Y0081565D01*
X0489918Y0079605D01*
X0484218Y0079605D01*
X0484218Y0081565D01*
X0484218Y0080006D02*
X0489918Y0080006D01*
X0489918Y0080407D02*
X0484218Y0080407D01*
X0484218Y0080808D02*
X0489918Y0080808D01*
X0489918Y0081209D02*
X0484218Y0081209D01*
X0484218Y0076565D02*
X0489918Y0076565D01*
X0489918Y0074605D01*
X0484218Y0074605D01*
X0484218Y0076565D01*
X0484218Y0075006D02*
X0489918Y0075006D01*
X0489918Y0075407D02*
X0484218Y0075407D01*
X0484218Y0075808D02*
X0489918Y0075808D01*
X0489918Y0076209D02*
X0484218Y0076209D01*
X0484218Y0071565D02*
X0489918Y0071565D01*
X0489918Y0069605D01*
X0484218Y0069605D01*
X0484218Y0071565D01*
X0484218Y0070006D02*
X0489918Y0070006D01*
X0489918Y0070407D02*
X0484218Y0070407D01*
X0484218Y0070808D02*
X0489918Y0070808D01*
X0489918Y0071209D02*
X0484218Y0071209D01*
D16*
X0535136Y0081163D02*
X0535136Y0081867D01*
X0540540Y0081867D01*
X0540540Y0081163D01*
X0535136Y0081163D01*
X0535136Y0081558D02*
X0540540Y0081558D01*
X0535136Y0083063D02*
X0535136Y0083767D01*
X0540540Y0083767D01*
X0540540Y0083063D01*
X0535136Y0083063D01*
X0535136Y0083458D02*
X0540540Y0083458D01*
X0535136Y0085063D02*
X0535136Y0085767D01*
X0540540Y0085767D01*
X0540540Y0085063D01*
X0535136Y0085063D01*
X0535136Y0085458D02*
X0540540Y0085458D01*
X0535136Y0087063D02*
X0535136Y0087767D01*
X0540540Y0087767D01*
X0540540Y0087063D01*
X0535136Y0087063D01*
X0535136Y0087458D02*
X0540540Y0087458D01*
X0535136Y0088963D02*
X0535136Y0089667D01*
X0540540Y0089667D01*
X0540540Y0088963D01*
X0535136Y0088963D01*
X0535136Y0089358D02*
X0540540Y0089358D01*
X0535136Y0090963D02*
X0535136Y0091667D01*
X0540540Y0091667D01*
X0540540Y0090963D01*
X0535136Y0090963D01*
X0535136Y0091358D02*
X0540540Y0091358D01*
X0535136Y0092963D02*
X0535136Y0093667D01*
X0540540Y0093667D01*
X0540540Y0092963D01*
X0535136Y0092963D01*
X0535136Y0093358D02*
X0540540Y0093358D01*
X0535136Y0094963D02*
X0535136Y0095667D01*
X0540540Y0095667D01*
X0540540Y0094963D01*
X0535136Y0094963D01*
X0535136Y0095358D02*
X0540540Y0095358D01*
X0535136Y0096863D02*
X0535136Y0097567D01*
X0540540Y0097567D01*
X0540540Y0096863D01*
X0535136Y0096863D01*
X0535136Y0097258D02*
X0540540Y0097258D01*
X0535136Y0098863D02*
X0535136Y0099567D01*
X0540540Y0099567D01*
X0540540Y0098863D01*
X0535136Y0098863D01*
X0535136Y0099258D02*
X0540540Y0099258D01*
X0535136Y0100863D02*
X0535136Y0101567D01*
X0540540Y0101567D01*
X0540540Y0100863D01*
X0535136Y0100863D01*
X0535136Y0101258D02*
X0540540Y0101258D01*
X0535136Y0102763D02*
X0535136Y0103467D01*
X0540540Y0103467D01*
X0540540Y0102763D01*
X0535136Y0102763D01*
X0535136Y0103158D02*
X0540540Y0103158D01*
X0543286Y0111617D02*
X0543990Y0111617D01*
X0543990Y0106213D01*
X0543286Y0106213D01*
X0543286Y0111617D01*
X0543286Y0106608D02*
X0543990Y0106608D01*
X0543990Y0107003D02*
X0543286Y0107003D01*
X0543286Y0107398D02*
X0543990Y0107398D01*
X0543990Y0107793D02*
X0543286Y0107793D01*
X0543286Y0108188D02*
X0543990Y0108188D01*
X0543990Y0108583D02*
X0543286Y0108583D01*
X0543286Y0108978D02*
X0543990Y0108978D01*
X0543990Y0109373D02*
X0543286Y0109373D01*
X0543286Y0109768D02*
X0543990Y0109768D01*
X0543990Y0110163D02*
X0543286Y0110163D01*
X0543286Y0110558D02*
X0543990Y0110558D01*
X0543990Y0110953D02*
X0543286Y0110953D01*
X0543286Y0111348D02*
X0543990Y0111348D01*
X0545186Y0111617D02*
X0545890Y0111617D01*
X0545890Y0106213D01*
X0545186Y0106213D01*
X0545186Y0111617D01*
X0545186Y0106608D02*
X0545890Y0106608D01*
X0545890Y0107003D02*
X0545186Y0107003D01*
X0545186Y0107398D02*
X0545890Y0107398D01*
X0545890Y0107793D02*
X0545186Y0107793D01*
X0545186Y0108188D02*
X0545890Y0108188D01*
X0545890Y0108583D02*
X0545186Y0108583D01*
X0545186Y0108978D02*
X0545890Y0108978D01*
X0545890Y0109373D02*
X0545186Y0109373D01*
X0545186Y0109768D02*
X0545890Y0109768D01*
X0545890Y0110163D02*
X0545186Y0110163D01*
X0545186Y0110558D02*
X0545890Y0110558D01*
X0545890Y0110953D02*
X0545186Y0110953D01*
X0545186Y0111348D02*
X0545890Y0111348D01*
X0547186Y0111617D02*
X0547890Y0111617D01*
X0547890Y0106213D01*
X0547186Y0106213D01*
X0547186Y0111617D01*
X0547186Y0106608D02*
X0547890Y0106608D01*
X0547890Y0107003D02*
X0547186Y0107003D01*
X0547186Y0107398D02*
X0547890Y0107398D01*
X0547890Y0107793D02*
X0547186Y0107793D01*
X0547186Y0108188D02*
X0547890Y0108188D01*
X0547890Y0108583D02*
X0547186Y0108583D01*
X0547186Y0108978D02*
X0547890Y0108978D01*
X0547890Y0109373D02*
X0547186Y0109373D01*
X0547186Y0109768D02*
X0547890Y0109768D01*
X0547890Y0110163D02*
X0547186Y0110163D01*
X0547186Y0110558D02*
X0547890Y0110558D01*
X0547890Y0110953D02*
X0547186Y0110953D01*
X0547186Y0111348D02*
X0547890Y0111348D01*
X0549186Y0111617D02*
X0549890Y0111617D01*
X0549890Y0106213D01*
X0549186Y0106213D01*
X0549186Y0111617D01*
X0549186Y0106608D02*
X0549890Y0106608D01*
X0549890Y0107003D02*
X0549186Y0107003D01*
X0549186Y0107398D02*
X0549890Y0107398D01*
X0549890Y0107793D02*
X0549186Y0107793D01*
X0549186Y0108188D02*
X0549890Y0108188D01*
X0549890Y0108583D02*
X0549186Y0108583D01*
X0549186Y0108978D02*
X0549890Y0108978D01*
X0549890Y0109373D02*
X0549186Y0109373D01*
X0549186Y0109768D02*
X0549890Y0109768D01*
X0549890Y0110163D02*
X0549186Y0110163D01*
X0549186Y0110558D02*
X0549890Y0110558D01*
X0549890Y0110953D02*
X0549186Y0110953D01*
X0549186Y0111348D02*
X0549890Y0111348D01*
X0551086Y0111617D02*
X0551790Y0111617D01*
X0551790Y0106213D01*
X0551086Y0106213D01*
X0551086Y0111617D01*
X0551086Y0106608D02*
X0551790Y0106608D01*
X0551790Y0107003D02*
X0551086Y0107003D01*
X0551086Y0107398D02*
X0551790Y0107398D01*
X0551790Y0107793D02*
X0551086Y0107793D01*
X0551086Y0108188D02*
X0551790Y0108188D01*
X0551790Y0108583D02*
X0551086Y0108583D01*
X0551086Y0108978D02*
X0551790Y0108978D01*
X0551790Y0109373D02*
X0551086Y0109373D01*
X0551086Y0109768D02*
X0551790Y0109768D01*
X0551790Y0110163D02*
X0551086Y0110163D01*
X0551086Y0110558D02*
X0551790Y0110558D01*
X0551790Y0110953D02*
X0551086Y0110953D01*
X0551086Y0111348D02*
X0551790Y0111348D01*
X0553086Y0111617D02*
X0553790Y0111617D01*
X0553790Y0106213D01*
X0553086Y0106213D01*
X0553086Y0111617D01*
X0553086Y0106608D02*
X0553790Y0106608D01*
X0553790Y0107003D02*
X0553086Y0107003D01*
X0553086Y0107398D02*
X0553790Y0107398D01*
X0553790Y0107793D02*
X0553086Y0107793D01*
X0553086Y0108188D02*
X0553790Y0108188D01*
X0553790Y0108583D02*
X0553086Y0108583D01*
X0553086Y0108978D02*
X0553790Y0108978D01*
X0553790Y0109373D02*
X0553086Y0109373D01*
X0553086Y0109768D02*
X0553790Y0109768D01*
X0553790Y0110163D02*
X0553086Y0110163D01*
X0553086Y0110558D02*
X0553790Y0110558D01*
X0553790Y0110953D02*
X0553086Y0110953D01*
X0553086Y0111348D02*
X0553790Y0111348D01*
X0555086Y0111617D02*
X0555790Y0111617D01*
X0555790Y0106213D01*
X0555086Y0106213D01*
X0555086Y0111617D01*
X0555086Y0106608D02*
X0555790Y0106608D01*
X0555790Y0107003D02*
X0555086Y0107003D01*
X0555086Y0107398D02*
X0555790Y0107398D01*
X0555790Y0107793D02*
X0555086Y0107793D01*
X0555086Y0108188D02*
X0555790Y0108188D01*
X0555790Y0108583D02*
X0555086Y0108583D01*
X0555086Y0108978D02*
X0555790Y0108978D01*
X0555790Y0109373D02*
X0555086Y0109373D01*
X0555086Y0109768D02*
X0555790Y0109768D01*
X0555790Y0110163D02*
X0555086Y0110163D01*
X0555086Y0110558D02*
X0555790Y0110558D01*
X0555790Y0110953D02*
X0555086Y0110953D01*
X0555086Y0111348D02*
X0555790Y0111348D01*
X0557086Y0111617D02*
X0557790Y0111617D01*
X0557790Y0106213D01*
X0557086Y0106213D01*
X0557086Y0111617D01*
X0557086Y0106608D02*
X0557790Y0106608D01*
X0557790Y0107003D02*
X0557086Y0107003D01*
X0557086Y0107398D02*
X0557790Y0107398D01*
X0557790Y0107793D02*
X0557086Y0107793D01*
X0557086Y0108188D02*
X0557790Y0108188D01*
X0557790Y0108583D02*
X0557086Y0108583D01*
X0557086Y0108978D02*
X0557790Y0108978D01*
X0557790Y0109373D02*
X0557086Y0109373D01*
X0557086Y0109768D02*
X0557790Y0109768D01*
X0557790Y0110163D02*
X0557086Y0110163D01*
X0557086Y0110558D02*
X0557790Y0110558D01*
X0557790Y0110953D02*
X0557086Y0110953D01*
X0557086Y0111348D02*
X0557790Y0111348D01*
X0558986Y0111617D02*
X0559690Y0111617D01*
X0559690Y0106213D01*
X0558986Y0106213D01*
X0558986Y0111617D01*
X0558986Y0106608D02*
X0559690Y0106608D01*
X0559690Y0107003D02*
X0558986Y0107003D01*
X0558986Y0107398D02*
X0559690Y0107398D01*
X0559690Y0107793D02*
X0558986Y0107793D01*
X0558986Y0108188D02*
X0559690Y0108188D01*
X0559690Y0108583D02*
X0558986Y0108583D01*
X0558986Y0108978D02*
X0559690Y0108978D01*
X0559690Y0109373D02*
X0558986Y0109373D01*
X0558986Y0109768D02*
X0559690Y0109768D01*
X0559690Y0110163D02*
X0558986Y0110163D01*
X0558986Y0110558D02*
X0559690Y0110558D01*
X0559690Y0110953D02*
X0558986Y0110953D01*
X0558986Y0111348D02*
X0559690Y0111348D01*
X0560986Y0111617D02*
X0561690Y0111617D01*
X0561690Y0106213D01*
X0560986Y0106213D01*
X0560986Y0111617D01*
X0560986Y0106608D02*
X0561690Y0106608D01*
X0561690Y0107003D02*
X0560986Y0107003D01*
X0560986Y0107398D02*
X0561690Y0107398D01*
X0561690Y0107793D02*
X0560986Y0107793D01*
X0560986Y0108188D02*
X0561690Y0108188D01*
X0561690Y0108583D02*
X0560986Y0108583D01*
X0560986Y0108978D02*
X0561690Y0108978D01*
X0561690Y0109373D02*
X0560986Y0109373D01*
X0560986Y0109768D02*
X0561690Y0109768D01*
X0561690Y0110163D02*
X0560986Y0110163D01*
X0560986Y0110558D02*
X0561690Y0110558D01*
X0561690Y0110953D02*
X0560986Y0110953D01*
X0560986Y0111348D02*
X0561690Y0111348D01*
X0562986Y0111617D02*
X0563690Y0111617D01*
X0563690Y0106213D01*
X0562986Y0106213D01*
X0562986Y0111617D01*
X0562986Y0106608D02*
X0563690Y0106608D01*
X0563690Y0107003D02*
X0562986Y0107003D01*
X0562986Y0107398D02*
X0563690Y0107398D01*
X0563690Y0107793D02*
X0562986Y0107793D01*
X0562986Y0108188D02*
X0563690Y0108188D01*
X0563690Y0108583D02*
X0562986Y0108583D01*
X0562986Y0108978D02*
X0563690Y0108978D01*
X0563690Y0109373D02*
X0562986Y0109373D01*
X0562986Y0109768D02*
X0563690Y0109768D01*
X0563690Y0110163D02*
X0562986Y0110163D01*
X0562986Y0110558D02*
X0563690Y0110558D01*
X0563690Y0110953D02*
X0562986Y0110953D01*
X0562986Y0111348D02*
X0563690Y0111348D01*
X0564886Y0111617D02*
X0565590Y0111617D01*
X0565590Y0106213D01*
X0564886Y0106213D01*
X0564886Y0111617D01*
X0564886Y0106608D02*
X0565590Y0106608D01*
X0565590Y0107003D02*
X0564886Y0107003D01*
X0564886Y0107398D02*
X0565590Y0107398D01*
X0565590Y0107793D02*
X0564886Y0107793D01*
X0564886Y0108188D02*
X0565590Y0108188D01*
X0565590Y0108583D02*
X0564886Y0108583D01*
X0564886Y0108978D02*
X0565590Y0108978D01*
X0565590Y0109373D02*
X0564886Y0109373D01*
X0564886Y0109768D02*
X0565590Y0109768D01*
X0565590Y0110163D02*
X0564886Y0110163D01*
X0564886Y0110558D02*
X0565590Y0110558D01*
X0565590Y0110953D02*
X0564886Y0110953D01*
X0564886Y0111348D02*
X0565590Y0111348D01*
X0568336Y0103467D02*
X0568336Y0102763D01*
X0568336Y0103467D02*
X0573740Y0103467D01*
X0573740Y0102763D01*
X0568336Y0102763D01*
X0568336Y0103158D02*
X0573740Y0103158D01*
X0568336Y0101567D02*
X0568336Y0100863D01*
X0568336Y0101567D02*
X0573740Y0101567D01*
X0573740Y0100863D01*
X0568336Y0100863D01*
X0568336Y0101258D02*
X0573740Y0101258D01*
X0568336Y0099567D02*
X0568336Y0098863D01*
X0568336Y0099567D02*
X0573740Y0099567D01*
X0573740Y0098863D01*
X0568336Y0098863D01*
X0568336Y0099258D02*
X0573740Y0099258D01*
X0568336Y0097567D02*
X0568336Y0096863D01*
X0568336Y0097567D02*
X0573740Y0097567D01*
X0573740Y0096863D01*
X0568336Y0096863D01*
X0568336Y0097258D02*
X0573740Y0097258D01*
X0568336Y0095667D02*
X0568336Y0094963D01*
X0568336Y0095667D02*
X0573740Y0095667D01*
X0573740Y0094963D01*
X0568336Y0094963D01*
X0568336Y0095358D02*
X0573740Y0095358D01*
X0568336Y0093667D02*
X0568336Y0092963D01*
X0568336Y0093667D02*
X0573740Y0093667D01*
X0573740Y0092963D01*
X0568336Y0092963D01*
X0568336Y0093358D02*
X0573740Y0093358D01*
X0568336Y0091667D02*
X0568336Y0090963D01*
X0568336Y0091667D02*
X0573740Y0091667D01*
X0573740Y0090963D01*
X0568336Y0090963D01*
X0568336Y0091358D02*
X0573740Y0091358D01*
X0568336Y0089667D02*
X0568336Y0088963D01*
X0568336Y0089667D02*
X0573740Y0089667D01*
X0573740Y0088963D01*
X0568336Y0088963D01*
X0568336Y0089358D02*
X0573740Y0089358D01*
X0568336Y0087767D02*
X0568336Y0087063D01*
X0568336Y0087767D02*
X0573740Y0087767D01*
X0573740Y0087063D01*
X0568336Y0087063D01*
X0568336Y0087458D02*
X0573740Y0087458D01*
X0568336Y0085767D02*
X0568336Y0085063D01*
X0568336Y0085767D02*
X0573740Y0085767D01*
X0573740Y0085063D01*
X0568336Y0085063D01*
X0568336Y0085458D02*
X0573740Y0085458D01*
X0568336Y0083767D02*
X0568336Y0083063D01*
X0568336Y0083767D02*
X0573740Y0083767D01*
X0573740Y0083063D01*
X0568336Y0083063D01*
X0568336Y0083458D02*
X0573740Y0083458D01*
X0568336Y0081867D02*
X0568336Y0081163D01*
X0568336Y0081867D02*
X0573740Y0081867D01*
X0573740Y0081163D01*
X0568336Y0081163D01*
X0568336Y0081558D02*
X0573740Y0081558D01*
X0565590Y0078417D02*
X0564886Y0078417D01*
X0565590Y0078417D02*
X0565590Y0073013D01*
X0564886Y0073013D01*
X0564886Y0078417D01*
X0564886Y0073408D02*
X0565590Y0073408D01*
X0565590Y0073803D02*
X0564886Y0073803D01*
X0564886Y0074198D02*
X0565590Y0074198D01*
X0565590Y0074593D02*
X0564886Y0074593D01*
X0564886Y0074988D02*
X0565590Y0074988D01*
X0565590Y0075383D02*
X0564886Y0075383D01*
X0564886Y0075778D02*
X0565590Y0075778D01*
X0565590Y0076173D02*
X0564886Y0076173D01*
X0564886Y0076568D02*
X0565590Y0076568D01*
X0565590Y0076963D02*
X0564886Y0076963D01*
X0564886Y0077358D02*
X0565590Y0077358D01*
X0565590Y0077753D02*
X0564886Y0077753D01*
X0564886Y0078148D02*
X0565590Y0078148D01*
X0563690Y0078417D02*
X0562986Y0078417D01*
X0563690Y0078417D02*
X0563690Y0073013D01*
X0562986Y0073013D01*
X0562986Y0078417D01*
X0562986Y0073408D02*
X0563690Y0073408D01*
X0563690Y0073803D02*
X0562986Y0073803D01*
X0562986Y0074198D02*
X0563690Y0074198D01*
X0563690Y0074593D02*
X0562986Y0074593D01*
X0562986Y0074988D02*
X0563690Y0074988D01*
X0563690Y0075383D02*
X0562986Y0075383D01*
X0562986Y0075778D02*
X0563690Y0075778D01*
X0563690Y0076173D02*
X0562986Y0076173D01*
X0562986Y0076568D02*
X0563690Y0076568D01*
X0563690Y0076963D02*
X0562986Y0076963D01*
X0562986Y0077358D02*
X0563690Y0077358D01*
X0563690Y0077753D02*
X0562986Y0077753D01*
X0562986Y0078148D02*
X0563690Y0078148D01*
X0561690Y0078417D02*
X0560986Y0078417D01*
X0561690Y0078417D02*
X0561690Y0073013D01*
X0560986Y0073013D01*
X0560986Y0078417D01*
X0560986Y0073408D02*
X0561690Y0073408D01*
X0561690Y0073803D02*
X0560986Y0073803D01*
X0560986Y0074198D02*
X0561690Y0074198D01*
X0561690Y0074593D02*
X0560986Y0074593D01*
X0560986Y0074988D02*
X0561690Y0074988D01*
X0561690Y0075383D02*
X0560986Y0075383D01*
X0560986Y0075778D02*
X0561690Y0075778D01*
X0561690Y0076173D02*
X0560986Y0076173D01*
X0560986Y0076568D02*
X0561690Y0076568D01*
X0561690Y0076963D02*
X0560986Y0076963D01*
X0560986Y0077358D02*
X0561690Y0077358D01*
X0561690Y0077753D02*
X0560986Y0077753D01*
X0560986Y0078148D02*
X0561690Y0078148D01*
X0559690Y0078417D02*
X0558986Y0078417D01*
X0559690Y0078417D02*
X0559690Y0073013D01*
X0558986Y0073013D01*
X0558986Y0078417D01*
X0558986Y0073408D02*
X0559690Y0073408D01*
X0559690Y0073803D02*
X0558986Y0073803D01*
X0558986Y0074198D02*
X0559690Y0074198D01*
X0559690Y0074593D02*
X0558986Y0074593D01*
X0558986Y0074988D02*
X0559690Y0074988D01*
X0559690Y0075383D02*
X0558986Y0075383D01*
X0558986Y0075778D02*
X0559690Y0075778D01*
X0559690Y0076173D02*
X0558986Y0076173D01*
X0558986Y0076568D02*
X0559690Y0076568D01*
X0559690Y0076963D02*
X0558986Y0076963D01*
X0558986Y0077358D02*
X0559690Y0077358D01*
X0559690Y0077753D02*
X0558986Y0077753D01*
X0558986Y0078148D02*
X0559690Y0078148D01*
X0557790Y0078417D02*
X0557086Y0078417D01*
X0557790Y0078417D02*
X0557790Y0073013D01*
X0557086Y0073013D01*
X0557086Y0078417D01*
X0557086Y0073408D02*
X0557790Y0073408D01*
X0557790Y0073803D02*
X0557086Y0073803D01*
X0557086Y0074198D02*
X0557790Y0074198D01*
X0557790Y0074593D02*
X0557086Y0074593D01*
X0557086Y0074988D02*
X0557790Y0074988D01*
X0557790Y0075383D02*
X0557086Y0075383D01*
X0557086Y0075778D02*
X0557790Y0075778D01*
X0557790Y0076173D02*
X0557086Y0076173D01*
X0557086Y0076568D02*
X0557790Y0076568D01*
X0557790Y0076963D02*
X0557086Y0076963D01*
X0557086Y0077358D02*
X0557790Y0077358D01*
X0557790Y0077753D02*
X0557086Y0077753D01*
X0557086Y0078148D02*
X0557790Y0078148D01*
X0555790Y0078417D02*
X0555086Y0078417D01*
X0555790Y0078417D02*
X0555790Y0073013D01*
X0555086Y0073013D01*
X0555086Y0078417D01*
X0555086Y0073408D02*
X0555790Y0073408D01*
X0555790Y0073803D02*
X0555086Y0073803D01*
X0555086Y0074198D02*
X0555790Y0074198D01*
X0555790Y0074593D02*
X0555086Y0074593D01*
X0555086Y0074988D02*
X0555790Y0074988D01*
X0555790Y0075383D02*
X0555086Y0075383D01*
X0555086Y0075778D02*
X0555790Y0075778D01*
X0555790Y0076173D02*
X0555086Y0076173D01*
X0555086Y0076568D02*
X0555790Y0076568D01*
X0555790Y0076963D02*
X0555086Y0076963D01*
X0555086Y0077358D02*
X0555790Y0077358D01*
X0555790Y0077753D02*
X0555086Y0077753D01*
X0555086Y0078148D02*
X0555790Y0078148D01*
X0553790Y0078417D02*
X0553086Y0078417D01*
X0553790Y0078417D02*
X0553790Y0073013D01*
X0553086Y0073013D01*
X0553086Y0078417D01*
X0553086Y0073408D02*
X0553790Y0073408D01*
X0553790Y0073803D02*
X0553086Y0073803D01*
X0553086Y0074198D02*
X0553790Y0074198D01*
X0553790Y0074593D02*
X0553086Y0074593D01*
X0553086Y0074988D02*
X0553790Y0074988D01*
X0553790Y0075383D02*
X0553086Y0075383D01*
X0553086Y0075778D02*
X0553790Y0075778D01*
X0553790Y0076173D02*
X0553086Y0076173D01*
X0553086Y0076568D02*
X0553790Y0076568D01*
X0553790Y0076963D02*
X0553086Y0076963D01*
X0553086Y0077358D02*
X0553790Y0077358D01*
X0553790Y0077753D02*
X0553086Y0077753D01*
X0553086Y0078148D02*
X0553790Y0078148D01*
X0551790Y0078417D02*
X0551086Y0078417D01*
X0551790Y0078417D02*
X0551790Y0073013D01*
X0551086Y0073013D01*
X0551086Y0078417D01*
X0551086Y0073408D02*
X0551790Y0073408D01*
X0551790Y0073803D02*
X0551086Y0073803D01*
X0551086Y0074198D02*
X0551790Y0074198D01*
X0551790Y0074593D02*
X0551086Y0074593D01*
X0551086Y0074988D02*
X0551790Y0074988D01*
X0551790Y0075383D02*
X0551086Y0075383D01*
X0551086Y0075778D02*
X0551790Y0075778D01*
X0551790Y0076173D02*
X0551086Y0076173D01*
X0551086Y0076568D02*
X0551790Y0076568D01*
X0551790Y0076963D02*
X0551086Y0076963D01*
X0551086Y0077358D02*
X0551790Y0077358D01*
X0551790Y0077753D02*
X0551086Y0077753D01*
X0551086Y0078148D02*
X0551790Y0078148D01*
X0549890Y0078417D02*
X0549186Y0078417D01*
X0549890Y0078417D02*
X0549890Y0073013D01*
X0549186Y0073013D01*
X0549186Y0078417D01*
X0549186Y0073408D02*
X0549890Y0073408D01*
X0549890Y0073803D02*
X0549186Y0073803D01*
X0549186Y0074198D02*
X0549890Y0074198D01*
X0549890Y0074593D02*
X0549186Y0074593D01*
X0549186Y0074988D02*
X0549890Y0074988D01*
X0549890Y0075383D02*
X0549186Y0075383D01*
X0549186Y0075778D02*
X0549890Y0075778D01*
X0549890Y0076173D02*
X0549186Y0076173D01*
X0549186Y0076568D02*
X0549890Y0076568D01*
X0549890Y0076963D02*
X0549186Y0076963D01*
X0549186Y0077358D02*
X0549890Y0077358D01*
X0549890Y0077753D02*
X0549186Y0077753D01*
X0549186Y0078148D02*
X0549890Y0078148D01*
X0547890Y0078417D02*
X0547186Y0078417D01*
X0547890Y0078417D02*
X0547890Y0073013D01*
X0547186Y0073013D01*
X0547186Y0078417D01*
X0547186Y0073408D02*
X0547890Y0073408D01*
X0547890Y0073803D02*
X0547186Y0073803D01*
X0547186Y0074198D02*
X0547890Y0074198D01*
X0547890Y0074593D02*
X0547186Y0074593D01*
X0547186Y0074988D02*
X0547890Y0074988D01*
X0547890Y0075383D02*
X0547186Y0075383D01*
X0547186Y0075778D02*
X0547890Y0075778D01*
X0547890Y0076173D02*
X0547186Y0076173D01*
X0547186Y0076568D02*
X0547890Y0076568D01*
X0547890Y0076963D02*
X0547186Y0076963D01*
X0547186Y0077358D02*
X0547890Y0077358D01*
X0547890Y0077753D02*
X0547186Y0077753D01*
X0547186Y0078148D02*
X0547890Y0078148D01*
X0545890Y0078417D02*
X0545186Y0078417D01*
X0545890Y0078417D02*
X0545890Y0073013D01*
X0545186Y0073013D01*
X0545186Y0078417D01*
X0545186Y0073408D02*
X0545890Y0073408D01*
X0545890Y0073803D02*
X0545186Y0073803D01*
X0545186Y0074198D02*
X0545890Y0074198D01*
X0545890Y0074593D02*
X0545186Y0074593D01*
X0545186Y0074988D02*
X0545890Y0074988D01*
X0545890Y0075383D02*
X0545186Y0075383D01*
X0545186Y0075778D02*
X0545890Y0075778D01*
X0545890Y0076173D02*
X0545186Y0076173D01*
X0545186Y0076568D02*
X0545890Y0076568D01*
X0545890Y0076963D02*
X0545186Y0076963D01*
X0545186Y0077358D02*
X0545890Y0077358D01*
X0545890Y0077753D02*
X0545186Y0077753D01*
X0545186Y0078148D02*
X0545890Y0078148D01*
X0543990Y0078417D02*
X0543286Y0078417D01*
X0543990Y0078417D02*
X0543990Y0073013D01*
X0543286Y0073013D01*
X0543286Y0078417D01*
X0543286Y0073408D02*
X0543990Y0073408D01*
X0543990Y0073803D02*
X0543286Y0073803D01*
X0543286Y0074198D02*
X0543990Y0074198D01*
X0543990Y0074593D02*
X0543286Y0074593D01*
X0543286Y0074988D02*
X0543990Y0074988D01*
X0543990Y0075383D02*
X0543286Y0075383D01*
X0543286Y0075778D02*
X0543990Y0075778D01*
X0543990Y0076173D02*
X0543286Y0076173D01*
X0543286Y0076568D02*
X0543990Y0076568D01*
X0543990Y0076963D02*
X0543286Y0076963D01*
X0543286Y0077358D02*
X0543990Y0077358D01*
X0543990Y0077753D02*
X0543286Y0077753D01*
X0543286Y0078148D02*
X0543990Y0078148D01*
X0530340Y0164217D02*
X0521736Y0164217D01*
X0530340Y0164217D02*
X0530340Y0162413D01*
X0521736Y0162413D01*
X0521736Y0164217D01*
X0521736Y0162808D02*
X0530340Y0162808D01*
X0530340Y0163203D02*
X0521736Y0163203D01*
X0521736Y0163598D02*
X0530340Y0163598D01*
X0530340Y0163993D02*
X0521736Y0163993D01*
X0521736Y0169217D02*
X0530340Y0169217D01*
X0530340Y0167413D01*
X0521736Y0167413D01*
X0521736Y0169217D01*
X0521736Y0167808D02*
X0530340Y0167808D01*
X0530340Y0168203D02*
X0521736Y0168203D01*
X0521736Y0168598D02*
X0530340Y0168598D01*
X0530340Y0168993D02*
X0521736Y0168993D01*
X0521736Y0174217D02*
X0530340Y0174217D01*
X0530340Y0172413D01*
X0521736Y0172413D01*
X0521736Y0174217D01*
X0521736Y0172808D02*
X0530340Y0172808D01*
X0530340Y0173203D02*
X0521736Y0173203D01*
X0521736Y0173598D02*
X0530340Y0173598D01*
X0530340Y0173993D02*
X0521736Y0173993D01*
X0521736Y0179217D02*
X0530340Y0179217D01*
X0530340Y0177413D01*
X0521736Y0177413D01*
X0521736Y0179217D01*
X0521736Y0177808D02*
X0530340Y0177808D01*
X0530340Y0178203D02*
X0521736Y0178203D01*
X0521736Y0178598D02*
X0530340Y0178598D01*
X0530340Y0178993D02*
X0521736Y0178993D01*
X0521736Y0184217D02*
X0530340Y0184217D01*
X0530340Y0182413D01*
X0521736Y0182413D01*
X0521736Y0184217D01*
X0521736Y0182808D02*
X0530340Y0182808D01*
X0530340Y0183203D02*
X0521736Y0183203D01*
X0521736Y0183598D02*
X0530340Y0183598D01*
X0530340Y0183993D02*
X0521736Y0183993D01*
X0521736Y0189217D02*
X0530340Y0189217D01*
X0530340Y0187413D01*
X0521736Y0187413D01*
X0521736Y0189217D01*
X0521736Y0187808D02*
X0530340Y0187808D01*
X0530340Y0188203D02*
X0521736Y0188203D01*
X0521736Y0188598D02*
X0530340Y0188598D01*
X0530340Y0188993D02*
X0521736Y0188993D01*
X0521736Y0194217D02*
X0530340Y0194217D01*
X0530340Y0192413D01*
X0521736Y0192413D01*
X0521736Y0194217D01*
X0521736Y0192808D02*
X0530340Y0192808D01*
X0530340Y0193203D02*
X0521736Y0193203D01*
X0521736Y0193598D02*
X0530340Y0193598D01*
X0530340Y0193993D02*
X0521736Y0193993D01*
X0521736Y0199217D02*
X0530340Y0199217D01*
X0530340Y0197413D01*
X0521736Y0197413D01*
X0521736Y0199217D01*
X0521736Y0197808D02*
X0530340Y0197808D01*
X0530340Y0198203D02*
X0521736Y0198203D01*
X0521736Y0198598D02*
X0530340Y0198598D01*
X0530340Y0198993D02*
X0521736Y0198993D01*
X0521736Y0204217D02*
X0530340Y0204217D01*
X0530340Y0202413D01*
X0521736Y0202413D01*
X0521736Y0204217D01*
X0521736Y0202808D02*
X0530340Y0202808D01*
X0530340Y0203203D02*
X0521736Y0203203D01*
X0521736Y0203598D02*
X0530340Y0203598D01*
X0530340Y0203993D02*
X0521736Y0203993D01*
X0559036Y0204217D02*
X0567640Y0204217D01*
X0567640Y0202413D01*
X0559036Y0202413D01*
X0559036Y0204217D01*
X0559036Y0202808D02*
X0567640Y0202808D01*
X0567640Y0203203D02*
X0559036Y0203203D01*
X0559036Y0203598D02*
X0567640Y0203598D01*
X0567640Y0203993D02*
X0559036Y0203993D01*
X0559036Y0199217D02*
X0567640Y0199217D01*
X0567640Y0197413D01*
X0559036Y0197413D01*
X0559036Y0199217D01*
X0559036Y0197808D02*
X0567640Y0197808D01*
X0567640Y0198203D02*
X0559036Y0198203D01*
X0559036Y0198598D02*
X0567640Y0198598D01*
X0567640Y0198993D02*
X0559036Y0198993D01*
X0559036Y0194217D02*
X0567640Y0194217D01*
X0567640Y0192413D01*
X0559036Y0192413D01*
X0559036Y0194217D01*
X0559036Y0192808D02*
X0567640Y0192808D01*
X0567640Y0193203D02*
X0559036Y0193203D01*
X0559036Y0193598D02*
X0567640Y0193598D01*
X0567640Y0193993D02*
X0559036Y0193993D01*
X0559036Y0189217D02*
X0567640Y0189217D01*
X0567640Y0187413D01*
X0559036Y0187413D01*
X0559036Y0189217D01*
X0559036Y0187808D02*
X0567640Y0187808D01*
X0567640Y0188203D02*
X0559036Y0188203D01*
X0559036Y0188598D02*
X0567640Y0188598D01*
X0567640Y0188993D02*
X0559036Y0188993D01*
X0559036Y0184217D02*
X0567640Y0184217D01*
X0567640Y0182413D01*
X0559036Y0182413D01*
X0559036Y0184217D01*
X0559036Y0182808D02*
X0567640Y0182808D01*
X0567640Y0183203D02*
X0559036Y0183203D01*
X0559036Y0183598D02*
X0567640Y0183598D01*
X0567640Y0183993D02*
X0559036Y0183993D01*
X0559036Y0179217D02*
X0567640Y0179217D01*
X0567640Y0177413D01*
X0559036Y0177413D01*
X0559036Y0179217D01*
X0559036Y0177808D02*
X0567640Y0177808D01*
X0567640Y0178203D02*
X0559036Y0178203D01*
X0559036Y0178598D02*
X0567640Y0178598D01*
X0567640Y0178993D02*
X0559036Y0178993D01*
X0559036Y0174217D02*
X0567640Y0174217D01*
X0567640Y0172413D01*
X0559036Y0172413D01*
X0559036Y0174217D01*
X0559036Y0172808D02*
X0567640Y0172808D01*
X0567640Y0173203D02*
X0559036Y0173203D01*
X0559036Y0173598D02*
X0567640Y0173598D01*
X0567640Y0173993D02*
X0559036Y0173993D01*
X0559036Y0169217D02*
X0567640Y0169217D01*
X0567640Y0167413D01*
X0559036Y0167413D01*
X0559036Y0169217D01*
X0559036Y0167808D02*
X0567640Y0167808D01*
X0567640Y0168203D02*
X0559036Y0168203D01*
X0559036Y0168598D02*
X0567640Y0168598D01*
X0567640Y0168993D02*
X0559036Y0168993D01*
X0559036Y0164217D02*
X0567640Y0164217D01*
X0567640Y0162413D01*
X0559036Y0162413D01*
X0559036Y0164217D01*
X0559036Y0162808D02*
X0567640Y0162808D01*
X0567640Y0163203D02*
X0559036Y0163203D01*
X0559036Y0163598D02*
X0567640Y0163598D01*
X0567640Y0163993D02*
X0559036Y0163993D01*
X0559036Y0243967D02*
X0567640Y0243967D01*
X0567640Y0242163D01*
X0559036Y0242163D01*
X0559036Y0243967D01*
X0559036Y0242558D02*
X0567640Y0242558D01*
X0567640Y0242953D02*
X0559036Y0242953D01*
X0559036Y0243348D02*
X0567640Y0243348D01*
X0567640Y0243743D02*
X0559036Y0243743D01*
X0559036Y0248967D02*
X0567640Y0248967D01*
X0567640Y0247163D01*
X0559036Y0247163D01*
X0559036Y0248967D01*
X0559036Y0247558D02*
X0567640Y0247558D01*
X0567640Y0247953D02*
X0559036Y0247953D01*
X0559036Y0248348D02*
X0567640Y0248348D01*
X0567640Y0248743D02*
X0559036Y0248743D01*
X0559036Y0253967D02*
X0567640Y0253967D01*
X0567640Y0252163D01*
X0559036Y0252163D01*
X0559036Y0253967D01*
X0559036Y0252558D02*
X0567640Y0252558D01*
X0567640Y0252953D02*
X0559036Y0252953D01*
X0559036Y0253348D02*
X0567640Y0253348D01*
X0567640Y0253743D02*
X0559036Y0253743D01*
X0559036Y0258967D02*
X0567640Y0258967D01*
X0567640Y0257163D01*
X0559036Y0257163D01*
X0559036Y0258967D01*
X0559036Y0257558D02*
X0567640Y0257558D01*
X0567640Y0257953D02*
X0559036Y0257953D01*
X0559036Y0258348D02*
X0567640Y0258348D01*
X0567640Y0258743D02*
X0559036Y0258743D01*
X0559036Y0263967D02*
X0567640Y0263967D01*
X0567640Y0262163D01*
X0559036Y0262163D01*
X0559036Y0263967D01*
X0559036Y0262558D02*
X0567640Y0262558D01*
X0567640Y0262953D02*
X0559036Y0262953D01*
X0559036Y0263348D02*
X0567640Y0263348D01*
X0567640Y0263743D02*
X0559036Y0263743D01*
X0559036Y0268967D02*
X0567640Y0268967D01*
X0567640Y0267163D01*
X0559036Y0267163D01*
X0559036Y0268967D01*
X0559036Y0267558D02*
X0567640Y0267558D01*
X0567640Y0267953D02*
X0559036Y0267953D01*
X0559036Y0268348D02*
X0567640Y0268348D01*
X0567640Y0268743D02*
X0559036Y0268743D01*
X0559036Y0273967D02*
X0567640Y0273967D01*
X0567640Y0272163D01*
X0559036Y0272163D01*
X0559036Y0273967D01*
X0559036Y0272558D02*
X0567640Y0272558D01*
X0567640Y0272953D02*
X0559036Y0272953D01*
X0559036Y0273348D02*
X0567640Y0273348D01*
X0567640Y0273743D02*
X0559036Y0273743D01*
X0559036Y0278967D02*
X0567640Y0278967D01*
X0567640Y0277163D01*
X0559036Y0277163D01*
X0559036Y0278967D01*
X0559036Y0277558D02*
X0567640Y0277558D01*
X0567640Y0277953D02*
X0559036Y0277953D01*
X0559036Y0278348D02*
X0567640Y0278348D01*
X0567640Y0278743D02*
X0559036Y0278743D01*
X0559036Y0283967D02*
X0567640Y0283967D01*
X0567640Y0282163D01*
X0559036Y0282163D01*
X0559036Y0283967D01*
X0559036Y0282558D02*
X0567640Y0282558D01*
X0567640Y0282953D02*
X0559036Y0282953D01*
X0559036Y0283348D02*
X0567640Y0283348D01*
X0567640Y0283743D02*
X0559036Y0283743D01*
X0530340Y0283967D02*
X0521736Y0283967D01*
X0530340Y0283967D02*
X0530340Y0282163D01*
X0521736Y0282163D01*
X0521736Y0283967D01*
X0521736Y0282558D02*
X0530340Y0282558D01*
X0530340Y0282953D02*
X0521736Y0282953D01*
X0521736Y0283348D02*
X0530340Y0283348D01*
X0530340Y0283743D02*
X0521736Y0283743D01*
X0521736Y0278967D02*
X0530340Y0278967D01*
X0530340Y0277163D01*
X0521736Y0277163D01*
X0521736Y0278967D01*
X0521736Y0277558D02*
X0530340Y0277558D01*
X0530340Y0277953D02*
X0521736Y0277953D01*
X0521736Y0278348D02*
X0530340Y0278348D01*
X0530340Y0278743D02*
X0521736Y0278743D01*
X0521736Y0273967D02*
X0530340Y0273967D01*
X0530340Y0272163D01*
X0521736Y0272163D01*
X0521736Y0273967D01*
X0521736Y0272558D02*
X0530340Y0272558D01*
X0530340Y0272953D02*
X0521736Y0272953D01*
X0521736Y0273348D02*
X0530340Y0273348D01*
X0530340Y0273743D02*
X0521736Y0273743D01*
X0521736Y0268967D02*
X0530340Y0268967D01*
X0530340Y0267163D01*
X0521736Y0267163D01*
X0521736Y0268967D01*
X0521736Y0267558D02*
X0530340Y0267558D01*
X0530340Y0267953D02*
X0521736Y0267953D01*
X0521736Y0268348D02*
X0530340Y0268348D01*
X0530340Y0268743D02*
X0521736Y0268743D01*
X0521736Y0263967D02*
X0530340Y0263967D01*
X0530340Y0262163D01*
X0521736Y0262163D01*
X0521736Y0263967D01*
X0521736Y0262558D02*
X0530340Y0262558D01*
X0530340Y0262953D02*
X0521736Y0262953D01*
X0521736Y0263348D02*
X0530340Y0263348D01*
X0530340Y0263743D02*
X0521736Y0263743D01*
X0521736Y0258967D02*
X0530340Y0258967D01*
X0530340Y0257163D01*
X0521736Y0257163D01*
X0521736Y0258967D01*
X0521736Y0257558D02*
X0530340Y0257558D01*
X0530340Y0257953D02*
X0521736Y0257953D01*
X0521736Y0258348D02*
X0530340Y0258348D01*
X0530340Y0258743D02*
X0521736Y0258743D01*
X0521736Y0253967D02*
X0530340Y0253967D01*
X0530340Y0252163D01*
X0521736Y0252163D01*
X0521736Y0253967D01*
X0521736Y0252558D02*
X0530340Y0252558D01*
X0530340Y0252953D02*
X0521736Y0252953D01*
X0521736Y0253348D02*
X0530340Y0253348D01*
X0530340Y0253743D02*
X0521736Y0253743D01*
X0521736Y0248967D02*
X0530340Y0248967D01*
X0530340Y0247163D01*
X0521736Y0247163D01*
X0521736Y0248967D01*
X0521736Y0247558D02*
X0530340Y0247558D01*
X0530340Y0247953D02*
X0521736Y0247953D01*
X0521736Y0248348D02*
X0530340Y0248348D01*
X0530340Y0248743D02*
X0521736Y0248743D01*
X0521736Y0243967D02*
X0530340Y0243967D01*
X0530340Y0242163D01*
X0521736Y0242163D01*
X0521736Y0243967D01*
X0521736Y0242558D02*
X0530340Y0242558D01*
X0530340Y0242953D02*
X0521736Y0242953D01*
X0521736Y0243348D02*
X0530340Y0243348D01*
X0530340Y0243743D02*
X0521736Y0243743D01*
X0521386Y0315717D02*
X0526990Y0315717D01*
X0526990Y0313913D01*
X0521386Y0313913D01*
X0521386Y0315717D01*
X0521386Y0314308D02*
X0526990Y0314308D01*
X0526990Y0314703D02*
X0521386Y0314703D01*
X0521386Y0315098D02*
X0526990Y0315098D01*
X0526990Y0315493D02*
X0521386Y0315493D01*
X0518490Y0319717D02*
X0512886Y0319717D01*
X0518490Y0319717D02*
X0518490Y0317913D01*
X0512886Y0317913D01*
X0512886Y0319717D01*
X0512886Y0318308D02*
X0518490Y0318308D01*
X0518490Y0318703D02*
X0512886Y0318703D01*
X0512886Y0319098D02*
X0518490Y0319098D01*
X0518490Y0319493D02*
X0512886Y0319493D01*
X0521386Y0323717D02*
X0526990Y0323717D01*
X0526990Y0321913D01*
X0521386Y0321913D01*
X0521386Y0323717D01*
X0521386Y0322308D02*
X0526990Y0322308D01*
X0526990Y0322703D02*
X0521386Y0322703D01*
X0521386Y0323098D02*
X0526990Y0323098D01*
X0526990Y0323493D02*
X0521386Y0323493D01*
X0421740Y0104917D02*
X0416936Y0104917D01*
X0421740Y0104917D02*
X0421740Y0103113D01*
X0416936Y0103113D01*
X0416936Y0104917D01*
X0416936Y0103508D02*
X0421740Y0103508D01*
X0421740Y0103903D02*
X0416936Y0103903D01*
X0416936Y0104298D02*
X0421740Y0104298D01*
X0421740Y0104693D02*
X0416936Y0104693D01*
X0416936Y0101217D02*
X0421740Y0101217D01*
X0421740Y0099413D01*
X0416936Y0099413D01*
X0416936Y0101217D01*
X0416936Y0099808D02*
X0421740Y0099808D01*
X0421740Y0100203D02*
X0416936Y0100203D01*
X0416936Y0100598D02*
X0421740Y0100598D01*
X0421740Y0100993D02*
X0416936Y0100993D01*
X0416936Y0097517D02*
X0421740Y0097517D01*
X0421740Y0095713D01*
X0416936Y0095713D01*
X0416936Y0097517D01*
X0416936Y0096108D02*
X0421740Y0096108D01*
X0421740Y0096503D02*
X0416936Y0096503D01*
X0416936Y0096898D02*
X0421740Y0096898D01*
X0421740Y0097293D02*
X0416936Y0097293D01*
X0410940Y0097517D02*
X0406136Y0097517D01*
X0410940Y0097517D02*
X0410940Y0095713D01*
X0406136Y0095713D01*
X0406136Y0097517D01*
X0406136Y0096108D02*
X0410940Y0096108D01*
X0410940Y0096503D02*
X0406136Y0096503D01*
X0406136Y0096898D02*
X0410940Y0096898D01*
X0410940Y0097293D02*
X0406136Y0097293D01*
X0406136Y0104917D02*
X0410940Y0104917D01*
X0410940Y0103113D01*
X0406136Y0103113D01*
X0406136Y0104917D01*
X0406136Y0103508D02*
X0410940Y0103508D01*
X0410940Y0103903D02*
X0406136Y0103903D01*
X0406136Y0104298D02*
X0410940Y0104298D01*
X0410940Y0104693D02*
X0406136Y0104693D01*
D17*
X0402533Y0100316D02*
X0397823Y0100316D01*
X0397823Y0105814D01*
X0402533Y0105814D01*
X0402533Y0100316D01*
X0402533Y0100724D02*
X0397823Y0100724D01*
X0397823Y0101132D02*
X0402533Y0101132D01*
X0402533Y0101540D02*
X0397823Y0101540D01*
X0397823Y0101948D02*
X0402533Y0101948D01*
X0402533Y0102356D02*
X0397823Y0102356D01*
X0397823Y0102764D02*
X0402533Y0102764D01*
X0402533Y0103172D02*
X0397823Y0103172D01*
X0397823Y0103580D02*
X0402533Y0103580D01*
X0402533Y0103988D02*
X0397823Y0103988D01*
X0397823Y0104396D02*
X0402533Y0104396D01*
X0402533Y0104804D02*
X0397823Y0104804D01*
X0397823Y0105212D02*
X0402533Y0105212D01*
X0402533Y0105620D02*
X0397823Y0105620D01*
X0395053Y0100316D02*
X0390343Y0100316D01*
X0390343Y0105814D01*
X0395053Y0105814D01*
X0395053Y0100316D01*
X0395053Y0100724D02*
X0390343Y0100724D01*
X0390343Y0101132D02*
X0395053Y0101132D01*
X0395053Y0101540D02*
X0390343Y0101540D01*
X0390343Y0101948D02*
X0395053Y0101948D01*
X0395053Y0102356D02*
X0390343Y0102356D01*
X0390343Y0102764D02*
X0395053Y0102764D01*
X0395053Y0103172D02*
X0390343Y0103172D01*
X0390343Y0103580D02*
X0395053Y0103580D01*
X0395053Y0103988D02*
X0390343Y0103988D01*
X0390343Y0104396D02*
X0395053Y0104396D01*
X0395053Y0104804D02*
X0390343Y0104804D01*
X0390343Y0105212D02*
X0395053Y0105212D01*
X0395053Y0105620D02*
X0390343Y0105620D01*
X0390343Y0098064D02*
X0395053Y0098064D01*
X0395053Y0092566D01*
X0390343Y0092566D01*
X0390343Y0098064D01*
X0390343Y0092974D02*
X0395053Y0092974D01*
X0395053Y0093382D02*
X0390343Y0093382D01*
X0390343Y0093790D02*
X0395053Y0093790D01*
X0395053Y0094198D02*
X0390343Y0094198D01*
X0390343Y0094606D02*
X0395053Y0094606D01*
X0395053Y0095014D02*
X0390343Y0095014D01*
X0390343Y0095422D02*
X0395053Y0095422D01*
X0395053Y0095830D02*
X0390343Y0095830D01*
X0390343Y0096238D02*
X0395053Y0096238D01*
X0395053Y0096646D02*
X0390343Y0096646D01*
X0390343Y0097054D02*
X0395053Y0097054D01*
X0395053Y0097462D02*
X0390343Y0097462D01*
X0390343Y0097870D02*
X0395053Y0097870D01*
X0397823Y0098064D02*
X0402533Y0098064D01*
X0402533Y0092566D01*
X0397823Y0092566D01*
X0397823Y0098064D01*
X0397823Y0092974D02*
X0402533Y0092974D01*
X0402533Y0093382D02*
X0397823Y0093382D01*
X0397823Y0093790D02*
X0402533Y0093790D01*
X0402533Y0094198D02*
X0397823Y0094198D01*
X0397823Y0094606D02*
X0402533Y0094606D01*
X0402533Y0095014D02*
X0397823Y0095014D01*
X0397823Y0095422D02*
X0402533Y0095422D01*
X0402533Y0095830D02*
X0397823Y0095830D01*
X0397823Y0096238D02*
X0402533Y0096238D01*
X0402533Y0096646D02*
X0397823Y0096646D01*
X0397823Y0097054D02*
X0402533Y0097054D01*
X0402533Y0097462D02*
X0397823Y0097462D01*
X0397823Y0097870D02*
X0402533Y0097870D01*
X0424939Y0098200D02*
X0424939Y0102910D01*
X0430437Y0102910D01*
X0430437Y0098200D01*
X0424939Y0098200D01*
X0424939Y0098608D02*
X0430437Y0098608D01*
X0430437Y0099016D02*
X0424939Y0099016D01*
X0424939Y0099424D02*
X0430437Y0099424D01*
X0430437Y0099832D02*
X0424939Y0099832D01*
X0424939Y0100240D02*
X0430437Y0100240D01*
X0430437Y0100648D02*
X0424939Y0100648D01*
X0424939Y0101056D02*
X0430437Y0101056D01*
X0430437Y0101464D02*
X0424939Y0101464D01*
X0424939Y0101872D02*
X0430437Y0101872D01*
X0430437Y0102280D02*
X0424939Y0102280D01*
X0424939Y0102688D02*
X0430437Y0102688D01*
X0424939Y0095430D02*
X0424939Y0090720D01*
X0424939Y0095430D02*
X0430437Y0095430D01*
X0430437Y0090720D01*
X0424939Y0090720D01*
X0424939Y0091128D02*
X0430437Y0091128D01*
X0430437Y0091536D02*
X0424939Y0091536D01*
X0424939Y0091944D02*
X0430437Y0091944D01*
X0430437Y0092352D02*
X0424939Y0092352D01*
X0424939Y0092760D02*
X0430437Y0092760D01*
X0430437Y0093168D02*
X0424939Y0093168D01*
X0424939Y0093576D02*
X0430437Y0093576D01*
X0430437Y0093984D02*
X0424939Y0093984D01*
X0424939Y0094392D02*
X0430437Y0094392D01*
X0430437Y0094800D02*
X0424939Y0094800D01*
X0424939Y0095208D02*
X0430437Y0095208D01*
X0459843Y0096816D02*
X0464553Y0096816D01*
X0459843Y0096816D02*
X0459843Y0102314D01*
X0464553Y0102314D01*
X0464553Y0096816D01*
X0464553Y0097224D02*
X0459843Y0097224D01*
X0459843Y0097632D02*
X0464553Y0097632D01*
X0464553Y0098040D02*
X0459843Y0098040D01*
X0459843Y0098448D02*
X0464553Y0098448D01*
X0464553Y0098856D02*
X0459843Y0098856D01*
X0459843Y0099264D02*
X0464553Y0099264D01*
X0464553Y0099672D02*
X0459843Y0099672D01*
X0459843Y0100080D02*
X0464553Y0100080D01*
X0464553Y0100488D02*
X0459843Y0100488D01*
X0459843Y0100896D02*
X0464553Y0100896D01*
X0464553Y0101304D02*
X0459843Y0101304D01*
X0459843Y0101712D02*
X0464553Y0101712D01*
X0464553Y0102120D02*
X0459843Y0102120D01*
X0467323Y0096816D02*
X0472033Y0096816D01*
X0467323Y0096816D02*
X0467323Y0102314D01*
X0472033Y0102314D01*
X0472033Y0096816D01*
X0472033Y0097224D02*
X0467323Y0097224D01*
X0467323Y0097632D02*
X0472033Y0097632D01*
X0472033Y0098040D02*
X0467323Y0098040D01*
X0467323Y0098448D02*
X0472033Y0098448D01*
X0472033Y0098856D02*
X0467323Y0098856D01*
X0467323Y0099264D02*
X0472033Y0099264D01*
X0472033Y0099672D02*
X0467323Y0099672D01*
X0467323Y0100080D02*
X0472033Y0100080D01*
X0472033Y0100488D02*
X0467323Y0100488D01*
X0467323Y0100896D02*
X0472033Y0100896D01*
X0472033Y0101304D02*
X0467323Y0101304D01*
X0467323Y0101712D02*
X0472033Y0101712D01*
X0472033Y0102120D02*
X0467323Y0102120D01*
X0520093Y0106914D02*
X0524803Y0106914D01*
X0524803Y0101416D01*
X0520093Y0101416D01*
X0520093Y0106914D01*
X0520093Y0101824D02*
X0524803Y0101824D01*
X0524803Y0102232D02*
X0520093Y0102232D01*
X0520093Y0102640D02*
X0524803Y0102640D01*
X0524803Y0103048D02*
X0520093Y0103048D01*
X0520093Y0103456D02*
X0524803Y0103456D01*
X0524803Y0103864D02*
X0520093Y0103864D01*
X0520093Y0104272D02*
X0524803Y0104272D01*
X0524803Y0104680D02*
X0520093Y0104680D01*
X0520093Y0105088D02*
X0524803Y0105088D01*
X0524803Y0105496D02*
X0520093Y0105496D01*
X0520093Y0105904D02*
X0524803Y0105904D01*
X0524803Y0106312D02*
X0520093Y0106312D01*
X0520093Y0106720D02*
X0524803Y0106720D01*
X0527573Y0106914D02*
X0532283Y0106914D01*
X0532283Y0101416D01*
X0527573Y0101416D01*
X0527573Y0106914D01*
X0527573Y0101824D02*
X0532283Y0101824D01*
X0532283Y0102232D02*
X0527573Y0102232D01*
X0527573Y0102640D02*
X0532283Y0102640D01*
X0532283Y0103048D02*
X0527573Y0103048D01*
X0527573Y0103456D02*
X0532283Y0103456D01*
X0532283Y0103864D02*
X0527573Y0103864D01*
X0527573Y0104272D02*
X0532283Y0104272D01*
X0532283Y0104680D02*
X0527573Y0104680D01*
X0527573Y0105088D02*
X0532283Y0105088D01*
X0532283Y0105496D02*
X0527573Y0105496D01*
X0527573Y0105904D02*
X0532283Y0105904D01*
X0532283Y0106312D02*
X0527573Y0106312D01*
X0527573Y0106720D02*
X0532283Y0106720D01*
X0531283Y0085066D02*
X0526573Y0085066D01*
X0526573Y0090564D01*
X0531283Y0090564D01*
X0531283Y0085066D01*
X0531283Y0085474D02*
X0526573Y0085474D01*
X0526573Y0085882D02*
X0531283Y0085882D01*
X0531283Y0086290D02*
X0526573Y0086290D01*
X0526573Y0086698D02*
X0531283Y0086698D01*
X0531283Y0087106D02*
X0526573Y0087106D01*
X0526573Y0087514D02*
X0531283Y0087514D01*
X0531283Y0087922D02*
X0526573Y0087922D01*
X0526573Y0088330D02*
X0531283Y0088330D01*
X0531283Y0088738D02*
X0526573Y0088738D01*
X0526573Y0089146D02*
X0531283Y0089146D01*
X0531283Y0089554D02*
X0526573Y0089554D01*
X0526573Y0089962D02*
X0531283Y0089962D01*
X0531283Y0090370D02*
X0526573Y0090370D01*
X0523803Y0085066D02*
X0519093Y0085066D01*
X0519093Y0090564D01*
X0523803Y0090564D01*
X0523803Y0085066D01*
X0523803Y0085474D02*
X0519093Y0085474D01*
X0519093Y0085882D02*
X0523803Y0085882D01*
X0523803Y0086290D02*
X0519093Y0086290D01*
X0519093Y0086698D02*
X0523803Y0086698D01*
X0523803Y0087106D02*
X0519093Y0087106D01*
X0519093Y0087514D02*
X0523803Y0087514D01*
X0523803Y0087922D02*
X0519093Y0087922D01*
X0519093Y0088330D02*
X0523803Y0088330D01*
X0523803Y0088738D02*
X0519093Y0088738D01*
X0519093Y0089146D02*
X0523803Y0089146D01*
X0523803Y0089554D02*
X0519093Y0089554D01*
X0519093Y0089962D02*
X0523803Y0089962D01*
X0523803Y0090370D02*
X0519093Y0090370D01*
X0362273Y0096064D02*
X0357563Y0096064D01*
X0362273Y0096064D02*
X0362273Y0090566D01*
X0357563Y0090566D01*
X0357563Y0096064D01*
X0357563Y0090974D02*
X0362273Y0090974D01*
X0362273Y0091382D02*
X0357563Y0091382D01*
X0357563Y0091790D02*
X0362273Y0091790D01*
X0362273Y0092198D02*
X0357563Y0092198D01*
X0357563Y0092606D02*
X0362273Y0092606D01*
X0362273Y0093014D02*
X0357563Y0093014D01*
X0357563Y0093422D02*
X0362273Y0093422D01*
X0362273Y0093830D02*
X0357563Y0093830D01*
X0357563Y0094238D02*
X0362273Y0094238D01*
X0362273Y0094646D02*
X0357563Y0094646D01*
X0357563Y0095054D02*
X0362273Y0095054D01*
X0362273Y0095462D02*
X0357563Y0095462D01*
X0357563Y0095870D02*
X0362273Y0095870D01*
X0354793Y0096064D02*
X0350083Y0096064D01*
X0354793Y0096064D02*
X0354793Y0090566D01*
X0350083Y0090566D01*
X0350083Y0096064D01*
X0350083Y0090974D02*
X0354793Y0090974D01*
X0354793Y0091382D02*
X0350083Y0091382D01*
X0350083Y0091790D02*
X0354793Y0091790D01*
X0354793Y0092198D02*
X0350083Y0092198D01*
X0350083Y0092606D02*
X0354793Y0092606D01*
X0354793Y0093014D02*
X0350083Y0093014D01*
X0350083Y0093422D02*
X0354793Y0093422D01*
X0354793Y0093830D02*
X0350083Y0093830D01*
X0350083Y0094238D02*
X0354793Y0094238D01*
X0354793Y0094646D02*
X0350083Y0094646D01*
X0350083Y0095054D02*
X0354793Y0095054D01*
X0354793Y0095462D02*
X0350083Y0095462D01*
X0350083Y0095870D02*
X0354793Y0095870D01*
X0347312Y0096064D02*
X0342602Y0096064D01*
X0347312Y0096064D02*
X0347312Y0090566D01*
X0342602Y0090566D01*
X0342602Y0096064D01*
X0342602Y0090974D02*
X0347312Y0090974D01*
X0347312Y0091382D02*
X0342602Y0091382D01*
X0342602Y0091790D02*
X0347312Y0091790D01*
X0347312Y0092198D02*
X0342602Y0092198D01*
X0342602Y0092606D02*
X0347312Y0092606D01*
X0347312Y0093014D02*
X0342602Y0093014D01*
X0342602Y0093422D02*
X0347312Y0093422D01*
X0347312Y0093830D02*
X0342602Y0093830D01*
X0342602Y0094238D02*
X0347312Y0094238D01*
X0347312Y0094646D02*
X0342602Y0094646D01*
X0342602Y0095054D02*
X0347312Y0095054D01*
X0347312Y0095462D02*
X0342602Y0095462D01*
X0342602Y0095870D02*
X0347312Y0095870D01*
X0535687Y0312720D02*
X0535687Y0317430D01*
X0535687Y0312720D02*
X0530189Y0312720D01*
X0530189Y0317430D01*
X0535687Y0317430D01*
X0535687Y0313128D02*
X0530189Y0313128D01*
X0530189Y0313536D02*
X0535687Y0313536D01*
X0535687Y0313944D02*
X0530189Y0313944D01*
X0530189Y0314352D02*
X0535687Y0314352D01*
X0535687Y0314760D02*
X0530189Y0314760D01*
X0530189Y0315168D02*
X0535687Y0315168D01*
X0535687Y0315576D02*
X0530189Y0315576D01*
X0530189Y0315984D02*
X0535687Y0315984D01*
X0535687Y0316392D02*
X0530189Y0316392D01*
X0530189Y0316800D02*
X0535687Y0316800D01*
X0535687Y0317208D02*
X0530189Y0317208D01*
X0535687Y0320200D02*
X0535687Y0324910D01*
X0535687Y0320200D02*
X0530189Y0320200D01*
X0530189Y0324910D01*
X0535687Y0324910D01*
X0535687Y0320608D02*
X0530189Y0320608D01*
X0530189Y0321016D02*
X0535687Y0321016D01*
X0535687Y0321424D02*
X0530189Y0321424D01*
X0530189Y0321832D02*
X0535687Y0321832D01*
X0535687Y0322240D02*
X0530189Y0322240D01*
X0530189Y0322648D02*
X0535687Y0322648D01*
X0535687Y0323056D02*
X0530189Y0323056D01*
X0530189Y0323464D02*
X0535687Y0323464D01*
X0535687Y0323872D02*
X0530189Y0323872D01*
X0530189Y0324280D02*
X0535687Y0324280D01*
X0535687Y0324688D02*
X0530189Y0324688D01*
D18*
X0573133Y0143310D02*
X0585543Y0143310D01*
X0573133Y0143310D02*
X0573133Y0145920D01*
X0585543Y0145920D01*
X0585543Y0143310D01*
X0585543Y0143699D02*
X0573133Y0143699D01*
X0573133Y0144088D02*
X0585543Y0144088D01*
X0585543Y0144477D02*
X0573133Y0144477D01*
X0573133Y0144866D02*
X0585543Y0144866D01*
X0585543Y0145255D02*
X0573133Y0145255D01*
X0573133Y0145644D02*
X0585543Y0145644D01*
X0592133Y0143310D02*
X0604543Y0143310D01*
X0592133Y0143310D02*
X0592133Y0145920D01*
X0604543Y0145920D01*
X0604543Y0143310D01*
X0604543Y0143699D02*
X0592133Y0143699D01*
X0592133Y0144088D02*
X0604543Y0144088D01*
X0604543Y0144477D02*
X0592133Y0144477D01*
X0592133Y0144866D02*
X0604543Y0144866D01*
X0604543Y0145255D02*
X0592133Y0145255D01*
X0592133Y0145644D02*
X0604543Y0145644D01*
D19*
X0494885Y0102918D02*
X0490691Y0102918D01*
X0490691Y0103912D01*
X0494885Y0103912D01*
X0494885Y0102918D01*
X0494885Y0103323D02*
X0490691Y0103323D01*
X0490691Y0103728D02*
X0494885Y0103728D01*
X0494885Y0097718D02*
X0490691Y0097718D01*
X0490691Y0098712D01*
X0494885Y0098712D01*
X0494885Y0097718D01*
X0494885Y0098123D02*
X0490691Y0098123D01*
X0490691Y0098528D02*
X0494885Y0098528D01*
X0486685Y0097718D02*
X0482491Y0097718D01*
X0482491Y0098712D01*
X0486685Y0098712D01*
X0486685Y0097718D01*
X0486685Y0098123D02*
X0482491Y0098123D01*
X0482491Y0098528D02*
X0486685Y0098528D01*
X0486685Y0100318D02*
X0482491Y0100318D01*
X0482491Y0101312D01*
X0486685Y0101312D01*
X0486685Y0100318D01*
X0486685Y0100723D02*
X0482491Y0100723D01*
X0482491Y0101128D02*
X0486685Y0101128D01*
X0486685Y0102918D02*
X0482491Y0102918D01*
X0482491Y0103912D01*
X0486685Y0103912D01*
X0486685Y0102918D01*
X0486685Y0103323D02*
X0482491Y0103323D01*
X0482491Y0103728D02*
X0486685Y0103728D01*
D20*
X0104530Y0074091D03*
X0153743Y0392988D03*
X0598625Y0040626D03*
D21*
X0526438Y0134365D03*
D22*
X0350428Y0094315D02*
X0350428Y0092315D01*
X0346928Y0092315D01*
X0346928Y0094315D01*
X0350428Y0094315D01*
X0350428Y0094226D02*
X0346928Y0094226D01*
X0346928Y0094128D02*
X0350428Y0094128D01*
X0350428Y0094029D02*
X0346928Y0094029D01*
X0346928Y0093931D02*
X0350428Y0093931D01*
X0350428Y0093832D02*
X0346928Y0093832D01*
X0346928Y0093734D02*
X0350428Y0093734D01*
X0350428Y0093635D02*
X0346928Y0093635D01*
X0346928Y0093537D02*
X0350428Y0093537D01*
X0350428Y0093438D02*
X0346928Y0093438D01*
X0346928Y0093340D02*
X0350428Y0093340D01*
X0350428Y0093241D02*
X0346928Y0093241D01*
X0346928Y0093143D02*
X0350428Y0093143D01*
X0350428Y0093044D02*
X0346928Y0093044D01*
X0346928Y0092946D02*
X0350428Y0092946D01*
X0350428Y0092847D02*
X0346928Y0092847D01*
X0346928Y0092749D02*
X0350428Y0092749D01*
X0350428Y0092650D02*
X0346928Y0092650D01*
X0346928Y0092552D02*
X0350428Y0092552D01*
X0350428Y0092453D02*
X0346928Y0092453D01*
X0346928Y0092355D02*
X0350428Y0092355D01*
D23*
X0334845Y0367398D03*
X0256105Y0367398D03*
D24*
X0263979Y0367398D03*
X0271853Y0367398D03*
X0279727Y0367398D03*
X0279727Y0375272D03*
X0271853Y0375272D03*
X0263979Y0375272D03*
X0256105Y0375272D03*
X0287601Y0375272D03*
X0287601Y0367398D03*
X0334845Y0375272D03*
X0342719Y0375272D03*
X0350593Y0375272D03*
X0358467Y0375272D03*
X0366341Y0375272D03*
X0366341Y0367398D03*
X0358467Y0367398D03*
X0350593Y0367398D03*
X0342719Y0367398D03*
D25*
X0330688Y0347815D03*
X0330688Y0298815D03*
X0330688Y0249815D03*
X0330688Y0200815D03*
X0330688Y0151815D03*
X0413688Y0151815D03*
X0413688Y0200815D03*
X0413688Y0249815D03*
X0413688Y0298815D03*
X0413688Y0347815D03*
X0496688Y0298815D03*
X0496688Y0249815D03*
X0247688Y0249815D03*
X0247688Y0298815D03*
X0247688Y0347815D03*
X0247688Y0200815D03*
X0247688Y0151815D03*
D26*
X0237688Y0151815D03*
X0237688Y0170815D03*
X0247688Y0170815D03*
X0270688Y0170815D03*
X0280688Y0170815D03*
X0280688Y0151815D03*
X0270688Y0151815D03*
X0270688Y0121815D03*
X0280688Y0121815D03*
X0247688Y0121815D03*
X0237688Y0121815D03*
X0197688Y0121815D03*
X0187688Y0121815D03*
X0187688Y0151815D03*
X0197688Y0151815D03*
X0197688Y0170815D03*
X0187688Y0170815D03*
X0187688Y0200815D03*
X0197688Y0200815D03*
X0197688Y0219815D03*
X0187688Y0219815D03*
X0187688Y0249815D03*
X0197688Y0249815D03*
X0197688Y0268815D03*
X0187688Y0268815D03*
X0187688Y0298815D03*
X0197688Y0298815D03*
X0197688Y0317815D03*
X0187688Y0317815D03*
X0187688Y0347815D03*
X0197688Y0347815D03*
X0237688Y0347815D03*
X0270688Y0347815D03*
X0280688Y0347815D03*
X0280688Y0317815D03*
X0270688Y0317815D03*
X0270688Y0298815D03*
X0280688Y0298815D03*
X0247688Y0317815D03*
X0237688Y0317815D03*
X0237688Y0298815D03*
X0237688Y0268815D03*
X0247688Y0268815D03*
X0237688Y0249815D03*
X0270688Y0249815D03*
X0280688Y0249815D03*
X0280688Y0268815D03*
X0270688Y0268815D03*
X0320688Y0268815D03*
X0330688Y0268815D03*
X0320688Y0249815D03*
X0353688Y0249815D03*
X0363688Y0249815D03*
X0363688Y0268815D03*
X0353688Y0268815D03*
X0353688Y0298815D03*
X0363688Y0298815D03*
X0363688Y0317815D03*
X0353688Y0317815D03*
X0330688Y0317815D03*
X0320688Y0317815D03*
X0320688Y0298815D03*
X0320688Y0347815D03*
X0353688Y0347815D03*
X0363688Y0347815D03*
X0403688Y0347815D03*
X0403688Y0317815D03*
X0413688Y0317815D03*
X0403688Y0298815D03*
X0436688Y0298815D03*
X0446688Y0298815D03*
X0446688Y0268815D03*
X0436688Y0268815D03*
X0436688Y0249815D03*
X0446688Y0249815D03*
X0413688Y0268815D03*
X0403688Y0268815D03*
X0403688Y0249815D03*
X0403688Y0219815D03*
X0413688Y0219815D03*
X0403688Y0200815D03*
X0436688Y0219815D03*
X0446688Y0219815D03*
X0486688Y0219815D03*
X0496688Y0219815D03*
X0486688Y0249815D03*
X0486688Y0268815D03*
X0496688Y0268815D03*
X0486688Y0298815D03*
X0363688Y0219815D03*
X0353688Y0219815D03*
X0353688Y0200815D03*
X0363688Y0200815D03*
X0330688Y0219815D03*
X0320688Y0219815D03*
X0320688Y0200815D03*
X0320688Y0170815D03*
X0330688Y0170815D03*
X0320688Y0151815D03*
X0353688Y0151815D03*
X0363688Y0151815D03*
X0363688Y0170815D03*
X0353688Y0170815D03*
X0403688Y0170815D03*
X0413688Y0170815D03*
X0403688Y0151815D03*
X0403688Y0121815D03*
X0413688Y0121815D03*
X0363688Y0121815D03*
X0353688Y0121815D03*
X0330688Y0121815D03*
X0320688Y0121815D03*
X0280688Y0200815D03*
X0270688Y0200815D03*
X0270688Y0219815D03*
X0280688Y0219815D03*
X0247688Y0219815D03*
X0237688Y0219815D03*
X0237688Y0200815D03*
D27*
X0137995Y0050469D03*
X0137995Y0381177D03*
D28*
X0528438Y0322815D03*
X0560238Y0285465D03*
X0563338Y0285465D03*
X0566438Y0285465D03*
X0566438Y0205765D03*
X0563338Y0205765D03*
X0560288Y0205765D03*
X0594688Y0147465D03*
X0594738Y0141715D03*
X0524338Y0115565D03*
X0523388Y0108115D03*
X0523438Y0100165D03*
X0507188Y0100565D03*
X0517438Y0086665D03*
X0516838Y0080565D03*
X0482438Y0085565D03*
X0470438Y0075565D03*
X0450688Y0067565D03*
X0458438Y0099565D03*
X0480938Y0097315D03*
X0423438Y0100315D03*
X0388688Y0103065D03*
X0388688Y0095315D03*
X0564338Y0070115D03*
D29*
X0565238Y0079765D02*
X0565238Y0081765D01*
X0543538Y0103465D01*
X0543188Y0103565D01*
X0538938Y0107815D01*
X0531238Y0107815D01*
X0530988Y0107565D01*
X0530988Y0106315D01*
X0529928Y0105255D01*
X0529928Y0104165D01*
X0530988Y0107565D02*
X0530988Y0111319D01*
X0531034Y0111365D01*
X0528928Y0087815D02*
X0528288Y0087175D01*
X0528288Y0081215D01*
X0527638Y0080565D01*
X0527034Y0080565D01*
X0470438Y0075565D02*
X0470418Y0075585D01*
X0465808Y0075585D01*
X0457764Y0070585D02*
X0457534Y0070815D01*
X0457534Y0088719D01*
X0456938Y0089315D01*
X0450841Y0070815D02*
X0450688Y0067565D01*
X0457764Y0070585D02*
X0465808Y0070585D01*
X0423438Y0100315D02*
X0419338Y0100315D01*
X0408538Y0104015D02*
X0401128Y0104015D01*
X0400178Y0103065D01*
X0392698Y0103065D02*
X0388688Y0103065D01*
X0388688Y0095315D02*
X0392698Y0095315D01*
X0353688Y0135415D02*
X0353688Y0151815D01*
X0353688Y0160815D02*
X0353688Y0170815D01*
X0336688Y0176815D02*
X0336688Y0262815D01*
X0330688Y0268815D01*
X0348438Y0274065D02*
X0348438Y0280315D01*
X0353688Y0277065D02*
X0353688Y0298815D01*
X0348438Y0274065D02*
X0353688Y0268815D01*
X0346138Y0255115D02*
X0346138Y0227365D01*
X0353688Y0219815D01*
X0353688Y0200815D02*
X0353688Y0188815D01*
X0336688Y0176815D02*
X0330688Y0170815D01*
X0320688Y0151815D02*
X0314188Y0151815D01*
X0313688Y0151315D01*
X0270688Y0151815D02*
X0265238Y0157265D01*
X0265238Y0176715D01*
X0261188Y0164565D02*
X0261188Y0126315D01*
X0241109Y0106236D01*
X0166932Y0106236D01*
X0187688Y0121815D02*
X0187688Y0141865D01*
X0170638Y0158915D01*
X0154253Y0158915D01*
X0116932Y0196236D01*
X0116932Y0211236D02*
X0154103Y0174065D01*
X0170188Y0174065D01*
X0187688Y0156565D01*
X0187688Y0151815D01*
X0187688Y0170815D02*
X0187738Y0170865D01*
X0187738Y0189865D01*
X0181366Y0196236D01*
X0166932Y0196236D01*
X0174866Y0211236D02*
X0185288Y0200815D01*
X0187688Y0200815D01*
X0174866Y0211236D02*
X0166932Y0211236D01*
X0187688Y0219815D02*
X0187688Y0240215D01*
X0174938Y0252965D01*
X0174938Y0279315D01*
X0169588Y0284665D01*
X0165288Y0284665D01*
X0127732Y0322220D01*
X0116932Y0322220D01*
X0116932Y0307220D02*
X0117032Y0307220D01*
X0129438Y0294815D01*
X0129438Y0239915D01*
X0129838Y0239515D01*
X0135888Y0247215D02*
X0143538Y0239565D01*
X0172838Y0239565D01*
X0176438Y0235965D01*
X0186788Y0249815D02*
X0187688Y0249815D01*
X0186788Y0249815D02*
X0177688Y0258915D01*
X0177688Y0292065D01*
X0170038Y0299715D01*
X0155388Y0299715D01*
X0117882Y0337220D01*
X0116932Y0337220D01*
X0166932Y0337220D02*
X0173988Y0330165D01*
X0173988Y0320365D01*
X0187688Y0306665D01*
X0187688Y0298815D01*
X0182038Y0307115D02*
X0182038Y0274465D01*
X0187688Y0268815D01*
X0166932Y0262220D02*
X0158438Y0270715D01*
X0158438Y0284565D01*
X0125938Y0283215D02*
X0125938Y0220965D01*
X0125988Y0220915D01*
X0207338Y0206415D02*
X0207338Y0127215D01*
X0214138Y0136565D02*
X0214138Y0182015D01*
X0218238Y0188665D02*
X0218138Y0188765D01*
X0218238Y0188665D02*
X0218238Y0144815D01*
X0230688Y0151815D02*
X0237688Y0151815D01*
X0247688Y0151815D02*
X0247688Y0141665D01*
X0229938Y0123915D01*
X0229888Y0123915D01*
X0229888Y0119265D01*
X0223038Y0127915D02*
X0222988Y0127965D01*
X0222988Y0158965D01*
X0257438Y0145565D02*
X0257438Y0242165D01*
X0257438Y0244315D01*
X0257438Y0341315D01*
X0260938Y0338065D02*
X0260938Y0295315D01*
X0270688Y0289315D02*
X0270688Y0268815D01*
X0264938Y0264815D02*
X0264938Y0312065D01*
X0270688Y0317815D01*
X0253688Y0325065D02*
X0253688Y0219815D01*
X0253688Y0211765D01*
X0252888Y0210965D01*
X0253688Y0210165D01*
X0253688Y0127815D01*
X0247688Y0121815D01*
X0239688Y0113815D01*
X0124510Y0113815D01*
X0116932Y0106236D01*
X0230688Y0201815D02*
X0231688Y0200815D01*
X0237688Y0200815D01*
X0247688Y0219815D02*
X0253688Y0219815D01*
X0270688Y0236465D02*
X0270688Y0249815D01*
X0237688Y0249815D02*
X0230688Y0249815D01*
X0182038Y0307115D02*
X0166932Y0322220D01*
X0125938Y0283215D02*
X0116932Y0292220D01*
X0231438Y0316315D02*
X0236688Y0311065D01*
X0237688Y0311065D01*
X0231438Y0316315D02*
X0231438Y0341565D01*
X0237688Y0347815D01*
X0260938Y0338065D02*
X0270688Y0347815D01*
X0280688Y0347815D02*
X0286938Y0354065D01*
X0287320Y0354065D01*
X0297556Y0354065D02*
X0304070Y0354065D01*
X0314306Y0354065D02*
X0314438Y0354065D01*
X0320688Y0347815D01*
X0313438Y0340565D01*
X0313438Y0311565D01*
X0397188Y0311565D02*
X0397188Y0341315D01*
X0403688Y0347815D01*
X0413688Y0347815D02*
X0423188Y0338315D01*
X0423188Y0292565D01*
X0423188Y0210315D01*
X0413688Y0200815D01*
X0403688Y0200815D02*
X0396938Y0200815D01*
X0396688Y0200565D01*
X0430538Y0227565D02*
X0430538Y0262665D01*
X0436688Y0268815D01*
X0419438Y0274565D02*
X0413688Y0268815D01*
X0419438Y0274565D02*
X0419438Y0312065D01*
X0413688Y0317815D01*
X0436688Y0298815D02*
X0426738Y0288865D01*
X0426738Y0239615D01*
X0434588Y0247715D02*
X0434588Y0230365D01*
X0434588Y0247715D02*
X0436688Y0249815D01*
X0435688Y0248815D01*
X0403688Y0249815D02*
X0397438Y0249815D01*
X0396688Y0249065D01*
X0320688Y0249815D02*
X0313688Y0249815D01*
X0314438Y0200815D02*
X0313688Y0200065D01*
X0314438Y0200815D02*
X0320688Y0200815D01*
X0396688Y0152065D02*
X0396938Y0151815D01*
X0403688Y0151815D01*
X0524188Y0322815D02*
X0528438Y0322815D01*
X0528698Y0322555D01*
X0532938Y0322555D01*
D30*
X0532938Y0315075D02*
X0532678Y0314815D01*
X0524188Y0314815D01*
X0532938Y0315075D02*
X0552078Y0315075D01*
X0572338Y0294815D01*
X0572338Y0186465D01*
X0574588Y0184215D01*
X0574588Y0153815D01*
X0563338Y0153815D02*
X0563338Y0108915D01*
X0565238Y0108915D02*
X0583438Y0108915D01*
X0578688Y0112315D02*
X0578688Y0115915D01*
X0571388Y0123215D01*
X0571388Y0170315D01*
X0568388Y0173315D01*
X0563338Y0173315D01*
X0563338Y0178315D02*
X0558938Y0178315D01*
X0556488Y0175865D01*
X0556488Y0129465D01*
X0561338Y0124615D01*
X0561338Y0108915D01*
X0559338Y0108915D02*
X0559338Y0124265D01*
X0554888Y0128715D01*
X0554888Y0179665D01*
X0558538Y0183315D01*
X0563338Y0183315D01*
X0563338Y0188315D02*
X0558588Y0188315D01*
X0553288Y0183015D01*
X0553288Y0128015D01*
X0557438Y0123865D01*
X0557438Y0108915D01*
X0555438Y0108915D02*
X0555438Y0123565D01*
X0551638Y0127365D01*
X0551638Y0186365D01*
X0558588Y0193315D01*
X0563338Y0193315D01*
X0563288Y0198265D02*
X0558288Y0198265D01*
X0550038Y0190015D01*
X0550038Y0126665D01*
X0553438Y0123265D01*
X0553438Y0108915D01*
X0551438Y0108915D02*
X0551438Y0114315D01*
X0547138Y0118615D01*
X0521838Y0118615D01*
X0511688Y0108465D01*
X0489638Y0108465D01*
X0484588Y0103415D01*
X0484488Y0103315D01*
X0480438Y0103315D01*
X0476438Y0099315D01*
X0469928Y0099315D01*
X0469678Y0099565D01*
X0476438Y0099315D02*
X0476438Y0097565D01*
X0484588Y0100815D02*
X0488688Y0100815D01*
X0492788Y0098215D02*
X0496788Y0098215D01*
X0496938Y0098065D01*
X0503638Y0096465D02*
X0503838Y0096665D01*
X0532338Y0096665D01*
X0532888Y0097215D01*
X0537838Y0097215D01*
X0532488Y0093115D02*
X0534288Y0091315D01*
X0537838Y0091315D01*
X0537838Y0089315D02*
X0542288Y0089315D01*
X0543238Y0090265D01*
X0542888Y0085365D02*
X0537888Y0085365D01*
X0537838Y0085415D01*
X0537838Y0083415D02*
X0533438Y0083415D01*
X0532488Y0082465D01*
X0537438Y0081115D02*
X0537838Y0081515D01*
X0537438Y0081115D02*
X0537438Y0079515D01*
X0543638Y0082065D02*
X0543638Y0075715D01*
X0545538Y0075715D02*
X0545538Y0081315D01*
X0549938Y0085715D01*
X0549938Y0088615D01*
X0553938Y0087615D02*
X0553938Y0087115D01*
X0547538Y0080715D01*
X0547538Y0075715D01*
X0549538Y0075715D02*
X0549538Y0080165D01*
X0553238Y0083865D01*
X0555838Y0083865D01*
X0558938Y0081315D02*
X0557788Y0080165D01*
X0552738Y0080165D01*
X0551438Y0078865D01*
X0551438Y0075715D01*
X0553438Y0075715D02*
X0553438Y0065915D01*
X0554838Y0064515D01*
X0558138Y0065265D02*
X0555438Y0067965D01*
X0555438Y0075715D01*
X0557438Y0075715D02*
X0557438Y0068315D01*
X0562288Y0063465D01*
X0562288Y0061915D01*
X0558188Y0061965D02*
X0558138Y0062015D01*
X0558138Y0065265D01*
X0563338Y0071115D02*
X0564338Y0070115D01*
X0563338Y0071115D02*
X0563338Y0075715D01*
X0570373Y0071911D02*
X0570373Y0081265D01*
X0571038Y0081515D01*
X0571038Y0083415D02*
X0574838Y0083415D01*
X0575438Y0082815D01*
X0575438Y0078815D01*
X0573916Y0077293D01*
X0573916Y0071911D01*
X0577459Y0071911D02*
X0577459Y0083293D01*
X0575338Y0085415D01*
X0571038Y0085415D01*
X0571038Y0087415D02*
X0575838Y0087415D01*
X0581003Y0082250D01*
X0581003Y0071911D01*
X0581003Y0065219D02*
X0581003Y0057130D01*
X0580938Y0057065D01*
X0583788Y0055965D02*
X0575938Y0048115D01*
X0573538Y0048115D01*
X0570373Y0050750D02*
X0568438Y0048815D01*
X0570373Y0050750D02*
X0570373Y0065219D01*
X0573916Y0065219D02*
X0573916Y0052743D01*
X0573538Y0052365D01*
X0577438Y0054065D02*
X0577459Y0054087D01*
X0577459Y0065219D01*
X0583788Y0055965D02*
X0583788Y0087615D01*
X0574188Y0097215D01*
X0571038Y0097215D01*
X0571038Y0099215D02*
X0580738Y0099215D01*
X0571038Y0093315D02*
X0565688Y0093315D01*
X0567638Y0091315D02*
X0566638Y0090315D01*
X0562988Y0090315D01*
X0562388Y0090915D01*
X0567638Y0091315D02*
X0571038Y0091315D01*
X0546738Y0095715D02*
X0546738Y0085165D01*
X0543638Y0082065D01*
X0521448Y0087815D02*
X0520298Y0086665D01*
X0517438Y0086665D01*
X0510938Y0086315D02*
X0510938Y0047065D01*
X0505738Y0062315D02*
X0506388Y0062965D01*
X0505738Y0062315D02*
X0448988Y0062315D01*
X0445988Y0065315D01*
X0445988Y0073765D01*
X0441725Y0078028D01*
X0439333Y0078028D01*
X0462188Y0087565D02*
X0464168Y0085585D01*
X0465808Y0085585D01*
X0465808Y0080585D02*
X0468457Y0080585D01*
X0471688Y0083815D01*
X0471688Y0085815D01*
X0482438Y0085565D02*
X0482457Y0085585D01*
X0487068Y0085585D01*
X0488688Y0089215D02*
X0492538Y0089215D01*
X0496188Y0085565D01*
X0496188Y0080565D01*
X0499188Y0080565D01*
X0499253Y0080630D01*
X0500091Y0080630D01*
X0500091Y0077087D02*
X0500070Y0077065D01*
X0494938Y0077065D01*
X0491418Y0080585D01*
X0487068Y0080585D01*
X0481457Y0080585D01*
X0474688Y0073815D01*
X0474688Y0071915D01*
X0468738Y0065965D01*
X0465638Y0065965D01*
X0478938Y0068815D02*
X0480707Y0070585D01*
X0487068Y0070585D01*
X0487652Y0070000D01*
X0500091Y0070000D01*
X0500091Y0073543D02*
X0500070Y0073565D01*
X0494438Y0073565D01*
X0492418Y0075585D01*
X0487068Y0075585D01*
X0480707Y0075585D01*
X0478688Y0073565D01*
X0506784Y0073543D02*
X0506784Y0070000D01*
X0506784Y0073543D02*
X0506784Y0077087D01*
X0506784Y0080630D01*
X0506784Y0092469D01*
X0505438Y0092815D01*
X0507188Y0100565D02*
X0507284Y0103815D01*
X0522448Y0104165D02*
X0523388Y0105105D01*
X0523388Y0108115D01*
X0532488Y0122215D02*
X0535038Y0124765D01*
X0535038Y0214365D01*
X0532488Y0216915D01*
X0532488Y0220665D01*
X0533238Y0221415D01*
X0530438Y0224265D02*
X0530788Y0224615D01*
X0530438Y0224265D02*
X0530438Y0216665D01*
X0533438Y0213665D01*
X0533438Y0127915D01*
X0532088Y0126565D01*
X0536688Y0125915D02*
X0538488Y0124115D01*
X0536688Y0125915D02*
X0536688Y0216715D01*
X0535438Y0217965D01*
X0531788Y0212565D02*
X0526788Y0217565D01*
X0526788Y0229665D01*
X0534538Y0237415D01*
X0534538Y0290665D01*
X0508938Y0316265D01*
X0511038Y0318815D02*
X0515688Y0318815D01*
X0511038Y0318815D02*
X0507388Y0322465D01*
X0504238Y0322015D02*
X0496538Y0329715D01*
X0504238Y0322015D02*
X0504238Y0290465D01*
X0516638Y0278065D01*
X0526038Y0278065D01*
X0526038Y0273065D02*
X0516638Y0273065D01*
X0503088Y0259515D01*
X0503088Y0184765D01*
X0499738Y0181415D01*
X0499738Y0175515D01*
X0509738Y0173315D02*
X0526038Y0173315D01*
X0526038Y0178315D02*
X0509738Y0178315D01*
X0511188Y0183315D02*
X0526038Y0183315D01*
X0526038Y0188315D02*
X0512688Y0188315D01*
X0512638Y0188265D01*
X0511338Y0193315D02*
X0526038Y0193315D01*
X0526038Y0198315D02*
X0530638Y0198315D01*
X0531788Y0199465D01*
X0531788Y0212565D01*
X0547638Y0225415D02*
X0547638Y0245465D01*
X0555238Y0253065D01*
X0563338Y0253065D01*
X0563288Y0248115D02*
X0563338Y0248065D01*
X0555838Y0248065D01*
X0551088Y0243315D01*
X0551088Y0222615D01*
X0553188Y0218865D02*
X0555138Y0220815D01*
X0555138Y0241365D01*
X0556838Y0243065D01*
X0563338Y0243065D01*
X0563338Y0258065D02*
X0555338Y0258065D01*
X0544738Y0247465D01*
X0544738Y0144565D01*
X0547438Y0141865D01*
X0547438Y0127565D01*
X0548288Y0126715D01*
X0548288Y0124365D01*
X0545488Y0121565D01*
X0543638Y0126165D02*
X0545838Y0128365D01*
X0545838Y0141165D01*
X0543138Y0143865D01*
X0543138Y0250465D01*
X0555738Y0263065D01*
X0563338Y0263065D01*
X0563338Y0268065D02*
X0556088Y0268065D01*
X0541538Y0253515D01*
X0541538Y0143165D01*
X0544138Y0140565D01*
X0544138Y0132465D01*
X0541638Y0129965D01*
X0541138Y0134115D02*
X0542538Y0135515D01*
X0542538Y0139865D01*
X0539938Y0142465D01*
X0539938Y0256615D01*
X0556388Y0273065D01*
X0563338Y0273065D01*
X0563338Y0278065D02*
X0556738Y0278065D01*
X0538338Y0259665D01*
X0538338Y0140115D01*
X0539738Y0138715D01*
X0543938Y0115565D02*
X0545538Y0113715D01*
X0545538Y0108915D01*
X0568138Y0116765D02*
X0572738Y0112165D01*
X0575588Y0114965D02*
X0574338Y0116215D01*
X0575588Y0114965D02*
X0569738Y0120815D01*
X0569738Y0166515D01*
X0567938Y0168315D01*
X0563338Y0168315D01*
X0563338Y0163315D02*
X0565788Y0163315D01*
X0568138Y0160965D01*
X0568138Y0116765D01*
X0594738Y0141715D02*
X0594738Y0144465D01*
X0594788Y0144515D01*
X0598238Y0144515D01*
X0598338Y0144615D01*
X0526038Y0163315D02*
X0525988Y0163365D01*
X0509738Y0163365D01*
X0509738Y0168315D02*
X0526038Y0168315D01*
X0506288Y0157565D02*
X0506288Y0251565D01*
X0517788Y0263065D01*
X0526038Y0263065D01*
X0526038Y0268065D02*
X0517388Y0268065D01*
X0504688Y0255365D01*
X0504688Y0182365D01*
X0503488Y0181165D01*
X0461538Y0169215D02*
X0460338Y0168015D01*
X0461538Y0169215D02*
X0461538Y0297915D01*
X0455638Y0303815D01*
X0455688Y0299815D02*
X0459938Y0295565D01*
X0459938Y0173515D01*
X0457888Y0171465D01*
X0463138Y0163415D02*
X0463088Y0163365D01*
X0463138Y0163415D02*
X0463138Y0282815D01*
X0464488Y0284165D01*
X0458188Y0287315D02*
X0458188Y0179515D01*
X0456988Y0178315D01*
X0376938Y0176915D02*
X0374488Y0174465D01*
X0374488Y0162615D01*
X0363688Y0151815D01*
X0414638Y0103065D02*
X0414638Y0098215D01*
X0416188Y0096665D01*
X0419288Y0096665D01*
X0419338Y0096615D01*
X0419338Y0104015D02*
X0415588Y0104015D01*
X0414638Y0103065D01*
X0398938Y0086815D02*
X0397688Y0085565D01*
X0346438Y0085565D01*
X0339333Y0078461D01*
X0339333Y0078028D01*
X0344188Y0075815D02*
X0344188Y0080565D01*
X0347188Y0083565D01*
X0401688Y0083565D01*
X0392038Y0057765D02*
X0339188Y0057765D01*
X0334738Y0062215D01*
X0329400Y0068028D02*
X0334438Y0073065D01*
X0341438Y0073065D01*
X0344188Y0075815D01*
X0329400Y0068028D02*
X0329333Y0068028D01*
X0344938Y0088815D02*
X0344938Y0093295D01*
X0344957Y0093315D01*
X0352438Y0093315D02*
X0352438Y0097815D01*
X0359438Y0092835D02*
X0359438Y0090065D01*
X0358438Y0089065D01*
X0359438Y0092835D02*
X0359918Y0093315D01*
X0290688Y0161815D02*
X0280688Y0151815D01*
X0290688Y0161815D02*
X0290688Y0175665D01*
X0289688Y0235515D02*
X0289838Y0235565D01*
X0289838Y0251815D01*
X0280688Y0249815D02*
X0280688Y0236865D01*
X0197688Y0200815D02*
X0197688Y0186365D01*
X0197738Y0286715D02*
X0197688Y0286765D01*
X0197688Y0298815D01*
X0446688Y0298815D02*
X0458188Y0287315D01*
X0515488Y0256815D02*
X0519438Y0253065D01*
X0526038Y0253065D01*
X0525988Y0258015D02*
X0519738Y0258015D01*
X0525988Y0258015D02*
X0526038Y0258065D01*
X0525988Y0248115D02*
X0526038Y0248065D01*
X0525988Y0248115D02*
X0510188Y0248115D01*
X0510638Y0243065D02*
X0526038Y0243065D01*
X0563338Y0283065D02*
X0563338Y0285465D01*
X0563338Y0198315D02*
X0563288Y0198265D01*
X0462198Y0099565D02*
X0458438Y0099565D01*
D31*
X0480938Y0098215D02*
X0480938Y0097315D01*
X0480938Y0098215D02*
X0484588Y0098215D01*
X0492788Y0103415D02*
X0500591Y0103415D01*
X0500591Y0103815D01*
X0500591Y0092969D01*
X0500438Y0092815D01*
X0495034Y0092719D02*
X0494938Y0092815D01*
X0511188Y0092815D02*
X0511438Y0093065D01*
X0427688Y0100555D02*
X0427448Y0100315D01*
X0423438Y0100315D01*
X0353688Y0317815D02*
X0353688Y0338865D01*
X0342719Y0349833D01*
X0342719Y0367398D01*
X0346738Y0371253D02*
X0346738Y0354765D01*
X0353688Y0347815D01*
X0346738Y0371253D02*
X0342719Y0375272D01*
X0263979Y0375272D02*
X0260038Y0371330D01*
X0260038Y0363915D01*
X0260038Y0362815D01*
X0260038Y0360165D01*
X0247688Y0347815D01*
X0247688Y0340165D02*
X0263979Y0356456D01*
X0263979Y0367398D01*
X0247688Y0340165D02*
X0247688Y0317815D01*
D32*
X0543638Y0108915D02*
X0543638Y0104115D01*
X0543538Y0103465D01*
X0543188Y0103565D02*
X0542738Y0103115D01*
X0537838Y0103115D01*
X0529428Y0089315D02*
X0527938Y0087825D01*
X0528928Y0087815D02*
X0529328Y0087415D01*
X0537838Y0087415D01*
X0520341Y0080565D02*
X0516838Y0080565D01*
X0565238Y0079765D02*
X0565238Y0075715D01*
X0419338Y0096615D02*
X0419199Y0096477D01*
D33*
X0419438Y0089315D03*
X0437938Y0089315D03*
X0462188Y0087565D03*
X0471688Y0085815D03*
X0476438Y0097565D03*
X0488688Y0100815D03*
X0496938Y0098065D03*
X0503638Y0096465D03*
X0510938Y0086315D03*
X0496188Y0080565D03*
X0488688Y0089215D03*
X0478688Y0073565D03*
X0478938Y0068815D03*
X0465638Y0065965D03*
X0506388Y0062965D03*
X0510938Y0047065D03*
X0554838Y0064515D03*
X0558188Y0061965D03*
X0562288Y0061915D03*
X0568438Y0048815D03*
X0573538Y0048115D03*
X0573538Y0052365D03*
X0577438Y0054065D03*
X0580938Y0057065D03*
X0558938Y0081315D03*
X0555838Y0083865D03*
X0553938Y0087615D03*
X0549938Y0088615D03*
X0543238Y0090265D03*
X0542888Y0085365D03*
X0537438Y0079515D03*
X0532488Y0082465D03*
X0532488Y0093115D03*
X0527938Y0093315D03*
X0527988Y0099715D03*
X0546738Y0095715D03*
X0562388Y0090915D03*
X0565688Y0093315D03*
X0580738Y0099215D03*
X0583438Y0108915D03*
X0578688Y0112315D03*
X0575588Y0114965D03*
X0572738Y0112165D03*
X0545488Y0121565D03*
X0543638Y0126165D03*
X0541638Y0129965D03*
X0541138Y0134115D03*
X0539738Y0138715D03*
X0532088Y0126565D03*
X0532488Y0122215D03*
X0538488Y0124115D03*
X0543938Y0115565D03*
X0585188Y0144565D03*
X0588188Y0144565D03*
X0574588Y0153815D03*
X0563338Y0153815D03*
X0512638Y0188265D03*
X0511188Y0183315D03*
X0509738Y0178315D03*
X0509738Y0173315D03*
X0509738Y0168315D03*
X0509738Y0163365D03*
X0506288Y0157565D03*
X0499738Y0175515D03*
X0503488Y0181165D03*
X0511338Y0193315D03*
X0515838Y0214265D03*
X0530788Y0224615D03*
X0533238Y0221415D03*
X0535438Y0217965D03*
X0547638Y0225415D03*
X0551088Y0222615D03*
X0553188Y0218865D03*
X0585188Y0214265D03*
X0585188Y0251815D03*
X0588188Y0251815D03*
X0585438Y0295665D03*
X0588188Y0311065D03*
X0515738Y0295665D03*
X0486688Y0311065D03*
X0508938Y0316265D03*
X0507388Y0322465D03*
X0496538Y0329715D03*
X0455638Y0303815D03*
X0455688Y0299815D03*
X0464488Y0284165D03*
X0423188Y0292565D03*
X0403688Y0311065D03*
X0397188Y0311565D03*
X0353688Y0277065D03*
X0348438Y0280315D03*
X0346138Y0255115D03*
X0289838Y0251815D03*
X0289688Y0235515D03*
X0280688Y0236865D03*
X0270688Y0236465D03*
X0257438Y0244315D03*
X0264938Y0264815D03*
X0270688Y0289315D03*
X0260938Y0295315D03*
X0237688Y0311065D03*
X0253688Y0325065D03*
X0257438Y0341315D03*
X0313438Y0311565D03*
X0426738Y0239615D03*
X0434588Y0230365D03*
X0430538Y0227565D03*
X0456988Y0178315D03*
X0457888Y0171465D03*
X0460338Y0168015D03*
X0463088Y0163365D03*
X0396688Y0140315D03*
X0353688Y0135415D03*
X0353688Y0160815D03*
X0376938Y0176915D03*
X0353688Y0188815D03*
X0290688Y0175665D03*
X0265238Y0176715D03*
X0261188Y0164565D03*
X0257438Y0145565D03*
X0230688Y0140315D03*
X0218238Y0144815D03*
X0214138Y0136565D03*
X0207338Y0127215D03*
X0223038Y0127915D03*
X0229888Y0119265D03*
X0222988Y0158965D03*
X0214138Y0182015D03*
X0218138Y0188765D03*
X0197688Y0186365D03*
X0207338Y0206415D03*
X0176438Y0235965D03*
X0135888Y0247215D03*
X0129838Y0239515D03*
X0125988Y0220915D03*
X0158438Y0284565D03*
X0197738Y0286715D03*
X0252888Y0210965D03*
X0313688Y0140315D03*
X0352438Y0097815D03*
X0358438Y0089065D03*
X0344938Y0088815D03*
X0398938Y0086815D03*
X0401688Y0083565D03*
X0510638Y0243065D03*
X0510188Y0248115D03*
X0515488Y0256815D03*
X0519738Y0258015D03*
D34*
X0526038Y0283065D02*
X0526038Y0290847D01*
X0526056Y0290865D01*
X0526056Y0210415D02*
X0526038Y0210397D01*
X0526038Y0203315D01*
X0563338Y0203315D02*
X0563338Y0205765D01*
D35*
X0585188Y0214265D02*
X0588188Y0214265D01*
X0588188Y0251815D02*
X0588188Y0295815D01*
X0588038Y0295665D01*
X0585438Y0295665D01*
X0588188Y0295815D02*
X0588188Y0311065D01*
X0515820Y0295583D02*
X0515820Y0290865D01*
X0515820Y0295583D02*
X0515738Y0295665D01*
X0486688Y0298815D02*
X0486688Y0311065D01*
X0486688Y0298815D02*
X0479688Y0291815D01*
X0479688Y0256815D01*
X0486688Y0249815D01*
X0515838Y0214265D02*
X0515820Y0214247D01*
X0515820Y0210415D01*
X0579338Y0144615D02*
X0579388Y0144565D01*
X0585188Y0144565D01*
X0588188Y0144565D01*
X0588138Y0144615D01*
X0543938Y0115565D02*
X0524338Y0115565D01*
X0524341Y0115311D01*
X0524341Y0111365D01*
X0529928Y0104165D02*
X0528738Y0102975D01*
X0528738Y0100465D01*
X0527988Y0099715D01*
X0527938Y0093315D02*
X0527938Y0087825D01*
X0528928Y0087815D01*
X0527438Y0092815D02*
X0527938Y0093315D01*
X0527438Y0092815D02*
X0511188Y0092815D01*
X0505438Y0092815D01*
X0500438Y0092815D01*
X0494938Y0092815D01*
X0460438Y0092815D01*
X0456938Y0089315D01*
X0437938Y0089315D01*
X0427688Y0086382D02*
X0419333Y0078028D01*
X0427688Y0086382D02*
X0427688Y0093075D01*
X0422878Y0093075D01*
X0419338Y0096615D01*
X0419438Y0089315D02*
X0407938Y0089315D01*
X0403688Y0093565D01*
X0401188Y0093565D01*
X0401188Y0094305D01*
X0400178Y0095315D01*
X0401478Y0096615D01*
X0408538Y0096615D01*
X0400928Y0094575D02*
X0400178Y0094575D01*
X0400178Y0095315D01*
X0396688Y0140315D02*
X0396688Y0152065D01*
X0396688Y0200565D01*
X0396688Y0249065D01*
X0396688Y0291815D01*
X0403688Y0298815D01*
X0403688Y0311065D01*
X0320688Y0298815D02*
X0313688Y0291815D01*
X0313688Y0249815D01*
X0313688Y0200065D01*
X0313688Y0151315D01*
X0313688Y0140315D01*
X0230688Y0140315D02*
X0230688Y0151815D01*
X0230688Y0201815D01*
X0230688Y0249815D01*
X0230688Y0291815D01*
X0237688Y0298815D01*
X0237688Y0311065D01*
D36*
X0419333Y0078028D02*
X0419333Y0068028D01*
X0445296Y0042065D01*
X0575188Y0042065D01*
X0588188Y0055065D01*
X0588188Y0144565D01*
X0588188Y0214265D01*
X0588188Y0251815D01*
X0585188Y0251815D01*
D37*
X0334738Y0062215D03*
X0392038Y0057765D03*
M02*
