G75*
%MOIN*%
%OFA0B0*%
%FSLAX25Y25*%
%IPPOS*%
%LPD*%
%AMOC8*
5,1,8,0,0,1.08239X$1,22.5*
%
%ADD10C,0.00394*%
%ADD11C,0.00000*%
D10*
X0094688Y0070154D02*
X0094688Y0361492D01*
X0094687Y0361492D02*
X0094689Y0361644D01*
X0094695Y0361796D01*
X0094705Y0361948D01*
X0094718Y0362099D01*
X0094736Y0362250D01*
X0094757Y0362401D01*
X0094783Y0362551D01*
X0094812Y0362700D01*
X0094845Y0362849D01*
X0094882Y0362996D01*
X0094922Y0363143D01*
X0094967Y0363288D01*
X0095015Y0363432D01*
X0095067Y0363575D01*
X0095122Y0363717D01*
X0095181Y0363857D01*
X0095244Y0363996D01*
X0095310Y0364133D01*
X0095380Y0364268D01*
X0095453Y0364401D01*
X0095530Y0364532D01*
X0095610Y0364662D01*
X0095693Y0364789D01*
X0095779Y0364914D01*
X0095869Y0365037D01*
X0095962Y0365157D01*
X0096058Y0365275D01*
X0096157Y0365391D01*
X0096259Y0365504D01*
X0096363Y0365614D01*
X0096471Y0365722D01*
X0096581Y0365826D01*
X0096694Y0365928D01*
X0096810Y0366027D01*
X0096928Y0366123D01*
X0097048Y0366216D01*
X0097171Y0366306D01*
X0097296Y0366392D01*
X0097423Y0366475D01*
X0097553Y0366555D01*
X0097684Y0366632D01*
X0097817Y0366705D01*
X0097952Y0366775D01*
X0098089Y0366841D01*
X0098228Y0366904D01*
X0098368Y0366963D01*
X0098510Y0367018D01*
X0098653Y0367070D01*
X0098797Y0367118D01*
X0098942Y0367163D01*
X0099089Y0367203D01*
X0099236Y0367240D01*
X0099385Y0367273D01*
X0099534Y0367302D01*
X0099684Y0367328D01*
X0099835Y0367349D01*
X0099986Y0367367D01*
X0100137Y0367380D01*
X0100289Y0367390D01*
X0100441Y0367396D01*
X0100593Y0367398D01*
X0120278Y0367398D01*
X0120278Y0396925D01*
X0120280Y0397077D01*
X0120286Y0397229D01*
X0120296Y0397381D01*
X0120309Y0397532D01*
X0120327Y0397683D01*
X0120348Y0397834D01*
X0120374Y0397984D01*
X0120403Y0398133D01*
X0120436Y0398282D01*
X0120473Y0398429D01*
X0120513Y0398576D01*
X0120558Y0398721D01*
X0120606Y0398865D01*
X0120658Y0399008D01*
X0120713Y0399150D01*
X0120772Y0399290D01*
X0120835Y0399429D01*
X0120901Y0399566D01*
X0120971Y0399701D01*
X0121044Y0399834D01*
X0121121Y0399965D01*
X0121201Y0400095D01*
X0121284Y0400222D01*
X0121370Y0400347D01*
X0121460Y0400470D01*
X0121553Y0400590D01*
X0121649Y0400708D01*
X0121748Y0400824D01*
X0121850Y0400937D01*
X0121954Y0401047D01*
X0122062Y0401155D01*
X0122172Y0401259D01*
X0122285Y0401361D01*
X0122401Y0401460D01*
X0122519Y0401556D01*
X0122639Y0401649D01*
X0122762Y0401739D01*
X0122887Y0401825D01*
X0123014Y0401908D01*
X0123144Y0401988D01*
X0123275Y0402065D01*
X0123408Y0402138D01*
X0123543Y0402208D01*
X0123680Y0402274D01*
X0123819Y0402337D01*
X0123959Y0402396D01*
X0124101Y0402451D01*
X0124244Y0402503D01*
X0124388Y0402551D01*
X0124533Y0402596D01*
X0124680Y0402636D01*
X0124827Y0402673D01*
X0124976Y0402706D01*
X0125125Y0402735D01*
X0125275Y0402761D01*
X0125426Y0402782D01*
X0125577Y0402800D01*
X0125728Y0402813D01*
X0125880Y0402823D01*
X0126032Y0402829D01*
X0126184Y0402831D01*
X0604530Y0402831D01*
X0604682Y0402829D01*
X0604834Y0402823D01*
X0604986Y0402813D01*
X0605137Y0402800D01*
X0605288Y0402782D01*
X0605439Y0402761D01*
X0605589Y0402735D01*
X0605738Y0402706D01*
X0605887Y0402673D01*
X0606034Y0402636D01*
X0606181Y0402596D01*
X0606326Y0402551D01*
X0606470Y0402503D01*
X0606613Y0402451D01*
X0606755Y0402396D01*
X0606895Y0402337D01*
X0607034Y0402274D01*
X0607171Y0402208D01*
X0607306Y0402138D01*
X0607439Y0402065D01*
X0607570Y0401988D01*
X0607700Y0401908D01*
X0607827Y0401825D01*
X0607952Y0401739D01*
X0608075Y0401649D01*
X0608195Y0401556D01*
X0608313Y0401460D01*
X0608429Y0401361D01*
X0608542Y0401259D01*
X0608652Y0401155D01*
X0608760Y0401047D01*
X0608864Y0400937D01*
X0608966Y0400824D01*
X0609065Y0400708D01*
X0609161Y0400590D01*
X0609254Y0400470D01*
X0609344Y0400347D01*
X0609430Y0400222D01*
X0609513Y0400095D01*
X0609593Y0399965D01*
X0609670Y0399834D01*
X0609743Y0399701D01*
X0609813Y0399566D01*
X0609879Y0399429D01*
X0609942Y0399290D01*
X0610001Y0399150D01*
X0610056Y0399008D01*
X0610108Y0398865D01*
X0610156Y0398721D01*
X0610201Y0398576D01*
X0610241Y0398429D01*
X0610278Y0398282D01*
X0610311Y0398133D01*
X0610340Y0397984D01*
X0610366Y0397834D01*
X0610387Y0397683D01*
X0610405Y0397532D01*
X0610418Y0397381D01*
X0610428Y0397229D01*
X0610434Y0397077D01*
X0610436Y0396925D01*
X0610436Y0034720D01*
X0610434Y0034568D01*
X0610428Y0034416D01*
X0610418Y0034264D01*
X0610405Y0034113D01*
X0610387Y0033962D01*
X0610366Y0033811D01*
X0610340Y0033661D01*
X0610311Y0033512D01*
X0610278Y0033363D01*
X0610241Y0033216D01*
X0610201Y0033069D01*
X0610156Y0032924D01*
X0610108Y0032780D01*
X0610056Y0032637D01*
X0610001Y0032495D01*
X0609942Y0032355D01*
X0609879Y0032216D01*
X0609813Y0032079D01*
X0609743Y0031944D01*
X0609670Y0031811D01*
X0609593Y0031680D01*
X0609513Y0031550D01*
X0609430Y0031423D01*
X0609344Y0031298D01*
X0609254Y0031175D01*
X0609161Y0031055D01*
X0609065Y0030937D01*
X0608966Y0030821D01*
X0608864Y0030708D01*
X0608760Y0030598D01*
X0608652Y0030490D01*
X0608542Y0030386D01*
X0608429Y0030284D01*
X0608313Y0030185D01*
X0608195Y0030089D01*
X0608075Y0029996D01*
X0607952Y0029906D01*
X0607827Y0029820D01*
X0607700Y0029737D01*
X0607570Y0029657D01*
X0607439Y0029580D01*
X0607306Y0029507D01*
X0607171Y0029437D01*
X0607034Y0029371D01*
X0606895Y0029308D01*
X0606755Y0029249D01*
X0606613Y0029194D01*
X0606470Y0029142D01*
X0606326Y0029094D01*
X0606181Y0029049D01*
X0606034Y0029009D01*
X0605887Y0028972D01*
X0605738Y0028939D01*
X0605589Y0028910D01*
X0605439Y0028884D01*
X0605288Y0028863D01*
X0605137Y0028845D01*
X0604986Y0028832D01*
X0604834Y0028822D01*
X0604682Y0028816D01*
X0604530Y0028814D01*
X0604530Y0028815D02*
X0126184Y0028815D01*
X0126184Y0028814D02*
X0126032Y0028816D01*
X0125880Y0028822D01*
X0125728Y0028832D01*
X0125577Y0028845D01*
X0125426Y0028863D01*
X0125275Y0028884D01*
X0125125Y0028910D01*
X0124976Y0028939D01*
X0124827Y0028972D01*
X0124680Y0029009D01*
X0124533Y0029049D01*
X0124388Y0029094D01*
X0124244Y0029142D01*
X0124101Y0029194D01*
X0123959Y0029249D01*
X0123819Y0029308D01*
X0123680Y0029371D01*
X0123543Y0029437D01*
X0123408Y0029507D01*
X0123275Y0029580D01*
X0123144Y0029657D01*
X0123014Y0029737D01*
X0122887Y0029820D01*
X0122762Y0029906D01*
X0122639Y0029996D01*
X0122519Y0030089D01*
X0122401Y0030185D01*
X0122285Y0030284D01*
X0122172Y0030386D01*
X0122062Y0030490D01*
X0121954Y0030598D01*
X0121850Y0030708D01*
X0121748Y0030821D01*
X0121649Y0030937D01*
X0121553Y0031055D01*
X0121460Y0031175D01*
X0121370Y0031298D01*
X0121284Y0031423D01*
X0121201Y0031550D01*
X0121121Y0031680D01*
X0121044Y0031811D01*
X0120971Y0031944D01*
X0120901Y0032079D01*
X0120835Y0032216D01*
X0120772Y0032355D01*
X0120713Y0032495D01*
X0120658Y0032637D01*
X0120606Y0032780D01*
X0120558Y0032924D01*
X0120513Y0033069D01*
X0120473Y0033216D01*
X0120436Y0033363D01*
X0120403Y0033512D01*
X0120374Y0033661D01*
X0120348Y0033811D01*
X0120327Y0033962D01*
X0120309Y0034113D01*
X0120296Y0034264D01*
X0120286Y0034416D01*
X0120280Y0034568D01*
X0120278Y0034720D01*
X0120278Y0064248D01*
X0100593Y0064248D01*
X0100441Y0064250D01*
X0100289Y0064256D01*
X0100137Y0064266D01*
X0099986Y0064279D01*
X0099835Y0064297D01*
X0099684Y0064318D01*
X0099534Y0064344D01*
X0099385Y0064373D01*
X0099236Y0064406D01*
X0099089Y0064443D01*
X0098942Y0064483D01*
X0098797Y0064528D01*
X0098653Y0064576D01*
X0098510Y0064628D01*
X0098368Y0064683D01*
X0098228Y0064742D01*
X0098089Y0064805D01*
X0097952Y0064871D01*
X0097817Y0064941D01*
X0097684Y0065014D01*
X0097553Y0065091D01*
X0097423Y0065171D01*
X0097296Y0065254D01*
X0097171Y0065340D01*
X0097048Y0065430D01*
X0096928Y0065523D01*
X0096810Y0065619D01*
X0096694Y0065718D01*
X0096581Y0065820D01*
X0096471Y0065924D01*
X0096363Y0066032D01*
X0096259Y0066142D01*
X0096157Y0066255D01*
X0096058Y0066371D01*
X0095962Y0066489D01*
X0095869Y0066609D01*
X0095779Y0066732D01*
X0095693Y0066857D01*
X0095610Y0066984D01*
X0095530Y0067114D01*
X0095453Y0067245D01*
X0095380Y0067378D01*
X0095310Y0067513D01*
X0095244Y0067650D01*
X0095181Y0067789D01*
X0095122Y0067929D01*
X0095067Y0068071D01*
X0095015Y0068214D01*
X0094967Y0068358D01*
X0094922Y0068503D01*
X0094882Y0068650D01*
X0094845Y0068797D01*
X0094812Y0068946D01*
X0094783Y0069095D01*
X0094757Y0069245D01*
X0094736Y0069396D01*
X0094718Y0069547D01*
X0094705Y0069698D01*
X0094695Y0069850D01*
X0094689Y0070002D01*
X0094687Y0070154D01*
D11*
X0131696Y0050469D02*
X0131698Y0050627D01*
X0131704Y0050785D01*
X0131714Y0050943D01*
X0131728Y0051101D01*
X0131746Y0051258D01*
X0131767Y0051415D01*
X0131793Y0051571D01*
X0131823Y0051727D01*
X0131856Y0051882D01*
X0131894Y0052035D01*
X0131935Y0052188D01*
X0131980Y0052340D01*
X0132029Y0052491D01*
X0132082Y0052640D01*
X0132138Y0052788D01*
X0132198Y0052934D01*
X0132262Y0053079D01*
X0132330Y0053222D01*
X0132401Y0053364D01*
X0132475Y0053504D01*
X0132553Y0053641D01*
X0132635Y0053777D01*
X0132719Y0053911D01*
X0132808Y0054042D01*
X0132899Y0054171D01*
X0132994Y0054298D01*
X0133091Y0054423D01*
X0133192Y0054545D01*
X0133296Y0054664D01*
X0133403Y0054781D01*
X0133513Y0054895D01*
X0133626Y0055006D01*
X0133741Y0055115D01*
X0133859Y0055220D01*
X0133980Y0055322D01*
X0134103Y0055422D01*
X0134229Y0055518D01*
X0134357Y0055611D01*
X0134487Y0055701D01*
X0134620Y0055787D01*
X0134755Y0055871D01*
X0134891Y0055950D01*
X0135030Y0056027D01*
X0135171Y0056099D01*
X0135313Y0056169D01*
X0135457Y0056234D01*
X0135603Y0056296D01*
X0135750Y0056354D01*
X0135899Y0056409D01*
X0136049Y0056460D01*
X0136200Y0056507D01*
X0136352Y0056550D01*
X0136505Y0056589D01*
X0136660Y0056625D01*
X0136815Y0056656D01*
X0136971Y0056684D01*
X0137127Y0056708D01*
X0137284Y0056728D01*
X0137442Y0056744D01*
X0137599Y0056756D01*
X0137758Y0056764D01*
X0137916Y0056768D01*
X0138074Y0056768D01*
X0138232Y0056764D01*
X0138391Y0056756D01*
X0138548Y0056744D01*
X0138706Y0056728D01*
X0138863Y0056708D01*
X0139019Y0056684D01*
X0139175Y0056656D01*
X0139330Y0056625D01*
X0139485Y0056589D01*
X0139638Y0056550D01*
X0139790Y0056507D01*
X0139941Y0056460D01*
X0140091Y0056409D01*
X0140240Y0056354D01*
X0140387Y0056296D01*
X0140533Y0056234D01*
X0140677Y0056169D01*
X0140819Y0056099D01*
X0140960Y0056027D01*
X0141099Y0055950D01*
X0141235Y0055871D01*
X0141370Y0055787D01*
X0141503Y0055701D01*
X0141633Y0055611D01*
X0141761Y0055518D01*
X0141887Y0055422D01*
X0142010Y0055322D01*
X0142131Y0055220D01*
X0142249Y0055115D01*
X0142364Y0055006D01*
X0142477Y0054895D01*
X0142587Y0054781D01*
X0142694Y0054664D01*
X0142798Y0054545D01*
X0142899Y0054423D01*
X0142996Y0054298D01*
X0143091Y0054171D01*
X0143182Y0054042D01*
X0143271Y0053911D01*
X0143355Y0053777D01*
X0143437Y0053641D01*
X0143515Y0053504D01*
X0143589Y0053364D01*
X0143660Y0053222D01*
X0143728Y0053079D01*
X0143792Y0052934D01*
X0143852Y0052788D01*
X0143908Y0052640D01*
X0143961Y0052491D01*
X0144010Y0052340D01*
X0144055Y0052188D01*
X0144096Y0052035D01*
X0144134Y0051882D01*
X0144167Y0051727D01*
X0144197Y0051571D01*
X0144223Y0051415D01*
X0144244Y0051258D01*
X0144262Y0051101D01*
X0144276Y0050943D01*
X0144286Y0050785D01*
X0144292Y0050627D01*
X0144294Y0050469D01*
X0144292Y0050311D01*
X0144286Y0050153D01*
X0144276Y0049995D01*
X0144262Y0049837D01*
X0144244Y0049680D01*
X0144223Y0049523D01*
X0144197Y0049367D01*
X0144167Y0049211D01*
X0144134Y0049056D01*
X0144096Y0048903D01*
X0144055Y0048750D01*
X0144010Y0048598D01*
X0143961Y0048447D01*
X0143908Y0048298D01*
X0143852Y0048150D01*
X0143792Y0048004D01*
X0143728Y0047859D01*
X0143660Y0047716D01*
X0143589Y0047574D01*
X0143515Y0047434D01*
X0143437Y0047297D01*
X0143355Y0047161D01*
X0143271Y0047027D01*
X0143182Y0046896D01*
X0143091Y0046767D01*
X0142996Y0046640D01*
X0142899Y0046515D01*
X0142798Y0046393D01*
X0142694Y0046274D01*
X0142587Y0046157D01*
X0142477Y0046043D01*
X0142364Y0045932D01*
X0142249Y0045823D01*
X0142131Y0045718D01*
X0142010Y0045616D01*
X0141887Y0045516D01*
X0141761Y0045420D01*
X0141633Y0045327D01*
X0141503Y0045237D01*
X0141370Y0045151D01*
X0141235Y0045067D01*
X0141099Y0044988D01*
X0140960Y0044911D01*
X0140819Y0044839D01*
X0140677Y0044769D01*
X0140533Y0044704D01*
X0140387Y0044642D01*
X0140240Y0044584D01*
X0140091Y0044529D01*
X0139941Y0044478D01*
X0139790Y0044431D01*
X0139638Y0044388D01*
X0139485Y0044349D01*
X0139330Y0044313D01*
X0139175Y0044282D01*
X0139019Y0044254D01*
X0138863Y0044230D01*
X0138706Y0044210D01*
X0138548Y0044194D01*
X0138391Y0044182D01*
X0138232Y0044174D01*
X0138074Y0044170D01*
X0137916Y0044170D01*
X0137758Y0044174D01*
X0137599Y0044182D01*
X0137442Y0044194D01*
X0137284Y0044210D01*
X0137127Y0044230D01*
X0136971Y0044254D01*
X0136815Y0044282D01*
X0136660Y0044313D01*
X0136505Y0044349D01*
X0136352Y0044388D01*
X0136200Y0044431D01*
X0136049Y0044478D01*
X0135899Y0044529D01*
X0135750Y0044584D01*
X0135603Y0044642D01*
X0135457Y0044704D01*
X0135313Y0044769D01*
X0135171Y0044839D01*
X0135030Y0044911D01*
X0134891Y0044988D01*
X0134755Y0045067D01*
X0134620Y0045151D01*
X0134487Y0045237D01*
X0134357Y0045327D01*
X0134229Y0045420D01*
X0134103Y0045516D01*
X0133980Y0045616D01*
X0133859Y0045718D01*
X0133741Y0045823D01*
X0133626Y0045932D01*
X0133513Y0046043D01*
X0133403Y0046157D01*
X0133296Y0046274D01*
X0133192Y0046393D01*
X0133091Y0046515D01*
X0132994Y0046640D01*
X0132899Y0046767D01*
X0132808Y0046896D01*
X0132719Y0047027D01*
X0132635Y0047161D01*
X0132553Y0047297D01*
X0132475Y0047434D01*
X0132401Y0047574D01*
X0132330Y0047716D01*
X0132262Y0047859D01*
X0132198Y0048004D01*
X0132138Y0048150D01*
X0132082Y0048298D01*
X0132029Y0048447D01*
X0131980Y0048598D01*
X0131935Y0048750D01*
X0131894Y0048903D01*
X0131856Y0049056D01*
X0131823Y0049211D01*
X0131793Y0049367D01*
X0131767Y0049523D01*
X0131746Y0049680D01*
X0131728Y0049837D01*
X0131714Y0049995D01*
X0131704Y0050153D01*
X0131698Y0050311D01*
X0131696Y0050469D01*
X0131696Y0381177D02*
X0131698Y0381335D01*
X0131704Y0381493D01*
X0131714Y0381651D01*
X0131728Y0381809D01*
X0131746Y0381966D01*
X0131767Y0382123D01*
X0131793Y0382279D01*
X0131823Y0382435D01*
X0131856Y0382590D01*
X0131894Y0382743D01*
X0131935Y0382896D01*
X0131980Y0383048D01*
X0132029Y0383199D01*
X0132082Y0383348D01*
X0132138Y0383496D01*
X0132198Y0383642D01*
X0132262Y0383787D01*
X0132330Y0383930D01*
X0132401Y0384072D01*
X0132475Y0384212D01*
X0132553Y0384349D01*
X0132635Y0384485D01*
X0132719Y0384619D01*
X0132808Y0384750D01*
X0132899Y0384879D01*
X0132994Y0385006D01*
X0133091Y0385131D01*
X0133192Y0385253D01*
X0133296Y0385372D01*
X0133403Y0385489D01*
X0133513Y0385603D01*
X0133626Y0385714D01*
X0133741Y0385823D01*
X0133859Y0385928D01*
X0133980Y0386030D01*
X0134103Y0386130D01*
X0134229Y0386226D01*
X0134357Y0386319D01*
X0134487Y0386409D01*
X0134620Y0386495D01*
X0134755Y0386579D01*
X0134891Y0386658D01*
X0135030Y0386735D01*
X0135171Y0386807D01*
X0135313Y0386877D01*
X0135457Y0386942D01*
X0135603Y0387004D01*
X0135750Y0387062D01*
X0135899Y0387117D01*
X0136049Y0387168D01*
X0136200Y0387215D01*
X0136352Y0387258D01*
X0136505Y0387297D01*
X0136660Y0387333D01*
X0136815Y0387364D01*
X0136971Y0387392D01*
X0137127Y0387416D01*
X0137284Y0387436D01*
X0137442Y0387452D01*
X0137599Y0387464D01*
X0137758Y0387472D01*
X0137916Y0387476D01*
X0138074Y0387476D01*
X0138232Y0387472D01*
X0138391Y0387464D01*
X0138548Y0387452D01*
X0138706Y0387436D01*
X0138863Y0387416D01*
X0139019Y0387392D01*
X0139175Y0387364D01*
X0139330Y0387333D01*
X0139485Y0387297D01*
X0139638Y0387258D01*
X0139790Y0387215D01*
X0139941Y0387168D01*
X0140091Y0387117D01*
X0140240Y0387062D01*
X0140387Y0387004D01*
X0140533Y0386942D01*
X0140677Y0386877D01*
X0140819Y0386807D01*
X0140960Y0386735D01*
X0141099Y0386658D01*
X0141235Y0386579D01*
X0141370Y0386495D01*
X0141503Y0386409D01*
X0141633Y0386319D01*
X0141761Y0386226D01*
X0141887Y0386130D01*
X0142010Y0386030D01*
X0142131Y0385928D01*
X0142249Y0385823D01*
X0142364Y0385714D01*
X0142477Y0385603D01*
X0142587Y0385489D01*
X0142694Y0385372D01*
X0142798Y0385253D01*
X0142899Y0385131D01*
X0142996Y0385006D01*
X0143091Y0384879D01*
X0143182Y0384750D01*
X0143271Y0384619D01*
X0143355Y0384485D01*
X0143437Y0384349D01*
X0143515Y0384212D01*
X0143589Y0384072D01*
X0143660Y0383930D01*
X0143728Y0383787D01*
X0143792Y0383642D01*
X0143852Y0383496D01*
X0143908Y0383348D01*
X0143961Y0383199D01*
X0144010Y0383048D01*
X0144055Y0382896D01*
X0144096Y0382743D01*
X0144134Y0382590D01*
X0144167Y0382435D01*
X0144197Y0382279D01*
X0144223Y0382123D01*
X0144244Y0381966D01*
X0144262Y0381809D01*
X0144276Y0381651D01*
X0144286Y0381493D01*
X0144292Y0381335D01*
X0144294Y0381177D01*
X0144292Y0381019D01*
X0144286Y0380861D01*
X0144276Y0380703D01*
X0144262Y0380545D01*
X0144244Y0380388D01*
X0144223Y0380231D01*
X0144197Y0380075D01*
X0144167Y0379919D01*
X0144134Y0379764D01*
X0144096Y0379611D01*
X0144055Y0379458D01*
X0144010Y0379306D01*
X0143961Y0379155D01*
X0143908Y0379006D01*
X0143852Y0378858D01*
X0143792Y0378712D01*
X0143728Y0378567D01*
X0143660Y0378424D01*
X0143589Y0378282D01*
X0143515Y0378142D01*
X0143437Y0378005D01*
X0143355Y0377869D01*
X0143271Y0377735D01*
X0143182Y0377604D01*
X0143091Y0377475D01*
X0142996Y0377348D01*
X0142899Y0377223D01*
X0142798Y0377101D01*
X0142694Y0376982D01*
X0142587Y0376865D01*
X0142477Y0376751D01*
X0142364Y0376640D01*
X0142249Y0376531D01*
X0142131Y0376426D01*
X0142010Y0376324D01*
X0141887Y0376224D01*
X0141761Y0376128D01*
X0141633Y0376035D01*
X0141503Y0375945D01*
X0141370Y0375859D01*
X0141235Y0375775D01*
X0141099Y0375696D01*
X0140960Y0375619D01*
X0140819Y0375547D01*
X0140677Y0375477D01*
X0140533Y0375412D01*
X0140387Y0375350D01*
X0140240Y0375292D01*
X0140091Y0375237D01*
X0139941Y0375186D01*
X0139790Y0375139D01*
X0139638Y0375096D01*
X0139485Y0375057D01*
X0139330Y0375021D01*
X0139175Y0374990D01*
X0139019Y0374962D01*
X0138863Y0374938D01*
X0138706Y0374918D01*
X0138548Y0374902D01*
X0138391Y0374890D01*
X0138232Y0374882D01*
X0138074Y0374878D01*
X0137916Y0374878D01*
X0137758Y0374882D01*
X0137599Y0374890D01*
X0137442Y0374902D01*
X0137284Y0374918D01*
X0137127Y0374938D01*
X0136971Y0374962D01*
X0136815Y0374990D01*
X0136660Y0375021D01*
X0136505Y0375057D01*
X0136352Y0375096D01*
X0136200Y0375139D01*
X0136049Y0375186D01*
X0135899Y0375237D01*
X0135750Y0375292D01*
X0135603Y0375350D01*
X0135457Y0375412D01*
X0135313Y0375477D01*
X0135171Y0375547D01*
X0135030Y0375619D01*
X0134891Y0375696D01*
X0134755Y0375775D01*
X0134620Y0375859D01*
X0134487Y0375945D01*
X0134357Y0376035D01*
X0134229Y0376128D01*
X0134103Y0376224D01*
X0133980Y0376324D01*
X0133859Y0376426D01*
X0133741Y0376531D01*
X0133626Y0376640D01*
X0133513Y0376751D01*
X0133403Y0376865D01*
X0133296Y0376982D01*
X0133192Y0377101D01*
X0133091Y0377223D01*
X0132994Y0377348D01*
X0132899Y0377475D01*
X0132808Y0377604D01*
X0132719Y0377735D01*
X0132635Y0377869D01*
X0132553Y0378005D01*
X0132475Y0378142D01*
X0132401Y0378282D01*
X0132330Y0378424D01*
X0132262Y0378567D01*
X0132198Y0378712D01*
X0132138Y0378858D01*
X0132082Y0379006D01*
X0132029Y0379155D01*
X0131980Y0379306D01*
X0131935Y0379458D01*
X0131894Y0379611D01*
X0131856Y0379764D01*
X0131823Y0379919D01*
X0131793Y0380075D01*
X0131767Y0380231D01*
X0131746Y0380388D01*
X0131728Y0380545D01*
X0131714Y0380703D01*
X0131704Y0380861D01*
X0131698Y0381019D01*
X0131696Y0381177D01*
M02*
