G75*
%MOIN*%
%OFA0B0*%
%FSLAX25Y25*%
%IPPOS*%
%LPD*%
%AMOC8*
5,1,8,0,0,1.08239X$1,22.5*
%
%ADD10C,0.00500*%
%ADD11C,0.00300*%
D10*
X0359846Y0083316D02*
X0360597Y0082565D01*
X0362849Y0082565D01*
X0362849Y0087069D01*
X0360597Y0087069D01*
X0359846Y0086318D01*
X0359846Y0085568D01*
X0360597Y0084817D01*
X0362849Y0084817D01*
X0360597Y0084817D02*
X0359846Y0084066D01*
X0359846Y0083316D01*
X0364417Y0082565D02*
X0365918Y0082565D01*
X0365167Y0082565D02*
X0365167Y0087069D01*
X0364417Y0087069D02*
X0365918Y0087069D01*
X0367519Y0086318D02*
X0368270Y0087069D01*
X0370522Y0087069D01*
X0370522Y0082565D01*
X0368270Y0082565D01*
X0367519Y0083316D01*
X0367519Y0086318D01*
X0376727Y0086318D02*
X0379730Y0083316D01*
X0379730Y0082565D01*
X0376727Y0082565D01*
X0376727Y0086318D02*
X0376727Y0087069D01*
X0379730Y0087069D01*
X0381331Y0087069D02*
X0384334Y0087069D01*
X0384334Y0082565D01*
X0381331Y0082565D01*
X0382832Y0084817D02*
X0384334Y0084817D01*
X0385935Y0087069D02*
X0388938Y0087069D01*
X0388938Y0082565D01*
X0385935Y0082565D01*
X0387436Y0084817D02*
X0388938Y0084817D01*
X0460238Y0078515D02*
X0460238Y0068015D01*
X0528488Y0068015D01*
X0528488Y0078515D01*
X0460238Y0078515D01*
X0461988Y0075540D02*
X0461990Y0075610D01*
X0461996Y0075680D01*
X0462006Y0075749D01*
X0462019Y0075818D01*
X0462037Y0075886D01*
X0462058Y0075953D01*
X0462083Y0076018D01*
X0462112Y0076082D01*
X0462144Y0076145D01*
X0462180Y0076205D01*
X0462219Y0076263D01*
X0462261Y0076319D01*
X0462306Y0076373D01*
X0462354Y0076424D01*
X0462405Y0076472D01*
X0462459Y0076517D01*
X0462515Y0076559D01*
X0462573Y0076598D01*
X0462633Y0076634D01*
X0462696Y0076666D01*
X0462760Y0076695D01*
X0462825Y0076720D01*
X0462892Y0076741D01*
X0462960Y0076759D01*
X0463029Y0076772D01*
X0463098Y0076782D01*
X0463168Y0076788D01*
X0463238Y0076790D01*
X0463308Y0076788D01*
X0463378Y0076782D01*
X0463447Y0076772D01*
X0463516Y0076759D01*
X0463584Y0076741D01*
X0463651Y0076720D01*
X0463716Y0076695D01*
X0463780Y0076666D01*
X0463843Y0076634D01*
X0463903Y0076598D01*
X0463961Y0076559D01*
X0464017Y0076517D01*
X0464071Y0076472D01*
X0464122Y0076424D01*
X0464170Y0076373D01*
X0464215Y0076319D01*
X0464257Y0076263D01*
X0464296Y0076205D01*
X0464332Y0076145D01*
X0464364Y0076082D01*
X0464393Y0076018D01*
X0464418Y0075953D01*
X0464439Y0075886D01*
X0464457Y0075818D01*
X0464470Y0075749D01*
X0464480Y0075680D01*
X0464486Y0075610D01*
X0464488Y0075540D01*
X0464486Y0075470D01*
X0464480Y0075400D01*
X0464470Y0075331D01*
X0464457Y0075262D01*
X0464439Y0075194D01*
X0464418Y0075127D01*
X0464393Y0075062D01*
X0464364Y0074998D01*
X0464332Y0074935D01*
X0464296Y0074875D01*
X0464257Y0074817D01*
X0464215Y0074761D01*
X0464170Y0074707D01*
X0464122Y0074656D01*
X0464071Y0074608D01*
X0464017Y0074563D01*
X0463961Y0074521D01*
X0463903Y0074482D01*
X0463843Y0074446D01*
X0463780Y0074414D01*
X0463716Y0074385D01*
X0463651Y0074360D01*
X0463584Y0074339D01*
X0463516Y0074321D01*
X0463447Y0074308D01*
X0463378Y0074298D01*
X0463308Y0074292D01*
X0463238Y0074290D01*
X0463168Y0074292D01*
X0463098Y0074298D01*
X0463029Y0074308D01*
X0462960Y0074321D01*
X0462892Y0074339D01*
X0462825Y0074360D01*
X0462760Y0074385D01*
X0462696Y0074414D01*
X0462633Y0074446D01*
X0462573Y0074482D01*
X0462515Y0074521D01*
X0462459Y0074563D01*
X0462405Y0074608D01*
X0462354Y0074656D01*
X0462306Y0074707D01*
X0462261Y0074761D01*
X0462219Y0074817D01*
X0462180Y0074875D01*
X0462144Y0074935D01*
X0462112Y0074998D01*
X0462083Y0075062D01*
X0462058Y0075127D01*
X0462037Y0075194D01*
X0462019Y0075262D01*
X0462006Y0075331D01*
X0461996Y0075400D01*
X0461990Y0075470D01*
X0461988Y0075540D01*
X0461988Y0070765D02*
X0461990Y0070835D01*
X0461996Y0070905D01*
X0462006Y0070974D01*
X0462019Y0071043D01*
X0462037Y0071111D01*
X0462058Y0071178D01*
X0462083Y0071243D01*
X0462112Y0071307D01*
X0462144Y0071370D01*
X0462180Y0071430D01*
X0462219Y0071488D01*
X0462261Y0071544D01*
X0462306Y0071598D01*
X0462354Y0071649D01*
X0462405Y0071697D01*
X0462459Y0071742D01*
X0462515Y0071784D01*
X0462573Y0071823D01*
X0462633Y0071859D01*
X0462696Y0071891D01*
X0462760Y0071920D01*
X0462825Y0071945D01*
X0462892Y0071966D01*
X0462960Y0071984D01*
X0463029Y0071997D01*
X0463098Y0072007D01*
X0463168Y0072013D01*
X0463238Y0072015D01*
X0463308Y0072013D01*
X0463378Y0072007D01*
X0463447Y0071997D01*
X0463516Y0071984D01*
X0463584Y0071966D01*
X0463651Y0071945D01*
X0463716Y0071920D01*
X0463780Y0071891D01*
X0463843Y0071859D01*
X0463903Y0071823D01*
X0463961Y0071784D01*
X0464017Y0071742D01*
X0464071Y0071697D01*
X0464122Y0071649D01*
X0464170Y0071598D01*
X0464215Y0071544D01*
X0464257Y0071488D01*
X0464296Y0071430D01*
X0464332Y0071370D01*
X0464364Y0071307D01*
X0464393Y0071243D01*
X0464418Y0071178D01*
X0464439Y0071111D01*
X0464457Y0071043D01*
X0464470Y0070974D01*
X0464480Y0070905D01*
X0464486Y0070835D01*
X0464488Y0070765D01*
X0464486Y0070695D01*
X0464480Y0070625D01*
X0464470Y0070556D01*
X0464457Y0070487D01*
X0464439Y0070419D01*
X0464418Y0070352D01*
X0464393Y0070287D01*
X0464364Y0070223D01*
X0464332Y0070160D01*
X0464296Y0070100D01*
X0464257Y0070042D01*
X0464215Y0069986D01*
X0464170Y0069932D01*
X0464122Y0069881D01*
X0464071Y0069833D01*
X0464017Y0069788D01*
X0463961Y0069746D01*
X0463903Y0069707D01*
X0463843Y0069671D01*
X0463780Y0069639D01*
X0463716Y0069610D01*
X0463651Y0069585D01*
X0463584Y0069564D01*
X0463516Y0069546D01*
X0463447Y0069533D01*
X0463378Y0069523D01*
X0463308Y0069517D01*
X0463238Y0069515D01*
X0463168Y0069517D01*
X0463098Y0069523D01*
X0463029Y0069533D01*
X0462960Y0069546D01*
X0462892Y0069564D01*
X0462825Y0069585D01*
X0462760Y0069610D01*
X0462696Y0069639D01*
X0462633Y0069671D01*
X0462573Y0069707D01*
X0462515Y0069746D01*
X0462459Y0069788D01*
X0462405Y0069833D01*
X0462354Y0069881D01*
X0462306Y0069932D01*
X0462261Y0069986D01*
X0462219Y0070042D01*
X0462180Y0070100D01*
X0462144Y0070160D01*
X0462112Y0070223D01*
X0462083Y0070287D01*
X0462058Y0070352D01*
X0462037Y0070419D01*
X0462019Y0070487D01*
X0462006Y0070556D01*
X0461996Y0070625D01*
X0461990Y0070695D01*
X0461988Y0070765D01*
X0466763Y0070765D02*
X0466765Y0070835D01*
X0466771Y0070905D01*
X0466781Y0070974D01*
X0466794Y0071043D01*
X0466812Y0071111D01*
X0466833Y0071178D01*
X0466858Y0071243D01*
X0466887Y0071307D01*
X0466919Y0071370D01*
X0466955Y0071430D01*
X0466994Y0071488D01*
X0467036Y0071544D01*
X0467081Y0071598D01*
X0467129Y0071649D01*
X0467180Y0071697D01*
X0467234Y0071742D01*
X0467290Y0071784D01*
X0467348Y0071823D01*
X0467408Y0071859D01*
X0467471Y0071891D01*
X0467535Y0071920D01*
X0467600Y0071945D01*
X0467667Y0071966D01*
X0467735Y0071984D01*
X0467804Y0071997D01*
X0467873Y0072007D01*
X0467943Y0072013D01*
X0468013Y0072015D01*
X0468083Y0072013D01*
X0468153Y0072007D01*
X0468222Y0071997D01*
X0468291Y0071984D01*
X0468359Y0071966D01*
X0468426Y0071945D01*
X0468491Y0071920D01*
X0468555Y0071891D01*
X0468618Y0071859D01*
X0468678Y0071823D01*
X0468736Y0071784D01*
X0468792Y0071742D01*
X0468846Y0071697D01*
X0468897Y0071649D01*
X0468945Y0071598D01*
X0468990Y0071544D01*
X0469032Y0071488D01*
X0469071Y0071430D01*
X0469107Y0071370D01*
X0469139Y0071307D01*
X0469168Y0071243D01*
X0469193Y0071178D01*
X0469214Y0071111D01*
X0469232Y0071043D01*
X0469245Y0070974D01*
X0469255Y0070905D01*
X0469261Y0070835D01*
X0469263Y0070765D01*
X0469261Y0070695D01*
X0469255Y0070625D01*
X0469245Y0070556D01*
X0469232Y0070487D01*
X0469214Y0070419D01*
X0469193Y0070352D01*
X0469168Y0070287D01*
X0469139Y0070223D01*
X0469107Y0070160D01*
X0469071Y0070100D01*
X0469032Y0070042D01*
X0468990Y0069986D01*
X0468945Y0069932D01*
X0468897Y0069881D01*
X0468846Y0069833D01*
X0468792Y0069788D01*
X0468736Y0069746D01*
X0468678Y0069707D01*
X0468618Y0069671D01*
X0468555Y0069639D01*
X0468491Y0069610D01*
X0468426Y0069585D01*
X0468359Y0069564D01*
X0468291Y0069546D01*
X0468222Y0069533D01*
X0468153Y0069523D01*
X0468083Y0069517D01*
X0468013Y0069515D01*
X0467943Y0069517D01*
X0467873Y0069523D01*
X0467804Y0069533D01*
X0467735Y0069546D01*
X0467667Y0069564D01*
X0467600Y0069585D01*
X0467535Y0069610D01*
X0467471Y0069639D01*
X0467408Y0069671D01*
X0467348Y0069707D01*
X0467290Y0069746D01*
X0467234Y0069788D01*
X0467180Y0069833D01*
X0467129Y0069881D01*
X0467081Y0069932D01*
X0467036Y0069986D01*
X0466994Y0070042D01*
X0466955Y0070100D01*
X0466919Y0070160D01*
X0466887Y0070223D01*
X0466858Y0070287D01*
X0466833Y0070352D01*
X0466812Y0070419D01*
X0466794Y0070487D01*
X0466781Y0070556D01*
X0466771Y0070625D01*
X0466765Y0070695D01*
X0466763Y0070765D01*
X0466763Y0075540D02*
X0466765Y0075610D01*
X0466771Y0075680D01*
X0466781Y0075749D01*
X0466794Y0075818D01*
X0466812Y0075886D01*
X0466833Y0075953D01*
X0466858Y0076018D01*
X0466887Y0076082D01*
X0466919Y0076145D01*
X0466955Y0076205D01*
X0466994Y0076263D01*
X0467036Y0076319D01*
X0467081Y0076373D01*
X0467129Y0076424D01*
X0467180Y0076472D01*
X0467234Y0076517D01*
X0467290Y0076559D01*
X0467348Y0076598D01*
X0467408Y0076634D01*
X0467471Y0076666D01*
X0467535Y0076695D01*
X0467600Y0076720D01*
X0467667Y0076741D01*
X0467735Y0076759D01*
X0467804Y0076772D01*
X0467873Y0076782D01*
X0467943Y0076788D01*
X0468013Y0076790D01*
X0468083Y0076788D01*
X0468153Y0076782D01*
X0468222Y0076772D01*
X0468291Y0076759D01*
X0468359Y0076741D01*
X0468426Y0076720D01*
X0468491Y0076695D01*
X0468555Y0076666D01*
X0468618Y0076634D01*
X0468678Y0076598D01*
X0468736Y0076559D01*
X0468792Y0076517D01*
X0468846Y0076472D01*
X0468897Y0076424D01*
X0468945Y0076373D01*
X0468990Y0076319D01*
X0469032Y0076263D01*
X0469071Y0076205D01*
X0469107Y0076145D01*
X0469139Y0076082D01*
X0469168Y0076018D01*
X0469193Y0075953D01*
X0469214Y0075886D01*
X0469232Y0075818D01*
X0469245Y0075749D01*
X0469255Y0075680D01*
X0469261Y0075610D01*
X0469263Y0075540D01*
X0469261Y0075470D01*
X0469255Y0075400D01*
X0469245Y0075331D01*
X0469232Y0075262D01*
X0469214Y0075194D01*
X0469193Y0075127D01*
X0469168Y0075062D01*
X0469139Y0074998D01*
X0469107Y0074935D01*
X0469071Y0074875D01*
X0469032Y0074817D01*
X0468990Y0074761D01*
X0468945Y0074707D01*
X0468897Y0074656D01*
X0468846Y0074608D01*
X0468792Y0074563D01*
X0468736Y0074521D01*
X0468678Y0074482D01*
X0468618Y0074446D01*
X0468555Y0074414D01*
X0468491Y0074385D01*
X0468426Y0074360D01*
X0468359Y0074339D01*
X0468291Y0074321D01*
X0468222Y0074308D01*
X0468153Y0074298D01*
X0468083Y0074292D01*
X0468013Y0074290D01*
X0467943Y0074292D01*
X0467873Y0074298D01*
X0467804Y0074308D01*
X0467735Y0074321D01*
X0467667Y0074339D01*
X0467600Y0074360D01*
X0467535Y0074385D01*
X0467471Y0074414D01*
X0467408Y0074446D01*
X0467348Y0074482D01*
X0467290Y0074521D01*
X0467234Y0074563D01*
X0467180Y0074608D01*
X0467129Y0074656D01*
X0467081Y0074707D01*
X0467036Y0074761D01*
X0466994Y0074817D01*
X0466955Y0074875D01*
X0466919Y0074935D01*
X0466887Y0074998D01*
X0466858Y0075062D01*
X0466833Y0075127D01*
X0466812Y0075194D01*
X0466794Y0075262D01*
X0466781Y0075331D01*
X0466771Y0075400D01*
X0466765Y0075470D01*
X0466763Y0075540D01*
X0471538Y0075540D02*
X0471540Y0075610D01*
X0471546Y0075680D01*
X0471556Y0075749D01*
X0471569Y0075818D01*
X0471587Y0075886D01*
X0471608Y0075953D01*
X0471633Y0076018D01*
X0471662Y0076082D01*
X0471694Y0076145D01*
X0471730Y0076205D01*
X0471769Y0076263D01*
X0471811Y0076319D01*
X0471856Y0076373D01*
X0471904Y0076424D01*
X0471955Y0076472D01*
X0472009Y0076517D01*
X0472065Y0076559D01*
X0472123Y0076598D01*
X0472183Y0076634D01*
X0472246Y0076666D01*
X0472310Y0076695D01*
X0472375Y0076720D01*
X0472442Y0076741D01*
X0472510Y0076759D01*
X0472579Y0076772D01*
X0472648Y0076782D01*
X0472718Y0076788D01*
X0472788Y0076790D01*
X0472858Y0076788D01*
X0472928Y0076782D01*
X0472997Y0076772D01*
X0473066Y0076759D01*
X0473134Y0076741D01*
X0473201Y0076720D01*
X0473266Y0076695D01*
X0473330Y0076666D01*
X0473393Y0076634D01*
X0473453Y0076598D01*
X0473511Y0076559D01*
X0473567Y0076517D01*
X0473621Y0076472D01*
X0473672Y0076424D01*
X0473720Y0076373D01*
X0473765Y0076319D01*
X0473807Y0076263D01*
X0473846Y0076205D01*
X0473882Y0076145D01*
X0473914Y0076082D01*
X0473943Y0076018D01*
X0473968Y0075953D01*
X0473989Y0075886D01*
X0474007Y0075818D01*
X0474020Y0075749D01*
X0474030Y0075680D01*
X0474036Y0075610D01*
X0474038Y0075540D01*
X0474036Y0075470D01*
X0474030Y0075400D01*
X0474020Y0075331D01*
X0474007Y0075262D01*
X0473989Y0075194D01*
X0473968Y0075127D01*
X0473943Y0075062D01*
X0473914Y0074998D01*
X0473882Y0074935D01*
X0473846Y0074875D01*
X0473807Y0074817D01*
X0473765Y0074761D01*
X0473720Y0074707D01*
X0473672Y0074656D01*
X0473621Y0074608D01*
X0473567Y0074563D01*
X0473511Y0074521D01*
X0473453Y0074482D01*
X0473393Y0074446D01*
X0473330Y0074414D01*
X0473266Y0074385D01*
X0473201Y0074360D01*
X0473134Y0074339D01*
X0473066Y0074321D01*
X0472997Y0074308D01*
X0472928Y0074298D01*
X0472858Y0074292D01*
X0472788Y0074290D01*
X0472718Y0074292D01*
X0472648Y0074298D01*
X0472579Y0074308D01*
X0472510Y0074321D01*
X0472442Y0074339D01*
X0472375Y0074360D01*
X0472310Y0074385D01*
X0472246Y0074414D01*
X0472183Y0074446D01*
X0472123Y0074482D01*
X0472065Y0074521D01*
X0472009Y0074563D01*
X0471955Y0074608D01*
X0471904Y0074656D01*
X0471856Y0074707D01*
X0471811Y0074761D01*
X0471769Y0074817D01*
X0471730Y0074875D01*
X0471694Y0074935D01*
X0471662Y0074998D01*
X0471633Y0075062D01*
X0471608Y0075127D01*
X0471587Y0075194D01*
X0471569Y0075262D01*
X0471556Y0075331D01*
X0471546Y0075400D01*
X0471540Y0075470D01*
X0471538Y0075540D01*
X0471538Y0070765D02*
X0471540Y0070835D01*
X0471546Y0070905D01*
X0471556Y0070974D01*
X0471569Y0071043D01*
X0471587Y0071111D01*
X0471608Y0071178D01*
X0471633Y0071243D01*
X0471662Y0071307D01*
X0471694Y0071370D01*
X0471730Y0071430D01*
X0471769Y0071488D01*
X0471811Y0071544D01*
X0471856Y0071598D01*
X0471904Y0071649D01*
X0471955Y0071697D01*
X0472009Y0071742D01*
X0472065Y0071784D01*
X0472123Y0071823D01*
X0472183Y0071859D01*
X0472246Y0071891D01*
X0472310Y0071920D01*
X0472375Y0071945D01*
X0472442Y0071966D01*
X0472510Y0071984D01*
X0472579Y0071997D01*
X0472648Y0072007D01*
X0472718Y0072013D01*
X0472788Y0072015D01*
X0472858Y0072013D01*
X0472928Y0072007D01*
X0472997Y0071997D01*
X0473066Y0071984D01*
X0473134Y0071966D01*
X0473201Y0071945D01*
X0473266Y0071920D01*
X0473330Y0071891D01*
X0473393Y0071859D01*
X0473453Y0071823D01*
X0473511Y0071784D01*
X0473567Y0071742D01*
X0473621Y0071697D01*
X0473672Y0071649D01*
X0473720Y0071598D01*
X0473765Y0071544D01*
X0473807Y0071488D01*
X0473846Y0071430D01*
X0473882Y0071370D01*
X0473914Y0071307D01*
X0473943Y0071243D01*
X0473968Y0071178D01*
X0473989Y0071111D01*
X0474007Y0071043D01*
X0474020Y0070974D01*
X0474030Y0070905D01*
X0474036Y0070835D01*
X0474038Y0070765D01*
X0474036Y0070695D01*
X0474030Y0070625D01*
X0474020Y0070556D01*
X0474007Y0070487D01*
X0473989Y0070419D01*
X0473968Y0070352D01*
X0473943Y0070287D01*
X0473914Y0070223D01*
X0473882Y0070160D01*
X0473846Y0070100D01*
X0473807Y0070042D01*
X0473765Y0069986D01*
X0473720Y0069932D01*
X0473672Y0069881D01*
X0473621Y0069833D01*
X0473567Y0069788D01*
X0473511Y0069746D01*
X0473453Y0069707D01*
X0473393Y0069671D01*
X0473330Y0069639D01*
X0473266Y0069610D01*
X0473201Y0069585D01*
X0473134Y0069564D01*
X0473066Y0069546D01*
X0472997Y0069533D01*
X0472928Y0069523D01*
X0472858Y0069517D01*
X0472788Y0069515D01*
X0472718Y0069517D01*
X0472648Y0069523D01*
X0472579Y0069533D01*
X0472510Y0069546D01*
X0472442Y0069564D01*
X0472375Y0069585D01*
X0472310Y0069610D01*
X0472246Y0069639D01*
X0472183Y0069671D01*
X0472123Y0069707D01*
X0472065Y0069746D01*
X0472009Y0069788D01*
X0471955Y0069833D01*
X0471904Y0069881D01*
X0471856Y0069932D01*
X0471811Y0069986D01*
X0471769Y0070042D01*
X0471730Y0070100D01*
X0471694Y0070160D01*
X0471662Y0070223D01*
X0471633Y0070287D01*
X0471608Y0070352D01*
X0471587Y0070419D01*
X0471569Y0070487D01*
X0471556Y0070556D01*
X0471546Y0070625D01*
X0471540Y0070695D01*
X0471538Y0070765D01*
X0476313Y0070765D02*
X0476315Y0070835D01*
X0476321Y0070905D01*
X0476331Y0070974D01*
X0476344Y0071043D01*
X0476362Y0071111D01*
X0476383Y0071178D01*
X0476408Y0071243D01*
X0476437Y0071307D01*
X0476469Y0071370D01*
X0476505Y0071430D01*
X0476544Y0071488D01*
X0476586Y0071544D01*
X0476631Y0071598D01*
X0476679Y0071649D01*
X0476730Y0071697D01*
X0476784Y0071742D01*
X0476840Y0071784D01*
X0476898Y0071823D01*
X0476958Y0071859D01*
X0477021Y0071891D01*
X0477085Y0071920D01*
X0477150Y0071945D01*
X0477217Y0071966D01*
X0477285Y0071984D01*
X0477354Y0071997D01*
X0477423Y0072007D01*
X0477493Y0072013D01*
X0477563Y0072015D01*
X0477633Y0072013D01*
X0477703Y0072007D01*
X0477772Y0071997D01*
X0477841Y0071984D01*
X0477909Y0071966D01*
X0477976Y0071945D01*
X0478041Y0071920D01*
X0478105Y0071891D01*
X0478168Y0071859D01*
X0478228Y0071823D01*
X0478286Y0071784D01*
X0478342Y0071742D01*
X0478396Y0071697D01*
X0478447Y0071649D01*
X0478495Y0071598D01*
X0478540Y0071544D01*
X0478582Y0071488D01*
X0478621Y0071430D01*
X0478657Y0071370D01*
X0478689Y0071307D01*
X0478718Y0071243D01*
X0478743Y0071178D01*
X0478764Y0071111D01*
X0478782Y0071043D01*
X0478795Y0070974D01*
X0478805Y0070905D01*
X0478811Y0070835D01*
X0478813Y0070765D01*
X0478811Y0070695D01*
X0478805Y0070625D01*
X0478795Y0070556D01*
X0478782Y0070487D01*
X0478764Y0070419D01*
X0478743Y0070352D01*
X0478718Y0070287D01*
X0478689Y0070223D01*
X0478657Y0070160D01*
X0478621Y0070100D01*
X0478582Y0070042D01*
X0478540Y0069986D01*
X0478495Y0069932D01*
X0478447Y0069881D01*
X0478396Y0069833D01*
X0478342Y0069788D01*
X0478286Y0069746D01*
X0478228Y0069707D01*
X0478168Y0069671D01*
X0478105Y0069639D01*
X0478041Y0069610D01*
X0477976Y0069585D01*
X0477909Y0069564D01*
X0477841Y0069546D01*
X0477772Y0069533D01*
X0477703Y0069523D01*
X0477633Y0069517D01*
X0477563Y0069515D01*
X0477493Y0069517D01*
X0477423Y0069523D01*
X0477354Y0069533D01*
X0477285Y0069546D01*
X0477217Y0069564D01*
X0477150Y0069585D01*
X0477085Y0069610D01*
X0477021Y0069639D01*
X0476958Y0069671D01*
X0476898Y0069707D01*
X0476840Y0069746D01*
X0476784Y0069788D01*
X0476730Y0069833D01*
X0476679Y0069881D01*
X0476631Y0069932D01*
X0476586Y0069986D01*
X0476544Y0070042D01*
X0476505Y0070100D01*
X0476469Y0070160D01*
X0476437Y0070223D01*
X0476408Y0070287D01*
X0476383Y0070352D01*
X0476362Y0070419D01*
X0476344Y0070487D01*
X0476331Y0070556D01*
X0476321Y0070625D01*
X0476315Y0070695D01*
X0476313Y0070765D01*
X0476313Y0075540D02*
X0476315Y0075610D01*
X0476321Y0075680D01*
X0476331Y0075749D01*
X0476344Y0075818D01*
X0476362Y0075886D01*
X0476383Y0075953D01*
X0476408Y0076018D01*
X0476437Y0076082D01*
X0476469Y0076145D01*
X0476505Y0076205D01*
X0476544Y0076263D01*
X0476586Y0076319D01*
X0476631Y0076373D01*
X0476679Y0076424D01*
X0476730Y0076472D01*
X0476784Y0076517D01*
X0476840Y0076559D01*
X0476898Y0076598D01*
X0476958Y0076634D01*
X0477021Y0076666D01*
X0477085Y0076695D01*
X0477150Y0076720D01*
X0477217Y0076741D01*
X0477285Y0076759D01*
X0477354Y0076772D01*
X0477423Y0076782D01*
X0477493Y0076788D01*
X0477563Y0076790D01*
X0477633Y0076788D01*
X0477703Y0076782D01*
X0477772Y0076772D01*
X0477841Y0076759D01*
X0477909Y0076741D01*
X0477976Y0076720D01*
X0478041Y0076695D01*
X0478105Y0076666D01*
X0478168Y0076634D01*
X0478228Y0076598D01*
X0478286Y0076559D01*
X0478342Y0076517D01*
X0478396Y0076472D01*
X0478447Y0076424D01*
X0478495Y0076373D01*
X0478540Y0076319D01*
X0478582Y0076263D01*
X0478621Y0076205D01*
X0478657Y0076145D01*
X0478689Y0076082D01*
X0478718Y0076018D01*
X0478743Y0075953D01*
X0478764Y0075886D01*
X0478782Y0075818D01*
X0478795Y0075749D01*
X0478805Y0075680D01*
X0478811Y0075610D01*
X0478813Y0075540D01*
X0478811Y0075470D01*
X0478805Y0075400D01*
X0478795Y0075331D01*
X0478782Y0075262D01*
X0478764Y0075194D01*
X0478743Y0075127D01*
X0478718Y0075062D01*
X0478689Y0074998D01*
X0478657Y0074935D01*
X0478621Y0074875D01*
X0478582Y0074817D01*
X0478540Y0074761D01*
X0478495Y0074707D01*
X0478447Y0074656D01*
X0478396Y0074608D01*
X0478342Y0074563D01*
X0478286Y0074521D01*
X0478228Y0074482D01*
X0478168Y0074446D01*
X0478105Y0074414D01*
X0478041Y0074385D01*
X0477976Y0074360D01*
X0477909Y0074339D01*
X0477841Y0074321D01*
X0477772Y0074308D01*
X0477703Y0074298D01*
X0477633Y0074292D01*
X0477563Y0074290D01*
X0477493Y0074292D01*
X0477423Y0074298D01*
X0477354Y0074308D01*
X0477285Y0074321D01*
X0477217Y0074339D01*
X0477150Y0074360D01*
X0477085Y0074385D01*
X0477021Y0074414D01*
X0476958Y0074446D01*
X0476898Y0074482D01*
X0476840Y0074521D01*
X0476784Y0074563D01*
X0476730Y0074608D01*
X0476679Y0074656D01*
X0476631Y0074707D01*
X0476586Y0074761D01*
X0476544Y0074817D01*
X0476505Y0074875D01*
X0476469Y0074935D01*
X0476437Y0074998D01*
X0476408Y0075062D01*
X0476383Y0075127D01*
X0476362Y0075194D01*
X0476344Y0075262D01*
X0476331Y0075331D01*
X0476321Y0075400D01*
X0476315Y0075470D01*
X0476313Y0075540D01*
X0481088Y0075540D02*
X0481090Y0075610D01*
X0481096Y0075680D01*
X0481106Y0075749D01*
X0481119Y0075818D01*
X0481137Y0075886D01*
X0481158Y0075953D01*
X0481183Y0076018D01*
X0481212Y0076082D01*
X0481244Y0076145D01*
X0481280Y0076205D01*
X0481319Y0076263D01*
X0481361Y0076319D01*
X0481406Y0076373D01*
X0481454Y0076424D01*
X0481505Y0076472D01*
X0481559Y0076517D01*
X0481615Y0076559D01*
X0481673Y0076598D01*
X0481733Y0076634D01*
X0481796Y0076666D01*
X0481860Y0076695D01*
X0481925Y0076720D01*
X0481992Y0076741D01*
X0482060Y0076759D01*
X0482129Y0076772D01*
X0482198Y0076782D01*
X0482268Y0076788D01*
X0482338Y0076790D01*
X0482408Y0076788D01*
X0482478Y0076782D01*
X0482547Y0076772D01*
X0482616Y0076759D01*
X0482684Y0076741D01*
X0482751Y0076720D01*
X0482816Y0076695D01*
X0482880Y0076666D01*
X0482943Y0076634D01*
X0483003Y0076598D01*
X0483061Y0076559D01*
X0483117Y0076517D01*
X0483171Y0076472D01*
X0483222Y0076424D01*
X0483270Y0076373D01*
X0483315Y0076319D01*
X0483357Y0076263D01*
X0483396Y0076205D01*
X0483432Y0076145D01*
X0483464Y0076082D01*
X0483493Y0076018D01*
X0483518Y0075953D01*
X0483539Y0075886D01*
X0483557Y0075818D01*
X0483570Y0075749D01*
X0483580Y0075680D01*
X0483586Y0075610D01*
X0483588Y0075540D01*
X0483586Y0075470D01*
X0483580Y0075400D01*
X0483570Y0075331D01*
X0483557Y0075262D01*
X0483539Y0075194D01*
X0483518Y0075127D01*
X0483493Y0075062D01*
X0483464Y0074998D01*
X0483432Y0074935D01*
X0483396Y0074875D01*
X0483357Y0074817D01*
X0483315Y0074761D01*
X0483270Y0074707D01*
X0483222Y0074656D01*
X0483171Y0074608D01*
X0483117Y0074563D01*
X0483061Y0074521D01*
X0483003Y0074482D01*
X0482943Y0074446D01*
X0482880Y0074414D01*
X0482816Y0074385D01*
X0482751Y0074360D01*
X0482684Y0074339D01*
X0482616Y0074321D01*
X0482547Y0074308D01*
X0482478Y0074298D01*
X0482408Y0074292D01*
X0482338Y0074290D01*
X0482268Y0074292D01*
X0482198Y0074298D01*
X0482129Y0074308D01*
X0482060Y0074321D01*
X0481992Y0074339D01*
X0481925Y0074360D01*
X0481860Y0074385D01*
X0481796Y0074414D01*
X0481733Y0074446D01*
X0481673Y0074482D01*
X0481615Y0074521D01*
X0481559Y0074563D01*
X0481505Y0074608D01*
X0481454Y0074656D01*
X0481406Y0074707D01*
X0481361Y0074761D01*
X0481319Y0074817D01*
X0481280Y0074875D01*
X0481244Y0074935D01*
X0481212Y0074998D01*
X0481183Y0075062D01*
X0481158Y0075127D01*
X0481137Y0075194D01*
X0481119Y0075262D01*
X0481106Y0075331D01*
X0481096Y0075400D01*
X0481090Y0075470D01*
X0481088Y0075540D01*
X0481088Y0070765D02*
X0481090Y0070835D01*
X0481096Y0070905D01*
X0481106Y0070974D01*
X0481119Y0071043D01*
X0481137Y0071111D01*
X0481158Y0071178D01*
X0481183Y0071243D01*
X0481212Y0071307D01*
X0481244Y0071370D01*
X0481280Y0071430D01*
X0481319Y0071488D01*
X0481361Y0071544D01*
X0481406Y0071598D01*
X0481454Y0071649D01*
X0481505Y0071697D01*
X0481559Y0071742D01*
X0481615Y0071784D01*
X0481673Y0071823D01*
X0481733Y0071859D01*
X0481796Y0071891D01*
X0481860Y0071920D01*
X0481925Y0071945D01*
X0481992Y0071966D01*
X0482060Y0071984D01*
X0482129Y0071997D01*
X0482198Y0072007D01*
X0482268Y0072013D01*
X0482338Y0072015D01*
X0482408Y0072013D01*
X0482478Y0072007D01*
X0482547Y0071997D01*
X0482616Y0071984D01*
X0482684Y0071966D01*
X0482751Y0071945D01*
X0482816Y0071920D01*
X0482880Y0071891D01*
X0482943Y0071859D01*
X0483003Y0071823D01*
X0483061Y0071784D01*
X0483117Y0071742D01*
X0483171Y0071697D01*
X0483222Y0071649D01*
X0483270Y0071598D01*
X0483315Y0071544D01*
X0483357Y0071488D01*
X0483396Y0071430D01*
X0483432Y0071370D01*
X0483464Y0071307D01*
X0483493Y0071243D01*
X0483518Y0071178D01*
X0483539Y0071111D01*
X0483557Y0071043D01*
X0483570Y0070974D01*
X0483580Y0070905D01*
X0483586Y0070835D01*
X0483588Y0070765D01*
X0483586Y0070695D01*
X0483580Y0070625D01*
X0483570Y0070556D01*
X0483557Y0070487D01*
X0483539Y0070419D01*
X0483518Y0070352D01*
X0483493Y0070287D01*
X0483464Y0070223D01*
X0483432Y0070160D01*
X0483396Y0070100D01*
X0483357Y0070042D01*
X0483315Y0069986D01*
X0483270Y0069932D01*
X0483222Y0069881D01*
X0483171Y0069833D01*
X0483117Y0069788D01*
X0483061Y0069746D01*
X0483003Y0069707D01*
X0482943Y0069671D01*
X0482880Y0069639D01*
X0482816Y0069610D01*
X0482751Y0069585D01*
X0482684Y0069564D01*
X0482616Y0069546D01*
X0482547Y0069533D01*
X0482478Y0069523D01*
X0482408Y0069517D01*
X0482338Y0069515D01*
X0482268Y0069517D01*
X0482198Y0069523D01*
X0482129Y0069533D01*
X0482060Y0069546D01*
X0481992Y0069564D01*
X0481925Y0069585D01*
X0481860Y0069610D01*
X0481796Y0069639D01*
X0481733Y0069671D01*
X0481673Y0069707D01*
X0481615Y0069746D01*
X0481559Y0069788D01*
X0481505Y0069833D01*
X0481454Y0069881D01*
X0481406Y0069932D01*
X0481361Y0069986D01*
X0481319Y0070042D01*
X0481280Y0070100D01*
X0481244Y0070160D01*
X0481212Y0070223D01*
X0481183Y0070287D01*
X0481158Y0070352D01*
X0481137Y0070419D01*
X0481119Y0070487D01*
X0481106Y0070556D01*
X0481096Y0070625D01*
X0481090Y0070695D01*
X0481088Y0070765D01*
X0485863Y0070765D02*
X0485865Y0070835D01*
X0485871Y0070905D01*
X0485881Y0070974D01*
X0485894Y0071043D01*
X0485912Y0071111D01*
X0485933Y0071178D01*
X0485958Y0071243D01*
X0485987Y0071307D01*
X0486019Y0071370D01*
X0486055Y0071430D01*
X0486094Y0071488D01*
X0486136Y0071544D01*
X0486181Y0071598D01*
X0486229Y0071649D01*
X0486280Y0071697D01*
X0486334Y0071742D01*
X0486390Y0071784D01*
X0486448Y0071823D01*
X0486508Y0071859D01*
X0486571Y0071891D01*
X0486635Y0071920D01*
X0486700Y0071945D01*
X0486767Y0071966D01*
X0486835Y0071984D01*
X0486904Y0071997D01*
X0486973Y0072007D01*
X0487043Y0072013D01*
X0487113Y0072015D01*
X0487183Y0072013D01*
X0487253Y0072007D01*
X0487322Y0071997D01*
X0487391Y0071984D01*
X0487459Y0071966D01*
X0487526Y0071945D01*
X0487591Y0071920D01*
X0487655Y0071891D01*
X0487718Y0071859D01*
X0487778Y0071823D01*
X0487836Y0071784D01*
X0487892Y0071742D01*
X0487946Y0071697D01*
X0487997Y0071649D01*
X0488045Y0071598D01*
X0488090Y0071544D01*
X0488132Y0071488D01*
X0488171Y0071430D01*
X0488207Y0071370D01*
X0488239Y0071307D01*
X0488268Y0071243D01*
X0488293Y0071178D01*
X0488314Y0071111D01*
X0488332Y0071043D01*
X0488345Y0070974D01*
X0488355Y0070905D01*
X0488361Y0070835D01*
X0488363Y0070765D01*
X0488361Y0070695D01*
X0488355Y0070625D01*
X0488345Y0070556D01*
X0488332Y0070487D01*
X0488314Y0070419D01*
X0488293Y0070352D01*
X0488268Y0070287D01*
X0488239Y0070223D01*
X0488207Y0070160D01*
X0488171Y0070100D01*
X0488132Y0070042D01*
X0488090Y0069986D01*
X0488045Y0069932D01*
X0487997Y0069881D01*
X0487946Y0069833D01*
X0487892Y0069788D01*
X0487836Y0069746D01*
X0487778Y0069707D01*
X0487718Y0069671D01*
X0487655Y0069639D01*
X0487591Y0069610D01*
X0487526Y0069585D01*
X0487459Y0069564D01*
X0487391Y0069546D01*
X0487322Y0069533D01*
X0487253Y0069523D01*
X0487183Y0069517D01*
X0487113Y0069515D01*
X0487043Y0069517D01*
X0486973Y0069523D01*
X0486904Y0069533D01*
X0486835Y0069546D01*
X0486767Y0069564D01*
X0486700Y0069585D01*
X0486635Y0069610D01*
X0486571Y0069639D01*
X0486508Y0069671D01*
X0486448Y0069707D01*
X0486390Y0069746D01*
X0486334Y0069788D01*
X0486280Y0069833D01*
X0486229Y0069881D01*
X0486181Y0069932D01*
X0486136Y0069986D01*
X0486094Y0070042D01*
X0486055Y0070100D01*
X0486019Y0070160D01*
X0485987Y0070223D01*
X0485958Y0070287D01*
X0485933Y0070352D01*
X0485912Y0070419D01*
X0485894Y0070487D01*
X0485881Y0070556D01*
X0485871Y0070625D01*
X0485865Y0070695D01*
X0485863Y0070765D01*
X0485863Y0075540D02*
X0485865Y0075610D01*
X0485871Y0075680D01*
X0485881Y0075749D01*
X0485894Y0075818D01*
X0485912Y0075886D01*
X0485933Y0075953D01*
X0485958Y0076018D01*
X0485987Y0076082D01*
X0486019Y0076145D01*
X0486055Y0076205D01*
X0486094Y0076263D01*
X0486136Y0076319D01*
X0486181Y0076373D01*
X0486229Y0076424D01*
X0486280Y0076472D01*
X0486334Y0076517D01*
X0486390Y0076559D01*
X0486448Y0076598D01*
X0486508Y0076634D01*
X0486571Y0076666D01*
X0486635Y0076695D01*
X0486700Y0076720D01*
X0486767Y0076741D01*
X0486835Y0076759D01*
X0486904Y0076772D01*
X0486973Y0076782D01*
X0487043Y0076788D01*
X0487113Y0076790D01*
X0487183Y0076788D01*
X0487253Y0076782D01*
X0487322Y0076772D01*
X0487391Y0076759D01*
X0487459Y0076741D01*
X0487526Y0076720D01*
X0487591Y0076695D01*
X0487655Y0076666D01*
X0487718Y0076634D01*
X0487778Y0076598D01*
X0487836Y0076559D01*
X0487892Y0076517D01*
X0487946Y0076472D01*
X0487997Y0076424D01*
X0488045Y0076373D01*
X0488090Y0076319D01*
X0488132Y0076263D01*
X0488171Y0076205D01*
X0488207Y0076145D01*
X0488239Y0076082D01*
X0488268Y0076018D01*
X0488293Y0075953D01*
X0488314Y0075886D01*
X0488332Y0075818D01*
X0488345Y0075749D01*
X0488355Y0075680D01*
X0488361Y0075610D01*
X0488363Y0075540D01*
X0488361Y0075470D01*
X0488355Y0075400D01*
X0488345Y0075331D01*
X0488332Y0075262D01*
X0488314Y0075194D01*
X0488293Y0075127D01*
X0488268Y0075062D01*
X0488239Y0074998D01*
X0488207Y0074935D01*
X0488171Y0074875D01*
X0488132Y0074817D01*
X0488090Y0074761D01*
X0488045Y0074707D01*
X0487997Y0074656D01*
X0487946Y0074608D01*
X0487892Y0074563D01*
X0487836Y0074521D01*
X0487778Y0074482D01*
X0487718Y0074446D01*
X0487655Y0074414D01*
X0487591Y0074385D01*
X0487526Y0074360D01*
X0487459Y0074339D01*
X0487391Y0074321D01*
X0487322Y0074308D01*
X0487253Y0074298D01*
X0487183Y0074292D01*
X0487113Y0074290D01*
X0487043Y0074292D01*
X0486973Y0074298D01*
X0486904Y0074308D01*
X0486835Y0074321D01*
X0486767Y0074339D01*
X0486700Y0074360D01*
X0486635Y0074385D01*
X0486571Y0074414D01*
X0486508Y0074446D01*
X0486448Y0074482D01*
X0486390Y0074521D01*
X0486334Y0074563D01*
X0486280Y0074608D01*
X0486229Y0074656D01*
X0486181Y0074707D01*
X0486136Y0074761D01*
X0486094Y0074817D01*
X0486055Y0074875D01*
X0486019Y0074935D01*
X0485987Y0074998D01*
X0485958Y0075062D01*
X0485933Y0075127D01*
X0485912Y0075194D01*
X0485894Y0075262D01*
X0485881Y0075331D01*
X0485871Y0075400D01*
X0485865Y0075470D01*
X0485863Y0075540D01*
X0490638Y0075540D02*
X0490640Y0075610D01*
X0490646Y0075680D01*
X0490656Y0075749D01*
X0490669Y0075818D01*
X0490687Y0075886D01*
X0490708Y0075953D01*
X0490733Y0076018D01*
X0490762Y0076082D01*
X0490794Y0076145D01*
X0490830Y0076205D01*
X0490869Y0076263D01*
X0490911Y0076319D01*
X0490956Y0076373D01*
X0491004Y0076424D01*
X0491055Y0076472D01*
X0491109Y0076517D01*
X0491165Y0076559D01*
X0491223Y0076598D01*
X0491283Y0076634D01*
X0491346Y0076666D01*
X0491410Y0076695D01*
X0491475Y0076720D01*
X0491542Y0076741D01*
X0491610Y0076759D01*
X0491679Y0076772D01*
X0491748Y0076782D01*
X0491818Y0076788D01*
X0491888Y0076790D01*
X0491958Y0076788D01*
X0492028Y0076782D01*
X0492097Y0076772D01*
X0492166Y0076759D01*
X0492234Y0076741D01*
X0492301Y0076720D01*
X0492366Y0076695D01*
X0492430Y0076666D01*
X0492493Y0076634D01*
X0492553Y0076598D01*
X0492611Y0076559D01*
X0492667Y0076517D01*
X0492721Y0076472D01*
X0492772Y0076424D01*
X0492820Y0076373D01*
X0492865Y0076319D01*
X0492907Y0076263D01*
X0492946Y0076205D01*
X0492982Y0076145D01*
X0493014Y0076082D01*
X0493043Y0076018D01*
X0493068Y0075953D01*
X0493089Y0075886D01*
X0493107Y0075818D01*
X0493120Y0075749D01*
X0493130Y0075680D01*
X0493136Y0075610D01*
X0493138Y0075540D01*
X0493136Y0075470D01*
X0493130Y0075400D01*
X0493120Y0075331D01*
X0493107Y0075262D01*
X0493089Y0075194D01*
X0493068Y0075127D01*
X0493043Y0075062D01*
X0493014Y0074998D01*
X0492982Y0074935D01*
X0492946Y0074875D01*
X0492907Y0074817D01*
X0492865Y0074761D01*
X0492820Y0074707D01*
X0492772Y0074656D01*
X0492721Y0074608D01*
X0492667Y0074563D01*
X0492611Y0074521D01*
X0492553Y0074482D01*
X0492493Y0074446D01*
X0492430Y0074414D01*
X0492366Y0074385D01*
X0492301Y0074360D01*
X0492234Y0074339D01*
X0492166Y0074321D01*
X0492097Y0074308D01*
X0492028Y0074298D01*
X0491958Y0074292D01*
X0491888Y0074290D01*
X0491818Y0074292D01*
X0491748Y0074298D01*
X0491679Y0074308D01*
X0491610Y0074321D01*
X0491542Y0074339D01*
X0491475Y0074360D01*
X0491410Y0074385D01*
X0491346Y0074414D01*
X0491283Y0074446D01*
X0491223Y0074482D01*
X0491165Y0074521D01*
X0491109Y0074563D01*
X0491055Y0074608D01*
X0491004Y0074656D01*
X0490956Y0074707D01*
X0490911Y0074761D01*
X0490869Y0074817D01*
X0490830Y0074875D01*
X0490794Y0074935D01*
X0490762Y0074998D01*
X0490733Y0075062D01*
X0490708Y0075127D01*
X0490687Y0075194D01*
X0490669Y0075262D01*
X0490656Y0075331D01*
X0490646Y0075400D01*
X0490640Y0075470D01*
X0490638Y0075540D01*
X0490638Y0070765D02*
X0490640Y0070835D01*
X0490646Y0070905D01*
X0490656Y0070974D01*
X0490669Y0071043D01*
X0490687Y0071111D01*
X0490708Y0071178D01*
X0490733Y0071243D01*
X0490762Y0071307D01*
X0490794Y0071370D01*
X0490830Y0071430D01*
X0490869Y0071488D01*
X0490911Y0071544D01*
X0490956Y0071598D01*
X0491004Y0071649D01*
X0491055Y0071697D01*
X0491109Y0071742D01*
X0491165Y0071784D01*
X0491223Y0071823D01*
X0491283Y0071859D01*
X0491346Y0071891D01*
X0491410Y0071920D01*
X0491475Y0071945D01*
X0491542Y0071966D01*
X0491610Y0071984D01*
X0491679Y0071997D01*
X0491748Y0072007D01*
X0491818Y0072013D01*
X0491888Y0072015D01*
X0491958Y0072013D01*
X0492028Y0072007D01*
X0492097Y0071997D01*
X0492166Y0071984D01*
X0492234Y0071966D01*
X0492301Y0071945D01*
X0492366Y0071920D01*
X0492430Y0071891D01*
X0492493Y0071859D01*
X0492553Y0071823D01*
X0492611Y0071784D01*
X0492667Y0071742D01*
X0492721Y0071697D01*
X0492772Y0071649D01*
X0492820Y0071598D01*
X0492865Y0071544D01*
X0492907Y0071488D01*
X0492946Y0071430D01*
X0492982Y0071370D01*
X0493014Y0071307D01*
X0493043Y0071243D01*
X0493068Y0071178D01*
X0493089Y0071111D01*
X0493107Y0071043D01*
X0493120Y0070974D01*
X0493130Y0070905D01*
X0493136Y0070835D01*
X0493138Y0070765D01*
X0493136Y0070695D01*
X0493130Y0070625D01*
X0493120Y0070556D01*
X0493107Y0070487D01*
X0493089Y0070419D01*
X0493068Y0070352D01*
X0493043Y0070287D01*
X0493014Y0070223D01*
X0492982Y0070160D01*
X0492946Y0070100D01*
X0492907Y0070042D01*
X0492865Y0069986D01*
X0492820Y0069932D01*
X0492772Y0069881D01*
X0492721Y0069833D01*
X0492667Y0069788D01*
X0492611Y0069746D01*
X0492553Y0069707D01*
X0492493Y0069671D01*
X0492430Y0069639D01*
X0492366Y0069610D01*
X0492301Y0069585D01*
X0492234Y0069564D01*
X0492166Y0069546D01*
X0492097Y0069533D01*
X0492028Y0069523D01*
X0491958Y0069517D01*
X0491888Y0069515D01*
X0491818Y0069517D01*
X0491748Y0069523D01*
X0491679Y0069533D01*
X0491610Y0069546D01*
X0491542Y0069564D01*
X0491475Y0069585D01*
X0491410Y0069610D01*
X0491346Y0069639D01*
X0491283Y0069671D01*
X0491223Y0069707D01*
X0491165Y0069746D01*
X0491109Y0069788D01*
X0491055Y0069833D01*
X0491004Y0069881D01*
X0490956Y0069932D01*
X0490911Y0069986D01*
X0490869Y0070042D01*
X0490830Y0070100D01*
X0490794Y0070160D01*
X0490762Y0070223D01*
X0490733Y0070287D01*
X0490708Y0070352D01*
X0490687Y0070419D01*
X0490669Y0070487D01*
X0490656Y0070556D01*
X0490646Y0070625D01*
X0490640Y0070695D01*
X0490638Y0070765D01*
X0495413Y0070765D02*
X0495415Y0070835D01*
X0495421Y0070905D01*
X0495431Y0070974D01*
X0495444Y0071043D01*
X0495462Y0071111D01*
X0495483Y0071178D01*
X0495508Y0071243D01*
X0495537Y0071307D01*
X0495569Y0071370D01*
X0495605Y0071430D01*
X0495644Y0071488D01*
X0495686Y0071544D01*
X0495731Y0071598D01*
X0495779Y0071649D01*
X0495830Y0071697D01*
X0495884Y0071742D01*
X0495940Y0071784D01*
X0495998Y0071823D01*
X0496058Y0071859D01*
X0496121Y0071891D01*
X0496185Y0071920D01*
X0496250Y0071945D01*
X0496317Y0071966D01*
X0496385Y0071984D01*
X0496454Y0071997D01*
X0496523Y0072007D01*
X0496593Y0072013D01*
X0496663Y0072015D01*
X0496733Y0072013D01*
X0496803Y0072007D01*
X0496872Y0071997D01*
X0496941Y0071984D01*
X0497009Y0071966D01*
X0497076Y0071945D01*
X0497141Y0071920D01*
X0497205Y0071891D01*
X0497268Y0071859D01*
X0497328Y0071823D01*
X0497386Y0071784D01*
X0497442Y0071742D01*
X0497496Y0071697D01*
X0497547Y0071649D01*
X0497595Y0071598D01*
X0497640Y0071544D01*
X0497682Y0071488D01*
X0497721Y0071430D01*
X0497757Y0071370D01*
X0497789Y0071307D01*
X0497818Y0071243D01*
X0497843Y0071178D01*
X0497864Y0071111D01*
X0497882Y0071043D01*
X0497895Y0070974D01*
X0497905Y0070905D01*
X0497911Y0070835D01*
X0497913Y0070765D01*
X0497911Y0070695D01*
X0497905Y0070625D01*
X0497895Y0070556D01*
X0497882Y0070487D01*
X0497864Y0070419D01*
X0497843Y0070352D01*
X0497818Y0070287D01*
X0497789Y0070223D01*
X0497757Y0070160D01*
X0497721Y0070100D01*
X0497682Y0070042D01*
X0497640Y0069986D01*
X0497595Y0069932D01*
X0497547Y0069881D01*
X0497496Y0069833D01*
X0497442Y0069788D01*
X0497386Y0069746D01*
X0497328Y0069707D01*
X0497268Y0069671D01*
X0497205Y0069639D01*
X0497141Y0069610D01*
X0497076Y0069585D01*
X0497009Y0069564D01*
X0496941Y0069546D01*
X0496872Y0069533D01*
X0496803Y0069523D01*
X0496733Y0069517D01*
X0496663Y0069515D01*
X0496593Y0069517D01*
X0496523Y0069523D01*
X0496454Y0069533D01*
X0496385Y0069546D01*
X0496317Y0069564D01*
X0496250Y0069585D01*
X0496185Y0069610D01*
X0496121Y0069639D01*
X0496058Y0069671D01*
X0495998Y0069707D01*
X0495940Y0069746D01*
X0495884Y0069788D01*
X0495830Y0069833D01*
X0495779Y0069881D01*
X0495731Y0069932D01*
X0495686Y0069986D01*
X0495644Y0070042D01*
X0495605Y0070100D01*
X0495569Y0070160D01*
X0495537Y0070223D01*
X0495508Y0070287D01*
X0495483Y0070352D01*
X0495462Y0070419D01*
X0495444Y0070487D01*
X0495431Y0070556D01*
X0495421Y0070625D01*
X0495415Y0070695D01*
X0495413Y0070765D01*
X0495413Y0075540D02*
X0495415Y0075610D01*
X0495421Y0075680D01*
X0495431Y0075749D01*
X0495444Y0075818D01*
X0495462Y0075886D01*
X0495483Y0075953D01*
X0495508Y0076018D01*
X0495537Y0076082D01*
X0495569Y0076145D01*
X0495605Y0076205D01*
X0495644Y0076263D01*
X0495686Y0076319D01*
X0495731Y0076373D01*
X0495779Y0076424D01*
X0495830Y0076472D01*
X0495884Y0076517D01*
X0495940Y0076559D01*
X0495998Y0076598D01*
X0496058Y0076634D01*
X0496121Y0076666D01*
X0496185Y0076695D01*
X0496250Y0076720D01*
X0496317Y0076741D01*
X0496385Y0076759D01*
X0496454Y0076772D01*
X0496523Y0076782D01*
X0496593Y0076788D01*
X0496663Y0076790D01*
X0496733Y0076788D01*
X0496803Y0076782D01*
X0496872Y0076772D01*
X0496941Y0076759D01*
X0497009Y0076741D01*
X0497076Y0076720D01*
X0497141Y0076695D01*
X0497205Y0076666D01*
X0497268Y0076634D01*
X0497328Y0076598D01*
X0497386Y0076559D01*
X0497442Y0076517D01*
X0497496Y0076472D01*
X0497547Y0076424D01*
X0497595Y0076373D01*
X0497640Y0076319D01*
X0497682Y0076263D01*
X0497721Y0076205D01*
X0497757Y0076145D01*
X0497789Y0076082D01*
X0497818Y0076018D01*
X0497843Y0075953D01*
X0497864Y0075886D01*
X0497882Y0075818D01*
X0497895Y0075749D01*
X0497905Y0075680D01*
X0497911Y0075610D01*
X0497913Y0075540D01*
X0497911Y0075470D01*
X0497905Y0075400D01*
X0497895Y0075331D01*
X0497882Y0075262D01*
X0497864Y0075194D01*
X0497843Y0075127D01*
X0497818Y0075062D01*
X0497789Y0074998D01*
X0497757Y0074935D01*
X0497721Y0074875D01*
X0497682Y0074817D01*
X0497640Y0074761D01*
X0497595Y0074707D01*
X0497547Y0074656D01*
X0497496Y0074608D01*
X0497442Y0074563D01*
X0497386Y0074521D01*
X0497328Y0074482D01*
X0497268Y0074446D01*
X0497205Y0074414D01*
X0497141Y0074385D01*
X0497076Y0074360D01*
X0497009Y0074339D01*
X0496941Y0074321D01*
X0496872Y0074308D01*
X0496803Y0074298D01*
X0496733Y0074292D01*
X0496663Y0074290D01*
X0496593Y0074292D01*
X0496523Y0074298D01*
X0496454Y0074308D01*
X0496385Y0074321D01*
X0496317Y0074339D01*
X0496250Y0074360D01*
X0496185Y0074385D01*
X0496121Y0074414D01*
X0496058Y0074446D01*
X0495998Y0074482D01*
X0495940Y0074521D01*
X0495884Y0074563D01*
X0495830Y0074608D01*
X0495779Y0074656D01*
X0495731Y0074707D01*
X0495686Y0074761D01*
X0495644Y0074817D01*
X0495605Y0074875D01*
X0495569Y0074935D01*
X0495537Y0074998D01*
X0495508Y0075062D01*
X0495483Y0075127D01*
X0495462Y0075194D01*
X0495444Y0075262D01*
X0495431Y0075331D01*
X0495421Y0075400D01*
X0495415Y0075470D01*
X0495413Y0075540D01*
X0500188Y0075540D02*
X0500190Y0075610D01*
X0500196Y0075680D01*
X0500206Y0075749D01*
X0500219Y0075818D01*
X0500237Y0075886D01*
X0500258Y0075953D01*
X0500283Y0076018D01*
X0500312Y0076082D01*
X0500344Y0076145D01*
X0500380Y0076205D01*
X0500419Y0076263D01*
X0500461Y0076319D01*
X0500506Y0076373D01*
X0500554Y0076424D01*
X0500605Y0076472D01*
X0500659Y0076517D01*
X0500715Y0076559D01*
X0500773Y0076598D01*
X0500833Y0076634D01*
X0500896Y0076666D01*
X0500960Y0076695D01*
X0501025Y0076720D01*
X0501092Y0076741D01*
X0501160Y0076759D01*
X0501229Y0076772D01*
X0501298Y0076782D01*
X0501368Y0076788D01*
X0501438Y0076790D01*
X0501508Y0076788D01*
X0501578Y0076782D01*
X0501647Y0076772D01*
X0501716Y0076759D01*
X0501784Y0076741D01*
X0501851Y0076720D01*
X0501916Y0076695D01*
X0501980Y0076666D01*
X0502043Y0076634D01*
X0502103Y0076598D01*
X0502161Y0076559D01*
X0502217Y0076517D01*
X0502271Y0076472D01*
X0502322Y0076424D01*
X0502370Y0076373D01*
X0502415Y0076319D01*
X0502457Y0076263D01*
X0502496Y0076205D01*
X0502532Y0076145D01*
X0502564Y0076082D01*
X0502593Y0076018D01*
X0502618Y0075953D01*
X0502639Y0075886D01*
X0502657Y0075818D01*
X0502670Y0075749D01*
X0502680Y0075680D01*
X0502686Y0075610D01*
X0502688Y0075540D01*
X0502686Y0075470D01*
X0502680Y0075400D01*
X0502670Y0075331D01*
X0502657Y0075262D01*
X0502639Y0075194D01*
X0502618Y0075127D01*
X0502593Y0075062D01*
X0502564Y0074998D01*
X0502532Y0074935D01*
X0502496Y0074875D01*
X0502457Y0074817D01*
X0502415Y0074761D01*
X0502370Y0074707D01*
X0502322Y0074656D01*
X0502271Y0074608D01*
X0502217Y0074563D01*
X0502161Y0074521D01*
X0502103Y0074482D01*
X0502043Y0074446D01*
X0501980Y0074414D01*
X0501916Y0074385D01*
X0501851Y0074360D01*
X0501784Y0074339D01*
X0501716Y0074321D01*
X0501647Y0074308D01*
X0501578Y0074298D01*
X0501508Y0074292D01*
X0501438Y0074290D01*
X0501368Y0074292D01*
X0501298Y0074298D01*
X0501229Y0074308D01*
X0501160Y0074321D01*
X0501092Y0074339D01*
X0501025Y0074360D01*
X0500960Y0074385D01*
X0500896Y0074414D01*
X0500833Y0074446D01*
X0500773Y0074482D01*
X0500715Y0074521D01*
X0500659Y0074563D01*
X0500605Y0074608D01*
X0500554Y0074656D01*
X0500506Y0074707D01*
X0500461Y0074761D01*
X0500419Y0074817D01*
X0500380Y0074875D01*
X0500344Y0074935D01*
X0500312Y0074998D01*
X0500283Y0075062D01*
X0500258Y0075127D01*
X0500237Y0075194D01*
X0500219Y0075262D01*
X0500206Y0075331D01*
X0500196Y0075400D01*
X0500190Y0075470D01*
X0500188Y0075540D01*
X0500188Y0070765D02*
X0500190Y0070835D01*
X0500196Y0070905D01*
X0500206Y0070974D01*
X0500219Y0071043D01*
X0500237Y0071111D01*
X0500258Y0071178D01*
X0500283Y0071243D01*
X0500312Y0071307D01*
X0500344Y0071370D01*
X0500380Y0071430D01*
X0500419Y0071488D01*
X0500461Y0071544D01*
X0500506Y0071598D01*
X0500554Y0071649D01*
X0500605Y0071697D01*
X0500659Y0071742D01*
X0500715Y0071784D01*
X0500773Y0071823D01*
X0500833Y0071859D01*
X0500896Y0071891D01*
X0500960Y0071920D01*
X0501025Y0071945D01*
X0501092Y0071966D01*
X0501160Y0071984D01*
X0501229Y0071997D01*
X0501298Y0072007D01*
X0501368Y0072013D01*
X0501438Y0072015D01*
X0501508Y0072013D01*
X0501578Y0072007D01*
X0501647Y0071997D01*
X0501716Y0071984D01*
X0501784Y0071966D01*
X0501851Y0071945D01*
X0501916Y0071920D01*
X0501980Y0071891D01*
X0502043Y0071859D01*
X0502103Y0071823D01*
X0502161Y0071784D01*
X0502217Y0071742D01*
X0502271Y0071697D01*
X0502322Y0071649D01*
X0502370Y0071598D01*
X0502415Y0071544D01*
X0502457Y0071488D01*
X0502496Y0071430D01*
X0502532Y0071370D01*
X0502564Y0071307D01*
X0502593Y0071243D01*
X0502618Y0071178D01*
X0502639Y0071111D01*
X0502657Y0071043D01*
X0502670Y0070974D01*
X0502680Y0070905D01*
X0502686Y0070835D01*
X0502688Y0070765D01*
X0502686Y0070695D01*
X0502680Y0070625D01*
X0502670Y0070556D01*
X0502657Y0070487D01*
X0502639Y0070419D01*
X0502618Y0070352D01*
X0502593Y0070287D01*
X0502564Y0070223D01*
X0502532Y0070160D01*
X0502496Y0070100D01*
X0502457Y0070042D01*
X0502415Y0069986D01*
X0502370Y0069932D01*
X0502322Y0069881D01*
X0502271Y0069833D01*
X0502217Y0069788D01*
X0502161Y0069746D01*
X0502103Y0069707D01*
X0502043Y0069671D01*
X0501980Y0069639D01*
X0501916Y0069610D01*
X0501851Y0069585D01*
X0501784Y0069564D01*
X0501716Y0069546D01*
X0501647Y0069533D01*
X0501578Y0069523D01*
X0501508Y0069517D01*
X0501438Y0069515D01*
X0501368Y0069517D01*
X0501298Y0069523D01*
X0501229Y0069533D01*
X0501160Y0069546D01*
X0501092Y0069564D01*
X0501025Y0069585D01*
X0500960Y0069610D01*
X0500896Y0069639D01*
X0500833Y0069671D01*
X0500773Y0069707D01*
X0500715Y0069746D01*
X0500659Y0069788D01*
X0500605Y0069833D01*
X0500554Y0069881D01*
X0500506Y0069932D01*
X0500461Y0069986D01*
X0500419Y0070042D01*
X0500380Y0070100D01*
X0500344Y0070160D01*
X0500312Y0070223D01*
X0500283Y0070287D01*
X0500258Y0070352D01*
X0500237Y0070419D01*
X0500219Y0070487D01*
X0500206Y0070556D01*
X0500196Y0070625D01*
X0500190Y0070695D01*
X0500188Y0070765D01*
X0504963Y0070765D02*
X0504965Y0070835D01*
X0504971Y0070905D01*
X0504981Y0070974D01*
X0504994Y0071043D01*
X0505012Y0071111D01*
X0505033Y0071178D01*
X0505058Y0071243D01*
X0505087Y0071307D01*
X0505119Y0071370D01*
X0505155Y0071430D01*
X0505194Y0071488D01*
X0505236Y0071544D01*
X0505281Y0071598D01*
X0505329Y0071649D01*
X0505380Y0071697D01*
X0505434Y0071742D01*
X0505490Y0071784D01*
X0505548Y0071823D01*
X0505608Y0071859D01*
X0505671Y0071891D01*
X0505735Y0071920D01*
X0505800Y0071945D01*
X0505867Y0071966D01*
X0505935Y0071984D01*
X0506004Y0071997D01*
X0506073Y0072007D01*
X0506143Y0072013D01*
X0506213Y0072015D01*
X0506283Y0072013D01*
X0506353Y0072007D01*
X0506422Y0071997D01*
X0506491Y0071984D01*
X0506559Y0071966D01*
X0506626Y0071945D01*
X0506691Y0071920D01*
X0506755Y0071891D01*
X0506818Y0071859D01*
X0506878Y0071823D01*
X0506936Y0071784D01*
X0506992Y0071742D01*
X0507046Y0071697D01*
X0507097Y0071649D01*
X0507145Y0071598D01*
X0507190Y0071544D01*
X0507232Y0071488D01*
X0507271Y0071430D01*
X0507307Y0071370D01*
X0507339Y0071307D01*
X0507368Y0071243D01*
X0507393Y0071178D01*
X0507414Y0071111D01*
X0507432Y0071043D01*
X0507445Y0070974D01*
X0507455Y0070905D01*
X0507461Y0070835D01*
X0507463Y0070765D01*
X0507461Y0070695D01*
X0507455Y0070625D01*
X0507445Y0070556D01*
X0507432Y0070487D01*
X0507414Y0070419D01*
X0507393Y0070352D01*
X0507368Y0070287D01*
X0507339Y0070223D01*
X0507307Y0070160D01*
X0507271Y0070100D01*
X0507232Y0070042D01*
X0507190Y0069986D01*
X0507145Y0069932D01*
X0507097Y0069881D01*
X0507046Y0069833D01*
X0506992Y0069788D01*
X0506936Y0069746D01*
X0506878Y0069707D01*
X0506818Y0069671D01*
X0506755Y0069639D01*
X0506691Y0069610D01*
X0506626Y0069585D01*
X0506559Y0069564D01*
X0506491Y0069546D01*
X0506422Y0069533D01*
X0506353Y0069523D01*
X0506283Y0069517D01*
X0506213Y0069515D01*
X0506143Y0069517D01*
X0506073Y0069523D01*
X0506004Y0069533D01*
X0505935Y0069546D01*
X0505867Y0069564D01*
X0505800Y0069585D01*
X0505735Y0069610D01*
X0505671Y0069639D01*
X0505608Y0069671D01*
X0505548Y0069707D01*
X0505490Y0069746D01*
X0505434Y0069788D01*
X0505380Y0069833D01*
X0505329Y0069881D01*
X0505281Y0069932D01*
X0505236Y0069986D01*
X0505194Y0070042D01*
X0505155Y0070100D01*
X0505119Y0070160D01*
X0505087Y0070223D01*
X0505058Y0070287D01*
X0505033Y0070352D01*
X0505012Y0070419D01*
X0504994Y0070487D01*
X0504981Y0070556D01*
X0504971Y0070625D01*
X0504965Y0070695D01*
X0504963Y0070765D01*
X0504963Y0075540D02*
X0504965Y0075610D01*
X0504971Y0075680D01*
X0504981Y0075749D01*
X0504994Y0075818D01*
X0505012Y0075886D01*
X0505033Y0075953D01*
X0505058Y0076018D01*
X0505087Y0076082D01*
X0505119Y0076145D01*
X0505155Y0076205D01*
X0505194Y0076263D01*
X0505236Y0076319D01*
X0505281Y0076373D01*
X0505329Y0076424D01*
X0505380Y0076472D01*
X0505434Y0076517D01*
X0505490Y0076559D01*
X0505548Y0076598D01*
X0505608Y0076634D01*
X0505671Y0076666D01*
X0505735Y0076695D01*
X0505800Y0076720D01*
X0505867Y0076741D01*
X0505935Y0076759D01*
X0506004Y0076772D01*
X0506073Y0076782D01*
X0506143Y0076788D01*
X0506213Y0076790D01*
X0506283Y0076788D01*
X0506353Y0076782D01*
X0506422Y0076772D01*
X0506491Y0076759D01*
X0506559Y0076741D01*
X0506626Y0076720D01*
X0506691Y0076695D01*
X0506755Y0076666D01*
X0506818Y0076634D01*
X0506878Y0076598D01*
X0506936Y0076559D01*
X0506992Y0076517D01*
X0507046Y0076472D01*
X0507097Y0076424D01*
X0507145Y0076373D01*
X0507190Y0076319D01*
X0507232Y0076263D01*
X0507271Y0076205D01*
X0507307Y0076145D01*
X0507339Y0076082D01*
X0507368Y0076018D01*
X0507393Y0075953D01*
X0507414Y0075886D01*
X0507432Y0075818D01*
X0507445Y0075749D01*
X0507455Y0075680D01*
X0507461Y0075610D01*
X0507463Y0075540D01*
X0507461Y0075470D01*
X0507455Y0075400D01*
X0507445Y0075331D01*
X0507432Y0075262D01*
X0507414Y0075194D01*
X0507393Y0075127D01*
X0507368Y0075062D01*
X0507339Y0074998D01*
X0507307Y0074935D01*
X0507271Y0074875D01*
X0507232Y0074817D01*
X0507190Y0074761D01*
X0507145Y0074707D01*
X0507097Y0074656D01*
X0507046Y0074608D01*
X0506992Y0074563D01*
X0506936Y0074521D01*
X0506878Y0074482D01*
X0506818Y0074446D01*
X0506755Y0074414D01*
X0506691Y0074385D01*
X0506626Y0074360D01*
X0506559Y0074339D01*
X0506491Y0074321D01*
X0506422Y0074308D01*
X0506353Y0074298D01*
X0506283Y0074292D01*
X0506213Y0074290D01*
X0506143Y0074292D01*
X0506073Y0074298D01*
X0506004Y0074308D01*
X0505935Y0074321D01*
X0505867Y0074339D01*
X0505800Y0074360D01*
X0505735Y0074385D01*
X0505671Y0074414D01*
X0505608Y0074446D01*
X0505548Y0074482D01*
X0505490Y0074521D01*
X0505434Y0074563D01*
X0505380Y0074608D01*
X0505329Y0074656D01*
X0505281Y0074707D01*
X0505236Y0074761D01*
X0505194Y0074817D01*
X0505155Y0074875D01*
X0505119Y0074935D01*
X0505087Y0074998D01*
X0505058Y0075062D01*
X0505033Y0075127D01*
X0505012Y0075194D01*
X0504994Y0075262D01*
X0504981Y0075331D01*
X0504971Y0075400D01*
X0504965Y0075470D01*
X0504963Y0075540D01*
X0509738Y0075540D02*
X0509740Y0075610D01*
X0509746Y0075680D01*
X0509756Y0075749D01*
X0509769Y0075818D01*
X0509787Y0075886D01*
X0509808Y0075953D01*
X0509833Y0076018D01*
X0509862Y0076082D01*
X0509894Y0076145D01*
X0509930Y0076205D01*
X0509969Y0076263D01*
X0510011Y0076319D01*
X0510056Y0076373D01*
X0510104Y0076424D01*
X0510155Y0076472D01*
X0510209Y0076517D01*
X0510265Y0076559D01*
X0510323Y0076598D01*
X0510383Y0076634D01*
X0510446Y0076666D01*
X0510510Y0076695D01*
X0510575Y0076720D01*
X0510642Y0076741D01*
X0510710Y0076759D01*
X0510779Y0076772D01*
X0510848Y0076782D01*
X0510918Y0076788D01*
X0510988Y0076790D01*
X0511058Y0076788D01*
X0511128Y0076782D01*
X0511197Y0076772D01*
X0511266Y0076759D01*
X0511334Y0076741D01*
X0511401Y0076720D01*
X0511466Y0076695D01*
X0511530Y0076666D01*
X0511593Y0076634D01*
X0511653Y0076598D01*
X0511711Y0076559D01*
X0511767Y0076517D01*
X0511821Y0076472D01*
X0511872Y0076424D01*
X0511920Y0076373D01*
X0511965Y0076319D01*
X0512007Y0076263D01*
X0512046Y0076205D01*
X0512082Y0076145D01*
X0512114Y0076082D01*
X0512143Y0076018D01*
X0512168Y0075953D01*
X0512189Y0075886D01*
X0512207Y0075818D01*
X0512220Y0075749D01*
X0512230Y0075680D01*
X0512236Y0075610D01*
X0512238Y0075540D01*
X0512236Y0075470D01*
X0512230Y0075400D01*
X0512220Y0075331D01*
X0512207Y0075262D01*
X0512189Y0075194D01*
X0512168Y0075127D01*
X0512143Y0075062D01*
X0512114Y0074998D01*
X0512082Y0074935D01*
X0512046Y0074875D01*
X0512007Y0074817D01*
X0511965Y0074761D01*
X0511920Y0074707D01*
X0511872Y0074656D01*
X0511821Y0074608D01*
X0511767Y0074563D01*
X0511711Y0074521D01*
X0511653Y0074482D01*
X0511593Y0074446D01*
X0511530Y0074414D01*
X0511466Y0074385D01*
X0511401Y0074360D01*
X0511334Y0074339D01*
X0511266Y0074321D01*
X0511197Y0074308D01*
X0511128Y0074298D01*
X0511058Y0074292D01*
X0510988Y0074290D01*
X0510918Y0074292D01*
X0510848Y0074298D01*
X0510779Y0074308D01*
X0510710Y0074321D01*
X0510642Y0074339D01*
X0510575Y0074360D01*
X0510510Y0074385D01*
X0510446Y0074414D01*
X0510383Y0074446D01*
X0510323Y0074482D01*
X0510265Y0074521D01*
X0510209Y0074563D01*
X0510155Y0074608D01*
X0510104Y0074656D01*
X0510056Y0074707D01*
X0510011Y0074761D01*
X0509969Y0074817D01*
X0509930Y0074875D01*
X0509894Y0074935D01*
X0509862Y0074998D01*
X0509833Y0075062D01*
X0509808Y0075127D01*
X0509787Y0075194D01*
X0509769Y0075262D01*
X0509756Y0075331D01*
X0509746Y0075400D01*
X0509740Y0075470D01*
X0509738Y0075540D01*
X0509738Y0070765D02*
X0509740Y0070835D01*
X0509746Y0070905D01*
X0509756Y0070974D01*
X0509769Y0071043D01*
X0509787Y0071111D01*
X0509808Y0071178D01*
X0509833Y0071243D01*
X0509862Y0071307D01*
X0509894Y0071370D01*
X0509930Y0071430D01*
X0509969Y0071488D01*
X0510011Y0071544D01*
X0510056Y0071598D01*
X0510104Y0071649D01*
X0510155Y0071697D01*
X0510209Y0071742D01*
X0510265Y0071784D01*
X0510323Y0071823D01*
X0510383Y0071859D01*
X0510446Y0071891D01*
X0510510Y0071920D01*
X0510575Y0071945D01*
X0510642Y0071966D01*
X0510710Y0071984D01*
X0510779Y0071997D01*
X0510848Y0072007D01*
X0510918Y0072013D01*
X0510988Y0072015D01*
X0511058Y0072013D01*
X0511128Y0072007D01*
X0511197Y0071997D01*
X0511266Y0071984D01*
X0511334Y0071966D01*
X0511401Y0071945D01*
X0511466Y0071920D01*
X0511530Y0071891D01*
X0511593Y0071859D01*
X0511653Y0071823D01*
X0511711Y0071784D01*
X0511767Y0071742D01*
X0511821Y0071697D01*
X0511872Y0071649D01*
X0511920Y0071598D01*
X0511965Y0071544D01*
X0512007Y0071488D01*
X0512046Y0071430D01*
X0512082Y0071370D01*
X0512114Y0071307D01*
X0512143Y0071243D01*
X0512168Y0071178D01*
X0512189Y0071111D01*
X0512207Y0071043D01*
X0512220Y0070974D01*
X0512230Y0070905D01*
X0512236Y0070835D01*
X0512238Y0070765D01*
X0512236Y0070695D01*
X0512230Y0070625D01*
X0512220Y0070556D01*
X0512207Y0070487D01*
X0512189Y0070419D01*
X0512168Y0070352D01*
X0512143Y0070287D01*
X0512114Y0070223D01*
X0512082Y0070160D01*
X0512046Y0070100D01*
X0512007Y0070042D01*
X0511965Y0069986D01*
X0511920Y0069932D01*
X0511872Y0069881D01*
X0511821Y0069833D01*
X0511767Y0069788D01*
X0511711Y0069746D01*
X0511653Y0069707D01*
X0511593Y0069671D01*
X0511530Y0069639D01*
X0511466Y0069610D01*
X0511401Y0069585D01*
X0511334Y0069564D01*
X0511266Y0069546D01*
X0511197Y0069533D01*
X0511128Y0069523D01*
X0511058Y0069517D01*
X0510988Y0069515D01*
X0510918Y0069517D01*
X0510848Y0069523D01*
X0510779Y0069533D01*
X0510710Y0069546D01*
X0510642Y0069564D01*
X0510575Y0069585D01*
X0510510Y0069610D01*
X0510446Y0069639D01*
X0510383Y0069671D01*
X0510323Y0069707D01*
X0510265Y0069746D01*
X0510209Y0069788D01*
X0510155Y0069833D01*
X0510104Y0069881D01*
X0510056Y0069932D01*
X0510011Y0069986D01*
X0509969Y0070042D01*
X0509930Y0070100D01*
X0509894Y0070160D01*
X0509862Y0070223D01*
X0509833Y0070287D01*
X0509808Y0070352D01*
X0509787Y0070419D01*
X0509769Y0070487D01*
X0509756Y0070556D01*
X0509746Y0070625D01*
X0509740Y0070695D01*
X0509738Y0070765D01*
X0514513Y0070765D02*
X0514515Y0070835D01*
X0514521Y0070905D01*
X0514531Y0070974D01*
X0514544Y0071043D01*
X0514562Y0071111D01*
X0514583Y0071178D01*
X0514608Y0071243D01*
X0514637Y0071307D01*
X0514669Y0071370D01*
X0514705Y0071430D01*
X0514744Y0071488D01*
X0514786Y0071544D01*
X0514831Y0071598D01*
X0514879Y0071649D01*
X0514930Y0071697D01*
X0514984Y0071742D01*
X0515040Y0071784D01*
X0515098Y0071823D01*
X0515158Y0071859D01*
X0515221Y0071891D01*
X0515285Y0071920D01*
X0515350Y0071945D01*
X0515417Y0071966D01*
X0515485Y0071984D01*
X0515554Y0071997D01*
X0515623Y0072007D01*
X0515693Y0072013D01*
X0515763Y0072015D01*
X0515833Y0072013D01*
X0515903Y0072007D01*
X0515972Y0071997D01*
X0516041Y0071984D01*
X0516109Y0071966D01*
X0516176Y0071945D01*
X0516241Y0071920D01*
X0516305Y0071891D01*
X0516368Y0071859D01*
X0516428Y0071823D01*
X0516486Y0071784D01*
X0516542Y0071742D01*
X0516596Y0071697D01*
X0516647Y0071649D01*
X0516695Y0071598D01*
X0516740Y0071544D01*
X0516782Y0071488D01*
X0516821Y0071430D01*
X0516857Y0071370D01*
X0516889Y0071307D01*
X0516918Y0071243D01*
X0516943Y0071178D01*
X0516964Y0071111D01*
X0516982Y0071043D01*
X0516995Y0070974D01*
X0517005Y0070905D01*
X0517011Y0070835D01*
X0517013Y0070765D01*
X0517011Y0070695D01*
X0517005Y0070625D01*
X0516995Y0070556D01*
X0516982Y0070487D01*
X0516964Y0070419D01*
X0516943Y0070352D01*
X0516918Y0070287D01*
X0516889Y0070223D01*
X0516857Y0070160D01*
X0516821Y0070100D01*
X0516782Y0070042D01*
X0516740Y0069986D01*
X0516695Y0069932D01*
X0516647Y0069881D01*
X0516596Y0069833D01*
X0516542Y0069788D01*
X0516486Y0069746D01*
X0516428Y0069707D01*
X0516368Y0069671D01*
X0516305Y0069639D01*
X0516241Y0069610D01*
X0516176Y0069585D01*
X0516109Y0069564D01*
X0516041Y0069546D01*
X0515972Y0069533D01*
X0515903Y0069523D01*
X0515833Y0069517D01*
X0515763Y0069515D01*
X0515693Y0069517D01*
X0515623Y0069523D01*
X0515554Y0069533D01*
X0515485Y0069546D01*
X0515417Y0069564D01*
X0515350Y0069585D01*
X0515285Y0069610D01*
X0515221Y0069639D01*
X0515158Y0069671D01*
X0515098Y0069707D01*
X0515040Y0069746D01*
X0514984Y0069788D01*
X0514930Y0069833D01*
X0514879Y0069881D01*
X0514831Y0069932D01*
X0514786Y0069986D01*
X0514744Y0070042D01*
X0514705Y0070100D01*
X0514669Y0070160D01*
X0514637Y0070223D01*
X0514608Y0070287D01*
X0514583Y0070352D01*
X0514562Y0070419D01*
X0514544Y0070487D01*
X0514531Y0070556D01*
X0514521Y0070625D01*
X0514515Y0070695D01*
X0514513Y0070765D01*
X0514513Y0075540D02*
X0514515Y0075610D01*
X0514521Y0075680D01*
X0514531Y0075749D01*
X0514544Y0075818D01*
X0514562Y0075886D01*
X0514583Y0075953D01*
X0514608Y0076018D01*
X0514637Y0076082D01*
X0514669Y0076145D01*
X0514705Y0076205D01*
X0514744Y0076263D01*
X0514786Y0076319D01*
X0514831Y0076373D01*
X0514879Y0076424D01*
X0514930Y0076472D01*
X0514984Y0076517D01*
X0515040Y0076559D01*
X0515098Y0076598D01*
X0515158Y0076634D01*
X0515221Y0076666D01*
X0515285Y0076695D01*
X0515350Y0076720D01*
X0515417Y0076741D01*
X0515485Y0076759D01*
X0515554Y0076772D01*
X0515623Y0076782D01*
X0515693Y0076788D01*
X0515763Y0076790D01*
X0515833Y0076788D01*
X0515903Y0076782D01*
X0515972Y0076772D01*
X0516041Y0076759D01*
X0516109Y0076741D01*
X0516176Y0076720D01*
X0516241Y0076695D01*
X0516305Y0076666D01*
X0516368Y0076634D01*
X0516428Y0076598D01*
X0516486Y0076559D01*
X0516542Y0076517D01*
X0516596Y0076472D01*
X0516647Y0076424D01*
X0516695Y0076373D01*
X0516740Y0076319D01*
X0516782Y0076263D01*
X0516821Y0076205D01*
X0516857Y0076145D01*
X0516889Y0076082D01*
X0516918Y0076018D01*
X0516943Y0075953D01*
X0516964Y0075886D01*
X0516982Y0075818D01*
X0516995Y0075749D01*
X0517005Y0075680D01*
X0517011Y0075610D01*
X0517013Y0075540D01*
X0517011Y0075470D01*
X0517005Y0075400D01*
X0516995Y0075331D01*
X0516982Y0075262D01*
X0516964Y0075194D01*
X0516943Y0075127D01*
X0516918Y0075062D01*
X0516889Y0074998D01*
X0516857Y0074935D01*
X0516821Y0074875D01*
X0516782Y0074817D01*
X0516740Y0074761D01*
X0516695Y0074707D01*
X0516647Y0074656D01*
X0516596Y0074608D01*
X0516542Y0074563D01*
X0516486Y0074521D01*
X0516428Y0074482D01*
X0516368Y0074446D01*
X0516305Y0074414D01*
X0516241Y0074385D01*
X0516176Y0074360D01*
X0516109Y0074339D01*
X0516041Y0074321D01*
X0515972Y0074308D01*
X0515903Y0074298D01*
X0515833Y0074292D01*
X0515763Y0074290D01*
X0515693Y0074292D01*
X0515623Y0074298D01*
X0515554Y0074308D01*
X0515485Y0074321D01*
X0515417Y0074339D01*
X0515350Y0074360D01*
X0515285Y0074385D01*
X0515221Y0074414D01*
X0515158Y0074446D01*
X0515098Y0074482D01*
X0515040Y0074521D01*
X0514984Y0074563D01*
X0514930Y0074608D01*
X0514879Y0074656D01*
X0514831Y0074707D01*
X0514786Y0074761D01*
X0514744Y0074817D01*
X0514705Y0074875D01*
X0514669Y0074935D01*
X0514637Y0074998D01*
X0514608Y0075062D01*
X0514583Y0075127D01*
X0514562Y0075194D01*
X0514544Y0075262D01*
X0514531Y0075331D01*
X0514521Y0075400D01*
X0514515Y0075470D01*
X0514513Y0075540D01*
X0519288Y0075540D02*
X0519290Y0075610D01*
X0519296Y0075680D01*
X0519306Y0075749D01*
X0519319Y0075818D01*
X0519337Y0075886D01*
X0519358Y0075953D01*
X0519383Y0076018D01*
X0519412Y0076082D01*
X0519444Y0076145D01*
X0519480Y0076205D01*
X0519519Y0076263D01*
X0519561Y0076319D01*
X0519606Y0076373D01*
X0519654Y0076424D01*
X0519705Y0076472D01*
X0519759Y0076517D01*
X0519815Y0076559D01*
X0519873Y0076598D01*
X0519933Y0076634D01*
X0519996Y0076666D01*
X0520060Y0076695D01*
X0520125Y0076720D01*
X0520192Y0076741D01*
X0520260Y0076759D01*
X0520329Y0076772D01*
X0520398Y0076782D01*
X0520468Y0076788D01*
X0520538Y0076790D01*
X0520608Y0076788D01*
X0520678Y0076782D01*
X0520747Y0076772D01*
X0520816Y0076759D01*
X0520884Y0076741D01*
X0520951Y0076720D01*
X0521016Y0076695D01*
X0521080Y0076666D01*
X0521143Y0076634D01*
X0521203Y0076598D01*
X0521261Y0076559D01*
X0521317Y0076517D01*
X0521371Y0076472D01*
X0521422Y0076424D01*
X0521470Y0076373D01*
X0521515Y0076319D01*
X0521557Y0076263D01*
X0521596Y0076205D01*
X0521632Y0076145D01*
X0521664Y0076082D01*
X0521693Y0076018D01*
X0521718Y0075953D01*
X0521739Y0075886D01*
X0521757Y0075818D01*
X0521770Y0075749D01*
X0521780Y0075680D01*
X0521786Y0075610D01*
X0521788Y0075540D01*
X0521786Y0075470D01*
X0521780Y0075400D01*
X0521770Y0075331D01*
X0521757Y0075262D01*
X0521739Y0075194D01*
X0521718Y0075127D01*
X0521693Y0075062D01*
X0521664Y0074998D01*
X0521632Y0074935D01*
X0521596Y0074875D01*
X0521557Y0074817D01*
X0521515Y0074761D01*
X0521470Y0074707D01*
X0521422Y0074656D01*
X0521371Y0074608D01*
X0521317Y0074563D01*
X0521261Y0074521D01*
X0521203Y0074482D01*
X0521143Y0074446D01*
X0521080Y0074414D01*
X0521016Y0074385D01*
X0520951Y0074360D01*
X0520884Y0074339D01*
X0520816Y0074321D01*
X0520747Y0074308D01*
X0520678Y0074298D01*
X0520608Y0074292D01*
X0520538Y0074290D01*
X0520468Y0074292D01*
X0520398Y0074298D01*
X0520329Y0074308D01*
X0520260Y0074321D01*
X0520192Y0074339D01*
X0520125Y0074360D01*
X0520060Y0074385D01*
X0519996Y0074414D01*
X0519933Y0074446D01*
X0519873Y0074482D01*
X0519815Y0074521D01*
X0519759Y0074563D01*
X0519705Y0074608D01*
X0519654Y0074656D01*
X0519606Y0074707D01*
X0519561Y0074761D01*
X0519519Y0074817D01*
X0519480Y0074875D01*
X0519444Y0074935D01*
X0519412Y0074998D01*
X0519383Y0075062D01*
X0519358Y0075127D01*
X0519337Y0075194D01*
X0519319Y0075262D01*
X0519306Y0075331D01*
X0519296Y0075400D01*
X0519290Y0075470D01*
X0519288Y0075540D01*
X0519288Y0070765D02*
X0519290Y0070835D01*
X0519296Y0070905D01*
X0519306Y0070974D01*
X0519319Y0071043D01*
X0519337Y0071111D01*
X0519358Y0071178D01*
X0519383Y0071243D01*
X0519412Y0071307D01*
X0519444Y0071370D01*
X0519480Y0071430D01*
X0519519Y0071488D01*
X0519561Y0071544D01*
X0519606Y0071598D01*
X0519654Y0071649D01*
X0519705Y0071697D01*
X0519759Y0071742D01*
X0519815Y0071784D01*
X0519873Y0071823D01*
X0519933Y0071859D01*
X0519996Y0071891D01*
X0520060Y0071920D01*
X0520125Y0071945D01*
X0520192Y0071966D01*
X0520260Y0071984D01*
X0520329Y0071997D01*
X0520398Y0072007D01*
X0520468Y0072013D01*
X0520538Y0072015D01*
X0520608Y0072013D01*
X0520678Y0072007D01*
X0520747Y0071997D01*
X0520816Y0071984D01*
X0520884Y0071966D01*
X0520951Y0071945D01*
X0521016Y0071920D01*
X0521080Y0071891D01*
X0521143Y0071859D01*
X0521203Y0071823D01*
X0521261Y0071784D01*
X0521317Y0071742D01*
X0521371Y0071697D01*
X0521422Y0071649D01*
X0521470Y0071598D01*
X0521515Y0071544D01*
X0521557Y0071488D01*
X0521596Y0071430D01*
X0521632Y0071370D01*
X0521664Y0071307D01*
X0521693Y0071243D01*
X0521718Y0071178D01*
X0521739Y0071111D01*
X0521757Y0071043D01*
X0521770Y0070974D01*
X0521780Y0070905D01*
X0521786Y0070835D01*
X0521788Y0070765D01*
X0521786Y0070695D01*
X0521780Y0070625D01*
X0521770Y0070556D01*
X0521757Y0070487D01*
X0521739Y0070419D01*
X0521718Y0070352D01*
X0521693Y0070287D01*
X0521664Y0070223D01*
X0521632Y0070160D01*
X0521596Y0070100D01*
X0521557Y0070042D01*
X0521515Y0069986D01*
X0521470Y0069932D01*
X0521422Y0069881D01*
X0521371Y0069833D01*
X0521317Y0069788D01*
X0521261Y0069746D01*
X0521203Y0069707D01*
X0521143Y0069671D01*
X0521080Y0069639D01*
X0521016Y0069610D01*
X0520951Y0069585D01*
X0520884Y0069564D01*
X0520816Y0069546D01*
X0520747Y0069533D01*
X0520678Y0069523D01*
X0520608Y0069517D01*
X0520538Y0069515D01*
X0520468Y0069517D01*
X0520398Y0069523D01*
X0520329Y0069533D01*
X0520260Y0069546D01*
X0520192Y0069564D01*
X0520125Y0069585D01*
X0520060Y0069610D01*
X0519996Y0069639D01*
X0519933Y0069671D01*
X0519873Y0069707D01*
X0519815Y0069746D01*
X0519759Y0069788D01*
X0519705Y0069833D01*
X0519654Y0069881D01*
X0519606Y0069932D01*
X0519561Y0069986D01*
X0519519Y0070042D01*
X0519480Y0070100D01*
X0519444Y0070160D01*
X0519412Y0070223D01*
X0519383Y0070287D01*
X0519358Y0070352D01*
X0519337Y0070419D01*
X0519319Y0070487D01*
X0519306Y0070556D01*
X0519296Y0070625D01*
X0519290Y0070695D01*
X0519288Y0070765D01*
X0524063Y0070765D02*
X0524065Y0070835D01*
X0524071Y0070905D01*
X0524081Y0070974D01*
X0524094Y0071043D01*
X0524112Y0071111D01*
X0524133Y0071178D01*
X0524158Y0071243D01*
X0524187Y0071307D01*
X0524219Y0071370D01*
X0524255Y0071430D01*
X0524294Y0071488D01*
X0524336Y0071544D01*
X0524381Y0071598D01*
X0524429Y0071649D01*
X0524480Y0071697D01*
X0524534Y0071742D01*
X0524590Y0071784D01*
X0524648Y0071823D01*
X0524708Y0071859D01*
X0524771Y0071891D01*
X0524835Y0071920D01*
X0524900Y0071945D01*
X0524967Y0071966D01*
X0525035Y0071984D01*
X0525104Y0071997D01*
X0525173Y0072007D01*
X0525243Y0072013D01*
X0525313Y0072015D01*
X0525383Y0072013D01*
X0525453Y0072007D01*
X0525522Y0071997D01*
X0525591Y0071984D01*
X0525659Y0071966D01*
X0525726Y0071945D01*
X0525791Y0071920D01*
X0525855Y0071891D01*
X0525918Y0071859D01*
X0525978Y0071823D01*
X0526036Y0071784D01*
X0526092Y0071742D01*
X0526146Y0071697D01*
X0526197Y0071649D01*
X0526245Y0071598D01*
X0526290Y0071544D01*
X0526332Y0071488D01*
X0526371Y0071430D01*
X0526407Y0071370D01*
X0526439Y0071307D01*
X0526468Y0071243D01*
X0526493Y0071178D01*
X0526514Y0071111D01*
X0526532Y0071043D01*
X0526545Y0070974D01*
X0526555Y0070905D01*
X0526561Y0070835D01*
X0526563Y0070765D01*
X0526561Y0070695D01*
X0526555Y0070625D01*
X0526545Y0070556D01*
X0526532Y0070487D01*
X0526514Y0070419D01*
X0526493Y0070352D01*
X0526468Y0070287D01*
X0526439Y0070223D01*
X0526407Y0070160D01*
X0526371Y0070100D01*
X0526332Y0070042D01*
X0526290Y0069986D01*
X0526245Y0069932D01*
X0526197Y0069881D01*
X0526146Y0069833D01*
X0526092Y0069788D01*
X0526036Y0069746D01*
X0525978Y0069707D01*
X0525918Y0069671D01*
X0525855Y0069639D01*
X0525791Y0069610D01*
X0525726Y0069585D01*
X0525659Y0069564D01*
X0525591Y0069546D01*
X0525522Y0069533D01*
X0525453Y0069523D01*
X0525383Y0069517D01*
X0525313Y0069515D01*
X0525243Y0069517D01*
X0525173Y0069523D01*
X0525104Y0069533D01*
X0525035Y0069546D01*
X0524967Y0069564D01*
X0524900Y0069585D01*
X0524835Y0069610D01*
X0524771Y0069639D01*
X0524708Y0069671D01*
X0524648Y0069707D01*
X0524590Y0069746D01*
X0524534Y0069788D01*
X0524480Y0069833D01*
X0524429Y0069881D01*
X0524381Y0069932D01*
X0524336Y0069986D01*
X0524294Y0070042D01*
X0524255Y0070100D01*
X0524219Y0070160D01*
X0524187Y0070223D01*
X0524158Y0070287D01*
X0524133Y0070352D01*
X0524112Y0070419D01*
X0524094Y0070487D01*
X0524081Y0070556D01*
X0524071Y0070625D01*
X0524065Y0070695D01*
X0524063Y0070765D01*
X0524063Y0075540D02*
X0524065Y0075610D01*
X0524071Y0075680D01*
X0524081Y0075749D01*
X0524094Y0075818D01*
X0524112Y0075886D01*
X0524133Y0075953D01*
X0524158Y0076018D01*
X0524187Y0076082D01*
X0524219Y0076145D01*
X0524255Y0076205D01*
X0524294Y0076263D01*
X0524336Y0076319D01*
X0524381Y0076373D01*
X0524429Y0076424D01*
X0524480Y0076472D01*
X0524534Y0076517D01*
X0524590Y0076559D01*
X0524648Y0076598D01*
X0524708Y0076634D01*
X0524771Y0076666D01*
X0524835Y0076695D01*
X0524900Y0076720D01*
X0524967Y0076741D01*
X0525035Y0076759D01*
X0525104Y0076772D01*
X0525173Y0076782D01*
X0525243Y0076788D01*
X0525313Y0076790D01*
X0525383Y0076788D01*
X0525453Y0076782D01*
X0525522Y0076772D01*
X0525591Y0076759D01*
X0525659Y0076741D01*
X0525726Y0076720D01*
X0525791Y0076695D01*
X0525855Y0076666D01*
X0525918Y0076634D01*
X0525978Y0076598D01*
X0526036Y0076559D01*
X0526092Y0076517D01*
X0526146Y0076472D01*
X0526197Y0076424D01*
X0526245Y0076373D01*
X0526290Y0076319D01*
X0526332Y0076263D01*
X0526371Y0076205D01*
X0526407Y0076145D01*
X0526439Y0076082D01*
X0526468Y0076018D01*
X0526493Y0075953D01*
X0526514Y0075886D01*
X0526532Y0075818D01*
X0526545Y0075749D01*
X0526555Y0075680D01*
X0526561Y0075610D01*
X0526563Y0075540D01*
X0526561Y0075470D01*
X0526555Y0075400D01*
X0526545Y0075331D01*
X0526532Y0075262D01*
X0526514Y0075194D01*
X0526493Y0075127D01*
X0526468Y0075062D01*
X0526439Y0074998D01*
X0526407Y0074935D01*
X0526371Y0074875D01*
X0526332Y0074817D01*
X0526290Y0074761D01*
X0526245Y0074707D01*
X0526197Y0074656D01*
X0526146Y0074608D01*
X0526092Y0074563D01*
X0526036Y0074521D01*
X0525978Y0074482D01*
X0525918Y0074446D01*
X0525855Y0074414D01*
X0525791Y0074385D01*
X0525726Y0074360D01*
X0525659Y0074339D01*
X0525591Y0074321D01*
X0525522Y0074308D01*
X0525453Y0074298D01*
X0525383Y0074292D01*
X0525313Y0074290D01*
X0525243Y0074292D01*
X0525173Y0074298D01*
X0525104Y0074308D01*
X0525035Y0074321D01*
X0524967Y0074339D01*
X0524900Y0074360D01*
X0524835Y0074385D01*
X0524771Y0074414D01*
X0524708Y0074446D01*
X0524648Y0074482D01*
X0524590Y0074521D01*
X0524534Y0074563D01*
X0524480Y0074608D01*
X0524429Y0074656D01*
X0524381Y0074707D01*
X0524336Y0074761D01*
X0524294Y0074817D01*
X0524255Y0074875D01*
X0524219Y0074935D01*
X0524187Y0074998D01*
X0524158Y0075062D01*
X0524133Y0075127D01*
X0524112Y0075194D01*
X0524094Y0075262D01*
X0524081Y0075331D01*
X0524071Y0075400D01*
X0524065Y0075470D01*
X0524063Y0075540D01*
X0512194Y0382248D02*
X0511443Y0382248D01*
X0510692Y0382999D01*
X0510692Y0386752D01*
X0512944Y0386752D01*
X0513695Y0386001D01*
X0513695Y0384500D01*
X0512944Y0383749D01*
X0510692Y0383749D01*
X0509091Y0383749D02*
X0507590Y0383749D01*
X0508340Y0383749D02*
X0508340Y0386752D01*
X0509091Y0386752D01*
X0508340Y0388253D02*
X0508340Y0389004D01*
X0506856Y0391249D02*
X0509858Y0391249D01*
X0506856Y0394252D01*
X0506856Y0395002D01*
X0507606Y0395753D01*
X0509108Y0395753D01*
X0509858Y0395002D01*
X0511460Y0395002D02*
X0514462Y0392000D01*
X0513712Y0391249D01*
X0512210Y0391249D01*
X0511460Y0392000D01*
X0511460Y0395002D01*
X0512210Y0395753D01*
X0513712Y0395753D01*
X0514462Y0395002D01*
X0514462Y0392000D01*
X0516064Y0391249D02*
X0519066Y0391249D01*
X0516064Y0394252D01*
X0516064Y0395002D01*
X0516814Y0395753D01*
X0518316Y0395753D01*
X0519066Y0395002D01*
X0520668Y0395753D02*
X0523670Y0391249D01*
X0525272Y0391249D02*
X0528274Y0391249D01*
X0526773Y0391249D02*
X0526773Y0395753D01*
X0528274Y0394252D01*
X0529875Y0395002D02*
X0532878Y0392000D01*
X0532127Y0391249D01*
X0530626Y0391249D01*
X0529875Y0392000D01*
X0529875Y0395002D01*
X0530626Y0395753D01*
X0532127Y0395753D01*
X0532878Y0395002D01*
X0532878Y0392000D01*
X0534446Y0391249D02*
X0535947Y0392750D01*
X0535947Y0394252D01*
X0534446Y0395753D01*
X0542153Y0395002D02*
X0542153Y0392000D01*
X0542903Y0391249D01*
X0545155Y0391249D01*
X0545155Y0395753D01*
X0542903Y0395753D01*
X0542153Y0395002D01*
X0546757Y0393501D02*
X0549759Y0393501D01*
X0547507Y0395753D01*
X0547507Y0391249D01*
X0551360Y0391249D02*
X0554363Y0391249D01*
X0552862Y0391249D02*
X0552862Y0395753D01*
X0554363Y0394252D01*
X0555964Y0395753D02*
X0558967Y0391249D01*
X0560568Y0392000D02*
X0560568Y0395753D01*
X0558967Y0395753D02*
X0555964Y0391249D01*
X0556665Y0386752D02*
X0556665Y0383749D01*
X0556665Y0385250D02*
X0555164Y0386752D01*
X0554413Y0386752D01*
X0552828Y0386001D02*
X0552828Y0384500D01*
X0552078Y0383749D01*
X0549826Y0383749D01*
X0548224Y0384500D02*
X0548224Y0386001D01*
X0547474Y0386752D01*
X0545973Y0386752D01*
X0545222Y0386001D01*
X0545222Y0385250D01*
X0548224Y0385250D01*
X0548224Y0384500D02*
X0547474Y0383749D01*
X0545973Y0383749D01*
X0549826Y0386752D02*
X0552078Y0386752D01*
X0552828Y0386001D01*
X0558266Y0386752D02*
X0558266Y0383749D01*
X0560518Y0383749D01*
X0561269Y0384500D01*
X0561269Y0386752D01*
X0562870Y0386001D02*
X0563621Y0386752D01*
X0565122Y0386752D01*
X0565873Y0386001D01*
X0565873Y0384500D01*
X0565122Y0383749D01*
X0563621Y0383749D01*
X0562870Y0384500D01*
X0562870Y0386001D01*
X0567474Y0386752D02*
X0569726Y0386752D01*
X0570477Y0386001D01*
X0569726Y0385250D01*
X0568225Y0385250D01*
X0567474Y0384500D01*
X0568225Y0383749D01*
X0570477Y0383749D01*
X0576649Y0383749D02*
X0577399Y0384500D01*
X0577399Y0387502D01*
X0576649Y0386752D02*
X0578150Y0386752D01*
X0579751Y0386752D02*
X0582003Y0386752D01*
X0582754Y0386001D01*
X0582754Y0384500D01*
X0582003Y0383749D01*
X0579751Y0383749D01*
X0584355Y0385250D02*
X0587358Y0385250D01*
X0587358Y0384500D02*
X0587358Y0386001D01*
X0586607Y0386752D01*
X0585106Y0386752D01*
X0584355Y0386001D01*
X0584355Y0385250D01*
X0585106Y0383749D02*
X0586607Y0383749D01*
X0587358Y0384500D01*
X0588926Y0382999D02*
X0588926Y0386752D01*
X0588926Y0388253D02*
X0588926Y0389004D01*
X0591261Y0391249D02*
X0594264Y0391249D01*
X0594264Y0392000D01*
X0591261Y0395002D01*
X0591261Y0395753D01*
X0594264Y0395753D01*
X0595865Y0395753D02*
X0598868Y0395753D01*
X0598868Y0391249D01*
X0595865Y0391249D01*
X0597366Y0393501D02*
X0598868Y0393501D01*
X0600469Y0391249D02*
X0603472Y0391249D01*
X0603472Y0395753D01*
X0600469Y0395753D01*
X0601970Y0393501D02*
X0603472Y0393501D01*
X0603472Y0388253D02*
X0601220Y0388253D01*
X0600469Y0387502D01*
X0600469Y0386001D01*
X0601220Y0385250D01*
X0603472Y0385250D01*
X0603472Y0383749D02*
X0603472Y0388253D01*
X0598868Y0386752D02*
X0598868Y0383749D01*
X0598868Y0385250D02*
X0597366Y0386752D01*
X0596616Y0386752D01*
X0595031Y0386001D02*
X0595031Y0384500D01*
X0594280Y0383749D01*
X0592779Y0383749D01*
X0592028Y0384500D01*
X0592028Y0386001D01*
X0592779Y0386752D01*
X0594280Y0386752D01*
X0595031Y0386001D01*
X0590427Y0382248D02*
X0589676Y0382248D01*
X0588926Y0382999D01*
X0585056Y0391249D02*
X0582804Y0391249D01*
X0582053Y0392000D01*
X0582053Y0395002D01*
X0582804Y0395753D01*
X0585056Y0395753D01*
X0585056Y0391249D01*
X0580452Y0391249D02*
X0578951Y0391249D01*
X0579701Y0391249D02*
X0579701Y0395753D01*
X0578951Y0395753D02*
X0580452Y0395753D01*
X0577383Y0395753D02*
X0575131Y0395753D01*
X0574380Y0395002D01*
X0574380Y0394252D01*
X0575131Y0393501D01*
X0577383Y0393501D01*
X0577383Y0391249D02*
X0577383Y0395753D01*
X0575131Y0393501D02*
X0574380Y0392750D01*
X0574380Y0392000D01*
X0575131Y0391249D01*
X0577383Y0391249D01*
X0568175Y0391249D02*
X0568175Y0395753D01*
X0566673Y0394252D01*
X0565172Y0395753D01*
X0565172Y0391249D01*
X0563571Y0392000D02*
X0562820Y0391249D01*
X0561319Y0391249D01*
X0560568Y0392000D01*
X0563571Y0392000D02*
X0563571Y0395753D01*
X0539017Y0386001D02*
X0539017Y0384500D01*
X0538266Y0383749D01*
X0536014Y0383749D01*
X0534413Y0384500D02*
X0533662Y0383749D01*
X0532161Y0383749D01*
X0531410Y0384500D01*
X0531410Y0386001D01*
X0532161Y0386752D01*
X0533662Y0386752D01*
X0534413Y0386001D01*
X0534413Y0384500D01*
X0536014Y0386752D02*
X0538266Y0386752D01*
X0539017Y0386001D01*
X0529809Y0386001D02*
X0529058Y0386752D01*
X0526806Y0386752D01*
X0526806Y0388253D02*
X0526806Y0383749D01*
X0529058Y0383749D01*
X0529809Y0384500D01*
X0529809Y0386001D01*
X0525205Y0386001D02*
X0524454Y0386752D01*
X0522953Y0386752D01*
X0522202Y0386001D01*
X0522202Y0385250D01*
X0525205Y0385250D01*
X0525205Y0384500D02*
X0525205Y0386001D01*
X0525205Y0384500D02*
X0524454Y0383749D01*
X0522953Y0383749D01*
X0520601Y0383749D02*
X0520601Y0384500D01*
X0519850Y0384500D01*
X0519850Y0383749D01*
X0520601Y0383749D01*
X0520601Y0386001D02*
X0520601Y0386752D01*
X0519850Y0386752D01*
X0519850Y0386001D01*
X0520601Y0386001D01*
X0506022Y0386752D02*
X0504521Y0386752D01*
X0505271Y0387502D02*
X0505271Y0384500D01*
X0504521Y0383749D01*
X0502953Y0383749D02*
X0502953Y0388253D01*
X0502202Y0386752D02*
X0500701Y0386752D01*
X0499950Y0386001D01*
X0499950Y0383749D01*
X0498349Y0384500D02*
X0497598Y0383749D01*
X0495346Y0383749D01*
X0495346Y0386752D01*
X0493745Y0386752D02*
X0491493Y0386752D01*
X0490742Y0386001D01*
X0490742Y0384500D01*
X0491493Y0383749D01*
X0493745Y0383749D01*
X0493745Y0388253D01*
X0492210Y0391249D02*
X0489207Y0391249D01*
X0490709Y0391249D02*
X0490709Y0395753D01*
X0492210Y0394252D01*
X0493795Y0394252D02*
X0494545Y0394252D01*
X0496047Y0392750D01*
X0496047Y0391249D02*
X0496047Y0394252D01*
X0502252Y0391249D02*
X0505254Y0391249D01*
X0503753Y0391249D02*
X0503753Y0395753D01*
X0505254Y0394252D01*
X0502202Y0386752D02*
X0502953Y0386001D01*
X0498349Y0386752D02*
X0498349Y0384500D01*
X0489141Y0384500D02*
X0489141Y0383749D01*
X0488390Y0383749D01*
X0488390Y0384500D01*
X0489141Y0384500D01*
X0486839Y0384500D02*
X0486088Y0383749D01*
X0483836Y0383749D01*
X0482235Y0384500D02*
X0481484Y0383749D01*
X0479983Y0383749D01*
X0479232Y0384500D01*
X0479232Y0386001D01*
X0479983Y0386752D01*
X0481484Y0386752D01*
X0482235Y0386001D01*
X0482235Y0384500D01*
X0483836Y0386752D02*
X0486088Y0386752D01*
X0486839Y0386001D01*
X0486839Y0384500D01*
X0487606Y0391249D02*
X0485354Y0391249D01*
X0484604Y0392000D01*
X0484604Y0392750D01*
X0485354Y0393501D01*
X0487606Y0393501D01*
X0487606Y0391249D02*
X0487606Y0395753D01*
X0485354Y0395753D01*
X0484604Y0395002D01*
X0484604Y0394252D01*
X0485354Y0393501D01*
X0483002Y0395002D02*
X0482252Y0395753D01*
X0480750Y0395753D01*
X0480000Y0395002D01*
X0480000Y0394252D01*
X0483002Y0391249D01*
X0480000Y0391249D01*
X0478398Y0391249D02*
X0476897Y0392750D01*
X0476897Y0394252D01*
X0478398Y0395753D01*
X0477631Y0386752D02*
X0476880Y0386752D01*
X0476130Y0386001D01*
X0475379Y0386752D01*
X0474628Y0386001D01*
X0474628Y0383749D01*
X0476130Y0383749D02*
X0476130Y0386001D01*
X0477631Y0386752D02*
X0477631Y0383749D01*
X0473027Y0383749D02*
X0470024Y0388253D01*
X0468423Y0386001D02*
X0467672Y0386752D01*
X0466171Y0386752D01*
X0465421Y0386001D01*
X0465421Y0385250D01*
X0468423Y0385250D01*
X0468423Y0384500D02*
X0468423Y0386001D01*
X0468423Y0384500D02*
X0467672Y0383749D01*
X0466171Y0383749D01*
X0463819Y0384500D02*
X0463069Y0383749D01*
X0461567Y0383749D01*
X0460817Y0385250D02*
X0463819Y0385250D01*
X0463819Y0384500D02*
X0463819Y0386001D01*
X0463069Y0386752D01*
X0461567Y0386752D01*
X0460817Y0386001D01*
X0460817Y0385250D01*
X0459215Y0383749D02*
X0456213Y0383749D01*
X0454611Y0386001D02*
X0451609Y0386001D01*
X0450007Y0386001D02*
X0450007Y0384500D01*
X0449257Y0383749D01*
X0447755Y0383749D01*
X0447005Y0384500D01*
X0447005Y0386001D01*
X0447755Y0386752D01*
X0449257Y0386752D01*
X0450007Y0386001D01*
X0445403Y0386752D02*
X0445403Y0382248D01*
X0445403Y0383749D02*
X0443152Y0383749D01*
X0442401Y0384500D01*
X0442401Y0386001D01*
X0443152Y0386752D01*
X0445403Y0386752D01*
X0440800Y0386001D02*
X0440049Y0386752D01*
X0438548Y0386752D01*
X0437797Y0386001D01*
X0437797Y0385250D01*
X0440800Y0385250D01*
X0440800Y0384500D02*
X0440800Y0386001D01*
X0440800Y0384500D02*
X0440049Y0383749D01*
X0438548Y0383749D01*
X0436196Y0383749D02*
X0436196Y0386752D01*
X0433944Y0386752D01*
X0433193Y0386001D01*
X0433193Y0383749D01*
X0456213Y0386752D02*
X0459215Y0383749D01*
X0459215Y0386752D02*
X0456213Y0386752D01*
D11*
X0523685Y0109080D02*
X0526104Y0109080D01*
X0526588Y0108596D01*
X0526588Y0107629D01*
X0526104Y0107145D01*
X0523685Y0107145D01*
X0524653Y0106134D02*
X0523685Y0105166D01*
X0524653Y0104199D01*
X0526588Y0104199D01*
X0526588Y0103187D02*
X0523685Y0103187D01*
X0523685Y0101736D01*
X0524169Y0101252D01*
X0525136Y0101252D01*
X0525620Y0101736D01*
X0525620Y0103187D01*
X0525620Y0102220D02*
X0526588Y0101252D01*
X0526588Y0099273D02*
X0523685Y0099273D01*
X0523685Y0098306D02*
X0523685Y0100241D01*
X0521788Y0100241D02*
X0521788Y0098789D01*
X0521304Y0098306D01*
X0520820Y0098306D01*
X0520336Y0098789D01*
X0520336Y0100241D01*
X0518885Y0100241D02*
X0518885Y0098789D01*
X0519369Y0098306D01*
X0519853Y0098306D01*
X0520336Y0098789D01*
X0519369Y0097294D02*
X0521304Y0097294D01*
X0521788Y0096810D01*
X0521788Y0095843D01*
X0521304Y0095359D01*
X0519369Y0095359D01*
X0518885Y0095843D01*
X0518885Y0096810D01*
X0519369Y0097294D01*
X0519369Y0094348D02*
X0521304Y0094348D01*
X0521788Y0093864D01*
X0521788Y0092896D01*
X0521304Y0092413D01*
X0519369Y0092413D01*
X0518885Y0092896D01*
X0518885Y0093864D01*
X0519369Y0094348D01*
X0516988Y0093864D02*
X0516504Y0094348D01*
X0516988Y0093864D02*
X0516988Y0092896D01*
X0516504Y0092413D01*
X0515536Y0092413D01*
X0515053Y0092896D01*
X0515053Y0093380D01*
X0515536Y0094348D01*
X0514085Y0094348D01*
X0514085Y0092413D01*
X0514085Y0091401D02*
X0516020Y0091401D01*
X0516988Y0090434D01*
X0516020Y0089466D01*
X0514085Y0089466D01*
X0512188Y0090434D02*
X0511220Y0089466D01*
X0509285Y0089466D01*
X0509285Y0091401D02*
X0511220Y0091401D01*
X0512188Y0090434D01*
X0512188Y0092413D02*
X0512188Y0094348D01*
X0510253Y0092413D01*
X0509769Y0092413D01*
X0509285Y0092896D01*
X0509285Y0093864D01*
X0509769Y0094348D01*
X0509285Y0096327D02*
X0512188Y0096327D01*
X0512188Y0097294D02*
X0512188Y0095359D01*
X0514569Y0096327D02*
X0516504Y0096327D01*
X0515536Y0097294D02*
X0515536Y0095359D01*
X0518885Y0091401D02*
X0518885Y0089466D01*
X0518885Y0090434D02*
X0521788Y0090434D01*
X0523685Y0091401D02*
X0526588Y0089466D01*
X0526588Y0091401D02*
X0523685Y0089466D01*
X0523685Y0092413D02*
X0523685Y0094348D01*
X0523685Y0093380D02*
X0526588Y0093380D01*
X0527071Y0095359D02*
X0527071Y0097294D01*
X0521788Y0100241D02*
X0518885Y0100241D01*
X0511704Y0099273D02*
X0509769Y0099273D01*
X0510736Y0098306D02*
X0510736Y0100241D01*
X0510253Y0097294D02*
X0509285Y0096327D01*
X0507388Y0096810D02*
X0507388Y0095843D01*
X0506904Y0095359D01*
X0505936Y0095359D01*
X0505936Y0096327D01*
X0504969Y0097294D02*
X0506904Y0097294D01*
X0507388Y0096810D01*
X0507388Y0094348D02*
X0504485Y0094348D01*
X0507388Y0092413D01*
X0504485Y0092413D01*
X0504485Y0091401D02*
X0504485Y0089950D01*
X0504969Y0089466D01*
X0506904Y0089466D01*
X0507388Y0089950D01*
X0507388Y0091401D01*
X0504485Y0091401D01*
X0502588Y0091401D02*
X0500653Y0089466D01*
X0500169Y0089466D01*
X0499685Y0089950D01*
X0499685Y0090917D01*
X0500169Y0091401D01*
X0500653Y0092413D02*
X0502588Y0092413D01*
X0502588Y0091401D02*
X0502588Y0089466D01*
X0501136Y0092413D02*
X0501136Y0094348D01*
X0500653Y0094348D02*
X0499685Y0093380D01*
X0500653Y0092413D01*
X0500653Y0094348D02*
X0502588Y0094348D01*
X0504485Y0095843D02*
X0504485Y0096810D01*
X0504969Y0097294D01*
X0504485Y0095843D02*
X0504969Y0095359D01*
X0497788Y0095843D02*
X0497304Y0095359D01*
X0496336Y0095359D01*
X0496336Y0096327D01*
X0495369Y0097294D02*
X0494885Y0096810D01*
X0494885Y0095843D01*
X0495369Y0095359D01*
X0494885Y0094348D02*
X0497788Y0092413D01*
X0494885Y0092413D01*
X0494885Y0091401D02*
X0494885Y0089950D01*
X0495369Y0089466D01*
X0497304Y0089466D01*
X0497788Y0089950D01*
X0497788Y0091401D01*
X0494885Y0091401D01*
X0492988Y0090917D02*
X0492988Y0089950D01*
X0492504Y0089466D01*
X0490569Y0089466D01*
X0490085Y0089950D01*
X0490085Y0090917D01*
X0490569Y0091401D01*
X0492504Y0091401D01*
X0492988Y0090917D01*
X0492504Y0092413D02*
X0492988Y0092896D01*
X0492988Y0093864D01*
X0492504Y0094348D01*
X0491536Y0093864D02*
X0491536Y0092896D01*
X0492020Y0092413D01*
X0492504Y0092413D01*
X0491536Y0093864D02*
X0491053Y0094348D01*
X0490569Y0094348D01*
X0490085Y0093864D01*
X0490085Y0092896D01*
X0490569Y0092413D01*
X0488188Y0092896D02*
X0487704Y0092413D01*
X0487220Y0092413D01*
X0486736Y0092896D01*
X0486736Y0093864D01*
X0486253Y0094348D01*
X0485769Y0094348D01*
X0485285Y0093864D01*
X0485285Y0092896D01*
X0485769Y0092413D01*
X0485285Y0091401D02*
X0488188Y0091401D01*
X0488188Y0089950D01*
X0487704Y0089466D01*
X0487220Y0089466D01*
X0486736Y0089950D01*
X0486736Y0091401D01*
X0485285Y0091401D02*
X0485285Y0089950D01*
X0485769Y0089466D01*
X0486253Y0089466D01*
X0486736Y0089950D01*
X0488188Y0092896D02*
X0488188Y0093864D01*
X0487704Y0094348D01*
X0487704Y0095359D02*
X0488188Y0095843D01*
X0488188Y0096810D01*
X0487704Y0097294D01*
X0485769Y0097294D01*
X0485285Y0096810D01*
X0485285Y0095843D01*
X0485769Y0095359D01*
X0483388Y0095344D02*
X0483388Y0096312D01*
X0483388Y0095828D02*
X0480485Y0095828D01*
X0480485Y0096312D02*
X0480485Y0095344D01*
X0480485Y0094348D02*
X0480485Y0092896D01*
X0480969Y0092413D01*
X0481936Y0092413D01*
X0482420Y0092896D01*
X0482420Y0094348D01*
X0483388Y0094348D02*
X0480485Y0094348D01*
X0478588Y0093864D02*
X0478104Y0094348D01*
X0478588Y0093864D02*
X0478588Y0092896D01*
X0478104Y0092413D01*
X0477620Y0092413D01*
X0477136Y0092896D01*
X0477136Y0093864D01*
X0476653Y0094348D01*
X0476169Y0094348D01*
X0475685Y0093864D01*
X0475685Y0092896D01*
X0476169Y0092413D01*
X0475685Y0091401D02*
X0475685Y0089950D01*
X0476169Y0089466D01*
X0478104Y0089466D01*
X0478588Y0089950D01*
X0478588Y0091401D01*
X0475685Y0091401D01*
X0473788Y0091401D02*
X0470885Y0091401D01*
X0473788Y0089466D01*
X0470885Y0089466D01*
X0471369Y0088455D02*
X0473304Y0088455D01*
X0473788Y0087971D01*
X0473788Y0087003D01*
X0473304Y0086520D01*
X0471369Y0086520D02*
X0470885Y0087003D01*
X0470885Y0087971D01*
X0471369Y0088455D01*
X0468988Y0087487D02*
X0466085Y0087487D01*
X0466085Y0086520D02*
X0466085Y0088455D01*
X0466085Y0089466D02*
X0466085Y0091401D01*
X0468988Y0091401D01*
X0468988Y0089466D01*
X0467536Y0090434D02*
X0467536Y0091401D01*
X0468020Y0092413D02*
X0468504Y0092413D01*
X0468988Y0092896D01*
X0468988Y0093864D01*
X0468504Y0094348D01*
X0467536Y0093864D02*
X0467536Y0092896D01*
X0468020Y0092413D01*
X0466569Y0092413D02*
X0466085Y0092896D01*
X0466085Y0093864D01*
X0466569Y0094348D01*
X0467053Y0094348D01*
X0467536Y0093864D01*
X0466085Y0095359D02*
X0466085Y0097294D01*
X0468988Y0097294D01*
X0468988Y0095359D01*
X0467536Y0096327D02*
X0467536Y0097294D01*
X0467536Y0098306D02*
X0468020Y0098789D01*
X0468020Y0100241D01*
X0468988Y0100241D02*
X0466085Y0100241D01*
X0466085Y0098789D01*
X0466569Y0098306D01*
X0467536Y0098306D01*
X0468020Y0099273D02*
X0468988Y0098306D01*
X0470885Y0096810D02*
X0471369Y0097294D01*
X0471853Y0097294D01*
X0472336Y0096810D01*
X0472336Y0095843D01*
X0472820Y0095359D01*
X0473304Y0095359D01*
X0473788Y0095843D01*
X0473788Y0096810D01*
X0473304Y0097294D01*
X0475685Y0096810D02*
X0476169Y0097294D01*
X0476653Y0097294D01*
X0477136Y0096810D01*
X0477136Y0095843D01*
X0477620Y0095359D01*
X0478104Y0095359D01*
X0478588Y0095843D01*
X0478588Y0096810D01*
X0478104Y0097294D01*
X0475685Y0096810D02*
X0475685Y0095843D01*
X0476169Y0095359D01*
X0473788Y0093380D02*
X0472336Y0093380D01*
X0471369Y0092413D01*
X0470885Y0092413D01*
X0472336Y0093380D02*
X0471369Y0094348D01*
X0470885Y0094348D01*
X0471369Y0095359D02*
X0470885Y0095843D01*
X0470885Y0096810D01*
X0468988Y0101252D02*
X0466085Y0101252D01*
X0466085Y0103187D02*
X0468988Y0101252D01*
X0468988Y0103187D02*
X0466085Y0103187D01*
X0462736Y0100241D02*
X0462736Y0098306D01*
X0463220Y0097294D02*
X0464188Y0096327D01*
X0463220Y0095359D01*
X0461285Y0095359D01*
X0462253Y0094348D02*
X0461285Y0093380D01*
X0462253Y0092413D01*
X0464188Y0092413D01*
X0463704Y0091401D02*
X0464188Y0090917D01*
X0464188Y0089950D01*
X0463704Y0089466D01*
X0461285Y0089466D01*
X0461285Y0088455D02*
X0464188Y0086520D01*
X0464188Y0088455D02*
X0461285Y0086520D01*
X0461769Y0082561D02*
X0461285Y0082078D01*
X0461285Y0081110D01*
X0461769Y0080627D01*
X0462253Y0080627D01*
X0464188Y0082561D01*
X0464188Y0080627D01*
X0466085Y0081110D02*
X0467536Y0082561D01*
X0467536Y0080627D01*
X0466085Y0081110D02*
X0468988Y0081110D01*
X0470885Y0080627D02*
X0471369Y0081594D01*
X0472336Y0082561D01*
X0472336Y0081110D01*
X0472820Y0080627D01*
X0473304Y0080627D01*
X0473788Y0081110D01*
X0473788Y0082078D01*
X0473304Y0082561D01*
X0472336Y0082561D01*
X0475685Y0082078D02*
X0475685Y0081110D01*
X0476169Y0080627D01*
X0476653Y0080627D01*
X0477136Y0081110D01*
X0477136Y0082078D01*
X0476653Y0082561D01*
X0476169Y0082561D01*
X0475685Y0082078D01*
X0477136Y0082078D02*
X0477620Y0082561D01*
X0478104Y0082561D01*
X0478588Y0082078D01*
X0478588Y0081110D01*
X0478104Y0080627D01*
X0477620Y0080627D01*
X0477136Y0081110D01*
X0480485Y0081110D02*
X0480969Y0080627D01*
X0482904Y0082561D01*
X0483388Y0082078D01*
X0483388Y0081110D01*
X0482904Y0080627D01*
X0480969Y0080627D01*
X0480485Y0081110D02*
X0480485Y0082078D01*
X0480969Y0082561D01*
X0482904Y0082561D01*
X0483388Y0083573D02*
X0483388Y0085508D01*
X0483388Y0084541D02*
X0480485Y0084541D01*
X0481453Y0085508D01*
X0478588Y0086520D02*
X0476653Y0086520D01*
X0475685Y0087487D01*
X0476653Y0088455D01*
X0478588Y0088455D01*
X0477136Y0088455D02*
X0477136Y0086520D01*
X0480485Y0089950D02*
X0480969Y0089466D01*
X0482904Y0089466D01*
X0483388Y0089950D01*
X0483388Y0090917D01*
X0482904Y0091401D01*
X0480969Y0091401D01*
X0480485Y0090917D01*
X0480485Y0089950D01*
X0482420Y0090434D02*
X0483388Y0089466D01*
X0483388Y0092413D02*
X0482420Y0093380D01*
X0490085Y0095344D02*
X0490085Y0096312D01*
X0490085Y0095828D02*
X0492988Y0095828D01*
X0492988Y0096312D02*
X0492988Y0095344D01*
X0492988Y0097323D02*
X0490085Y0097323D01*
X0491053Y0098291D01*
X0490085Y0099258D01*
X0492988Y0099258D01*
X0495369Y0097294D02*
X0497304Y0097294D01*
X0497788Y0096810D01*
X0497788Y0095843D01*
X0497788Y0094348D02*
X0494885Y0094348D01*
X0495853Y0085508D02*
X0494885Y0084541D01*
X0497788Y0084541D01*
X0497788Y0085508D02*
X0497788Y0083573D01*
X0497304Y0082561D02*
X0497788Y0082078D01*
X0497788Y0081110D01*
X0497304Y0080627D01*
X0496820Y0080627D01*
X0496336Y0081110D01*
X0496336Y0082561D01*
X0497304Y0082561D01*
X0496336Y0082561D02*
X0495369Y0081594D01*
X0494885Y0080627D01*
X0492988Y0081110D02*
X0490085Y0081110D01*
X0491536Y0082561D01*
X0491536Y0080627D01*
X0492988Y0083573D02*
X0492988Y0085508D01*
X0492988Y0084541D02*
X0490085Y0084541D01*
X0491053Y0085508D01*
X0488188Y0085508D02*
X0488188Y0083573D01*
X0488188Y0084541D02*
X0485285Y0084541D01*
X0486253Y0085508D01*
X0485769Y0082561D02*
X0485285Y0082078D01*
X0485285Y0081110D01*
X0485769Y0080627D01*
X0486253Y0080627D01*
X0488188Y0082561D01*
X0488188Y0080627D01*
X0499685Y0081110D02*
X0500169Y0080627D01*
X0500653Y0080627D01*
X0501136Y0081110D01*
X0501136Y0082078D01*
X0500653Y0082561D01*
X0500169Y0082561D01*
X0499685Y0082078D01*
X0499685Y0081110D01*
X0501136Y0081110D02*
X0501620Y0080627D01*
X0502104Y0080627D01*
X0502588Y0081110D01*
X0502588Y0082078D01*
X0502104Y0082561D01*
X0501620Y0082561D01*
X0501136Y0082078D01*
X0502588Y0083573D02*
X0502588Y0085508D01*
X0502588Y0084541D02*
X0499685Y0084541D01*
X0500653Y0085508D01*
X0504485Y0085024D02*
X0504969Y0085508D01*
X0504485Y0085024D02*
X0504485Y0084057D01*
X0504969Y0083573D01*
X0505453Y0083573D01*
X0507388Y0085508D01*
X0507388Y0083573D01*
X0506904Y0082561D02*
X0504969Y0080627D01*
X0506904Y0080627D01*
X0507388Y0081110D01*
X0507388Y0082078D01*
X0506904Y0082561D01*
X0504969Y0082561D01*
X0504485Y0082078D01*
X0504485Y0081110D01*
X0504969Y0080627D01*
X0509285Y0081110D02*
X0509285Y0082078D01*
X0509769Y0082561D01*
X0509769Y0083573D02*
X0509285Y0084057D01*
X0509285Y0085024D01*
X0509769Y0085508D01*
X0509769Y0083573D02*
X0510253Y0083573D01*
X0512188Y0085508D01*
X0512188Y0083573D01*
X0512188Y0082561D02*
X0510253Y0080627D01*
X0509769Y0080627D01*
X0509285Y0081110D01*
X0512188Y0080627D02*
X0512188Y0082561D01*
X0514085Y0081110D02*
X0515536Y0082561D01*
X0515536Y0080627D01*
X0514085Y0081110D02*
X0516988Y0081110D01*
X0518885Y0080627D02*
X0519369Y0081594D01*
X0520336Y0082561D01*
X0520336Y0081110D01*
X0520820Y0080627D01*
X0521304Y0080627D01*
X0521788Y0081110D01*
X0521788Y0082078D01*
X0521304Y0082561D01*
X0520336Y0082561D01*
X0519853Y0083573D02*
X0519369Y0083573D01*
X0518885Y0084057D01*
X0518885Y0085024D01*
X0519369Y0085508D01*
X0519853Y0083573D02*
X0521788Y0085508D01*
X0521788Y0083573D01*
X0523685Y0084057D02*
X0523685Y0085024D01*
X0524169Y0085508D01*
X0523685Y0084057D02*
X0524169Y0083573D01*
X0524653Y0083573D01*
X0526588Y0085508D01*
X0526588Y0083573D01*
X0526104Y0082561D02*
X0525620Y0082561D01*
X0525136Y0082078D01*
X0525136Y0081110D01*
X0525620Y0080627D01*
X0526104Y0080627D01*
X0526588Y0081110D01*
X0526588Y0082078D01*
X0526104Y0082561D01*
X0525136Y0082078D02*
X0524653Y0082561D01*
X0524169Y0082561D01*
X0523685Y0082078D01*
X0523685Y0081110D01*
X0524169Y0080627D01*
X0524653Y0080627D01*
X0525136Y0081110D01*
X0516988Y0083573D02*
X0516988Y0085508D01*
X0515053Y0083573D01*
X0514569Y0083573D01*
X0514085Y0084057D01*
X0514085Y0085024D01*
X0514569Y0085508D01*
X0525136Y0104199D02*
X0525136Y0106134D01*
X0524653Y0106134D02*
X0526588Y0106134D01*
X0526588Y0065865D02*
X0524653Y0063930D01*
X0524169Y0063930D01*
X0523685Y0064414D01*
X0523685Y0065381D01*
X0524169Y0065865D01*
X0521788Y0065865D02*
X0519853Y0063930D01*
X0519369Y0063930D01*
X0518885Y0064414D01*
X0518885Y0065381D01*
X0519369Y0065865D01*
X0516988Y0065865D02*
X0515053Y0063930D01*
X0514569Y0063930D01*
X0514085Y0064414D01*
X0514085Y0065381D01*
X0514569Y0065865D01*
X0512188Y0065865D02*
X0510253Y0063930D01*
X0509769Y0063930D01*
X0509285Y0064414D01*
X0509285Y0065381D01*
X0509769Y0065865D01*
X0507388Y0065865D02*
X0507388Y0063930D01*
X0507388Y0064897D02*
X0504485Y0064897D01*
X0505453Y0065865D01*
X0502588Y0065865D02*
X0502588Y0063930D01*
X0502588Y0064897D02*
X0499685Y0064897D01*
X0500653Y0065865D01*
X0497788Y0065865D02*
X0497788Y0063930D01*
X0497788Y0064897D02*
X0494885Y0064897D01*
X0495853Y0065865D01*
X0492988Y0065865D02*
X0492988Y0063930D01*
X0492988Y0064897D02*
X0490085Y0064897D01*
X0491053Y0065865D01*
X0488188Y0065865D02*
X0488188Y0063930D01*
X0488188Y0064897D02*
X0485285Y0064897D01*
X0486253Y0065865D01*
X0483388Y0065381D02*
X0483388Y0064414D01*
X0482904Y0063930D01*
X0480969Y0063930D01*
X0480485Y0064414D01*
X0480485Y0065381D01*
X0480969Y0065865D01*
X0481453Y0065865D01*
X0481936Y0065381D01*
X0481936Y0063930D01*
X0483388Y0065381D02*
X0482904Y0065865D01*
X0478588Y0065865D02*
X0478104Y0065865D01*
X0476169Y0063930D01*
X0475685Y0063930D01*
X0475685Y0065865D01*
X0473788Y0065381D02*
X0473304Y0065865D01*
X0473788Y0065381D02*
X0473788Y0064414D01*
X0473304Y0063930D01*
X0472336Y0063930D01*
X0471853Y0064414D01*
X0471853Y0064897D01*
X0472336Y0065865D01*
X0470885Y0065865D01*
X0470885Y0063930D01*
X0468988Y0064414D02*
X0468988Y0065381D01*
X0468504Y0065865D01*
X0467536Y0064897D02*
X0467536Y0064414D01*
X0468020Y0063930D01*
X0468504Y0063930D01*
X0468988Y0064414D01*
X0467536Y0064414D02*
X0467053Y0063930D01*
X0466569Y0063930D01*
X0466085Y0064414D01*
X0466085Y0065381D01*
X0466569Y0065865D01*
X0464188Y0065865D02*
X0464188Y0063930D01*
X0464188Y0064897D02*
X0461285Y0064897D01*
X0462253Y0065865D01*
X0456838Y0066111D02*
X0455386Y0066111D01*
X0454903Y0065627D01*
X0455386Y0065143D01*
X0456838Y0065143D01*
X0455386Y0066111D02*
X0454903Y0066595D01*
X0454903Y0067078D01*
X0456838Y0067078D01*
X0456354Y0068090D02*
X0455386Y0068090D01*
X0454903Y0068574D01*
X0454903Y0069541D01*
X0455386Y0070025D01*
X0456354Y0070025D01*
X0456838Y0069541D01*
X0456838Y0068574D01*
X0456354Y0068090D01*
X0456838Y0071022D02*
X0456354Y0071506D01*
X0454419Y0071506D01*
X0454903Y0071989D02*
X0454903Y0071022D01*
X0454903Y0072986D02*
X0454903Y0073954D01*
X0454419Y0073470D02*
X0456354Y0073470D01*
X0456838Y0072986D01*
X0456354Y0074965D02*
X0455386Y0074965D01*
X0454903Y0075449D01*
X0454903Y0076416D01*
X0455386Y0076900D01*
X0456354Y0076900D01*
X0456838Y0076416D01*
X0456838Y0075449D01*
X0456354Y0074965D01*
X0456354Y0077912D02*
X0455386Y0077912D01*
X0454903Y0078395D01*
X0454903Y0079847D01*
X0453935Y0079847D02*
X0456838Y0079847D01*
X0456838Y0078395D01*
X0456354Y0077912D01*
X0456838Y0080844D02*
X0455870Y0081811D01*
X0454903Y0081811D01*
X0453935Y0080844D01*
X0454419Y0085769D02*
X0454903Y0085769D01*
X0455386Y0086253D01*
X0455386Y0087704D01*
X0453935Y0087704D02*
X0453935Y0086253D01*
X0454419Y0085769D01*
X0455386Y0086253D02*
X0455870Y0085769D01*
X0456354Y0085769D01*
X0456838Y0086253D01*
X0456838Y0087704D01*
X0453935Y0087704D01*
X0453935Y0088701D02*
X0453935Y0089668D01*
X0453935Y0089185D02*
X0456838Y0089185D01*
X0456838Y0089668D02*
X0456838Y0088701D01*
X0456354Y0090680D02*
X0454419Y0090680D01*
X0453935Y0091164D01*
X0453935Y0092615D01*
X0456838Y0092615D01*
X0456838Y0091164D01*
X0456354Y0090680D01*
X0461285Y0091401D02*
X0463704Y0091401D01*
X0462736Y0092413D02*
X0462736Y0094348D01*
X0462253Y0094348D02*
X0464188Y0094348D01*
X0463220Y0097294D02*
X0461285Y0097294D01*
X0461769Y0099273D02*
X0463704Y0099273D01*
X0486253Y0062918D02*
X0485285Y0061951D01*
X0488188Y0061951D01*
X0488188Y0062918D02*
X0488188Y0060983D01*
X0490085Y0061467D02*
X0490569Y0060983D01*
X0491053Y0060983D01*
X0491536Y0061467D01*
X0492020Y0060983D01*
X0492504Y0060983D01*
X0492988Y0061467D01*
X0492988Y0062435D01*
X0492504Y0062918D01*
X0491536Y0061951D02*
X0491536Y0061467D01*
X0490085Y0061467D02*
X0490085Y0062435D01*
X0490569Y0062918D01*
X0494885Y0062918D02*
X0494885Y0060983D01*
X0495853Y0061467D02*
X0496336Y0060983D01*
X0497304Y0060983D01*
X0497788Y0061467D01*
X0497788Y0062435D01*
X0497304Y0062918D01*
X0496336Y0062918D02*
X0495853Y0061951D01*
X0495853Y0061467D01*
X0496336Y0062918D02*
X0494885Y0062918D01*
X0499685Y0062918D02*
X0499685Y0060983D01*
X0500169Y0060983D01*
X0502104Y0062918D01*
X0502588Y0062918D01*
X0504485Y0062435D02*
X0504969Y0062918D01*
X0505453Y0062918D01*
X0505936Y0062435D01*
X0505936Y0060983D01*
X0504969Y0060983D02*
X0504485Y0061467D01*
X0504485Y0062435D01*
X0504969Y0060983D02*
X0506904Y0060983D01*
X0507388Y0061467D01*
X0507388Y0062435D01*
X0506904Y0062918D01*
X0509285Y0061951D02*
X0512188Y0061951D01*
X0512188Y0062918D02*
X0512188Y0060983D01*
X0514085Y0061467D02*
X0514569Y0060983D01*
X0515053Y0060983D01*
X0515536Y0061467D01*
X0516020Y0060983D01*
X0516504Y0060983D01*
X0516988Y0061467D01*
X0516988Y0062435D01*
X0516504Y0062918D01*
X0516988Y0063930D02*
X0516988Y0065865D01*
X0518885Y0062918D02*
X0518885Y0060983D01*
X0519853Y0061467D02*
X0520336Y0060983D01*
X0521304Y0060983D01*
X0521788Y0061467D01*
X0521788Y0062435D01*
X0521304Y0062918D01*
X0520336Y0062918D02*
X0519853Y0061951D01*
X0519853Y0061467D01*
X0520336Y0062918D02*
X0518885Y0062918D01*
X0521788Y0063930D02*
X0521788Y0065865D01*
X0523685Y0062918D02*
X0523685Y0060983D01*
X0524169Y0060983D01*
X0526104Y0062918D01*
X0526588Y0062918D01*
X0526588Y0063930D02*
X0526588Y0065865D01*
X0526104Y0057025D02*
X0523685Y0057025D01*
X0523685Y0055090D02*
X0526104Y0055090D01*
X0526588Y0055574D01*
X0526588Y0056542D01*
X0526104Y0057025D01*
X0526588Y0054079D02*
X0524653Y0054079D01*
X0523685Y0053111D01*
X0524653Y0052144D01*
X0526588Y0052144D01*
X0526588Y0051132D02*
X0523685Y0051132D01*
X0523685Y0049681D01*
X0524169Y0049197D01*
X0525136Y0049197D01*
X0525620Y0049681D01*
X0525620Y0051132D01*
X0525620Y0050165D02*
X0526588Y0049197D01*
X0526588Y0047218D02*
X0523685Y0047218D01*
X0523685Y0046251D02*
X0523685Y0048186D01*
X0521788Y0049681D02*
X0521304Y0049197D01*
X0519369Y0049197D01*
X0518885Y0049681D01*
X0518885Y0051132D01*
X0521788Y0051132D01*
X0521788Y0049681D01*
X0521788Y0052144D02*
X0518885Y0052144D01*
X0518885Y0054079D02*
X0521788Y0052144D01*
X0521788Y0054079D02*
X0518885Y0054079D01*
X0519369Y0055090D02*
X0518885Y0055574D01*
X0518885Y0056542D01*
X0519369Y0057025D01*
X0521304Y0057025D01*
X0521788Y0056542D01*
X0521788Y0055574D01*
X0521304Y0055090D01*
X0520336Y0055090D01*
X0520336Y0056058D01*
X0516504Y0056058D02*
X0514569Y0056058D01*
X0515536Y0057025D02*
X0515536Y0055090D01*
X0515536Y0054079D02*
X0515053Y0053111D01*
X0515053Y0052628D01*
X0515536Y0052144D01*
X0516504Y0052144D01*
X0516988Y0052628D01*
X0516988Y0053595D01*
X0516504Y0054079D01*
X0515536Y0054079D02*
X0514085Y0054079D01*
X0514085Y0052144D01*
X0514085Y0051132D02*
X0516020Y0051132D01*
X0516988Y0050165D01*
X0516020Y0049197D01*
X0514085Y0049197D01*
X0512188Y0049197D02*
X0512188Y0051132D01*
X0510253Y0049197D01*
X0509769Y0049197D01*
X0509285Y0049681D01*
X0509285Y0050649D01*
X0509769Y0051132D01*
X0509285Y0053111D02*
X0512188Y0053111D01*
X0512188Y0052144D02*
X0512188Y0054079D01*
X0510736Y0055090D02*
X0510736Y0057025D01*
X0509769Y0056058D02*
X0511704Y0056058D01*
X0510253Y0054079D02*
X0509285Y0053111D01*
X0507388Y0053111D02*
X0504485Y0053111D01*
X0505453Y0054079D01*
X0505453Y0055090D02*
X0507388Y0055090D01*
X0507388Y0054079D02*
X0507388Y0052144D01*
X0505936Y0055090D02*
X0505936Y0057025D01*
X0505453Y0057025D02*
X0504485Y0056058D01*
X0505453Y0055090D01*
X0505453Y0057025D02*
X0507388Y0057025D01*
X0502588Y0057025D02*
X0500653Y0057025D01*
X0499685Y0056058D01*
X0500653Y0055090D01*
X0502588Y0055090D01*
X0502104Y0054079D02*
X0500169Y0052144D01*
X0502104Y0052144D01*
X0502588Y0052628D01*
X0502588Y0053595D01*
X0502104Y0054079D01*
X0500169Y0054079D01*
X0499685Y0053595D01*
X0499685Y0052628D01*
X0500169Y0052144D01*
X0497788Y0052628D02*
X0497788Y0053595D01*
X0497304Y0054079D01*
X0495369Y0054079D01*
X0494885Y0053595D01*
X0494885Y0052628D01*
X0495369Y0052144D01*
X0497304Y0052144D01*
X0497788Y0052628D01*
X0497304Y0051132D02*
X0497788Y0050649D01*
X0497788Y0049681D01*
X0497304Y0049197D01*
X0496820Y0049197D01*
X0496336Y0049681D01*
X0496336Y0050649D01*
X0495853Y0051132D01*
X0495369Y0051132D01*
X0494885Y0050649D01*
X0494885Y0049681D01*
X0495369Y0049197D01*
X0494885Y0048186D02*
X0494885Y0047218D01*
X0494885Y0047702D02*
X0497788Y0047702D01*
X0497788Y0048186D02*
X0497788Y0047218D01*
X0492988Y0046251D02*
X0491536Y0047702D01*
X0492020Y0048186D02*
X0490085Y0046251D01*
X0490085Y0048186D02*
X0492988Y0048186D01*
X0492988Y0049197D02*
X0492988Y0051132D01*
X0490085Y0051132D01*
X0490569Y0052144D02*
X0490085Y0052628D01*
X0490085Y0053595D01*
X0490569Y0054079D01*
X0492504Y0054079D01*
X0492988Y0053595D01*
X0492988Y0052628D01*
X0492504Y0052144D01*
X0492504Y0055090D02*
X0492020Y0055090D01*
X0491536Y0055574D01*
X0491536Y0056542D01*
X0491053Y0057025D01*
X0490569Y0057025D01*
X0490085Y0056542D01*
X0490085Y0055574D01*
X0490569Y0055090D01*
X0492504Y0055090D02*
X0492988Y0055574D01*
X0492988Y0056542D01*
X0492504Y0057025D01*
X0494885Y0057025D02*
X0495853Y0056058D01*
X0494885Y0055090D01*
X0497788Y0055090D01*
X0497788Y0057025D02*
X0494885Y0057025D01*
X0501136Y0057025D02*
X0501136Y0055090D01*
X0509285Y0061951D02*
X0510253Y0062918D01*
X0512188Y0063930D02*
X0512188Y0065865D01*
X0514569Y0062918D02*
X0514085Y0062435D01*
X0514085Y0061467D01*
X0515536Y0061467D02*
X0515536Y0061951D01*
X0525136Y0054079D02*
X0525136Y0052144D01*
X0527071Y0045239D02*
X0527071Y0043304D01*
X0526588Y0042293D02*
X0523685Y0042293D01*
X0523685Y0040842D01*
X0524169Y0040358D01*
X0525136Y0040358D01*
X0525620Y0040842D01*
X0525620Y0042293D01*
X0525620Y0041325D02*
X0526588Y0040358D01*
X0526588Y0039346D02*
X0523685Y0037411D01*
X0523685Y0039346D02*
X0526588Y0037411D01*
X0512188Y0047218D02*
X0511220Y0046251D01*
X0509285Y0046251D01*
X0509285Y0048186D02*
X0511220Y0048186D01*
X0512188Y0047218D01*
X0488188Y0049681D02*
X0487704Y0049197D01*
X0485769Y0049197D01*
X0485285Y0049681D01*
X0485285Y0051132D01*
X0488188Y0051132D01*
X0488188Y0049681D01*
X0488188Y0052144D02*
X0485285Y0052144D01*
X0483388Y0052144D02*
X0481453Y0052144D01*
X0480485Y0053111D01*
X0481453Y0054079D01*
X0483388Y0054079D01*
X0482904Y0055090D02*
X0483388Y0055574D01*
X0483388Y0056542D01*
X0482904Y0057025D01*
X0482904Y0058037D02*
X0483388Y0058521D01*
X0483388Y0059488D01*
X0482904Y0059972D01*
X0480969Y0059972D01*
X0480485Y0059488D01*
X0480485Y0058521D01*
X0480969Y0058037D01*
X0480969Y0057025D02*
X0481453Y0057025D01*
X0481936Y0056542D01*
X0481936Y0055574D01*
X0482420Y0055090D01*
X0482904Y0055090D01*
X0481936Y0054079D02*
X0481936Y0052144D01*
X0480969Y0055090D02*
X0480485Y0055574D01*
X0480485Y0056542D01*
X0480969Y0057025D01*
X0478588Y0057025D02*
X0475685Y0057025D01*
X0478588Y0055090D01*
X0475685Y0055090D01*
X0475685Y0054079D02*
X0475685Y0052628D01*
X0476169Y0052144D01*
X0478104Y0052144D01*
X0478588Y0052628D01*
X0478588Y0054079D01*
X0475685Y0054079D01*
X0473788Y0053595D02*
X0473788Y0052628D01*
X0473304Y0052144D01*
X0473788Y0051132D02*
X0473788Y0049197D01*
X0473788Y0051132D02*
X0470885Y0051132D01*
X0471369Y0052144D02*
X0470885Y0052628D01*
X0470885Y0053595D01*
X0471369Y0054079D01*
X0473304Y0054079D01*
X0473788Y0053595D01*
X0473304Y0055090D02*
X0473788Y0055574D01*
X0473788Y0056542D01*
X0473304Y0057025D01*
X0473304Y0058037D02*
X0472820Y0058037D01*
X0472336Y0058521D01*
X0472336Y0059488D01*
X0471853Y0059972D01*
X0471369Y0059972D01*
X0470885Y0059488D01*
X0470885Y0058521D01*
X0471369Y0058037D01*
X0471369Y0057025D02*
X0471853Y0057025D01*
X0472336Y0056542D01*
X0472336Y0055574D01*
X0472820Y0055090D01*
X0473304Y0055090D01*
X0471369Y0055090D02*
X0470885Y0055574D01*
X0470885Y0056542D01*
X0471369Y0057025D01*
X0473304Y0058037D02*
X0473788Y0058521D01*
X0473788Y0059488D01*
X0473304Y0059972D01*
X0475685Y0059488D02*
X0476169Y0059972D01*
X0478104Y0059972D01*
X0478588Y0059488D01*
X0478588Y0058521D01*
X0478104Y0058037D01*
X0477136Y0058037D01*
X0477136Y0059004D01*
X0476169Y0058037D02*
X0475685Y0058521D01*
X0475685Y0059488D01*
X0468988Y0059972D02*
X0466085Y0059972D01*
X0468988Y0058037D01*
X0466085Y0058037D01*
X0466085Y0057025D02*
X0466085Y0055090D01*
X0467053Y0054079D02*
X0466085Y0053111D01*
X0467053Y0052144D01*
X0468988Y0052144D01*
X0468504Y0051132D02*
X0468988Y0050649D01*
X0468988Y0049681D01*
X0468504Y0049197D01*
X0466085Y0049197D01*
X0466085Y0048186D02*
X0468988Y0048186D01*
X0468988Y0046251D01*
X0468988Y0044272D02*
X0466085Y0044272D01*
X0466085Y0045239D02*
X0466085Y0043304D01*
X0463704Y0049197D02*
X0464188Y0049681D01*
X0464188Y0050649D01*
X0463704Y0051132D01*
X0463220Y0052144D02*
X0461285Y0052144D01*
X0461769Y0051132D02*
X0461285Y0050649D01*
X0461285Y0049681D01*
X0461769Y0049197D01*
X0462253Y0049197D01*
X0462736Y0049681D01*
X0463220Y0049197D01*
X0463704Y0049197D01*
X0462736Y0049681D02*
X0462736Y0050165D01*
X0463220Y0052144D02*
X0464188Y0053111D01*
X0463220Y0054079D01*
X0461285Y0054079D01*
X0461769Y0055090D02*
X0462253Y0055090D01*
X0462736Y0055574D01*
X0463220Y0055090D01*
X0463704Y0055090D01*
X0464188Y0055574D01*
X0464188Y0056542D01*
X0463704Y0057025D01*
X0462736Y0056058D02*
X0462736Y0055574D01*
X0461769Y0055090D02*
X0461285Y0055574D01*
X0461285Y0056542D01*
X0461769Y0057025D01*
X0462736Y0058037D02*
X0462736Y0059972D01*
X0461769Y0059004D02*
X0463704Y0059004D01*
X0466085Y0057025D02*
X0468988Y0057025D01*
X0467536Y0057025D02*
X0467536Y0056058D01*
X0467536Y0054079D02*
X0467536Y0052144D01*
X0468504Y0051132D02*
X0466085Y0051132D01*
X0467053Y0054079D02*
X0468988Y0054079D01*
X0456838Y0054823D02*
X0456838Y0055791D01*
X0456354Y0056275D01*
X0455386Y0056275D01*
X0454903Y0055791D01*
X0454903Y0054823D01*
X0455386Y0054340D01*
X0455870Y0054340D01*
X0455870Y0056275D01*
X0456838Y0057271D02*
X0456838Y0058239D01*
X0456838Y0057755D02*
X0454903Y0057755D01*
X0454903Y0058239D01*
X0454903Y0059250D02*
X0456838Y0060218D01*
X0454903Y0061185D01*
X0453935Y0057755D02*
X0453451Y0057755D01*
X0454903Y0053328D02*
X0456354Y0053328D01*
X0456838Y0052844D01*
X0456354Y0052361D01*
X0456838Y0051877D01*
X0456354Y0051393D01*
X0454903Y0051393D01*
X0453935Y0050382D02*
X0454903Y0049414D01*
X0455870Y0049414D01*
X0456838Y0050382D01*
X0485285Y0054079D02*
X0488188Y0052144D01*
X0488188Y0054079D02*
X0485285Y0054079D01*
X0485769Y0055090D02*
X0485285Y0055574D01*
X0485285Y0056542D01*
X0485769Y0057025D01*
X0487704Y0057025D01*
X0488188Y0056542D01*
X0488188Y0055574D01*
X0487704Y0055090D01*
X0486736Y0055090D01*
X0486736Y0056058D01*
M02*
