G75*
%MOIN*%
%OFA0B0*%
%FSLAX25Y25*%
%IPPOS*%
%LPD*%
%AMOC8*
5,1,8,0,0,1.08239X$1,22.5*
%
%ADD10OC8,0.05906*%
%ADD11R,0.05906X0.05906*%
%ADD12OC8,0.07677*%
%ADD13C,0.07677*%
%ADD14C,0.00394*%
%ADD15C,0.00402*%
%ADD16C,0.00396*%
%ADD17C,0.00409*%
%ADD18C,0.00390*%
%ADD19C,0.00406*%
%ADD20C,0.04000*%
%ADD21OC8,0.06496*%
%ADD22C,0.00100*%
%ADD23R,0.04724X0.04724*%
%ADD24OC8,0.04724*%
%ADD25OC8,0.06000*%
%ADD26C,0.06000*%
%ADD27C,0.21654*%
%ADD28R,0.03175X0.03175*%
%ADD29C,0.01600*%
%ADD30C,0.00800*%
%ADD31C,0.01200*%
%ADD32C,0.01000*%
%ADD33OC8,0.03175*%
%ADD34C,0.02000*%
%ADD35C,0.02400*%
%ADD36C,0.03200*%
%ADD37OC8,0.02781*%
D10*
X0309333Y0115232D03*
X0319333Y0115232D03*
X0329333Y0115232D03*
X0339333Y0115232D03*
X0349333Y0115232D03*
X0359333Y0115232D03*
X0369333Y0115232D03*
X0379333Y0115232D03*
X0389333Y0115232D03*
X0399333Y0115232D03*
X0409333Y0115232D03*
X0419333Y0115232D03*
X0429333Y0115232D03*
X0439333Y0115232D03*
X0439333Y0105232D03*
X0429333Y0105232D03*
X0419333Y0105232D03*
X0409333Y0105232D03*
X0399333Y0105232D03*
X0389333Y0105232D03*
X0379333Y0105232D03*
X0369333Y0105232D03*
X0359333Y0105232D03*
X0349333Y0105232D03*
X0339333Y0105232D03*
X0329333Y0105232D03*
X0319333Y0105232D03*
X0596938Y0111270D03*
X0596938Y0121270D03*
X0596938Y0131270D03*
X0596938Y0141270D03*
X0596938Y0151270D03*
X0596938Y0161270D03*
D11*
X0309333Y0105232D03*
D12*
X0166932Y0248441D03*
X0166932Y0374425D03*
D13*
X0166932Y0359425D03*
X0166932Y0344425D03*
X0166932Y0329425D03*
X0166932Y0314425D03*
X0166932Y0299425D03*
X0166932Y0284425D03*
X0166932Y0269425D03*
X0166932Y0233441D03*
X0166932Y0218441D03*
X0166932Y0203441D03*
X0166932Y0188441D03*
X0166932Y0173441D03*
X0166932Y0158441D03*
X0166932Y0143441D03*
X0116932Y0143441D03*
X0116932Y0158441D03*
X0116932Y0173441D03*
X0116932Y0188441D03*
X0116932Y0203441D03*
X0116932Y0218441D03*
X0116932Y0233441D03*
X0116932Y0248441D03*
X0116932Y0269425D03*
X0116932Y0284425D03*
X0116932Y0299425D03*
X0116932Y0314425D03*
X0116932Y0329425D03*
X0116932Y0344425D03*
X0116932Y0359425D03*
X0116932Y0374425D03*
D14*
X0285155Y0352041D02*
X0289485Y0352041D01*
X0289485Y0348499D01*
X0285155Y0348499D01*
X0285155Y0352041D01*
X0285155Y0348892D02*
X0289485Y0348892D01*
X0289485Y0349285D02*
X0285155Y0349285D01*
X0285155Y0349678D02*
X0289485Y0349678D01*
X0289485Y0350071D02*
X0285155Y0350071D01*
X0285155Y0350464D02*
X0289485Y0350464D01*
X0289485Y0350857D02*
X0285155Y0350857D01*
X0285155Y0351250D02*
X0289485Y0351250D01*
X0289485Y0351643D02*
X0285155Y0351643D01*
X0285155Y0352036D02*
X0289485Y0352036D01*
X0295391Y0352041D02*
X0299721Y0352041D01*
X0299721Y0348499D01*
X0295391Y0348499D01*
X0295391Y0352041D01*
X0295391Y0348892D02*
X0299721Y0348892D01*
X0299721Y0349285D02*
X0295391Y0349285D01*
X0295391Y0349678D02*
X0299721Y0349678D01*
X0299721Y0350071D02*
X0295391Y0350071D01*
X0295391Y0350464D02*
X0299721Y0350464D01*
X0299721Y0350857D02*
X0295391Y0350857D01*
X0295391Y0351250D02*
X0299721Y0351250D01*
X0299721Y0351643D02*
X0295391Y0351643D01*
X0295391Y0352036D02*
X0299721Y0352036D01*
X0301905Y0348499D02*
X0306235Y0348499D01*
X0301905Y0348499D02*
X0301905Y0352041D01*
X0306235Y0352041D01*
X0306235Y0348499D01*
X0306235Y0348892D02*
X0301905Y0348892D01*
X0301905Y0349285D02*
X0306235Y0349285D01*
X0306235Y0349678D02*
X0301905Y0349678D01*
X0301905Y0350071D02*
X0306235Y0350071D01*
X0306235Y0350464D02*
X0301905Y0350464D01*
X0301905Y0350857D02*
X0306235Y0350857D01*
X0306235Y0351250D02*
X0301905Y0351250D01*
X0301905Y0351643D02*
X0306235Y0351643D01*
X0306235Y0352036D02*
X0301905Y0352036D01*
X0312141Y0348499D02*
X0316471Y0348499D01*
X0312141Y0348499D02*
X0312141Y0352041D01*
X0316471Y0352041D01*
X0316471Y0348499D01*
X0316471Y0348892D02*
X0312141Y0348892D01*
X0312141Y0349285D02*
X0316471Y0349285D01*
X0316471Y0349678D02*
X0312141Y0349678D01*
X0312141Y0350071D02*
X0316471Y0350071D01*
X0316471Y0350464D02*
X0312141Y0350464D01*
X0312141Y0350857D02*
X0316471Y0350857D01*
X0316471Y0351250D02*
X0312141Y0351250D01*
X0312141Y0351643D02*
X0316471Y0351643D01*
X0316471Y0352036D02*
X0312141Y0352036D01*
X0513655Y0326299D02*
X0517985Y0326299D01*
X0513655Y0326299D02*
X0513655Y0329841D01*
X0517985Y0329841D01*
X0517985Y0326299D01*
X0517985Y0326692D02*
X0513655Y0326692D01*
X0513655Y0327085D02*
X0517985Y0327085D01*
X0517985Y0327478D02*
X0513655Y0327478D01*
X0513655Y0327871D02*
X0517985Y0327871D01*
X0517985Y0328264D02*
X0513655Y0328264D01*
X0513655Y0328657D02*
X0517985Y0328657D01*
X0517985Y0329050D02*
X0513655Y0329050D01*
X0513655Y0329443D02*
X0517985Y0329443D01*
X0517985Y0329836D02*
X0513655Y0329836D01*
X0523891Y0326299D02*
X0528221Y0326299D01*
X0523891Y0326299D02*
X0523891Y0329841D01*
X0528221Y0329841D01*
X0528221Y0326299D01*
X0528221Y0326692D02*
X0523891Y0326692D01*
X0523891Y0327085D02*
X0528221Y0327085D01*
X0528221Y0327478D02*
X0523891Y0327478D01*
X0523891Y0327871D02*
X0528221Y0327871D01*
X0528221Y0328264D02*
X0523891Y0328264D01*
X0523891Y0328657D02*
X0528221Y0328657D01*
X0528221Y0329050D02*
X0523891Y0329050D01*
X0523891Y0329443D02*
X0528221Y0329443D01*
X0528221Y0329836D02*
X0523891Y0329836D01*
X0523891Y0245849D02*
X0528221Y0245849D01*
X0523891Y0245849D02*
X0523891Y0249391D01*
X0528221Y0249391D01*
X0528221Y0245849D01*
X0528221Y0246242D02*
X0523891Y0246242D01*
X0523891Y0246635D02*
X0528221Y0246635D01*
X0528221Y0247028D02*
X0523891Y0247028D01*
X0523891Y0247421D02*
X0528221Y0247421D01*
X0528221Y0247814D02*
X0523891Y0247814D01*
X0523891Y0248207D02*
X0528221Y0248207D01*
X0528221Y0248600D02*
X0523891Y0248600D01*
X0523891Y0248993D02*
X0528221Y0248993D01*
X0528221Y0249386D02*
X0523891Y0249386D01*
X0517985Y0245849D02*
X0513655Y0245849D01*
X0513655Y0249391D01*
X0517985Y0249391D01*
X0517985Y0245849D01*
X0517985Y0246242D02*
X0513655Y0246242D01*
X0513655Y0246635D02*
X0517985Y0246635D01*
X0517985Y0247028D02*
X0513655Y0247028D01*
X0513655Y0247421D02*
X0517985Y0247421D01*
X0517985Y0247814D02*
X0513655Y0247814D01*
X0513655Y0248207D02*
X0517985Y0248207D01*
X0517985Y0248600D02*
X0513655Y0248600D01*
X0513655Y0248993D02*
X0517985Y0248993D01*
X0517985Y0249386D02*
X0513655Y0249386D01*
X0522373Y0146799D02*
X0526309Y0146799D01*
X0522373Y0146799D02*
X0522373Y0150341D01*
X0526309Y0150341D01*
X0526309Y0146799D01*
X0526309Y0147192D02*
X0522373Y0147192D01*
X0522373Y0147585D02*
X0526309Y0147585D01*
X0526309Y0147978D02*
X0522373Y0147978D01*
X0522373Y0148371D02*
X0526309Y0148371D01*
X0526309Y0148764D02*
X0522373Y0148764D01*
X0522373Y0149157D02*
X0526309Y0149157D01*
X0526309Y0149550D02*
X0522373Y0149550D01*
X0522373Y0149943D02*
X0526309Y0149943D01*
X0526309Y0150336D02*
X0522373Y0150336D01*
X0529066Y0146799D02*
X0533002Y0146799D01*
X0529066Y0146799D02*
X0529066Y0150341D01*
X0533002Y0150341D01*
X0533002Y0146799D01*
X0533002Y0147192D02*
X0529066Y0147192D01*
X0529066Y0147585D02*
X0533002Y0147585D01*
X0533002Y0147978D02*
X0529066Y0147978D01*
X0529066Y0148371D02*
X0533002Y0148371D01*
X0533002Y0148764D02*
X0529066Y0148764D01*
X0529066Y0149157D02*
X0533002Y0149157D01*
X0533002Y0149550D02*
X0529066Y0149550D01*
X0529066Y0149943D02*
X0533002Y0149943D01*
X0533002Y0150336D02*
X0529066Y0150336D01*
X0509252Y0139249D02*
X0505316Y0139249D01*
X0505316Y0142791D01*
X0509252Y0142791D01*
X0509252Y0139249D01*
X0509252Y0139642D02*
X0505316Y0139642D01*
X0505316Y0140035D02*
X0509252Y0140035D01*
X0509252Y0140428D02*
X0505316Y0140428D01*
X0505316Y0140821D02*
X0509252Y0140821D01*
X0509252Y0141214D02*
X0505316Y0141214D01*
X0505316Y0141607D02*
X0509252Y0141607D01*
X0509252Y0142000D02*
X0505316Y0142000D01*
X0505316Y0142393D02*
X0509252Y0142393D01*
X0509252Y0142786D02*
X0505316Y0142786D01*
X0502559Y0139249D02*
X0498623Y0139249D01*
X0498623Y0142791D01*
X0502559Y0142791D01*
X0502559Y0139249D01*
X0502559Y0139642D02*
X0498623Y0139642D01*
X0498623Y0140035D02*
X0502559Y0140035D01*
X0502559Y0140428D02*
X0498623Y0140428D01*
X0498623Y0140821D02*
X0502559Y0140821D01*
X0502559Y0141214D02*
X0498623Y0141214D01*
X0498623Y0141607D02*
X0502559Y0141607D01*
X0502559Y0142000D02*
X0498623Y0142000D01*
X0498623Y0142393D02*
X0502559Y0142393D01*
X0502559Y0142786D02*
X0498623Y0142786D01*
X0498320Y0118622D02*
X0498320Y0117048D01*
X0498320Y0118622D02*
X0501862Y0118622D01*
X0501862Y0117048D01*
X0498320Y0117048D01*
X0498320Y0117441D02*
X0501862Y0117441D01*
X0501862Y0117834D02*
X0498320Y0117834D01*
X0498320Y0118227D02*
X0501862Y0118227D01*
X0501862Y0118620D02*
X0498320Y0118620D01*
X0498320Y0115078D02*
X0498320Y0113504D01*
X0498320Y0115078D02*
X0501862Y0115078D01*
X0501862Y0113504D01*
X0498320Y0113504D01*
X0498320Y0113897D02*
X0501862Y0113897D01*
X0501862Y0114290D02*
X0498320Y0114290D01*
X0498320Y0114683D02*
X0501862Y0114683D01*
X0501862Y0115076D02*
X0498320Y0115076D01*
X0498320Y0111535D02*
X0498320Y0109961D01*
X0498320Y0111535D02*
X0501862Y0111535D01*
X0501862Y0109961D01*
X0498320Y0109961D01*
X0498320Y0110354D02*
X0501862Y0110354D01*
X0501862Y0110747D02*
X0498320Y0110747D01*
X0498320Y0111140D02*
X0501862Y0111140D01*
X0501862Y0111533D02*
X0498320Y0111533D01*
X0498320Y0107992D02*
X0498320Y0106418D01*
X0498320Y0107992D02*
X0501862Y0107992D01*
X0501862Y0106418D01*
X0498320Y0106418D01*
X0498320Y0106811D02*
X0501862Y0106811D01*
X0501862Y0107204D02*
X0498320Y0107204D01*
X0498320Y0107597D02*
X0501862Y0107597D01*
X0501862Y0107990D02*
X0498320Y0107990D01*
X0505013Y0107992D02*
X0505013Y0106418D01*
X0505013Y0107992D02*
X0508555Y0107992D01*
X0508555Y0106418D01*
X0505013Y0106418D01*
X0505013Y0106811D02*
X0508555Y0106811D01*
X0508555Y0107204D02*
X0505013Y0107204D01*
X0505013Y0107597D02*
X0508555Y0107597D01*
X0508555Y0107990D02*
X0505013Y0107990D01*
X0505013Y0109961D02*
X0505013Y0111535D01*
X0508555Y0111535D01*
X0508555Y0109961D01*
X0505013Y0109961D01*
X0505013Y0110354D02*
X0508555Y0110354D01*
X0508555Y0110747D02*
X0505013Y0110747D01*
X0505013Y0111140D02*
X0508555Y0111140D01*
X0508555Y0111533D02*
X0505013Y0111533D01*
X0505013Y0113504D02*
X0505013Y0115078D01*
X0508555Y0115078D01*
X0508555Y0113504D01*
X0505013Y0113504D01*
X0505013Y0113897D02*
X0508555Y0113897D01*
X0508555Y0114290D02*
X0505013Y0114290D01*
X0505013Y0114683D02*
X0508555Y0114683D01*
X0508555Y0115076D02*
X0505013Y0115076D01*
X0505013Y0117048D02*
X0505013Y0118622D01*
X0508555Y0118622D01*
X0508555Y0117048D01*
X0505013Y0117048D01*
X0505013Y0117441D02*
X0508555Y0117441D01*
X0508555Y0117834D02*
X0505013Y0117834D01*
X0505013Y0118227D02*
X0508555Y0118227D01*
X0508555Y0118620D02*
X0505013Y0118620D01*
X0518373Y0119541D02*
X0522309Y0119541D01*
X0522309Y0115999D01*
X0518373Y0115999D01*
X0518373Y0119541D01*
X0518373Y0116392D02*
X0522309Y0116392D01*
X0522309Y0116785D02*
X0518373Y0116785D01*
X0518373Y0117178D02*
X0522309Y0117178D01*
X0522309Y0117571D02*
X0518373Y0117571D01*
X0518373Y0117964D02*
X0522309Y0117964D01*
X0522309Y0118357D02*
X0518373Y0118357D01*
X0518373Y0118750D02*
X0522309Y0118750D01*
X0522309Y0119143D02*
X0518373Y0119143D01*
X0518373Y0119536D02*
X0522309Y0119536D01*
X0525066Y0119541D02*
X0529002Y0119541D01*
X0529002Y0115999D01*
X0525066Y0115999D01*
X0525066Y0119541D01*
X0525066Y0116392D02*
X0529002Y0116392D01*
X0529002Y0116785D02*
X0525066Y0116785D01*
X0525066Y0117178D02*
X0529002Y0117178D01*
X0529002Y0117571D02*
X0525066Y0117571D01*
X0525066Y0117964D02*
X0529002Y0117964D01*
X0529002Y0118357D02*
X0525066Y0118357D01*
X0525066Y0118750D02*
X0529002Y0118750D01*
X0529002Y0119143D02*
X0525066Y0119143D01*
X0525066Y0119536D02*
X0529002Y0119536D01*
X0569586Y0110887D02*
X0571160Y0110887D01*
X0571160Y0107345D01*
X0569586Y0107345D01*
X0569586Y0110887D01*
X0569586Y0107738D02*
X0571160Y0107738D01*
X0571160Y0108131D02*
X0569586Y0108131D01*
X0569586Y0108524D02*
X0571160Y0108524D01*
X0571160Y0108917D02*
X0569586Y0108917D01*
X0569586Y0109310D02*
X0571160Y0109310D01*
X0571160Y0109703D02*
X0569586Y0109703D01*
X0569586Y0110096D02*
X0571160Y0110096D01*
X0571160Y0110489D02*
X0569586Y0110489D01*
X0569586Y0110882D02*
X0571160Y0110882D01*
X0573129Y0110887D02*
X0574703Y0110887D01*
X0574703Y0107345D01*
X0573129Y0107345D01*
X0573129Y0110887D01*
X0573129Y0107738D02*
X0574703Y0107738D01*
X0574703Y0108131D02*
X0573129Y0108131D01*
X0573129Y0108524D02*
X0574703Y0108524D01*
X0574703Y0108917D02*
X0573129Y0108917D01*
X0573129Y0109310D02*
X0574703Y0109310D01*
X0574703Y0109703D02*
X0573129Y0109703D01*
X0573129Y0110096D02*
X0574703Y0110096D01*
X0574703Y0110489D02*
X0573129Y0110489D01*
X0573129Y0110882D02*
X0574703Y0110882D01*
X0576672Y0110887D02*
X0578246Y0110887D01*
X0578246Y0107345D01*
X0576672Y0107345D01*
X0576672Y0110887D01*
X0576672Y0107738D02*
X0578246Y0107738D01*
X0578246Y0108131D02*
X0576672Y0108131D01*
X0576672Y0108524D02*
X0578246Y0108524D01*
X0578246Y0108917D02*
X0576672Y0108917D01*
X0576672Y0109310D02*
X0578246Y0109310D01*
X0578246Y0109703D02*
X0576672Y0109703D01*
X0576672Y0110096D02*
X0578246Y0110096D01*
X0578246Y0110489D02*
X0576672Y0110489D01*
X0576672Y0110882D02*
X0578246Y0110882D01*
X0580216Y0110887D02*
X0581790Y0110887D01*
X0581790Y0107345D01*
X0580216Y0107345D01*
X0580216Y0110887D01*
X0580216Y0107738D02*
X0581790Y0107738D01*
X0581790Y0108131D02*
X0580216Y0108131D01*
X0580216Y0108524D02*
X0581790Y0108524D01*
X0581790Y0108917D02*
X0580216Y0108917D01*
X0580216Y0109310D02*
X0581790Y0109310D01*
X0581790Y0109703D02*
X0580216Y0109703D01*
X0580216Y0110096D02*
X0581790Y0110096D01*
X0581790Y0110489D02*
X0580216Y0110489D01*
X0580216Y0110882D02*
X0581790Y0110882D01*
X0581790Y0104194D02*
X0580216Y0104194D01*
X0581790Y0104194D02*
X0581790Y0100652D01*
X0580216Y0100652D01*
X0580216Y0104194D01*
X0580216Y0101045D02*
X0581790Y0101045D01*
X0581790Y0101438D02*
X0580216Y0101438D01*
X0580216Y0101831D02*
X0581790Y0101831D01*
X0581790Y0102224D02*
X0580216Y0102224D01*
X0580216Y0102617D02*
X0581790Y0102617D01*
X0581790Y0103010D02*
X0580216Y0103010D01*
X0580216Y0103403D02*
X0581790Y0103403D01*
X0581790Y0103796D02*
X0580216Y0103796D01*
X0580216Y0104189D02*
X0581790Y0104189D01*
X0578246Y0104194D02*
X0576672Y0104194D01*
X0578246Y0104194D02*
X0578246Y0100652D01*
X0576672Y0100652D01*
X0576672Y0104194D01*
X0576672Y0101045D02*
X0578246Y0101045D01*
X0578246Y0101438D02*
X0576672Y0101438D01*
X0576672Y0101831D02*
X0578246Y0101831D01*
X0578246Y0102224D02*
X0576672Y0102224D01*
X0576672Y0102617D02*
X0578246Y0102617D01*
X0578246Y0103010D02*
X0576672Y0103010D01*
X0576672Y0103403D02*
X0578246Y0103403D01*
X0578246Y0103796D02*
X0576672Y0103796D01*
X0576672Y0104189D02*
X0578246Y0104189D01*
X0574703Y0104194D02*
X0573129Y0104194D01*
X0574703Y0104194D02*
X0574703Y0100652D01*
X0573129Y0100652D01*
X0573129Y0104194D01*
X0573129Y0101045D02*
X0574703Y0101045D01*
X0574703Y0101438D02*
X0573129Y0101438D01*
X0573129Y0101831D02*
X0574703Y0101831D01*
X0574703Y0102224D02*
X0573129Y0102224D01*
X0573129Y0102617D02*
X0574703Y0102617D01*
X0574703Y0103010D02*
X0573129Y0103010D01*
X0573129Y0103403D02*
X0574703Y0103403D01*
X0574703Y0103796D02*
X0573129Y0103796D01*
X0573129Y0104189D02*
X0574703Y0104189D01*
X0571160Y0104194D02*
X0569586Y0104194D01*
X0571160Y0104194D02*
X0571160Y0100652D01*
X0569586Y0100652D01*
X0569586Y0104194D01*
X0569586Y0101045D02*
X0571160Y0101045D01*
X0571160Y0101438D02*
X0569586Y0101438D01*
X0569586Y0101831D02*
X0571160Y0101831D01*
X0571160Y0102224D02*
X0569586Y0102224D01*
X0569586Y0102617D02*
X0571160Y0102617D01*
X0571160Y0103010D02*
X0569586Y0103010D01*
X0569586Y0103403D02*
X0571160Y0103403D01*
X0571160Y0103796D02*
X0569586Y0103796D01*
X0569586Y0104189D02*
X0571160Y0104189D01*
X0459502Y0106249D02*
X0455566Y0106249D01*
X0455566Y0109791D01*
X0459502Y0109791D01*
X0459502Y0106249D01*
X0459502Y0106642D02*
X0455566Y0106642D01*
X0455566Y0107035D02*
X0459502Y0107035D01*
X0459502Y0107428D02*
X0455566Y0107428D01*
X0455566Y0107821D02*
X0459502Y0107821D01*
X0459502Y0108214D02*
X0455566Y0108214D01*
X0455566Y0108607D02*
X0459502Y0108607D01*
X0459502Y0109000D02*
X0455566Y0109000D01*
X0455566Y0109393D02*
X0459502Y0109393D01*
X0459502Y0109786D02*
X0455566Y0109786D01*
X0452809Y0106249D02*
X0448873Y0106249D01*
X0448873Y0109791D01*
X0452809Y0109791D01*
X0452809Y0106249D01*
X0452809Y0106642D02*
X0448873Y0106642D01*
X0448873Y0107035D02*
X0452809Y0107035D01*
X0452809Y0107428D02*
X0448873Y0107428D01*
X0448873Y0107821D02*
X0452809Y0107821D01*
X0452809Y0108214D02*
X0448873Y0108214D01*
X0448873Y0108607D02*
X0452809Y0108607D01*
X0452809Y0109000D02*
X0448873Y0109000D01*
X0448873Y0109393D02*
X0452809Y0109393D01*
X0452809Y0109786D02*
X0448873Y0109786D01*
D15*
X0462958Y0108769D02*
X0468658Y0108769D01*
X0468658Y0106809D01*
X0462958Y0106809D01*
X0462958Y0108769D01*
X0462958Y0107210D02*
X0468658Y0107210D01*
X0468658Y0107611D02*
X0462958Y0107611D01*
X0462958Y0108012D02*
X0468658Y0108012D01*
X0468658Y0108413D02*
X0462958Y0108413D01*
X0462958Y0113769D02*
X0468658Y0113769D01*
X0468658Y0111809D01*
X0462958Y0111809D01*
X0462958Y0113769D01*
X0462958Y0112210D02*
X0468658Y0112210D01*
X0468658Y0112611D02*
X0462958Y0112611D01*
X0462958Y0113012D02*
X0468658Y0113012D01*
X0468658Y0113413D02*
X0462958Y0113413D01*
X0462958Y0118769D02*
X0468658Y0118769D01*
X0468658Y0116809D01*
X0462958Y0116809D01*
X0462958Y0118769D01*
X0462958Y0117210D02*
X0468658Y0117210D01*
X0468658Y0117611D02*
X0462958Y0117611D01*
X0462958Y0118012D02*
X0468658Y0118012D01*
X0468658Y0118413D02*
X0462958Y0118413D01*
X0462958Y0123769D02*
X0468658Y0123769D01*
X0468658Y0121809D01*
X0462958Y0121809D01*
X0462958Y0123769D01*
X0462958Y0122210D02*
X0468658Y0122210D01*
X0468658Y0122611D02*
X0462958Y0122611D01*
X0462958Y0123012D02*
X0468658Y0123012D01*
X0468658Y0123413D02*
X0462958Y0123413D01*
X0484218Y0123769D02*
X0489918Y0123769D01*
X0489918Y0121809D01*
X0484218Y0121809D01*
X0484218Y0123769D01*
X0484218Y0122210D02*
X0489918Y0122210D01*
X0489918Y0122611D02*
X0484218Y0122611D01*
X0484218Y0123012D02*
X0489918Y0123012D01*
X0489918Y0123413D02*
X0484218Y0123413D01*
X0484218Y0118769D02*
X0489918Y0118769D01*
X0489918Y0116809D01*
X0484218Y0116809D01*
X0484218Y0118769D01*
X0484218Y0117210D02*
X0489918Y0117210D01*
X0489918Y0117611D02*
X0484218Y0117611D01*
X0484218Y0118012D02*
X0489918Y0118012D01*
X0489918Y0118413D02*
X0484218Y0118413D01*
X0484218Y0113769D02*
X0489918Y0113769D01*
X0489918Y0111809D01*
X0484218Y0111809D01*
X0484218Y0113769D01*
X0484218Y0112210D02*
X0489918Y0112210D01*
X0489918Y0112611D02*
X0484218Y0112611D01*
X0484218Y0113012D02*
X0489918Y0113012D01*
X0489918Y0113413D02*
X0484218Y0113413D01*
X0484218Y0108769D02*
X0489918Y0108769D01*
X0489918Y0106809D01*
X0484218Y0106809D01*
X0484218Y0108769D01*
X0484218Y0107210D02*
X0489918Y0107210D01*
X0489918Y0107611D02*
X0484218Y0107611D01*
X0484218Y0108012D02*
X0489918Y0108012D01*
X0489918Y0108413D02*
X0484218Y0108413D01*
D16*
X0535136Y0118368D02*
X0535136Y0119072D01*
X0540540Y0119072D01*
X0540540Y0118368D01*
X0535136Y0118368D01*
X0535136Y0118763D02*
X0540540Y0118763D01*
X0535136Y0120268D02*
X0535136Y0120972D01*
X0540540Y0120972D01*
X0540540Y0120268D01*
X0535136Y0120268D01*
X0535136Y0120663D02*
X0540540Y0120663D01*
X0535136Y0122268D02*
X0535136Y0122972D01*
X0540540Y0122972D01*
X0540540Y0122268D01*
X0535136Y0122268D01*
X0535136Y0122663D02*
X0540540Y0122663D01*
X0535136Y0124268D02*
X0535136Y0124972D01*
X0540540Y0124972D01*
X0540540Y0124268D01*
X0535136Y0124268D01*
X0535136Y0124663D02*
X0540540Y0124663D01*
X0535136Y0126168D02*
X0535136Y0126872D01*
X0540540Y0126872D01*
X0540540Y0126168D01*
X0535136Y0126168D01*
X0535136Y0126563D02*
X0540540Y0126563D01*
X0535136Y0128168D02*
X0535136Y0128872D01*
X0540540Y0128872D01*
X0540540Y0128168D01*
X0535136Y0128168D01*
X0535136Y0128563D02*
X0540540Y0128563D01*
X0535136Y0130168D02*
X0535136Y0130872D01*
X0540540Y0130872D01*
X0540540Y0130168D01*
X0535136Y0130168D01*
X0535136Y0130563D02*
X0540540Y0130563D01*
X0535136Y0132168D02*
X0535136Y0132872D01*
X0540540Y0132872D01*
X0540540Y0132168D01*
X0535136Y0132168D01*
X0535136Y0132563D02*
X0540540Y0132563D01*
X0535136Y0134068D02*
X0535136Y0134772D01*
X0540540Y0134772D01*
X0540540Y0134068D01*
X0535136Y0134068D01*
X0535136Y0134463D02*
X0540540Y0134463D01*
X0535136Y0136068D02*
X0535136Y0136772D01*
X0540540Y0136772D01*
X0540540Y0136068D01*
X0535136Y0136068D01*
X0535136Y0136463D02*
X0540540Y0136463D01*
X0535136Y0138068D02*
X0535136Y0138772D01*
X0540540Y0138772D01*
X0540540Y0138068D01*
X0535136Y0138068D01*
X0535136Y0138463D02*
X0540540Y0138463D01*
X0535136Y0139968D02*
X0535136Y0140672D01*
X0540540Y0140672D01*
X0540540Y0139968D01*
X0535136Y0139968D01*
X0535136Y0140363D02*
X0540540Y0140363D01*
X0543286Y0148822D02*
X0543990Y0148822D01*
X0543990Y0143418D01*
X0543286Y0143418D01*
X0543286Y0148822D01*
X0543286Y0143813D02*
X0543990Y0143813D01*
X0543990Y0144208D02*
X0543286Y0144208D01*
X0543286Y0144603D02*
X0543990Y0144603D01*
X0543990Y0144998D02*
X0543286Y0144998D01*
X0543286Y0145393D02*
X0543990Y0145393D01*
X0543990Y0145788D02*
X0543286Y0145788D01*
X0543286Y0146183D02*
X0543990Y0146183D01*
X0543990Y0146578D02*
X0543286Y0146578D01*
X0543286Y0146973D02*
X0543990Y0146973D01*
X0543990Y0147368D02*
X0543286Y0147368D01*
X0543286Y0147763D02*
X0543990Y0147763D01*
X0543990Y0148158D02*
X0543286Y0148158D01*
X0543286Y0148553D02*
X0543990Y0148553D01*
X0545186Y0148822D02*
X0545890Y0148822D01*
X0545890Y0143418D01*
X0545186Y0143418D01*
X0545186Y0148822D01*
X0545186Y0143813D02*
X0545890Y0143813D01*
X0545890Y0144208D02*
X0545186Y0144208D01*
X0545186Y0144603D02*
X0545890Y0144603D01*
X0545890Y0144998D02*
X0545186Y0144998D01*
X0545186Y0145393D02*
X0545890Y0145393D01*
X0545890Y0145788D02*
X0545186Y0145788D01*
X0545186Y0146183D02*
X0545890Y0146183D01*
X0545890Y0146578D02*
X0545186Y0146578D01*
X0545186Y0146973D02*
X0545890Y0146973D01*
X0545890Y0147368D02*
X0545186Y0147368D01*
X0545186Y0147763D02*
X0545890Y0147763D01*
X0545890Y0148158D02*
X0545186Y0148158D01*
X0545186Y0148553D02*
X0545890Y0148553D01*
X0547186Y0148822D02*
X0547890Y0148822D01*
X0547890Y0143418D01*
X0547186Y0143418D01*
X0547186Y0148822D01*
X0547186Y0143813D02*
X0547890Y0143813D01*
X0547890Y0144208D02*
X0547186Y0144208D01*
X0547186Y0144603D02*
X0547890Y0144603D01*
X0547890Y0144998D02*
X0547186Y0144998D01*
X0547186Y0145393D02*
X0547890Y0145393D01*
X0547890Y0145788D02*
X0547186Y0145788D01*
X0547186Y0146183D02*
X0547890Y0146183D01*
X0547890Y0146578D02*
X0547186Y0146578D01*
X0547186Y0146973D02*
X0547890Y0146973D01*
X0547890Y0147368D02*
X0547186Y0147368D01*
X0547186Y0147763D02*
X0547890Y0147763D01*
X0547890Y0148158D02*
X0547186Y0148158D01*
X0547186Y0148553D02*
X0547890Y0148553D01*
X0549186Y0148822D02*
X0549890Y0148822D01*
X0549890Y0143418D01*
X0549186Y0143418D01*
X0549186Y0148822D01*
X0549186Y0143813D02*
X0549890Y0143813D01*
X0549890Y0144208D02*
X0549186Y0144208D01*
X0549186Y0144603D02*
X0549890Y0144603D01*
X0549890Y0144998D02*
X0549186Y0144998D01*
X0549186Y0145393D02*
X0549890Y0145393D01*
X0549890Y0145788D02*
X0549186Y0145788D01*
X0549186Y0146183D02*
X0549890Y0146183D01*
X0549890Y0146578D02*
X0549186Y0146578D01*
X0549186Y0146973D02*
X0549890Y0146973D01*
X0549890Y0147368D02*
X0549186Y0147368D01*
X0549186Y0147763D02*
X0549890Y0147763D01*
X0549890Y0148158D02*
X0549186Y0148158D01*
X0549186Y0148553D02*
X0549890Y0148553D01*
X0551086Y0148822D02*
X0551790Y0148822D01*
X0551790Y0143418D01*
X0551086Y0143418D01*
X0551086Y0148822D01*
X0551086Y0143813D02*
X0551790Y0143813D01*
X0551790Y0144208D02*
X0551086Y0144208D01*
X0551086Y0144603D02*
X0551790Y0144603D01*
X0551790Y0144998D02*
X0551086Y0144998D01*
X0551086Y0145393D02*
X0551790Y0145393D01*
X0551790Y0145788D02*
X0551086Y0145788D01*
X0551086Y0146183D02*
X0551790Y0146183D01*
X0551790Y0146578D02*
X0551086Y0146578D01*
X0551086Y0146973D02*
X0551790Y0146973D01*
X0551790Y0147368D02*
X0551086Y0147368D01*
X0551086Y0147763D02*
X0551790Y0147763D01*
X0551790Y0148158D02*
X0551086Y0148158D01*
X0551086Y0148553D02*
X0551790Y0148553D01*
X0553086Y0148822D02*
X0553790Y0148822D01*
X0553790Y0143418D01*
X0553086Y0143418D01*
X0553086Y0148822D01*
X0553086Y0143813D02*
X0553790Y0143813D01*
X0553790Y0144208D02*
X0553086Y0144208D01*
X0553086Y0144603D02*
X0553790Y0144603D01*
X0553790Y0144998D02*
X0553086Y0144998D01*
X0553086Y0145393D02*
X0553790Y0145393D01*
X0553790Y0145788D02*
X0553086Y0145788D01*
X0553086Y0146183D02*
X0553790Y0146183D01*
X0553790Y0146578D02*
X0553086Y0146578D01*
X0553086Y0146973D02*
X0553790Y0146973D01*
X0553790Y0147368D02*
X0553086Y0147368D01*
X0553086Y0147763D02*
X0553790Y0147763D01*
X0553790Y0148158D02*
X0553086Y0148158D01*
X0553086Y0148553D02*
X0553790Y0148553D01*
X0555086Y0148822D02*
X0555790Y0148822D01*
X0555790Y0143418D01*
X0555086Y0143418D01*
X0555086Y0148822D01*
X0555086Y0143813D02*
X0555790Y0143813D01*
X0555790Y0144208D02*
X0555086Y0144208D01*
X0555086Y0144603D02*
X0555790Y0144603D01*
X0555790Y0144998D02*
X0555086Y0144998D01*
X0555086Y0145393D02*
X0555790Y0145393D01*
X0555790Y0145788D02*
X0555086Y0145788D01*
X0555086Y0146183D02*
X0555790Y0146183D01*
X0555790Y0146578D02*
X0555086Y0146578D01*
X0555086Y0146973D02*
X0555790Y0146973D01*
X0555790Y0147368D02*
X0555086Y0147368D01*
X0555086Y0147763D02*
X0555790Y0147763D01*
X0555790Y0148158D02*
X0555086Y0148158D01*
X0555086Y0148553D02*
X0555790Y0148553D01*
X0557086Y0148822D02*
X0557790Y0148822D01*
X0557790Y0143418D01*
X0557086Y0143418D01*
X0557086Y0148822D01*
X0557086Y0143813D02*
X0557790Y0143813D01*
X0557790Y0144208D02*
X0557086Y0144208D01*
X0557086Y0144603D02*
X0557790Y0144603D01*
X0557790Y0144998D02*
X0557086Y0144998D01*
X0557086Y0145393D02*
X0557790Y0145393D01*
X0557790Y0145788D02*
X0557086Y0145788D01*
X0557086Y0146183D02*
X0557790Y0146183D01*
X0557790Y0146578D02*
X0557086Y0146578D01*
X0557086Y0146973D02*
X0557790Y0146973D01*
X0557790Y0147368D02*
X0557086Y0147368D01*
X0557086Y0147763D02*
X0557790Y0147763D01*
X0557790Y0148158D02*
X0557086Y0148158D01*
X0557086Y0148553D02*
X0557790Y0148553D01*
X0558986Y0148822D02*
X0559690Y0148822D01*
X0559690Y0143418D01*
X0558986Y0143418D01*
X0558986Y0148822D01*
X0558986Y0143813D02*
X0559690Y0143813D01*
X0559690Y0144208D02*
X0558986Y0144208D01*
X0558986Y0144603D02*
X0559690Y0144603D01*
X0559690Y0144998D02*
X0558986Y0144998D01*
X0558986Y0145393D02*
X0559690Y0145393D01*
X0559690Y0145788D02*
X0558986Y0145788D01*
X0558986Y0146183D02*
X0559690Y0146183D01*
X0559690Y0146578D02*
X0558986Y0146578D01*
X0558986Y0146973D02*
X0559690Y0146973D01*
X0559690Y0147368D02*
X0558986Y0147368D01*
X0558986Y0147763D02*
X0559690Y0147763D01*
X0559690Y0148158D02*
X0558986Y0148158D01*
X0558986Y0148553D02*
X0559690Y0148553D01*
X0560986Y0148822D02*
X0561690Y0148822D01*
X0561690Y0143418D01*
X0560986Y0143418D01*
X0560986Y0148822D01*
X0560986Y0143813D02*
X0561690Y0143813D01*
X0561690Y0144208D02*
X0560986Y0144208D01*
X0560986Y0144603D02*
X0561690Y0144603D01*
X0561690Y0144998D02*
X0560986Y0144998D01*
X0560986Y0145393D02*
X0561690Y0145393D01*
X0561690Y0145788D02*
X0560986Y0145788D01*
X0560986Y0146183D02*
X0561690Y0146183D01*
X0561690Y0146578D02*
X0560986Y0146578D01*
X0560986Y0146973D02*
X0561690Y0146973D01*
X0561690Y0147368D02*
X0560986Y0147368D01*
X0560986Y0147763D02*
X0561690Y0147763D01*
X0561690Y0148158D02*
X0560986Y0148158D01*
X0560986Y0148553D02*
X0561690Y0148553D01*
X0562986Y0148822D02*
X0563690Y0148822D01*
X0563690Y0143418D01*
X0562986Y0143418D01*
X0562986Y0148822D01*
X0562986Y0143813D02*
X0563690Y0143813D01*
X0563690Y0144208D02*
X0562986Y0144208D01*
X0562986Y0144603D02*
X0563690Y0144603D01*
X0563690Y0144998D02*
X0562986Y0144998D01*
X0562986Y0145393D02*
X0563690Y0145393D01*
X0563690Y0145788D02*
X0562986Y0145788D01*
X0562986Y0146183D02*
X0563690Y0146183D01*
X0563690Y0146578D02*
X0562986Y0146578D01*
X0562986Y0146973D02*
X0563690Y0146973D01*
X0563690Y0147368D02*
X0562986Y0147368D01*
X0562986Y0147763D02*
X0563690Y0147763D01*
X0563690Y0148158D02*
X0562986Y0148158D01*
X0562986Y0148553D02*
X0563690Y0148553D01*
X0564886Y0148822D02*
X0565590Y0148822D01*
X0565590Y0143418D01*
X0564886Y0143418D01*
X0564886Y0148822D01*
X0564886Y0143813D02*
X0565590Y0143813D01*
X0565590Y0144208D02*
X0564886Y0144208D01*
X0564886Y0144603D02*
X0565590Y0144603D01*
X0565590Y0144998D02*
X0564886Y0144998D01*
X0564886Y0145393D02*
X0565590Y0145393D01*
X0565590Y0145788D02*
X0564886Y0145788D01*
X0564886Y0146183D02*
X0565590Y0146183D01*
X0565590Y0146578D02*
X0564886Y0146578D01*
X0564886Y0146973D02*
X0565590Y0146973D01*
X0565590Y0147368D02*
X0564886Y0147368D01*
X0564886Y0147763D02*
X0565590Y0147763D01*
X0565590Y0148158D02*
X0564886Y0148158D01*
X0564886Y0148553D02*
X0565590Y0148553D01*
X0568336Y0140672D02*
X0568336Y0139968D01*
X0568336Y0140672D02*
X0573740Y0140672D01*
X0573740Y0139968D01*
X0568336Y0139968D01*
X0568336Y0140363D02*
X0573740Y0140363D01*
X0568336Y0138772D02*
X0568336Y0138068D01*
X0568336Y0138772D02*
X0573740Y0138772D01*
X0573740Y0138068D01*
X0568336Y0138068D01*
X0568336Y0138463D02*
X0573740Y0138463D01*
X0568336Y0136772D02*
X0568336Y0136068D01*
X0568336Y0136772D02*
X0573740Y0136772D01*
X0573740Y0136068D01*
X0568336Y0136068D01*
X0568336Y0136463D02*
X0573740Y0136463D01*
X0568336Y0134772D02*
X0568336Y0134068D01*
X0568336Y0134772D02*
X0573740Y0134772D01*
X0573740Y0134068D01*
X0568336Y0134068D01*
X0568336Y0134463D02*
X0573740Y0134463D01*
X0568336Y0132872D02*
X0568336Y0132168D01*
X0568336Y0132872D02*
X0573740Y0132872D01*
X0573740Y0132168D01*
X0568336Y0132168D01*
X0568336Y0132563D02*
X0573740Y0132563D01*
X0568336Y0130872D02*
X0568336Y0130168D01*
X0568336Y0130872D02*
X0573740Y0130872D01*
X0573740Y0130168D01*
X0568336Y0130168D01*
X0568336Y0130563D02*
X0573740Y0130563D01*
X0568336Y0128872D02*
X0568336Y0128168D01*
X0568336Y0128872D02*
X0573740Y0128872D01*
X0573740Y0128168D01*
X0568336Y0128168D01*
X0568336Y0128563D02*
X0573740Y0128563D01*
X0568336Y0126872D02*
X0568336Y0126168D01*
X0568336Y0126872D02*
X0573740Y0126872D01*
X0573740Y0126168D01*
X0568336Y0126168D01*
X0568336Y0126563D02*
X0573740Y0126563D01*
X0568336Y0124972D02*
X0568336Y0124268D01*
X0568336Y0124972D02*
X0573740Y0124972D01*
X0573740Y0124268D01*
X0568336Y0124268D01*
X0568336Y0124663D02*
X0573740Y0124663D01*
X0568336Y0122972D02*
X0568336Y0122268D01*
X0568336Y0122972D02*
X0573740Y0122972D01*
X0573740Y0122268D01*
X0568336Y0122268D01*
X0568336Y0122663D02*
X0573740Y0122663D01*
X0568336Y0120972D02*
X0568336Y0120268D01*
X0568336Y0120972D02*
X0573740Y0120972D01*
X0573740Y0120268D01*
X0568336Y0120268D01*
X0568336Y0120663D02*
X0573740Y0120663D01*
X0568336Y0119072D02*
X0568336Y0118368D01*
X0568336Y0119072D02*
X0573740Y0119072D01*
X0573740Y0118368D01*
X0568336Y0118368D01*
X0568336Y0118763D02*
X0573740Y0118763D01*
X0565590Y0115622D02*
X0564886Y0115622D01*
X0565590Y0115622D02*
X0565590Y0110218D01*
X0564886Y0110218D01*
X0564886Y0115622D01*
X0564886Y0110613D02*
X0565590Y0110613D01*
X0565590Y0111008D02*
X0564886Y0111008D01*
X0564886Y0111403D02*
X0565590Y0111403D01*
X0565590Y0111798D02*
X0564886Y0111798D01*
X0564886Y0112193D02*
X0565590Y0112193D01*
X0565590Y0112588D02*
X0564886Y0112588D01*
X0564886Y0112983D02*
X0565590Y0112983D01*
X0565590Y0113378D02*
X0564886Y0113378D01*
X0564886Y0113773D02*
X0565590Y0113773D01*
X0565590Y0114168D02*
X0564886Y0114168D01*
X0564886Y0114563D02*
X0565590Y0114563D01*
X0565590Y0114958D02*
X0564886Y0114958D01*
X0564886Y0115353D02*
X0565590Y0115353D01*
X0563690Y0115622D02*
X0562986Y0115622D01*
X0563690Y0115622D02*
X0563690Y0110218D01*
X0562986Y0110218D01*
X0562986Y0115622D01*
X0562986Y0110613D02*
X0563690Y0110613D01*
X0563690Y0111008D02*
X0562986Y0111008D01*
X0562986Y0111403D02*
X0563690Y0111403D01*
X0563690Y0111798D02*
X0562986Y0111798D01*
X0562986Y0112193D02*
X0563690Y0112193D01*
X0563690Y0112588D02*
X0562986Y0112588D01*
X0562986Y0112983D02*
X0563690Y0112983D01*
X0563690Y0113378D02*
X0562986Y0113378D01*
X0562986Y0113773D02*
X0563690Y0113773D01*
X0563690Y0114168D02*
X0562986Y0114168D01*
X0562986Y0114563D02*
X0563690Y0114563D01*
X0563690Y0114958D02*
X0562986Y0114958D01*
X0562986Y0115353D02*
X0563690Y0115353D01*
X0561690Y0115622D02*
X0560986Y0115622D01*
X0561690Y0115622D02*
X0561690Y0110218D01*
X0560986Y0110218D01*
X0560986Y0115622D01*
X0560986Y0110613D02*
X0561690Y0110613D01*
X0561690Y0111008D02*
X0560986Y0111008D01*
X0560986Y0111403D02*
X0561690Y0111403D01*
X0561690Y0111798D02*
X0560986Y0111798D01*
X0560986Y0112193D02*
X0561690Y0112193D01*
X0561690Y0112588D02*
X0560986Y0112588D01*
X0560986Y0112983D02*
X0561690Y0112983D01*
X0561690Y0113378D02*
X0560986Y0113378D01*
X0560986Y0113773D02*
X0561690Y0113773D01*
X0561690Y0114168D02*
X0560986Y0114168D01*
X0560986Y0114563D02*
X0561690Y0114563D01*
X0561690Y0114958D02*
X0560986Y0114958D01*
X0560986Y0115353D02*
X0561690Y0115353D01*
X0559690Y0115622D02*
X0558986Y0115622D01*
X0559690Y0115622D02*
X0559690Y0110218D01*
X0558986Y0110218D01*
X0558986Y0115622D01*
X0558986Y0110613D02*
X0559690Y0110613D01*
X0559690Y0111008D02*
X0558986Y0111008D01*
X0558986Y0111403D02*
X0559690Y0111403D01*
X0559690Y0111798D02*
X0558986Y0111798D01*
X0558986Y0112193D02*
X0559690Y0112193D01*
X0559690Y0112588D02*
X0558986Y0112588D01*
X0558986Y0112983D02*
X0559690Y0112983D01*
X0559690Y0113378D02*
X0558986Y0113378D01*
X0558986Y0113773D02*
X0559690Y0113773D01*
X0559690Y0114168D02*
X0558986Y0114168D01*
X0558986Y0114563D02*
X0559690Y0114563D01*
X0559690Y0114958D02*
X0558986Y0114958D01*
X0558986Y0115353D02*
X0559690Y0115353D01*
X0557790Y0115622D02*
X0557086Y0115622D01*
X0557790Y0115622D02*
X0557790Y0110218D01*
X0557086Y0110218D01*
X0557086Y0115622D01*
X0557086Y0110613D02*
X0557790Y0110613D01*
X0557790Y0111008D02*
X0557086Y0111008D01*
X0557086Y0111403D02*
X0557790Y0111403D01*
X0557790Y0111798D02*
X0557086Y0111798D01*
X0557086Y0112193D02*
X0557790Y0112193D01*
X0557790Y0112588D02*
X0557086Y0112588D01*
X0557086Y0112983D02*
X0557790Y0112983D01*
X0557790Y0113378D02*
X0557086Y0113378D01*
X0557086Y0113773D02*
X0557790Y0113773D01*
X0557790Y0114168D02*
X0557086Y0114168D01*
X0557086Y0114563D02*
X0557790Y0114563D01*
X0557790Y0114958D02*
X0557086Y0114958D01*
X0557086Y0115353D02*
X0557790Y0115353D01*
X0555790Y0115622D02*
X0555086Y0115622D01*
X0555790Y0115622D02*
X0555790Y0110218D01*
X0555086Y0110218D01*
X0555086Y0115622D01*
X0555086Y0110613D02*
X0555790Y0110613D01*
X0555790Y0111008D02*
X0555086Y0111008D01*
X0555086Y0111403D02*
X0555790Y0111403D01*
X0555790Y0111798D02*
X0555086Y0111798D01*
X0555086Y0112193D02*
X0555790Y0112193D01*
X0555790Y0112588D02*
X0555086Y0112588D01*
X0555086Y0112983D02*
X0555790Y0112983D01*
X0555790Y0113378D02*
X0555086Y0113378D01*
X0555086Y0113773D02*
X0555790Y0113773D01*
X0555790Y0114168D02*
X0555086Y0114168D01*
X0555086Y0114563D02*
X0555790Y0114563D01*
X0555790Y0114958D02*
X0555086Y0114958D01*
X0555086Y0115353D02*
X0555790Y0115353D01*
X0553790Y0115622D02*
X0553086Y0115622D01*
X0553790Y0115622D02*
X0553790Y0110218D01*
X0553086Y0110218D01*
X0553086Y0115622D01*
X0553086Y0110613D02*
X0553790Y0110613D01*
X0553790Y0111008D02*
X0553086Y0111008D01*
X0553086Y0111403D02*
X0553790Y0111403D01*
X0553790Y0111798D02*
X0553086Y0111798D01*
X0553086Y0112193D02*
X0553790Y0112193D01*
X0553790Y0112588D02*
X0553086Y0112588D01*
X0553086Y0112983D02*
X0553790Y0112983D01*
X0553790Y0113378D02*
X0553086Y0113378D01*
X0553086Y0113773D02*
X0553790Y0113773D01*
X0553790Y0114168D02*
X0553086Y0114168D01*
X0553086Y0114563D02*
X0553790Y0114563D01*
X0553790Y0114958D02*
X0553086Y0114958D01*
X0553086Y0115353D02*
X0553790Y0115353D01*
X0551790Y0115622D02*
X0551086Y0115622D01*
X0551790Y0115622D02*
X0551790Y0110218D01*
X0551086Y0110218D01*
X0551086Y0115622D01*
X0551086Y0110613D02*
X0551790Y0110613D01*
X0551790Y0111008D02*
X0551086Y0111008D01*
X0551086Y0111403D02*
X0551790Y0111403D01*
X0551790Y0111798D02*
X0551086Y0111798D01*
X0551086Y0112193D02*
X0551790Y0112193D01*
X0551790Y0112588D02*
X0551086Y0112588D01*
X0551086Y0112983D02*
X0551790Y0112983D01*
X0551790Y0113378D02*
X0551086Y0113378D01*
X0551086Y0113773D02*
X0551790Y0113773D01*
X0551790Y0114168D02*
X0551086Y0114168D01*
X0551086Y0114563D02*
X0551790Y0114563D01*
X0551790Y0114958D02*
X0551086Y0114958D01*
X0551086Y0115353D02*
X0551790Y0115353D01*
X0549890Y0115622D02*
X0549186Y0115622D01*
X0549890Y0115622D02*
X0549890Y0110218D01*
X0549186Y0110218D01*
X0549186Y0115622D01*
X0549186Y0110613D02*
X0549890Y0110613D01*
X0549890Y0111008D02*
X0549186Y0111008D01*
X0549186Y0111403D02*
X0549890Y0111403D01*
X0549890Y0111798D02*
X0549186Y0111798D01*
X0549186Y0112193D02*
X0549890Y0112193D01*
X0549890Y0112588D02*
X0549186Y0112588D01*
X0549186Y0112983D02*
X0549890Y0112983D01*
X0549890Y0113378D02*
X0549186Y0113378D01*
X0549186Y0113773D02*
X0549890Y0113773D01*
X0549890Y0114168D02*
X0549186Y0114168D01*
X0549186Y0114563D02*
X0549890Y0114563D01*
X0549890Y0114958D02*
X0549186Y0114958D01*
X0549186Y0115353D02*
X0549890Y0115353D01*
X0547890Y0115622D02*
X0547186Y0115622D01*
X0547890Y0115622D02*
X0547890Y0110218D01*
X0547186Y0110218D01*
X0547186Y0115622D01*
X0547186Y0110613D02*
X0547890Y0110613D01*
X0547890Y0111008D02*
X0547186Y0111008D01*
X0547186Y0111403D02*
X0547890Y0111403D01*
X0547890Y0111798D02*
X0547186Y0111798D01*
X0547186Y0112193D02*
X0547890Y0112193D01*
X0547890Y0112588D02*
X0547186Y0112588D01*
X0547186Y0112983D02*
X0547890Y0112983D01*
X0547890Y0113378D02*
X0547186Y0113378D01*
X0547186Y0113773D02*
X0547890Y0113773D01*
X0547890Y0114168D02*
X0547186Y0114168D01*
X0547186Y0114563D02*
X0547890Y0114563D01*
X0547890Y0114958D02*
X0547186Y0114958D01*
X0547186Y0115353D02*
X0547890Y0115353D01*
X0545890Y0115622D02*
X0545186Y0115622D01*
X0545890Y0115622D02*
X0545890Y0110218D01*
X0545186Y0110218D01*
X0545186Y0115622D01*
X0545186Y0110613D02*
X0545890Y0110613D01*
X0545890Y0111008D02*
X0545186Y0111008D01*
X0545186Y0111403D02*
X0545890Y0111403D01*
X0545890Y0111798D02*
X0545186Y0111798D01*
X0545186Y0112193D02*
X0545890Y0112193D01*
X0545890Y0112588D02*
X0545186Y0112588D01*
X0545186Y0112983D02*
X0545890Y0112983D01*
X0545890Y0113378D02*
X0545186Y0113378D01*
X0545186Y0113773D02*
X0545890Y0113773D01*
X0545890Y0114168D02*
X0545186Y0114168D01*
X0545186Y0114563D02*
X0545890Y0114563D01*
X0545890Y0114958D02*
X0545186Y0114958D01*
X0545186Y0115353D02*
X0545890Y0115353D01*
X0543990Y0115622D02*
X0543286Y0115622D01*
X0543990Y0115622D02*
X0543990Y0110218D01*
X0543286Y0110218D01*
X0543286Y0115622D01*
X0543286Y0110613D02*
X0543990Y0110613D01*
X0543990Y0111008D02*
X0543286Y0111008D01*
X0543286Y0111403D02*
X0543990Y0111403D01*
X0543990Y0111798D02*
X0543286Y0111798D01*
X0543286Y0112193D02*
X0543990Y0112193D01*
X0543990Y0112588D02*
X0543286Y0112588D01*
X0543286Y0112983D02*
X0543990Y0112983D01*
X0543990Y0113378D02*
X0543286Y0113378D01*
X0543286Y0113773D02*
X0543990Y0113773D01*
X0543990Y0114168D02*
X0543286Y0114168D01*
X0543286Y0114563D02*
X0543990Y0114563D01*
X0543990Y0114958D02*
X0543286Y0114958D01*
X0543286Y0115353D02*
X0543990Y0115353D01*
X0530340Y0201422D02*
X0521736Y0201422D01*
X0530340Y0201422D02*
X0530340Y0199618D01*
X0521736Y0199618D01*
X0521736Y0201422D01*
X0521736Y0200013D02*
X0530340Y0200013D01*
X0530340Y0200408D02*
X0521736Y0200408D01*
X0521736Y0200803D02*
X0530340Y0200803D01*
X0530340Y0201198D02*
X0521736Y0201198D01*
X0521736Y0206422D02*
X0530340Y0206422D01*
X0530340Y0204618D01*
X0521736Y0204618D01*
X0521736Y0206422D01*
X0521736Y0205013D02*
X0530340Y0205013D01*
X0530340Y0205408D02*
X0521736Y0205408D01*
X0521736Y0205803D02*
X0530340Y0205803D01*
X0530340Y0206198D02*
X0521736Y0206198D01*
X0521736Y0211422D02*
X0530340Y0211422D01*
X0530340Y0209618D01*
X0521736Y0209618D01*
X0521736Y0211422D01*
X0521736Y0210013D02*
X0530340Y0210013D01*
X0530340Y0210408D02*
X0521736Y0210408D01*
X0521736Y0210803D02*
X0530340Y0210803D01*
X0530340Y0211198D02*
X0521736Y0211198D01*
X0521736Y0216422D02*
X0530340Y0216422D01*
X0530340Y0214618D01*
X0521736Y0214618D01*
X0521736Y0216422D01*
X0521736Y0215013D02*
X0530340Y0215013D01*
X0530340Y0215408D02*
X0521736Y0215408D01*
X0521736Y0215803D02*
X0530340Y0215803D01*
X0530340Y0216198D02*
X0521736Y0216198D01*
X0521736Y0221422D02*
X0530340Y0221422D01*
X0530340Y0219618D01*
X0521736Y0219618D01*
X0521736Y0221422D01*
X0521736Y0220013D02*
X0530340Y0220013D01*
X0530340Y0220408D02*
X0521736Y0220408D01*
X0521736Y0220803D02*
X0530340Y0220803D01*
X0530340Y0221198D02*
X0521736Y0221198D01*
X0521736Y0226422D02*
X0530340Y0226422D01*
X0530340Y0224618D01*
X0521736Y0224618D01*
X0521736Y0226422D01*
X0521736Y0225013D02*
X0530340Y0225013D01*
X0530340Y0225408D02*
X0521736Y0225408D01*
X0521736Y0225803D02*
X0530340Y0225803D01*
X0530340Y0226198D02*
X0521736Y0226198D01*
X0521736Y0231422D02*
X0530340Y0231422D01*
X0530340Y0229618D01*
X0521736Y0229618D01*
X0521736Y0231422D01*
X0521736Y0230013D02*
X0530340Y0230013D01*
X0530340Y0230408D02*
X0521736Y0230408D01*
X0521736Y0230803D02*
X0530340Y0230803D01*
X0530340Y0231198D02*
X0521736Y0231198D01*
X0521736Y0236422D02*
X0530340Y0236422D01*
X0530340Y0234618D01*
X0521736Y0234618D01*
X0521736Y0236422D01*
X0521736Y0235013D02*
X0530340Y0235013D01*
X0530340Y0235408D02*
X0521736Y0235408D01*
X0521736Y0235803D02*
X0530340Y0235803D01*
X0530340Y0236198D02*
X0521736Y0236198D01*
X0521736Y0241422D02*
X0530340Y0241422D01*
X0530340Y0239618D01*
X0521736Y0239618D01*
X0521736Y0241422D01*
X0521736Y0240013D02*
X0530340Y0240013D01*
X0530340Y0240408D02*
X0521736Y0240408D01*
X0521736Y0240803D02*
X0530340Y0240803D01*
X0530340Y0241198D02*
X0521736Y0241198D01*
X0559036Y0241422D02*
X0567640Y0241422D01*
X0567640Y0239618D01*
X0559036Y0239618D01*
X0559036Y0241422D01*
X0559036Y0240013D02*
X0567640Y0240013D01*
X0567640Y0240408D02*
X0559036Y0240408D01*
X0559036Y0240803D02*
X0567640Y0240803D01*
X0567640Y0241198D02*
X0559036Y0241198D01*
X0559036Y0236422D02*
X0567640Y0236422D01*
X0567640Y0234618D01*
X0559036Y0234618D01*
X0559036Y0236422D01*
X0559036Y0235013D02*
X0567640Y0235013D01*
X0567640Y0235408D02*
X0559036Y0235408D01*
X0559036Y0235803D02*
X0567640Y0235803D01*
X0567640Y0236198D02*
X0559036Y0236198D01*
X0559036Y0231422D02*
X0567640Y0231422D01*
X0567640Y0229618D01*
X0559036Y0229618D01*
X0559036Y0231422D01*
X0559036Y0230013D02*
X0567640Y0230013D01*
X0567640Y0230408D02*
X0559036Y0230408D01*
X0559036Y0230803D02*
X0567640Y0230803D01*
X0567640Y0231198D02*
X0559036Y0231198D01*
X0559036Y0226422D02*
X0567640Y0226422D01*
X0567640Y0224618D01*
X0559036Y0224618D01*
X0559036Y0226422D01*
X0559036Y0225013D02*
X0567640Y0225013D01*
X0567640Y0225408D02*
X0559036Y0225408D01*
X0559036Y0225803D02*
X0567640Y0225803D01*
X0567640Y0226198D02*
X0559036Y0226198D01*
X0559036Y0221422D02*
X0567640Y0221422D01*
X0567640Y0219618D01*
X0559036Y0219618D01*
X0559036Y0221422D01*
X0559036Y0220013D02*
X0567640Y0220013D01*
X0567640Y0220408D02*
X0559036Y0220408D01*
X0559036Y0220803D02*
X0567640Y0220803D01*
X0567640Y0221198D02*
X0559036Y0221198D01*
X0559036Y0216422D02*
X0567640Y0216422D01*
X0567640Y0214618D01*
X0559036Y0214618D01*
X0559036Y0216422D01*
X0559036Y0215013D02*
X0567640Y0215013D01*
X0567640Y0215408D02*
X0559036Y0215408D01*
X0559036Y0215803D02*
X0567640Y0215803D01*
X0567640Y0216198D02*
X0559036Y0216198D01*
X0559036Y0211422D02*
X0567640Y0211422D01*
X0567640Y0209618D01*
X0559036Y0209618D01*
X0559036Y0211422D01*
X0559036Y0210013D02*
X0567640Y0210013D01*
X0567640Y0210408D02*
X0559036Y0210408D01*
X0559036Y0210803D02*
X0567640Y0210803D01*
X0567640Y0211198D02*
X0559036Y0211198D01*
X0559036Y0206422D02*
X0567640Y0206422D01*
X0567640Y0204618D01*
X0559036Y0204618D01*
X0559036Y0206422D01*
X0559036Y0205013D02*
X0567640Y0205013D01*
X0567640Y0205408D02*
X0559036Y0205408D01*
X0559036Y0205803D02*
X0567640Y0205803D01*
X0567640Y0206198D02*
X0559036Y0206198D01*
X0559036Y0201422D02*
X0567640Y0201422D01*
X0567640Y0199618D01*
X0559036Y0199618D01*
X0559036Y0201422D01*
X0559036Y0200013D02*
X0567640Y0200013D01*
X0567640Y0200408D02*
X0559036Y0200408D01*
X0559036Y0200803D02*
X0567640Y0200803D01*
X0567640Y0201198D02*
X0559036Y0201198D01*
X0559036Y0281172D02*
X0567640Y0281172D01*
X0567640Y0279368D01*
X0559036Y0279368D01*
X0559036Y0281172D01*
X0559036Y0279763D02*
X0567640Y0279763D01*
X0567640Y0280158D02*
X0559036Y0280158D01*
X0559036Y0280553D02*
X0567640Y0280553D01*
X0567640Y0280948D02*
X0559036Y0280948D01*
X0559036Y0286172D02*
X0567640Y0286172D01*
X0567640Y0284368D01*
X0559036Y0284368D01*
X0559036Y0286172D01*
X0559036Y0284763D02*
X0567640Y0284763D01*
X0567640Y0285158D02*
X0559036Y0285158D01*
X0559036Y0285553D02*
X0567640Y0285553D01*
X0567640Y0285948D02*
X0559036Y0285948D01*
X0559036Y0291172D02*
X0567640Y0291172D01*
X0567640Y0289368D01*
X0559036Y0289368D01*
X0559036Y0291172D01*
X0559036Y0289763D02*
X0567640Y0289763D01*
X0567640Y0290158D02*
X0559036Y0290158D01*
X0559036Y0290553D02*
X0567640Y0290553D01*
X0567640Y0290948D02*
X0559036Y0290948D01*
X0559036Y0296172D02*
X0567640Y0296172D01*
X0567640Y0294368D01*
X0559036Y0294368D01*
X0559036Y0296172D01*
X0559036Y0294763D02*
X0567640Y0294763D01*
X0567640Y0295158D02*
X0559036Y0295158D01*
X0559036Y0295553D02*
X0567640Y0295553D01*
X0567640Y0295948D02*
X0559036Y0295948D01*
X0559036Y0301172D02*
X0567640Y0301172D01*
X0567640Y0299368D01*
X0559036Y0299368D01*
X0559036Y0301172D01*
X0559036Y0299763D02*
X0567640Y0299763D01*
X0567640Y0300158D02*
X0559036Y0300158D01*
X0559036Y0300553D02*
X0567640Y0300553D01*
X0567640Y0300948D02*
X0559036Y0300948D01*
X0559036Y0306172D02*
X0567640Y0306172D01*
X0567640Y0304368D01*
X0559036Y0304368D01*
X0559036Y0306172D01*
X0559036Y0304763D02*
X0567640Y0304763D01*
X0567640Y0305158D02*
X0559036Y0305158D01*
X0559036Y0305553D02*
X0567640Y0305553D01*
X0567640Y0305948D02*
X0559036Y0305948D01*
X0559036Y0311172D02*
X0567640Y0311172D01*
X0567640Y0309368D01*
X0559036Y0309368D01*
X0559036Y0311172D01*
X0559036Y0309763D02*
X0567640Y0309763D01*
X0567640Y0310158D02*
X0559036Y0310158D01*
X0559036Y0310553D02*
X0567640Y0310553D01*
X0567640Y0310948D02*
X0559036Y0310948D01*
X0559036Y0316172D02*
X0567640Y0316172D01*
X0567640Y0314368D01*
X0559036Y0314368D01*
X0559036Y0316172D01*
X0559036Y0314763D02*
X0567640Y0314763D01*
X0567640Y0315158D02*
X0559036Y0315158D01*
X0559036Y0315553D02*
X0567640Y0315553D01*
X0567640Y0315948D02*
X0559036Y0315948D01*
X0559036Y0321172D02*
X0567640Y0321172D01*
X0567640Y0319368D01*
X0559036Y0319368D01*
X0559036Y0321172D01*
X0559036Y0319763D02*
X0567640Y0319763D01*
X0567640Y0320158D02*
X0559036Y0320158D01*
X0559036Y0320553D02*
X0567640Y0320553D01*
X0567640Y0320948D02*
X0559036Y0320948D01*
X0530340Y0321172D02*
X0521736Y0321172D01*
X0530340Y0321172D02*
X0530340Y0319368D01*
X0521736Y0319368D01*
X0521736Y0321172D01*
X0521736Y0319763D02*
X0530340Y0319763D01*
X0530340Y0320158D02*
X0521736Y0320158D01*
X0521736Y0320553D02*
X0530340Y0320553D01*
X0530340Y0320948D02*
X0521736Y0320948D01*
X0521736Y0316172D02*
X0530340Y0316172D01*
X0530340Y0314368D01*
X0521736Y0314368D01*
X0521736Y0316172D01*
X0521736Y0314763D02*
X0530340Y0314763D01*
X0530340Y0315158D02*
X0521736Y0315158D01*
X0521736Y0315553D02*
X0530340Y0315553D01*
X0530340Y0315948D02*
X0521736Y0315948D01*
X0521736Y0311172D02*
X0530340Y0311172D01*
X0530340Y0309368D01*
X0521736Y0309368D01*
X0521736Y0311172D01*
X0521736Y0309763D02*
X0530340Y0309763D01*
X0530340Y0310158D02*
X0521736Y0310158D01*
X0521736Y0310553D02*
X0530340Y0310553D01*
X0530340Y0310948D02*
X0521736Y0310948D01*
X0521736Y0306172D02*
X0530340Y0306172D01*
X0530340Y0304368D01*
X0521736Y0304368D01*
X0521736Y0306172D01*
X0521736Y0304763D02*
X0530340Y0304763D01*
X0530340Y0305158D02*
X0521736Y0305158D01*
X0521736Y0305553D02*
X0530340Y0305553D01*
X0530340Y0305948D02*
X0521736Y0305948D01*
X0521736Y0301172D02*
X0530340Y0301172D01*
X0530340Y0299368D01*
X0521736Y0299368D01*
X0521736Y0301172D01*
X0521736Y0299763D02*
X0530340Y0299763D01*
X0530340Y0300158D02*
X0521736Y0300158D01*
X0521736Y0300553D02*
X0530340Y0300553D01*
X0530340Y0300948D02*
X0521736Y0300948D01*
X0521736Y0296172D02*
X0530340Y0296172D01*
X0530340Y0294368D01*
X0521736Y0294368D01*
X0521736Y0296172D01*
X0521736Y0294763D02*
X0530340Y0294763D01*
X0530340Y0295158D02*
X0521736Y0295158D01*
X0521736Y0295553D02*
X0530340Y0295553D01*
X0530340Y0295948D02*
X0521736Y0295948D01*
X0521736Y0291172D02*
X0530340Y0291172D01*
X0530340Y0289368D01*
X0521736Y0289368D01*
X0521736Y0291172D01*
X0521736Y0289763D02*
X0530340Y0289763D01*
X0530340Y0290158D02*
X0521736Y0290158D01*
X0521736Y0290553D02*
X0530340Y0290553D01*
X0530340Y0290948D02*
X0521736Y0290948D01*
X0521736Y0286172D02*
X0530340Y0286172D01*
X0530340Y0284368D01*
X0521736Y0284368D01*
X0521736Y0286172D01*
X0521736Y0284763D02*
X0530340Y0284763D01*
X0530340Y0285158D02*
X0521736Y0285158D01*
X0521736Y0285553D02*
X0530340Y0285553D01*
X0530340Y0285948D02*
X0521736Y0285948D01*
X0521736Y0281172D02*
X0530340Y0281172D01*
X0530340Y0279368D01*
X0521736Y0279368D01*
X0521736Y0281172D01*
X0521736Y0279763D02*
X0530340Y0279763D01*
X0530340Y0280158D02*
X0521736Y0280158D01*
X0521736Y0280553D02*
X0530340Y0280553D01*
X0530340Y0280948D02*
X0521736Y0280948D01*
X0521386Y0352922D02*
X0526990Y0352922D01*
X0526990Y0351118D01*
X0521386Y0351118D01*
X0521386Y0352922D01*
X0521386Y0351513D02*
X0526990Y0351513D01*
X0526990Y0351908D02*
X0521386Y0351908D01*
X0521386Y0352303D02*
X0526990Y0352303D01*
X0526990Y0352698D02*
X0521386Y0352698D01*
X0518490Y0356922D02*
X0512886Y0356922D01*
X0518490Y0356922D02*
X0518490Y0355118D01*
X0512886Y0355118D01*
X0512886Y0356922D01*
X0512886Y0355513D02*
X0518490Y0355513D01*
X0518490Y0355908D02*
X0512886Y0355908D01*
X0512886Y0356303D02*
X0518490Y0356303D01*
X0518490Y0356698D02*
X0512886Y0356698D01*
X0521386Y0360922D02*
X0526990Y0360922D01*
X0526990Y0359118D01*
X0521386Y0359118D01*
X0521386Y0360922D01*
X0521386Y0359513D02*
X0526990Y0359513D01*
X0526990Y0359908D02*
X0521386Y0359908D01*
X0521386Y0360303D02*
X0526990Y0360303D01*
X0526990Y0360698D02*
X0521386Y0360698D01*
X0421740Y0142122D02*
X0416936Y0142122D01*
X0421740Y0142122D02*
X0421740Y0140318D01*
X0416936Y0140318D01*
X0416936Y0142122D01*
X0416936Y0140713D02*
X0421740Y0140713D01*
X0421740Y0141108D02*
X0416936Y0141108D01*
X0416936Y0141503D02*
X0421740Y0141503D01*
X0421740Y0141898D02*
X0416936Y0141898D01*
X0416936Y0138422D02*
X0421740Y0138422D01*
X0421740Y0136618D01*
X0416936Y0136618D01*
X0416936Y0138422D01*
X0416936Y0137013D02*
X0421740Y0137013D01*
X0421740Y0137408D02*
X0416936Y0137408D01*
X0416936Y0137803D02*
X0421740Y0137803D01*
X0421740Y0138198D02*
X0416936Y0138198D01*
X0416936Y0134722D02*
X0421740Y0134722D01*
X0421740Y0132918D01*
X0416936Y0132918D01*
X0416936Y0134722D01*
X0416936Y0133313D02*
X0421740Y0133313D01*
X0421740Y0133708D02*
X0416936Y0133708D01*
X0416936Y0134103D02*
X0421740Y0134103D01*
X0421740Y0134498D02*
X0416936Y0134498D01*
X0410940Y0134722D02*
X0406136Y0134722D01*
X0410940Y0134722D02*
X0410940Y0132918D01*
X0406136Y0132918D01*
X0406136Y0134722D01*
X0406136Y0133313D02*
X0410940Y0133313D01*
X0410940Y0133708D02*
X0406136Y0133708D01*
X0406136Y0134103D02*
X0410940Y0134103D01*
X0410940Y0134498D02*
X0406136Y0134498D01*
X0406136Y0142122D02*
X0410940Y0142122D01*
X0410940Y0140318D01*
X0406136Y0140318D01*
X0406136Y0142122D01*
X0406136Y0140713D02*
X0410940Y0140713D01*
X0410940Y0141108D02*
X0406136Y0141108D01*
X0406136Y0141503D02*
X0410940Y0141503D01*
X0410940Y0141898D02*
X0406136Y0141898D01*
D17*
X0402533Y0137521D02*
X0397823Y0137521D01*
X0397823Y0143019D01*
X0402533Y0143019D01*
X0402533Y0137521D01*
X0402533Y0137929D02*
X0397823Y0137929D01*
X0397823Y0138337D02*
X0402533Y0138337D01*
X0402533Y0138745D02*
X0397823Y0138745D01*
X0397823Y0139153D02*
X0402533Y0139153D01*
X0402533Y0139561D02*
X0397823Y0139561D01*
X0397823Y0139969D02*
X0402533Y0139969D01*
X0402533Y0140377D02*
X0397823Y0140377D01*
X0397823Y0140785D02*
X0402533Y0140785D01*
X0402533Y0141193D02*
X0397823Y0141193D01*
X0397823Y0141601D02*
X0402533Y0141601D01*
X0402533Y0142009D02*
X0397823Y0142009D01*
X0397823Y0142417D02*
X0402533Y0142417D01*
X0402533Y0142825D02*
X0397823Y0142825D01*
X0395053Y0137521D02*
X0390343Y0137521D01*
X0390343Y0143019D01*
X0395053Y0143019D01*
X0395053Y0137521D01*
X0395053Y0137929D02*
X0390343Y0137929D01*
X0390343Y0138337D02*
X0395053Y0138337D01*
X0395053Y0138745D02*
X0390343Y0138745D01*
X0390343Y0139153D02*
X0395053Y0139153D01*
X0395053Y0139561D02*
X0390343Y0139561D01*
X0390343Y0139969D02*
X0395053Y0139969D01*
X0395053Y0140377D02*
X0390343Y0140377D01*
X0390343Y0140785D02*
X0395053Y0140785D01*
X0395053Y0141193D02*
X0390343Y0141193D01*
X0390343Y0141601D02*
X0395053Y0141601D01*
X0395053Y0142009D02*
X0390343Y0142009D01*
X0390343Y0142417D02*
X0395053Y0142417D01*
X0395053Y0142825D02*
X0390343Y0142825D01*
X0390343Y0135269D02*
X0395053Y0135269D01*
X0395053Y0129771D01*
X0390343Y0129771D01*
X0390343Y0135269D01*
X0390343Y0130179D02*
X0395053Y0130179D01*
X0395053Y0130587D02*
X0390343Y0130587D01*
X0390343Y0130995D02*
X0395053Y0130995D01*
X0395053Y0131403D02*
X0390343Y0131403D01*
X0390343Y0131811D02*
X0395053Y0131811D01*
X0395053Y0132219D02*
X0390343Y0132219D01*
X0390343Y0132627D02*
X0395053Y0132627D01*
X0395053Y0133035D02*
X0390343Y0133035D01*
X0390343Y0133443D02*
X0395053Y0133443D01*
X0395053Y0133851D02*
X0390343Y0133851D01*
X0390343Y0134259D02*
X0395053Y0134259D01*
X0395053Y0134667D02*
X0390343Y0134667D01*
X0390343Y0135075D02*
X0395053Y0135075D01*
X0397823Y0135269D02*
X0402533Y0135269D01*
X0402533Y0129771D01*
X0397823Y0129771D01*
X0397823Y0135269D01*
X0397823Y0130179D02*
X0402533Y0130179D01*
X0402533Y0130587D02*
X0397823Y0130587D01*
X0397823Y0130995D02*
X0402533Y0130995D01*
X0402533Y0131403D02*
X0397823Y0131403D01*
X0397823Y0131811D02*
X0402533Y0131811D01*
X0402533Y0132219D02*
X0397823Y0132219D01*
X0397823Y0132627D02*
X0402533Y0132627D01*
X0402533Y0133035D02*
X0397823Y0133035D01*
X0397823Y0133443D02*
X0402533Y0133443D01*
X0402533Y0133851D02*
X0397823Y0133851D01*
X0397823Y0134259D02*
X0402533Y0134259D01*
X0402533Y0134667D02*
X0397823Y0134667D01*
X0397823Y0135075D02*
X0402533Y0135075D01*
X0424939Y0135405D02*
X0424939Y0140115D01*
X0430437Y0140115D01*
X0430437Y0135405D01*
X0424939Y0135405D01*
X0424939Y0135813D02*
X0430437Y0135813D01*
X0430437Y0136221D02*
X0424939Y0136221D01*
X0424939Y0136629D02*
X0430437Y0136629D01*
X0430437Y0137037D02*
X0424939Y0137037D01*
X0424939Y0137445D02*
X0430437Y0137445D01*
X0430437Y0137853D02*
X0424939Y0137853D01*
X0424939Y0138261D02*
X0430437Y0138261D01*
X0430437Y0138669D02*
X0424939Y0138669D01*
X0424939Y0139077D02*
X0430437Y0139077D01*
X0430437Y0139485D02*
X0424939Y0139485D01*
X0424939Y0139893D02*
X0430437Y0139893D01*
X0424939Y0132635D02*
X0424939Y0127925D01*
X0424939Y0132635D02*
X0430437Y0132635D01*
X0430437Y0127925D01*
X0424939Y0127925D01*
X0424939Y0128333D02*
X0430437Y0128333D01*
X0430437Y0128741D02*
X0424939Y0128741D01*
X0424939Y0129149D02*
X0430437Y0129149D01*
X0430437Y0129557D02*
X0424939Y0129557D01*
X0424939Y0129965D02*
X0430437Y0129965D01*
X0430437Y0130373D02*
X0424939Y0130373D01*
X0424939Y0130781D02*
X0430437Y0130781D01*
X0430437Y0131189D02*
X0424939Y0131189D01*
X0424939Y0131597D02*
X0430437Y0131597D01*
X0430437Y0132005D02*
X0424939Y0132005D01*
X0424939Y0132413D02*
X0430437Y0132413D01*
X0459843Y0134021D02*
X0464553Y0134021D01*
X0459843Y0134021D02*
X0459843Y0139519D01*
X0464553Y0139519D01*
X0464553Y0134021D01*
X0464553Y0134429D02*
X0459843Y0134429D01*
X0459843Y0134837D02*
X0464553Y0134837D01*
X0464553Y0135245D02*
X0459843Y0135245D01*
X0459843Y0135653D02*
X0464553Y0135653D01*
X0464553Y0136061D02*
X0459843Y0136061D01*
X0459843Y0136469D02*
X0464553Y0136469D01*
X0464553Y0136877D02*
X0459843Y0136877D01*
X0459843Y0137285D02*
X0464553Y0137285D01*
X0464553Y0137693D02*
X0459843Y0137693D01*
X0459843Y0138101D02*
X0464553Y0138101D01*
X0464553Y0138509D02*
X0459843Y0138509D01*
X0459843Y0138917D02*
X0464553Y0138917D01*
X0464553Y0139325D02*
X0459843Y0139325D01*
X0467323Y0134021D02*
X0472033Y0134021D01*
X0467323Y0134021D02*
X0467323Y0139519D01*
X0472033Y0139519D01*
X0472033Y0134021D01*
X0472033Y0134429D02*
X0467323Y0134429D01*
X0467323Y0134837D02*
X0472033Y0134837D01*
X0472033Y0135245D02*
X0467323Y0135245D01*
X0467323Y0135653D02*
X0472033Y0135653D01*
X0472033Y0136061D02*
X0467323Y0136061D01*
X0467323Y0136469D02*
X0472033Y0136469D01*
X0472033Y0136877D02*
X0467323Y0136877D01*
X0467323Y0137285D02*
X0472033Y0137285D01*
X0472033Y0137693D02*
X0467323Y0137693D01*
X0467323Y0138101D02*
X0472033Y0138101D01*
X0472033Y0138509D02*
X0467323Y0138509D01*
X0467323Y0138917D02*
X0472033Y0138917D01*
X0472033Y0139325D02*
X0467323Y0139325D01*
X0520093Y0144119D02*
X0524803Y0144119D01*
X0524803Y0138621D01*
X0520093Y0138621D01*
X0520093Y0144119D01*
X0520093Y0139029D02*
X0524803Y0139029D01*
X0524803Y0139437D02*
X0520093Y0139437D01*
X0520093Y0139845D02*
X0524803Y0139845D01*
X0524803Y0140253D02*
X0520093Y0140253D01*
X0520093Y0140661D02*
X0524803Y0140661D01*
X0524803Y0141069D02*
X0520093Y0141069D01*
X0520093Y0141477D02*
X0524803Y0141477D01*
X0524803Y0141885D02*
X0520093Y0141885D01*
X0520093Y0142293D02*
X0524803Y0142293D01*
X0524803Y0142701D02*
X0520093Y0142701D01*
X0520093Y0143109D02*
X0524803Y0143109D01*
X0524803Y0143517D02*
X0520093Y0143517D01*
X0520093Y0143925D02*
X0524803Y0143925D01*
X0527573Y0144119D02*
X0532283Y0144119D01*
X0532283Y0138621D01*
X0527573Y0138621D01*
X0527573Y0144119D01*
X0527573Y0139029D02*
X0532283Y0139029D01*
X0532283Y0139437D02*
X0527573Y0139437D01*
X0527573Y0139845D02*
X0532283Y0139845D01*
X0532283Y0140253D02*
X0527573Y0140253D01*
X0527573Y0140661D02*
X0532283Y0140661D01*
X0532283Y0141069D02*
X0527573Y0141069D01*
X0527573Y0141477D02*
X0532283Y0141477D01*
X0532283Y0141885D02*
X0527573Y0141885D01*
X0527573Y0142293D02*
X0532283Y0142293D01*
X0532283Y0142701D02*
X0527573Y0142701D01*
X0527573Y0143109D02*
X0532283Y0143109D01*
X0532283Y0143517D02*
X0527573Y0143517D01*
X0527573Y0143925D02*
X0532283Y0143925D01*
X0531283Y0122271D02*
X0526573Y0122271D01*
X0526573Y0127769D01*
X0531283Y0127769D01*
X0531283Y0122271D01*
X0531283Y0122679D02*
X0526573Y0122679D01*
X0526573Y0123087D02*
X0531283Y0123087D01*
X0531283Y0123495D02*
X0526573Y0123495D01*
X0526573Y0123903D02*
X0531283Y0123903D01*
X0531283Y0124311D02*
X0526573Y0124311D01*
X0526573Y0124719D02*
X0531283Y0124719D01*
X0531283Y0125127D02*
X0526573Y0125127D01*
X0526573Y0125535D02*
X0531283Y0125535D01*
X0531283Y0125943D02*
X0526573Y0125943D01*
X0526573Y0126351D02*
X0531283Y0126351D01*
X0531283Y0126759D02*
X0526573Y0126759D01*
X0526573Y0127167D02*
X0531283Y0127167D01*
X0531283Y0127575D02*
X0526573Y0127575D01*
X0523803Y0122271D02*
X0519093Y0122271D01*
X0519093Y0127769D01*
X0523803Y0127769D01*
X0523803Y0122271D01*
X0523803Y0122679D02*
X0519093Y0122679D01*
X0519093Y0123087D02*
X0523803Y0123087D01*
X0523803Y0123495D02*
X0519093Y0123495D01*
X0519093Y0123903D02*
X0523803Y0123903D01*
X0523803Y0124311D02*
X0519093Y0124311D01*
X0519093Y0124719D02*
X0523803Y0124719D01*
X0523803Y0125127D02*
X0519093Y0125127D01*
X0519093Y0125535D02*
X0523803Y0125535D01*
X0523803Y0125943D02*
X0519093Y0125943D01*
X0519093Y0126351D02*
X0523803Y0126351D01*
X0523803Y0126759D02*
X0519093Y0126759D01*
X0519093Y0127167D02*
X0523803Y0127167D01*
X0523803Y0127575D02*
X0519093Y0127575D01*
X0362273Y0133269D02*
X0357563Y0133269D01*
X0362273Y0133269D02*
X0362273Y0127771D01*
X0357563Y0127771D01*
X0357563Y0133269D01*
X0357563Y0128179D02*
X0362273Y0128179D01*
X0362273Y0128587D02*
X0357563Y0128587D01*
X0357563Y0128995D02*
X0362273Y0128995D01*
X0362273Y0129403D02*
X0357563Y0129403D01*
X0357563Y0129811D02*
X0362273Y0129811D01*
X0362273Y0130219D02*
X0357563Y0130219D01*
X0357563Y0130627D02*
X0362273Y0130627D01*
X0362273Y0131035D02*
X0357563Y0131035D01*
X0357563Y0131443D02*
X0362273Y0131443D01*
X0362273Y0131851D02*
X0357563Y0131851D01*
X0357563Y0132259D02*
X0362273Y0132259D01*
X0362273Y0132667D02*
X0357563Y0132667D01*
X0357563Y0133075D02*
X0362273Y0133075D01*
X0354793Y0133269D02*
X0350083Y0133269D01*
X0354793Y0133269D02*
X0354793Y0127771D01*
X0350083Y0127771D01*
X0350083Y0133269D01*
X0350083Y0128179D02*
X0354793Y0128179D01*
X0354793Y0128587D02*
X0350083Y0128587D01*
X0350083Y0128995D02*
X0354793Y0128995D01*
X0354793Y0129403D02*
X0350083Y0129403D01*
X0350083Y0129811D02*
X0354793Y0129811D01*
X0354793Y0130219D02*
X0350083Y0130219D01*
X0350083Y0130627D02*
X0354793Y0130627D01*
X0354793Y0131035D02*
X0350083Y0131035D01*
X0350083Y0131443D02*
X0354793Y0131443D01*
X0354793Y0131851D02*
X0350083Y0131851D01*
X0350083Y0132259D02*
X0354793Y0132259D01*
X0354793Y0132667D02*
X0350083Y0132667D01*
X0350083Y0133075D02*
X0354793Y0133075D01*
X0347312Y0133269D02*
X0342602Y0133269D01*
X0347312Y0133269D02*
X0347312Y0127771D01*
X0342602Y0127771D01*
X0342602Y0133269D01*
X0342602Y0128179D02*
X0347312Y0128179D01*
X0347312Y0128587D02*
X0342602Y0128587D01*
X0342602Y0128995D02*
X0347312Y0128995D01*
X0347312Y0129403D02*
X0342602Y0129403D01*
X0342602Y0129811D02*
X0347312Y0129811D01*
X0347312Y0130219D02*
X0342602Y0130219D01*
X0342602Y0130627D02*
X0347312Y0130627D01*
X0347312Y0131035D02*
X0342602Y0131035D01*
X0342602Y0131443D02*
X0347312Y0131443D01*
X0347312Y0131851D02*
X0342602Y0131851D01*
X0342602Y0132259D02*
X0347312Y0132259D01*
X0347312Y0132667D02*
X0342602Y0132667D01*
X0342602Y0133075D02*
X0347312Y0133075D01*
X0535687Y0349925D02*
X0535687Y0354635D01*
X0535687Y0349925D02*
X0530189Y0349925D01*
X0530189Y0354635D01*
X0535687Y0354635D01*
X0535687Y0350333D02*
X0530189Y0350333D01*
X0530189Y0350741D02*
X0535687Y0350741D01*
X0535687Y0351149D02*
X0530189Y0351149D01*
X0530189Y0351557D02*
X0535687Y0351557D01*
X0535687Y0351965D02*
X0530189Y0351965D01*
X0530189Y0352373D02*
X0535687Y0352373D01*
X0535687Y0352781D02*
X0530189Y0352781D01*
X0530189Y0353189D02*
X0535687Y0353189D01*
X0535687Y0353597D02*
X0530189Y0353597D01*
X0530189Y0354005D02*
X0535687Y0354005D01*
X0535687Y0354413D02*
X0530189Y0354413D01*
X0535687Y0357405D02*
X0535687Y0362115D01*
X0535687Y0357405D02*
X0530189Y0357405D01*
X0530189Y0362115D01*
X0535687Y0362115D01*
X0535687Y0357813D02*
X0530189Y0357813D01*
X0530189Y0358221D02*
X0535687Y0358221D01*
X0535687Y0358629D02*
X0530189Y0358629D01*
X0530189Y0359037D02*
X0535687Y0359037D01*
X0535687Y0359445D02*
X0530189Y0359445D01*
X0530189Y0359853D02*
X0535687Y0359853D01*
X0535687Y0360261D02*
X0530189Y0360261D01*
X0530189Y0360669D02*
X0535687Y0360669D01*
X0535687Y0361077D02*
X0530189Y0361077D01*
X0530189Y0361485D02*
X0535687Y0361485D01*
X0535687Y0361893D02*
X0530189Y0361893D01*
D18*
X0573133Y0180515D02*
X0585543Y0180515D01*
X0573133Y0180515D02*
X0573133Y0183125D01*
X0585543Y0183125D01*
X0585543Y0180515D01*
X0585543Y0180904D02*
X0573133Y0180904D01*
X0573133Y0181293D02*
X0585543Y0181293D01*
X0585543Y0181682D02*
X0573133Y0181682D01*
X0573133Y0182071D02*
X0585543Y0182071D01*
X0585543Y0182460D02*
X0573133Y0182460D01*
X0573133Y0182849D02*
X0585543Y0182849D01*
X0592133Y0180515D02*
X0604543Y0180515D01*
X0592133Y0180515D02*
X0592133Y0183125D01*
X0604543Y0183125D01*
X0604543Y0180515D01*
X0604543Y0180904D02*
X0592133Y0180904D01*
X0592133Y0181293D02*
X0604543Y0181293D01*
X0604543Y0181682D02*
X0592133Y0181682D01*
X0592133Y0182071D02*
X0604543Y0182071D01*
X0604543Y0182460D02*
X0592133Y0182460D01*
X0592133Y0182849D02*
X0604543Y0182849D01*
D19*
X0494885Y0140123D02*
X0490691Y0140123D01*
X0490691Y0141117D01*
X0494885Y0141117D01*
X0494885Y0140123D01*
X0494885Y0140528D02*
X0490691Y0140528D01*
X0490691Y0140933D02*
X0494885Y0140933D01*
X0494885Y0134923D02*
X0490691Y0134923D01*
X0490691Y0135917D01*
X0494885Y0135917D01*
X0494885Y0134923D01*
X0494885Y0135328D02*
X0490691Y0135328D01*
X0490691Y0135733D02*
X0494885Y0135733D01*
X0486685Y0134923D02*
X0482491Y0134923D01*
X0482491Y0135917D01*
X0486685Y0135917D01*
X0486685Y0134923D01*
X0486685Y0135328D02*
X0482491Y0135328D01*
X0482491Y0135733D02*
X0486685Y0135733D01*
X0486685Y0137523D02*
X0482491Y0137523D01*
X0482491Y0138517D01*
X0486685Y0138517D01*
X0486685Y0137523D01*
X0486685Y0137928D02*
X0482491Y0137928D01*
X0482491Y0138333D02*
X0486685Y0138333D01*
X0486685Y0140123D02*
X0482491Y0140123D01*
X0482491Y0141117D01*
X0486685Y0141117D01*
X0486685Y0140123D01*
X0486685Y0140528D02*
X0482491Y0140528D01*
X0482491Y0140933D02*
X0486685Y0140933D01*
D20*
X0598625Y0077831D03*
X0153743Y0430193D03*
X0104530Y0111295D03*
D21*
X0526438Y0171570D03*
D22*
X0350428Y0131520D02*
X0350428Y0129520D01*
X0346928Y0129520D01*
X0346928Y0131520D01*
X0350428Y0131520D01*
X0350428Y0131431D02*
X0346928Y0131431D01*
X0346928Y0131333D02*
X0350428Y0131333D01*
X0350428Y0131234D02*
X0346928Y0131234D01*
X0346928Y0131136D02*
X0350428Y0131136D01*
X0350428Y0131037D02*
X0346928Y0131037D01*
X0346928Y0130939D02*
X0350428Y0130939D01*
X0350428Y0130840D02*
X0346928Y0130840D01*
X0346928Y0130742D02*
X0350428Y0130742D01*
X0350428Y0130643D02*
X0346928Y0130643D01*
X0346928Y0130545D02*
X0350428Y0130545D01*
X0350428Y0130446D02*
X0346928Y0130446D01*
X0346928Y0130348D02*
X0350428Y0130348D01*
X0350428Y0130249D02*
X0346928Y0130249D01*
X0346928Y0130151D02*
X0350428Y0130151D01*
X0350428Y0130052D02*
X0346928Y0130052D01*
X0346928Y0129954D02*
X0350428Y0129954D01*
X0350428Y0129855D02*
X0346928Y0129855D01*
X0346928Y0129757D02*
X0350428Y0129757D01*
X0350428Y0129658D02*
X0346928Y0129658D01*
X0346928Y0129559D02*
X0350428Y0129559D01*
D23*
X0334845Y0404602D03*
X0256105Y0404602D03*
D24*
X0263979Y0404602D03*
X0271853Y0404602D03*
X0279727Y0404602D03*
X0287601Y0404602D03*
X0287601Y0412476D03*
X0279727Y0412476D03*
X0271853Y0412476D03*
X0263979Y0412476D03*
X0256105Y0412476D03*
X0334845Y0412476D03*
X0342719Y0412476D03*
X0350593Y0412476D03*
X0350593Y0404602D03*
X0342719Y0404602D03*
X0358467Y0404602D03*
X0366341Y0404602D03*
X0366341Y0412476D03*
X0358467Y0412476D03*
D25*
X0353688Y0355020D03*
X0330688Y0336020D03*
X0270688Y0355020D03*
X0247688Y0336020D03*
X0187688Y0355020D03*
X0247688Y0287020D03*
X0247688Y0238020D03*
X0247688Y0189020D03*
X0330688Y0189020D03*
X0330688Y0238020D03*
X0330688Y0287020D03*
X0413688Y0287020D03*
X0413688Y0238020D03*
X0413688Y0189020D03*
X0496688Y0287020D03*
X0496688Y0336020D03*
X0413688Y0336020D03*
D26*
X0403688Y0336020D03*
X0403688Y0355020D03*
X0413688Y0355020D03*
X0436688Y0336020D03*
X0446688Y0336020D03*
X0446688Y0306020D03*
X0436688Y0306020D03*
X0436688Y0287020D03*
X0446688Y0287020D03*
X0413688Y0306020D03*
X0403688Y0306020D03*
X0403688Y0287020D03*
X0403688Y0257020D03*
X0413688Y0257020D03*
X0403688Y0238020D03*
X0436688Y0257020D03*
X0446688Y0257020D03*
X0486688Y0257020D03*
X0496688Y0257020D03*
X0486688Y0287020D03*
X0486688Y0306020D03*
X0496688Y0306020D03*
X0486688Y0336020D03*
X0413688Y0385020D03*
X0403688Y0385020D03*
X0363688Y0385020D03*
X0353688Y0385020D03*
X0330688Y0385020D03*
X0320688Y0385020D03*
X0320688Y0355020D03*
X0330688Y0355020D03*
X0320688Y0336020D03*
X0353688Y0336020D03*
X0363688Y0336020D03*
X0363688Y0355020D03*
X0363688Y0306020D03*
X0353688Y0306020D03*
X0353688Y0287020D03*
X0363688Y0287020D03*
X0330688Y0306020D03*
X0320688Y0306020D03*
X0320688Y0287020D03*
X0320688Y0257020D03*
X0330688Y0257020D03*
X0320688Y0238020D03*
X0353688Y0238020D03*
X0363688Y0238020D03*
X0363688Y0257020D03*
X0353688Y0257020D03*
X0353688Y0208020D03*
X0363688Y0208020D03*
X0363688Y0189020D03*
X0353688Y0189020D03*
X0330688Y0208020D03*
X0320688Y0208020D03*
X0320688Y0189020D03*
X0320688Y0159020D03*
X0330688Y0159020D03*
X0353688Y0159020D03*
X0363688Y0159020D03*
X0403688Y0159020D03*
X0413688Y0159020D03*
X0403688Y0189020D03*
X0403688Y0208020D03*
X0413688Y0208020D03*
X0280688Y0208020D03*
X0270688Y0208020D03*
X0270688Y0189020D03*
X0280688Y0189020D03*
X0247688Y0208020D03*
X0237688Y0208020D03*
X0237688Y0189020D03*
X0237688Y0159020D03*
X0247688Y0159020D03*
X0270688Y0159020D03*
X0280688Y0159020D03*
X0197688Y0159020D03*
X0187688Y0159020D03*
X0187688Y0189020D03*
X0197688Y0189020D03*
X0197688Y0208020D03*
X0187688Y0208020D03*
X0187688Y0238020D03*
X0197688Y0238020D03*
X0197688Y0257020D03*
X0187688Y0257020D03*
X0187688Y0287020D03*
X0197688Y0287020D03*
X0197688Y0306020D03*
X0187688Y0306020D03*
X0187688Y0336020D03*
X0197688Y0336020D03*
X0197688Y0355020D03*
X0197688Y0385020D03*
X0187688Y0385020D03*
X0237688Y0385020D03*
X0247688Y0385020D03*
X0270688Y0385020D03*
X0280688Y0385020D03*
X0280688Y0355020D03*
X0280688Y0336020D03*
X0270688Y0336020D03*
X0247688Y0355020D03*
X0237688Y0355020D03*
X0237688Y0336020D03*
X0237688Y0306020D03*
X0247688Y0306020D03*
X0237688Y0287020D03*
X0270688Y0287020D03*
X0280688Y0287020D03*
X0280688Y0306020D03*
X0270688Y0306020D03*
X0270688Y0257020D03*
X0280688Y0257020D03*
X0280688Y0238020D03*
X0270688Y0238020D03*
X0247688Y0257020D03*
X0237688Y0257020D03*
X0237688Y0238020D03*
D27*
X0137995Y0087673D03*
X0137995Y0418382D03*
D28*
X0388688Y0140270D03*
X0388688Y0132520D03*
X0423438Y0137520D03*
X0458438Y0136770D03*
X0480938Y0134520D03*
X0482438Y0122770D03*
X0470438Y0112770D03*
X0450688Y0104770D03*
X0507188Y0137770D03*
X0523438Y0137370D03*
X0523388Y0145320D03*
X0524338Y0152770D03*
X0517438Y0123870D03*
X0516838Y0117770D03*
X0564338Y0107320D03*
X0594738Y0178920D03*
X0594688Y0184670D03*
X0566438Y0242970D03*
X0563338Y0242970D03*
X0560288Y0242970D03*
X0560238Y0322670D03*
X0563338Y0322670D03*
X0566438Y0322670D03*
X0528438Y0360020D03*
D29*
X0528698Y0359760D01*
X0532938Y0359760D01*
X0528438Y0360020D02*
X0524188Y0360020D01*
X0436688Y0336020D02*
X0425488Y0324820D01*
X0425488Y0276820D01*
X0434588Y0284920D02*
X0434588Y0267570D01*
X0430538Y0264770D02*
X0430538Y0299870D01*
X0436688Y0306020D01*
X0436688Y0287020D02*
X0434588Y0284920D01*
X0435688Y0286020D02*
X0436688Y0287020D01*
X0403688Y0287020D02*
X0397438Y0287020D01*
X0396688Y0286270D01*
X0353688Y0306020D02*
X0348438Y0311270D01*
X0348438Y0317520D01*
X0353688Y0314270D02*
X0353688Y0336020D01*
X0330688Y0336020D02*
X0330688Y0355020D01*
X0320688Y0355020D02*
X0315938Y0350270D01*
X0314306Y0350270D01*
X0304070Y0350270D02*
X0297556Y0350270D01*
X0287320Y0350270D02*
X0285438Y0350270D01*
X0280688Y0355020D01*
X0257438Y0355020D02*
X0257438Y0281520D01*
X0257438Y0182770D01*
X0247688Y0178870D02*
X0247688Y0189020D01*
X0237688Y0189020D02*
X0230688Y0189020D01*
X0222988Y0196170D02*
X0222988Y0165170D01*
X0223038Y0165120D01*
X0229888Y0161120D02*
X0229938Y0161120D01*
X0247688Y0178870D01*
X0253688Y0165020D02*
X0253688Y0247370D01*
X0252888Y0248170D01*
X0253688Y0248970D01*
X0253688Y0257020D01*
X0247688Y0257020D01*
X0253688Y0257020D02*
X0253688Y0379020D01*
X0247688Y0385020D01*
X0187688Y0343870D02*
X0187688Y0336020D01*
X0187688Y0343870D02*
X0173988Y0357570D01*
X0173988Y0367369D01*
X0166932Y0374425D01*
X0166932Y0359425D02*
X0182038Y0344319D01*
X0182038Y0311670D01*
X0187688Y0306020D01*
X0177688Y0296120D02*
X0186788Y0287020D01*
X0187688Y0287020D01*
X0187688Y0277420D02*
X0187688Y0257020D01*
X0174866Y0248441D02*
X0185288Y0238020D01*
X0187688Y0238020D01*
X0181366Y0233441D02*
X0187738Y0227070D01*
X0187738Y0208070D01*
X0187688Y0208020D01*
X0187688Y0193770D02*
X0187688Y0189020D01*
X0187688Y0193770D02*
X0170188Y0211270D01*
X0154103Y0211270D01*
X0116932Y0248441D01*
X0125988Y0258120D02*
X0125938Y0258170D01*
X0125938Y0320419D01*
X0116932Y0329425D01*
X0129438Y0332020D02*
X0129438Y0277120D01*
X0129838Y0276720D01*
X0135888Y0284420D02*
X0143538Y0276770D01*
X0172838Y0276770D01*
X0176438Y0273170D01*
X0187688Y0277420D02*
X0174938Y0290170D01*
X0174938Y0316520D01*
X0169588Y0321870D01*
X0165288Y0321870D01*
X0127732Y0359425D01*
X0116932Y0359425D01*
X0116932Y0374425D02*
X0117882Y0374425D01*
X0155388Y0336920D01*
X0170038Y0336920D01*
X0177688Y0329270D01*
X0177688Y0296120D01*
X0166932Y0299425D02*
X0158438Y0307919D01*
X0158438Y0321770D01*
X0129438Y0332020D02*
X0117032Y0344425D01*
X0116932Y0344425D01*
X0230688Y0287020D02*
X0237688Y0287020D01*
X0270688Y0287020D02*
X0270688Y0273670D01*
X0270688Y0306020D02*
X0270688Y0326520D01*
X0313688Y0287020D02*
X0320688Y0287020D01*
X0330688Y0306020D02*
X0336438Y0306020D01*
X0336688Y0305770D01*
X0336688Y0214020D01*
X0330688Y0208020D01*
X0320688Y0189020D02*
X0314188Y0189020D01*
X0313688Y0188520D01*
X0353688Y0189020D02*
X0353688Y0172620D01*
X0353688Y0198020D02*
X0353688Y0208020D01*
X0353688Y0226020D02*
X0353688Y0238020D01*
X0353688Y0257020D02*
X0346138Y0264570D01*
X0346138Y0292320D01*
X0336688Y0305770D02*
X0336688Y0379020D01*
X0330688Y0385020D01*
X0413688Y0336020D02*
X0419688Y0330270D01*
X0419688Y0244020D01*
X0413688Y0238020D01*
X0403688Y0238020D02*
X0396938Y0238020D01*
X0396688Y0237770D01*
X0396688Y0189270D02*
X0396938Y0189020D01*
X0403688Y0189020D01*
X0401128Y0141220D02*
X0400178Y0140270D01*
X0401128Y0141220D02*
X0408538Y0141220D01*
X0419338Y0137520D02*
X0423438Y0137520D01*
X0392698Y0140270D02*
X0388688Y0140270D01*
X0388688Y0132520D02*
X0392698Y0132520D01*
X0450841Y0108020D02*
X0450688Y0104770D01*
X0457534Y0108020D02*
X0457764Y0107789D01*
X0465808Y0107789D01*
X0465808Y0112789D02*
X0470418Y0112789D01*
X0470438Y0112770D01*
X0457534Y0108020D02*
X0457534Y0125923D01*
X0456938Y0126520D01*
X0527034Y0117770D02*
X0527638Y0117770D01*
X0528288Y0118420D01*
X0528288Y0124380D01*
X0528928Y0125020D01*
X0529928Y0141370D02*
X0529928Y0142460D01*
X0530988Y0143520D01*
X0530988Y0144770D01*
X0531238Y0145020D01*
X0538938Y0145020D01*
X0543188Y0140770D01*
X0543538Y0140670D01*
X0565238Y0118970D01*
X0565238Y0116970D01*
X0530988Y0144770D02*
X0530988Y0148523D01*
X0531034Y0148570D01*
X0320688Y0238020D02*
X0314438Y0238020D01*
X0313688Y0237270D01*
X0265238Y0213920D02*
X0265238Y0194470D01*
X0270688Y0189020D01*
X0261188Y0201770D02*
X0261188Y0163520D01*
X0241109Y0143441D01*
X0166932Y0143441D01*
X0187688Y0159020D02*
X0187688Y0179070D01*
X0170638Y0196120D01*
X0154253Y0196120D01*
X0116932Y0233441D01*
X0166932Y0233441D02*
X0181366Y0233441D01*
X0174866Y0248441D02*
X0166932Y0248441D01*
X0207338Y0243620D02*
X0207338Y0164420D01*
X0214138Y0173770D02*
X0214138Y0219220D01*
X0218238Y0225870D02*
X0218138Y0225970D01*
X0218238Y0225870D02*
X0218238Y0182020D01*
X0229888Y0161120D02*
X0229888Y0156470D01*
X0223988Y0151020D02*
X0218488Y0151020D01*
X0124510Y0151020D01*
X0116932Y0143441D01*
X0223988Y0151020D02*
X0239688Y0151020D01*
X0247688Y0159020D01*
X0253688Y0165020D01*
X0237688Y0238020D02*
X0231688Y0238020D01*
X0230688Y0239020D01*
D30*
X0197688Y0238020D02*
X0197688Y0223570D01*
X0280688Y0189020D02*
X0290688Y0199020D01*
X0290688Y0212870D01*
X0363688Y0189020D02*
X0374488Y0199820D01*
X0374488Y0211670D01*
X0376938Y0214120D01*
X0456988Y0215520D02*
X0458188Y0216720D01*
X0458188Y0324520D01*
X0446688Y0336020D01*
X0455688Y0337020D02*
X0459938Y0332770D01*
X0459938Y0210720D01*
X0457888Y0208670D01*
X0460338Y0205220D02*
X0461538Y0206420D01*
X0461538Y0335120D01*
X0455638Y0341020D01*
X0464488Y0321370D02*
X0463138Y0320020D01*
X0463138Y0200620D01*
X0463088Y0200570D01*
X0499738Y0212720D02*
X0499738Y0218620D01*
X0503088Y0221970D01*
X0503088Y0296720D01*
X0516638Y0310270D01*
X0526038Y0310270D01*
X0526038Y0315270D02*
X0516638Y0315270D01*
X0504238Y0327670D01*
X0504238Y0363470D01*
X0507388Y0359670D02*
X0511038Y0356020D01*
X0515688Y0356020D01*
X0508938Y0353470D02*
X0534538Y0327870D01*
X0534538Y0274620D01*
X0526788Y0266870D01*
X0526788Y0254770D01*
X0531788Y0249770D01*
X0531788Y0236670D01*
X0530638Y0235520D01*
X0526038Y0235520D01*
X0526038Y0230520D02*
X0511338Y0230520D01*
X0512688Y0225520D02*
X0526038Y0225520D01*
X0526038Y0220520D02*
X0511188Y0220520D01*
X0512638Y0225470D02*
X0512688Y0225520D01*
X0504688Y0219570D02*
X0503488Y0218370D01*
X0504688Y0219570D02*
X0504688Y0292570D01*
X0517388Y0305270D01*
X0526038Y0305270D01*
X0526038Y0300270D02*
X0517788Y0300270D01*
X0506288Y0288770D01*
X0506288Y0194770D01*
X0509738Y0200570D02*
X0525988Y0200570D01*
X0526038Y0200520D01*
X0526038Y0205520D02*
X0509738Y0205520D01*
X0509738Y0210520D02*
X0526038Y0210520D01*
X0526038Y0215520D02*
X0509738Y0215520D01*
X0550038Y0227220D02*
X0558288Y0235470D01*
X0563288Y0235470D01*
X0563338Y0235520D01*
X0563338Y0230520D02*
X0558588Y0230520D01*
X0551638Y0223570D01*
X0551638Y0164570D01*
X0555438Y0160770D01*
X0555438Y0146120D01*
X0557438Y0146120D02*
X0557438Y0161070D01*
X0553288Y0165220D01*
X0553288Y0220220D01*
X0558588Y0225520D01*
X0563338Y0225520D01*
X0563338Y0220520D02*
X0558538Y0220520D01*
X0554888Y0216870D01*
X0554888Y0165920D01*
X0559338Y0161470D01*
X0559338Y0146120D01*
X0561338Y0146120D02*
X0561338Y0161820D01*
X0556488Y0166670D01*
X0556488Y0213070D01*
X0558938Y0215520D01*
X0563338Y0215520D01*
X0572338Y0223670D02*
X0574588Y0221420D01*
X0574588Y0191020D01*
X0563338Y0191020D02*
X0563338Y0146120D01*
X0565238Y0146120D02*
X0583438Y0146120D01*
X0578688Y0149520D02*
X0578688Y0153120D01*
X0571388Y0160420D01*
X0571388Y0207520D01*
X0568388Y0210520D01*
X0563338Y0210520D01*
X0563338Y0205520D02*
X0567938Y0205520D01*
X0569738Y0203720D01*
X0569738Y0158020D01*
X0575588Y0152170D01*
X0574338Y0153420D01*
X0572738Y0149370D02*
X0568138Y0153970D01*
X0568138Y0198170D01*
X0565788Y0200520D01*
X0563338Y0200520D01*
X0544738Y0181770D02*
X0544738Y0284670D01*
X0555338Y0295270D01*
X0563338Y0295270D01*
X0563338Y0300270D02*
X0555738Y0300270D01*
X0543138Y0287670D01*
X0543138Y0181070D01*
X0545838Y0178370D01*
X0545838Y0165570D01*
X0543638Y0163370D01*
X0547438Y0164770D02*
X0547438Y0179070D01*
X0544738Y0181770D01*
X0541538Y0180370D02*
X0544138Y0177770D01*
X0544138Y0169670D01*
X0541638Y0167170D01*
X0541138Y0171320D02*
X0542538Y0172720D01*
X0542538Y0177070D01*
X0539938Y0179670D01*
X0539938Y0293820D01*
X0556388Y0310270D01*
X0563338Y0310270D01*
X0563338Y0315270D02*
X0556738Y0315270D01*
X0538338Y0296870D01*
X0538338Y0177320D01*
X0539738Y0175920D01*
X0541538Y0180370D02*
X0541538Y0290720D01*
X0556088Y0305270D01*
X0563338Y0305270D01*
X0563338Y0320270D02*
X0563338Y0322670D01*
X0572338Y0332020D02*
X0552078Y0352280D01*
X0532938Y0352280D01*
X0532678Y0352020D01*
X0524188Y0352020D01*
X0572338Y0332020D02*
X0572338Y0223670D01*
X0550038Y0227220D02*
X0550038Y0163870D01*
X0553438Y0160470D01*
X0553438Y0146120D01*
X0551438Y0146120D02*
X0551438Y0151520D01*
X0547138Y0155820D01*
X0521838Y0155820D01*
X0511688Y0145670D01*
X0489638Y0145670D01*
X0484588Y0140620D01*
X0484488Y0140520D01*
X0480438Y0140520D01*
X0476438Y0136520D01*
X0469928Y0136520D01*
X0469678Y0136770D01*
X0476438Y0136520D02*
X0476438Y0134770D01*
X0484588Y0138020D02*
X0488688Y0138020D01*
X0492788Y0135420D02*
X0496788Y0135420D01*
X0496938Y0135270D01*
X0503638Y0133670D02*
X0503838Y0133870D01*
X0532338Y0133870D01*
X0532888Y0134420D01*
X0537838Y0134420D01*
X0532488Y0130320D02*
X0534288Y0128520D01*
X0537838Y0128520D01*
X0537838Y0126520D02*
X0542288Y0126520D01*
X0543238Y0127470D01*
X0542888Y0122570D02*
X0537888Y0122570D01*
X0537838Y0122620D01*
X0537838Y0120620D02*
X0533438Y0120620D01*
X0532488Y0119670D01*
X0537438Y0118320D02*
X0537838Y0118720D01*
X0537438Y0118320D02*
X0537438Y0116720D01*
X0543638Y0119270D02*
X0543638Y0112920D01*
X0545538Y0112920D02*
X0545538Y0118520D01*
X0549938Y0122920D01*
X0549938Y0125820D01*
X0553938Y0124820D02*
X0553938Y0124320D01*
X0547538Y0117920D01*
X0547538Y0112920D01*
X0549538Y0112920D02*
X0549538Y0117370D01*
X0553238Y0121070D01*
X0555838Y0121070D01*
X0558938Y0118520D02*
X0557788Y0117370D01*
X0552738Y0117370D01*
X0551438Y0116070D01*
X0551438Y0112920D01*
X0553438Y0112920D02*
X0553438Y0103120D01*
X0554838Y0101720D01*
X0558138Y0102470D02*
X0555438Y0105170D01*
X0555438Y0112920D01*
X0557438Y0112920D02*
X0557438Y0105520D01*
X0562288Y0100670D01*
X0562288Y0099120D01*
X0558188Y0099170D02*
X0558138Y0099220D01*
X0558138Y0102470D01*
X0563338Y0108320D02*
X0564338Y0107320D01*
X0563338Y0108320D02*
X0563338Y0112920D01*
X0570373Y0109116D02*
X0570373Y0118470D01*
X0571038Y0118720D01*
X0571038Y0120620D02*
X0574838Y0120620D01*
X0575438Y0120020D01*
X0575438Y0116020D01*
X0573916Y0114498D01*
X0573916Y0109116D01*
X0577459Y0109116D02*
X0577459Y0120498D01*
X0575338Y0122620D01*
X0571038Y0122620D01*
X0571038Y0124620D02*
X0575838Y0124620D01*
X0581003Y0119455D01*
X0581003Y0109116D01*
X0581003Y0102423D02*
X0581003Y0094335D01*
X0580938Y0094270D01*
X0583788Y0093170D02*
X0575938Y0085320D01*
X0573538Y0085320D01*
X0570373Y0087955D02*
X0568438Y0086020D01*
X0570373Y0087955D02*
X0570373Y0102423D01*
X0573916Y0102423D02*
X0573916Y0089948D01*
X0573538Y0089570D01*
X0577438Y0091270D02*
X0577459Y0091291D01*
X0577459Y0102423D01*
X0583788Y0093170D02*
X0583788Y0124820D01*
X0574188Y0134420D01*
X0571038Y0134420D01*
X0571038Y0136420D02*
X0580738Y0136420D01*
X0571038Y0130520D02*
X0565688Y0130520D01*
X0567638Y0128520D02*
X0566638Y0127520D01*
X0562988Y0127520D01*
X0562388Y0128120D01*
X0567638Y0128520D02*
X0571038Y0128520D01*
X0546738Y0132920D02*
X0546738Y0122370D01*
X0543638Y0119270D01*
X0521448Y0125020D02*
X0520298Y0123870D01*
X0517438Y0123870D01*
X0510938Y0123520D02*
X0510938Y0084270D01*
X0505738Y0099520D02*
X0506388Y0100170D01*
X0505738Y0099520D02*
X0448988Y0099520D01*
X0445988Y0102520D01*
X0445988Y0110970D01*
X0441725Y0115232D01*
X0439333Y0115232D01*
X0419338Y0133820D02*
X0419288Y0133870D01*
X0416188Y0133870D01*
X0414638Y0135420D01*
X0414638Y0140270D01*
X0415588Y0141220D01*
X0419338Y0141220D01*
X0398938Y0124020D02*
X0397688Y0122770D01*
X0346438Y0122770D01*
X0339333Y0115665D01*
X0339333Y0115232D01*
X0344188Y0113020D02*
X0344188Y0117770D01*
X0347188Y0120770D01*
X0401688Y0120770D01*
X0392038Y0094970D02*
X0339188Y0094970D01*
X0334738Y0099420D01*
X0329400Y0105232D02*
X0334438Y0110270D01*
X0341438Y0110270D01*
X0344188Y0113020D01*
X0329400Y0105232D02*
X0329333Y0105232D01*
X0344938Y0126020D02*
X0344938Y0130500D01*
X0344957Y0130520D01*
X0352438Y0130520D02*
X0352438Y0135020D01*
X0359438Y0130039D02*
X0359438Y0127270D01*
X0358438Y0126270D01*
X0359438Y0130039D02*
X0359918Y0130520D01*
X0458438Y0136770D02*
X0462198Y0136770D01*
X0462188Y0124770D02*
X0464168Y0122789D01*
X0465808Y0122789D01*
X0465808Y0117789D02*
X0468457Y0117789D01*
X0471688Y0121020D01*
X0471688Y0123020D01*
X0482438Y0122770D02*
X0482457Y0122789D01*
X0487068Y0122789D01*
X0488688Y0126420D02*
X0492538Y0126420D01*
X0496188Y0122770D01*
X0496188Y0117770D01*
X0499188Y0117770D01*
X0499253Y0117835D01*
X0500091Y0117835D01*
X0500091Y0114291D02*
X0500070Y0114270D01*
X0494938Y0114270D01*
X0491418Y0117789D01*
X0487068Y0117789D01*
X0481457Y0117789D01*
X0474688Y0111020D01*
X0474688Y0109120D01*
X0468738Y0103170D01*
X0465638Y0103170D01*
X0478938Y0106020D02*
X0480707Y0107789D01*
X0487068Y0107789D01*
X0487652Y0107205D01*
X0500091Y0107205D01*
X0500091Y0110748D02*
X0500070Y0110770D01*
X0494438Y0110770D01*
X0492418Y0112789D01*
X0487068Y0112789D01*
X0480707Y0112789D01*
X0478688Y0110770D01*
X0506784Y0110748D02*
X0506784Y0107205D01*
X0506784Y0110748D02*
X0506784Y0114291D01*
X0506784Y0117835D01*
X0506784Y0129673D01*
X0505438Y0130020D01*
X0507188Y0137770D02*
X0507284Y0141020D01*
X0522448Y0141370D02*
X0523388Y0142310D01*
X0523388Y0145320D01*
X0532488Y0159420D02*
X0535038Y0161970D01*
X0535038Y0251570D01*
X0532488Y0254120D01*
X0532488Y0257870D01*
X0533238Y0258620D01*
X0530438Y0261470D02*
X0530788Y0261820D01*
X0530438Y0261470D02*
X0530438Y0253870D01*
X0533438Y0250870D01*
X0533438Y0165120D01*
X0532088Y0163770D01*
X0536688Y0163120D02*
X0538488Y0161320D01*
X0536688Y0163120D02*
X0536688Y0253920D01*
X0535438Y0255170D01*
X0547638Y0262620D02*
X0547638Y0282670D01*
X0555238Y0290270D01*
X0563338Y0290270D01*
X0563288Y0285320D02*
X0563338Y0285270D01*
X0555838Y0285270D01*
X0551088Y0280520D01*
X0551088Y0259820D01*
X0553188Y0256070D02*
X0555138Y0258020D01*
X0555138Y0278570D01*
X0556838Y0280270D01*
X0563338Y0280270D01*
X0526038Y0280270D02*
X0510638Y0280270D01*
X0510188Y0285320D02*
X0525988Y0285320D01*
X0526038Y0285270D01*
X0526038Y0290270D02*
X0519438Y0290270D01*
X0515488Y0294020D01*
X0519738Y0295220D02*
X0525988Y0295220D01*
X0526038Y0295270D01*
X0594788Y0181720D02*
X0598238Y0181720D01*
X0598338Y0181820D01*
X0594788Y0181720D02*
X0594738Y0181670D01*
X0594738Y0178920D01*
X0548288Y0163920D02*
X0548288Y0161570D01*
X0545488Y0158770D01*
X0548288Y0163920D02*
X0547438Y0164770D01*
X0543938Y0152770D02*
X0545538Y0150920D01*
X0545538Y0146120D01*
X0289838Y0272770D02*
X0289688Y0272720D01*
X0289838Y0272770D02*
X0289838Y0289020D01*
X0280688Y0287020D02*
X0280688Y0274070D01*
X0197738Y0323920D02*
X0197688Y0323970D01*
X0197688Y0336020D01*
D31*
X0187688Y0355020D02*
X0192688Y0360020D01*
X0192688Y0387020D01*
X0199188Y0393520D01*
X0258938Y0393520D01*
X0267938Y0402520D01*
X0267938Y0408518D01*
X0263979Y0412476D01*
X0263979Y0404602D02*
X0263979Y0402311D01*
X0257938Y0396270D01*
X0198188Y0396270D01*
X0187688Y0385770D01*
X0187688Y0385020D01*
X0338938Y0401020D02*
X0338938Y0408695D01*
X0342719Y0412476D01*
X0342719Y0404602D02*
X0342688Y0404571D01*
X0342688Y0401020D01*
X0347438Y0396270D01*
X0403188Y0396270D01*
X0413688Y0385770D01*
X0413688Y0385020D01*
X0408688Y0387020D02*
X0408688Y0360020D01*
X0413688Y0355020D01*
X0408688Y0387020D02*
X0402188Y0393520D01*
X0346438Y0393520D01*
X0338938Y0401020D01*
X0492788Y0140620D02*
X0500591Y0140620D01*
X0500591Y0141020D01*
X0500591Y0130173D01*
X0500438Y0130020D01*
X0495034Y0129923D02*
X0494938Y0130020D01*
X0484588Y0135420D02*
X0480938Y0135420D01*
X0480938Y0134520D01*
X0511188Y0130020D02*
X0511438Y0130270D01*
X0427688Y0137760D02*
X0427448Y0137520D01*
X0423438Y0137520D01*
D32*
X0419338Y0133820D02*
X0419199Y0133681D01*
X0516838Y0117770D02*
X0520341Y0117770D01*
X0527938Y0125030D02*
X0529428Y0126520D01*
X0528928Y0125020D02*
X0529328Y0124620D01*
X0537838Y0124620D01*
X0537838Y0140320D02*
X0542738Y0140320D01*
X0543188Y0140770D01*
X0543538Y0140670D02*
X0543638Y0141320D01*
X0543638Y0146120D01*
X0565238Y0116970D02*
X0565238Y0112920D01*
D33*
X0558938Y0118520D03*
X0555838Y0121070D03*
X0553938Y0124820D03*
X0549938Y0125820D03*
X0543238Y0127470D03*
X0542888Y0122570D03*
X0537438Y0116720D03*
X0532488Y0119670D03*
X0532488Y0130320D03*
X0527938Y0130520D03*
X0527988Y0136920D03*
X0546738Y0132920D03*
X0562388Y0128120D03*
X0565688Y0130520D03*
X0580738Y0136420D03*
X0583438Y0146120D03*
X0578688Y0149520D03*
X0575588Y0152170D03*
X0572738Y0149370D03*
X0545488Y0158770D03*
X0543638Y0163370D03*
X0541638Y0167170D03*
X0541138Y0171320D03*
X0539738Y0175920D03*
X0532088Y0163770D03*
X0532488Y0159420D03*
X0538488Y0161320D03*
X0543938Y0152770D03*
X0510938Y0123520D03*
X0503638Y0133670D03*
X0496938Y0135270D03*
X0488688Y0138020D03*
X0488688Y0126420D03*
X0496188Y0117770D03*
X0478688Y0110770D03*
X0478938Y0106020D03*
X0465638Y0103170D03*
X0471688Y0123020D03*
X0462188Y0124770D03*
X0476438Y0134770D03*
X0437938Y0126520D03*
X0419438Y0126520D03*
X0401688Y0120770D03*
X0398938Y0124020D03*
X0358438Y0126270D03*
X0352438Y0135020D03*
X0344938Y0126020D03*
X0353688Y0172620D03*
X0353688Y0198020D03*
X0376938Y0214120D03*
X0353688Y0226020D03*
X0313688Y0177520D03*
X0290688Y0212870D03*
X0265238Y0213920D03*
X0261188Y0201770D03*
X0257438Y0182770D03*
X0230688Y0177520D03*
X0218238Y0182020D03*
X0214138Y0173770D03*
X0207338Y0164420D03*
X0223038Y0165120D03*
X0229888Y0156470D03*
X0222988Y0196170D03*
X0214138Y0219220D03*
X0218138Y0225970D03*
X0207338Y0243620D03*
X0197688Y0223570D03*
X0252888Y0248170D03*
X0270688Y0273670D03*
X0280688Y0274070D03*
X0289688Y0272720D03*
X0289838Y0289020D03*
X0257438Y0281520D03*
X0270688Y0326520D03*
X0237688Y0348270D03*
X0257438Y0355020D03*
X0197738Y0323920D03*
X0158438Y0321770D03*
X0135888Y0284420D03*
X0129838Y0276720D03*
X0125988Y0258120D03*
X0176438Y0273170D03*
X0346138Y0292320D03*
X0353688Y0314270D03*
X0348438Y0317520D03*
X0403688Y0348270D03*
X0455638Y0341020D03*
X0455688Y0337020D03*
X0464488Y0321370D03*
X0486688Y0348270D03*
X0508938Y0353470D03*
X0507388Y0359670D03*
X0504238Y0363470D03*
X0515738Y0332870D03*
X0519738Y0295220D03*
X0515488Y0294020D03*
X0510188Y0285320D03*
X0510638Y0280270D03*
X0530788Y0261820D03*
X0533238Y0258620D03*
X0535438Y0255170D03*
X0547638Y0262620D03*
X0551088Y0259820D03*
X0553188Y0256070D03*
X0585188Y0251470D03*
X0585188Y0289020D03*
X0588188Y0289020D03*
X0585438Y0332870D03*
X0588188Y0348270D03*
X0515838Y0251470D03*
X0511338Y0230520D03*
X0512638Y0225470D03*
X0511188Y0220520D03*
X0509738Y0215520D03*
X0503488Y0218370D03*
X0499738Y0212720D03*
X0509738Y0210520D03*
X0509738Y0205520D03*
X0509738Y0200570D03*
X0506288Y0194770D03*
X0463088Y0200570D03*
X0460338Y0205220D03*
X0457888Y0208670D03*
X0456988Y0215520D03*
X0396688Y0177520D03*
X0506388Y0100170D03*
X0510938Y0084270D03*
X0554838Y0101720D03*
X0558188Y0099170D03*
X0562288Y0099120D03*
X0573538Y0089570D03*
X0573538Y0085320D03*
X0568438Y0086020D03*
X0577438Y0091270D03*
X0580938Y0094270D03*
X0585188Y0181770D03*
X0588188Y0181770D03*
X0574588Y0191020D03*
X0563338Y0191020D03*
X0434588Y0267570D03*
X0430538Y0264770D03*
X0425488Y0276820D03*
D34*
X0526038Y0247602D02*
X0526038Y0240520D01*
X0526038Y0247602D02*
X0526056Y0247620D01*
X0563338Y0242970D02*
X0563338Y0240520D01*
X0526038Y0320270D02*
X0526038Y0328052D01*
X0526056Y0328070D01*
D35*
X0515820Y0328070D02*
X0515820Y0332788D01*
X0515738Y0332870D01*
X0486688Y0336020D02*
X0486688Y0348270D01*
X0486688Y0336020D02*
X0479688Y0329020D01*
X0479688Y0294020D01*
X0486688Y0287020D01*
X0515838Y0251470D02*
X0515820Y0251452D01*
X0515820Y0247620D01*
X0585188Y0251470D02*
X0588188Y0251470D01*
X0588188Y0289020D02*
X0588188Y0333020D01*
X0588038Y0332870D01*
X0585438Y0332870D01*
X0588188Y0333020D02*
X0588188Y0348270D01*
X0403688Y0348270D02*
X0403688Y0336020D01*
X0396688Y0329020D01*
X0396688Y0286270D01*
X0396688Y0237770D01*
X0396688Y0189270D01*
X0396688Y0177520D01*
X0401478Y0133820D02*
X0400178Y0132520D01*
X0401188Y0131510D01*
X0401188Y0130770D01*
X0403688Y0130770D01*
X0407938Y0126520D01*
X0419438Y0126520D01*
X0422878Y0130280D02*
X0419338Y0133820D01*
X0422878Y0130280D02*
X0427688Y0130280D01*
X0427688Y0123587D01*
X0419333Y0115232D01*
X0408538Y0133820D02*
X0401478Y0133820D01*
X0400178Y0132520D02*
X0400178Y0131780D01*
X0400928Y0131780D01*
X0437938Y0126520D02*
X0456938Y0126520D01*
X0460438Y0130020D01*
X0494938Y0130020D01*
X0500438Y0130020D01*
X0505438Y0130020D01*
X0511188Y0130020D01*
X0527438Y0130020D01*
X0527938Y0130520D01*
X0527938Y0125030D01*
X0528928Y0125020D01*
X0527988Y0136920D02*
X0528738Y0137670D01*
X0528738Y0140180D01*
X0529928Y0141370D01*
X0524341Y0148570D02*
X0524341Y0152516D01*
X0524338Y0152770D01*
X0543938Y0152770D01*
X0579338Y0181820D02*
X0579388Y0181770D01*
X0585188Y0181770D01*
X0588188Y0181770D01*
X0588138Y0181820D01*
X0320688Y0336020D02*
X0313688Y0329020D01*
X0313688Y0287020D01*
X0313688Y0237270D01*
X0313688Y0188520D01*
X0313688Y0177520D01*
X0230688Y0177520D02*
X0230688Y0189020D01*
X0230688Y0239020D01*
X0230688Y0287020D01*
X0230688Y0329020D01*
X0237688Y0336020D01*
X0237688Y0348270D01*
D36*
X0419333Y0115232D02*
X0419333Y0105232D01*
X0445296Y0079270D01*
X0575188Y0079270D01*
X0588188Y0092270D01*
X0588188Y0181770D01*
X0588188Y0251470D01*
X0588188Y0289020D01*
X0585188Y0289020D01*
D37*
X0334738Y0099420D03*
X0392038Y0094970D03*
M02*
