G75*
%MOIN*%
%OFA0B0*%
%FSLAX25Y25*%
%IPPOS*%
%LPD*%
%AMOC8*
5,1,8,0,0,1.08239X$1,22.5*
%
%ADD10C,0.00500*%
%ADD11R,0.87000X0.22250*%
%ADD12R,0.01485X0.00015*%
%ADD13R,0.00045X0.00015*%
%ADD14R,0.00105X0.00015*%
%ADD15R,0.00165X0.00015*%
%ADD16R,0.00225X0.00015*%
%ADD17R,0.00285X0.00015*%
%ADD18R,0.00345X0.00015*%
%ADD19R,0.00405X0.00015*%
%ADD20R,0.00435X0.00015*%
%ADD21R,0.00465X0.00015*%
%ADD22R,0.00495X0.00015*%
%ADD23R,0.00540X0.00015*%
%ADD24R,0.00585X0.00015*%
%ADD25R,0.00645X0.00015*%
%ADD26R,0.00150X0.00015*%
%ADD27R,0.00675X0.00015*%
%ADD28R,0.00195X0.00015*%
%ADD29R,0.00705X0.00015*%
%ADD30R,0.00240X0.00015*%
%ADD31R,0.00735X0.00015*%
%ADD32R,0.00270X0.00015*%
%ADD33R,0.00765X0.00015*%
%ADD34R,0.00300X0.00015*%
%ADD35R,0.00810X0.00015*%
%ADD36R,0.00360X0.00015*%
%ADD37R,0.00855X0.00015*%
%ADD38R,0.00435X0.00015*%
%ADD39R,0.00915X0.00015*%
%ADD40R,0.00465X0.00015*%
%ADD41R,0.00945X0.00015*%
%ADD42R,0.00960X0.00015*%
%ADD43R,0.00525X0.00015*%
%ADD44R,0.00990X0.00015*%
%ADD45R,0.00555X0.00015*%
%ADD46R,0.01035X0.00015*%
%ADD47R,0.00600X0.00015*%
%ADD48R,0.01080X0.00015*%
%ADD49R,0.01125X0.00015*%
%ADD50R,0.01170X0.00015*%
%ADD51R,0.00720X0.00015*%
%ADD52R,0.01200X0.00015*%
%ADD53R,0.00750X0.00015*%
%ADD54R,0.01230X0.00015*%
%ADD55R,0.00780X0.00015*%
%ADD56R,0.01260X0.00015*%
%ADD57R,0.00810X0.00015*%
%ADD58R,0.01305X0.00015*%
%ADD59R,0.01365X0.00015*%
%ADD60R,0.00900X0.00015*%
%ADD61R,0.01395X0.00015*%
%ADD62R,0.01440X0.00015*%
%ADD63R,0.01470X0.00015*%
%ADD64R,0.01005X0.00015*%
%ADD65R,0.01500X0.00015*%
%ADD66R,0.01020X0.00015*%
%ADD67R,0.01530X0.00015*%
%ADD68R,0.01065X0.00015*%
%ADD69R,0.01575X0.00015*%
%ADD70R,0.01095X0.00015*%
%ADD71R,0.01635X0.00015*%
%ADD72R,0.01155X0.00015*%
%ADD73R,0.01680X0.00015*%
%ADD74R,0.01200X0.00015*%
%ADD75R,0.01710X0.00015*%
%ADD76R,0.01230X0.00015*%
%ADD77R,0.01725X0.00015*%
%ADD78R,0.01245X0.00015*%
%ADD79R,0.01755X0.00015*%
%ADD80R,0.01275X0.00015*%
%ADD81R,0.01800X0.00015*%
%ADD82R,0.01320X0.00015*%
%ADD83R,0.01860X0.00015*%
%ADD84R,0.01905X0.00015*%
%ADD85R,0.01410X0.00015*%
%ADD86R,0.01935X0.00015*%
%ADD87R,0.01455X0.00015*%
%ADD88R,0.01965X0.00015*%
%ADD89R,0.01485X0.00015*%
%ADD90R,0.01995X0.00015*%
%ADD91R,0.01515X0.00015*%
%ADD92R,0.02040X0.00015*%
%ADD93R,0.01530X0.00015*%
%ADD94R,0.02070X0.00015*%
%ADD95R,0.01575X0.00015*%
%ADD96R,0.02115X0.00015*%
%ADD97R,0.01620X0.00015*%
%ADD98R,0.02160X0.00015*%
%ADD99R,0.01665X0.00015*%
%ADD100R,0.02190X0.00015*%
%ADD101R,0.00075X0.00015*%
%ADD102R,0.01695X0.00015*%
%ADD103R,0.02220X0.00015*%
%ADD104R,0.00105X0.00015*%
%ADD105R,0.02235X0.00015*%
%ADD106R,0.00135X0.00015*%
%ADD107R,0.01755X0.00015*%
%ADD108R,0.02280X0.00015*%
%ADD109R,0.00180X0.00015*%
%ADD110R,0.01785X0.00015*%
%ADD111R,0.02340X0.00015*%
%ADD112R,0.00240X0.00015*%
%ADD113R,0.01830X0.00015*%
%ADD114R,0.02385X0.00015*%
%ADD115R,0.01890X0.00015*%
%ADD116R,0.02415X0.00015*%
%ADD117R,0.00330X0.00015*%
%ADD118R,0.00120X0.00015*%
%ADD119R,0.01920X0.00015*%
%ADD120R,0.02430X0.00015*%
%ADD121R,0.00375X0.00015*%
%ADD122R,0.02460X0.00015*%
%ADD123R,0.00405X0.00015*%
%ADD124R,0.00195X0.00015*%
%ADD125R,0.01965X0.00015*%
%ADD126R,0.02505X0.00015*%
%ADD127R,0.00210X0.00015*%
%ADD128R,0.02010X0.00015*%
%ADD129R,0.02535X0.00015*%
%ADD130R,0.00480X0.00015*%
%ADD131R,0.02580X0.00015*%
%ADD132R,0.00540X0.00015*%
%ADD133R,0.02085X0.00015*%
%ADD134R,0.02625X0.00015*%
%ADD135R,0.02130X0.00015*%
%ADD136R,0.02670X0.00015*%
%ADD137R,0.00630X0.00015*%
%ADD138R,0.02700X0.00015*%
%ADD139R,0.00660X0.00015*%
%ADD140R,0.00450X0.00015*%
%ADD141R,0.02190X0.00015*%
%ADD142R,0.02715X0.00015*%
%ADD143R,0.02205X0.00015*%
%ADD144R,0.02745X0.00015*%
%ADD145R,0.00510X0.00015*%
%ADD146R,0.02235X0.00015*%
%ADD147R,0.02775X0.00015*%
%ADD148R,0.02820X0.00015*%
%ADD149R,0.02310X0.00015*%
%ADD150R,0.02880X0.00015*%
%ADD151R,0.00855X0.00015*%
%ADD152R,0.02355X0.00015*%
%ADD153R,0.02895X0.00015*%
%ADD154R,0.00870X0.00015*%
%ADD155R,0.00660X0.00015*%
%ADD156R,0.02925X0.00015*%
%ADD157R,0.00690X0.00015*%
%ADD158R,0.02970X0.00015*%
%ADD159R,0.03000X0.00015*%
%ADD160R,0.00750X0.00015*%
%ADD161R,0.03045X0.00015*%
%ADD162R,0.01005X0.00015*%
%ADD163R,0.00780X0.00015*%
%ADD164R,0.02505X0.00015*%
%ADD165R,0.03090X0.00015*%
%ADD166R,0.01050X0.00015*%
%ADD167R,0.00825X0.00015*%
%ADD168R,0.02550X0.00015*%
%ADD169R,0.03135X0.00015*%
%ADD170R,0.01095X0.00015*%
%ADD171R,0.00870X0.00015*%
%ADD172R,0.03165X0.00015*%
%ADD173R,0.01125X0.00015*%
%ADD174R,0.02625X0.00015*%
%ADD175R,0.03195X0.00015*%
%ADD176R,0.01140X0.00015*%
%ADD177R,0.00930X0.00015*%
%ADD178R,0.02655X0.00015*%
%ADD179R,0.03210X0.00015*%
%ADD180R,0.00960X0.00015*%
%ADD181R,0.03240X0.00015*%
%ADD182R,0.02700X0.00015*%
%ADD183R,0.03285X0.00015*%
%ADD184R,0.01245X0.00015*%
%ADD185R,0.02745X0.00015*%
%ADD186R,0.03330X0.00015*%
%ADD187R,0.02790X0.00015*%
%ADD188R,0.03360X0.00015*%
%ADD189R,0.01110X0.00015*%
%ADD190R,0.02835X0.00015*%
%ADD191R,0.03390X0.00015*%
%ADD192R,0.01335X0.00015*%
%ADD193R,0.01140X0.00015*%
%ADD194R,0.02865X0.00015*%
%ADD195R,0.03420X0.00015*%
%ADD196R,0.01155X0.00015*%
%ADD197R,0.04905X0.00015*%
%ADD198R,0.04920X0.00015*%
%ADD199R,0.02940X0.00015*%
%ADD200R,0.04950X0.00015*%
%ADD201R,0.02985X0.00015*%
%ADD202R,0.04965X0.00015*%
%ADD203R,0.01275X0.00015*%
%ADD204R,0.03015X0.00015*%
%ADD205R,0.04980X0.00015*%
%ADD206R,0.03045X0.00015*%
%ADD207R,0.05010X0.00015*%
%ADD208R,0.01335X0.00015*%
%ADD209R,0.03075X0.00015*%
%ADD210R,0.01350X0.00015*%
%ADD211R,0.03105X0.00015*%
%ADD212R,0.05040X0.00015*%
%ADD213R,0.01380X0.00015*%
%ADD214R,0.05040X0.00015*%
%ADD215R,0.01410X0.00015*%
%ADD216R,0.03180X0.00015*%
%ADD217R,0.05070X0.00015*%
%ADD218R,0.03225X0.00015*%
%ADD219R,0.03255X0.00015*%
%ADD220R,0.05085X0.00015*%
%ADD221R,0.01515X0.00015*%
%ADD222R,0.03300X0.00015*%
%ADD223R,0.05100X0.00015*%
%ADD224R,0.04935X0.00015*%
%ADD225R,0.05115X0.00015*%
%ADD226R,0.04995X0.00015*%
%ADD227R,0.05130X0.00015*%
%ADD228R,0.05010X0.00015*%
%ADD229R,0.05130X0.00015*%
%ADD230R,0.05010X0.00015*%
%ADD231R,0.05025X0.00015*%
%ADD232R,0.05040X0.00015*%
%ADD233R,0.05055X0.00015*%
%ADD234R,0.05130X0.00015*%
%ADD235R,0.05085X0.00015*%
%ADD236R,0.05115X0.00015*%
%ADD237R,0.05145X0.00015*%
%ADD238R,0.05160X0.00015*%
%ADD239R,0.05130X0.00015*%
%ADD240R,0.05190X0.00015*%
%ADD241R,0.05190X0.00015*%
%ADD242R,0.05205X0.00015*%
%ADD243R,0.05220X0.00015*%
%ADD244R,0.05070X0.00015*%
%ADD245R,0.05085X0.00015*%
%ADD246R,0.05205X0.00015*%
%ADD247R,0.05220X0.00015*%
%ADD248R,0.05055X0.00015*%
%ADD249R,0.05025X0.00015*%
%ADD250R,0.05205X0.00015*%
%ADD251R,0.05025X0.00015*%
%ADD252R,0.05190X0.00015*%
%ADD253R,0.05190X0.00015*%
%ADD254R,0.04995X0.00015*%
%ADD255R,0.05175X0.00015*%
%ADD256R,0.04950X0.00015*%
%ADD257R,0.05145X0.00015*%
%ADD258R,0.05145X0.00015*%
%ADD259R,0.04920X0.00015*%
%ADD260R,0.04905X0.00015*%
%ADD261R,0.04905X0.00015*%
%ADD262R,0.05115X0.00015*%
%ADD263R,0.04890X0.00015*%
%ADD264R,0.04890X0.00015*%
%ADD265R,0.04875X0.00015*%
%ADD266R,0.04845X0.00015*%
%ADD267R,0.04830X0.00015*%
%ADD268R,0.04830X0.00015*%
%ADD269R,0.05070X0.00015*%
%ADD270R,0.04830X0.00015*%
%ADD271R,0.04815X0.00015*%
%ADD272R,0.04800X0.00015*%
%ADD273R,0.04800X0.00015*%
%ADD274R,0.05010X0.00015*%
%ADD275R,0.04785X0.00015*%
%ADD276R,0.04770X0.00015*%
%ADD277R,0.04770X0.00015*%
%ADD278R,0.04755X0.00015*%
%ADD279R,0.04740X0.00015*%
%ADD280R,0.04725X0.00015*%
%ADD281R,0.04725X0.00015*%
%ADD282R,0.04980X0.00015*%
%ADD283R,0.04710X0.00015*%
%ADD284R,0.04725X0.00015*%
%ADD285R,0.04710X0.00015*%
%ADD286R,0.04695X0.00015*%
%ADD287R,0.04680X0.00015*%
%ADD288R,0.04695X0.00015*%
%ADD289R,0.04680X0.00015*%
%ADD290R,0.04905X0.00015*%
%ADD291R,0.04665X0.00015*%
%ADD292R,0.04650X0.00015*%
%ADD293R,0.04635X0.00015*%
%ADD294R,0.04620X0.00015*%
%ADD295R,0.04620X0.00015*%
%ADD296R,0.04890X0.00015*%
%ADD297R,0.04605X0.00015*%
%ADD298R,0.04605X0.00015*%
%ADD299R,0.04590X0.00015*%
%ADD300R,0.04845X0.00015*%
%ADD301R,0.04575X0.00015*%
%ADD302R,0.04590X0.00015*%
%ADD303R,0.04575X0.00015*%
%ADD304R,0.04845X0.00015*%
%ADD305R,0.04560X0.00015*%
%ADD306R,0.04545X0.00015*%
%ADD307R,0.04530X0.00015*%
%ADD308R,0.04515X0.00015*%
%ADD309R,0.04530X0.00015*%
%ADD310R,0.04500X0.00015*%
%ADD311R,0.04515X0.00015*%
%ADD312R,0.04785X0.00015*%
%ADD313R,0.04485X0.00015*%
%ADD314R,0.04755X0.00015*%
%ADD315R,0.04470X0.00015*%
%ADD316R,0.04740X0.00015*%
%ADD317R,0.04485X0.00015*%
%ADD318R,0.04755X0.00015*%
%ADD319R,0.04545X0.00015*%
%ADD320R,0.04695X0.00015*%
%ADD321R,0.04680X0.00015*%
%ADD322R,0.04665X0.00015*%
%ADD323R,0.04725X0.00015*%
%ADD324R,0.04680X0.00015*%
%ADD325R,0.04860X0.00015*%
%ADD326R,0.04740X0.00015*%
%ADD327R,0.04875X0.00015*%
%ADD328R,0.04965X0.00015*%
%ADD329R,0.04860X0.00015*%
%ADD330R,0.04995X0.00015*%
%ADD331R,0.04875X0.00015*%
%ADD332R,0.04980X0.00015*%
%ADD333R,0.05235X0.00015*%
%ADD334R,0.05235X0.00015*%
%ADD335R,0.05250X0.00015*%
%ADD336R,0.05280X0.00015*%
%ADD337R,0.05295X0.00015*%
%ADD338R,0.05325X0.00015*%
%ADD339R,0.05340X0.00015*%
%ADD340R,0.05235X0.00015*%
%ADD341R,0.05355X0.00015*%
%ADD342R,0.05370X0.00015*%
%ADD343R,0.05265X0.00015*%
%ADD344R,0.05370X0.00015*%
%ADD345R,0.05280X0.00015*%
%ADD346R,0.05385X0.00015*%
%ADD347R,0.05295X0.00015*%
%ADD348R,0.05400X0.00015*%
%ADD349R,0.05415X0.00015*%
%ADD350R,0.05310X0.00015*%
%ADD351R,0.05430X0.00015*%
%ADD352R,0.05445X0.00015*%
%ADD353R,0.05460X0.00015*%
%ADD354R,0.05355X0.00015*%
%ADD355R,0.05475X0.00015*%
%ADD356R,0.05505X0.00015*%
%ADD357R,0.05520X0.00015*%
%ADD358R,0.05535X0.00015*%
%ADD359R,0.05550X0.00015*%
%ADD360R,0.05550X0.00015*%
%ADD361R,0.05475X0.00015*%
%ADD362R,0.05490X0.00015*%
%ADD363R,0.05475X0.00015*%
%ADD364R,0.05385X0.00015*%
%ADD365R,0.05370X0.00015*%
%ADD366R,0.05325X0.00015*%
%ADD367R,0.05310X0.00015*%
%ADD368R,0.05265X0.00015*%
%ADD369R,0.05175X0.00015*%
%ADD370R,0.04980X0.00015*%
%ADD371R,0.04965X0.00015*%
%ADD372R,0.04860X0.00015*%
%ADD373R,0.04845X0.00015*%
%ADD374R,0.04815X0.00015*%
%ADD375R,0.04770X0.00015*%
%ADD376R,0.05295X0.00015*%
%ADD377R,0.04635X0.00015*%
%ADD378R,0.05610X0.00015*%
%ADD379R,0.05700X0.00015*%
%ADD380R,0.05760X0.00015*%
%ADD381R,0.05805X0.00015*%
%ADD382R,0.05850X0.00015*%
%ADD383R,0.05895X0.00015*%
%ADD384R,0.06000X0.00015*%
%ADD385R,0.06135X0.00015*%
%ADD386R,0.06225X0.00015*%
%ADD387R,0.06300X0.00015*%
%ADD388R,0.06330X0.00015*%
%ADD389R,0.06375X0.00015*%
%ADD390R,0.06450X0.00015*%
%ADD391R,0.06570X0.00015*%
%ADD392R,0.05565X0.00015*%
%ADD393R,0.06690X0.00015*%
%ADD394R,0.06735X0.00015*%
%ADD395R,0.05790X0.00015*%
%ADD396R,0.06765X0.00015*%
%ADD397R,0.05850X0.00015*%
%ADD398R,0.06780X0.00015*%
%ADD399R,0.05895X0.00015*%
%ADD400R,0.06795X0.00015*%
%ADD401R,0.05955X0.00015*%
%ADD402R,0.06810X0.00015*%
%ADD403R,0.06060X0.00015*%
%ADD404R,0.06195X0.00015*%
%ADD405R,0.06825X0.00015*%
%ADD406R,0.06330X0.00015*%
%ADD407R,0.06840X0.00015*%
%ADD408R,0.06390X0.00015*%
%ADD409R,0.06495X0.00015*%
%ADD410R,0.06840X0.00015*%
%ADD411R,0.06555X0.00015*%
%ADD412R,0.06825X0.00015*%
%ADD413R,0.06645X0.00015*%
%ADD414R,0.06825X0.00015*%
%ADD415R,0.06705X0.00015*%
%ADD416R,0.06705X0.00015*%
%ADD417R,0.06810X0.00015*%
%ADD418R,0.06720X0.00015*%
%ADD419R,0.06795X0.00015*%
%ADD420R,0.06750X0.00015*%
%ADD421R,0.06765X0.00015*%
%ADD422R,0.06795X0.00015*%
%ADD423R,0.06780X0.00015*%
%ADD424R,0.06780X0.00015*%
%ADD425R,0.06750X0.00015*%
%ADD426R,0.06720X0.00015*%
%ADD427R,0.06720X0.00015*%
%ADD428R,0.06705X0.00015*%
%ADD429R,0.06705X0.00015*%
%ADD430R,0.06690X0.00015*%
%ADD431R,0.06675X0.00015*%
%ADD432R,0.06690X0.00015*%
%ADD433R,0.06675X0.00015*%
%ADD434R,0.06675X0.00015*%
%ADD435R,0.06660X0.00015*%
%ADD436R,0.06675X0.00015*%
%ADD437R,0.06660X0.00015*%
%ADD438R,0.06660X0.00015*%
%ADD439R,0.06645X0.00015*%
%ADD440R,0.06630X0.00015*%
%ADD441R,0.06660X0.00015*%
%ADD442R,0.06630X0.00015*%
%ADD443R,0.06645X0.00015*%
%ADD444R,0.06735X0.00015*%
%ADD445R,0.06765X0.00015*%
%ADD446R,0.06780X0.00015*%
%ADD447R,0.06825X0.00015*%
%ADD448R,0.06855X0.00015*%
%ADD449R,0.06855X0.00015*%
%ADD450R,0.06870X0.00015*%
%ADD451R,0.06885X0.00015*%
%ADD452R,0.06525X0.00015*%
%ADD453R,0.06405X0.00015*%
%ADD454R,0.06255X0.00015*%
%ADD455R,0.06165X0.00015*%
%ADD456R,0.06870X0.00015*%
%ADD457R,0.06120X0.00015*%
%ADD458R,0.06885X0.00015*%
%ADD459R,0.06060X0.00015*%
%ADD460R,0.06015X0.00015*%
%ADD461R,0.05910X0.00015*%
%ADD462R,0.05670X0.00015*%
%ADD463R,0.05595X0.00015*%
%ADD464R,0.06585X0.00015*%
%ADD465R,0.05160X0.00015*%
%ADD466R,0.06390X0.00015*%
%ADD467R,0.05025X0.00015*%
%ADD468R,0.06330X0.00015*%
%ADD469R,0.06075X0.00015*%
%ADD470R,0.05820X0.00015*%
%ADD471R,0.05775X0.00015*%
%ADD472R,0.05685X0.00015*%
%ADD473R,0.05460X0.00015*%
%ADD474R,0.04860X0.00015*%
%ADD475R,0.04935X0.00015*%
%ADD476R,0.05160X0.00015*%
%ADD477R,0.05325X0.00015*%
%ADD478R,0.05340X0.00015*%
%ADD479R,0.05355X0.00015*%
%ADD480R,0.05430X0.00015*%
%ADD481R,0.05535X0.00015*%
%ADD482R,0.05595X0.00015*%
%ADD483R,0.05640X0.00015*%
%ADD484R,0.05640X0.00015*%
%ADD485R,0.05670X0.00015*%
%ADD486R,0.05685X0.00015*%
%ADD487R,0.05700X0.00015*%
%ADD488R,0.05715X0.00015*%
%ADD489R,0.05715X0.00015*%
%ADD490R,0.05730X0.00015*%
%ADD491R,0.05745X0.00015*%
%ADD492R,0.05760X0.00015*%
%ADD493R,0.06000X0.00015*%
%ADD494R,0.06105X0.00015*%
%ADD495R,0.06180X0.00015*%
%ADD496R,0.06210X0.00015*%
%ADD497R,0.12690X0.00015*%
%ADD498R,0.12675X0.00015*%
%ADD499R,0.12660X0.00015*%
%ADD500R,0.12660X0.00015*%
%ADD501R,0.12645X0.00015*%
%ADD502R,0.12615X0.00015*%
%ADD503R,0.12600X0.00015*%
%ADD504R,0.12585X0.00015*%
%ADD505R,0.12555X0.00015*%
%ADD506R,0.12540X0.00015*%
%ADD507R,0.12525X0.00015*%
%ADD508R,0.12510X0.00015*%
%ADD509R,0.12510X0.00015*%
%ADD510R,0.12480X0.00015*%
%ADD511R,0.12450X0.00015*%
%ADD512R,0.12435X0.00015*%
%ADD513R,0.12420X0.00015*%
%ADD514R,0.12390X0.00015*%
%ADD515R,0.12375X0.00015*%
%ADD516R,0.12360X0.00015*%
%ADD517R,0.12330X0.00015*%
%ADD518R,0.12300X0.00015*%
%ADD519R,0.12285X0.00015*%
%ADD520R,0.12270X0.00015*%
%ADD521R,0.12255X0.00015*%
%ADD522R,0.12240X0.00015*%
%ADD523R,0.12225X0.00015*%
%ADD524R,0.12195X0.00015*%
%ADD525R,0.12165X0.00015*%
%ADD526R,0.12150X0.00015*%
%ADD527R,0.12135X0.00015*%
%ADD528R,0.12120X0.00015*%
%ADD529R,0.12090X0.00015*%
%ADD530R,0.12075X0.00015*%
%ADD531R,0.12060X0.00015*%
%ADD532R,0.12045X0.00015*%
%ADD533R,0.12015X0.00015*%
%ADD534R,0.12000X0.00015*%
%ADD535R,0.11985X0.00015*%
%ADD536R,0.11955X0.00015*%
%ADD537R,0.11940X0.00015*%
%ADD538R,0.11925X0.00015*%
%ADD539R,0.11910X0.00015*%
%ADD540R,0.11910X0.00015*%
%ADD541R,0.11880X0.00015*%
%ADD542R,0.11850X0.00015*%
%ADD543R,0.11835X0.00015*%
%ADD544R,0.11805X0.00015*%
%ADD545R,0.11775X0.00015*%
%ADD546R,0.11760X0.00015*%
%ADD547R,0.11745X0.00015*%
%ADD548R,0.11730X0.00015*%
%ADD549R,0.11700X0.00015*%
%ADD550R,0.11700X0.00015*%
%ADD551R,0.11685X0.00015*%
%ADD552R,0.11655X0.00015*%
%ADD553R,0.11640X0.00015*%
%ADD554R,0.11625X0.00015*%
%ADD555R,0.11625X0.00015*%
%ADD556R,0.11670X0.00015*%
%ADD557R,0.11715X0.00015*%
%ADD558R,0.11790X0.00015*%
%ADD559R,0.11820X0.00015*%
%ADD560R,0.11820X0.00015*%
%ADD561R,0.11880X0.00015*%
%ADD562R,0.11895X0.00015*%
%ADD563R,0.11970X0.00015*%
%ADD564R,0.12045X0.00015*%
%ADD565R,0.12075X0.00015*%
%ADD566R,0.12105X0.00015*%
%ADD567R,0.12135X0.00015*%
%ADD568R,0.12165X0.00015*%
%ADD569R,0.12180X0.00015*%
%ADD570R,0.12195X0.00015*%
%ADD571R,0.12210X0.00015*%
%ADD572R,0.12225X0.00015*%
%ADD573R,0.12255X0.00015*%
%ADD574R,0.12360X0.00015*%
%ADD575R,0.12390X0.00015*%
%ADD576R,0.12405X0.00015*%
%ADD577R,0.12435X0.00015*%
%ADD578R,0.12480X0.00015*%
%ADD579R,0.12480X0.00015*%
%ADD580R,0.12510X0.00015*%
%ADD581R,0.12570X0.00015*%
%ADD582R,0.12630X0.00015*%
%ADD583R,0.12675X0.00015*%
%ADD584R,0.12705X0.00015*%
%ADD585R,0.12735X0.00015*%
%ADD586R,0.12750X0.00015*%
%ADD587R,0.12780X0.00015*%
%ADD588R,0.12795X0.00015*%
%ADD589R,0.12810X0.00015*%
%ADD590R,0.12840X0.00015*%
%ADD591R,0.12855X0.00015*%
%ADD592R,0.12885X0.00015*%
%ADD593R,0.12900X0.00015*%
%ADD594R,0.12915X0.00015*%
%ADD595R,0.12945X0.00015*%
%ADD596R,0.12960X0.00015*%
%ADD597R,0.12990X0.00015*%
%ADD598R,0.13005X0.00015*%
%ADD599R,0.13020X0.00015*%
%ADD600R,0.13035X0.00015*%
%ADD601R,0.13065X0.00015*%
%ADD602R,0.13080X0.00015*%
%ADD603R,0.13110X0.00015*%
%ADD604R,0.13125X0.00015*%
%ADD605R,0.13155X0.00015*%
%ADD606R,0.13170X0.00015*%
%ADD607R,0.13200X0.00015*%
%ADD608R,0.13230X0.00015*%
%ADD609R,0.13260X0.00015*%
%ADD610R,0.13290X0.00015*%
%ADD611R,0.13320X0.00015*%
%ADD612R,0.13350X0.00015*%
%ADD613R,0.13365X0.00015*%
%ADD614R,0.13395X0.00015*%
%ADD615R,0.13425X0.00015*%
%ADD616R,0.13455X0.00015*%
%ADD617R,0.13470X0.00015*%
%ADD618R,0.13500X0.00015*%
%ADD619R,0.13530X0.00015*%
%ADD620R,0.13560X0.00015*%
%ADD621R,0.13575X0.00015*%
%ADD622R,0.13605X0.00015*%
%ADD623R,0.13635X0.00015*%
%ADD624R,0.13650X0.00015*%
%ADD625R,0.13680X0.00015*%
%ADD626R,0.13695X0.00015*%
%ADD627R,0.13725X0.00015*%
%ADD628R,0.13740X0.00015*%
%ADD629R,0.13770X0.00015*%
%ADD630R,0.13785X0.00015*%
%ADD631R,0.13800X0.00015*%
%ADD632R,0.13830X0.00015*%
%ADD633R,0.13860X0.00015*%
%ADD634R,0.13875X0.00015*%
%ADD635R,0.13905X0.00015*%
%ADD636R,0.13935X0.00015*%
%ADD637R,0.13950X0.00015*%
%ADD638R,0.13980X0.00015*%
%ADD639R,0.14010X0.00015*%
%ADD640R,0.14025X0.00015*%
%ADD641R,0.14055X0.00015*%
%ADD642R,0.14070X0.00015*%
%ADD643R,0.14085X0.00015*%
%ADD644R,0.14115X0.00015*%
%ADD645R,0.14145X0.00015*%
%ADD646R,0.14160X0.00015*%
%ADD647R,0.14190X0.00015*%
%ADD648R,0.14205X0.00015*%
%ADD649R,0.14220X0.00015*%
%ADD650R,0.14235X0.00015*%
%ADD651R,0.14265X0.00015*%
%ADD652R,0.14280X0.00015*%
%ADD653R,0.14295X0.00015*%
%ADD654R,0.14295X0.00015*%
%ADD655R,0.14250X0.00015*%
%ADD656R,0.14205X0.00015*%
%ADD657R,0.14175X0.00015*%
%ADD658R,0.14160X0.00015*%
%ADD659R,0.14130X0.00015*%
%ADD660R,0.14100X0.00015*%
%ADD661R,0.14040X0.00015*%
%ADD662R,0.14010X0.00015*%
%ADD663R,0.03465X0.00015*%
%ADD664R,0.10440X0.00015*%
%ADD665R,0.03420X0.00015*%
%ADD666R,0.10395X0.00015*%
%ADD667R,0.03375X0.00015*%
%ADD668R,0.10335X0.00015*%
%ADD669R,0.03570X0.00015*%
%ADD670R,0.06600X0.00015*%
%ADD671R,0.03525X0.00015*%
%ADD672R,0.03270X0.00015*%
%ADD673R,0.03495X0.00015*%
%ADD674R,0.03210X0.00015*%
%ADD675R,0.06480X0.00015*%
%ADD676R,0.03435X0.00015*%
%ADD677R,0.03165X0.00015*%
%ADD678R,0.03390X0.00015*%
%ADD679R,0.03120X0.00015*%
%ADD680R,0.06315X0.00015*%
%ADD681R,0.03345X0.00015*%
%ADD682R,0.03090X0.00015*%
%ADD683R,0.03075X0.00015*%
%ADD684R,0.06225X0.00015*%
%ADD685R,0.03270X0.00015*%
%ADD686R,0.06180X0.00015*%
%ADD687R,0.02970X0.00015*%
%ADD688R,0.06075X0.00015*%
%ADD689R,0.03195X0.00015*%
%ADD690R,0.02925X0.00015*%
%ADD691R,0.05985X0.00015*%
%ADD692R,0.03135X0.00015*%
%ADD693R,0.02850X0.00015*%
%ADD694R,0.05835X0.00015*%
%ADD695R,0.03030X0.00015*%
%ADD696R,0.02805X0.00015*%
%ADD697R,0.02730X0.00015*%
%ADD698R,0.05625X0.00015*%
%ADD699R,0.02925X0.00015*%
%ADD700R,0.02640X0.00015*%
%ADD701R,0.02595X0.00015*%
%ADD702R,0.02565X0.00015*%
%ADD703R,0.02760X0.00015*%
%ADD704R,0.02520X0.00015*%
%ADD705R,0.02730X0.00015*%
%ADD706R,0.02475X0.00015*%
%ADD707R,0.02685X0.00015*%
%ADD708R,0.02445X0.00015*%
%ADD709R,0.02400X0.00015*%
%ADD710R,0.02370X0.00015*%
%ADD711R,0.02565X0.00015*%
%ADD712R,0.02340X0.00015*%
%ADD713R,0.02325X0.00015*%
%ADD714R,0.02505X0.00015*%
%ADD715R,0.02280X0.00015*%
%ADD716R,0.02460X0.00015*%
%ADD717R,0.04560X0.00015*%
%ADD718R,0.02190X0.00015*%
%ADD719R,0.04440X0.00015*%
%ADD720R,0.02370X0.00015*%
%ADD721R,0.02145X0.00015*%
%ADD722R,0.04365X0.00015*%
%ADD723R,0.04320X0.00015*%
%ADD724R,0.02310X0.00015*%
%ADD725R,0.02100X0.00015*%
%ADD726R,0.04260X0.00015*%
%ADD727R,0.04200X0.00015*%
%ADD728R,0.02265X0.00015*%
%ADD729R,0.02040X0.00015*%
%ADD730R,0.04095X0.00015*%
%ADD731R,0.02220X0.00015*%
%ADD732R,0.03915X0.00015*%
%ADD733R,0.02175X0.00015*%
%ADD734R,0.03765X0.00015*%
%ADD735R,0.03675X0.00015*%
%ADD736R,0.01890X0.00015*%
%ADD737R,0.03615X0.00015*%
%ADD738R,0.02055X0.00015*%
%ADD739R,0.01860X0.00015*%
%ADD740R,0.03555X0.00015*%
%ADD741R,0.01815X0.00015*%
%ADD742R,0.03450X0.00015*%
%ADD743R,0.01725X0.00015*%
%ADD744R,0.03315X0.00015*%
%ADD745R,0.01905X0.00015*%
%ADD746R,0.01680X0.00015*%
%ADD747R,0.01650X0.00015*%
%ADD748R,0.01620X0.00015*%
%ADD749R,0.01590X0.00015*%
%ADD750R,0.01770X0.00015*%
%ADD751R,0.01560X0.00015*%
%ADD752R,0.03240X0.00015*%
%ADD753R,0.01740X0.00015*%
%ADD754R,0.01665X0.00015*%
%ADD755R,0.01455X0.00015*%
%ADD756R,0.01635X0.00015*%
%ADD757R,0.01410X0.00015*%
%ADD758R,0.01395X0.00015*%
%ADD759R,0.01365X0.00015*%
%ADD760R,0.01335X0.00015*%
%ADD761R,0.01290X0.00015*%
%ADD762R,0.03210X0.00015*%
%ADD763R,0.01455X0.00015*%
%ADD764R,0.01185X0.00015*%
%ADD765R,0.01290X0.00015*%
%ADD766R,0.01110X0.00015*%
%ADD767R,0.01260X0.00015*%
%ADD768R,0.03180X0.00015*%
%ADD769R,0.00975X0.00015*%
%ADD770R,0.03150X0.00015*%
%ADD771R,0.00885X0.00015*%
%ADD772R,0.03150X0.00015*%
%ADD773R,0.01050X0.00015*%
%ADD774R,0.00795X0.00015*%
%ADD775R,0.00885X0.00015*%
%ADD776R,0.00690X0.00015*%
%ADD777R,0.00840X0.00015*%
%ADD778R,0.00570X0.00015*%
%ADD779R,0.00525X0.00015*%
%ADD780R,0.03105X0.00015*%
%ADD781R,0.00660X0.00015*%
%ADD782R,0.00615X0.00015*%
%ADD783R,0.00420X0.00015*%
%ADD784R,0.00555X0.00015*%
%ADD785R,0.00390X0.00015*%
%ADD786R,0.00525X0.00015*%
%ADD787R,0.00360X0.00015*%
%ADD788R,0.00495X0.00015*%
%ADD789R,0.03075X0.00015*%
%ADD790R,0.00450X0.00015*%
%ADD791R,0.00225X0.00015*%
%ADD792R,0.00345X0.00015*%
%ADD793R,0.00255X0.00015*%
%ADD794R,0.03060X0.00015*%
%ADD795R,0.00180X0.00015*%
%ADD796R,0.00075X0.00015*%
%ADD797R,0.03000X0.00015*%
%ADD798R,0.02955X0.00015*%
%ADD799R,0.02940X0.00015*%
%ADD800R,0.02940X0.00015*%
%ADD801R,0.02910X0.00015*%
%ADD802R,0.02910X0.00015*%
%ADD803R,0.02865X0.00015*%
%ADD804R,0.02805X0.00015*%
%ADD805R,0.02775X0.00015*%
%ADD806R,0.02760X0.00015*%
%ADD807R,0.02655X0.00015*%
%ADD808R,0.02640X0.00015*%
%ADD809R,0.02610X0.00015*%
%ADD810R,0.02595X0.00015*%
%ADD811R,0.02535X0.00015*%
%ADD812R,0.02475X0.00015*%
%ADD813R,0.02175X0.00015*%
%ADD814R,0.01575X0.00015*%
%ADD815C,0.00300*%
%ADD816C,0.02600*%
%ADD817C,0.00400*%
%ADD818C,0.00800*%
%ADD819C,0.00700*%
%ADD820C,0.00600*%
%ADD821C,0.00100*%
%ADD822C,0.01000*%
%ADD823R,0.00787X0.05512*%
D10*
X0213938Y0185920D02*
X0213938Y0190424D01*
X0214688Y0188172D02*
X0216940Y0185920D01*
X0218542Y0186670D02*
X0219292Y0185920D01*
X0220794Y0185920D01*
X0221544Y0186670D01*
X0221544Y0188172D01*
X0220794Y0188922D01*
X0220043Y0188922D01*
X0218542Y0188172D01*
X0218542Y0190424D01*
X0221544Y0190424D01*
X0216940Y0190424D02*
X0213938Y0187421D01*
X0214340Y0235120D02*
X0212088Y0237372D01*
X0211338Y0236621D02*
X0214340Y0239624D01*
X0215942Y0238122D02*
X0217443Y0239624D01*
X0217443Y0235120D01*
X0215942Y0235120D02*
X0218944Y0235120D01*
X0220546Y0237372D02*
X0223548Y0237372D01*
X0222797Y0239624D02*
X0220546Y0237372D01*
X0222797Y0235120D02*
X0222797Y0239624D01*
X0211338Y0239624D02*
X0211338Y0235120D01*
X0214538Y0284020D02*
X0214538Y0288524D01*
X0215288Y0286272D02*
X0217540Y0284020D01*
X0219142Y0284020D02*
X0222144Y0284020D01*
X0220643Y0284020D02*
X0220643Y0288524D01*
X0219142Y0287022D01*
X0217540Y0288524D02*
X0214538Y0285521D01*
X0214790Y0333520D02*
X0212538Y0335772D01*
X0211788Y0335021D02*
X0214790Y0338024D01*
X0216392Y0336522D02*
X0217893Y0338024D01*
X0217893Y0333520D01*
X0216392Y0333520D02*
X0219394Y0333520D01*
X0220996Y0334270D02*
X0223998Y0337273D01*
X0223998Y0334270D01*
X0223247Y0333520D01*
X0221746Y0333520D01*
X0220996Y0334270D01*
X0220996Y0337273D01*
X0221746Y0338024D01*
X0223247Y0338024D01*
X0223998Y0337273D01*
X0211788Y0338024D02*
X0211788Y0333520D01*
X0214688Y0382620D02*
X0214688Y0387124D01*
X0215438Y0384872D02*
X0217690Y0382620D01*
X0219292Y0383370D02*
X0220042Y0382620D01*
X0221544Y0382620D01*
X0222294Y0383370D01*
X0222294Y0386373D01*
X0221544Y0387124D01*
X0220042Y0387124D01*
X0219292Y0386373D01*
X0219292Y0385622D01*
X0220042Y0384872D01*
X0222294Y0384872D01*
X0217690Y0387124D02*
X0214688Y0384121D01*
X0236603Y0412539D02*
X0239606Y0417043D01*
X0241207Y0415542D02*
X0242708Y0417043D01*
X0242708Y0412539D01*
X0241207Y0412539D02*
X0244209Y0412539D01*
X0239606Y0412539D02*
X0236603Y0417043D01*
X0256105Y0434524D02*
X0259255Y0440429D01*
X0252955Y0440429D01*
X0256105Y0434524D01*
X0255895Y0434918D02*
X0256315Y0434918D01*
X0256581Y0435417D02*
X0255629Y0435417D01*
X0255363Y0435915D02*
X0256847Y0435915D01*
X0257113Y0436414D02*
X0255097Y0436414D01*
X0254831Y0436912D02*
X0257379Y0436912D01*
X0257645Y0437411D02*
X0254565Y0437411D01*
X0254299Y0437909D02*
X0257911Y0437909D01*
X0258176Y0438408D02*
X0254034Y0438408D01*
X0253768Y0438906D02*
X0258442Y0438906D01*
X0258708Y0439405D02*
X0253502Y0439405D01*
X0253236Y0439903D02*
X0258974Y0439903D01*
X0259240Y0440402D02*
X0252970Y0440402D01*
X0297538Y0386774D02*
X0297538Y0382270D01*
X0297538Y0383771D02*
X0300540Y0386774D01*
X0302142Y0386023D02*
X0302142Y0385272D01*
X0302892Y0384522D01*
X0304394Y0384522D01*
X0305144Y0383771D01*
X0305144Y0383020D01*
X0304394Y0382270D01*
X0302892Y0382270D01*
X0302142Y0383020D01*
X0302142Y0383771D01*
X0302892Y0384522D01*
X0304394Y0384522D02*
X0305144Y0385272D01*
X0305144Y0386023D01*
X0304394Y0386774D01*
X0302892Y0386774D01*
X0302142Y0386023D01*
X0300540Y0382270D02*
X0298288Y0384522D01*
X0297090Y0338024D02*
X0294088Y0335021D01*
X0294838Y0335772D02*
X0297090Y0333520D01*
X0298692Y0333520D02*
X0301694Y0333520D01*
X0300193Y0333520D02*
X0300193Y0338024D01*
X0298692Y0336522D01*
X0303296Y0336522D02*
X0304797Y0338024D01*
X0304797Y0333520D01*
X0303296Y0333520D02*
X0306298Y0333520D01*
X0294088Y0333520D02*
X0294088Y0338024D01*
X0297138Y0288874D02*
X0297138Y0284370D01*
X0297138Y0285871D02*
X0300140Y0288874D01*
X0301742Y0288123D02*
X0302492Y0288874D01*
X0303994Y0288874D01*
X0304744Y0288123D01*
X0304744Y0287372D01*
X0301742Y0284370D01*
X0304744Y0284370D01*
X0300140Y0284370D02*
X0297888Y0286622D01*
X0297590Y0239524D02*
X0294588Y0236521D01*
X0295338Y0237272D02*
X0297590Y0235020D01*
X0299192Y0235020D02*
X0302194Y0235020D01*
X0300693Y0235020D02*
X0300693Y0239524D01*
X0299192Y0238022D01*
X0303796Y0237272D02*
X0303796Y0239524D01*
X0306798Y0239524D01*
X0306047Y0238022D02*
X0306798Y0237272D01*
X0306798Y0235770D01*
X0306047Y0235020D01*
X0304546Y0235020D01*
X0303796Y0235770D01*
X0303796Y0237272D02*
X0305297Y0238022D01*
X0306047Y0238022D01*
X0294588Y0239524D02*
X0294588Y0235020D01*
X0297688Y0190824D02*
X0297688Y0186320D01*
X0297688Y0187821D02*
X0300690Y0190824D01*
X0302292Y0188572D02*
X0304544Y0188572D01*
X0305294Y0187821D01*
X0305294Y0187070D01*
X0304544Y0186320D01*
X0303042Y0186320D01*
X0302292Y0187070D01*
X0302292Y0188572D01*
X0303793Y0190073D01*
X0305294Y0190824D01*
X0300690Y0186320D02*
X0298438Y0188572D01*
X0340930Y0134390D02*
X0363946Y0134390D01*
X0363946Y0126650D01*
X0340930Y0126650D01*
X0340930Y0134390D01*
X0304452Y0116318D02*
X0303785Y0116986D01*
X0302451Y0116986D01*
X0301783Y0116318D01*
X0304452Y0116318D02*
X0304452Y0115651D01*
X0301783Y0112982D01*
X0304452Y0112982D01*
X0303118Y0106986D02*
X0303118Y0102982D01*
X0304452Y0102982D02*
X0301783Y0102982D01*
X0301783Y0105651D02*
X0303118Y0106986D01*
X0388670Y0128650D02*
X0388670Y0136390D01*
X0404205Y0136390D01*
X0404205Y0128650D01*
X0388670Y0128650D01*
X0388670Y0136400D02*
X0388670Y0144140D01*
X0404205Y0144140D01*
X0404205Y0136400D01*
X0388670Y0136400D01*
X0423818Y0141787D02*
X0423818Y0126252D01*
X0431558Y0126252D01*
X0431558Y0141787D01*
X0423818Y0141787D01*
X0458170Y0140640D02*
X0458170Y0132900D01*
X0473705Y0132900D01*
X0473705Y0140640D01*
X0458170Y0140640D01*
X0460487Y0111390D02*
X0447888Y0111390D01*
X0447888Y0104650D01*
X0460487Y0104650D01*
X0460487Y0111390D01*
X0497638Y0137650D02*
X0497638Y0144390D01*
X0510237Y0144390D01*
X0510237Y0137650D01*
X0497638Y0137650D01*
X0517420Y0128890D02*
X0517420Y0121150D01*
X0532955Y0121150D01*
X0532955Y0128890D01*
X0517420Y0128890D01*
X0517388Y0121140D02*
X0529987Y0121140D01*
X0529987Y0114400D01*
X0517388Y0114400D01*
X0517388Y0121140D01*
X0518420Y0137500D02*
X0518420Y0145240D01*
X0533955Y0145240D01*
X0533955Y0137500D01*
X0518420Y0137500D01*
X0521388Y0145200D02*
X0521388Y0151940D01*
X0533987Y0151940D01*
X0533987Y0145200D01*
X0521388Y0145200D01*
X0522689Y0160570D02*
X0522689Y0165074D01*
X0521188Y0165074D02*
X0524190Y0165074D01*
X0525792Y0165074D02*
X0528044Y0165074D01*
X0528794Y0164323D01*
X0528794Y0162822D01*
X0528044Y0162071D01*
X0525792Y0162071D01*
X0525792Y0160570D02*
X0525792Y0165074D01*
X0530396Y0163572D02*
X0531897Y0165074D01*
X0531897Y0160570D01*
X0530396Y0160570D02*
X0533398Y0160570D01*
X0521714Y0171570D02*
X0521716Y0171707D01*
X0521722Y0171845D01*
X0521732Y0171982D01*
X0521746Y0172118D01*
X0521764Y0172255D01*
X0521786Y0172390D01*
X0521812Y0172525D01*
X0521841Y0172659D01*
X0521875Y0172793D01*
X0521912Y0172925D01*
X0521954Y0173056D01*
X0521999Y0173186D01*
X0522048Y0173314D01*
X0522100Y0173441D01*
X0522157Y0173566D01*
X0522216Y0173690D01*
X0522280Y0173812D01*
X0522347Y0173932D01*
X0522417Y0174050D01*
X0522491Y0174166D01*
X0522568Y0174280D01*
X0522649Y0174391D01*
X0522732Y0174500D01*
X0522819Y0174607D01*
X0522909Y0174710D01*
X0523002Y0174812D01*
X0523098Y0174910D01*
X0523196Y0175006D01*
X0523298Y0175099D01*
X0523401Y0175189D01*
X0523508Y0175276D01*
X0523617Y0175359D01*
X0523728Y0175440D01*
X0523842Y0175517D01*
X0523958Y0175591D01*
X0524076Y0175661D01*
X0524196Y0175728D01*
X0524318Y0175792D01*
X0524442Y0175851D01*
X0524567Y0175908D01*
X0524694Y0175960D01*
X0524822Y0176009D01*
X0524952Y0176054D01*
X0525083Y0176096D01*
X0525215Y0176133D01*
X0525349Y0176167D01*
X0525483Y0176196D01*
X0525618Y0176222D01*
X0525753Y0176244D01*
X0525890Y0176262D01*
X0526026Y0176276D01*
X0526163Y0176286D01*
X0526301Y0176292D01*
X0526438Y0176294D01*
X0526575Y0176292D01*
X0526713Y0176286D01*
X0526850Y0176276D01*
X0526986Y0176262D01*
X0527123Y0176244D01*
X0527258Y0176222D01*
X0527393Y0176196D01*
X0527527Y0176167D01*
X0527661Y0176133D01*
X0527793Y0176096D01*
X0527924Y0176054D01*
X0528054Y0176009D01*
X0528182Y0175960D01*
X0528309Y0175908D01*
X0528434Y0175851D01*
X0528558Y0175792D01*
X0528680Y0175728D01*
X0528800Y0175661D01*
X0528918Y0175591D01*
X0529034Y0175517D01*
X0529148Y0175440D01*
X0529259Y0175359D01*
X0529368Y0175276D01*
X0529475Y0175189D01*
X0529578Y0175099D01*
X0529680Y0175006D01*
X0529778Y0174910D01*
X0529874Y0174812D01*
X0529967Y0174710D01*
X0530057Y0174607D01*
X0530144Y0174500D01*
X0530227Y0174391D01*
X0530308Y0174280D01*
X0530385Y0174166D01*
X0530459Y0174050D01*
X0530529Y0173932D01*
X0530596Y0173812D01*
X0530660Y0173690D01*
X0530719Y0173566D01*
X0530776Y0173441D01*
X0530828Y0173314D01*
X0530877Y0173186D01*
X0530922Y0173056D01*
X0530964Y0172925D01*
X0531001Y0172793D01*
X0531035Y0172659D01*
X0531064Y0172525D01*
X0531090Y0172390D01*
X0531112Y0172255D01*
X0531130Y0172118D01*
X0531144Y0171982D01*
X0531154Y0171845D01*
X0531160Y0171707D01*
X0531162Y0171570D01*
X0531160Y0171433D01*
X0531154Y0171295D01*
X0531144Y0171158D01*
X0531130Y0171022D01*
X0531112Y0170885D01*
X0531090Y0170750D01*
X0531064Y0170615D01*
X0531035Y0170481D01*
X0531001Y0170347D01*
X0530964Y0170215D01*
X0530922Y0170084D01*
X0530877Y0169954D01*
X0530828Y0169826D01*
X0530776Y0169699D01*
X0530719Y0169574D01*
X0530660Y0169450D01*
X0530596Y0169328D01*
X0530529Y0169208D01*
X0530459Y0169090D01*
X0530385Y0168974D01*
X0530308Y0168860D01*
X0530227Y0168749D01*
X0530144Y0168640D01*
X0530057Y0168533D01*
X0529967Y0168430D01*
X0529874Y0168328D01*
X0529778Y0168230D01*
X0529680Y0168134D01*
X0529578Y0168041D01*
X0529475Y0167951D01*
X0529368Y0167864D01*
X0529259Y0167781D01*
X0529148Y0167700D01*
X0529034Y0167623D01*
X0528918Y0167549D01*
X0528800Y0167479D01*
X0528680Y0167412D01*
X0528558Y0167348D01*
X0528434Y0167289D01*
X0528309Y0167232D01*
X0528182Y0167180D01*
X0528054Y0167131D01*
X0527924Y0167086D01*
X0527793Y0167044D01*
X0527661Y0167007D01*
X0527527Y0166973D01*
X0527393Y0166944D01*
X0527258Y0166918D01*
X0527123Y0166896D01*
X0526986Y0166878D01*
X0526850Y0166864D01*
X0526713Y0166854D01*
X0526575Y0166848D01*
X0526438Y0166846D01*
X0526301Y0166848D01*
X0526163Y0166854D01*
X0526026Y0166864D01*
X0525890Y0166878D01*
X0525753Y0166896D01*
X0525618Y0166918D01*
X0525483Y0166944D01*
X0525349Y0166973D01*
X0525215Y0167007D01*
X0525083Y0167044D01*
X0524952Y0167086D01*
X0524822Y0167131D01*
X0524694Y0167180D01*
X0524567Y0167232D01*
X0524442Y0167289D01*
X0524318Y0167348D01*
X0524196Y0167412D01*
X0524076Y0167479D01*
X0523958Y0167549D01*
X0523842Y0167623D01*
X0523728Y0167700D01*
X0523617Y0167781D01*
X0523508Y0167864D01*
X0523401Y0167951D01*
X0523298Y0168041D01*
X0523196Y0168134D01*
X0523098Y0168230D01*
X0523002Y0168328D01*
X0522909Y0168430D01*
X0522819Y0168533D01*
X0522732Y0168640D01*
X0522649Y0168749D01*
X0522568Y0168860D01*
X0522491Y0168974D01*
X0522417Y0169090D01*
X0522347Y0169208D01*
X0522280Y0169328D01*
X0522216Y0169450D01*
X0522157Y0169574D01*
X0522100Y0169699D01*
X0522048Y0169826D01*
X0521999Y0169954D01*
X0521954Y0170084D01*
X0521912Y0170215D01*
X0521875Y0170347D01*
X0521841Y0170481D01*
X0521812Y0170615D01*
X0521786Y0170750D01*
X0521764Y0170885D01*
X0521746Y0171022D01*
X0521732Y0171158D01*
X0521722Y0171295D01*
X0521716Y0171433D01*
X0521714Y0171570D01*
X0549938Y0156774D02*
X0551439Y0156774D01*
X0550688Y0156774D02*
X0550688Y0152270D01*
X0549938Y0152270D02*
X0551439Y0152270D01*
X0553007Y0153020D02*
X0553758Y0152270D01*
X0555259Y0152270D01*
X0556009Y0153020D01*
X0557611Y0154522D02*
X0560613Y0154522D01*
X0559863Y0156774D02*
X0557611Y0154522D01*
X0556009Y0156023D02*
X0555259Y0156774D01*
X0553758Y0156774D01*
X0553007Y0156023D01*
X0553007Y0153020D01*
X0559863Y0152270D02*
X0559863Y0156774D01*
X0593338Y0170570D02*
X0593338Y0178820D01*
X0600588Y0178820D01*
X0600091Y0177268D01*
X0599387Y0175798D01*
X0598489Y0174438D01*
X0597413Y0173214D01*
X0596180Y0172148D01*
X0594813Y0171261D01*
X0593338Y0170570D01*
X0593338Y0170707D02*
X0593631Y0170707D01*
X0593338Y0171206D02*
X0594694Y0171206D01*
X0595495Y0171704D02*
X0593338Y0171704D01*
X0593338Y0172203D02*
X0596243Y0172203D01*
X0596820Y0172701D02*
X0593338Y0172701D01*
X0593338Y0173200D02*
X0597396Y0173200D01*
X0597839Y0173698D02*
X0593338Y0173698D01*
X0593338Y0174197D02*
X0598277Y0174197D01*
X0598659Y0174695D02*
X0593338Y0174695D01*
X0593338Y0175194D02*
X0598988Y0175194D01*
X0599317Y0175692D02*
X0593338Y0175692D01*
X0593338Y0176191D02*
X0599575Y0176191D01*
X0599814Y0176689D02*
X0593338Y0176689D01*
X0593338Y0177188D02*
X0600053Y0177188D01*
X0600225Y0177686D02*
X0593338Y0177686D01*
X0593338Y0178185D02*
X0600385Y0178185D01*
X0600544Y0178683D02*
X0593338Y0178683D01*
X0600588Y0178819D02*
X0600515Y0178533D01*
X0600434Y0178249D01*
X0600347Y0177967D01*
X0600252Y0177687D01*
X0600151Y0177409D01*
X0600043Y0177135D01*
X0599928Y0176862D01*
X0599807Y0176593D01*
X0599679Y0176327D01*
X0599545Y0176064D01*
X0599404Y0175804D01*
X0599257Y0175548D01*
X0599104Y0175295D01*
X0598945Y0175046D01*
X0598779Y0174801D01*
X0598608Y0174561D01*
X0598431Y0174324D01*
X0598248Y0174092D01*
X0598060Y0173865D01*
X0597866Y0173642D01*
X0597667Y0173424D01*
X0597462Y0173211D01*
X0597252Y0173003D01*
X0597038Y0172800D01*
X0596818Y0172602D01*
X0596594Y0172410D01*
X0596365Y0172224D01*
X0596131Y0172043D01*
X0595893Y0171867D01*
X0595651Y0171698D01*
X0595405Y0171535D01*
X0595155Y0171377D01*
X0594901Y0171226D01*
X0594644Y0171081D01*
X0594383Y0170943D01*
X0594119Y0170811D01*
X0593852Y0170685D01*
X0593581Y0170566D01*
X0593308Y0170453D01*
X0593032Y0170347D01*
X0592754Y0170248D01*
X0592473Y0170156D01*
X0592191Y0170071D01*
X0591906Y0169992D01*
X0591619Y0169921D01*
X0591331Y0169857D01*
X0591041Y0169799D01*
X0590750Y0169749D01*
X0590458Y0169706D01*
X0590165Y0169670D01*
X0589871Y0169641D01*
X0589576Y0169620D01*
X0589281Y0169605D01*
X0588986Y0169598D01*
X0588690Y0169598D01*
X0588395Y0169605D01*
X0588100Y0169620D01*
X0587805Y0169641D01*
X0587511Y0169670D01*
X0587218Y0169706D01*
X0586926Y0169749D01*
X0586635Y0169799D01*
X0586345Y0169857D01*
X0586057Y0169921D01*
X0585770Y0169992D01*
X0585485Y0170071D01*
X0585203Y0170156D01*
X0584922Y0170248D01*
X0584644Y0170347D01*
X0584368Y0170453D01*
X0584095Y0170566D01*
X0583824Y0170685D01*
X0583557Y0170811D01*
X0583293Y0170943D01*
X0583032Y0171081D01*
X0582775Y0171226D01*
X0582521Y0171377D01*
X0582271Y0171535D01*
X0582025Y0171698D01*
X0581783Y0171867D01*
X0581545Y0172043D01*
X0581311Y0172224D01*
X0581082Y0172410D01*
X0580858Y0172602D01*
X0580638Y0172800D01*
X0580424Y0173003D01*
X0580214Y0173211D01*
X0580009Y0173424D01*
X0579810Y0173642D01*
X0579616Y0173865D01*
X0579428Y0174092D01*
X0579245Y0174324D01*
X0579068Y0174561D01*
X0578897Y0174801D01*
X0578731Y0175046D01*
X0578572Y0175295D01*
X0578419Y0175548D01*
X0578272Y0175804D01*
X0578131Y0176064D01*
X0577997Y0176327D01*
X0577869Y0176593D01*
X0577748Y0176862D01*
X0577633Y0177135D01*
X0577525Y0177409D01*
X0577424Y0177687D01*
X0577329Y0177967D01*
X0577242Y0178249D01*
X0577161Y0178533D01*
X0577088Y0178819D01*
X0577088Y0184820D02*
X0577161Y0185106D01*
X0577242Y0185390D01*
X0577329Y0185672D01*
X0577424Y0185952D01*
X0577525Y0186230D01*
X0577633Y0186504D01*
X0577748Y0186777D01*
X0577869Y0187046D01*
X0577997Y0187312D01*
X0578131Y0187575D01*
X0578272Y0187835D01*
X0578419Y0188091D01*
X0578572Y0188344D01*
X0578731Y0188593D01*
X0578897Y0188838D01*
X0579068Y0189078D01*
X0579245Y0189315D01*
X0579428Y0189547D01*
X0579616Y0189774D01*
X0579810Y0189997D01*
X0580009Y0190215D01*
X0580214Y0190428D01*
X0580424Y0190636D01*
X0580638Y0190839D01*
X0580858Y0191037D01*
X0581082Y0191229D01*
X0581311Y0191415D01*
X0581545Y0191596D01*
X0581783Y0191772D01*
X0582025Y0191941D01*
X0582271Y0192104D01*
X0582521Y0192262D01*
X0582775Y0192413D01*
X0583032Y0192558D01*
X0583293Y0192696D01*
X0583557Y0192828D01*
X0583824Y0192954D01*
X0584095Y0193073D01*
X0584368Y0193186D01*
X0584644Y0193292D01*
X0584922Y0193391D01*
X0585203Y0193483D01*
X0585485Y0193568D01*
X0585770Y0193647D01*
X0586057Y0193718D01*
X0586345Y0193782D01*
X0586635Y0193840D01*
X0586926Y0193890D01*
X0587218Y0193933D01*
X0587511Y0193969D01*
X0587805Y0193998D01*
X0588100Y0194019D01*
X0588395Y0194034D01*
X0588690Y0194041D01*
X0588986Y0194041D01*
X0589281Y0194034D01*
X0589576Y0194019D01*
X0589871Y0193998D01*
X0590165Y0193969D01*
X0590458Y0193933D01*
X0590750Y0193890D01*
X0591041Y0193840D01*
X0591331Y0193782D01*
X0591619Y0193718D01*
X0591906Y0193647D01*
X0592191Y0193568D01*
X0592473Y0193483D01*
X0592754Y0193391D01*
X0593032Y0193292D01*
X0593308Y0193186D01*
X0593581Y0193073D01*
X0593852Y0192954D01*
X0594119Y0192828D01*
X0594383Y0192696D01*
X0594644Y0192558D01*
X0594901Y0192413D01*
X0595155Y0192262D01*
X0595405Y0192104D01*
X0595651Y0191941D01*
X0595893Y0191772D01*
X0596131Y0191596D01*
X0596365Y0191415D01*
X0596594Y0191229D01*
X0596818Y0191037D01*
X0597038Y0190839D01*
X0597252Y0190636D01*
X0597462Y0190428D01*
X0597667Y0190215D01*
X0597866Y0189997D01*
X0598060Y0189774D01*
X0598248Y0189547D01*
X0598431Y0189315D01*
X0598608Y0189078D01*
X0598779Y0188838D01*
X0598945Y0188593D01*
X0599104Y0188344D01*
X0599257Y0188091D01*
X0599404Y0187835D01*
X0599545Y0187575D01*
X0599679Y0187312D01*
X0599807Y0187046D01*
X0599928Y0186777D01*
X0600043Y0186504D01*
X0600151Y0186230D01*
X0600252Y0185952D01*
X0600347Y0185672D01*
X0600434Y0185390D01*
X0600515Y0185106D01*
X0600588Y0184820D01*
X0600091Y0186372D01*
X0599387Y0187842D01*
X0598489Y0189201D01*
X0597413Y0190425D01*
X0596180Y0191491D01*
X0594813Y0192378D01*
X0593338Y0193070D01*
X0593338Y0184820D01*
X0600588Y0184820D01*
X0600478Y0185164D02*
X0593338Y0185164D01*
X0593338Y0185662D02*
X0600318Y0185662D01*
X0600159Y0186161D02*
X0593338Y0186161D01*
X0593338Y0186659D02*
X0599953Y0186659D01*
X0599715Y0187158D02*
X0593338Y0187158D01*
X0593338Y0187656D02*
X0599476Y0187656D01*
X0599180Y0188155D02*
X0593338Y0188155D01*
X0593338Y0188653D02*
X0598851Y0188653D01*
X0598521Y0189152D02*
X0593338Y0189152D01*
X0593338Y0189650D02*
X0598094Y0189650D01*
X0597656Y0190149D02*
X0593338Y0190149D01*
X0593338Y0190648D02*
X0597156Y0190648D01*
X0596579Y0191146D02*
X0593338Y0191146D01*
X0593338Y0191645D02*
X0595943Y0191645D01*
X0595175Y0192143D02*
X0593338Y0192143D01*
X0593338Y0192642D02*
X0594251Y0192642D01*
X0592594Y0195820D02*
X0589592Y0195820D01*
X0591093Y0195820D02*
X0591093Y0200324D01*
X0589592Y0198822D01*
X0587990Y0199573D02*
X0587240Y0200324D01*
X0585738Y0200324D01*
X0584988Y0199573D01*
X0584988Y0196570D01*
X0585738Y0195820D01*
X0587240Y0195820D01*
X0587990Y0196570D01*
X0550263Y0245170D02*
X0548762Y0245170D01*
X0548011Y0245920D01*
X0548011Y0247422D01*
X0550263Y0247422D01*
X0551013Y0246671D01*
X0551013Y0245920D01*
X0550263Y0245170D01*
X0548011Y0247422D02*
X0549512Y0248923D01*
X0551013Y0249674D01*
X0546409Y0248923D02*
X0545659Y0249674D01*
X0544158Y0249674D01*
X0543407Y0248923D01*
X0543407Y0245920D01*
X0544158Y0245170D01*
X0545659Y0245170D01*
X0546409Y0245920D01*
X0541839Y0245170D02*
X0540338Y0245170D01*
X0541088Y0245170D02*
X0541088Y0249674D01*
X0540338Y0249674D02*
X0541839Y0249674D01*
X0470044Y0284170D02*
X0470044Y0288674D01*
X0467792Y0286422D01*
X0470794Y0286422D01*
X0466190Y0288674D02*
X0463188Y0285671D01*
X0463938Y0286422D02*
X0466190Y0284170D01*
X0463188Y0284170D02*
X0463188Y0288674D01*
X0463390Y0333220D02*
X0461138Y0335472D01*
X0460388Y0334721D02*
X0463390Y0337724D01*
X0464992Y0336222D02*
X0466493Y0337724D01*
X0466493Y0333220D01*
X0464992Y0333220D02*
X0467994Y0333220D01*
X0469596Y0333970D02*
X0470346Y0333220D01*
X0471847Y0333220D01*
X0472598Y0333970D01*
X0472598Y0334721D01*
X0471847Y0335472D01*
X0471097Y0335472D01*
X0471847Y0335472D02*
X0472598Y0336222D01*
X0472598Y0336973D01*
X0471847Y0337724D01*
X0470346Y0337724D01*
X0469596Y0336973D01*
X0460388Y0337724D02*
X0460388Y0333220D01*
X0517088Y0363770D02*
X0517838Y0363020D01*
X0519340Y0363020D01*
X0520090Y0363770D01*
X0520090Y0366773D01*
X0519340Y0367524D01*
X0517838Y0367524D01*
X0517088Y0366773D01*
X0517088Y0363770D01*
X0518589Y0364521D02*
X0520090Y0363020D01*
X0521692Y0363020D02*
X0524694Y0363020D01*
X0523193Y0363020D02*
X0523193Y0367524D01*
X0521692Y0366022D01*
X0529068Y0363787D02*
X0536808Y0363787D01*
X0536808Y0348252D01*
X0529068Y0348252D01*
X0529068Y0363787D01*
X0539850Y0391154D02*
X0538348Y0392655D01*
X0538348Y0394156D01*
X0539850Y0395658D01*
X0541418Y0394156D02*
X0542919Y0395658D01*
X0542919Y0391154D01*
X0541418Y0391154D02*
X0544420Y0391154D01*
X0546021Y0391154D02*
X0549024Y0394156D01*
X0549024Y0394907D01*
X0548273Y0395658D01*
X0546772Y0395658D01*
X0546021Y0394907D01*
X0545955Y0398654D02*
X0542952Y0398654D01*
X0542952Y0403158D01*
X0545955Y0403158D01*
X0547556Y0403158D02*
X0550559Y0403158D01*
X0550559Y0402407D01*
X0547556Y0399405D01*
X0547556Y0398654D01*
X0550559Y0398654D01*
X0553628Y0395658D02*
X0550625Y0391154D01*
X0549024Y0391154D02*
X0546021Y0391154D01*
X0555229Y0391154D02*
X0558232Y0394156D01*
X0558232Y0394907D01*
X0557481Y0395658D01*
X0555980Y0395658D01*
X0555229Y0394907D01*
X0555229Y0391154D02*
X0558232Y0391154D01*
X0559833Y0391905D02*
X0562836Y0394907D01*
X0562836Y0391905D01*
X0562085Y0391154D01*
X0560584Y0391154D01*
X0559833Y0391905D01*
X0559833Y0394907D01*
X0560584Y0395658D01*
X0562085Y0395658D01*
X0562836Y0394907D01*
X0564437Y0394907D02*
X0565188Y0395658D01*
X0566689Y0395658D01*
X0567440Y0394907D01*
X0567440Y0394156D01*
X0564437Y0391154D01*
X0567440Y0391154D01*
X0569041Y0391905D02*
X0572044Y0394907D01*
X0572044Y0391905D01*
X0571293Y0391154D01*
X0569792Y0391154D01*
X0569041Y0391905D01*
X0569041Y0394907D01*
X0569792Y0395658D01*
X0571293Y0395658D01*
X0572044Y0394907D01*
X0573645Y0398654D02*
X0573645Y0403158D01*
X0575146Y0401656D01*
X0576648Y0403158D01*
X0576648Y0398654D01*
X0578249Y0399405D02*
X0579000Y0398654D01*
X0580501Y0398654D01*
X0581252Y0399405D01*
X0581252Y0403158D01*
X0582853Y0403158D02*
X0585855Y0398654D01*
X0587457Y0398654D02*
X0590459Y0398654D01*
X0588958Y0398654D02*
X0588958Y0403158D01*
X0587457Y0401656D01*
X0585855Y0403158D02*
X0582853Y0398654D01*
X0583587Y0395658D02*
X0583587Y0391154D01*
X0582086Y0391154D02*
X0585088Y0391154D01*
X0586689Y0391154D02*
X0588941Y0391154D01*
X0589692Y0391905D01*
X0589692Y0392655D01*
X0588941Y0393406D01*
X0586689Y0393406D01*
X0586689Y0395658D02*
X0588941Y0395658D01*
X0589692Y0394907D01*
X0589692Y0394156D01*
X0588941Y0393406D01*
X0591293Y0394907D02*
X0592044Y0395658D01*
X0593545Y0395658D01*
X0594296Y0394907D01*
X0594296Y0394156D01*
X0591293Y0391154D01*
X0594296Y0391154D01*
X0595897Y0391154D02*
X0597399Y0392655D01*
X0597399Y0394156D01*
X0595897Y0395658D01*
X0596665Y0398654D02*
X0598917Y0398654D01*
X0599667Y0399405D01*
X0599667Y0402407D01*
X0598917Y0403158D01*
X0596665Y0403158D01*
X0596665Y0398654D01*
X0594313Y0398654D02*
X0594313Y0403158D01*
X0592061Y0400906D01*
X0595063Y0400906D01*
X0586689Y0395658D02*
X0586689Y0391154D01*
X0583587Y0395658D02*
X0582086Y0394156D01*
X0580501Y0394156D02*
X0579750Y0394156D01*
X0578249Y0392655D01*
X0578249Y0391154D02*
X0578249Y0394156D01*
X0578249Y0399405D02*
X0578249Y0403158D01*
X0567440Y0402407D02*
X0567440Y0401656D01*
X0566689Y0400906D01*
X0564437Y0400906D01*
X0564437Y0398654D02*
X0564437Y0403158D01*
X0566689Y0403158D01*
X0567440Y0402407D01*
X0566689Y0400906D02*
X0567440Y0400155D01*
X0567440Y0399405D01*
X0566689Y0398654D01*
X0564437Y0398654D01*
X0562869Y0398654D02*
X0561368Y0398654D01*
X0562119Y0398654D02*
X0562119Y0403158D01*
X0562869Y0403158D02*
X0561368Y0403158D01*
X0559767Y0402407D02*
X0559016Y0403158D01*
X0556764Y0403158D01*
X0556764Y0398654D01*
X0559016Y0398654D01*
X0559767Y0399405D01*
X0559767Y0402407D01*
X0544453Y0400906D02*
X0542952Y0400906D01*
X0541351Y0403158D02*
X0538348Y0403158D01*
X0538348Y0398654D01*
X0541351Y0398654D01*
X0539850Y0400906D02*
X0538348Y0400906D01*
X0539938Y0329274D02*
X0541439Y0329274D01*
X0540688Y0329274D02*
X0540688Y0324770D01*
X0539938Y0324770D02*
X0541439Y0324770D01*
X0543007Y0325520D02*
X0543758Y0324770D01*
X0545259Y0324770D01*
X0546009Y0325520D01*
X0547611Y0325520D02*
X0548362Y0324770D01*
X0549863Y0324770D01*
X0550613Y0325520D01*
X0550613Y0327022D01*
X0549863Y0327772D01*
X0549112Y0327772D01*
X0547611Y0327022D01*
X0547611Y0329274D01*
X0550613Y0329274D01*
X0546009Y0328523D02*
X0545259Y0329274D01*
X0543758Y0329274D01*
X0543007Y0328523D01*
X0543007Y0325520D01*
X0389848Y0239424D02*
X0388347Y0238673D01*
X0386846Y0237172D01*
X0389097Y0237172D01*
X0389848Y0236421D01*
X0389848Y0235670D01*
X0389097Y0234920D01*
X0387596Y0234920D01*
X0386846Y0235670D01*
X0386846Y0237172D01*
X0385244Y0234920D02*
X0382242Y0234920D01*
X0383743Y0234920D02*
X0383743Y0239424D01*
X0382242Y0237922D01*
X0380640Y0239424D02*
X0377638Y0236421D01*
X0378388Y0237172D02*
X0380640Y0234920D01*
X0377638Y0234920D02*
X0377638Y0239424D01*
X0380038Y0284220D02*
X0380038Y0288724D01*
X0380788Y0286472D02*
X0383040Y0284220D01*
X0384642Y0284970D02*
X0385392Y0284220D01*
X0386894Y0284220D01*
X0387644Y0284970D01*
X0387644Y0285721D01*
X0386894Y0286472D01*
X0386143Y0286472D01*
X0386894Y0286472D02*
X0387644Y0287222D01*
X0387644Y0287973D01*
X0386894Y0288724D01*
X0385392Y0288724D01*
X0384642Y0287973D01*
X0383040Y0288724D02*
X0380038Y0285721D01*
X0379840Y0333220D02*
X0377588Y0335472D01*
X0376838Y0334721D02*
X0379840Y0337724D01*
X0381442Y0336222D02*
X0382943Y0337724D01*
X0382943Y0333220D01*
X0381442Y0333220D02*
X0384444Y0333220D01*
X0386046Y0333220D02*
X0389048Y0336222D01*
X0389048Y0336973D01*
X0388297Y0337724D01*
X0386796Y0337724D01*
X0386046Y0336973D01*
X0386046Y0333220D02*
X0389048Y0333220D01*
X0376838Y0333220D02*
X0376838Y0337724D01*
X0377338Y0382420D02*
X0377338Y0386924D01*
X0378088Y0384672D02*
X0380340Y0382420D01*
X0381942Y0382420D02*
X0384944Y0382420D01*
X0383443Y0382420D02*
X0383443Y0386924D01*
X0381942Y0385422D01*
X0380340Y0386924D02*
X0377338Y0383921D01*
X0386546Y0383170D02*
X0386546Y0382420D01*
X0386546Y0383170D02*
X0389548Y0386173D01*
X0389548Y0386924D01*
X0386546Y0386924D01*
X0385349Y0412339D02*
X0383848Y0412339D01*
X0383097Y0413090D01*
X0381496Y0412339D02*
X0378493Y0416843D01*
X0381496Y0416843D02*
X0378493Y0412339D01*
X0383097Y0416093D02*
X0383848Y0416843D01*
X0385349Y0416843D01*
X0386100Y0416093D01*
X0386100Y0415342D01*
X0385349Y0414591D01*
X0386100Y0413841D01*
X0386100Y0413090D01*
X0385349Y0412339D01*
X0385349Y0414591D02*
X0384598Y0414591D01*
X0337714Y0439903D02*
X0331976Y0439903D01*
X0332242Y0439405D02*
X0337448Y0439405D01*
X0337182Y0438906D02*
X0332508Y0438906D01*
X0332774Y0438408D02*
X0336917Y0438408D01*
X0336651Y0437909D02*
X0333040Y0437909D01*
X0333305Y0437411D02*
X0336385Y0437411D01*
X0336119Y0436912D02*
X0333571Y0436912D01*
X0333837Y0436414D02*
X0335853Y0436414D01*
X0335587Y0435915D02*
X0334103Y0435915D01*
X0334369Y0435417D02*
X0335321Y0435417D01*
X0335055Y0434918D02*
X0334635Y0434918D01*
X0334845Y0434524D02*
X0337995Y0440429D01*
X0331696Y0440429D01*
X0334845Y0434524D01*
X0331710Y0440402D02*
X0337980Y0440402D01*
X0380738Y0190724D02*
X0380738Y0186220D01*
X0380738Y0187721D02*
X0383740Y0190724D01*
X0385342Y0190724D02*
X0388344Y0190724D01*
X0388344Y0189973D01*
X0385342Y0186970D01*
X0385342Y0186220D01*
X0383740Y0186220D02*
X0381488Y0188472D01*
X0593438Y0104524D02*
X0596440Y0100020D01*
X0598042Y0102272D02*
X0601044Y0102272D01*
X0600294Y0100020D02*
X0600294Y0104524D01*
X0598042Y0102272D01*
X0596440Y0104524D02*
X0593438Y0100020D01*
D11*
X0557888Y0419295D03*
D12*
X0522257Y0395111D03*
D13*
X0519367Y0389401D03*
X0527572Y0390271D03*
X0530752Y0389566D03*
D14*
X0519367Y0389416D03*
D15*
X0519367Y0389431D03*
D16*
X0519367Y0389446D03*
D17*
X0519367Y0389461D03*
X0519457Y0403846D03*
D18*
X0519367Y0389476D03*
X0527617Y0390361D03*
D19*
X0527632Y0390376D03*
X0519367Y0389491D03*
D20*
X0519367Y0389506D03*
D21*
X0519367Y0389521D03*
D22*
X0519367Y0389536D03*
X0530752Y0389701D03*
D23*
X0519375Y0389551D03*
D24*
X0519382Y0389566D03*
X0522397Y0390376D03*
X0527707Y0390466D03*
D25*
X0527722Y0390481D03*
X0530737Y0389761D03*
X0519382Y0389581D03*
D26*
X0527565Y0390301D03*
X0530760Y0389581D03*
D27*
X0530737Y0389776D03*
X0522367Y0390421D03*
X0519382Y0389596D03*
D28*
X0530752Y0389596D03*
D29*
X0527752Y0390526D03*
X0522352Y0390436D03*
X0519382Y0389611D03*
D30*
X0530760Y0389611D03*
D31*
X0519382Y0389626D03*
D32*
X0527595Y0390346D03*
X0530760Y0389626D03*
D33*
X0522337Y0390451D03*
X0519382Y0389641D03*
D34*
X0522495Y0390271D03*
X0530760Y0389641D03*
X0530385Y0403891D03*
D35*
X0519390Y0389656D03*
D36*
X0530760Y0389656D03*
D37*
X0530722Y0389851D03*
X0519397Y0389671D03*
D38*
X0522457Y0390331D03*
X0527647Y0390391D03*
X0530752Y0389671D03*
D39*
X0527812Y0390601D03*
X0522277Y0390526D03*
X0519397Y0389686D03*
X0519487Y0403591D03*
D40*
X0519472Y0403771D03*
X0530752Y0389686D03*
D41*
X0530722Y0389881D03*
X0522262Y0390541D03*
X0519397Y0389701D03*
X0524782Y0405766D03*
X0530362Y0403651D03*
D42*
X0519405Y0389716D03*
D43*
X0530752Y0389716D03*
D44*
X0530715Y0389896D03*
X0527835Y0390646D03*
X0519405Y0389731D03*
X0530355Y0403636D03*
D45*
X0530752Y0389731D03*
D46*
X0519412Y0389746D03*
D47*
X0530745Y0389746D03*
X0519480Y0403726D03*
D48*
X0530355Y0403591D03*
X0527865Y0390676D03*
X0519405Y0389761D03*
D49*
X0519412Y0389776D03*
D50*
X0519420Y0389791D03*
X0522195Y0390631D03*
X0527895Y0390736D03*
X0530340Y0403561D03*
D51*
X0530370Y0403741D03*
X0530730Y0389791D03*
D52*
X0519420Y0389806D03*
D53*
X0530730Y0389806D03*
D54*
X0519420Y0389821D03*
X0519510Y0403471D03*
X0530340Y0403546D03*
D55*
X0530370Y0403711D03*
X0530730Y0389821D03*
D56*
X0519420Y0389836D03*
D57*
X0522315Y0390466D03*
X0530730Y0389836D03*
X0530370Y0403696D03*
D58*
X0527947Y0390796D03*
X0519427Y0389851D03*
D59*
X0519427Y0389866D03*
X0522127Y0390721D03*
X0530692Y0390061D03*
D60*
X0530715Y0389866D03*
X0522285Y0390511D03*
D61*
X0519427Y0389881D03*
D62*
X0519435Y0389896D03*
D63*
X0519435Y0389911D03*
X0527985Y0390886D03*
D64*
X0530707Y0389911D03*
D65*
X0519435Y0389926D03*
X0519525Y0403366D03*
X0530325Y0403441D03*
D66*
X0530355Y0403621D03*
X0519495Y0403561D03*
X0530715Y0389926D03*
D67*
X0519435Y0389941D03*
D68*
X0530707Y0389941D03*
D69*
X0519442Y0389956D03*
D70*
X0530707Y0389956D03*
D71*
X0519442Y0389971D03*
D72*
X0530707Y0389971D03*
D73*
X0519450Y0389986D03*
D74*
X0522195Y0390646D03*
X0527910Y0390751D03*
X0530700Y0389986D03*
D75*
X0519450Y0390001D03*
D76*
X0530700Y0390001D03*
D77*
X0530662Y0390211D03*
X0519457Y0390016D03*
D78*
X0530692Y0390016D03*
D79*
X0519457Y0390031D03*
D80*
X0522157Y0390676D03*
X0530692Y0390031D03*
D81*
X0519450Y0390046D03*
X0530310Y0403321D03*
D82*
X0530340Y0403501D03*
X0530685Y0390046D03*
X0522150Y0390691D03*
D83*
X0519465Y0390061D03*
D84*
X0519472Y0390076D03*
X0519547Y0403201D03*
D85*
X0530685Y0390076D03*
D86*
X0530647Y0390301D03*
X0519472Y0390091D03*
X0519547Y0403186D03*
X0524962Y0405736D03*
D87*
X0527977Y0390871D03*
X0530677Y0390091D03*
D88*
X0519472Y0390106D03*
D89*
X0530677Y0390106D03*
D90*
X0519472Y0390121D03*
X0519547Y0403171D03*
D91*
X0530677Y0390121D03*
D92*
X0530640Y0390346D03*
X0519480Y0390136D03*
X0530295Y0403231D03*
D93*
X0530325Y0403426D03*
X0530670Y0390136D03*
D94*
X0519480Y0390151D03*
X0519555Y0403141D03*
D95*
X0530677Y0390151D03*
D96*
X0519487Y0390166D03*
D97*
X0530670Y0390166D03*
D98*
X0530625Y0390391D03*
X0519495Y0390181D03*
D99*
X0530662Y0390181D03*
D100*
X0519495Y0390196D03*
D101*
X0522547Y0390196D03*
D102*
X0530662Y0390196D03*
D103*
X0519495Y0390211D03*
D104*
X0522547Y0390211D03*
D105*
X0519502Y0390226D03*
X0519562Y0403066D03*
X0524977Y0405691D03*
D106*
X0522547Y0390226D03*
D107*
X0530662Y0390226D03*
D108*
X0530610Y0390451D03*
X0519510Y0390241D03*
D109*
X0522525Y0390241D03*
D110*
X0530662Y0390241D03*
X0519532Y0403261D03*
D111*
X0519510Y0390256D03*
D112*
X0522510Y0390256D03*
D113*
X0530655Y0390256D03*
X0530310Y0403306D03*
D114*
X0530602Y0390496D03*
X0519517Y0390271D03*
D115*
X0530655Y0390271D03*
D116*
X0530602Y0390511D03*
X0519517Y0390286D03*
X0530257Y0403066D03*
D117*
X0519465Y0403831D03*
X0522480Y0390286D03*
D118*
X0527565Y0390286D03*
X0519465Y0403876D03*
D119*
X0530655Y0390286D03*
D120*
X0530595Y0390526D03*
X0519525Y0390301D03*
X0524970Y0405616D03*
D121*
X0522472Y0390301D03*
D122*
X0519525Y0390316D03*
X0530595Y0390541D03*
D123*
X0522472Y0390316D03*
D124*
X0527572Y0390316D03*
D125*
X0530647Y0390316D03*
X0530302Y0403261D03*
D126*
X0519532Y0390331D03*
D127*
X0527580Y0390331D03*
D128*
X0530640Y0390331D03*
X0530295Y0403246D03*
D129*
X0530242Y0403021D03*
X0524962Y0405361D03*
X0524962Y0405376D03*
X0524962Y0405391D03*
X0524962Y0405421D03*
X0519532Y0390346D03*
D130*
X0522450Y0390346D03*
X0527655Y0390421D03*
X0530385Y0403831D03*
D131*
X0530235Y0402991D03*
X0524970Y0405286D03*
X0530580Y0390586D03*
X0519540Y0390361D03*
D132*
X0522420Y0390361D03*
X0527685Y0390451D03*
D133*
X0530632Y0390361D03*
X0530287Y0403201D03*
D134*
X0519547Y0390376D03*
D135*
X0530625Y0390376D03*
X0530280Y0403186D03*
X0519555Y0403111D03*
D136*
X0519615Y0402871D03*
X0524955Y0405076D03*
X0524955Y0405091D03*
X0530565Y0390631D03*
X0519555Y0390391D03*
D137*
X0522390Y0390391D03*
X0519480Y0403711D03*
D138*
X0524955Y0404956D03*
X0519555Y0390406D03*
D139*
X0522375Y0390406D03*
D140*
X0527655Y0390406D03*
D141*
X0530625Y0390406D03*
D142*
X0519562Y0390421D03*
X0524962Y0404851D03*
X0524962Y0404866D03*
X0524962Y0404881D03*
X0524962Y0404896D03*
X0524962Y0404911D03*
D143*
X0530617Y0390421D03*
D144*
X0519562Y0390436D03*
X0524962Y0404776D03*
D145*
X0527670Y0390436D03*
D146*
X0530617Y0390436D03*
D147*
X0519562Y0390451D03*
X0519622Y0402841D03*
X0530212Y0402916D03*
D148*
X0524955Y0404611D03*
X0524955Y0404626D03*
X0519630Y0402811D03*
X0519570Y0390466D03*
D149*
X0530610Y0390466D03*
D150*
X0530550Y0390721D03*
X0519570Y0390481D03*
X0519630Y0402781D03*
X0524955Y0404401D03*
X0524955Y0404416D03*
X0524955Y0404431D03*
X0524955Y0404446D03*
X0524955Y0404461D03*
X0524955Y0404476D03*
X0524955Y0404491D03*
X0530205Y0402871D03*
D151*
X0522292Y0390481D03*
D152*
X0530602Y0390481D03*
D153*
X0530542Y0390736D03*
X0519577Y0390496D03*
D154*
X0522285Y0390496D03*
D155*
X0527730Y0390496D03*
X0519480Y0403696D03*
D156*
X0519577Y0390511D03*
D157*
X0527745Y0390511D03*
D158*
X0519585Y0390526D03*
D159*
X0519585Y0390541D03*
X0524940Y0404041D03*
X0524940Y0404071D03*
X0524940Y0404086D03*
X0530190Y0402826D03*
D160*
X0530370Y0403726D03*
X0519480Y0403666D03*
X0527760Y0390541D03*
D161*
X0519592Y0390556D03*
D162*
X0522247Y0390556D03*
D163*
X0527775Y0390556D03*
D164*
X0530587Y0390556D03*
D165*
X0519600Y0390571D03*
X0524955Y0403801D03*
X0524955Y0403816D03*
X0524955Y0403831D03*
D166*
X0519495Y0403546D03*
X0522225Y0390571D03*
X0527850Y0390661D03*
D167*
X0527797Y0390571D03*
X0519487Y0403636D03*
D168*
X0524970Y0405346D03*
X0530580Y0390571D03*
D169*
X0530512Y0390841D03*
X0519607Y0390586D03*
X0524947Y0403636D03*
X0524947Y0403651D03*
X0524947Y0403666D03*
X0524947Y0403681D03*
X0524947Y0403696D03*
D170*
X0522217Y0390586D03*
D171*
X0527805Y0390586D03*
X0519480Y0403621D03*
D172*
X0524932Y0403576D03*
X0524932Y0403561D03*
X0519607Y0390601D03*
D173*
X0522217Y0390601D03*
X0519502Y0403516D03*
X0530347Y0403576D03*
D174*
X0530227Y0402976D03*
X0524962Y0405181D03*
X0524962Y0405196D03*
X0524962Y0405211D03*
X0519607Y0402901D03*
X0530572Y0390601D03*
D175*
X0519607Y0390616D03*
D176*
X0522210Y0390616D03*
D177*
X0527820Y0390616D03*
D178*
X0530572Y0390616D03*
X0524962Y0405121D03*
X0524962Y0405136D03*
X0524962Y0405151D03*
D179*
X0519615Y0390631D03*
D180*
X0527820Y0390631D03*
D181*
X0519615Y0390646D03*
D182*
X0530565Y0390646D03*
X0524955Y0404926D03*
X0524955Y0404941D03*
X0524955Y0404971D03*
X0524955Y0404986D03*
D183*
X0524947Y0403291D03*
X0519622Y0390661D03*
D184*
X0522172Y0390661D03*
X0527917Y0390766D03*
D185*
X0530557Y0390661D03*
D186*
X0519630Y0390676D03*
X0519675Y0402586D03*
D187*
X0524955Y0404671D03*
X0524955Y0404686D03*
X0530550Y0390676D03*
D188*
X0519630Y0390691D03*
X0524955Y0403261D03*
D189*
X0527880Y0390691D03*
D190*
X0530542Y0390691D03*
X0530212Y0402886D03*
X0524947Y0404581D03*
X0524947Y0404596D03*
D191*
X0519630Y0390706D03*
D192*
X0522142Y0390706D03*
D193*
X0527880Y0390706D03*
D194*
X0530542Y0390706D03*
X0524947Y0404506D03*
D195*
X0519630Y0390721D03*
D196*
X0527887Y0390721D03*
X0519502Y0403501D03*
D197*
X0520537Y0395131D03*
X0520777Y0394861D03*
X0520747Y0391786D03*
X0520357Y0390736D03*
X0529072Y0392476D03*
X0529087Y0392446D03*
X0529687Y0390916D03*
D198*
X0529170Y0392296D03*
X0529155Y0392326D03*
X0529155Y0392341D03*
X0529140Y0392371D03*
X0529095Y0394801D03*
X0529080Y0398566D03*
X0529065Y0398581D03*
X0529050Y0398596D03*
X0520530Y0398236D03*
X0520785Y0394846D03*
X0520800Y0394831D03*
X0520695Y0391711D03*
X0520680Y0391681D03*
X0520665Y0391651D03*
X0520350Y0390751D03*
D199*
X0530535Y0390751D03*
D200*
X0529695Y0390946D03*
X0529185Y0392266D03*
X0528660Y0393661D03*
X0529035Y0398626D03*
X0520875Y0398611D03*
X0520815Y0394801D03*
X0520830Y0394786D03*
X0521325Y0393496D03*
X0521325Y0393481D03*
X0520650Y0391621D03*
X0520350Y0390766D03*
D201*
X0530527Y0390766D03*
X0524947Y0404101D03*
D202*
X0520897Y0398641D03*
X0520882Y0398626D03*
X0520492Y0395146D03*
X0520627Y0391591D03*
X0520627Y0391576D03*
X0520342Y0390781D03*
X0528652Y0393676D03*
X0529192Y0392251D03*
X0529207Y0392236D03*
X0529702Y0390961D03*
X0529012Y0398641D03*
D203*
X0527932Y0390781D03*
D204*
X0530512Y0390781D03*
X0519652Y0402736D03*
D205*
X0520500Y0398221D03*
X0520845Y0394771D03*
X0520620Y0391561D03*
X0520605Y0391531D03*
X0520335Y0390796D03*
X0529215Y0392221D03*
X0529230Y0392191D03*
X0529230Y0392176D03*
X0529245Y0392161D03*
D206*
X0530512Y0390796D03*
X0530182Y0402796D03*
X0524947Y0403951D03*
X0524947Y0403966D03*
X0524947Y0403981D03*
X0519652Y0402721D03*
D207*
X0520920Y0398686D03*
X0529020Y0394711D03*
X0529320Y0392026D03*
X0520335Y0390826D03*
X0520335Y0390811D03*
D208*
X0527947Y0390811D03*
D209*
X0530512Y0390811D03*
D210*
X0527955Y0390826D03*
X0530340Y0403486D03*
D211*
X0524947Y0403711D03*
X0524947Y0403726D03*
X0524947Y0403741D03*
X0524947Y0403771D03*
X0524947Y0403786D03*
X0530512Y0390826D03*
D212*
X0529350Y0391966D03*
X0529335Y0391981D03*
X0520515Y0391381D03*
X0520515Y0391366D03*
X0520500Y0391351D03*
X0520335Y0390841D03*
X0520935Y0398701D03*
X0520950Y0398716D03*
D213*
X0527955Y0390841D03*
D214*
X0520335Y0390856D03*
D215*
X0527970Y0390856D03*
D216*
X0530505Y0390856D03*
D217*
X0520485Y0391321D03*
X0520335Y0390886D03*
X0520335Y0390871D03*
D218*
X0530497Y0390871D03*
X0530167Y0402736D03*
X0524932Y0403396D03*
X0524932Y0403411D03*
X0524932Y0403426D03*
X0524932Y0403441D03*
D219*
X0524932Y0403336D03*
X0519667Y0402631D03*
X0530482Y0390886D03*
D220*
X0520342Y0390901D03*
X0520942Y0394651D03*
D221*
X0527992Y0390901D03*
D222*
X0530475Y0390901D03*
X0530160Y0402691D03*
X0519675Y0402601D03*
D223*
X0528900Y0398776D03*
X0528960Y0394621D03*
X0528660Y0393841D03*
X0528660Y0393826D03*
X0528660Y0393811D03*
X0528660Y0393796D03*
X0529455Y0391786D03*
X0529455Y0391771D03*
X0529470Y0391741D03*
X0521310Y0393691D03*
X0520950Y0394636D03*
X0520455Y0391261D03*
X0520455Y0391246D03*
X0520440Y0391231D03*
X0520440Y0391216D03*
X0520335Y0390931D03*
X0520335Y0390916D03*
D224*
X0520657Y0391636D03*
X0520672Y0391666D03*
X0520687Y0391696D03*
X0520807Y0394816D03*
X0528652Y0393646D03*
X0529072Y0394771D03*
X0529087Y0394786D03*
X0529162Y0392311D03*
X0529177Y0392281D03*
X0529687Y0390931D03*
X0529147Y0398521D03*
X0529042Y0398611D03*
X0524947Y0402991D03*
D225*
X0520342Y0390976D03*
X0520342Y0390961D03*
X0520342Y0390946D03*
D226*
X0521317Y0393541D03*
X0521317Y0393571D03*
X0529252Y0392146D03*
X0529267Y0392131D03*
X0529282Y0392116D03*
X0529282Y0392101D03*
X0529702Y0390976D03*
D227*
X0529500Y0391681D03*
X0529485Y0391696D03*
X0520350Y0391051D03*
X0520350Y0391036D03*
X0520350Y0391021D03*
X0520350Y0390991D03*
X0528885Y0398791D03*
D228*
X0520875Y0394741D03*
X0521310Y0393601D03*
X0521310Y0393586D03*
X0520590Y0391486D03*
X0520575Y0391471D03*
X0529290Y0392086D03*
X0529710Y0390991D03*
D229*
X0520350Y0391006D03*
D230*
X0528660Y0393706D03*
X0529710Y0391006D03*
D231*
X0529717Y0391021D03*
X0521317Y0393616D03*
X0520897Y0394696D03*
X0520897Y0394711D03*
X0520882Y0394726D03*
X0520552Y0391441D03*
X0528967Y0398701D03*
X0528982Y0398686D03*
X0524947Y0402976D03*
D232*
X0528960Y0398716D03*
X0529005Y0394681D03*
X0528990Y0394666D03*
X0528660Y0393736D03*
X0528660Y0393721D03*
X0529710Y0391036D03*
X0521310Y0393631D03*
X0521310Y0393646D03*
X0520545Y0391426D03*
X0520530Y0391411D03*
D233*
X0520912Y0394681D03*
X0529372Y0391921D03*
X0529387Y0391891D03*
X0529402Y0391876D03*
X0529717Y0391051D03*
X0529252Y0398476D03*
X0528952Y0398731D03*
X0528937Y0398746D03*
D234*
X0528660Y0393886D03*
X0528660Y0393871D03*
X0521310Y0393721D03*
X0520980Y0394591D03*
X0520410Y0391171D03*
X0520380Y0391126D03*
X0520365Y0391096D03*
X0520365Y0391081D03*
X0520365Y0391066D03*
X0521010Y0398776D03*
D235*
X0520987Y0398761D03*
X0520417Y0398191D03*
X0528922Y0398761D03*
X0529657Y0395371D03*
X0528967Y0394636D03*
X0529432Y0391831D03*
X0529432Y0391816D03*
X0529447Y0391801D03*
X0529732Y0391066D03*
X0520462Y0391276D03*
D236*
X0520432Y0391201D03*
X0520417Y0391186D03*
X0520957Y0394621D03*
X0528937Y0394591D03*
X0529477Y0391726D03*
X0529477Y0391711D03*
X0529732Y0391096D03*
X0529732Y0391081D03*
D237*
X0529732Y0391111D03*
X0529567Y0391576D03*
X0529552Y0391591D03*
X0529537Y0391621D03*
X0529522Y0391651D03*
X0528667Y0393901D03*
X0528922Y0394576D03*
X0528862Y0398821D03*
X0528847Y0398836D03*
X0524947Y0402961D03*
X0521032Y0398791D03*
X0520987Y0394576D03*
X0520387Y0391141D03*
X0520372Y0391111D03*
D238*
X0521310Y0393736D03*
X0521310Y0393751D03*
X0521055Y0398821D03*
X0528660Y0393916D03*
X0529530Y0391636D03*
X0529575Y0391561D03*
X0529725Y0391141D03*
X0529725Y0391126D03*
D239*
X0521310Y0393706D03*
X0520965Y0394606D03*
X0520395Y0391156D03*
X0528870Y0398806D03*
D240*
X0529725Y0391156D03*
D241*
X0529725Y0391171D03*
X0529725Y0391186D03*
X0521310Y0393781D03*
X0521310Y0393796D03*
X0521010Y0394561D03*
D242*
X0521302Y0393826D03*
X0521302Y0393811D03*
X0528667Y0393946D03*
X0529717Y0395386D03*
X0529717Y0391246D03*
X0529717Y0391231D03*
X0529717Y0391216D03*
X0529717Y0391201D03*
D243*
X0529710Y0391261D03*
X0529710Y0391276D03*
X0529710Y0391291D03*
X0528660Y0393961D03*
X0528810Y0398866D03*
X0521025Y0394546D03*
X0521310Y0393841D03*
D244*
X0521310Y0393676D03*
X0521310Y0393661D03*
X0520425Y0395161D03*
X0520965Y0398746D03*
X0528975Y0394651D03*
X0528660Y0393781D03*
X0528660Y0393766D03*
X0528660Y0393751D03*
X0529365Y0391936D03*
X0529410Y0391861D03*
X0529425Y0391846D03*
X0520470Y0391291D03*
D245*
X0520477Y0391306D03*
D246*
X0529702Y0391306D03*
D247*
X0529695Y0391321D03*
X0529695Y0391336D03*
X0529680Y0391351D03*
X0529680Y0391366D03*
X0529665Y0391381D03*
X0529650Y0391396D03*
X0529635Y0391426D03*
X0528870Y0394531D03*
X0528885Y0394546D03*
X0521100Y0398866D03*
D248*
X0520957Y0398731D03*
X0520927Y0394666D03*
X0520492Y0391336D03*
X0529357Y0391951D03*
D249*
X0529327Y0391996D03*
X0529327Y0392011D03*
X0529312Y0392041D03*
X0529012Y0394696D03*
X0520522Y0391396D03*
D250*
X0529612Y0391471D03*
X0529627Y0391441D03*
X0529642Y0391411D03*
D251*
X0520567Y0391456D03*
D252*
X0529620Y0391456D03*
D253*
X0529605Y0391486D03*
X0529605Y0391501D03*
X0520350Y0395176D03*
X0521085Y0398851D03*
X0529335Y0398461D03*
D254*
X0529207Y0398491D03*
X0528997Y0398671D03*
X0529042Y0394741D03*
X0529027Y0394726D03*
X0529297Y0392071D03*
X0520612Y0391546D03*
X0520597Y0391516D03*
X0520597Y0391501D03*
X0520912Y0398671D03*
D255*
X0521302Y0393766D03*
X0528667Y0393931D03*
X0529582Y0391546D03*
X0529597Y0391531D03*
X0529597Y0391516D03*
X0528832Y0398851D03*
D256*
X0529170Y0398506D03*
X0529575Y0395356D03*
X0520650Y0391606D03*
D257*
X0529552Y0391606D03*
D258*
X0529507Y0391666D03*
D259*
X0528660Y0393616D03*
X0528660Y0393631D03*
X0529110Y0394816D03*
X0521325Y0393466D03*
X0520710Y0391726D03*
X0520860Y0398581D03*
D260*
X0520852Y0398566D03*
X0521332Y0393451D03*
X0520717Y0391741D03*
X0528652Y0393586D03*
X0528652Y0393601D03*
X0529102Y0392431D03*
X0529102Y0392416D03*
X0529117Y0392401D03*
X0529132Y0392386D03*
X0529117Y0394831D03*
X0529132Y0394846D03*
X0529117Y0398536D03*
X0529102Y0398551D03*
D261*
X0520732Y0391756D03*
D262*
X0528667Y0393856D03*
X0528952Y0394606D03*
X0529462Y0391756D03*
D263*
X0528660Y0393571D03*
X0529140Y0394861D03*
X0520740Y0391771D03*
D264*
X0520755Y0391801D03*
X0520755Y0391816D03*
X0520770Y0391846D03*
X0520770Y0394876D03*
X0520830Y0398551D03*
X0529050Y0392521D03*
X0529065Y0392491D03*
X0529080Y0392461D03*
D265*
X0529042Y0392536D03*
X0529042Y0392551D03*
X0520777Y0391861D03*
X0520762Y0391831D03*
X0520762Y0394891D03*
X0520822Y0398536D03*
D266*
X0520792Y0398491D03*
X0529027Y0392566D03*
X0520792Y0391876D03*
D267*
X0520800Y0391891D03*
X0529185Y0394921D03*
X0520785Y0398476D03*
D268*
X0520800Y0391906D03*
D269*
X0529380Y0391906D03*
D270*
X0529020Y0392581D03*
X0529005Y0392611D03*
X0528990Y0392641D03*
X0528975Y0392671D03*
X0528960Y0392686D03*
X0528645Y0393511D03*
X0529515Y0395341D03*
X0521325Y0393376D03*
X0521325Y0393361D03*
X0520830Y0391966D03*
X0520815Y0391936D03*
X0520815Y0391921D03*
X0520725Y0394951D03*
X0520590Y0395101D03*
X0520770Y0398461D03*
X0524955Y0403021D03*
D271*
X0520717Y0394966D03*
X0520867Y0392011D03*
X0520852Y0391996D03*
X0520837Y0391981D03*
X0520822Y0391951D03*
X0528637Y0393481D03*
X0528637Y0393496D03*
X0528922Y0392746D03*
X0528937Y0392731D03*
X0528937Y0392716D03*
X0528952Y0392701D03*
D272*
X0528915Y0392761D03*
X0528915Y0392776D03*
X0529200Y0394951D03*
X0529200Y0394966D03*
X0521325Y0393346D03*
X0521325Y0393331D03*
X0520905Y0392086D03*
X0520890Y0392041D03*
X0520875Y0392026D03*
X0520710Y0394981D03*
X0520695Y0395011D03*
X0520620Y0395086D03*
X0520740Y0398431D03*
X0520755Y0398446D03*
D273*
X0528900Y0392806D03*
X0520890Y0392056D03*
D274*
X0529305Y0392056D03*
D275*
X0528907Y0392791D03*
X0528637Y0393466D03*
X0529207Y0394981D03*
X0529222Y0394996D03*
X0529222Y0395011D03*
X0521332Y0393316D03*
X0520912Y0392116D03*
X0520912Y0392101D03*
X0520897Y0392071D03*
X0520702Y0394996D03*
X0520687Y0395026D03*
X0520717Y0398386D03*
X0520732Y0398401D03*
X0520732Y0398416D03*
D276*
X0520710Y0398371D03*
X0520680Y0395041D03*
X0521340Y0393301D03*
X0520920Y0392131D03*
X0528645Y0393451D03*
X0529230Y0395026D03*
X0524955Y0403036D03*
D277*
X0528885Y0392851D03*
X0520935Y0392146D03*
D278*
X0520942Y0392161D03*
X0529477Y0395326D03*
X0520642Y0398266D03*
D279*
X0520950Y0392176D03*
D280*
X0520957Y0392191D03*
X0520972Y0392221D03*
X0528772Y0393016D03*
X0528772Y0393031D03*
X0520672Y0398296D03*
X0520657Y0398281D03*
D281*
X0520972Y0392206D03*
D282*
X0529215Y0392206D03*
X0529005Y0398656D03*
X0520905Y0398656D03*
D283*
X0521355Y0393241D03*
X0520980Y0392236D03*
X0528750Y0393091D03*
X0528765Y0393061D03*
X0528765Y0393046D03*
D284*
X0528787Y0393001D03*
X0529252Y0395071D03*
X0520987Y0392251D03*
D285*
X0520995Y0392266D03*
X0521010Y0392281D03*
X0528645Y0393376D03*
X0528645Y0393391D03*
X0529260Y0395086D03*
X0529275Y0395101D03*
X0529275Y0395116D03*
X0529440Y0395311D03*
D286*
X0529282Y0395131D03*
X0521032Y0392311D03*
X0521017Y0392296D03*
D287*
X0521040Y0392326D03*
X0521055Y0392371D03*
X0521070Y0392386D03*
X0521355Y0393181D03*
X0521355Y0393196D03*
X0521355Y0393211D03*
X0528645Y0393301D03*
X0528645Y0393331D03*
X0528645Y0393346D03*
X0528705Y0393166D03*
X0528735Y0393121D03*
X0529290Y0395146D03*
D288*
X0528637Y0393361D03*
X0528727Y0393136D03*
X0528757Y0393076D03*
X0521347Y0393226D03*
X0521047Y0392341D03*
X0524962Y0403051D03*
D289*
X0521055Y0392356D03*
D290*
X0529147Y0392356D03*
D291*
X0528712Y0393151D03*
X0528697Y0393181D03*
X0528682Y0393196D03*
X0528652Y0393271D03*
X0528652Y0393286D03*
X0528637Y0393316D03*
X0529297Y0395161D03*
X0529312Y0395176D03*
X0521077Y0392416D03*
X0521077Y0392401D03*
D292*
X0521085Y0392431D03*
X0521355Y0393151D03*
X0521355Y0393166D03*
X0529320Y0395191D03*
X0529335Y0395221D03*
X0529350Y0395236D03*
X0529365Y0395251D03*
X0529380Y0395266D03*
X0529395Y0395281D03*
D293*
X0521107Y0392461D03*
X0521092Y0392446D03*
D294*
X0521115Y0392476D03*
X0521115Y0392491D03*
X0521130Y0392521D03*
X0521355Y0393136D03*
D295*
X0521130Y0392506D03*
D296*
X0529065Y0392506D03*
D297*
X0521137Y0392536D03*
D298*
X0521152Y0392551D03*
X0521167Y0392566D03*
D299*
X0521175Y0392581D03*
X0521190Y0392596D03*
X0521190Y0392611D03*
D300*
X0521332Y0393391D03*
X0520732Y0394936D03*
X0520582Y0398251D03*
X0528997Y0392626D03*
X0529012Y0392596D03*
D301*
X0521197Y0392626D03*
D302*
X0521205Y0392641D03*
X0521355Y0393121D03*
D303*
X0521362Y0393106D03*
X0521212Y0392656D03*
D304*
X0528982Y0392656D03*
D305*
X0521235Y0392686D03*
X0521220Y0392671D03*
D306*
X0521242Y0392701D03*
D307*
X0521250Y0392716D03*
X0521250Y0392731D03*
D308*
X0521257Y0392746D03*
X0521272Y0392776D03*
X0521362Y0393031D03*
X0521362Y0393046D03*
D309*
X0521370Y0393061D03*
X0521265Y0392761D03*
D310*
X0521280Y0392791D03*
X0521295Y0392821D03*
X0521310Y0392836D03*
X0521370Y0393001D03*
X0521370Y0393016D03*
D311*
X0521287Y0392806D03*
D312*
X0520642Y0395071D03*
X0528892Y0392836D03*
X0528892Y0392821D03*
D313*
X0521362Y0392941D03*
X0521362Y0392971D03*
X0521362Y0392986D03*
X0521347Y0392911D03*
X0521347Y0392896D03*
X0521332Y0392866D03*
X0521317Y0392851D03*
D314*
X0520687Y0398326D03*
X0520702Y0398341D03*
X0529237Y0395041D03*
X0528637Y0393436D03*
X0528802Y0392971D03*
X0528832Y0392926D03*
X0528847Y0392896D03*
X0528862Y0392881D03*
X0528862Y0392866D03*
D315*
X0521355Y0392926D03*
X0521340Y0392881D03*
D316*
X0521340Y0393271D03*
X0521340Y0393286D03*
X0520680Y0398311D03*
X0528645Y0393421D03*
X0528795Y0392986D03*
X0528825Y0392941D03*
X0528840Y0392911D03*
D317*
X0521362Y0392956D03*
D318*
X0528817Y0392956D03*
D319*
X0521362Y0393076D03*
X0521362Y0393091D03*
D320*
X0528742Y0393106D03*
D321*
X0528675Y0393211D03*
D322*
X0528667Y0393226D03*
X0528667Y0393241D03*
X0529417Y0395296D03*
D323*
X0521347Y0393256D03*
D324*
X0528660Y0393256D03*
D325*
X0521325Y0393406D03*
X0520755Y0394906D03*
D326*
X0528645Y0393406D03*
X0529245Y0395056D03*
D327*
X0528652Y0393541D03*
X0521332Y0393436D03*
X0521332Y0393421D03*
D328*
X0521317Y0393511D03*
X0521317Y0393526D03*
D329*
X0520740Y0394921D03*
X0520575Y0395116D03*
X0528645Y0393526D03*
X0529155Y0394876D03*
D330*
X0521317Y0393556D03*
D331*
X0528652Y0393556D03*
X0524947Y0403006D03*
D332*
X0528660Y0393691D03*
D333*
X0521302Y0393856D03*
D334*
X0521302Y0393871D03*
X0524947Y0402946D03*
D335*
X0520305Y0395191D03*
X0521040Y0394531D03*
X0521295Y0393886D03*
X0528660Y0393991D03*
X0528855Y0394516D03*
D336*
X0528780Y0398896D03*
X0521145Y0398896D03*
X0521070Y0394501D03*
X0521295Y0393916D03*
X0521295Y0393901D03*
D337*
X0521287Y0393931D03*
X0521077Y0394486D03*
X0528757Y0398911D03*
X0524947Y0402931D03*
D338*
X0521167Y0398941D03*
X0521287Y0393961D03*
X0521287Y0393946D03*
X0528667Y0394111D03*
X0528667Y0394126D03*
X0529447Y0398431D03*
D339*
X0528660Y0394141D03*
X0521295Y0393976D03*
D340*
X0528667Y0393976D03*
D341*
X0528667Y0394171D03*
X0529822Y0395431D03*
X0521287Y0393991D03*
X0520237Y0395221D03*
X0524947Y0402916D03*
D342*
X0521295Y0394006D03*
D343*
X0528667Y0394006D03*
D344*
X0528765Y0394441D03*
X0521295Y0394021D03*
X0521145Y0394441D03*
D345*
X0528660Y0394036D03*
X0528660Y0394021D03*
D346*
X0528667Y0394186D03*
X0528697Y0398971D03*
X0524947Y0402901D03*
X0520207Y0395236D03*
X0521302Y0394051D03*
X0521302Y0394036D03*
D347*
X0521152Y0398911D03*
X0528817Y0394471D03*
X0528667Y0394066D03*
X0528667Y0394051D03*
D348*
X0528675Y0394201D03*
X0528720Y0394396D03*
X0521295Y0394066D03*
X0521190Y0394396D03*
X0521175Y0394411D03*
X0521160Y0394426D03*
X0521220Y0398971D03*
D349*
X0520207Y0398146D03*
X0521302Y0394096D03*
X0521302Y0394081D03*
X0528667Y0394216D03*
X0528712Y0394381D03*
X0529507Y0398401D03*
X0528682Y0398986D03*
D350*
X0528660Y0394096D03*
X0528660Y0394081D03*
X0521160Y0398926D03*
X0520275Y0398161D03*
D351*
X0521205Y0394381D03*
X0521295Y0394126D03*
X0521295Y0394111D03*
D352*
X0521287Y0394141D03*
X0528667Y0394231D03*
X0528667Y0394246D03*
X0528697Y0394366D03*
X0529867Y0395446D03*
X0528667Y0399001D03*
X0524947Y0402886D03*
D353*
X0521295Y0394156D03*
D354*
X0521122Y0394456D03*
X0528667Y0394156D03*
D355*
X0528667Y0394261D03*
X0528667Y0394276D03*
X0528667Y0394291D03*
X0528667Y0394321D03*
X0528682Y0394351D03*
X0521287Y0394186D03*
X0521287Y0394171D03*
D356*
X0521287Y0394201D03*
X0521287Y0394216D03*
X0521257Y0394351D03*
X0520162Y0398131D03*
X0521287Y0399031D03*
D357*
X0521265Y0394336D03*
X0521280Y0394246D03*
X0521280Y0394231D03*
X0528600Y0399046D03*
X0524955Y0402871D03*
D358*
X0521272Y0394321D03*
X0521287Y0394276D03*
X0521287Y0394261D03*
D359*
X0521280Y0394291D03*
X0520125Y0398116D03*
D360*
X0521280Y0394306D03*
D361*
X0528667Y0394306D03*
D362*
X0528675Y0394336D03*
D363*
X0528622Y0399031D03*
X0521272Y0399016D03*
X0521257Y0399001D03*
X0520162Y0395251D03*
X0521227Y0394366D03*
D364*
X0528742Y0394411D03*
D365*
X0528750Y0394426D03*
X0529485Y0398416D03*
D366*
X0528787Y0394456D03*
D367*
X0529785Y0395416D03*
X0528750Y0398926D03*
X0521100Y0394471D03*
D368*
X0521062Y0394516D03*
X0521122Y0398881D03*
X0528787Y0398881D03*
X0529402Y0398446D03*
X0529762Y0395401D03*
X0528847Y0394501D03*
X0528832Y0394486D03*
D369*
X0528907Y0394561D03*
X0521062Y0398836D03*
D370*
X0520860Y0394756D03*
D371*
X0529057Y0394756D03*
D372*
X0529170Y0394891D03*
X0520815Y0398521D03*
D373*
X0529177Y0394906D03*
D374*
X0529192Y0394936D03*
D375*
X0520665Y0395056D03*
X0520710Y0398356D03*
D376*
X0520267Y0395206D03*
D377*
X0529327Y0395206D03*
D378*
X0520080Y0395266D03*
D379*
X0520020Y0395281D03*
X0530025Y0395476D03*
D380*
X0519975Y0395296D03*
X0519990Y0398071D03*
X0524955Y0402826D03*
D381*
X0524947Y0402811D03*
X0519937Y0395311D03*
D382*
X0519915Y0395326D03*
X0529800Y0398311D03*
D383*
X0529837Y0398296D03*
X0524947Y0402781D03*
X0519877Y0395341D03*
D384*
X0519825Y0395356D03*
D385*
X0519742Y0395371D03*
X0524947Y0402736D03*
D386*
X0519697Y0395386D03*
D387*
X0519660Y0395401D03*
X0528150Y0399196D03*
X0530100Y0398221D03*
D388*
X0519630Y0395416D03*
D389*
X0519607Y0395431D03*
D390*
X0519555Y0395446D03*
X0530205Y0398176D03*
X0530460Y0395611D03*
D391*
X0524940Y0402616D03*
X0519480Y0395461D03*
D392*
X0528562Y0399061D03*
X0529597Y0398371D03*
X0529942Y0395461D03*
D393*
X0519420Y0395476D03*
X0519150Y0396181D03*
X0519150Y0396196D03*
X0519150Y0396211D03*
X0519150Y0396226D03*
X0519150Y0396241D03*
X0519150Y0396271D03*
X0519150Y0396286D03*
X0519150Y0396301D03*
X0519150Y0396316D03*
X0519150Y0397066D03*
X0519150Y0397081D03*
X0519150Y0397096D03*
X0519165Y0397186D03*
X0519165Y0397201D03*
X0519165Y0397216D03*
X0519165Y0397231D03*
X0519165Y0397246D03*
X0519165Y0397261D03*
X0524955Y0402586D03*
D394*
X0519397Y0397891D03*
X0519187Y0397396D03*
X0519187Y0397381D03*
X0519172Y0396016D03*
X0519172Y0396001D03*
X0519172Y0395986D03*
X0519382Y0395491D03*
X0530662Y0395716D03*
X0530677Y0395731D03*
X0530737Y0395926D03*
X0530737Y0395941D03*
X0530722Y0397441D03*
X0530707Y0397486D03*
D395*
X0530085Y0395491D03*
D396*
X0519352Y0395506D03*
X0519202Y0397456D03*
D397*
X0530115Y0395506D03*
D398*
X0530700Y0395776D03*
X0530700Y0395791D03*
X0530715Y0395821D03*
X0530715Y0395836D03*
X0530715Y0395851D03*
X0530640Y0397726D03*
X0530415Y0398116D03*
X0519345Y0397861D03*
X0519345Y0395521D03*
D399*
X0530152Y0395521D03*
D400*
X0519322Y0395536D03*
X0519247Y0397681D03*
D401*
X0529882Y0398281D03*
X0530182Y0395536D03*
D402*
X0519315Y0395551D03*
X0519300Y0395566D03*
X0519255Y0397696D03*
X0519300Y0397786D03*
X0519315Y0397831D03*
X0519330Y0397846D03*
D403*
X0530235Y0395551D03*
D404*
X0530317Y0395566D03*
X0530017Y0398251D03*
D405*
X0519307Y0397816D03*
X0519307Y0397801D03*
X0519292Y0397771D03*
X0519277Y0397741D03*
X0519277Y0397726D03*
X0519262Y0397711D03*
X0519292Y0395581D03*
D406*
X0530385Y0395581D03*
D407*
X0519285Y0395596D03*
X0519270Y0395611D03*
X0519270Y0395626D03*
D408*
X0530430Y0395596D03*
D409*
X0530497Y0395626D03*
D410*
X0530595Y0397876D03*
X0530460Y0398086D03*
X0519255Y0395641D03*
D411*
X0530542Y0395641D03*
D412*
X0519247Y0395656D03*
D413*
X0530602Y0395656D03*
X0530797Y0396856D03*
X0530782Y0397006D03*
D414*
X0530617Y0397801D03*
X0530617Y0397816D03*
X0530602Y0397846D03*
X0530602Y0397861D03*
X0519247Y0395671D03*
X0519232Y0395686D03*
D415*
X0530632Y0395671D03*
X0530752Y0396001D03*
X0530752Y0396016D03*
X0530752Y0396031D03*
X0530767Y0396076D03*
X0530767Y0396091D03*
X0530767Y0396121D03*
X0530767Y0396136D03*
X0530767Y0396151D03*
X0530752Y0397291D03*
X0530752Y0397321D03*
X0530752Y0397336D03*
D416*
X0530737Y0397366D03*
X0530737Y0397381D03*
X0530737Y0397396D03*
X0530647Y0395686D03*
X0519157Y0396091D03*
X0519157Y0396121D03*
X0519157Y0396136D03*
X0519157Y0396151D03*
X0519157Y0396166D03*
X0519172Y0397276D03*
X0519172Y0397291D03*
X0519172Y0397321D03*
X0519172Y0397336D03*
D417*
X0519240Y0397666D03*
X0519225Y0395731D03*
X0519225Y0395716D03*
X0519225Y0395701D03*
X0530445Y0398101D03*
X0530610Y0397831D03*
X0530625Y0397786D03*
X0530625Y0397771D03*
D418*
X0530730Y0397426D03*
X0530730Y0397411D03*
X0530745Y0395986D03*
X0530745Y0395971D03*
X0530655Y0395701D03*
X0519165Y0396031D03*
X0519165Y0396046D03*
X0519165Y0396061D03*
X0519165Y0396076D03*
X0519180Y0397351D03*
X0519180Y0397366D03*
D419*
X0519232Y0397636D03*
X0519232Y0397651D03*
X0519217Y0395791D03*
X0519217Y0395776D03*
X0519217Y0395761D03*
X0519217Y0395746D03*
X0530632Y0397741D03*
D420*
X0530670Y0397666D03*
X0530670Y0397651D03*
X0530670Y0397636D03*
X0530685Y0397621D03*
X0530685Y0397591D03*
X0530685Y0397576D03*
X0530685Y0397561D03*
X0530700Y0397546D03*
X0530700Y0397531D03*
X0530700Y0397516D03*
X0530700Y0397501D03*
X0530715Y0397471D03*
X0530385Y0398131D03*
X0530730Y0395911D03*
X0530730Y0395896D03*
X0530685Y0395746D03*
X0519195Y0395926D03*
X0519180Y0395971D03*
X0519195Y0397411D03*
X0519195Y0397426D03*
X0519210Y0397471D03*
X0519375Y0397876D03*
D421*
X0519202Y0397441D03*
X0519187Y0395941D03*
X0519202Y0395911D03*
X0519202Y0395896D03*
X0519202Y0395881D03*
X0530692Y0395761D03*
X0530722Y0395866D03*
X0530722Y0395881D03*
X0530662Y0397681D03*
X0530662Y0397696D03*
X0530647Y0397711D03*
D422*
X0530632Y0397756D03*
X0519217Y0395806D03*
D423*
X0530715Y0395806D03*
D424*
X0519210Y0395821D03*
X0519210Y0395836D03*
X0519210Y0395851D03*
X0519210Y0395866D03*
X0519225Y0397561D03*
X0519225Y0397576D03*
X0519225Y0397591D03*
X0519225Y0397621D03*
D425*
X0519180Y0395956D03*
X0530685Y0397606D03*
D426*
X0530745Y0395956D03*
X0519420Y0397906D03*
D427*
X0530760Y0396061D03*
X0530760Y0396046D03*
D428*
X0519157Y0396106D03*
X0519172Y0397306D03*
D429*
X0530752Y0397306D03*
X0530767Y0396106D03*
D430*
X0530775Y0396166D03*
X0530775Y0396181D03*
X0530775Y0396196D03*
X0530775Y0396211D03*
X0530775Y0396226D03*
X0530760Y0397216D03*
X0530760Y0397231D03*
X0530760Y0397246D03*
X0530760Y0397261D03*
X0530760Y0397276D03*
X0530745Y0397351D03*
D431*
X0530767Y0397201D03*
X0530767Y0397186D03*
X0530767Y0397171D03*
X0530767Y0397141D03*
X0530767Y0397126D03*
X0530782Y0396331D03*
X0530782Y0396316D03*
X0530782Y0396301D03*
X0530782Y0396286D03*
X0530782Y0396271D03*
X0530782Y0396241D03*
X0530347Y0398146D03*
D432*
X0519150Y0396256D03*
D433*
X0530782Y0396256D03*
X0530767Y0397156D03*
D434*
X0519442Y0397921D03*
X0519157Y0397171D03*
X0519157Y0397141D03*
X0519157Y0397126D03*
X0519157Y0397111D03*
X0519142Y0397051D03*
X0519142Y0397036D03*
X0519142Y0397021D03*
X0519142Y0396991D03*
X0519142Y0396976D03*
X0519142Y0396961D03*
X0519142Y0396946D03*
X0519142Y0396421D03*
X0519142Y0396391D03*
X0519142Y0396376D03*
X0519142Y0396361D03*
X0519142Y0396346D03*
X0519142Y0396331D03*
D435*
X0530790Y0396346D03*
X0530790Y0396361D03*
X0530790Y0396376D03*
X0530790Y0396391D03*
X0530790Y0396421D03*
X0530790Y0396931D03*
X0530790Y0396946D03*
X0530790Y0396961D03*
X0530775Y0397021D03*
X0530775Y0397036D03*
X0530775Y0397051D03*
X0530775Y0397066D03*
X0530775Y0397081D03*
X0530775Y0397096D03*
X0530775Y0397111D03*
D436*
X0519157Y0397156D03*
X0519142Y0397006D03*
X0519142Y0396406D03*
D437*
X0530790Y0396406D03*
D438*
X0519135Y0396436D03*
X0519135Y0396451D03*
X0519135Y0396466D03*
X0519135Y0396481D03*
X0519135Y0396496D03*
X0519135Y0396511D03*
X0519120Y0396526D03*
X0519120Y0396541D03*
X0519120Y0396571D03*
X0519120Y0396586D03*
X0519120Y0396601D03*
X0519120Y0396616D03*
X0519135Y0396841D03*
X0519135Y0396871D03*
X0519135Y0396886D03*
X0519135Y0396901D03*
X0519135Y0396916D03*
X0519135Y0396931D03*
D439*
X0519112Y0396661D03*
X0519112Y0396646D03*
X0519112Y0396631D03*
X0530782Y0396976D03*
X0530782Y0396991D03*
X0530797Y0396916D03*
X0530797Y0396901D03*
X0530797Y0396886D03*
X0530797Y0396871D03*
X0530797Y0396841D03*
X0530797Y0396826D03*
X0530797Y0396526D03*
X0530797Y0396511D03*
X0530797Y0396496D03*
X0530797Y0396481D03*
X0530797Y0396466D03*
X0530797Y0396451D03*
X0530797Y0396436D03*
D440*
X0530805Y0396541D03*
X0530805Y0396571D03*
X0530805Y0396586D03*
X0530805Y0396601D03*
X0530805Y0396616D03*
X0530805Y0396631D03*
X0530805Y0396646D03*
X0530805Y0396661D03*
X0530805Y0396676D03*
X0530805Y0396691D03*
X0530805Y0396721D03*
X0530805Y0396736D03*
X0530805Y0396751D03*
X0530805Y0396766D03*
X0530805Y0396781D03*
X0530805Y0396796D03*
X0530805Y0396811D03*
X0519480Y0397936D03*
X0519120Y0396736D03*
X0519120Y0396721D03*
X0519120Y0396691D03*
X0519120Y0396676D03*
D441*
X0519120Y0396556D03*
X0519135Y0396856D03*
D442*
X0519120Y0396706D03*
X0530805Y0396706D03*
X0530805Y0396556D03*
D443*
X0519127Y0396751D03*
X0519127Y0396766D03*
X0519127Y0396781D03*
X0519127Y0396796D03*
X0519127Y0396811D03*
X0519127Y0396826D03*
D444*
X0530722Y0397456D03*
D445*
X0519217Y0397486D03*
X0519217Y0397501D03*
X0519217Y0397516D03*
X0519217Y0397531D03*
X0519217Y0397546D03*
D446*
X0519225Y0397606D03*
D447*
X0519292Y0397756D03*
D448*
X0530482Y0398071D03*
X0530587Y0397891D03*
D449*
X0530587Y0397906D03*
X0530497Y0398056D03*
D450*
X0530520Y0398041D03*
X0530565Y0397951D03*
X0530580Y0397921D03*
D451*
X0530572Y0397936D03*
X0530557Y0397966D03*
X0530557Y0397981D03*
D452*
X0524947Y0402631D03*
X0519532Y0397951D03*
D453*
X0519607Y0397966D03*
X0524947Y0402661D03*
D454*
X0524947Y0402691D03*
X0530062Y0398236D03*
X0519682Y0397981D03*
D455*
X0519727Y0397996D03*
D456*
X0530535Y0398026D03*
X0530550Y0397996D03*
D457*
X0519765Y0398011D03*
D458*
X0530542Y0398011D03*
D459*
X0519795Y0398026D03*
D460*
X0519832Y0398041D03*
D461*
X0519900Y0398056D03*
D462*
X0520050Y0398086D03*
D463*
X0520102Y0398101D03*
D464*
X0530287Y0398161D03*
D465*
X0520365Y0398176D03*
D466*
X0530160Y0398191D03*
D467*
X0520462Y0398206D03*
D468*
X0530130Y0398206D03*
D469*
X0529942Y0398266D03*
D470*
X0529770Y0398326D03*
X0528405Y0399151D03*
X0521505Y0399151D03*
D471*
X0529732Y0398341D03*
D472*
X0529672Y0398356D03*
D473*
X0529545Y0398386D03*
X0528645Y0399016D03*
D474*
X0520800Y0398506D03*
D475*
X0520867Y0398596D03*
D476*
X0521040Y0398806D03*
D477*
X0528742Y0398941D03*
D478*
X0521190Y0398956D03*
D479*
X0528727Y0398956D03*
D480*
X0521235Y0398986D03*
D481*
X0521317Y0399046D03*
D482*
X0521347Y0399061D03*
D483*
X0521385Y0399076D03*
D484*
X0528510Y0399076D03*
D485*
X0521415Y0399091D03*
D486*
X0528487Y0399091D03*
D487*
X0521430Y0399106D03*
D488*
X0528472Y0399106D03*
D489*
X0524947Y0402841D03*
X0521452Y0399121D03*
D490*
X0528450Y0399121D03*
D491*
X0521467Y0399136D03*
D492*
X0528435Y0399136D03*
D493*
X0528315Y0399166D03*
X0521595Y0399166D03*
D494*
X0521662Y0399181D03*
D495*
X0528210Y0399181D03*
D496*
X0521715Y0399196D03*
D497*
X0524955Y0399211D03*
D498*
X0524947Y0399226D03*
D499*
X0524955Y0399241D03*
X0524925Y0401041D03*
D500*
X0524955Y0399256D03*
D501*
X0524947Y0399271D03*
D502*
X0524947Y0399286D03*
X0524917Y0401011D03*
D503*
X0524925Y0400996D03*
X0524940Y0399301D03*
D504*
X0524947Y0399316D03*
X0524917Y0400981D03*
D505*
X0524947Y0399346D03*
X0524947Y0399331D03*
D506*
X0524955Y0399361D03*
X0524925Y0400951D03*
D507*
X0524947Y0399376D03*
D508*
X0524955Y0399391D03*
X0524955Y0399421D03*
D509*
X0524955Y0399406D03*
D510*
X0524955Y0399436D03*
X0524955Y0399451D03*
X0524955Y0399466D03*
D511*
X0524955Y0399481D03*
X0524925Y0400891D03*
D512*
X0524947Y0399496D03*
D513*
X0524955Y0399511D03*
D514*
X0524955Y0399526D03*
D515*
X0524947Y0399541D03*
X0524917Y0400831D03*
D516*
X0524955Y0399556D03*
D517*
X0524955Y0399571D03*
X0524955Y0399586D03*
X0524925Y0400801D03*
D518*
X0524925Y0400786D03*
X0524955Y0399631D03*
X0524955Y0399616D03*
X0524955Y0399601D03*
D519*
X0524947Y0399646D03*
X0524917Y0400771D03*
D520*
X0524955Y0399661D03*
D521*
X0524947Y0399676D03*
D522*
X0524955Y0399691D03*
D523*
X0524947Y0399706D03*
D524*
X0524947Y0399721D03*
X0524947Y0399736D03*
D525*
X0524947Y0399751D03*
D526*
X0524955Y0399766D03*
D527*
X0524947Y0399781D03*
D528*
X0524955Y0399796D03*
X0524955Y0399811D03*
D529*
X0524955Y0399826D03*
X0524955Y0399841D03*
D530*
X0524947Y0399856D03*
D531*
X0524955Y0399871D03*
D532*
X0524947Y0399886D03*
X0524917Y0400621D03*
D533*
X0524917Y0400591D03*
X0524947Y0399901D03*
D534*
X0524940Y0399916D03*
X0524910Y0400576D03*
D535*
X0524917Y0400561D03*
X0524947Y0399931D03*
D536*
X0524947Y0399946D03*
X0524917Y0400531D03*
D537*
X0524955Y0399961D03*
D538*
X0524947Y0399976D03*
X0524917Y0400516D03*
D539*
X0524955Y0399991D03*
D540*
X0524955Y0400006D03*
D541*
X0524955Y0400021D03*
X0524955Y0400036D03*
D542*
X0524955Y0400051D03*
X0524910Y0400471D03*
D543*
X0524947Y0400066D03*
D544*
X0524947Y0400081D03*
D545*
X0524947Y0400096D03*
D546*
X0524955Y0400111D03*
X0524910Y0400396D03*
D547*
X0524917Y0400381D03*
X0524947Y0400126D03*
D548*
X0524955Y0400141D03*
D549*
X0524955Y0400156D03*
D550*
X0524955Y0400171D03*
D551*
X0524947Y0400186D03*
X0524947Y0400201D03*
D552*
X0524947Y0400216D03*
X0524947Y0400231D03*
X0524917Y0400336D03*
D553*
X0524910Y0400321D03*
X0524925Y0400276D03*
X0524925Y0400261D03*
X0524940Y0400246D03*
D554*
X0524917Y0400291D03*
D555*
X0524917Y0400306D03*
D556*
X0524910Y0400351D03*
D557*
X0524917Y0400366D03*
D558*
X0524910Y0400411D03*
X0524910Y0400426D03*
D559*
X0524910Y0400441D03*
D560*
X0524910Y0400456D03*
D561*
X0524910Y0400486D03*
D562*
X0524917Y0400501D03*
D563*
X0524910Y0400546D03*
D564*
X0524917Y0400606D03*
D565*
X0524917Y0400636D03*
D566*
X0524917Y0400651D03*
D567*
X0524917Y0400666D03*
D568*
X0524917Y0400681D03*
D569*
X0524910Y0400696D03*
D570*
X0524917Y0400711D03*
D571*
X0524910Y0400726D03*
D572*
X0524917Y0400741D03*
D573*
X0524917Y0400756D03*
D574*
X0524925Y0400816D03*
D575*
X0524925Y0400846D03*
D576*
X0524917Y0400861D03*
D577*
X0524917Y0400876D03*
D578*
X0524925Y0400906D03*
D579*
X0524925Y0400921D03*
D580*
X0524925Y0400936D03*
D581*
X0524925Y0400966D03*
D582*
X0524925Y0401026D03*
D583*
X0524932Y0401056D03*
D584*
X0524932Y0401071D03*
D585*
X0524932Y0401086D03*
D586*
X0524925Y0401101D03*
D587*
X0524925Y0401116D03*
D588*
X0524917Y0401131D03*
D589*
X0524925Y0401146D03*
D590*
X0524925Y0401161D03*
D591*
X0524932Y0401176D03*
D592*
X0524932Y0401191D03*
D593*
X0524940Y0401206D03*
D594*
X0524932Y0401221D03*
D595*
X0524932Y0401236D03*
D596*
X0524925Y0401251D03*
D597*
X0524925Y0401266D03*
D598*
X0524932Y0401281D03*
D599*
X0524925Y0401296D03*
D600*
X0524932Y0401311D03*
D601*
X0524932Y0401326D03*
D602*
X0524940Y0401341D03*
D603*
X0524940Y0401356D03*
D604*
X0524932Y0401371D03*
D605*
X0524932Y0401386D03*
D606*
X0524925Y0401401D03*
D607*
X0524925Y0401416D03*
X0524925Y0401431D03*
D608*
X0524925Y0401446D03*
D609*
X0524940Y0401461D03*
D610*
X0524940Y0401476D03*
X0524940Y0401491D03*
D611*
X0524940Y0401506D03*
D612*
X0524940Y0401521D03*
D613*
X0524932Y0401536D03*
D614*
X0524932Y0401551D03*
X0524932Y0401566D03*
D615*
X0524932Y0401581D03*
D616*
X0524932Y0401596D03*
D617*
X0524940Y0401611D03*
D618*
X0524940Y0401626D03*
X0524940Y0401641D03*
D619*
X0524940Y0401656D03*
D620*
X0524940Y0401671D03*
D621*
X0524932Y0401686D03*
D622*
X0524932Y0401701D03*
X0524932Y0401716D03*
D623*
X0524932Y0401731D03*
D624*
X0524940Y0401746D03*
D625*
X0524940Y0401761D03*
D626*
X0524947Y0401776D03*
D627*
X0524947Y0401791D03*
D628*
X0524940Y0401806D03*
D629*
X0524940Y0401821D03*
D630*
X0524932Y0401836D03*
D631*
X0524940Y0401851D03*
D632*
X0524940Y0401866D03*
D633*
X0524940Y0401881D03*
D634*
X0524947Y0401896D03*
D635*
X0524947Y0401911D03*
X0524947Y0401926D03*
D636*
X0524947Y0401941D03*
D637*
X0524940Y0401956D03*
D638*
X0524940Y0401971D03*
D639*
X0524940Y0401986D03*
D640*
X0524947Y0402001D03*
D641*
X0524947Y0402016D03*
X0524962Y0402496D03*
D642*
X0524955Y0402031D03*
D643*
X0524947Y0402046D03*
X0524962Y0402481D03*
D644*
X0524947Y0402076D03*
X0524947Y0402061D03*
D645*
X0524947Y0402091D03*
D646*
X0524940Y0402106D03*
D647*
X0524940Y0402121D03*
D648*
X0524947Y0402136D03*
D649*
X0524940Y0402151D03*
X0524955Y0402391D03*
D650*
X0524947Y0402166D03*
D651*
X0524947Y0402181D03*
X0524962Y0402361D03*
D652*
X0524955Y0402346D03*
X0524955Y0402331D03*
X0524955Y0402241D03*
X0524955Y0402226D03*
X0524955Y0402211D03*
X0524955Y0402196D03*
D653*
X0524962Y0402256D03*
D654*
X0524962Y0402271D03*
X0524962Y0402286D03*
X0524962Y0402301D03*
X0524962Y0402316D03*
D655*
X0524955Y0402376D03*
D656*
X0524962Y0402406D03*
D657*
X0524962Y0402421D03*
D658*
X0524955Y0402436D03*
D659*
X0524955Y0402451D03*
D660*
X0524955Y0402466D03*
D661*
X0524955Y0402511D03*
D662*
X0524955Y0402526D03*
D663*
X0530137Y0402631D03*
X0519697Y0402541D03*
D664*
X0526725Y0402541D03*
D665*
X0519690Y0402556D03*
D666*
X0526732Y0402556D03*
D667*
X0519682Y0402571D03*
D668*
X0526747Y0402571D03*
D669*
X0530115Y0402586D03*
D670*
X0524940Y0402601D03*
D671*
X0530137Y0402601D03*
D672*
X0530160Y0402721D03*
X0524940Y0403321D03*
X0519675Y0402616D03*
D673*
X0530137Y0402616D03*
D674*
X0519675Y0402646D03*
D675*
X0524940Y0402646D03*
D676*
X0530137Y0402646D03*
D677*
X0519667Y0402661D03*
D678*
X0530145Y0402661D03*
D679*
X0519660Y0402676D03*
D680*
X0524947Y0402676D03*
D681*
X0530152Y0402676D03*
D682*
X0530175Y0402781D03*
X0519660Y0402691D03*
D683*
X0519652Y0402706D03*
X0524947Y0403906D03*
D684*
X0524947Y0402706D03*
D685*
X0524940Y0403306D03*
X0530160Y0402706D03*
D686*
X0524940Y0402721D03*
D687*
X0524940Y0404116D03*
X0524940Y0404131D03*
X0524940Y0404146D03*
X0530190Y0402841D03*
X0519645Y0402751D03*
D688*
X0524947Y0402751D03*
D689*
X0524932Y0403471D03*
X0524932Y0403486D03*
X0524932Y0403501D03*
X0524932Y0403516D03*
X0524932Y0403531D03*
X0530167Y0402751D03*
D690*
X0524947Y0404236D03*
X0524947Y0404251D03*
X0524947Y0404266D03*
X0519637Y0402766D03*
D691*
X0524947Y0402766D03*
D692*
X0530167Y0402766D03*
D693*
X0524955Y0404536D03*
X0524955Y0404551D03*
X0524955Y0404566D03*
X0519630Y0402796D03*
D694*
X0524947Y0402796D03*
D695*
X0524940Y0403996D03*
X0524940Y0404011D03*
X0524940Y0404026D03*
X0530190Y0402811D03*
D696*
X0530212Y0402901D03*
X0524947Y0404641D03*
X0519622Y0402826D03*
D697*
X0519615Y0402856D03*
X0524955Y0404806D03*
D698*
X0524947Y0402856D03*
D699*
X0530197Y0402856D03*
D700*
X0519615Y0402886D03*
D701*
X0519607Y0402916D03*
X0524962Y0405241D03*
X0524962Y0405271D03*
D702*
X0524962Y0405301D03*
X0524962Y0405316D03*
X0524962Y0405331D03*
X0519607Y0402931D03*
D703*
X0530220Y0402931D03*
D704*
X0524970Y0405436D03*
X0519600Y0402946D03*
D705*
X0524955Y0404791D03*
X0524955Y0404821D03*
X0524955Y0404836D03*
X0530220Y0402946D03*
D706*
X0524962Y0405571D03*
X0519592Y0402961D03*
D707*
X0524962Y0405001D03*
X0524962Y0405016D03*
X0524962Y0405031D03*
X0524962Y0405046D03*
X0524962Y0405061D03*
X0530227Y0402961D03*
D708*
X0519592Y0402976D03*
D709*
X0519585Y0402991D03*
X0524970Y0405631D03*
D710*
X0519585Y0403006D03*
D711*
X0530242Y0403006D03*
D712*
X0530265Y0403096D03*
X0519585Y0403021D03*
D713*
X0519577Y0403036D03*
X0524962Y0405661D03*
D714*
X0524962Y0405541D03*
X0524962Y0405526D03*
X0524962Y0405511D03*
X0524962Y0405496D03*
X0524962Y0405481D03*
X0524962Y0405466D03*
X0524962Y0405451D03*
X0530242Y0403036D03*
D715*
X0530265Y0403126D03*
X0524970Y0405676D03*
X0519570Y0403051D03*
D716*
X0524970Y0405586D03*
X0524970Y0405601D03*
X0530250Y0403051D03*
D717*
X0524955Y0403066D03*
D718*
X0519570Y0403081D03*
D719*
X0524955Y0403081D03*
D720*
X0524970Y0405646D03*
X0530265Y0403081D03*
D721*
X0519562Y0403096D03*
D722*
X0524947Y0403096D03*
D723*
X0524955Y0403111D03*
D724*
X0530265Y0403111D03*
D725*
X0524985Y0405721D03*
X0519555Y0403126D03*
D726*
X0524955Y0403126D03*
D727*
X0524955Y0403141D03*
D728*
X0530272Y0403141D03*
D729*
X0519555Y0403156D03*
D730*
X0524947Y0403156D03*
D731*
X0530280Y0403156D03*
D732*
X0524962Y0403171D03*
D733*
X0530287Y0403171D03*
D734*
X0524962Y0403186D03*
D735*
X0524962Y0403201D03*
D736*
X0519540Y0403216D03*
D737*
X0524962Y0403216D03*
D738*
X0530287Y0403216D03*
D739*
X0530310Y0403291D03*
X0519540Y0403231D03*
D740*
X0524962Y0403231D03*
D741*
X0519532Y0403246D03*
D742*
X0524955Y0403246D03*
D743*
X0519532Y0403276D03*
D744*
X0524947Y0403276D03*
D745*
X0530302Y0403276D03*
D746*
X0519525Y0403291D03*
D747*
X0519525Y0403306D03*
D748*
X0519525Y0403321D03*
D749*
X0519525Y0403336D03*
X0530325Y0403396D03*
D750*
X0530310Y0403336D03*
D751*
X0530325Y0403411D03*
X0519525Y0403351D03*
D752*
X0524940Y0403351D03*
X0524940Y0403366D03*
X0524940Y0403381D03*
D753*
X0530310Y0403351D03*
D754*
X0530317Y0403366D03*
D755*
X0519517Y0403381D03*
D756*
X0530317Y0403381D03*
D757*
X0519510Y0403396D03*
D758*
X0519517Y0403411D03*
X0530332Y0403471D03*
D759*
X0519517Y0403426D03*
D760*
X0519517Y0403441D03*
D761*
X0519510Y0403456D03*
D762*
X0524925Y0403456D03*
D763*
X0530332Y0403456D03*
D764*
X0519502Y0403486D03*
D765*
X0530340Y0403516D03*
D766*
X0519495Y0403531D03*
D767*
X0530340Y0403531D03*
D768*
X0524940Y0403546D03*
D769*
X0519487Y0403576D03*
D770*
X0524940Y0403591D03*
X0524940Y0403621D03*
D771*
X0519487Y0403606D03*
D772*
X0524940Y0403606D03*
D773*
X0530355Y0403606D03*
D774*
X0519487Y0403651D03*
D775*
X0530362Y0403666D03*
D776*
X0519480Y0403681D03*
D777*
X0530370Y0403681D03*
D778*
X0519480Y0403741D03*
D779*
X0519472Y0403756D03*
D780*
X0524947Y0403756D03*
D781*
X0530370Y0403756D03*
D782*
X0530377Y0403771D03*
D783*
X0519465Y0403786D03*
D784*
X0530377Y0403786D03*
D785*
X0530385Y0403861D03*
X0519465Y0403801D03*
D786*
X0530377Y0403801D03*
D787*
X0519465Y0403816D03*
D788*
X0530377Y0403816D03*
D789*
X0524947Y0403846D03*
X0524947Y0403861D03*
X0524947Y0403876D03*
X0524947Y0403891D03*
X0524947Y0403921D03*
D790*
X0530385Y0403846D03*
D791*
X0530392Y0403921D03*
X0519457Y0403861D03*
D792*
X0530392Y0403876D03*
D793*
X0530392Y0403906D03*
D794*
X0524940Y0403936D03*
D795*
X0530400Y0403936D03*
D796*
X0530422Y0403951D03*
D797*
X0524940Y0404056D03*
D798*
X0524947Y0404161D03*
X0524947Y0404176D03*
X0524947Y0404191D03*
D799*
X0524955Y0404206D03*
D800*
X0524955Y0404221D03*
D801*
X0524955Y0404281D03*
X0524955Y0404296D03*
X0524955Y0404311D03*
X0524955Y0404326D03*
X0524955Y0404341D03*
X0524955Y0404371D03*
X0524955Y0404386D03*
D802*
X0524955Y0404356D03*
D803*
X0524947Y0404521D03*
D804*
X0524947Y0404656D03*
D805*
X0524947Y0404701D03*
D806*
X0524955Y0404716D03*
X0524955Y0404731D03*
X0524955Y0404746D03*
X0524955Y0404761D03*
D807*
X0524962Y0405106D03*
D808*
X0524955Y0405166D03*
D809*
X0524970Y0405226D03*
D810*
X0524962Y0405256D03*
D811*
X0524962Y0405406D03*
D812*
X0524962Y0405556D03*
D813*
X0524977Y0405706D03*
D814*
X0524887Y0405751D03*
D815*
X0571573Y0166994D02*
X0573508Y0165059D01*
X0573024Y0165543D02*
X0574475Y0166994D01*
X0574475Y0165059D02*
X0571573Y0165059D01*
X0571573Y0162113D02*
X0574475Y0162113D01*
X0574475Y0164048D01*
X0573992Y0161101D02*
X0574475Y0160618D01*
X0574475Y0159650D01*
X0573992Y0159166D01*
X0572057Y0159166D01*
X0571573Y0159650D01*
X0571573Y0160618D01*
X0572057Y0161101D01*
X0571573Y0158155D02*
X0574475Y0158155D01*
X0573508Y0157187D01*
X0574475Y0156220D01*
X0571573Y0156220D01*
X0572057Y0155208D02*
X0571573Y0154725D01*
X0571573Y0153757D01*
X0572057Y0153273D01*
X0572540Y0153273D01*
X0573024Y0153757D01*
X0573024Y0154725D01*
X0573508Y0155208D01*
X0573992Y0155208D01*
X0574475Y0154725D01*
X0574475Y0153757D01*
X0573992Y0153273D01*
X0576373Y0153757D02*
X0576857Y0153273D01*
X0578792Y0153273D01*
X0579275Y0153757D01*
X0579275Y0154725D01*
X0578792Y0155208D01*
X0577824Y0155208D01*
X0577824Y0154241D01*
X0576857Y0155208D02*
X0576373Y0154725D01*
X0576373Y0153757D01*
X0577340Y0156220D02*
X0577340Y0157671D01*
X0577824Y0158155D01*
X0579275Y0158155D01*
X0578792Y0159166D02*
X0577824Y0159166D01*
X0577340Y0159650D01*
X0577340Y0161101D01*
X0576373Y0161101D02*
X0579275Y0161101D01*
X0579275Y0159650D01*
X0578792Y0159166D01*
X0581173Y0159166D02*
X0581173Y0160618D01*
X0581657Y0161101D01*
X0583592Y0161101D01*
X0584075Y0160618D01*
X0584075Y0159166D01*
X0581173Y0159166D01*
X0581173Y0158155D02*
X0584075Y0158155D01*
X0583108Y0157187D01*
X0584075Y0156220D01*
X0581173Y0156220D01*
X0581657Y0155208D02*
X0581173Y0154725D01*
X0581173Y0153757D01*
X0581657Y0153273D01*
X0582140Y0153273D01*
X0582624Y0153757D01*
X0582624Y0154725D01*
X0583108Y0155208D01*
X0583592Y0155208D01*
X0584075Y0154725D01*
X0584075Y0153757D01*
X0583592Y0153273D01*
X0582624Y0149315D02*
X0582624Y0147380D01*
X0581173Y0148832D01*
X0584075Y0148832D01*
X0579275Y0148832D02*
X0579275Y0147864D01*
X0578792Y0147380D01*
X0577824Y0148348D02*
X0577824Y0148832D01*
X0578308Y0149315D01*
X0578792Y0149315D01*
X0579275Y0148832D01*
X0577824Y0148832D02*
X0577340Y0149315D01*
X0576857Y0149315D01*
X0576373Y0148832D01*
X0576373Y0147864D01*
X0576857Y0147380D01*
X0574475Y0147380D02*
X0572540Y0149315D01*
X0572057Y0149315D01*
X0571573Y0148832D01*
X0571573Y0147864D01*
X0572057Y0147380D01*
X0574475Y0147380D02*
X0574475Y0149315D01*
X0577340Y0156220D02*
X0579275Y0156220D01*
X0581173Y0162113D02*
X0581173Y0163080D01*
X0581173Y0162597D02*
X0584075Y0162597D01*
X0584075Y0163080D02*
X0584075Y0162113D01*
X0583592Y0164077D02*
X0584075Y0164561D01*
X0584075Y0165528D01*
X0583592Y0166012D01*
X0581657Y0166012D01*
X0581173Y0165528D01*
X0581173Y0164561D01*
X0581657Y0164077D01*
X0583592Y0164077D01*
D816*
X0586638Y0161270D02*
X0586640Y0161342D01*
X0586646Y0161413D01*
X0586656Y0161484D01*
X0586669Y0161554D01*
X0586687Y0161624D01*
X0586708Y0161692D01*
X0586734Y0161759D01*
X0586762Y0161825D01*
X0586795Y0161889D01*
X0586831Y0161951D01*
X0586870Y0162011D01*
X0586912Y0162068D01*
X0586958Y0162124D01*
X0587006Y0162176D01*
X0587058Y0162226D01*
X0587112Y0162273D01*
X0587168Y0162317D01*
X0587227Y0162358D01*
X0587288Y0162396D01*
X0587351Y0162430D01*
X0587416Y0162461D01*
X0587482Y0162487D01*
X0587550Y0162511D01*
X0587619Y0162530D01*
X0587689Y0162546D01*
X0587759Y0162558D01*
X0587831Y0162566D01*
X0587902Y0162570D01*
X0587974Y0162570D01*
X0588045Y0162566D01*
X0588117Y0162558D01*
X0588187Y0162546D01*
X0588257Y0162530D01*
X0588326Y0162511D01*
X0588394Y0162487D01*
X0588460Y0162461D01*
X0588525Y0162430D01*
X0588588Y0162396D01*
X0588649Y0162358D01*
X0588708Y0162317D01*
X0588764Y0162273D01*
X0588818Y0162226D01*
X0588870Y0162176D01*
X0588918Y0162124D01*
X0588964Y0162068D01*
X0589006Y0162011D01*
X0589045Y0161951D01*
X0589081Y0161889D01*
X0589114Y0161825D01*
X0589142Y0161759D01*
X0589168Y0161692D01*
X0589189Y0161624D01*
X0589207Y0161554D01*
X0589220Y0161484D01*
X0589230Y0161413D01*
X0589236Y0161342D01*
X0589238Y0161270D01*
X0589236Y0161198D01*
X0589230Y0161127D01*
X0589220Y0161056D01*
X0589207Y0160986D01*
X0589189Y0160916D01*
X0589168Y0160848D01*
X0589142Y0160781D01*
X0589114Y0160715D01*
X0589081Y0160651D01*
X0589045Y0160589D01*
X0589006Y0160529D01*
X0588964Y0160472D01*
X0588918Y0160416D01*
X0588870Y0160364D01*
X0588818Y0160314D01*
X0588764Y0160267D01*
X0588708Y0160223D01*
X0588649Y0160182D01*
X0588588Y0160144D01*
X0588525Y0160110D01*
X0588460Y0160079D01*
X0588394Y0160053D01*
X0588326Y0160029D01*
X0588257Y0160010D01*
X0588187Y0159994D01*
X0588117Y0159982D01*
X0588045Y0159974D01*
X0587974Y0159970D01*
X0587902Y0159970D01*
X0587831Y0159974D01*
X0587759Y0159982D01*
X0587689Y0159994D01*
X0587619Y0160010D01*
X0587550Y0160029D01*
X0587482Y0160053D01*
X0587416Y0160079D01*
X0587351Y0160110D01*
X0587288Y0160144D01*
X0587227Y0160182D01*
X0587168Y0160223D01*
X0587112Y0160267D01*
X0587058Y0160314D01*
X0587006Y0160364D01*
X0586958Y0160416D01*
X0586912Y0160472D01*
X0586870Y0160529D01*
X0586831Y0160589D01*
X0586795Y0160651D01*
X0586762Y0160715D01*
X0586734Y0160781D01*
X0586708Y0160848D01*
X0586687Y0160916D01*
X0586669Y0160986D01*
X0586656Y0161056D01*
X0586646Y0161127D01*
X0586640Y0161198D01*
X0586638Y0161270D01*
D817*
X0579705Y0116323D02*
X0579705Y0112720D01*
X0578504Y0112720D02*
X0580906Y0112720D01*
X0578504Y0115122D02*
X0579705Y0116323D01*
X0577223Y0116323D02*
X0577223Y0112720D01*
X0574821Y0116323D01*
X0574821Y0112720D01*
X0573540Y0112720D02*
X0572339Y0113921D01*
X0572939Y0113921D02*
X0571138Y0113921D01*
X0571138Y0112720D02*
X0571138Y0116323D01*
X0572939Y0116323D01*
X0573540Y0115722D01*
X0573540Y0114521D01*
X0572939Y0113921D01*
X0517657Y0140220D02*
X0517657Y0142622D01*
X0517056Y0143223D01*
X0515855Y0143223D01*
X0515255Y0142622D01*
X0515255Y0142022D01*
X0515855Y0141421D01*
X0517657Y0141421D01*
X0517657Y0140220D02*
X0517056Y0139620D01*
X0515855Y0139620D01*
X0515255Y0140220D01*
X0513973Y0140220D02*
X0513373Y0139620D01*
X0512172Y0139620D01*
X0511571Y0140220D01*
X0511571Y0142622D01*
X0512172Y0143223D01*
X0513373Y0143223D01*
X0513973Y0142622D01*
X0514571Y0146770D02*
X0516973Y0146770D01*
X0515772Y0146770D02*
X0515772Y0150373D01*
X0514571Y0149172D01*
X0513290Y0149772D02*
X0512690Y0150373D01*
X0511489Y0150373D01*
X0510888Y0149772D01*
X0510888Y0147370D01*
X0511489Y0146770D01*
X0512690Y0146770D01*
X0513290Y0147370D01*
X0518255Y0147370D02*
X0520657Y0149772D01*
X0520657Y0147370D01*
X0520056Y0146770D01*
X0518855Y0146770D01*
X0518255Y0147370D01*
X0518255Y0149772D01*
X0518855Y0150373D01*
X0520056Y0150373D01*
X0520657Y0149772D01*
X0506823Y0148723D02*
X0505622Y0148122D01*
X0504421Y0146921D01*
X0506222Y0146921D01*
X0506823Y0146321D01*
X0506823Y0145720D01*
X0506222Y0145120D01*
X0505021Y0145120D01*
X0504421Y0145720D01*
X0504421Y0146921D01*
X0503140Y0145720D02*
X0502539Y0145120D01*
X0501338Y0145120D01*
X0500738Y0145720D01*
X0500738Y0148122D01*
X0501338Y0148723D01*
X0502539Y0148723D01*
X0503140Y0148122D01*
X0493078Y0146222D02*
X0492478Y0146823D01*
X0491277Y0146823D01*
X0490676Y0146222D01*
X0489395Y0146222D02*
X0488795Y0146823D01*
X0487594Y0146823D01*
X0486993Y0146222D01*
X0486993Y0143820D01*
X0487594Y0143220D01*
X0488795Y0143220D01*
X0489395Y0143820D01*
X0490676Y0143220D02*
X0493078Y0145622D01*
X0493078Y0146222D01*
X0493078Y0143220D02*
X0490676Y0143220D01*
X0485739Y0143220D02*
X0484538Y0143220D01*
X0485138Y0143220D02*
X0485138Y0146823D01*
X0484538Y0146823D02*
X0485739Y0146823D01*
X0469273Y0141470D02*
X0466871Y0141470D01*
X0468072Y0141470D02*
X0468072Y0145073D01*
X0466871Y0143872D01*
X0465590Y0144472D02*
X0465590Y0143271D01*
X0464989Y0142671D01*
X0463188Y0142671D01*
X0464389Y0142671D02*
X0465590Y0141470D01*
X0463188Y0141470D02*
X0463188Y0145073D01*
X0464989Y0145073D01*
X0465590Y0144472D01*
X0472038Y0129573D02*
X0473239Y0129573D01*
X0472638Y0129573D02*
X0472638Y0125970D01*
X0472038Y0125970D02*
X0473239Y0125970D01*
X0474493Y0126570D02*
X0475094Y0125970D01*
X0476295Y0125970D01*
X0476895Y0126570D01*
X0478176Y0125970D02*
X0480578Y0125970D01*
X0479377Y0125970D02*
X0479377Y0129573D01*
X0478176Y0128372D01*
X0476895Y0128972D02*
X0476295Y0129573D01*
X0475094Y0129573D01*
X0474493Y0128972D01*
X0474493Y0126570D01*
X0457173Y0115022D02*
X0457173Y0114422D01*
X0454771Y0112020D01*
X0457173Y0112020D01*
X0457173Y0115022D02*
X0456572Y0115623D01*
X0455371Y0115623D01*
X0454771Y0115022D01*
X0453490Y0115022D02*
X0452889Y0115623D01*
X0451688Y0115623D01*
X0451088Y0115022D01*
X0451088Y0112620D01*
X0451688Y0112020D01*
X0452889Y0112020D01*
X0453490Y0112620D01*
X0430122Y0142720D02*
X0428921Y0142720D01*
X0428321Y0143320D01*
X0427040Y0143320D02*
X0426439Y0142720D01*
X0425238Y0142720D01*
X0424638Y0143320D01*
X0424638Y0145722D01*
X0425238Y0146323D01*
X0426439Y0146323D01*
X0427040Y0145722D01*
X0428321Y0145722D02*
X0428921Y0146323D01*
X0430122Y0146323D01*
X0430723Y0145722D01*
X0430723Y0145122D01*
X0430122Y0144521D01*
X0430723Y0143921D01*
X0430723Y0143320D01*
X0430122Y0142720D01*
X0430122Y0144521D02*
X0429522Y0144521D01*
X0418728Y0145170D02*
X0418128Y0144570D01*
X0416927Y0144570D01*
X0416326Y0145170D01*
X0415045Y0145170D02*
X0414445Y0144570D01*
X0413244Y0144570D01*
X0412643Y0145170D01*
X0412643Y0147572D01*
X0413244Y0148173D01*
X0414445Y0148173D01*
X0415045Y0147572D01*
X0416326Y0147572D02*
X0416927Y0148173D01*
X0418128Y0148173D01*
X0418728Y0147572D01*
X0418728Y0146972D01*
X0418128Y0146371D01*
X0418728Y0145771D01*
X0418728Y0145170D01*
X0418128Y0146371D02*
X0417527Y0146371D01*
X0411389Y0144570D02*
X0410188Y0144570D01*
X0410788Y0144570D02*
X0410788Y0148173D01*
X0410188Y0148173D02*
X0411389Y0148173D01*
X0386607Y0140021D02*
X0384205Y0140021D01*
X0386006Y0141823D01*
X0386006Y0138220D01*
X0382923Y0138820D02*
X0382323Y0138220D01*
X0381122Y0138220D01*
X0380521Y0138820D01*
X0380521Y0141222D01*
X0381122Y0141823D01*
X0382323Y0141823D01*
X0382923Y0141222D01*
X0383073Y0134323D02*
X0381872Y0134323D01*
X0381271Y0133722D01*
X0381271Y0131320D01*
X0381872Y0130720D01*
X0383073Y0130720D01*
X0383673Y0131320D01*
X0384955Y0131320D02*
X0385555Y0130720D01*
X0386756Y0130720D01*
X0387357Y0131320D01*
X0387357Y0132521D01*
X0386756Y0133122D01*
X0386156Y0133122D01*
X0384955Y0132521D01*
X0384955Y0134323D01*
X0387357Y0134323D01*
X0383673Y0133722D02*
X0383073Y0134323D01*
X0353416Y0135470D02*
X0351014Y0135470D01*
X0352215Y0135470D02*
X0352215Y0139073D01*
X0351014Y0137872D01*
X0349733Y0138472D02*
X0349733Y0137271D01*
X0349132Y0136671D01*
X0347331Y0136671D01*
X0347331Y0135470D02*
X0347331Y0139073D01*
X0349132Y0139073D01*
X0349733Y0138472D01*
X0346050Y0139073D02*
X0344849Y0139073D01*
X0345449Y0139073D02*
X0345449Y0136070D01*
X0344849Y0135470D01*
X0344248Y0135470D01*
X0343648Y0136070D01*
X0498388Y0124073D02*
X0500189Y0124073D01*
X0500790Y0123472D01*
X0500790Y0122271D01*
X0500189Y0121671D01*
X0498388Y0121671D01*
X0499589Y0121671D02*
X0500790Y0120470D01*
X0502071Y0120470D02*
X0502071Y0124073D01*
X0504473Y0120470D01*
X0504473Y0124073D01*
X0505754Y0123472D02*
X0506354Y0124073D01*
X0507555Y0124073D01*
X0508156Y0123472D01*
X0508156Y0122872D01*
X0505754Y0120470D01*
X0508156Y0120470D01*
X0510271Y0118222D02*
X0510271Y0115820D01*
X0510872Y0115220D01*
X0512073Y0115220D01*
X0512673Y0115820D01*
X0513955Y0115820D02*
X0513955Y0115220D01*
X0513955Y0115820D02*
X0516357Y0118222D01*
X0516357Y0118823D01*
X0513955Y0118823D01*
X0512673Y0118222D02*
X0512073Y0118823D01*
X0510872Y0118823D01*
X0510271Y0118222D01*
X0510872Y0122720D02*
X0512073Y0122720D01*
X0512673Y0123320D01*
X0513955Y0123320D02*
X0513955Y0123921D01*
X0514555Y0124521D01*
X0515756Y0124521D01*
X0516357Y0123921D01*
X0516357Y0123320D01*
X0515756Y0122720D01*
X0514555Y0122720D01*
X0513955Y0123320D01*
X0514555Y0124521D02*
X0513955Y0125122D01*
X0513955Y0125722D01*
X0514555Y0126323D01*
X0515756Y0126323D01*
X0516357Y0125722D01*
X0516357Y0125122D01*
X0515756Y0124521D01*
X0512673Y0125722D02*
X0512073Y0126323D01*
X0510872Y0126323D01*
X0510271Y0125722D01*
X0510271Y0123320D01*
X0510872Y0122720D01*
X0498388Y0124073D02*
X0498388Y0120470D01*
X0516388Y0251470D02*
X0518790Y0251470D01*
X0520071Y0251470D02*
X0521872Y0251470D01*
X0522473Y0252070D01*
X0522473Y0254472D01*
X0521872Y0255073D01*
X0520071Y0255073D01*
X0520071Y0251470D01*
X0518790Y0254472D02*
X0516388Y0252070D01*
X0516388Y0251470D01*
X0516388Y0255073D02*
X0518790Y0255073D01*
X0518790Y0254472D01*
X0523754Y0254472D02*
X0524354Y0255073D01*
X0525555Y0255073D01*
X0526156Y0254472D01*
X0526156Y0253872D01*
X0523754Y0251470D01*
X0526156Y0251470D01*
X0526256Y0331970D02*
X0523854Y0331970D01*
X0525055Y0331970D02*
X0525055Y0335573D01*
X0523854Y0334372D01*
X0522573Y0334972D02*
X0521972Y0335573D01*
X0520171Y0335573D01*
X0520171Y0331970D01*
X0521972Y0331970D01*
X0522573Y0332570D01*
X0522573Y0334972D01*
X0518890Y0334972D02*
X0516488Y0332570D01*
X0516488Y0331970D01*
X0518890Y0331970D01*
X0518890Y0334972D02*
X0518890Y0335573D01*
X0516488Y0335573D01*
X0529888Y0364470D02*
X0529888Y0368073D01*
X0531689Y0368073D01*
X0532290Y0367472D01*
X0532290Y0366271D01*
X0531689Y0365671D01*
X0529888Y0365671D01*
X0531089Y0365671D02*
X0532290Y0364470D01*
X0533571Y0364470D02*
X0535973Y0366872D01*
X0535973Y0367472D01*
X0535372Y0368073D01*
X0534171Y0368073D01*
X0533571Y0367472D01*
X0533571Y0364470D02*
X0535973Y0364470D01*
X0407478Y0430970D02*
X0405076Y0430970D01*
X0407478Y0433372D01*
X0407478Y0433972D01*
X0406877Y0434573D01*
X0405676Y0434573D01*
X0405076Y0433972D01*
X0403795Y0433372D02*
X0403194Y0433372D01*
X0401393Y0433372D01*
X0401393Y0432171D02*
X0403795Y0432171D01*
X0403194Y0430970D02*
X0403194Y0434573D01*
X0401993Y0434573D02*
X0401993Y0430970D01*
X0400111Y0431570D02*
X0399511Y0430970D01*
X0397709Y0430970D01*
X0397709Y0434573D01*
X0399511Y0434573D01*
X0400111Y0433972D01*
X0400111Y0433372D01*
X0399511Y0432771D01*
X0397709Y0432771D01*
X0399511Y0432771D02*
X0400111Y0432171D01*
X0400111Y0431570D01*
X0396455Y0430970D02*
X0395254Y0430970D01*
X0395854Y0430970D02*
X0395854Y0434573D01*
X0395254Y0434573D02*
X0396455Y0434573D01*
X0393973Y0433972D02*
X0393372Y0434573D01*
X0391571Y0434573D01*
X0391571Y0430970D01*
X0393372Y0430970D01*
X0393973Y0431570D01*
X0393973Y0433972D01*
X0390290Y0433372D02*
X0390290Y0430970D01*
X0390290Y0432771D02*
X0387888Y0432771D01*
X0387888Y0433372D02*
X0389089Y0434573D01*
X0390290Y0433372D01*
X0387888Y0433372D02*
X0387888Y0430970D01*
X0310772Y0357823D02*
X0310772Y0354220D01*
X0309571Y0354220D02*
X0311973Y0354220D01*
X0309571Y0356622D02*
X0310772Y0357823D01*
X0308290Y0357222D02*
X0307689Y0357823D01*
X0305888Y0357823D01*
X0305888Y0354220D01*
X0307689Y0354220D01*
X0308290Y0354820D01*
X0308290Y0357222D01*
X0297406Y0357222D02*
X0297406Y0356622D01*
X0296805Y0356021D01*
X0297406Y0355421D01*
X0297406Y0354820D01*
X0296805Y0354220D01*
X0295604Y0354220D01*
X0295004Y0354820D01*
X0293723Y0354820D02*
X0293122Y0354220D01*
X0291321Y0354220D01*
X0291321Y0357823D01*
X0293122Y0357823D01*
X0293723Y0357222D01*
X0293723Y0354820D01*
X0295004Y0357222D02*
X0295604Y0357823D01*
X0296805Y0357823D01*
X0297406Y0357222D01*
X0296805Y0356021D02*
X0296205Y0356021D01*
X0290040Y0357222D02*
X0287638Y0354820D01*
X0287638Y0354220D01*
X0290040Y0354220D01*
X0290040Y0357222D02*
X0290040Y0357823D01*
X0287638Y0357823D01*
X0234607Y0431970D02*
X0232205Y0431970D01*
X0233406Y0431970D02*
X0233406Y0435573D01*
X0232205Y0434372D01*
X0230923Y0434372D02*
X0230323Y0434372D01*
X0228521Y0434372D01*
X0228521Y0433171D02*
X0230923Y0433171D01*
X0230323Y0431970D02*
X0230323Y0435573D01*
X0229122Y0435573D02*
X0229122Y0431970D01*
X0227240Y0432570D02*
X0226640Y0431970D01*
X0224838Y0431970D01*
X0224838Y0435573D01*
X0226640Y0435573D01*
X0227240Y0434972D01*
X0227240Y0434372D01*
X0226640Y0433771D01*
X0224838Y0433771D01*
X0226640Y0433771D02*
X0227240Y0433171D01*
X0227240Y0432570D01*
X0223584Y0431970D02*
X0222383Y0431970D01*
X0222983Y0431970D02*
X0222983Y0435573D01*
X0222383Y0435573D02*
X0223584Y0435573D01*
X0221102Y0434972D02*
X0220501Y0435573D01*
X0218700Y0435573D01*
X0218700Y0431970D01*
X0220501Y0431970D01*
X0221102Y0432570D01*
X0221102Y0434972D01*
X0217419Y0434372D02*
X0217419Y0431970D01*
X0217419Y0433771D02*
X0215016Y0433771D01*
X0215016Y0434372D02*
X0216218Y0435573D01*
X0217419Y0434372D01*
X0215016Y0434372D02*
X0215016Y0431970D01*
X0161332Y0375393D02*
X0161332Y0372323D01*
X0161332Y0373858D02*
X0156728Y0373858D01*
X0158262Y0372323D01*
X0110732Y0373091D02*
X0110732Y0374625D01*
X0109964Y0375393D01*
X0106895Y0375393D01*
X0106128Y0374625D01*
X0106128Y0373091D01*
X0106895Y0372323D01*
X0107662Y0372323D01*
X0108430Y0373091D01*
X0108430Y0375393D01*
X0110732Y0373091D02*
X0109964Y0372323D01*
X0109964Y0272694D02*
X0109197Y0272694D01*
X0108430Y0271927D01*
X0108430Y0269625D01*
X0109964Y0269625D01*
X0110732Y0270392D01*
X0110732Y0271927D01*
X0109964Y0272694D01*
X0106895Y0271160D02*
X0108430Y0269625D01*
X0106895Y0271160D02*
X0106128Y0272694D01*
X0106128Y0266556D02*
X0110732Y0266556D01*
X0110732Y0265021D02*
X0110732Y0268091D01*
X0107662Y0265021D02*
X0106128Y0266556D01*
X0106895Y0249408D02*
X0106128Y0248641D01*
X0106128Y0247106D01*
X0106895Y0246339D01*
X0107662Y0246339D01*
X0108430Y0247106D01*
X0108430Y0249408D01*
X0109964Y0249408D02*
X0106895Y0249408D01*
X0109964Y0249408D02*
X0110732Y0248641D01*
X0110732Y0247106D01*
X0109964Y0246339D01*
X0156728Y0247874D02*
X0161332Y0247874D01*
X0161332Y0249408D02*
X0161332Y0246339D01*
X0158262Y0246339D02*
X0156728Y0247874D01*
X0157495Y0267323D02*
X0158262Y0267323D01*
X0159030Y0268091D01*
X0159030Y0269625D01*
X0159797Y0270393D01*
X0160564Y0270393D01*
X0161332Y0269625D01*
X0161332Y0268091D01*
X0160564Y0267323D01*
X0159797Y0267323D01*
X0159030Y0268091D01*
X0159030Y0269625D02*
X0158262Y0270393D01*
X0157495Y0270393D01*
X0156728Y0269625D01*
X0156728Y0268091D01*
X0157495Y0267323D01*
X0157495Y0144408D02*
X0158262Y0144408D01*
X0159030Y0143641D01*
X0159030Y0142106D01*
X0158262Y0141339D01*
X0157495Y0141339D01*
X0156728Y0142106D01*
X0156728Y0143641D01*
X0157495Y0144408D01*
X0159030Y0143641D02*
X0159797Y0144408D01*
X0160564Y0144408D01*
X0161332Y0143641D01*
X0161332Y0142106D01*
X0160564Y0141339D01*
X0159797Y0141339D01*
X0159030Y0142106D01*
X0110732Y0142106D02*
X0110732Y0139037D01*
X0110732Y0140572D02*
X0106128Y0140572D01*
X0107662Y0139037D01*
X0108430Y0143641D02*
X0108430Y0145943D01*
X0109197Y0146710D01*
X0109964Y0146710D01*
X0110732Y0145943D01*
X0110732Y0144408D01*
X0109964Y0143641D01*
X0108430Y0143641D01*
X0106895Y0145176D01*
X0106128Y0146710D01*
D818*
X0303825Y0098815D02*
X0303825Y0091177D01*
X0444841Y0091177D01*
X0444841Y0098815D01*
X0303825Y0098815D01*
X0592390Y0105762D02*
X0592390Y0156270D01*
X0601485Y0156270D01*
X0601485Y0105762D01*
X0592390Y0105762D01*
X0592390Y0156270D02*
X0592390Y0166778D01*
X0601485Y0166778D01*
X0601485Y0156270D01*
D819*
X0300128Y0111975D02*
X0299078Y0113025D01*
X0296976Y0113025D01*
X0295925Y0111975D01*
X0293683Y0113025D02*
X0289479Y0106720D01*
X0293683Y0106720D02*
X0289479Y0113025D01*
X0295925Y0106720D02*
X0300128Y0110924D01*
X0300128Y0111975D01*
X0300128Y0106720D02*
X0295925Y0106720D01*
D820*
X0166368Y0131936D02*
X0162098Y0125530D01*
X0166368Y0125530D02*
X0162098Y0131936D01*
X0168543Y0128733D02*
X0171746Y0128733D01*
X0172814Y0127665D01*
X0172814Y0126598D01*
X0171746Y0125530D01*
X0169611Y0125530D01*
X0168543Y0126598D01*
X0168543Y0128733D01*
X0170679Y0130868D01*
X0172814Y0131936D01*
X0172050Y0133598D02*
X0172050Y0258283D01*
X0085436Y0258283D01*
X0085436Y0133598D01*
X0172050Y0133598D01*
X0179688Y0163020D02*
X0255688Y0163020D01*
X0255688Y0171520D01*
X0255688Y0176520D01*
X0255688Y0185020D01*
X0179688Y0185020D01*
X0179688Y0163020D01*
X0187688Y0165020D02*
X0187688Y0168020D01*
X0212688Y0168020D01*
X0212688Y0170520D02*
X0222688Y0173020D01*
X0247688Y0173020D01*
X0247688Y0183020D01*
X0237688Y0183020D02*
X0237688Y0179020D01*
X0220188Y0179020D01*
X0220188Y0176520D02*
X0215188Y0181520D01*
X0213188Y0181520D02*
X0210188Y0181520D01*
X0215188Y0179020D02*
X0197688Y0179020D01*
X0197688Y0183020D01*
X0187688Y0183020D02*
X0187688Y0173020D01*
X0212688Y0173020D01*
X0212688Y0165520D02*
X0222688Y0168020D01*
X0247688Y0168020D01*
X0247688Y0165020D01*
X0252188Y0171520D02*
X0255688Y0171520D01*
X0252188Y0171520D02*
X0252090Y0171522D01*
X0251992Y0171528D01*
X0251894Y0171537D01*
X0251797Y0171551D01*
X0251700Y0171568D01*
X0251604Y0171589D01*
X0251509Y0171614D01*
X0251415Y0171642D01*
X0251323Y0171675D01*
X0251231Y0171710D01*
X0251141Y0171750D01*
X0251053Y0171792D01*
X0250966Y0171839D01*
X0250882Y0171888D01*
X0250799Y0171941D01*
X0250719Y0171997D01*
X0250640Y0172057D01*
X0250564Y0172119D01*
X0250491Y0172184D01*
X0250420Y0172252D01*
X0250352Y0172323D01*
X0250287Y0172396D01*
X0250225Y0172472D01*
X0250165Y0172551D01*
X0250109Y0172631D01*
X0250056Y0172714D01*
X0250007Y0172798D01*
X0249960Y0172885D01*
X0249918Y0172973D01*
X0249878Y0173063D01*
X0249843Y0173155D01*
X0249810Y0173247D01*
X0249782Y0173341D01*
X0249757Y0173436D01*
X0249736Y0173532D01*
X0249719Y0173629D01*
X0249705Y0173726D01*
X0249696Y0173824D01*
X0249690Y0173922D01*
X0249688Y0174020D01*
X0249690Y0174118D01*
X0249696Y0174216D01*
X0249705Y0174314D01*
X0249719Y0174411D01*
X0249736Y0174508D01*
X0249757Y0174604D01*
X0249782Y0174699D01*
X0249810Y0174793D01*
X0249843Y0174885D01*
X0249878Y0174977D01*
X0249918Y0175067D01*
X0249960Y0175155D01*
X0250007Y0175242D01*
X0250056Y0175326D01*
X0250109Y0175409D01*
X0250165Y0175489D01*
X0250225Y0175568D01*
X0250287Y0175644D01*
X0250352Y0175717D01*
X0250420Y0175788D01*
X0250491Y0175856D01*
X0250564Y0175921D01*
X0250640Y0175983D01*
X0250719Y0176043D01*
X0250799Y0176099D01*
X0250882Y0176152D01*
X0250966Y0176201D01*
X0251053Y0176248D01*
X0251141Y0176290D01*
X0251231Y0176330D01*
X0251323Y0176365D01*
X0251415Y0176398D01*
X0251509Y0176426D01*
X0251604Y0176451D01*
X0251700Y0176472D01*
X0251797Y0176489D01*
X0251894Y0176503D01*
X0251992Y0176512D01*
X0252090Y0176518D01*
X0252188Y0176520D01*
X0255688Y0176520D01*
X0262688Y0185020D02*
X0262688Y0163020D01*
X0338688Y0163020D01*
X0338688Y0171520D01*
X0338688Y0176520D01*
X0338688Y0185020D01*
X0262688Y0185020D01*
X0270688Y0183020D02*
X0270688Y0173020D01*
X0295688Y0173020D01*
X0295688Y0170520D02*
X0305688Y0173020D01*
X0330688Y0173020D01*
X0330688Y0183020D01*
X0320688Y0183020D02*
X0320688Y0179020D01*
X0303188Y0179020D01*
X0303188Y0176520D02*
X0298188Y0181520D01*
X0296188Y0181520D02*
X0293188Y0181520D01*
X0298188Y0179020D02*
X0280688Y0179020D01*
X0280688Y0183020D01*
X0270688Y0168020D02*
X0295688Y0168020D01*
X0295688Y0165520D02*
X0305688Y0168020D01*
X0330688Y0168020D01*
X0330688Y0165020D01*
X0335188Y0171520D02*
X0338688Y0171520D01*
X0335188Y0171520D02*
X0335090Y0171522D01*
X0334992Y0171528D01*
X0334894Y0171537D01*
X0334797Y0171551D01*
X0334700Y0171568D01*
X0334604Y0171589D01*
X0334509Y0171614D01*
X0334415Y0171642D01*
X0334323Y0171675D01*
X0334231Y0171710D01*
X0334141Y0171750D01*
X0334053Y0171792D01*
X0333966Y0171839D01*
X0333882Y0171888D01*
X0333799Y0171941D01*
X0333719Y0171997D01*
X0333640Y0172057D01*
X0333564Y0172119D01*
X0333491Y0172184D01*
X0333420Y0172252D01*
X0333352Y0172323D01*
X0333287Y0172396D01*
X0333225Y0172472D01*
X0333165Y0172551D01*
X0333109Y0172631D01*
X0333056Y0172714D01*
X0333007Y0172798D01*
X0332960Y0172885D01*
X0332918Y0172973D01*
X0332878Y0173063D01*
X0332843Y0173155D01*
X0332810Y0173247D01*
X0332782Y0173341D01*
X0332757Y0173436D01*
X0332736Y0173532D01*
X0332719Y0173629D01*
X0332705Y0173726D01*
X0332696Y0173824D01*
X0332690Y0173922D01*
X0332688Y0174020D01*
X0332690Y0174118D01*
X0332696Y0174216D01*
X0332705Y0174314D01*
X0332719Y0174411D01*
X0332736Y0174508D01*
X0332757Y0174604D01*
X0332782Y0174699D01*
X0332810Y0174793D01*
X0332843Y0174885D01*
X0332878Y0174977D01*
X0332918Y0175067D01*
X0332960Y0175155D01*
X0333007Y0175242D01*
X0333056Y0175326D01*
X0333109Y0175409D01*
X0333165Y0175489D01*
X0333225Y0175568D01*
X0333287Y0175644D01*
X0333352Y0175717D01*
X0333420Y0175788D01*
X0333491Y0175856D01*
X0333564Y0175921D01*
X0333640Y0175983D01*
X0333719Y0176043D01*
X0333799Y0176099D01*
X0333882Y0176152D01*
X0333966Y0176201D01*
X0334053Y0176248D01*
X0334141Y0176290D01*
X0334231Y0176330D01*
X0334323Y0176365D01*
X0334415Y0176398D01*
X0334509Y0176426D01*
X0334604Y0176451D01*
X0334700Y0176472D01*
X0334797Y0176489D01*
X0334894Y0176503D01*
X0334992Y0176512D01*
X0335090Y0176518D01*
X0335188Y0176520D01*
X0338688Y0176520D01*
X0345688Y0185020D02*
X0345688Y0163020D01*
X0421688Y0163020D01*
X0421688Y0171520D01*
X0421688Y0176520D01*
X0421688Y0185020D01*
X0345688Y0185020D01*
X0353688Y0183020D02*
X0353688Y0173020D01*
X0378688Y0173020D01*
X0378688Y0170520D02*
X0388688Y0173020D01*
X0413688Y0173020D01*
X0413688Y0183020D01*
X0403688Y0183020D02*
X0403688Y0179020D01*
X0386188Y0179020D01*
X0386188Y0176520D02*
X0381188Y0181520D01*
X0379188Y0181520D02*
X0376188Y0181520D01*
X0381188Y0179020D02*
X0363688Y0179020D01*
X0363688Y0183020D01*
X0353688Y0168020D02*
X0378688Y0168020D01*
X0378688Y0165520D02*
X0388688Y0168020D01*
X0413688Y0168020D01*
X0413688Y0165020D01*
X0418188Y0171520D02*
X0421688Y0171520D01*
X0418188Y0171520D02*
X0418090Y0171522D01*
X0417992Y0171528D01*
X0417894Y0171537D01*
X0417797Y0171551D01*
X0417700Y0171568D01*
X0417604Y0171589D01*
X0417509Y0171614D01*
X0417415Y0171642D01*
X0417323Y0171675D01*
X0417231Y0171710D01*
X0417141Y0171750D01*
X0417053Y0171792D01*
X0416966Y0171839D01*
X0416882Y0171888D01*
X0416799Y0171941D01*
X0416719Y0171997D01*
X0416640Y0172057D01*
X0416564Y0172119D01*
X0416491Y0172184D01*
X0416420Y0172252D01*
X0416352Y0172323D01*
X0416287Y0172396D01*
X0416225Y0172472D01*
X0416165Y0172551D01*
X0416109Y0172631D01*
X0416056Y0172714D01*
X0416007Y0172798D01*
X0415960Y0172885D01*
X0415918Y0172973D01*
X0415878Y0173063D01*
X0415843Y0173155D01*
X0415810Y0173247D01*
X0415782Y0173341D01*
X0415757Y0173436D01*
X0415736Y0173532D01*
X0415719Y0173629D01*
X0415705Y0173726D01*
X0415696Y0173824D01*
X0415690Y0173922D01*
X0415688Y0174020D01*
X0415690Y0174118D01*
X0415696Y0174216D01*
X0415705Y0174314D01*
X0415719Y0174411D01*
X0415736Y0174508D01*
X0415757Y0174604D01*
X0415782Y0174699D01*
X0415810Y0174793D01*
X0415843Y0174885D01*
X0415878Y0174977D01*
X0415918Y0175067D01*
X0415960Y0175155D01*
X0416007Y0175242D01*
X0416056Y0175326D01*
X0416109Y0175409D01*
X0416165Y0175489D01*
X0416225Y0175568D01*
X0416287Y0175644D01*
X0416352Y0175717D01*
X0416420Y0175788D01*
X0416491Y0175856D01*
X0416564Y0175921D01*
X0416640Y0175983D01*
X0416719Y0176043D01*
X0416799Y0176099D01*
X0416882Y0176152D01*
X0416966Y0176201D01*
X0417053Y0176248D01*
X0417141Y0176290D01*
X0417231Y0176330D01*
X0417323Y0176365D01*
X0417415Y0176398D01*
X0417509Y0176426D01*
X0417604Y0176451D01*
X0417700Y0176472D01*
X0417797Y0176489D01*
X0417894Y0176503D01*
X0417992Y0176512D01*
X0418090Y0176518D01*
X0418188Y0176520D01*
X0421688Y0176520D01*
X0391188Y0181520D02*
X0388188Y0181520D01*
X0389688Y0180020D02*
X0389688Y0183020D01*
X0353688Y0168020D02*
X0353688Y0165020D01*
X0308188Y0181520D02*
X0305188Y0181520D01*
X0306688Y0180020D02*
X0306688Y0183020D01*
X0270688Y0168020D02*
X0270688Y0165020D01*
X0225188Y0181520D02*
X0222188Y0181520D01*
X0223688Y0180020D02*
X0223688Y0183020D01*
X0212688Y0214520D02*
X0222688Y0217020D01*
X0247688Y0217020D01*
X0247688Y0214020D01*
X0252188Y0220520D02*
X0255688Y0220520D01*
X0255688Y0225520D01*
X0255688Y0234020D01*
X0179688Y0234020D01*
X0179688Y0212020D01*
X0255688Y0212020D01*
X0255688Y0220520D01*
X0252188Y0220520D02*
X0252090Y0220522D01*
X0251992Y0220528D01*
X0251894Y0220537D01*
X0251797Y0220551D01*
X0251700Y0220568D01*
X0251604Y0220589D01*
X0251509Y0220614D01*
X0251415Y0220642D01*
X0251323Y0220675D01*
X0251231Y0220710D01*
X0251141Y0220750D01*
X0251053Y0220792D01*
X0250966Y0220839D01*
X0250882Y0220888D01*
X0250799Y0220941D01*
X0250719Y0220997D01*
X0250640Y0221057D01*
X0250564Y0221119D01*
X0250491Y0221184D01*
X0250420Y0221252D01*
X0250352Y0221323D01*
X0250287Y0221396D01*
X0250225Y0221472D01*
X0250165Y0221551D01*
X0250109Y0221631D01*
X0250056Y0221714D01*
X0250007Y0221798D01*
X0249960Y0221885D01*
X0249918Y0221973D01*
X0249878Y0222063D01*
X0249843Y0222155D01*
X0249810Y0222247D01*
X0249782Y0222341D01*
X0249757Y0222436D01*
X0249736Y0222532D01*
X0249719Y0222629D01*
X0249705Y0222726D01*
X0249696Y0222824D01*
X0249690Y0222922D01*
X0249688Y0223020D01*
X0249690Y0223118D01*
X0249696Y0223216D01*
X0249705Y0223314D01*
X0249719Y0223411D01*
X0249736Y0223508D01*
X0249757Y0223604D01*
X0249782Y0223699D01*
X0249810Y0223793D01*
X0249843Y0223885D01*
X0249878Y0223977D01*
X0249918Y0224067D01*
X0249960Y0224155D01*
X0250007Y0224242D01*
X0250056Y0224326D01*
X0250109Y0224409D01*
X0250165Y0224489D01*
X0250225Y0224568D01*
X0250287Y0224644D01*
X0250352Y0224717D01*
X0250420Y0224788D01*
X0250491Y0224856D01*
X0250564Y0224921D01*
X0250640Y0224983D01*
X0250719Y0225043D01*
X0250799Y0225099D01*
X0250882Y0225152D01*
X0250966Y0225201D01*
X0251053Y0225248D01*
X0251141Y0225290D01*
X0251231Y0225330D01*
X0251323Y0225365D01*
X0251415Y0225398D01*
X0251509Y0225426D01*
X0251604Y0225451D01*
X0251700Y0225472D01*
X0251797Y0225489D01*
X0251894Y0225503D01*
X0251992Y0225512D01*
X0252090Y0225518D01*
X0252188Y0225520D01*
X0255688Y0225520D01*
X0262688Y0234020D02*
X0338688Y0234020D01*
X0338688Y0225520D01*
X0338688Y0220520D01*
X0338688Y0212020D01*
X0262688Y0212020D01*
X0262688Y0234020D01*
X0270688Y0232020D02*
X0270688Y0222020D01*
X0295688Y0222020D01*
X0295688Y0219520D02*
X0305688Y0222020D01*
X0330688Y0222020D01*
X0330688Y0232020D01*
X0335188Y0225520D02*
X0338688Y0225520D01*
X0335188Y0225520D02*
X0335090Y0225518D01*
X0334992Y0225512D01*
X0334894Y0225503D01*
X0334797Y0225489D01*
X0334700Y0225472D01*
X0334604Y0225451D01*
X0334509Y0225426D01*
X0334415Y0225398D01*
X0334323Y0225365D01*
X0334231Y0225330D01*
X0334141Y0225290D01*
X0334053Y0225248D01*
X0333966Y0225201D01*
X0333882Y0225152D01*
X0333799Y0225099D01*
X0333719Y0225043D01*
X0333640Y0224983D01*
X0333564Y0224921D01*
X0333491Y0224856D01*
X0333420Y0224788D01*
X0333352Y0224717D01*
X0333287Y0224644D01*
X0333225Y0224568D01*
X0333165Y0224489D01*
X0333109Y0224409D01*
X0333056Y0224326D01*
X0333007Y0224242D01*
X0332960Y0224155D01*
X0332918Y0224067D01*
X0332878Y0223977D01*
X0332843Y0223885D01*
X0332810Y0223793D01*
X0332782Y0223699D01*
X0332757Y0223604D01*
X0332736Y0223508D01*
X0332719Y0223411D01*
X0332705Y0223314D01*
X0332696Y0223216D01*
X0332690Y0223118D01*
X0332688Y0223020D01*
X0332690Y0222922D01*
X0332696Y0222824D01*
X0332705Y0222726D01*
X0332719Y0222629D01*
X0332736Y0222532D01*
X0332757Y0222436D01*
X0332782Y0222341D01*
X0332810Y0222247D01*
X0332843Y0222155D01*
X0332878Y0222063D01*
X0332918Y0221973D01*
X0332960Y0221885D01*
X0333007Y0221798D01*
X0333056Y0221714D01*
X0333109Y0221631D01*
X0333165Y0221551D01*
X0333225Y0221472D01*
X0333287Y0221396D01*
X0333352Y0221323D01*
X0333420Y0221252D01*
X0333491Y0221184D01*
X0333564Y0221119D01*
X0333640Y0221057D01*
X0333719Y0220997D01*
X0333799Y0220941D01*
X0333882Y0220888D01*
X0333966Y0220839D01*
X0334053Y0220792D01*
X0334141Y0220750D01*
X0334231Y0220710D01*
X0334323Y0220675D01*
X0334415Y0220642D01*
X0334509Y0220614D01*
X0334604Y0220589D01*
X0334700Y0220568D01*
X0334797Y0220551D01*
X0334894Y0220537D01*
X0334992Y0220528D01*
X0335090Y0220522D01*
X0335188Y0220520D01*
X0338688Y0220520D01*
X0330688Y0217020D02*
X0330688Y0214020D01*
X0330688Y0217020D02*
X0305688Y0217020D01*
X0295688Y0214520D01*
X0295688Y0217020D02*
X0270688Y0217020D01*
X0270688Y0214020D01*
X0280688Y0228020D02*
X0298188Y0228020D01*
X0298188Y0230520D02*
X0303188Y0225520D01*
X0303188Y0228020D02*
X0320688Y0228020D01*
X0320688Y0232020D01*
X0308188Y0230520D02*
X0305188Y0230520D01*
X0306688Y0229020D02*
X0306688Y0232020D01*
X0296188Y0230520D02*
X0293188Y0230520D01*
X0280688Y0232020D02*
X0280688Y0228020D01*
X0247688Y0232020D02*
X0247688Y0222020D01*
X0222688Y0222020D01*
X0212688Y0219520D01*
X0212688Y0222020D02*
X0187688Y0222020D01*
X0187688Y0232020D01*
X0197688Y0232020D02*
X0197688Y0228020D01*
X0215188Y0228020D01*
X0215188Y0230520D02*
X0220188Y0225520D01*
X0220188Y0228020D02*
X0237688Y0228020D01*
X0237688Y0232020D01*
X0225188Y0230520D02*
X0222188Y0230520D01*
X0223688Y0229020D02*
X0223688Y0232020D01*
X0213188Y0230520D02*
X0210188Y0230520D01*
X0212688Y0217020D02*
X0187688Y0217020D01*
X0187688Y0214020D01*
X0179688Y0261020D02*
X0255688Y0261020D01*
X0255688Y0269520D01*
X0255688Y0274520D01*
X0255688Y0283020D01*
X0179688Y0283020D01*
X0179688Y0261020D01*
X0187688Y0263020D02*
X0187688Y0266020D01*
X0212688Y0266020D01*
X0212688Y0268520D02*
X0222688Y0271020D01*
X0247688Y0271020D01*
X0247688Y0281020D01*
X0252188Y0274520D02*
X0255688Y0274520D01*
X0252188Y0274520D02*
X0252090Y0274518D01*
X0251992Y0274512D01*
X0251894Y0274503D01*
X0251797Y0274489D01*
X0251700Y0274472D01*
X0251604Y0274451D01*
X0251509Y0274426D01*
X0251415Y0274398D01*
X0251323Y0274365D01*
X0251231Y0274330D01*
X0251141Y0274290D01*
X0251053Y0274248D01*
X0250966Y0274201D01*
X0250882Y0274152D01*
X0250799Y0274099D01*
X0250719Y0274043D01*
X0250640Y0273983D01*
X0250564Y0273921D01*
X0250491Y0273856D01*
X0250420Y0273788D01*
X0250352Y0273717D01*
X0250287Y0273644D01*
X0250225Y0273568D01*
X0250165Y0273489D01*
X0250109Y0273409D01*
X0250056Y0273326D01*
X0250007Y0273242D01*
X0249960Y0273155D01*
X0249918Y0273067D01*
X0249878Y0272977D01*
X0249843Y0272885D01*
X0249810Y0272793D01*
X0249782Y0272699D01*
X0249757Y0272604D01*
X0249736Y0272508D01*
X0249719Y0272411D01*
X0249705Y0272314D01*
X0249696Y0272216D01*
X0249690Y0272118D01*
X0249688Y0272020D01*
X0249690Y0271922D01*
X0249696Y0271824D01*
X0249705Y0271726D01*
X0249719Y0271629D01*
X0249736Y0271532D01*
X0249757Y0271436D01*
X0249782Y0271341D01*
X0249810Y0271247D01*
X0249843Y0271155D01*
X0249878Y0271063D01*
X0249918Y0270973D01*
X0249960Y0270885D01*
X0250007Y0270798D01*
X0250056Y0270714D01*
X0250109Y0270631D01*
X0250165Y0270551D01*
X0250225Y0270472D01*
X0250287Y0270396D01*
X0250352Y0270323D01*
X0250420Y0270252D01*
X0250491Y0270184D01*
X0250564Y0270119D01*
X0250640Y0270057D01*
X0250719Y0269997D01*
X0250799Y0269941D01*
X0250882Y0269888D01*
X0250966Y0269839D01*
X0251053Y0269792D01*
X0251141Y0269750D01*
X0251231Y0269710D01*
X0251323Y0269675D01*
X0251415Y0269642D01*
X0251509Y0269614D01*
X0251604Y0269589D01*
X0251700Y0269568D01*
X0251797Y0269551D01*
X0251894Y0269537D01*
X0251992Y0269528D01*
X0252090Y0269522D01*
X0252188Y0269520D01*
X0255688Y0269520D01*
X0247688Y0266020D02*
X0247688Y0263020D01*
X0247688Y0266020D02*
X0222688Y0266020D01*
X0212688Y0263520D01*
X0212688Y0271020D02*
X0187688Y0271020D01*
X0187688Y0281020D01*
X0197688Y0281020D02*
X0197688Y0277020D01*
X0215188Y0277020D01*
X0215188Y0279520D02*
X0220188Y0274520D01*
X0220188Y0277020D02*
X0237688Y0277020D01*
X0237688Y0281020D01*
X0225188Y0279520D02*
X0222188Y0279520D01*
X0223688Y0278020D02*
X0223688Y0281020D01*
X0213188Y0279520D02*
X0210188Y0279520D01*
X0172050Y0259583D02*
X0172050Y0384268D01*
X0085436Y0384268D01*
X0085436Y0259583D01*
X0172050Y0259583D01*
X0179688Y0310020D02*
X0255688Y0310020D01*
X0255688Y0318520D01*
X0255688Y0323520D01*
X0255688Y0332020D01*
X0179688Y0332020D01*
X0179688Y0310020D01*
X0187688Y0312020D02*
X0187688Y0315020D01*
X0212688Y0315020D01*
X0212688Y0317520D02*
X0222688Y0320020D01*
X0247688Y0320020D01*
X0247688Y0330020D01*
X0252188Y0323520D02*
X0255688Y0323520D01*
X0252188Y0323520D02*
X0252090Y0323518D01*
X0251992Y0323512D01*
X0251894Y0323503D01*
X0251797Y0323489D01*
X0251700Y0323472D01*
X0251604Y0323451D01*
X0251509Y0323426D01*
X0251415Y0323398D01*
X0251323Y0323365D01*
X0251231Y0323330D01*
X0251141Y0323290D01*
X0251053Y0323248D01*
X0250966Y0323201D01*
X0250882Y0323152D01*
X0250799Y0323099D01*
X0250719Y0323043D01*
X0250640Y0322983D01*
X0250564Y0322921D01*
X0250491Y0322856D01*
X0250420Y0322788D01*
X0250352Y0322717D01*
X0250287Y0322644D01*
X0250225Y0322568D01*
X0250165Y0322489D01*
X0250109Y0322409D01*
X0250056Y0322326D01*
X0250007Y0322242D01*
X0249960Y0322155D01*
X0249918Y0322067D01*
X0249878Y0321977D01*
X0249843Y0321885D01*
X0249810Y0321793D01*
X0249782Y0321699D01*
X0249757Y0321604D01*
X0249736Y0321508D01*
X0249719Y0321411D01*
X0249705Y0321314D01*
X0249696Y0321216D01*
X0249690Y0321118D01*
X0249688Y0321020D01*
X0249690Y0320922D01*
X0249696Y0320824D01*
X0249705Y0320726D01*
X0249719Y0320629D01*
X0249736Y0320532D01*
X0249757Y0320436D01*
X0249782Y0320341D01*
X0249810Y0320247D01*
X0249843Y0320155D01*
X0249878Y0320063D01*
X0249918Y0319973D01*
X0249960Y0319885D01*
X0250007Y0319798D01*
X0250056Y0319714D01*
X0250109Y0319631D01*
X0250165Y0319551D01*
X0250225Y0319472D01*
X0250287Y0319396D01*
X0250352Y0319323D01*
X0250420Y0319252D01*
X0250491Y0319184D01*
X0250564Y0319119D01*
X0250640Y0319057D01*
X0250719Y0318997D01*
X0250799Y0318941D01*
X0250882Y0318888D01*
X0250966Y0318839D01*
X0251053Y0318792D01*
X0251141Y0318750D01*
X0251231Y0318710D01*
X0251323Y0318675D01*
X0251415Y0318642D01*
X0251509Y0318614D01*
X0251604Y0318589D01*
X0251700Y0318568D01*
X0251797Y0318551D01*
X0251894Y0318537D01*
X0251992Y0318528D01*
X0252090Y0318522D01*
X0252188Y0318520D01*
X0255688Y0318520D01*
X0247688Y0315020D02*
X0247688Y0312020D01*
X0247688Y0315020D02*
X0222688Y0315020D01*
X0212688Y0312520D01*
X0212688Y0320020D02*
X0187688Y0320020D01*
X0187688Y0330020D01*
X0197688Y0330020D02*
X0197688Y0326020D01*
X0215188Y0326020D01*
X0215188Y0328520D02*
X0220188Y0323520D01*
X0220188Y0326020D02*
X0237688Y0326020D01*
X0237688Y0330020D01*
X0225188Y0328520D02*
X0222188Y0328520D01*
X0223688Y0327020D02*
X0223688Y0330020D01*
X0213188Y0328520D02*
X0210188Y0328520D01*
X0211688Y0361020D02*
X0211688Y0364020D01*
X0210188Y0362520D02*
X0213188Y0362520D01*
X0215188Y0365020D02*
X0197688Y0365020D01*
X0197688Y0361020D01*
X0187688Y0361020D02*
X0187688Y0371020D01*
X0212688Y0371020D01*
X0222688Y0373520D01*
X0222688Y0376020D02*
X0247688Y0376020D01*
X0247688Y0379020D01*
X0247688Y0371020D02*
X0222688Y0371020D01*
X0220188Y0365020D02*
X0237688Y0365020D01*
X0237688Y0361020D01*
X0247688Y0361020D02*
X0247688Y0371020D01*
X0255688Y0381020D02*
X0255688Y0359020D01*
X0179688Y0359020D01*
X0179688Y0367520D01*
X0179688Y0372520D01*
X0179688Y0381020D01*
X0255688Y0381020D01*
X0262688Y0381020D02*
X0338688Y0381020D01*
X0338688Y0359020D01*
X0262688Y0359020D01*
X0262688Y0367520D01*
X0262688Y0372520D01*
X0262688Y0381020D01*
X0270688Y0379020D02*
X0270688Y0376020D01*
X0295688Y0376020D01*
X0305688Y0378520D01*
X0305688Y0376020D02*
X0330688Y0376020D01*
X0330688Y0379020D01*
X0330688Y0371020D02*
X0305688Y0371020D01*
X0305688Y0373520D02*
X0295688Y0371020D01*
X0270688Y0371020D01*
X0270688Y0361020D01*
X0266188Y0367520D02*
X0262688Y0367520D01*
X0266188Y0367520D02*
X0266286Y0367522D01*
X0266384Y0367528D01*
X0266482Y0367537D01*
X0266579Y0367551D01*
X0266676Y0367568D01*
X0266772Y0367589D01*
X0266867Y0367614D01*
X0266961Y0367642D01*
X0267053Y0367675D01*
X0267145Y0367710D01*
X0267235Y0367750D01*
X0267323Y0367792D01*
X0267410Y0367839D01*
X0267494Y0367888D01*
X0267577Y0367941D01*
X0267657Y0367997D01*
X0267736Y0368057D01*
X0267812Y0368119D01*
X0267885Y0368184D01*
X0267956Y0368252D01*
X0268024Y0368323D01*
X0268089Y0368396D01*
X0268151Y0368472D01*
X0268211Y0368551D01*
X0268267Y0368631D01*
X0268320Y0368714D01*
X0268369Y0368798D01*
X0268416Y0368885D01*
X0268458Y0368973D01*
X0268498Y0369063D01*
X0268533Y0369155D01*
X0268566Y0369247D01*
X0268594Y0369341D01*
X0268619Y0369436D01*
X0268640Y0369532D01*
X0268657Y0369629D01*
X0268671Y0369726D01*
X0268680Y0369824D01*
X0268686Y0369922D01*
X0268688Y0370020D01*
X0268686Y0370118D01*
X0268680Y0370216D01*
X0268671Y0370314D01*
X0268657Y0370411D01*
X0268640Y0370508D01*
X0268619Y0370604D01*
X0268594Y0370699D01*
X0268566Y0370793D01*
X0268533Y0370885D01*
X0268498Y0370977D01*
X0268458Y0371067D01*
X0268416Y0371155D01*
X0268369Y0371242D01*
X0268320Y0371326D01*
X0268267Y0371409D01*
X0268211Y0371489D01*
X0268151Y0371568D01*
X0268089Y0371644D01*
X0268024Y0371717D01*
X0267956Y0371788D01*
X0267885Y0371856D01*
X0267812Y0371921D01*
X0267736Y0371983D01*
X0267657Y0372043D01*
X0267577Y0372099D01*
X0267494Y0372152D01*
X0267410Y0372201D01*
X0267323Y0372248D01*
X0267235Y0372290D01*
X0267145Y0372330D01*
X0267053Y0372365D01*
X0266961Y0372398D01*
X0266867Y0372426D01*
X0266772Y0372451D01*
X0266676Y0372472D01*
X0266579Y0372489D01*
X0266482Y0372503D01*
X0266384Y0372512D01*
X0266286Y0372518D01*
X0266188Y0372520D01*
X0262688Y0372520D01*
X0280688Y0365020D02*
X0280688Y0361020D01*
X0280688Y0365020D02*
X0298188Y0365020D01*
X0298188Y0367520D02*
X0303188Y0362520D01*
X0305188Y0362520D02*
X0308188Y0362520D01*
X0303188Y0365020D02*
X0320688Y0365020D01*
X0320688Y0361020D01*
X0330688Y0361020D02*
X0330688Y0371020D01*
X0345688Y0372520D02*
X0345688Y0367520D01*
X0345688Y0359020D01*
X0421688Y0359020D01*
X0421688Y0381020D01*
X0345688Y0381020D01*
X0345688Y0372520D01*
X0349188Y0372520D01*
X0349286Y0372518D01*
X0349384Y0372512D01*
X0349482Y0372503D01*
X0349579Y0372489D01*
X0349676Y0372472D01*
X0349772Y0372451D01*
X0349867Y0372426D01*
X0349961Y0372398D01*
X0350053Y0372365D01*
X0350145Y0372330D01*
X0350235Y0372290D01*
X0350323Y0372248D01*
X0350410Y0372201D01*
X0350494Y0372152D01*
X0350577Y0372099D01*
X0350657Y0372043D01*
X0350736Y0371983D01*
X0350812Y0371921D01*
X0350885Y0371856D01*
X0350956Y0371788D01*
X0351024Y0371717D01*
X0351089Y0371644D01*
X0351151Y0371568D01*
X0351211Y0371489D01*
X0351267Y0371409D01*
X0351320Y0371326D01*
X0351369Y0371242D01*
X0351416Y0371155D01*
X0351458Y0371067D01*
X0351498Y0370977D01*
X0351533Y0370885D01*
X0351566Y0370793D01*
X0351594Y0370699D01*
X0351619Y0370604D01*
X0351640Y0370508D01*
X0351657Y0370411D01*
X0351671Y0370314D01*
X0351680Y0370216D01*
X0351686Y0370118D01*
X0351688Y0370020D01*
X0351686Y0369922D01*
X0351680Y0369824D01*
X0351671Y0369726D01*
X0351657Y0369629D01*
X0351640Y0369532D01*
X0351619Y0369436D01*
X0351594Y0369341D01*
X0351566Y0369247D01*
X0351533Y0369155D01*
X0351498Y0369063D01*
X0351458Y0368973D01*
X0351416Y0368885D01*
X0351369Y0368798D01*
X0351320Y0368714D01*
X0351267Y0368631D01*
X0351211Y0368551D01*
X0351151Y0368472D01*
X0351089Y0368396D01*
X0351024Y0368323D01*
X0350956Y0368252D01*
X0350885Y0368184D01*
X0350812Y0368119D01*
X0350736Y0368057D01*
X0350657Y0367997D01*
X0350577Y0367941D01*
X0350494Y0367888D01*
X0350410Y0367839D01*
X0350323Y0367792D01*
X0350235Y0367750D01*
X0350145Y0367710D01*
X0350053Y0367675D01*
X0349961Y0367642D01*
X0349867Y0367614D01*
X0349772Y0367589D01*
X0349676Y0367568D01*
X0349579Y0367551D01*
X0349482Y0367537D01*
X0349384Y0367528D01*
X0349286Y0367522D01*
X0349188Y0367520D01*
X0345688Y0367520D01*
X0353688Y0371020D02*
X0353688Y0361020D01*
X0363688Y0361020D02*
X0363688Y0365020D01*
X0381188Y0365020D01*
X0381188Y0367520D02*
X0386188Y0362520D01*
X0388188Y0362520D02*
X0391188Y0362520D01*
X0386188Y0365020D02*
X0403688Y0365020D01*
X0403688Y0361020D01*
X0413688Y0361020D02*
X0413688Y0371020D01*
X0388688Y0371020D01*
X0388688Y0373520D02*
X0378688Y0371020D01*
X0353688Y0371020D01*
X0353688Y0376020D02*
X0353688Y0379020D01*
X0353688Y0376020D02*
X0378688Y0376020D01*
X0388688Y0378520D01*
X0388688Y0376020D02*
X0413688Y0376020D01*
X0413688Y0379020D01*
X0379188Y0362520D02*
X0376188Y0362520D01*
X0377688Y0364020D02*
X0377688Y0361020D01*
X0345688Y0332020D02*
X0421688Y0332020D01*
X0421688Y0323520D01*
X0421688Y0318520D01*
X0421688Y0310020D01*
X0345688Y0310020D01*
X0345688Y0332020D01*
X0353688Y0330020D02*
X0353688Y0320020D01*
X0378688Y0320020D01*
X0378688Y0317520D02*
X0388688Y0320020D01*
X0413688Y0320020D01*
X0413688Y0330020D01*
X0418188Y0323520D02*
X0421688Y0323520D01*
X0418188Y0323520D02*
X0418090Y0323518D01*
X0417992Y0323512D01*
X0417894Y0323503D01*
X0417797Y0323489D01*
X0417700Y0323472D01*
X0417604Y0323451D01*
X0417509Y0323426D01*
X0417415Y0323398D01*
X0417323Y0323365D01*
X0417231Y0323330D01*
X0417141Y0323290D01*
X0417053Y0323248D01*
X0416966Y0323201D01*
X0416882Y0323152D01*
X0416799Y0323099D01*
X0416719Y0323043D01*
X0416640Y0322983D01*
X0416564Y0322921D01*
X0416491Y0322856D01*
X0416420Y0322788D01*
X0416352Y0322717D01*
X0416287Y0322644D01*
X0416225Y0322568D01*
X0416165Y0322489D01*
X0416109Y0322409D01*
X0416056Y0322326D01*
X0416007Y0322242D01*
X0415960Y0322155D01*
X0415918Y0322067D01*
X0415878Y0321977D01*
X0415843Y0321885D01*
X0415810Y0321793D01*
X0415782Y0321699D01*
X0415757Y0321604D01*
X0415736Y0321508D01*
X0415719Y0321411D01*
X0415705Y0321314D01*
X0415696Y0321216D01*
X0415690Y0321118D01*
X0415688Y0321020D01*
X0415690Y0320922D01*
X0415696Y0320824D01*
X0415705Y0320726D01*
X0415719Y0320629D01*
X0415736Y0320532D01*
X0415757Y0320436D01*
X0415782Y0320341D01*
X0415810Y0320247D01*
X0415843Y0320155D01*
X0415878Y0320063D01*
X0415918Y0319973D01*
X0415960Y0319885D01*
X0416007Y0319798D01*
X0416056Y0319714D01*
X0416109Y0319631D01*
X0416165Y0319551D01*
X0416225Y0319472D01*
X0416287Y0319396D01*
X0416352Y0319323D01*
X0416420Y0319252D01*
X0416491Y0319184D01*
X0416564Y0319119D01*
X0416640Y0319057D01*
X0416719Y0318997D01*
X0416799Y0318941D01*
X0416882Y0318888D01*
X0416966Y0318839D01*
X0417053Y0318792D01*
X0417141Y0318750D01*
X0417231Y0318710D01*
X0417323Y0318675D01*
X0417415Y0318642D01*
X0417509Y0318614D01*
X0417604Y0318589D01*
X0417700Y0318568D01*
X0417797Y0318551D01*
X0417894Y0318537D01*
X0417992Y0318528D01*
X0418090Y0318522D01*
X0418188Y0318520D01*
X0421688Y0318520D01*
X0413688Y0315020D02*
X0413688Y0312020D01*
X0413688Y0315020D02*
X0388688Y0315020D01*
X0378688Y0312520D01*
X0378688Y0315020D02*
X0353688Y0315020D01*
X0353688Y0312020D01*
X0338688Y0310020D02*
X0262688Y0310020D01*
X0262688Y0332020D01*
X0338688Y0332020D01*
X0338688Y0323520D01*
X0338688Y0318520D01*
X0338688Y0310020D01*
X0330688Y0312020D02*
X0330688Y0315020D01*
X0305688Y0315020D01*
X0295688Y0312520D01*
X0295688Y0315020D02*
X0270688Y0315020D01*
X0270688Y0312020D01*
X0270688Y0320020D02*
X0295688Y0320020D01*
X0295688Y0317520D02*
X0305688Y0320020D01*
X0330688Y0320020D01*
X0330688Y0330020D01*
X0335188Y0323520D02*
X0338688Y0323520D01*
X0335188Y0323520D02*
X0335090Y0323518D01*
X0334992Y0323512D01*
X0334894Y0323503D01*
X0334797Y0323489D01*
X0334700Y0323472D01*
X0334604Y0323451D01*
X0334509Y0323426D01*
X0334415Y0323398D01*
X0334323Y0323365D01*
X0334231Y0323330D01*
X0334141Y0323290D01*
X0334053Y0323248D01*
X0333966Y0323201D01*
X0333882Y0323152D01*
X0333799Y0323099D01*
X0333719Y0323043D01*
X0333640Y0322983D01*
X0333564Y0322921D01*
X0333491Y0322856D01*
X0333420Y0322788D01*
X0333352Y0322717D01*
X0333287Y0322644D01*
X0333225Y0322568D01*
X0333165Y0322489D01*
X0333109Y0322409D01*
X0333056Y0322326D01*
X0333007Y0322242D01*
X0332960Y0322155D01*
X0332918Y0322067D01*
X0332878Y0321977D01*
X0332843Y0321885D01*
X0332810Y0321793D01*
X0332782Y0321699D01*
X0332757Y0321604D01*
X0332736Y0321508D01*
X0332719Y0321411D01*
X0332705Y0321314D01*
X0332696Y0321216D01*
X0332690Y0321118D01*
X0332688Y0321020D01*
X0332690Y0320922D01*
X0332696Y0320824D01*
X0332705Y0320726D01*
X0332719Y0320629D01*
X0332736Y0320532D01*
X0332757Y0320436D01*
X0332782Y0320341D01*
X0332810Y0320247D01*
X0332843Y0320155D01*
X0332878Y0320063D01*
X0332918Y0319973D01*
X0332960Y0319885D01*
X0333007Y0319798D01*
X0333056Y0319714D01*
X0333109Y0319631D01*
X0333165Y0319551D01*
X0333225Y0319472D01*
X0333287Y0319396D01*
X0333352Y0319323D01*
X0333420Y0319252D01*
X0333491Y0319184D01*
X0333564Y0319119D01*
X0333640Y0319057D01*
X0333719Y0318997D01*
X0333799Y0318941D01*
X0333882Y0318888D01*
X0333966Y0318839D01*
X0334053Y0318792D01*
X0334141Y0318750D01*
X0334231Y0318710D01*
X0334323Y0318675D01*
X0334415Y0318642D01*
X0334509Y0318614D01*
X0334604Y0318589D01*
X0334700Y0318568D01*
X0334797Y0318551D01*
X0334894Y0318537D01*
X0334992Y0318528D01*
X0335090Y0318522D01*
X0335188Y0318520D01*
X0338688Y0318520D01*
X0320688Y0326020D02*
X0303188Y0326020D01*
X0303188Y0323520D02*
X0298188Y0328520D01*
X0296188Y0328520D02*
X0293188Y0328520D01*
X0298188Y0326020D02*
X0280688Y0326020D01*
X0280688Y0330020D01*
X0270688Y0330020D02*
X0270688Y0320020D01*
X0305188Y0328520D02*
X0308188Y0328520D01*
X0306688Y0327020D02*
X0306688Y0330020D01*
X0320688Y0330020D02*
X0320688Y0326020D01*
X0313125Y0347317D02*
X0305251Y0347317D01*
X0308438Y0350270D02*
X0310688Y0348770D01*
X0310688Y0351770D01*
X0308438Y0350270D01*
X0308502Y0350313D02*
X0310688Y0350313D01*
X0310688Y0350911D02*
X0309400Y0350911D01*
X0310298Y0351510D02*
X0310688Y0351510D01*
X0310688Y0349714D02*
X0309271Y0349714D01*
X0310169Y0349116D02*
X0310688Y0349116D01*
X0313125Y0353222D02*
X0305251Y0353222D01*
X0296375Y0353222D02*
X0288501Y0353222D01*
X0290938Y0351770D02*
X0293188Y0350270D01*
X0290938Y0348770D01*
X0290938Y0351770D01*
X0290938Y0351510D02*
X0291328Y0351510D01*
X0290938Y0350911D02*
X0292226Y0350911D01*
X0293123Y0350313D02*
X0290938Y0350313D01*
X0290938Y0349714D02*
X0292354Y0349714D01*
X0291456Y0349116D02*
X0290938Y0349116D01*
X0288501Y0347317D02*
X0296375Y0347317D01*
X0294688Y0361020D02*
X0294688Y0364020D01*
X0293188Y0362520D02*
X0296188Y0362520D01*
X0363688Y0330020D02*
X0363688Y0326020D01*
X0381188Y0326020D01*
X0381188Y0328520D02*
X0386188Y0323520D01*
X0386188Y0326020D02*
X0403688Y0326020D01*
X0403688Y0330020D01*
X0391188Y0328520D02*
X0388188Y0328520D01*
X0389688Y0327020D02*
X0389688Y0330020D01*
X0379188Y0328520D02*
X0376188Y0328520D01*
X0428688Y0332020D02*
X0428688Y0310020D01*
X0504688Y0310020D01*
X0504688Y0318520D01*
X0504688Y0323520D01*
X0504688Y0332020D01*
X0428688Y0332020D01*
X0436688Y0330020D02*
X0436688Y0320020D01*
X0461688Y0320020D01*
X0461688Y0317520D02*
X0471688Y0320020D01*
X0496688Y0320020D01*
X0496688Y0330020D01*
X0501188Y0323520D02*
X0504688Y0323520D01*
X0501188Y0323520D02*
X0501090Y0323518D01*
X0500992Y0323512D01*
X0500894Y0323503D01*
X0500797Y0323489D01*
X0500700Y0323472D01*
X0500604Y0323451D01*
X0500509Y0323426D01*
X0500415Y0323398D01*
X0500323Y0323365D01*
X0500231Y0323330D01*
X0500141Y0323290D01*
X0500053Y0323248D01*
X0499966Y0323201D01*
X0499882Y0323152D01*
X0499799Y0323099D01*
X0499719Y0323043D01*
X0499640Y0322983D01*
X0499564Y0322921D01*
X0499491Y0322856D01*
X0499420Y0322788D01*
X0499352Y0322717D01*
X0499287Y0322644D01*
X0499225Y0322568D01*
X0499165Y0322489D01*
X0499109Y0322409D01*
X0499056Y0322326D01*
X0499007Y0322242D01*
X0498960Y0322155D01*
X0498918Y0322067D01*
X0498878Y0321977D01*
X0498843Y0321885D01*
X0498810Y0321793D01*
X0498782Y0321699D01*
X0498757Y0321604D01*
X0498736Y0321508D01*
X0498719Y0321411D01*
X0498705Y0321314D01*
X0498696Y0321216D01*
X0498690Y0321118D01*
X0498688Y0321020D01*
X0498690Y0320922D01*
X0498696Y0320824D01*
X0498705Y0320726D01*
X0498719Y0320629D01*
X0498736Y0320532D01*
X0498757Y0320436D01*
X0498782Y0320341D01*
X0498810Y0320247D01*
X0498843Y0320155D01*
X0498878Y0320063D01*
X0498918Y0319973D01*
X0498960Y0319885D01*
X0499007Y0319798D01*
X0499056Y0319714D01*
X0499109Y0319631D01*
X0499165Y0319551D01*
X0499225Y0319472D01*
X0499287Y0319396D01*
X0499352Y0319323D01*
X0499420Y0319252D01*
X0499491Y0319184D01*
X0499564Y0319119D01*
X0499640Y0319057D01*
X0499719Y0318997D01*
X0499799Y0318941D01*
X0499882Y0318888D01*
X0499966Y0318839D01*
X0500053Y0318792D01*
X0500141Y0318750D01*
X0500231Y0318710D01*
X0500323Y0318675D01*
X0500415Y0318642D01*
X0500509Y0318614D01*
X0500604Y0318589D01*
X0500700Y0318568D01*
X0500797Y0318551D01*
X0500894Y0318537D01*
X0500992Y0318528D01*
X0501090Y0318522D01*
X0501188Y0318520D01*
X0504688Y0318520D01*
X0496688Y0315020D02*
X0496688Y0312020D01*
X0496688Y0315020D02*
X0471688Y0315020D01*
X0461688Y0312520D01*
X0461688Y0315020D02*
X0436688Y0315020D01*
X0436688Y0312020D01*
X0446688Y0326020D02*
X0464188Y0326020D01*
X0464188Y0328520D02*
X0469188Y0323520D01*
X0469188Y0326020D02*
X0486688Y0326020D01*
X0486688Y0330020D01*
X0474188Y0328520D02*
X0471188Y0328520D01*
X0472688Y0327020D02*
X0472688Y0330020D01*
X0462188Y0328520D02*
X0459188Y0328520D01*
X0446688Y0330020D02*
X0446688Y0326020D01*
X0428688Y0283020D02*
X0504688Y0283020D01*
X0504688Y0274520D01*
X0504688Y0269520D01*
X0504688Y0261020D01*
X0428688Y0261020D01*
X0428688Y0283020D01*
X0436688Y0281020D02*
X0436688Y0271020D01*
X0461688Y0271020D01*
X0461688Y0268520D02*
X0471688Y0271020D01*
X0496688Y0271020D01*
X0496688Y0281020D01*
X0501188Y0274520D02*
X0504688Y0274520D01*
X0501188Y0274520D02*
X0501090Y0274518D01*
X0500992Y0274512D01*
X0500894Y0274503D01*
X0500797Y0274489D01*
X0500700Y0274472D01*
X0500604Y0274451D01*
X0500509Y0274426D01*
X0500415Y0274398D01*
X0500323Y0274365D01*
X0500231Y0274330D01*
X0500141Y0274290D01*
X0500053Y0274248D01*
X0499966Y0274201D01*
X0499882Y0274152D01*
X0499799Y0274099D01*
X0499719Y0274043D01*
X0499640Y0273983D01*
X0499564Y0273921D01*
X0499491Y0273856D01*
X0499420Y0273788D01*
X0499352Y0273717D01*
X0499287Y0273644D01*
X0499225Y0273568D01*
X0499165Y0273489D01*
X0499109Y0273409D01*
X0499056Y0273326D01*
X0499007Y0273242D01*
X0498960Y0273155D01*
X0498918Y0273067D01*
X0498878Y0272977D01*
X0498843Y0272885D01*
X0498810Y0272793D01*
X0498782Y0272699D01*
X0498757Y0272604D01*
X0498736Y0272508D01*
X0498719Y0272411D01*
X0498705Y0272314D01*
X0498696Y0272216D01*
X0498690Y0272118D01*
X0498688Y0272020D01*
X0498690Y0271922D01*
X0498696Y0271824D01*
X0498705Y0271726D01*
X0498719Y0271629D01*
X0498736Y0271532D01*
X0498757Y0271436D01*
X0498782Y0271341D01*
X0498810Y0271247D01*
X0498843Y0271155D01*
X0498878Y0271063D01*
X0498918Y0270973D01*
X0498960Y0270885D01*
X0499007Y0270798D01*
X0499056Y0270714D01*
X0499109Y0270631D01*
X0499165Y0270551D01*
X0499225Y0270472D01*
X0499287Y0270396D01*
X0499352Y0270323D01*
X0499420Y0270252D01*
X0499491Y0270184D01*
X0499564Y0270119D01*
X0499640Y0270057D01*
X0499719Y0269997D01*
X0499799Y0269941D01*
X0499882Y0269888D01*
X0499966Y0269839D01*
X0500053Y0269792D01*
X0500141Y0269750D01*
X0500231Y0269710D01*
X0500323Y0269675D01*
X0500415Y0269642D01*
X0500509Y0269614D01*
X0500604Y0269589D01*
X0500700Y0269568D01*
X0500797Y0269551D01*
X0500894Y0269537D01*
X0500992Y0269528D01*
X0501090Y0269522D01*
X0501188Y0269520D01*
X0504688Y0269520D01*
X0496688Y0266020D02*
X0496688Y0263020D01*
X0496688Y0266020D02*
X0471688Y0266020D01*
X0461688Y0263520D01*
X0461688Y0266020D02*
X0436688Y0266020D01*
X0436688Y0263020D01*
X0421688Y0261020D02*
X0345688Y0261020D01*
X0345688Y0283020D01*
X0421688Y0283020D01*
X0421688Y0274520D01*
X0421688Y0269520D01*
X0421688Y0261020D01*
X0413688Y0263020D02*
X0413688Y0266020D01*
X0388688Y0266020D01*
X0378688Y0263520D01*
X0378688Y0266020D02*
X0353688Y0266020D01*
X0353688Y0263020D01*
X0353688Y0271020D02*
X0378688Y0271020D01*
X0378688Y0268520D02*
X0388688Y0271020D01*
X0413688Y0271020D01*
X0413688Y0281020D01*
X0418188Y0274520D02*
X0421688Y0274520D01*
X0418188Y0274520D02*
X0418090Y0274518D01*
X0417992Y0274512D01*
X0417894Y0274503D01*
X0417797Y0274489D01*
X0417700Y0274472D01*
X0417604Y0274451D01*
X0417509Y0274426D01*
X0417415Y0274398D01*
X0417323Y0274365D01*
X0417231Y0274330D01*
X0417141Y0274290D01*
X0417053Y0274248D01*
X0416966Y0274201D01*
X0416882Y0274152D01*
X0416799Y0274099D01*
X0416719Y0274043D01*
X0416640Y0273983D01*
X0416564Y0273921D01*
X0416491Y0273856D01*
X0416420Y0273788D01*
X0416352Y0273717D01*
X0416287Y0273644D01*
X0416225Y0273568D01*
X0416165Y0273489D01*
X0416109Y0273409D01*
X0416056Y0273326D01*
X0416007Y0273242D01*
X0415960Y0273155D01*
X0415918Y0273067D01*
X0415878Y0272977D01*
X0415843Y0272885D01*
X0415810Y0272793D01*
X0415782Y0272699D01*
X0415757Y0272604D01*
X0415736Y0272508D01*
X0415719Y0272411D01*
X0415705Y0272314D01*
X0415696Y0272216D01*
X0415690Y0272118D01*
X0415688Y0272020D01*
X0415690Y0271922D01*
X0415696Y0271824D01*
X0415705Y0271726D01*
X0415719Y0271629D01*
X0415736Y0271532D01*
X0415757Y0271436D01*
X0415782Y0271341D01*
X0415810Y0271247D01*
X0415843Y0271155D01*
X0415878Y0271063D01*
X0415918Y0270973D01*
X0415960Y0270885D01*
X0416007Y0270798D01*
X0416056Y0270714D01*
X0416109Y0270631D01*
X0416165Y0270551D01*
X0416225Y0270472D01*
X0416287Y0270396D01*
X0416352Y0270323D01*
X0416420Y0270252D01*
X0416491Y0270184D01*
X0416564Y0270119D01*
X0416640Y0270057D01*
X0416719Y0269997D01*
X0416799Y0269941D01*
X0416882Y0269888D01*
X0416966Y0269839D01*
X0417053Y0269792D01*
X0417141Y0269750D01*
X0417231Y0269710D01*
X0417323Y0269675D01*
X0417415Y0269642D01*
X0417509Y0269614D01*
X0417604Y0269589D01*
X0417700Y0269568D01*
X0417797Y0269551D01*
X0417894Y0269537D01*
X0417992Y0269528D01*
X0418090Y0269522D01*
X0418188Y0269520D01*
X0421688Y0269520D01*
X0403688Y0277020D02*
X0403688Y0281020D01*
X0403688Y0277020D02*
X0386188Y0277020D01*
X0386188Y0274520D02*
X0381188Y0279520D01*
X0379188Y0279520D02*
X0376188Y0279520D01*
X0381188Y0277020D02*
X0363688Y0277020D01*
X0363688Y0281020D01*
X0353688Y0281020D02*
X0353688Y0271020D01*
X0338688Y0269520D02*
X0338688Y0261020D01*
X0262688Y0261020D01*
X0262688Y0283020D01*
X0338688Y0283020D01*
X0338688Y0274520D01*
X0338688Y0269520D01*
X0335188Y0269520D01*
X0335090Y0269522D01*
X0334992Y0269528D01*
X0334894Y0269537D01*
X0334797Y0269551D01*
X0334700Y0269568D01*
X0334604Y0269589D01*
X0334509Y0269614D01*
X0334415Y0269642D01*
X0334323Y0269675D01*
X0334231Y0269710D01*
X0334141Y0269750D01*
X0334053Y0269792D01*
X0333966Y0269839D01*
X0333882Y0269888D01*
X0333799Y0269941D01*
X0333719Y0269997D01*
X0333640Y0270057D01*
X0333564Y0270119D01*
X0333491Y0270184D01*
X0333420Y0270252D01*
X0333352Y0270323D01*
X0333287Y0270396D01*
X0333225Y0270472D01*
X0333165Y0270551D01*
X0333109Y0270631D01*
X0333056Y0270714D01*
X0333007Y0270798D01*
X0332960Y0270885D01*
X0332918Y0270973D01*
X0332878Y0271063D01*
X0332843Y0271155D01*
X0332810Y0271247D01*
X0332782Y0271341D01*
X0332757Y0271436D01*
X0332736Y0271532D01*
X0332719Y0271629D01*
X0332705Y0271726D01*
X0332696Y0271824D01*
X0332690Y0271922D01*
X0332688Y0272020D01*
X0332690Y0272118D01*
X0332696Y0272216D01*
X0332705Y0272314D01*
X0332719Y0272411D01*
X0332736Y0272508D01*
X0332757Y0272604D01*
X0332782Y0272699D01*
X0332810Y0272793D01*
X0332843Y0272885D01*
X0332878Y0272977D01*
X0332918Y0273067D01*
X0332960Y0273155D01*
X0333007Y0273242D01*
X0333056Y0273326D01*
X0333109Y0273409D01*
X0333165Y0273489D01*
X0333225Y0273568D01*
X0333287Y0273644D01*
X0333352Y0273717D01*
X0333420Y0273788D01*
X0333491Y0273856D01*
X0333564Y0273921D01*
X0333640Y0273983D01*
X0333719Y0274043D01*
X0333799Y0274099D01*
X0333882Y0274152D01*
X0333966Y0274201D01*
X0334053Y0274248D01*
X0334141Y0274290D01*
X0334231Y0274330D01*
X0334323Y0274365D01*
X0334415Y0274398D01*
X0334509Y0274426D01*
X0334604Y0274451D01*
X0334700Y0274472D01*
X0334797Y0274489D01*
X0334894Y0274503D01*
X0334992Y0274512D01*
X0335090Y0274518D01*
X0335188Y0274520D01*
X0338688Y0274520D01*
X0330688Y0271020D02*
X0330688Y0281020D01*
X0320688Y0281020D02*
X0320688Y0277020D01*
X0303188Y0277020D01*
X0303188Y0274520D02*
X0298188Y0279520D01*
X0296188Y0279520D02*
X0293188Y0279520D01*
X0298188Y0277020D02*
X0280688Y0277020D01*
X0280688Y0281020D01*
X0270688Y0281020D02*
X0270688Y0271020D01*
X0295688Y0271020D01*
X0295688Y0268520D02*
X0305688Y0271020D01*
X0330688Y0271020D01*
X0330688Y0266020D02*
X0330688Y0263020D01*
X0330688Y0266020D02*
X0305688Y0266020D01*
X0295688Y0263520D01*
X0295688Y0266020D02*
X0270688Y0266020D01*
X0270688Y0263020D01*
X0305188Y0279520D02*
X0308188Y0279520D01*
X0306688Y0278020D02*
X0306688Y0281020D01*
X0345688Y0234020D02*
X0421688Y0234020D01*
X0421688Y0225520D01*
X0421688Y0220520D01*
X0421688Y0212020D01*
X0345688Y0212020D01*
X0345688Y0234020D01*
X0353688Y0232020D02*
X0353688Y0222020D01*
X0378688Y0222020D01*
X0378688Y0219520D02*
X0388688Y0222020D01*
X0413688Y0222020D01*
X0413688Y0232020D01*
X0418188Y0225520D02*
X0421688Y0225520D01*
X0418188Y0225520D02*
X0418090Y0225518D01*
X0417992Y0225512D01*
X0417894Y0225503D01*
X0417797Y0225489D01*
X0417700Y0225472D01*
X0417604Y0225451D01*
X0417509Y0225426D01*
X0417415Y0225398D01*
X0417323Y0225365D01*
X0417231Y0225330D01*
X0417141Y0225290D01*
X0417053Y0225248D01*
X0416966Y0225201D01*
X0416882Y0225152D01*
X0416799Y0225099D01*
X0416719Y0225043D01*
X0416640Y0224983D01*
X0416564Y0224921D01*
X0416491Y0224856D01*
X0416420Y0224788D01*
X0416352Y0224717D01*
X0416287Y0224644D01*
X0416225Y0224568D01*
X0416165Y0224489D01*
X0416109Y0224409D01*
X0416056Y0224326D01*
X0416007Y0224242D01*
X0415960Y0224155D01*
X0415918Y0224067D01*
X0415878Y0223977D01*
X0415843Y0223885D01*
X0415810Y0223793D01*
X0415782Y0223699D01*
X0415757Y0223604D01*
X0415736Y0223508D01*
X0415719Y0223411D01*
X0415705Y0223314D01*
X0415696Y0223216D01*
X0415690Y0223118D01*
X0415688Y0223020D01*
X0415690Y0222922D01*
X0415696Y0222824D01*
X0415705Y0222726D01*
X0415719Y0222629D01*
X0415736Y0222532D01*
X0415757Y0222436D01*
X0415782Y0222341D01*
X0415810Y0222247D01*
X0415843Y0222155D01*
X0415878Y0222063D01*
X0415918Y0221973D01*
X0415960Y0221885D01*
X0416007Y0221798D01*
X0416056Y0221714D01*
X0416109Y0221631D01*
X0416165Y0221551D01*
X0416225Y0221472D01*
X0416287Y0221396D01*
X0416352Y0221323D01*
X0416420Y0221252D01*
X0416491Y0221184D01*
X0416564Y0221119D01*
X0416640Y0221057D01*
X0416719Y0220997D01*
X0416799Y0220941D01*
X0416882Y0220888D01*
X0416966Y0220839D01*
X0417053Y0220792D01*
X0417141Y0220750D01*
X0417231Y0220710D01*
X0417323Y0220675D01*
X0417415Y0220642D01*
X0417509Y0220614D01*
X0417604Y0220589D01*
X0417700Y0220568D01*
X0417797Y0220551D01*
X0417894Y0220537D01*
X0417992Y0220528D01*
X0418090Y0220522D01*
X0418188Y0220520D01*
X0421688Y0220520D01*
X0413688Y0217020D02*
X0413688Y0214020D01*
X0413688Y0217020D02*
X0388688Y0217020D01*
X0378688Y0214520D01*
X0378688Y0217020D02*
X0353688Y0217020D01*
X0353688Y0214020D01*
X0363688Y0228020D02*
X0381188Y0228020D01*
X0381188Y0230520D02*
X0386188Y0225520D01*
X0386188Y0228020D02*
X0403688Y0228020D01*
X0403688Y0232020D01*
X0391188Y0230520D02*
X0388188Y0230520D01*
X0389688Y0229020D02*
X0389688Y0232020D01*
X0379188Y0230520D02*
X0376188Y0230520D01*
X0363688Y0232020D02*
X0363688Y0228020D01*
X0389688Y0278020D02*
X0389688Y0281020D01*
X0391188Y0279520D02*
X0388188Y0279520D01*
X0446688Y0281020D02*
X0446688Y0277020D01*
X0464188Y0277020D01*
X0464188Y0279520D02*
X0469188Y0274520D01*
X0469188Y0277020D02*
X0486688Y0277020D01*
X0486688Y0281020D01*
X0474188Y0279520D02*
X0471188Y0279520D01*
X0472688Y0278020D02*
X0472688Y0281020D01*
X0462188Y0279520D02*
X0459188Y0279520D01*
X0517001Y0250572D02*
X0524875Y0250572D01*
X0522438Y0249120D02*
X0522438Y0246120D01*
X0520188Y0247620D01*
X0522438Y0249120D01*
X0522438Y0248566D02*
X0521607Y0248566D01*
X0522438Y0247967D02*
X0520709Y0247967D01*
X0520564Y0247369D02*
X0522438Y0247369D01*
X0522438Y0246770D02*
X0521462Y0246770D01*
X0522360Y0246172D02*
X0522438Y0246172D01*
X0524875Y0244667D02*
X0517001Y0244667D01*
X0529288Y0244120D02*
X0529288Y0242920D01*
X0529288Y0244120D02*
X0560088Y0244120D01*
X0560088Y0242920D01*
X0560088Y0276670D02*
X0545888Y0276670D01*
X0545886Y0276739D01*
X0545880Y0276807D01*
X0545870Y0276875D01*
X0545857Y0276942D01*
X0545839Y0277008D01*
X0545818Y0277073D01*
X0545793Y0277137D01*
X0545765Y0277199D01*
X0545733Y0277260D01*
X0545698Y0277319D01*
X0545659Y0277375D01*
X0545617Y0277430D01*
X0545572Y0277481D01*
X0545524Y0277531D01*
X0545474Y0277577D01*
X0545421Y0277620D01*
X0545365Y0277661D01*
X0545308Y0277698D01*
X0545248Y0277731D01*
X0545186Y0277762D01*
X0545123Y0277788D01*
X0545059Y0277811D01*
X0544993Y0277831D01*
X0544926Y0277846D01*
X0544859Y0277858D01*
X0544791Y0277866D01*
X0544722Y0277870D01*
X0544654Y0277870D01*
X0544585Y0277866D01*
X0544517Y0277858D01*
X0544450Y0277846D01*
X0544383Y0277831D01*
X0544317Y0277811D01*
X0544253Y0277788D01*
X0544190Y0277762D01*
X0544128Y0277731D01*
X0544068Y0277698D01*
X0544011Y0277661D01*
X0543955Y0277620D01*
X0543902Y0277577D01*
X0543852Y0277531D01*
X0543804Y0277481D01*
X0543759Y0277430D01*
X0543717Y0277375D01*
X0543678Y0277319D01*
X0543643Y0277260D01*
X0543611Y0277199D01*
X0543583Y0277137D01*
X0543558Y0277073D01*
X0543537Y0277008D01*
X0543519Y0276942D01*
X0543506Y0276875D01*
X0543496Y0276807D01*
X0543490Y0276739D01*
X0543488Y0276670D01*
X0529288Y0276670D01*
X0529288Y0277870D01*
X0554238Y0280220D02*
X0554238Y0282720D01*
X0557738Y0280220D01*
X0554238Y0280220D01*
X0554238Y0280287D02*
X0557644Y0280287D01*
X0556806Y0280885D02*
X0554238Y0280885D01*
X0554238Y0281484D02*
X0555968Y0281484D01*
X0555130Y0282082D02*
X0554238Y0282082D01*
X0554238Y0282681D02*
X0554292Y0282681D01*
X0560088Y0277870D02*
X0560088Y0276670D01*
X0560088Y0322670D02*
X0560088Y0323870D01*
X0529288Y0323870D01*
X0529288Y0322670D01*
X0524875Y0325117D02*
X0517001Y0325117D01*
X0520188Y0328070D02*
X0522438Y0326570D01*
X0522438Y0329570D01*
X0520188Y0328070D01*
X0520335Y0328168D02*
X0522438Y0328168D01*
X0522438Y0328766D02*
X0521232Y0328766D01*
X0522130Y0329365D02*
X0522438Y0329365D01*
X0522438Y0327569D02*
X0520938Y0327569D01*
X0521836Y0326971D02*
X0522438Y0326971D01*
X0524875Y0331022D02*
X0517001Y0331022D01*
X0517138Y0350120D02*
X0518738Y0350120D01*
X0520338Y0350120D01*
X0520037Y0351320D02*
X0519969Y0351324D01*
X0519900Y0351323D01*
X0519832Y0351319D01*
X0519764Y0351311D01*
X0519696Y0351300D01*
X0519629Y0351284D01*
X0519563Y0351264D01*
X0519499Y0351241D01*
X0519436Y0351214D01*
X0519374Y0351184D01*
X0519315Y0351150D01*
X0519257Y0351113D01*
X0519202Y0351072D01*
X0519149Y0351029D01*
X0519098Y0350982D01*
X0519051Y0350933D01*
X0519006Y0350881D01*
X0518964Y0350826D01*
X0518925Y0350770D01*
X0518890Y0350711D01*
X0518858Y0350650D01*
X0518830Y0350588D01*
X0518805Y0350523D01*
X0518784Y0350458D01*
X0518767Y0350392D01*
X0518754Y0350324D01*
X0518744Y0350257D01*
X0518739Y0350188D01*
X0518737Y0350120D01*
X0517138Y0350120D02*
X0517138Y0353620D01*
X0517138Y0358420D02*
X0517138Y0361920D01*
X0520338Y0361920D01*
X0522738Y0357620D02*
X0522738Y0354420D01*
X0386026Y0418461D02*
X0315160Y0418461D01*
X0315160Y0440508D01*
X0342719Y0440508D01*
X0358467Y0440508D01*
X0386026Y0440508D01*
X0386026Y0418461D01*
X0358467Y0424760D02*
X0342719Y0424760D01*
X0342719Y0440508D01*
X0358467Y0440508D02*
X0358467Y0424760D01*
X0307286Y0418461D02*
X0236420Y0418461D01*
X0236420Y0440508D01*
X0263979Y0440508D01*
X0279727Y0440508D01*
X0307286Y0440508D01*
X0307286Y0418461D01*
X0279727Y0424760D02*
X0279727Y0440508D01*
X0263979Y0440508D02*
X0263979Y0424760D01*
X0279727Y0424760D01*
X0222688Y0378520D02*
X0212688Y0376020D01*
X0187688Y0376020D01*
X0187688Y0379020D01*
X0183188Y0372520D02*
X0179688Y0372520D01*
X0183188Y0372520D02*
X0183286Y0372518D01*
X0183384Y0372512D01*
X0183482Y0372503D01*
X0183579Y0372489D01*
X0183676Y0372472D01*
X0183772Y0372451D01*
X0183867Y0372426D01*
X0183961Y0372398D01*
X0184053Y0372365D01*
X0184145Y0372330D01*
X0184235Y0372290D01*
X0184323Y0372248D01*
X0184410Y0372201D01*
X0184494Y0372152D01*
X0184577Y0372099D01*
X0184657Y0372043D01*
X0184736Y0371983D01*
X0184812Y0371921D01*
X0184885Y0371856D01*
X0184956Y0371788D01*
X0185024Y0371717D01*
X0185089Y0371644D01*
X0185151Y0371568D01*
X0185211Y0371489D01*
X0185267Y0371409D01*
X0185320Y0371326D01*
X0185369Y0371242D01*
X0185416Y0371155D01*
X0185458Y0371067D01*
X0185498Y0370977D01*
X0185533Y0370885D01*
X0185566Y0370793D01*
X0185594Y0370699D01*
X0185619Y0370604D01*
X0185640Y0370508D01*
X0185657Y0370411D01*
X0185671Y0370314D01*
X0185680Y0370216D01*
X0185686Y0370118D01*
X0185688Y0370020D01*
X0185686Y0369922D01*
X0185680Y0369824D01*
X0185671Y0369726D01*
X0185657Y0369629D01*
X0185640Y0369532D01*
X0185619Y0369436D01*
X0185594Y0369341D01*
X0185566Y0369247D01*
X0185533Y0369155D01*
X0185498Y0369063D01*
X0185458Y0368973D01*
X0185416Y0368885D01*
X0185369Y0368798D01*
X0185320Y0368714D01*
X0185267Y0368631D01*
X0185211Y0368551D01*
X0185151Y0368472D01*
X0185089Y0368396D01*
X0185024Y0368323D01*
X0184956Y0368252D01*
X0184885Y0368184D01*
X0184812Y0368119D01*
X0184736Y0368057D01*
X0184657Y0367997D01*
X0184577Y0367941D01*
X0184494Y0367888D01*
X0184410Y0367839D01*
X0184323Y0367792D01*
X0184235Y0367750D01*
X0184145Y0367710D01*
X0184053Y0367675D01*
X0183961Y0367642D01*
X0183867Y0367614D01*
X0183772Y0367589D01*
X0183676Y0367568D01*
X0183579Y0367551D01*
X0183482Y0367537D01*
X0183384Y0367528D01*
X0183286Y0367522D01*
X0183188Y0367520D01*
X0179688Y0367520D01*
X0170575Y0386093D02*
X0168440Y0386093D01*
X0167372Y0387161D01*
X0167372Y0389296D02*
X0169507Y0390364D01*
X0170575Y0390364D01*
X0171642Y0389296D01*
X0171642Y0387161D01*
X0170575Y0386093D01*
X0167372Y0389296D02*
X0167372Y0392499D01*
X0171642Y0392499D01*
X0165197Y0392499D02*
X0160927Y0386093D01*
X0165197Y0386093D02*
X0160927Y0392499D01*
X0215188Y0367520D02*
X0220188Y0362520D01*
X0222188Y0362520D02*
X0225188Y0362520D01*
X0410438Y0143620D02*
X0417438Y0143620D01*
X0410438Y0138820D02*
X0410438Y0136220D01*
X0412938Y0135770D02*
X0415938Y0133770D01*
X0412938Y0133770D01*
X0412938Y0135770D01*
X0412938Y0135447D02*
X0413422Y0135447D01*
X0412938Y0134848D02*
X0414319Y0134848D01*
X0415217Y0134250D02*
X0412938Y0134250D01*
X0412738Y0131420D02*
X0410438Y0131420D01*
X0411538Y0131420D02*
X0412738Y0131420D01*
X0412740Y0131489D01*
X0412746Y0131557D01*
X0412756Y0131625D01*
X0412769Y0131692D01*
X0412787Y0131758D01*
X0412808Y0131823D01*
X0412833Y0131887D01*
X0412861Y0131949D01*
X0412893Y0132010D01*
X0412928Y0132069D01*
X0412967Y0132125D01*
X0413009Y0132180D01*
X0413054Y0132231D01*
X0413102Y0132281D01*
X0413152Y0132327D01*
X0413205Y0132370D01*
X0413261Y0132411D01*
X0413318Y0132448D01*
X0413378Y0132481D01*
X0413440Y0132512D01*
X0413503Y0132538D01*
X0413567Y0132561D01*
X0413633Y0132581D01*
X0413700Y0132596D01*
X0413767Y0132608D01*
X0413835Y0132616D01*
X0413904Y0132620D01*
X0413972Y0132620D01*
X0414041Y0132616D01*
X0414109Y0132608D01*
X0414176Y0132596D01*
X0414243Y0132581D01*
X0414309Y0132561D01*
X0414373Y0132538D01*
X0414436Y0132512D01*
X0414498Y0132481D01*
X0414558Y0132448D01*
X0414615Y0132411D01*
X0414671Y0132370D01*
X0414724Y0132327D01*
X0414774Y0132281D01*
X0414822Y0132231D01*
X0414867Y0132180D01*
X0414909Y0132125D01*
X0414948Y0132069D01*
X0414983Y0132010D01*
X0415015Y0131949D01*
X0415043Y0131887D01*
X0415068Y0131823D01*
X0415089Y0131758D01*
X0415107Y0131692D01*
X0415120Y0131625D01*
X0415130Y0131557D01*
X0415136Y0131489D01*
X0415138Y0131420D01*
X0417438Y0131420D01*
X0469069Y0125070D02*
X0483806Y0125070D01*
X0485888Y0133820D02*
X0491488Y0133820D01*
X0491488Y0137020D02*
X0491488Y0139020D01*
X0491488Y0142220D02*
X0489888Y0142220D01*
X0489886Y0142151D01*
X0489880Y0142083D01*
X0489870Y0142015D01*
X0489857Y0141948D01*
X0489839Y0141882D01*
X0489818Y0141817D01*
X0489793Y0141753D01*
X0489765Y0141691D01*
X0489733Y0141630D01*
X0489698Y0141571D01*
X0489659Y0141515D01*
X0489617Y0141460D01*
X0489572Y0141409D01*
X0489524Y0141359D01*
X0489474Y0141313D01*
X0489421Y0141270D01*
X0489365Y0141229D01*
X0489308Y0141192D01*
X0489248Y0141159D01*
X0489186Y0141128D01*
X0489123Y0141102D01*
X0489059Y0141079D01*
X0488993Y0141059D01*
X0488926Y0141044D01*
X0488859Y0141032D01*
X0488791Y0141024D01*
X0488722Y0141020D01*
X0488654Y0141020D01*
X0488585Y0141024D01*
X0488517Y0141032D01*
X0488450Y0141044D01*
X0488383Y0141059D01*
X0488317Y0141079D01*
X0488253Y0141102D01*
X0488190Y0141128D01*
X0488128Y0141159D01*
X0488068Y0141192D01*
X0488011Y0141229D01*
X0487955Y0141270D01*
X0487902Y0141313D01*
X0487852Y0141359D01*
X0487804Y0141409D01*
X0487759Y0141460D01*
X0487717Y0141515D01*
X0487678Y0141571D01*
X0487643Y0141630D01*
X0487611Y0141691D01*
X0487583Y0141753D01*
X0487558Y0141817D01*
X0487537Y0141882D01*
X0487519Y0141948D01*
X0487506Y0142015D01*
X0487496Y0142083D01*
X0487490Y0142151D01*
X0487488Y0142220D01*
X0485888Y0142220D01*
X0479188Y0110520D02*
X0482688Y0108020D01*
X0479188Y0108020D01*
X0479188Y0110520D01*
X0479188Y0110310D02*
X0479482Y0110310D01*
X0479188Y0109711D02*
X0480320Y0109711D01*
X0481158Y0109112D02*
X0479188Y0109112D01*
X0479188Y0108514D02*
X0481996Y0108514D01*
X0483806Y0105470D02*
X0477638Y0105470D01*
X0477636Y0105539D01*
X0477630Y0105607D01*
X0477620Y0105675D01*
X0477607Y0105742D01*
X0477589Y0105808D01*
X0477568Y0105873D01*
X0477543Y0105937D01*
X0477515Y0105999D01*
X0477483Y0106060D01*
X0477448Y0106119D01*
X0477409Y0106175D01*
X0477367Y0106230D01*
X0477322Y0106281D01*
X0477274Y0106331D01*
X0477224Y0106377D01*
X0477171Y0106420D01*
X0477115Y0106461D01*
X0477058Y0106498D01*
X0476998Y0106531D01*
X0476936Y0106562D01*
X0476873Y0106588D01*
X0476809Y0106611D01*
X0476743Y0106631D01*
X0476676Y0106646D01*
X0476609Y0106658D01*
X0476541Y0106666D01*
X0476472Y0106670D01*
X0476404Y0106670D01*
X0476335Y0106666D01*
X0476267Y0106658D01*
X0476200Y0106646D01*
X0476133Y0106631D01*
X0476067Y0106611D01*
X0476003Y0106588D01*
X0475940Y0106562D01*
X0475878Y0106531D01*
X0475818Y0106498D01*
X0475761Y0106461D01*
X0475705Y0106420D01*
X0475652Y0106377D01*
X0475602Y0106331D01*
X0475554Y0106281D01*
X0475509Y0106230D01*
X0475467Y0106175D01*
X0475428Y0106119D01*
X0475393Y0106060D01*
X0475361Y0105999D01*
X0475333Y0105937D01*
X0475308Y0105873D01*
X0475287Y0105808D01*
X0475269Y0105742D01*
X0475256Y0105675D01*
X0475246Y0105607D01*
X0475240Y0105539D01*
X0475238Y0105470D01*
X0469069Y0105470D01*
X0539738Y0114820D02*
X0539738Y0116920D01*
X0539738Y0114820D02*
X0541838Y0114820D01*
X0567038Y0114820D02*
X0569138Y0114820D01*
X0569138Y0116920D01*
X0569138Y0142120D02*
X0569138Y0144220D01*
X0567038Y0144220D01*
X0541838Y0144220D02*
X0539738Y0142120D01*
X0539738Y0144220D01*
X0541838Y0144220D01*
X0541444Y0143826D02*
X0539738Y0143826D01*
X0539738Y0143228D02*
X0540846Y0143228D01*
X0540247Y0142629D02*
X0539738Y0142629D01*
X0575838Y0168820D02*
X0601838Y0168820D01*
X0601838Y0179020D01*
X0601838Y0184620D02*
X0601838Y0194820D01*
X0575838Y0194820D01*
X0575838Y0184620D01*
X0575838Y0188320D02*
X0582338Y0194820D01*
X0579438Y0192820D02*
X0576438Y0192820D01*
X0577938Y0194320D02*
X0577938Y0191320D01*
X0575838Y0179020D02*
X0575838Y0175320D01*
X0582338Y0168820D01*
X0575838Y0168820D02*
X0575838Y0175320D01*
X0560088Y0196920D02*
X0545888Y0196920D01*
X0545886Y0196989D01*
X0545880Y0197057D01*
X0545870Y0197125D01*
X0545857Y0197192D01*
X0545839Y0197258D01*
X0545818Y0197323D01*
X0545793Y0197387D01*
X0545765Y0197449D01*
X0545733Y0197510D01*
X0545698Y0197569D01*
X0545659Y0197625D01*
X0545617Y0197680D01*
X0545572Y0197731D01*
X0545524Y0197781D01*
X0545474Y0197827D01*
X0545421Y0197870D01*
X0545365Y0197911D01*
X0545308Y0197948D01*
X0545248Y0197981D01*
X0545186Y0198012D01*
X0545123Y0198038D01*
X0545059Y0198061D01*
X0544993Y0198081D01*
X0544926Y0198096D01*
X0544859Y0198108D01*
X0544791Y0198116D01*
X0544722Y0198120D01*
X0544654Y0198120D01*
X0544585Y0198116D01*
X0544517Y0198108D01*
X0544450Y0198096D01*
X0544383Y0198081D01*
X0544317Y0198061D01*
X0544253Y0198038D01*
X0544190Y0198012D01*
X0544128Y0197981D01*
X0544068Y0197948D01*
X0544011Y0197911D01*
X0543955Y0197870D01*
X0543902Y0197827D01*
X0543852Y0197781D01*
X0543804Y0197731D01*
X0543759Y0197680D01*
X0543717Y0197625D01*
X0543678Y0197569D01*
X0543643Y0197510D01*
X0543611Y0197449D01*
X0543583Y0197387D01*
X0543558Y0197323D01*
X0543537Y0197258D01*
X0543519Y0197192D01*
X0543506Y0197125D01*
X0543496Y0197057D01*
X0543490Y0196989D01*
X0543488Y0196920D01*
X0529288Y0196920D01*
X0529288Y0198120D01*
X0554238Y0200470D02*
X0554238Y0202970D01*
X0557738Y0200470D01*
X0554238Y0200470D01*
X0554238Y0200685D02*
X0557437Y0200685D01*
X0556599Y0201283D02*
X0554238Y0201283D01*
X0554238Y0201882D02*
X0555761Y0201882D01*
X0554923Y0202480D02*
X0554238Y0202480D01*
X0560088Y0198120D02*
X0560088Y0196920D01*
D821*
X0520538Y0239770D02*
X0519538Y0239770D01*
X0519538Y0241270D01*
X0520538Y0241270D01*
X0520538Y0239770D01*
X0520538Y0239794D02*
X0519538Y0239794D01*
X0519538Y0239892D02*
X0520538Y0239892D01*
X0520538Y0239991D02*
X0519538Y0239991D01*
X0519538Y0240089D02*
X0520538Y0240089D01*
X0520538Y0240188D02*
X0519538Y0240188D01*
X0519538Y0240286D02*
X0520538Y0240286D01*
X0520538Y0240385D02*
X0519538Y0240385D01*
X0519538Y0240483D02*
X0520538Y0240483D01*
X0520538Y0240582D02*
X0519538Y0240582D01*
X0519538Y0240680D02*
X0520538Y0240680D01*
X0520538Y0240779D02*
X0519538Y0240779D01*
X0519538Y0240877D02*
X0520538Y0240877D01*
X0520538Y0240976D02*
X0519538Y0240976D01*
X0519538Y0241074D02*
X0520538Y0241074D01*
X0520538Y0241173D02*
X0519538Y0241173D01*
X0519538Y0319520D02*
X0520538Y0319520D01*
X0520538Y0321020D01*
X0519538Y0321020D01*
X0519538Y0319520D01*
X0519538Y0319588D02*
X0520538Y0319588D01*
X0520538Y0319686D02*
X0519538Y0319686D01*
X0519538Y0319785D02*
X0520538Y0319785D01*
X0520538Y0319883D02*
X0519538Y0319883D01*
X0519538Y0319982D02*
X0520538Y0319982D01*
X0520538Y0320080D02*
X0519538Y0320080D01*
X0519538Y0320179D02*
X0520538Y0320179D01*
X0520538Y0320277D02*
X0519538Y0320277D01*
X0519538Y0320376D02*
X0520538Y0320376D01*
X0520538Y0320474D02*
X0519538Y0320474D01*
X0519538Y0320573D02*
X0520538Y0320573D01*
X0520538Y0320671D02*
X0519538Y0320671D01*
X0519538Y0320770D02*
X0520538Y0320770D01*
X0520538Y0320868D02*
X0519538Y0320868D01*
X0519538Y0320967D02*
X0520538Y0320967D01*
X0558609Y0151020D02*
X0560109Y0151020D01*
X0560109Y0150020D01*
X0558609Y0150020D01*
X0558609Y0151020D01*
X0558609Y0150936D02*
X0560109Y0150936D01*
X0560109Y0150838D02*
X0558609Y0150838D01*
X0558609Y0150739D02*
X0560109Y0150739D01*
X0560109Y0150641D02*
X0558609Y0150641D01*
X0558609Y0150542D02*
X0560109Y0150542D01*
X0560109Y0150444D02*
X0558609Y0150444D01*
X0558609Y0150345D02*
X0560109Y0150345D01*
X0560109Y0150247D02*
X0558609Y0150247D01*
X0558609Y0150148D02*
X0560109Y0150148D01*
X0560109Y0150050D02*
X0558609Y0150050D01*
X0574938Y0129285D02*
X0575938Y0129285D01*
X0575938Y0127785D01*
X0574938Y0127785D01*
X0574938Y0129285D01*
X0574938Y0129264D02*
X0575938Y0129264D01*
X0575938Y0129165D02*
X0574938Y0129165D01*
X0574938Y0129067D02*
X0575938Y0129067D01*
X0575938Y0128968D02*
X0574938Y0128968D01*
X0574938Y0128870D02*
X0575938Y0128870D01*
X0575938Y0128771D02*
X0574938Y0128771D01*
X0574938Y0128673D02*
X0575938Y0128673D01*
X0575938Y0128574D02*
X0574938Y0128574D01*
X0574938Y0128476D02*
X0575938Y0128476D01*
X0575938Y0128377D02*
X0574938Y0128377D01*
X0574938Y0128279D02*
X0575938Y0128279D01*
X0575938Y0128180D02*
X0574938Y0128180D01*
X0574938Y0128082D02*
X0575938Y0128082D01*
X0575938Y0127983D02*
X0574938Y0127983D01*
X0574938Y0127885D02*
X0575938Y0127885D01*
X0575938Y0127786D02*
X0574938Y0127786D01*
X0558140Y0109020D02*
X0556640Y0109020D01*
X0556640Y0108020D01*
X0558140Y0108020D01*
X0558140Y0109020D01*
X0558140Y0108971D02*
X0556640Y0108971D01*
X0556640Y0108872D02*
X0558140Y0108872D01*
X0558140Y0108774D02*
X0556640Y0108774D01*
X0556640Y0108675D02*
X0558140Y0108675D01*
X0558140Y0108577D02*
X0556640Y0108577D01*
X0556640Y0108478D02*
X0558140Y0108478D01*
X0558140Y0108380D02*
X0556640Y0108380D01*
X0556640Y0108281D02*
X0558140Y0108281D01*
X0558140Y0108183D02*
X0556640Y0108183D01*
X0556640Y0108084D02*
X0558140Y0108084D01*
X0533938Y0121880D02*
X0533938Y0123380D01*
X0532938Y0123380D01*
X0532938Y0121880D01*
X0533938Y0121880D01*
X0533938Y0121974D02*
X0532938Y0121974D01*
X0532938Y0122073D02*
X0533938Y0122073D01*
X0533938Y0122171D02*
X0532938Y0122171D01*
X0532938Y0122270D02*
X0533938Y0122270D01*
X0533938Y0122368D02*
X0532938Y0122368D01*
X0532938Y0122467D02*
X0533938Y0122467D01*
X0533938Y0122565D02*
X0532938Y0122565D01*
X0532938Y0122664D02*
X0533938Y0122664D01*
X0533938Y0122762D02*
X0532938Y0122762D01*
X0532938Y0122861D02*
X0533938Y0122861D01*
X0533938Y0122959D02*
X0532938Y0122959D01*
X0532938Y0123058D02*
X0533938Y0123058D01*
X0533938Y0123156D02*
X0532938Y0123156D01*
X0532938Y0123255D02*
X0533938Y0123255D01*
X0533938Y0123353D02*
X0532938Y0123353D01*
D822*
X0386188Y0175020D02*
X0386188Y0176520D01*
X0386188Y0179020D01*
X0386188Y0183020D01*
X0381188Y0183020D01*
X0381188Y0181520D01*
X0381188Y0179020D01*
X0381188Y0175020D01*
X0386188Y0175020D01*
X0386188Y0224020D02*
X0381188Y0224020D01*
X0381188Y0228020D01*
X0381188Y0230520D01*
X0381188Y0232020D01*
X0386188Y0232020D01*
X0386188Y0228020D01*
X0386188Y0225520D01*
X0386188Y0224020D01*
X0386188Y0273020D02*
X0381188Y0273020D01*
X0381188Y0277020D01*
X0381188Y0279520D01*
X0381188Y0281020D01*
X0386188Y0281020D01*
X0386188Y0277020D01*
X0386188Y0274520D01*
X0386188Y0273020D01*
X0386188Y0322020D02*
X0381188Y0322020D01*
X0381188Y0326020D01*
X0381188Y0328520D01*
X0381188Y0330020D01*
X0386188Y0330020D01*
X0386188Y0326020D01*
X0386188Y0323520D01*
X0386188Y0322020D01*
X0386188Y0361020D02*
X0381188Y0361020D01*
X0381188Y0365020D01*
X0381188Y0367520D01*
X0381188Y0369020D01*
X0386188Y0369020D01*
X0386188Y0365020D01*
X0386188Y0362520D01*
X0386188Y0361020D01*
X0464188Y0330020D02*
X0464188Y0328520D01*
X0464188Y0326020D01*
X0464188Y0322020D01*
X0469188Y0322020D01*
X0469188Y0323520D01*
X0469188Y0326020D01*
X0469188Y0330020D01*
X0464188Y0330020D01*
X0464188Y0281020D02*
X0464188Y0279520D01*
X0464188Y0277020D01*
X0464188Y0273020D01*
X0469188Y0273020D01*
X0469188Y0274520D01*
X0469188Y0277020D01*
X0469188Y0281020D01*
X0464188Y0281020D01*
X0303188Y0281020D02*
X0303188Y0277020D01*
X0303188Y0274520D01*
X0303188Y0273020D01*
X0298188Y0273020D01*
X0298188Y0277020D01*
X0298188Y0279520D01*
X0298188Y0281020D01*
X0303188Y0281020D01*
X0303188Y0322020D02*
X0298188Y0322020D01*
X0298188Y0326020D01*
X0298188Y0328520D01*
X0298188Y0330020D01*
X0303188Y0330020D01*
X0303188Y0326020D01*
X0303188Y0323520D01*
X0303188Y0322020D01*
X0303188Y0361020D02*
X0298188Y0361020D01*
X0298188Y0365020D01*
X0298188Y0367520D01*
X0298188Y0369020D01*
X0303188Y0369020D01*
X0303188Y0365020D01*
X0303188Y0362520D01*
X0303188Y0361020D01*
X0220188Y0361020D02*
X0220188Y0362520D01*
X0220188Y0365020D01*
X0220188Y0369020D01*
X0215188Y0369020D01*
X0215188Y0367520D01*
X0215188Y0365020D01*
X0215188Y0361020D01*
X0220188Y0361020D01*
X0220188Y0330020D02*
X0215188Y0330020D01*
X0215188Y0328520D01*
X0215188Y0326020D01*
X0215188Y0322020D01*
X0220188Y0322020D01*
X0220188Y0323520D01*
X0220188Y0326020D01*
X0220188Y0330020D01*
X0220188Y0281020D02*
X0215188Y0281020D01*
X0215188Y0279520D01*
X0215188Y0277020D01*
X0215188Y0273020D01*
X0220188Y0273020D01*
X0220188Y0274520D01*
X0220188Y0277020D01*
X0220188Y0281020D01*
X0220188Y0232020D02*
X0215188Y0232020D01*
X0215188Y0230520D01*
X0215188Y0228020D01*
X0215188Y0224020D01*
X0220188Y0224020D01*
X0220188Y0225520D01*
X0220188Y0228020D01*
X0220188Y0232020D01*
X0220188Y0183020D02*
X0215188Y0183020D01*
X0215188Y0181520D01*
X0215188Y0179020D01*
X0215188Y0175020D01*
X0220188Y0175020D01*
X0220188Y0176520D01*
X0220188Y0179020D01*
X0220188Y0183020D01*
X0298188Y0183020D02*
X0298188Y0181520D01*
X0298188Y0179020D01*
X0298188Y0175020D01*
X0303188Y0175020D01*
X0303188Y0176520D01*
X0303188Y0179020D01*
X0303188Y0183020D01*
X0298188Y0183020D01*
X0298188Y0224020D02*
X0298188Y0228020D01*
X0298188Y0230520D01*
X0298188Y0232020D01*
X0303188Y0232020D01*
X0303188Y0228020D01*
X0303188Y0225520D01*
X0303188Y0224020D01*
X0298188Y0224020D01*
D823*
X0293800Y0350270D03*
X0307825Y0350270D03*
X0519575Y0328070D03*
X0519575Y0247620D03*
M02*
