%
M48
M72
T01C0.01181
T02C0.01575
T03C0.03150
T04C0.03937
T05C0.04331
T06C0.05118
T07C0.12598
%
T01
X334738Y99420
X392038Y94970
T02
X401688Y120770
X398938Y124020
X388688Y132520
X388688Y140270
X358438Y126270
X352438Y135020
X344938Y126020
X353688Y172620
X353688Y198020
X376938Y214120
X353688Y226020
X313688Y177520
X290688Y212870
X265238Y213920
X261188Y201770
X257438Y182770
X230688Y177520
X218238Y182020
X214138Y173770
X207338Y164420
X223038Y165120
X229888Y156470
X222988Y196170
X214138Y219220
X218138Y225970
X207338Y243620
X197688Y223570
X252888Y248170
X270688Y273670
X280688Y274070
X289688Y272720
X289838Y289020
X257438Y281520
X270688Y326520
X237688Y348270
X257438Y355020
X197738Y323920
X158438Y321770
X135888Y284420
X129838Y276720
X125988Y258120
X176438Y273170
X346138Y292320
X353688Y314270
X348438Y317520
X403688Y348270
X455638Y341020
X455688Y337020
X464488Y321370
X486688Y348270
X508938Y353470
X507388Y359670
X504238Y363470
X528438Y360020
X515738Y332870
X560238Y322670
X563338Y322670
X566438Y322670
X585438Y332870
X588188Y348270
X519738Y295220
X515488Y294020
X510188Y285320
X510638Y280270
X530788Y261820
X533238Y258620
X535438Y255170
X547638Y262620
X551088Y259820
X553188Y256070
X560288Y242970
X563338Y242970
X566438Y242970
X585188Y251470
X585188Y289020
X588188Y289020
X515838Y251470
X511338Y230520
X512638Y225470
X511188Y220520
X509738Y215520
X503488Y218370
X499738Y212720
X509738Y210520
X509738Y205520
X509738Y200570
X506288Y194770
X539738Y175920
X541138Y171320
X541638Y167170
X543638Y163370
X545488Y158770
X538488Y161320
X532488Y159420
X532088Y163770
X524338Y152770
X523388Y145320
X523438Y137370
X527988Y136920
X527938Y130520
X532488Y130320
X543238Y127470
X542888Y122570
X537438Y116720
X532488Y119670
X517438Y123870
X516838Y117770
X510938Y123520
X503638Y133670
X507188Y137770
X496938Y135270
X488688Y138020
X480938Y134520
X476438Y134770
X488688Y126420
X482438Y122770
X471688Y123020
X462188Y124770
X458438Y136770
X437938Y126520
X423438Y137520
X419438Y126520
X450688Y104770
X465638Y103170
X470438Y112770
X478688Y110770
X478938Y106020
X496188Y117770
X506388Y100170
X510938Y84270
X554838Y101720
X558188Y99170
X562288Y99120
X564338Y107320
X558938Y118520
X555838Y121070
X553938Y124820
X549938Y125820
X546738Y132920
X562388Y128120
X565688Y130520
X580738Y136420
X583438Y146120
X578688Y149520
X575588Y152170
X572738Y149370
X543938Y152770
X585188Y181770
X588188Y181770
X594688Y184670
X594738Y178920
X574588Y191020
X563338Y191020
X463088Y200570
X460338Y205220
X457888Y208670
X456988Y215520
X396688Y177520
X430538Y264770
X434588Y267570
X425488Y276820
X580938Y94270
X577438Y91270
X573538Y89570
X573538Y85320
X568438Y86020
T03
X413688Y159020
X403688Y159020
X403688Y189020
X413688Y189020
X413688Y208020
X403688Y208020
X403688Y238020
X413688Y238020
X413688Y257020
X403688Y257020
X436688Y257020
X446688Y257020
X446688Y287020
X436688Y287020
X436688Y306020
X446688Y306020
X413688Y306020
X403688Y306020
X403688Y287020
X413688Y287020
X363688Y287020
X353688Y287020
X353688Y306020
X363688Y306020
X330688Y306020
X320688Y306020
X320688Y287020
X330688Y287020
X330688Y257020
X320688Y257020
X320688Y238020
X330688Y238020
X353688Y238020
X363688Y238020
X363688Y257020
X353688Y257020
X353688Y208020
X363688Y208020
X363688Y189020
X353688Y189020
X330688Y189020
X320688Y189020
X320688Y208020
X330688Y208020
X280688Y208020
X270688Y208020
X270688Y189020
X280688Y189020
X247688Y189020
X237688Y189020
X237688Y208020
X247688Y208020
X247688Y238020
X237688Y238020
X237688Y257020
X247688Y257020
X270688Y257020
X280688Y257020
X280688Y238020
X270688Y238020
X270688Y287020
X280688Y287020
X280688Y306020
X270688Y306020
X247688Y306020
X237688Y306020
X237688Y287020
X247688Y287020
X197688Y287020
X187688Y287020
X187688Y306020
X197688Y306020
X197688Y336020
X187688Y336020
X187688Y355020
X197688Y355020
X197688Y385020
X187688Y385020
X237688Y385020
X247688Y385020
X256105Y404602
X263979Y404602
X271853Y404602
X279727Y404602
X287601Y404602
X287601Y412476
X279727Y412476
X271853Y412476
X263979Y412476
X256105Y412476
X270688Y385020
X280688Y385020
X280688Y355020
X270688Y355020
X270688Y336020
X280688Y336020
X247688Y336020
X237688Y336020
X237688Y355020
X247688Y355020
X320688Y355020
X330688Y355020
X330688Y336020
X320688Y336020
X353688Y336020
X363688Y336020
X363688Y355020
X353688Y355020
X353688Y385020
X363688Y385020
X366341Y404602
X358467Y404602
X350593Y404602
X342719Y404602
X334845Y404602
X334845Y412476
X342719Y412476
X350593Y412476
X358467Y412476
X366341Y412476
X330688Y385020
X320688Y385020
X403688Y385020
X413688Y385020
X413688Y355020
X403688Y355020
X403688Y336020
X413688Y336020
X436688Y336020
X446688Y336020
X486688Y336020
X496688Y336020
X496688Y306020
X486688Y306020
X486688Y287020
X496688Y287020
X496688Y257020
X486688Y257020
X363688Y159020
X353688Y159020
X330688Y159020
X320688Y159020
X280688Y159020
X270688Y159020
X247688Y159020
X237688Y159020
X197688Y159020
X187688Y159020
X187688Y189020
X197688Y189020
X197688Y208020
X187688Y208020
X187688Y238020
X197688Y238020
X197688Y257020
X187688Y257020
T04
X309333Y115232
X319333Y115232
X329333Y115232
X339333Y115232
X349333Y115232
X359333Y115232
X369333Y115232
X379333Y115232
X389333Y115232
X399333Y115232
X409333Y115232
X419333Y115232
X429333Y115232
X439333Y115232
X439333Y105232
X429333Y105232
X419333Y105232
X409333Y105232
X399333Y105232
X389333Y105232
X379333Y105232
X369333Y105232
X359333Y105232
X349333Y105232
X339333Y105232
X329333Y105232
X319333Y105232
X309333Y105232
X596938Y111270
X596938Y121270
X596938Y131270
X596938Y141270
X596938Y151270
X596938Y161270
T05
X526438Y171570
T06
X166932Y173441
X166932Y188441
X166932Y203441
X166932Y218441
X166932Y233441
X166932Y248441
X166932Y269425
X166932Y284425
X166932Y299425
X166932Y314425
X166932Y329425
X166932Y344425
X166932Y359425
X166932Y374425
X116932Y374425
X116932Y359425
X116932Y344425
X116932Y329425
X116932Y314425
X116932Y299425
X116932Y284425
X116932Y269425
X116932Y248441
X116932Y233441
X116932Y218441
X116932Y203441
X116932Y188441
X116932Y173441
X116932Y158441
X116932Y143441
X166932Y143441
X166932Y158441
T07
X137995Y87673
X137995Y87673
X137995Y418382
X137995Y418382
M30
