G75*
%MOIN*%
%OFA0B0*%
%FSLAX25Y25*%
%IPPOS*%
%LPD*%
%AMOC8*
5,1,8,0,0,1.08239X$1,22.5*
%
%ADD10C,0.13198*%
%ADD11OC8,0.06506*%
%ADD12R,0.06506X0.06506*%
%ADD13OC8,0.08277*%
%ADD14C,0.08277*%
%ADD15C,0.00454*%
%ADD16C,0.00504*%
%ADD17C,0.00504*%
%ADD18C,0.00457*%
%ADD19C,0.00594*%
%ADD20C,0.00514*%
%ADD21C,0.00468*%
%ADD22C,0.00580*%
%ADD23C,0.00500*%
%ADD24OC8,0.07096*%
%ADD25R,0.05324X0.05324*%
%ADD26OC8,0.05324*%
%ADD27OC8,0.06600*%
%ADD28C,0.06600*%
%ADD29C,0.22254*%
D10*
X0137995Y0087673D03*
X0137995Y0418382D03*
D11*
X0309333Y0115232D03*
X0319333Y0115232D03*
X0329333Y0115232D03*
X0339333Y0115232D03*
X0349333Y0115232D03*
X0359333Y0115232D03*
X0369333Y0115232D03*
X0379333Y0115232D03*
X0389333Y0115232D03*
X0399333Y0115232D03*
X0409333Y0115232D03*
X0419333Y0115232D03*
X0429333Y0115232D03*
X0439333Y0115232D03*
X0439333Y0105232D03*
X0429333Y0105232D03*
X0419333Y0105232D03*
X0409333Y0105232D03*
X0399333Y0105232D03*
X0389333Y0105232D03*
X0379333Y0105232D03*
X0369333Y0105232D03*
X0359333Y0105232D03*
X0349333Y0105232D03*
X0339333Y0105232D03*
X0329333Y0105232D03*
X0319333Y0105232D03*
X0596938Y0111270D03*
X0596938Y0121270D03*
X0596938Y0131270D03*
X0596938Y0141270D03*
X0596938Y0151270D03*
X0596938Y0161270D03*
D12*
X0309333Y0105232D03*
D13*
X0166932Y0248441D03*
X0166932Y0374425D03*
D14*
X0166932Y0359425D03*
X0166932Y0344425D03*
X0166932Y0329425D03*
X0166932Y0314425D03*
X0166932Y0299425D03*
X0166932Y0284425D03*
X0166932Y0269425D03*
X0166932Y0233441D03*
X0166932Y0218441D03*
X0166932Y0203441D03*
X0166932Y0188441D03*
X0166932Y0173441D03*
X0166932Y0158441D03*
X0166932Y0143441D03*
X0116932Y0143441D03*
X0116932Y0158441D03*
X0116932Y0173441D03*
X0116932Y0188441D03*
X0116932Y0203441D03*
X0116932Y0218441D03*
X0116932Y0233441D03*
X0116932Y0248441D03*
X0116932Y0269425D03*
X0116932Y0284425D03*
X0116932Y0299425D03*
X0116932Y0314425D03*
X0116932Y0329425D03*
X0116932Y0344425D03*
X0116932Y0359425D03*
X0116932Y0374425D03*
D15*
X0284885Y0352311D02*
X0289755Y0352311D01*
X0289755Y0348229D01*
X0284885Y0348229D01*
X0284885Y0352311D01*
X0284885Y0348682D02*
X0289755Y0348682D01*
X0289755Y0349135D02*
X0284885Y0349135D01*
X0284885Y0349588D02*
X0289755Y0349588D01*
X0289755Y0350041D02*
X0284885Y0350041D01*
X0284885Y0350494D02*
X0289755Y0350494D01*
X0289755Y0350947D02*
X0284885Y0350947D01*
X0284885Y0351400D02*
X0289755Y0351400D01*
X0289755Y0351853D02*
X0284885Y0351853D01*
X0284885Y0352306D02*
X0289755Y0352306D01*
X0295121Y0352311D02*
X0299991Y0352311D01*
X0299991Y0348229D01*
X0295121Y0348229D01*
X0295121Y0352311D01*
X0295121Y0348682D02*
X0299991Y0348682D01*
X0299991Y0349135D02*
X0295121Y0349135D01*
X0295121Y0349588D02*
X0299991Y0349588D01*
X0299991Y0350041D02*
X0295121Y0350041D01*
X0295121Y0350494D02*
X0299991Y0350494D01*
X0299991Y0350947D02*
X0295121Y0350947D01*
X0295121Y0351400D02*
X0299991Y0351400D01*
X0299991Y0351853D02*
X0295121Y0351853D01*
X0295121Y0352306D02*
X0299991Y0352306D01*
X0301635Y0348229D02*
X0306505Y0348229D01*
X0301635Y0348229D02*
X0301635Y0352311D01*
X0306505Y0352311D01*
X0306505Y0348229D01*
X0306505Y0348682D02*
X0301635Y0348682D01*
X0301635Y0349135D02*
X0306505Y0349135D01*
X0306505Y0349588D02*
X0301635Y0349588D01*
X0301635Y0350041D02*
X0306505Y0350041D01*
X0306505Y0350494D02*
X0301635Y0350494D01*
X0301635Y0350947D02*
X0306505Y0350947D01*
X0306505Y0351400D02*
X0301635Y0351400D01*
X0301635Y0351853D02*
X0306505Y0351853D01*
X0306505Y0352306D02*
X0301635Y0352306D01*
X0311871Y0348229D02*
X0316741Y0348229D01*
X0311871Y0348229D02*
X0311871Y0352311D01*
X0316741Y0352311D01*
X0316741Y0348229D01*
X0316741Y0348682D02*
X0311871Y0348682D01*
X0311871Y0349135D02*
X0316741Y0349135D01*
X0316741Y0349588D02*
X0311871Y0349588D01*
X0311871Y0350041D02*
X0316741Y0350041D01*
X0316741Y0350494D02*
X0311871Y0350494D01*
X0311871Y0350947D02*
X0316741Y0350947D01*
X0316741Y0351400D02*
X0311871Y0351400D01*
X0311871Y0351853D02*
X0316741Y0351853D01*
X0316741Y0352306D02*
X0311871Y0352306D01*
X0513385Y0326029D02*
X0518255Y0326029D01*
X0513385Y0326029D02*
X0513385Y0330111D01*
X0518255Y0330111D01*
X0518255Y0326029D01*
X0518255Y0326482D02*
X0513385Y0326482D01*
X0513385Y0326935D02*
X0518255Y0326935D01*
X0518255Y0327388D02*
X0513385Y0327388D01*
X0513385Y0327841D02*
X0518255Y0327841D01*
X0518255Y0328294D02*
X0513385Y0328294D01*
X0513385Y0328747D02*
X0518255Y0328747D01*
X0518255Y0329200D02*
X0513385Y0329200D01*
X0513385Y0329653D02*
X0518255Y0329653D01*
X0518255Y0330106D02*
X0513385Y0330106D01*
X0523621Y0326029D02*
X0528491Y0326029D01*
X0523621Y0326029D02*
X0523621Y0330111D01*
X0528491Y0330111D01*
X0528491Y0326029D01*
X0528491Y0326482D02*
X0523621Y0326482D01*
X0523621Y0326935D02*
X0528491Y0326935D01*
X0528491Y0327388D02*
X0523621Y0327388D01*
X0523621Y0327841D02*
X0528491Y0327841D01*
X0528491Y0328294D02*
X0523621Y0328294D01*
X0523621Y0328747D02*
X0528491Y0328747D01*
X0528491Y0329200D02*
X0523621Y0329200D01*
X0523621Y0329653D02*
X0528491Y0329653D01*
X0528491Y0330106D02*
X0523621Y0330106D01*
X0523621Y0245579D02*
X0528491Y0245579D01*
X0523621Y0245579D02*
X0523621Y0249661D01*
X0528491Y0249661D01*
X0528491Y0245579D01*
X0528491Y0246032D02*
X0523621Y0246032D01*
X0523621Y0246485D02*
X0528491Y0246485D01*
X0528491Y0246938D02*
X0523621Y0246938D01*
X0523621Y0247391D02*
X0528491Y0247391D01*
X0528491Y0247844D02*
X0523621Y0247844D01*
X0523621Y0248297D02*
X0528491Y0248297D01*
X0528491Y0248750D02*
X0523621Y0248750D01*
X0523621Y0249203D02*
X0528491Y0249203D01*
X0528491Y0249656D02*
X0523621Y0249656D01*
X0518255Y0245579D02*
X0513385Y0245579D01*
X0513385Y0249661D01*
X0518255Y0249661D01*
X0518255Y0245579D01*
X0518255Y0246032D02*
X0513385Y0246032D01*
X0513385Y0246485D02*
X0518255Y0246485D01*
X0518255Y0246938D02*
X0513385Y0246938D01*
X0513385Y0247391D02*
X0518255Y0247391D01*
X0518255Y0247844D02*
X0513385Y0247844D01*
X0513385Y0248297D02*
X0518255Y0248297D01*
X0518255Y0248750D02*
X0513385Y0248750D01*
X0513385Y0249203D02*
X0518255Y0249203D01*
X0518255Y0249656D02*
X0513385Y0249656D01*
X0522103Y0146529D02*
X0526579Y0146529D01*
X0522103Y0146529D02*
X0522103Y0150611D01*
X0526579Y0150611D01*
X0526579Y0146529D01*
X0526579Y0146982D02*
X0522103Y0146982D01*
X0522103Y0147435D02*
X0526579Y0147435D01*
X0526579Y0147888D02*
X0522103Y0147888D01*
X0522103Y0148341D02*
X0526579Y0148341D01*
X0526579Y0148794D02*
X0522103Y0148794D01*
X0522103Y0149247D02*
X0526579Y0149247D01*
X0526579Y0149700D02*
X0522103Y0149700D01*
X0522103Y0150153D02*
X0526579Y0150153D01*
X0526579Y0150606D02*
X0522103Y0150606D01*
X0528796Y0146529D02*
X0533272Y0146529D01*
X0528796Y0146529D02*
X0528796Y0150611D01*
X0533272Y0150611D01*
X0533272Y0146529D01*
X0533272Y0146982D02*
X0528796Y0146982D01*
X0528796Y0147435D02*
X0533272Y0147435D01*
X0533272Y0147888D02*
X0528796Y0147888D01*
X0528796Y0148341D02*
X0533272Y0148341D01*
X0533272Y0148794D02*
X0528796Y0148794D01*
X0528796Y0149247D02*
X0533272Y0149247D01*
X0533272Y0149700D02*
X0528796Y0149700D01*
X0528796Y0150153D02*
X0533272Y0150153D01*
X0533272Y0150606D02*
X0528796Y0150606D01*
X0509522Y0138979D02*
X0505046Y0138979D01*
X0505046Y0143061D01*
X0509522Y0143061D01*
X0509522Y0138979D01*
X0509522Y0139432D02*
X0505046Y0139432D01*
X0505046Y0139885D02*
X0509522Y0139885D01*
X0509522Y0140338D02*
X0505046Y0140338D01*
X0505046Y0140791D02*
X0509522Y0140791D01*
X0509522Y0141244D02*
X0505046Y0141244D01*
X0505046Y0141697D02*
X0509522Y0141697D01*
X0509522Y0142150D02*
X0505046Y0142150D01*
X0505046Y0142603D02*
X0509522Y0142603D01*
X0509522Y0143056D02*
X0505046Y0143056D01*
X0502829Y0138979D02*
X0498353Y0138979D01*
X0498353Y0143061D01*
X0502829Y0143061D01*
X0502829Y0138979D01*
X0502829Y0139432D02*
X0498353Y0139432D01*
X0498353Y0139885D02*
X0502829Y0139885D01*
X0502829Y0140338D02*
X0498353Y0140338D01*
X0498353Y0140791D02*
X0502829Y0140791D01*
X0502829Y0141244D02*
X0498353Y0141244D01*
X0498353Y0141697D02*
X0502829Y0141697D01*
X0502829Y0142150D02*
X0498353Y0142150D01*
X0498353Y0142603D02*
X0502829Y0142603D01*
X0502829Y0143056D02*
X0498353Y0143056D01*
X0518103Y0119811D02*
X0522579Y0119811D01*
X0522579Y0115729D01*
X0518103Y0115729D01*
X0518103Y0119811D01*
X0518103Y0116182D02*
X0522579Y0116182D01*
X0522579Y0116635D02*
X0518103Y0116635D01*
X0518103Y0117088D02*
X0522579Y0117088D01*
X0522579Y0117541D02*
X0518103Y0117541D01*
X0518103Y0117994D02*
X0522579Y0117994D01*
X0522579Y0118447D02*
X0518103Y0118447D01*
X0518103Y0118900D02*
X0522579Y0118900D01*
X0522579Y0119353D02*
X0518103Y0119353D01*
X0518103Y0119806D02*
X0522579Y0119806D01*
X0524796Y0119811D02*
X0529272Y0119811D01*
X0529272Y0115729D01*
X0524796Y0115729D01*
X0524796Y0119811D01*
X0524796Y0116182D02*
X0529272Y0116182D01*
X0529272Y0116635D02*
X0524796Y0116635D01*
X0524796Y0117088D02*
X0529272Y0117088D01*
X0529272Y0117541D02*
X0524796Y0117541D01*
X0524796Y0117994D02*
X0529272Y0117994D01*
X0529272Y0118447D02*
X0524796Y0118447D01*
X0524796Y0118900D02*
X0529272Y0118900D01*
X0529272Y0119353D02*
X0524796Y0119353D01*
X0524796Y0119806D02*
X0529272Y0119806D01*
X0459772Y0105979D02*
X0455296Y0105979D01*
X0455296Y0110061D01*
X0459772Y0110061D01*
X0459772Y0105979D01*
X0459772Y0106432D02*
X0455296Y0106432D01*
X0455296Y0106885D02*
X0459772Y0106885D01*
X0459772Y0107338D02*
X0455296Y0107338D01*
X0455296Y0107791D02*
X0459772Y0107791D01*
X0459772Y0108244D02*
X0455296Y0108244D01*
X0455296Y0108697D02*
X0459772Y0108697D01*
X0459772Y0109150D02*
X0455296Y0109150D01*
X0455296Y0109603D02*
X0459772Y0109603D01*
X0459772Y0110056D02*
X0455296Y0110056D01*
X0453079Y0105979D02*
X0448603Y0105979D01*
X0448603Y0110061D01*
X0453079Y0110061D01*
X0453079Y0105979D01*
X0453079Y0106432D02*
X0448603Y0106432D01*
X0448603Y0106885D02*
X0453079Y0106885D01*
X0453079Y0107338D02*
X0448603Y0107338D01*
X0448603Y0107791D02*
X0453079Y0107791D01*
X0453079Y0108244D02*
X0448603Y0108244D01*
X0448603Y0108697D02*
X0453079Y0108697D01*
X0453079Y0109150D02*
X0448603Y0109150D01*
X0448603Y0109603D02*
X0453079Y0109603D01*
X0453079Y0110056D02*
X0448603Y0110056D01*
D16*
X0462709Y0109018D02*
X0468907Y0109018D01*
X0468907Y0106560D01*
X0462709Y0106560D01*
X0462709Y0109018D01*
X0462709Y0107063D02*
X0468907Y0107063D01*
X0468907Y0107566D02*
X0462709Y0107566D01*
X0462709Y0108069D02*
X0468907Y0108069D01*
X0468907Y0108572D02*
X0462709Y0108572D01*
X0462709Y0114018D02*
X0468907Y0114018D01*
X0468907Y0111560D01*
X0462709Y0111560D01*
X0462709Y0114018D01*
X0462709Y0112063D02*
X0468907Y0112063D01*
X0468907Y0112566D02*
X0462709Y0112566D01*
X0462709Y0113069D02*
X0468907Y0113069D01*
X0468907Y0113572D02*
X0462709Y0113572D01*
X0462709Y0119018D02*
X0468907Y0119018D01*
X0468907Y0116560D01*
X0462709Y0116560D01*
X0462709Y0119018D01*
X0462709Y0117063D02*
X0468907Y0117063D01*
X0468907Y0117566D02*
X0462709Y0117566D01*
X0462709Y0118069D02*
X0468907Y0118069D01*
X0468907Y0118572D02*
X0462709Y0118572D01*
X0462709Y0124018D02*
X0468907Y0124018D01*
X0468907Y0121560D01*
X0462709Y0121560D01*
X0462709Y0124018D01*
X0462709Y0122063D02*
X0468907Y0122063D01*
X0468907Y0122566D02*
X0462709Y0122566D01*
X0462709Y0123069D02*
X0468907Y0123069D01*
X0468907Y0123572D02*
X0462709Y0123572D01*
X0483969Y0124018D02*
X0490167Y0124018D01*
X0490167Y0121560D01*
X0483969Y0121560D01*
X0483969Y0124018D01*
X0483969Y0122063D02*
X0490167Y0122063D01*
X0490167Y0122566D02*
X0483969Y0122566D01*
X0483969Y0123069D02*
X0490167Y0123069D01*
X0490167Y0123572D02*
X0483969Y0123572D01*
X0483969Y0119018D02*
X0490167Y0119018D01*
X0490167Y0116560D01*
X0483969Y0116560D01*
X0483969Y0119018D01*
X0483969Y0117063D02*
X0490167Y0117063D01*
X0490167Y0117566D02*
X0483969Y0117566D01*
X0483969Y0118069D02*
X0490167Y0118069D01*
X0490167Y0118572D02*
X0483969Y0118572D01*
X0483969Y0114018D02*
X0490167Y0114018D01*
X0490167Y0111560D01*
X0483969Y0111560D01*
X0483969Y0114018D01*
X0483969Y0112063D02*
X0490167Y0112063D01*
X0490167Y0112566D02*
X0483969Y0112566D01*
X0483969Y0113069D02*
X0490167Y0113069D01*
X0490167Y0113572D02*
X0483969Y0113572D01*
X0483969Y0109018D02*
X0490167Y0109018D01*
X0490167Y0106560D01*
X0483969Y0106560D01*
X0483969Y0109018D01*
X0483969Y0107063D02*
X0490167Y0107063D01*
X0490167Y0107566D02*
X0483969Y0107566D01*
X0483969Y0108069D02*
X0490167Y0108069D01*
X0490167Y0108572D02*
X0483969Y0108572D01*
D17*
X0421986Y0134968D02*
X0416690Y0134968D01*
X0421986Y0134968D02*
X0421986Y0132672D01*
X0416690Y0132672D01*
X0416690Y0134968D01*
X0416690Y0133175D02*
X0421986Y0133175D01*
X0421986Y0133678D02*
X0416690Y0133678D01*
X0416690Y0134181D02*
X0421986Y0134181D01*
X0421986Y0134684D02*
X0416690Y0134684D01*
X0416690Y0138668D02*
X0421986Y0138668D01*
X0421986Y0136372D01*
X0416690Y0136372D01*
X0416690Y0138668D01*
X0416690Y0136875D02*
X0421986Y0136875D01*
X0421986Y0137378D02*
X0416690Y0137378D01*
X0416690Y0137881D02*
X0421986Y0137881D01*
X0421986Y0138384D02*
X0416690Y0138384D01*
X0416690Y0142368D02*
X0421986Y0142368D01*
X0421986Y0140072D01*
X0416690Y0140072D01*
X0416690Y0142368D01*
X0416690Y0140575D02*
X0421986Y0140575D01*
X0421986Y0141078D02*
X0416690Y0141078D01*
X0416690Y0141581D02*
X0421986Y0141581D01*
X0421986Y0142084D02*
X0416690Y0142084D01*
X0411186Y0142368D02*
X0405890Y0142368D01*
X0411186Y0142368D02*
X0411186Y0140072D01*
X0405890Y0140072D01*
X0405890Y0142368D01*
X0405890Y0140575D02*
X0411186Y0140575D01*
X0411186Y0141078D02*
X0405890Y0141078D01*
X0405890Y0141581D02*
X0411186Y0141581D01*
X0411186Y0142084D02*
X0405890Y0142084D01*
X0405890Y0134968D02*
X0411186Y0134968D01*
X0411186Y0132672D01*
X0405890Y0132672D01*
X0405890Y0134968D01*
X0405890Y0133175D02*
X0411186Y0133175D01*
X0411186Y0133678D02*
X0405890Y0133678D01*
X0405890Y0134181D02*
X0411186Y0134181D01*
X0411186Y0134684D02*
X0405890Y0134684D01*
X0521490Y0201668D02*
X0530586Y0201668D01*
X0530586Y0199372D01*
X0521490Y0199372D01*
X0521490Y0201668D01*
X0521490Y0199875D02*
X0530586Y0199875D01*
X0530586Y0200378D02*
X0521490Y0200378D01*
X0521490Y0200881D02*
X0530586Y0200881D01*
X0530586Y0201384D02*
X0521490Y0201384D01*
X0521490Y0206668D02*
X0530586Y0206668D01*
X0530586Y0204372D01*
X0521490Y0204372D01*
X0521490Y0206668D01*
X0521490Y0204875D02*
X0530586Y0204875D01*
X0530586Y0205378D02*
X0521490Y0205378D01*
X0521490Y0205881D02*
X0530586Y0205881D01*
X0530586Y0206384D02*
X0521490Y0206384D01*
X0521490Y0211668D02*
X0530586Y0211668D01*
X0530586Y0209372D01*
X0521490Y0209372D01*
X0521490Y0211668D01*
X0521490Y0209875D02*
X0530586Y0209875D01*
X0530586Y0210378D02*
X0521490Y0210378D01*
X0521490Y0210881D02*
X0530586Y0210881D01*
X0530586Y0211384D02*
X0521490Y0211384D01*
X0521490Y0216668D02*
X0530586Y0216668D01*
X0530586Y0214372D01*
X0521490Y0214372D01*
X0521490Y0216668D01*
X0521490Y0214875D02*
X0530586Y0214875D01*
X0530586Y0215378D02*
X0521490Y0215378D01*
X0521490Y0215881D02*
X0530586Y0215881D01*
X0530586Y0216384D02*
X0521490Y0216384D01*
X0521490Y0221668D02*
X0530586Y0221668D01*
X0530586Y0219372D01*
X0521490Y0219372D01*
X0521490Y0221668D01*
X0521490Y0219875D02*
X0530586Y0219875D01*
X0530586Y0220378D02*
X0521490Y0220378D01*
X0521490Y0220881D02*
X0530586Y0220881D01*
X0530586Y0221384D02*
X0521490Y0221384D01*
X0521490Y0226668D02*
X0530586Y0226668D01*
X0530586Y0224372D01*
X0521490Y0224372D01*
X0521490Y0226668D01*
X0521490Y0224875D02*
X0530586Y0224875D01*
X0530586Y0225378D02*
X0521490Y0225378D01*
X0521490Y0225881D02*
X0530586Y0225881D01*
X0530586Y0226384D02*
X0521490Y0226384D01*
X0521490Y0231668D02*
X0530586Y0231668D01*
X0530586Y0229372D01*
X0521490Y0229372D01*
X0521490Y0231668D01*
X0521490Y0229875D02*
X0530586Y0229875D01*
X0530586Y0230378D02*
X0521490Y0230378D01*
X0521490Y0230881D02*
X0530586Y0230881D01*
X0530586Y0231384D02*
X0521490Y0231384D01*
X0521490Y0236668D02*
X0530586Y0236668D01*
X0530586Y0234372D01*
X0521490Y0234372D01*
X0521490Y0236668D01*
X0521490Y0234875D02*
X0530586Y0234875D01*
X0530586Y0235378D02*
X0521490Y0235378D01*
X0521490Y0235881D02*
X0530586Y0235881D01*
X0530586Y0236384D02*
X0521490Y0236384D01*
X0521490Y0241668D02*
X0530586Y0241668D01*
X0530586Y0239372D01*
X0521490Y0239372D01*
X0521490Y0241668D01*
X0521490Y0239875D02*
X0530586Y0239875D01*
X0530586Y0240378D02*
X0521490Y0240378D01*
X0521490Y0240881D02*
X0530586Y0240881D01*
X0530586Y0241384D02*
X0521490Y0241384D01*
X0558790Y0241668D02*
X0567886Y0241668D01*
X0567886Y0239372D01*
X0558790Y0239372D01*
X0558790Y0241668D01*
X0558790Y0239875D02*
X0567886Y0239875D01*
X0567886Y0240378D02*
X0558790Y0240378D01*
X0558790Y0240881D02*
X0567886Y0240881D01*
X0567886Y0241384D02*
X0558790Y0241384D01*
X0558790Y0236668D02*
X0567886Y0236668D01*
X0567886Y0234372D01*
X0558790Y0234372D01*
X0558790Y0236668D01*
X0558790Y0234875D02*
X0567886Y0234875D01*
X0567886Y0235378D02*
X0558790Y0235378D01*
X0558790Y0235881D02*
X0567886Y0235881D01*
X0567886Y0236384D02*
X0558790Y0236384D01*
X0558790Y0231668D02*
X0567886Y0231668D01*
X0567886Y0229372D01*
X0558790Y0229372D01*
X0558790Y0231668D01*
X0558790Y0229875D02*
X0567886Y0229875D01*
X0567886Y0230378D02*
X0558790Y0230378D01*
X0558790Y0230881D02*
X0567886Y0230881D01*
X0567886Y0231384D02*
X0558790Y0231384D01*
X0558790Y0226668D02*
X0567886Y0226668D01*
X0567886Y0224372D01*
X0558790Y0224372D01*
X0558790Y0226668D01*
X0558790Y0224875D02*
X0567886Y0224875D01*
X0567886Y0225378D02*
X0558790Y0225378D01*
X0558790Y0225881D02*
X0567886Y0225881D01*
X0567886Y0226384D02*
X0558790Y0226384D01*
X0558790Y0221668D02*
X0567886Y0221668D01*
X0567886Y0219372D01*
X0558790Y0219372D01*
X0558790Y0221668D01*
X0558790Y0219875D02*
X0567886Y0219875D01*
X0567886Y0220378D02*
X0558790Y0220378D01*
X0558790Y0220881D02*
X0567886Y0220881D01*
X0567886Y0221384D02*
X0558790Y0221384D01*
X0558790Y0216668D02*
X0567886Y0216668D01*
X0567886Y0214372D01*
X0558790Y0214372D01*
X0558790Y0216668D01*
X0558790Y0214875D02*
X0567886Y0214875D01*
X0567886Y0215378D02*
X0558790Y0215378D01*
X0558790Y0215881D02*
X0567886Y0215881D01*
X0567886Y0216384D02*
X0558790Y0216384D01*
X0558790Y0211668D02*
X0567886Y0211668D01*
X0567886Y0209372D01*
X0558790Y0209372D01*
X0558790Y0211668D01*
X0558790Y0209875D02*
X0567886Y0209875D01*
X0567886Y0210378D02*
X0558790Y0210378D01*
X0558790Y0210881D02*
X0567886Y0210881D01*
X0567886Y0211384D02*
X0558790Y0211384D01*
X0558790Y0206668D02*
X0567886Y0206668D01*
X0567886Y0204372D01*
X0558790Y0204372D01*
X0558790Y0206668D01*
X0558790Y0204875D02*
X0567886Y0204875D01*
X0567886Y0205378D02*
X0558790Y0205378D01*
X0558790Y0205881D02*
X0567886Y0205881D01*
X0567886Y0206384D02*
X0558790Y0206384D01*
X0558790Y0201668D02*
X0567886Y0201668D01*
X0567886Y0199372D01*
X0558790Y0199372D01*
X0558790Y0201668D01*
X0558790Y0199875D02*
X0567886Y0199875D01*
X0567886Y0200378D02*
X0558790Y0200378D01*
X0558790Y0200881D02*
X0567886Y0200881D01*
X0567886Y0201384D02*
X0558790Y0201384D01*
X0558790Y0281418D02*
X0567886Y0281418D01*
X0567886Y0279122D01*
X0558790Y0279122D01*
X0558790Y0281418D01*
X0558790Y0279625D02*
X0567886Y0279625D01*
X0567886Y0280128D02*
X0558790Y0280128D01*
X0558790Y0280631D02*
X0567886Y0280631D01*
X0567886Y0281134D02*
X0558790Y0281134D01*
X0558790Y0286418D02*
X0567886Y0286418D01*
X0567886Y0284122D01*
X0558790Y0284122D01*
X0558790Y0286418D01*
X0558790Y0284625D02*
X0567886Y0284625D01*
X0567886Y0285128D02*
X0558790Y0285128D01*
X0558790Y0285631D02*
X0567886Y0285631D01*
X0567886Y0286134D02*
X0558790Y0286134D01*
X0558790Y0291418D02*
X0567886Y0291418D01*
X0567886Y0289122D01*
X0558790Y0289122D01*
X0558790Y0291418D01*
X0558790Y0289625D02*
X0567886Y0289625D01*
X0567886Y0290128D02*
X0558790Y0290128D01*
X0558790Y0290631D02*
X0567886Y0290631D01*
X0567886Y0291134D02*
X0558790Y0291134D01*
X0558790Y0296418D02*
X0567886Y0296418D01*
X0567886Y0294122D01*
X0558790Y0294122D01*
X0558790Y0296418D01*
X0558790Y0294625D02*
X0567886Y0294625D01*
X0567886Y0295128D02*
X0558790Y0295128D01*
X0558790Y0295631D02*
X0567886Y0295631D01*
X0567886Y0296134D02*
X0558790Y0296134D01*
X0558790Y0301418D02*
X0567886Y0301418D01*
X0567886Y0299122D01*
X0558790Y0299122D01*
X0558790Y0301418D01*
X0558790Y0299625D02*
X0567886Y0299625D01*
X0567886Y0300128D02*
X0558790Y0300128D01*
X0558790Y0300631D02*
X0567886Y0300631D01*
X0567886Y0301134D02*
X0558790Y0301134D01*
X0558790Y0306418D02*
X0567886Y0306418D01*
X0567886Y0304122D01*
X0558790Y0304122D01*
X0558790Y0306418D01*
X0558790Y0304625D02*
X0567886Y0304625D01*
X0567886Y0305128D02*
X0558790Y0305128D01*
X0558790Y0305631D02*
X0567886Y0305631D01*
X0567886Y0306134D02*
X0558790Y0306134D01*
X0558790Y0311418D02*
X0567886Y0311418D01*
X0567886Y0309122D01*
X0558790Y0309122D01*
X0558790Y0311418D01*
X0558790Y0309625D02*
X0567886Y0309625D01*
X0567886Y0310128D02*
X0558790Y0310128D01*
X0558790Y0310631D02*
X0567886Y0310631D01*
X0567886Y0311134D02*
X0558790Y0311134D01*
X0558790Y0316418D02*
X0567886Y0316418D01*
X0567886Y0314122D01*
X0558790Y0314122D01*
X0558790Y0316418D01*
X0558790Y0314625D02*
X0567886Y0314625D01*
X0567886Y0315128D02*
X0558790Y0315128D01*
X0558790Y0315631D02*
X0567886Y0315631D01*
X0567886Y0316134D02*
X0558790Y0316134D01*
X0558790Y0321418D02*
X0567886Y0321418D01*
X0567886Y0319122D01*
X0558790Y0319122D01*
X0558790Y0321418D01*
X0558790Y0319625D02*
X0567886Y0319625D01*
X0567886Y0320128D02*
X0558790Y0320128D01*
X0558790Y0320631D02*
X0567886Y0320631D01*
X0567886Y0321134D02*
X0558790Y0321134D01*
X0530586Y0321418D02*
X0521490Y0321418D01*
X0530586Y0321418D02*
X0530586Y0319122D01*
X0521490Y0319122D01*
X0521490Y0321418D01*
X0521490Y0319625D02*
X0530586Y0319625D01*
X0530586Y0320128D02*
X0521490Y0320128D01*
X0521490Y0320631D02*
X0530586Y0320631D01*
X0530586Y0321134D02*
X0521490Y0321134D01*
X0521490Y0316418D02*
X0530586Y0316418D01*
X0530586Y0314122D01*
X0521490Y0314122D01*
X0521490Y0316418D01*
X0521490Y0314625D02*
X0530586Y0314625D01*
X0530586Y0315128D02*
X0521490Y0315128D01*
X0521490Y0315631D02*
X0530586Y0315631D01*
X0530586Y0316134D02*
X0521490Y0316134D01*
X0521490Y0311418D02*
X0530586Y0311418D01*
X0530586Y0309122D01*
X0521490Y0309122D01*
X0521490Y0311418D01*
X0521490Y0309625D02*
X0530586Y0309625D01*
X0530586Y0310128D02*
X0521490Y0310128D01*
X0521490Y0310631D02*
X0530586Y0310631D01*
X0530586Y0311134D02*
X0521490Y0311134D01*
X0521490Y0306418D02*
X0530586Y0306418D01*
X0530586Y0304122D01*
X0521490Y0304122D01*
X0521490Y0306418D01*
X0521490Y0304625D02*
X0530586Y0304625D01*
X0530586Y0305128D02*
X0521490Y0305128D01*
X0521490Y0305631D02*
X0530586Y0305631D01*
X0530586Y0306134D02*
X0521490Y0306134D01*
X0521490Y0301418D02*
X0530586Y0301418D01*
X0530586Y0299122D01*
X0521490Y0299122D01*
X0521490Y0301418D01*
X0521490Y0299625D02*
X0530586Y0299625D01*
X0530586Y0300128D02*
X0521490Y0300128D01*
X0521490Y0300631D02*
X0530586Y0300631D01*
X0530586Y0301134D02*
X0521490Y0301134D01*
X0521490Y0296418D02*
X0530586Y0296418D01*
X0530586Y0294122D01*
X0521490Y0294122D01*
X0521490Y0296418D01*
X0521490Y0294625D02*
X0530586Y0294625D01*
X0530586Y0295128D02*
X0521490Y0295128D01*
X0521490Y0295631D02*
X0530586Y0295631D01*
X0530586Y0296134D02*
X0521490Y0296134D01*
X0521490Y0291418D02*
X0530586Y0291418D01*
X0530586Y0289122D01*
X0521490Y0289122D01*
X0521490Y0291418D01*
X0521490Y0289625D02*
X0530586Y0289625D01*
X0530586Y0290128D02*
X0521490Y0290128D01*
X0521490Y0290631D02*
X0530586Y0290631D01*
X0530586Y0291134D02*
X0521490Y0291134D01*
X0521490Y0286418D02*
X0530586Y0286418D01*
X0530586Y0284122D01*
X0521490Y0284122D01*
X0521490Y0286418D01*
X0521490Y0284625D02*
X0530586Y0284625D01*
X0530586Y0285128D02*
X0521490Y0285128D01*
X0521490Y0285631D02*
X0530586Y0285631D01*
X0530586Y0286134D02*
X0521490Y0286134D01*
X0521490Y0281418D02*
X0530586Y0281418D01*
X0530586Y0279122D01*
X0521490Y0279122D01*
X0521490Y0281418D01*
X0521490Y0279625D02*
X0530586Y0279625D01*
X0530586Y0280128D02*
X0521490Y0280128D01*
X0521490Y0280631D02*
X0530586Y0280631D01*
X0530586Y0281134D02*
X0521490Y0281134D01*
X0521140Y0353168D02*
X0527236Y0353168D01*
X0527236Y0350872D01*
X0521140Y0350872D01*
X0521140Y0353168D01*
X0521140Y0351375D02*
X0527236Y0351375D01*
X0527236Y0351878D02*
X0521140Y0351878D01*
X0521140Y0352381D02*
X0527236Y0352381D01*
X0527236Y0352884D02*
X0521140Y0352884D01*
X0518736Y0357168D02*
X0512640Y0357168D01*
X0518736Y0357168D02*
X0518736Y0354872D01*
X0512640Y0354872D01*
X0512640Y0357168D01*
X0512640Y0355375D02*
X0518736Y0355375D01*
X0518736Y0355878D02*
X0512640Y0355878D01*
X0512640Y0356381D02*
X0518736Y0356381D01*
X0518736Y0356884D02*
X0512640Y0356884D01*
X0521140Y0361168D02*
X0527236Y0361168D01*
X0527236Y0358872D01*
X0521140Y0358872D01*
X0521140Y0361168D01*
X0521140Y0359375D02*
X0527236Y0359375D01*
X0527236Y0359878D02*
X0521140Y0359878D01*
X0521140Y0360381D02*
X0527236Y0360381D01*
X0527236Y0360884D02*
X0521140Y0360884D01*
D18*
X0535963Y0362391D02*
X0535963Y0357129D01*
X0529913Y0357129D01*
X0529913Y0362391D01*
X0535963Y0362391D01*
X0535963Y0357585D02*
X0529913Y0357585D01*
X0529913Y0358041D02*
X0535963Y0358041D01*
X0535963Y0358497D02*
X0529913Y0358497D01*
X0529913Y0358953D02*
X0535963Y0358953D01*
X0535963Y0359409D02*
X0529913Y0359409D01*
X0529913Y0359865D02*
X0535963Y0359865D01*
X0535963Y0360321D02*
X0529913Y0360321D01*
X0529913Y0360777D02*
X0535963Y0360777D01*
X0535963Y0361233D02*
X0529913Y0361233D01*
X0529913Y0361689D02*
X0535963Y0361689D01*
X0535963Y0362145D02*
X0529913Y0362145D01*
X0535963Y0354911D02*
X0535963Y0349649D01*
X0529913Y0349649D01*
X0529913Y0354911D01*
X0535963Y0354911D01*
X0535963Y0350105D02*
X0529913Y0350105D01*
X0529913Y0350561D02*
X0535963Y0350561D01*
X0535963Y0351017D02*
X0529913Y0351017D01*
X0529913Y0351473D02*
X0535963Y0351473D01*
X0535963Y0351929D02*
X0529913Y0351929D01*
X0529913Y0352385D02*
X0535963Y0352385D01*
X0535963Y0352841D02*
X0529913Y0352841D01*
X0529913Y0353297D02*
X0535963Y0353297D01*
X0535963Y0353753D02*
X0529913Y0353753D01*
X0529913Y0354209D02*
X0535963Y0354209D01*
X0535963Y0354665D02*
X0529913Y0354665D01*
X0527297Y0144395D02*
X0532559Y0144395D01*
X0532559Y0138345D01*
X0527297Y0138345D01*
X0527297Y0144395D01*
X0527297Y0138801D02*
X0532559Y0138801D01*
X0532559Y0139257D02*
X0527297Y0139257D01*
X0527297Y0139713D02*
X0532559Y0139713D01*
X0532559Y0140169D02*
X0527297Y0140169D01*
X0527297Y0140625D02*
X0532559Y0140625D01*
X0532559Y0141081D02*
X0527297Y0141081D01*
X0527297Y0141537D02*
X0532559Y0141537D01*
X0532559Y0141993D02*
X0527297Y0141993D01*
X0527297Y0142449D02*
X0532559Y0142449D01*
X0532559Y0142905D02*
X0527297Y0142905D01*
X0527297Y0143361D02*
X0532559Y0143361D01*
X0532559Y0143817D02*
X0527297Y0143817D01*
X0527297Y0144273D02*
X0532559Y0144273D01*
X0525079Y0144395D02*
X0519817Y0144395D01*
X0525079Y0144395D02*
X0525079Y0138345D01*
X0519817Y0138345D01*
X0519817Y0144395D01*
X0519817Y0138801D02*
X0525079Y0138801D01*
X0525079Y0139257D02*
X0519817Y0139257D01*
X0519817Y0139713D02*
X0525079Y0139713D01*
X0525079Y0140169D02*
X0519817Y0140169D01*
X0519817Y0140625D02*
X0525079Y0140625D01*
X0525079Y0141081D02*
X0519817Y0141081D01*
X0519817Y0141537D02*
X0525079Y0141537D01*
X0525079Y0141993D02*
X0519817Y0141993D01*
X0519817Y0142449D02*
X0525079Y0142449D01*
X0525079Y0142905D02*
X0519817Y0142905D01*
X0519817Y0143361D02*
X0525079Y0143361D01*
X0525079Y0143817D02*
X0519817Y0143817D01*
X0519817Y0144273D02*
X0525079Y0144273D01*
X0524079Y0121995D02*
X0518817Y0121995D01*
X0518817Y0128045D01*
X0524079Y0128045D01*
X0524079Y0121995D01*
X0524079Y0122451D02*
X0518817Y0122451D01*
X0518817Y0122907D02*
X0524079Y0122907D01*
X0524079Y0123363D02*
X0518817Y0123363D01*
X0518817Y0123819D02*
X0524079Y0123819D01*
X0524079Y0124275D02*
X0518817Y0124275D01*
X0518817Y0124731D02*
X0524079Y0124731D01*
X0524079Y0125187D02*
X0518817Y0125187D01*
X0518817Y0125643D02*
X0524079Y0125643D01*
X0524079Y0126099D02*
X0518817Y0126099D01*
X0518817Y0126555D02*
X0524079Y0126555D01*
X0524079Y0127011D02*
X0518817Y0127011D01*
X0518817Y0127467D02*
X0524079Y0127467D01*
X0524079Y0127923D02*
X0518817Y0127923D01*
X0526297Y0121995D02*
X0531559Y0121995D01*
X0526297Y0121995D02*
X0526297Y0128045D01*
X0531559Y0128045D01*
X0531559Y0121995D01*
X0531559Y0122451D02*
X0526297Y0122451D01*
X0526297Y0122907D02*
X0531559Y0122907D01*
X0531559Y0123363D02*
X0526297Y0123363D01*
X0526297Y0123819D02*
X0531559Y0123819D01*
X0531559Y0124275D02*
X0526297Y0124275D01*
X0526297Y0124731D02*
X0531559Y0124731D01*
X0531559Y0125187D02*
X0526297Y0125187D01*
X0526297Y0125643D02*
X0531559Y0125643D01*
X0531559Y0126099D02*
X0526297Y0126099D01*
X0526297Y0126555D02*
X0531559Y0126555D01*
X0531559Y0127011D02*
X0526297Y0127011D01*
X0526297Y0127467D02*
X0531559Y0127467D01*
X0531559Y0127923D02*
X0526297Y0127923D01*
X0472309Y0133745D02*
X0467047Y0133745D01*
X0467047Y0139795D01*
X0472309Y0139795D01*
X0472309Y0133745D01*
X0472309Y0134201D02*
X0467047Y0134201D01*
X0467047Y0134657D02*
X0472309Y0134657D01*
X0472309Y0135113D02*
X0467047Y0135113D01*
X0467047Y0135569D02*
X0472309Y0135569D01*
X0472309Y0136025D02*
X0467047Y0136025D01*
X0467047Y0136481D02*
X0472309Y0136481D01*
X0472309Y0136937D02*
X0467047Y0136937D01*
X0467047Y0137393D02*
X0472309Y0137393D01*
X0472309Y0137849D02*
X0467047Y0137849D01*
X0467047Y0138305D02*
X0472309Y0138305D01*
X0472309Y0138761D02*
X0467047Y0138761D01*
X0467047Y0139217D02*
X0472309Y0139217D01*
X0472309Y0139673D02*
X0467047Y0139673D01*
X0464829Y0133745D02*
X0459567Y0133745D01*
X0459567Y0139795D01*
X0464829Y0139795D01*
X0464829Y0133745D01*
X0464829Y0134201D02*
X0459567Y0134201D01*
X0459567Y0134657D02*
X0464829Y0134657D01*
X0464829Y0135113D02*
X0459567Y0135113D01*
X0459567Y0135569D02*
X0464829Y0135569D01*
X0464829Y0136025D02*
X0459567Y0136025D01*
X0459567Y0136481D02*
X0464829Y0136481D01*
X0464829Y0136937D02*
X0459567Y0136937D01*
X0459567Y0137393D02*
X0464829Y0137393D01*
X0464829Y0137849D02*
X0459567Y0137849D01*
X0459567Y0138305D02*
X0464829Y0138305D01*
X0464829Y0138761D02*
X0459567Y0138761D01*
X0459567Y0139217D02*
X0464829Y0139217D01*
X0464829Y0139673D02*
X0459567Y0139673D01*
X0424663Y0140391D02*
X0424663Y0135129D01*
X0424663Y0140391D02*
X0430713Y0140391D01*
X0430713Y0135129D01*
X0424663Y0135129D01*
X0424663Y0135585D02*
X0430713Y0135585D01*
X0430713Y0136041D02*
X0424663Y0136041D01*
X0424663Y0136497D02*
X0430713Y0136497D01*
X0430713Y0136953D02*
X0424663Y0136953D01*
X0424663Y0137409D02*
X0430713Y0137409D01*
X0430713Y0137865D02*
X0424663Y0137865D01*
X0424663Y0138321D02*
X0430713Y0138321D01*
X0430713Y0138777D02*
X0424663Y0138777D01*
X0424663Y0139233D02*
X0430713Y0139233D01*
X0430713Y0139689D02*
X0424663Y0139689D01*
X0424663Y0140145D02*
X0430713Y0140145D01*
X0424663Y0132911D02*
X0424663Y0127649D01*
X0424663Y0132911D02*
X0430713Y0132911D01*
X0430713Y0127649D01*
X0424663Y0127649D01*
X0424663Y0128105D02*
X0430713Y0128105D01*
X0430713Y0128561D02*
X0424663Y0128561D01*
X0424663Y0129017D02*
X0430713Y0129017D01*
X0430713Y0129473D02*
X0424663Y0129473D01*
X0424663Y0129929D02*
X0430713Y0129929D01*
X0430713Y0130385D02*
X0424663Y0130385D01*
X0424663Y0130841D02*
X0430713Y0130841D01*
X0430713Y0131297D02*
X0424663Y0131297D01*
X0424663Y0131753D02*
X0430713Y0131753D01*
X0430713Y0132209D02*
X0424663Y0132209D01*
X0424663Y0132665D02*
X0430713Y0132665D01*
X0402809Y0135545D02*
X0397547Y0135545D01*
X0402809Y0135545D02*
X0402809Y0129495D01*
X0397547Y0129495D01*
X0397547Y0135545D01*
X0397547Y0129951D02*
X0402809Y0129951D01*
X0402809Y0130407D02*
X0397547Y0130407D01*
X0397547Y0130863D02*
X0402809Y0130863D01*
X0402809Y0131319D02*
X0397547Y0131319D01*
X0397547Y0131775D02*
X0402809Y0131775D01*
X0402809Y0132231D02*
X0397547Y0132231D01*
X0397547Y0132687D02*
X0402809Y0132687D01*
X0402809Y0133143D02*
X0397547Y0133143D01*
X0397547Y0133599D02*
X0402809Y0133599D01*
X0402809Y0134055D02*
X0397547Y0134055D01*
X0397547Y0134511D02*
X0402809Y0134511D01*
X0402809Y0134967D02*
X0397547Y0134967D01*
X0397547Y0135423D02*
X0402809Y0135423D01*
X0402809Y0137245D02*
X0397547Y0137245D01*
X0397547Y0143295D01*
X0402809Y0143295D01*
X0402809Y0137245D01*
X0402809Y0137701D02*
X0397547Y0137701D01*
X0397547Y0138157D02*
X0402809Y0138157D01*
X0402809Y0138613D02*
X0397547Y0138613D01*
X0397547Y0139069D02*
X0402809Y0139069D01*
X0402809Y0139525D02*
X0397547Y0139525D01*
X0397547Y0139981D02*
X0402809Y0139981D01*
X0402809Y0140437D02*
X0397547Y0140437D01*
X0397547Y0140893D02*
X0402809Y0140893D01*
X0402809Y0141349D02*
X0397547Y0141349D01*
X0397547Y0141805D02*
X0402809Y0141805D01*
X0402809Y0142261D02*
X0397547Y0142261D01*
X0397547Y0142717D02*
X0402809Y0142717D01*
X0402809Y0143173D02*
X0397547Y0143173D01*
X0395329Y0137245D02*
X0390067Y0137245D01*
X0390067Y0143295D01*
X0395329Y0143295D01*
X0395329Y0137245D01*
X0395329Y0137701D02*
X0390067Y0137701D01*
X0390067Y0138157D02*
X0395329Y0138157D01*
X0395329Y0138613D02*
X0390067Y0138613D01*
X0390067Y0139069D02*
X0395329Y0139069D01*
X0395329Y0139525D02*
X0390067Y0139525D01*
X0390067Y0139981D02*
X0395329Y0139981D01*
X0395329Y0140437D02*
X0390067Y0140437D01*
X0390067Y0140893D02*
X0395329Y0140893D01*
X0395329Y0141349D02*
X0390067Y0141349D01*
X0390067Y0141805D02*
X0395329Y0141805D01*
X0395329Y0142261D02*
X0390067Y0142261D01*
X0390067Y0142717D02*
X0395329Y0142717D01*
X0395329Y0143173D02*
X0390067Y0143173D01*
X0390067Y0135545D02*
X0395329Y0135545D01*
X0395329Y0129495D01*
X0390067Y0129495D01*
X0390067Y0135545D01*
X0390067Y0129951D02*
X0395329Y0129951D01*
X0395329Y0130407D02*
X0390067Y0130407D01*
X0390067Y0130863D02*
X0395329Y0130863D01*
X0395329Y0131319D02*
X0390067Y0131319D01*
X0390067Y0131775D02*
X0395329Y0131775D01*
X0395329Y0132231D02*
X0390067Y0132231D01*
X0390067Y0132687D02*
X0395329Y0132687D01*
X0395329Y0133143D02*
X0390067Y0133143D01*
X0390067Y0133599D02*
X0395329Y0133599D01*
X0395329Y0134055D02*
X0390067Y0134055D01*
X0390067Y0134511D02*
X0395329Y0134511D01*
X0395329Y0134967D02*
X0390067Y0134967D01*
X0390067Y0135423D02*
X0395329Y0135423D01*
X0362549Y0133545D02*
X0357287Y0133545D01*
X0362549Y0133545D02*
X0362549Y0127495D01*
X0357287Y0127495D01*
X0357287Y0133545D01*
X0357287Y0127951D02*
X0362549Y0127951D01*
X0362549Y0128407D02*
X0357287Y0128407D01*
X0357287Y0128863D02*
X0362549Y0128863D01*
X0362549Y0129319D02*
X0357287Y0129319D01*
X0357287Y0129775D02*
X0362549Y0129775D01*
X0362549Y0130231D02*
X0357287Y0130231D01*
X0357287Y0130687D02*
X0362549Y0130687D01*
X0362549Y0131143D02*
X0357287Y0131143D01*
X0357287Y0131599D02*
X0362549Y0131599D01*
X0362549Y0132055D02*
X0357287Y0132055D01*
X0357287Y0132511D02*
X0362549Y0132511D01*
X0362549Y0132967D02*
X0357287Y0132967D01*
X0357287Y0133423D02*
X0362549Y0133423D01*
X0355069Y0133545D02*
X0349807Y0133545D01*
X0355069Y0133545D02*
X0355069Y0127495D01*
X0349807Y0127495D01*
X0349807Y0133545D01*
X0349807Y0127951D02*
X0355069Y0127951D01*
X0355069Y0128407D02*
X0349807Y0128407D01*
X0349807Y0128863D02*
X0355069Y0128863D01*
X0355069Y0129319D02*
X0349807Y0129319D01*
X0349807Y0129775D02*
X0355069Y0129775D01*
X0355069Y0130231D02*
X0349807Y0130231D01*
X0349807Y0130687D02*
X0355069Y0130687D01*
X0355069Y0131143D02*
X0349807Y0131143D01*
X0349807Y0131599D02*
X0355069Y0131599D01*
X0355069Y0132055D02*
X0349807Y0132055D01*
X0349807Y0132511D02*
X0355069Y0132511D01*
X0355069Y0132967D02*
X0349807Y0132967D01*
X0349807Y0133423D02*
X0355069Y0133423D01*
X0347588Y0133545D02*
X0342326Y0133545D01*
X0347588Y0133545D02*
X0347588Y0127495D01*
X0342326Y0127495D01*
X0342326Y0133545D01*
X0342326Y0127951D02*
X0347588Y0127951D01*
X0347588Y0128407D02*
X0342326Y0128407D01*
X0342326Y0128863D02*
X0347588Y0128863D01*
X0347588Y0129319D02*
X0342326Y0129319D01*
X0342326Y0129775D02*
X0347588Y0129775D01*
X0347588Y0130231D02*
X0342326Y0130231D01*
X0342326Y0130687D02*
X0347588Y0130687D01*
X0347588Y0131143D02*
X0342326Y0131143D01*
X0342326Y0131599D02*
X0347588Y0131599D01*
X0347588Y0132055D02*
X0342326Y0132055D01*
X0342326Y0132511D02*
X0347588Y0132511D01*
X0347588Y0132967D02*
X0342326Y0132967D01*
X0342326Y0133423D02*
X0347588Y0133423D01*
D19*
X0534960Y0133048D02*
X0534960Y0131992D01*
X0534960Y0133048D02*
X0540716Y0133048D01*
X0540716Y0131992D01*
X0534960Y0131992D01*
X0534960Y0132585D02*
X0540716Y0132585D01*
X0534960Y0133892D02*
X0534960Y0134948D01*
X0540716Y0134948D01*
X0540716Y0133892D01*
X0534960Y0133892D01*
X0534960Y0134485D02*
X0540716Y0134485D01*
X0534960Y0135892D02*
X0534960Y0136948D01*
X0540716Y0136948D01*
X0540716Y0135892D01*
X0534960Y0135892D01*
X0534960Y0136485D02*
X0540716Y0136485D01*
X0534960Y0137892D02*
X0534960Y0138948D01*
X0540716Y0138948D01*
X0540716Y0137892D01*
X0534960Y0137892D01*
X0534960Y0138485D02*
X0540716Y0138485D01*
X0534960Y0139792D02*
X0534960Y0140848D01*
X0540716Y0140848D01*
X0540716Y0139792D01*
X0534960Y0139792D01*
X0534960Y0140385D02*
X0540716Y0140385D01*
X0543110Y0148998D02*
X0544166Y0148998D01*
X0544166Y0143242D01*
X0543110Y0143242D01*
X0543110Y0148998D01*
X0543110Y0143835D02*
X0544166Y0143835D01*
X0544166Y0144428D02*
X0543110Y0144428D01*
X0543110Y0145021D02*
X0544166Y0145021D01*
X0544166Y0145614D02*
X0543110Y0145614D01*
X0543110Y0146207D02*
X0544166Y0146207D01*
X0544166Y0146800D02*
X0543110Y0146800D01*
X0543110Y0147393D02*
X0544166Y0147393D01*
X0544166Y0147986D02*
X0543110Y0147986D01*
X0543110Y0148579D02*
X0544166Y0148579D01*
X0545010Y0148998D02*
X0546066Y0148998D01*
X0546066Y0143242D01*
X0545010Y0143242D01*
X0545010Y0148998D01*
X0545010Y0143835D02*
X0546066Y0143835D01*
X0546066Y0144428D02*
X0545010Y0144428D01*
X0545010Y0145021D02*
X0546066Y0145021D01*
X0546066Y0145614D02*
X0545010Y0145614D01*
X0545010Y0146207D02*
X0546066Y0146207D01*
X0546066Y0146800D02*
X0545010Y0146800D01*
X0545010Y0147393D02*
X0546066Y0147393D01*
X0546066Y0147986D02*
X0545010Y0147986D01*
X0545010Y0148579D02*
X0546066Y0148579D01*
X0547010Y0148998D02*
X0548066Y0148998D01*
X0548066Y0143242D01*
X0547010Y0143242D01*
X0547010Y0148998D01*
X0547010Y0143835D02*
X0548066Y0143835D01*
X0548066Y0144428D02*
X0547010Y0144428D01*
X0547010Y0145021D02*
X0548066Y0145021D01*
X0548066Y0145614D02*
X0547010Y0145614D01*
X0547010Y0146207D02*
X0548066Y0146207D01*
X0548066Y0146800D02*
X0547010Y0146800D01*
X0547010Y0147393D02*
X0548066Y0147393D01*
X0548066Y0147986D02*
X0547010Y0147986D01*
X0547010Y0148579D02*
X0548066Y0148579D01*
X0549010Y0148998D02*
X0550066Y0148998D01*
X0550066Y0143242D01*
X0549010Y0143242D01*
X0549010Y0148998D01*
X0549010Y0143835D02*
X0550066Y0143835D01*
X0550066Y0144428D02*
X0549010Y0144428D01*
X0549010Y0145021D02*
X0550066Y0145021D01*
X0550066Y0145614D02*
X0549010Y0145614D01*
X0549010Y0146207D02*
X0550066Y0146207D01*
X0550066Y0146800D02*
X0549010Y0146800D01*
X0549010Y0147393D02*
X0550066Y0147393D01*
X0550066Y0147986D02*
X0549010Y0147986D01*
X0549010Y0148579D02*
X0550066Y0148579D01*
X0550910Y0148998D02*
X0551966Y0148998D01*
X0551966Y0143242D01*
X0550910Y0143242D01*
X0550910Y0148998D01*
X0550910Y0143835D02*
X0551966Y0143835D01*
X0551966Y0144428D02*
X0550910Y0144428D01*
X0550910Y0145021D02*
X0551966Y0145021D01*
X0551966Y0145614D02*
X0550910Y0145614D01*
X0550910Y0146207D02*
X0551966Y0146207D01*
X0551966Y0146800D02*
X0550910Y0146800D01*
X0550910Y0147393D02*
X0551966Y0147393D01*
X0551966Y0147986D02*
X0550910Y0147986D01*
X0550910Y0148579D02*
X0551966Y0148579D01*
X0552910Y0148998D02*
X0553966Y0148998D01*
X0553966Y0143242D01*
X0552910Y0143242D01*
X0552910Y0148998D01*
X0552910Y0143835D02*
X0553966Y0143835D01*
X0553966Y0144428D02*
X0552910Y0144428D01*
X0552910Y0145021D02*
X0553966Y0145021D01*
X0553966Y0145614D02*
X0552910Y0145614D01*
X0552910Y0146207D02*
X0553966Y0146207D01*
X0553966Y0146800D02*
X0552910Y0146800D01*
X0552910Y0147393D02*
X0553966Y0147393D01*
X0553966Y0147986D02*
X0552910Y0147986D01*
X0552910Y0148579D02*
X0553966Y0148579D01*
X0554910Y0148998D02*
X0555966Y0148998D01*
X0555966Y0143242D01*
X0554910Y0143242D01*
X0554910Y0148998D01*
X0554910Y0143835D02*
X0555966Y0143835D01*
X0555966Y0144428D02*
X0554910Y0144428D01*
X0554910Y0145021D02*
X0555966Y0145021D01*
X0555966Y0145614D02*
X0554910Y0145614D01*
X0554910Y0146207D02*
X0555966Y0146207D01*
X0555966Y0146800D02*
X0554910Y0146800D01*
X0554910Y0147393D02*
X0555966Y0147393D01*
X0555966Y0147986D02*
X0554910Y0147986D01*
X0554910Y0148579D02*
X0555966Y0148579D01*
X0556910Y0148998D02*
X0557966Y0148998D01*
X0557966Y0143242D01*
X0556910Y0143242D01*
X0556910Y0148998D01*
X0556910Y0143835D02*
X0557966Y0143835D01*
X0557966Y0144428D02*
X0556910Y0144428D01*
X0556910Y0145021D02*
X0557966Y0145021D01*
X0557966Y0145614D02*
X0556910Y0145614D01*
X0556910Y0146207D02*
X0557966Y0146207D01*
X0557966Y0146800D02*
X0556910Y0146800D01*
X0556910Y0147393D02*
X0557966Y0147393D01*
X0557966Y0147986D02*
X0556910Y0147986D01*
X0556910Y0148579D02*
X0557966Y0148579D01*
X0558810Y0148998D02*
X0559866Y0148998D01*
X0559866Y0143242D01*
X0558810Y0143242D01*
X0558810Y0148998D01*
X0558810Y0143835D02*
X0559866Y0143835D01*
X0559866Y0144428D02*
X0558810Y0144428D01*
X0558810Y0145021D02*
X0559866Y0145021D01*
X0559866Y0145614D02*
X0558810Y0145614D01*
X0558810Y0146207D02*
X0559866Y0146207D01*
X0559866Y0146800D02*
X0558810Y0146800D01*
X0558810Y0147393D02*
X0559866Y0147393D01*
X0559866Y0147986D02*
X0558810Y0147986D01*
X0558810Y0148579D02*
X0559866Y0148579D01*
X0560810Y0148998D02*
X0561866Y0148998D01*
X0561866Y0143242D01*
X0560810Y0143242D01*
X0560810Y0148998D01*
X0560810Y0143835D02*
X0561866Y0143835D01*
X0561866Y0144428D02*
X0560810Y0144428D01*
X0560810Y0145021D02*
X0561866Y0145021D01*
X0561866Y0145614D02*
X0560810Y0145614D01*
X0560810Y0146207D02*
X0561866Y0146207D01*
X0561866Y0146800D02*
X0560810Y0146800D01*
X0560810Y0147393D02*
X0561866Y0147393D01*
X0561866Y0147986D02*
X0560810Y0147986D01*
X0560810Y0148579D02*
X0561866Y0148579D01*
X0562810Y0148998D02*
X0563866Y0148998D01*
X0563866Y0143242D01*
X0562810Y0143242D01*
X0562810Y0148998D01*
X0562810Y0143835D02*
X0563866Y0143835D01*
X0563866Y0144428D02*
X0562810Y0144428D01*
X0562810Y0145021D02*
X0563866Y0145021D01*
X0563866Y0145614D02*
X0562810Y0145614D01*
X0562810Y0146207D02*
X0563866Y0146207D01*
X0563866Y0146800D02*
X0562810Y0146800D01*
X0562810Y0147393D02*
X0563866Y0147393D01*
X0563866Y0147986D02*
X0562810Y0147986D01*
X0562810Y0148579D02*
X0563866Y0148579D01*
X0564710Y0148998D02*
X0565766Y0148998D01*
X0565766Y0143242D01*
X0564710Y0143242D01*
X0564710Y0148998D01*
X0564710Y0143835D02*
X0565766Y0143835D01*
X0565766Y0144428D02*
X0564710Y0144428D01*
X0564710Y0145021D02*
X0565766Y0145021D01*
X0565766Y0145614D02*
X0564710Y0145614D01*
X0564710Y0146207D02*
X0565766Y0146207D01*
X0565766Y0146800D02*
X0564710Y0146800D01*
X0564710Y0147393D02*
X0565766Y0147393D01*
X0565766Y0147986D02*
X0564710Y0147986D01*
X0564710Y0148579D02*
X0565766Y0148579D01*
X0568160Y0140848D02*
X0568160Y0139792D01*
X0568160Y0140848D02*
X0573916Y0140848D01*
X0573916Y0139792D01*
X0568160Y0139792D01*
X0568160Y0140385D02*
X0573916Y0140385D01*
X0568160Y0138948D02*
X0568160Y0137892D01*
X0568160Y0138948D02*
X0573916Y0138948D01*
X0573916Y0137892D01*
X0568160Y0137892D01*
X0568160Y0138485D02*
X0573916Y0138485D01*
X0568160Y0136948D02*
X0568160Y0135892D01*
X0568160Y0136948D02*
X0573916Y0136948D01*
X0573916Y0135892D01*
X0568160Y0135892D01*
X0568160Y0136485D02*
X0573916Y0136485D01*
X0568160Y0134948D02*
X0568160Y0133892D01*
X0568160Y0134948D02*
X0573916Y0134948D01*
X0573916Y0133892D01*
X0568160Y0133892D01*
X0568160Y0134485D02*
X0573916Y0134485D01*
X0568160Y0133048D02*
X0568160Y0131992D01*
X0568160Y0133048D02*
X0573916Y0133048D01*
X0573916Y0131992D01*
X0568160Y0131992D01*
X0568160Y0132585D02*
X0573916Y0132585D01*
X0568160Y0131048D02*
X0568160Y0129992D01*
X0568160Y0131048D02*
X0573916Y0131048D01*
X0573916Y0129992D01*
X0568160Y0129992D01*
X0568160Y0130585D02*
X0573916Y0130585D01*
X0568160Y0129048D02*
X0568160Y0127992D01*
X0568160Y0129048D02*
X0573916Y0129048D01*
X0573916Y0127992D01*
X0568160Y0127992D01*
X0568160Y0128585D02*
X0573916Y0128585D01*
X0568160Y0127048D02*
X0568160Y0125992D01*
X0568160Y0127048D02*
X0573916Y0127048D01*
X0573916Y0125992D01*
X0568160Y0125992D01*
X0568160Y0126585D02*
X0573916Y0126585D01*
X0568160Y0125148D02*
X0568160Y0124092D01*
X0568160Y0125148D02*
X0573916Y0125148D01*
X0573916Y0124092D01*
X0568160Y0124092D01*
X0568160Y0124685D02*
X0573916Y0124685D01*
X0568160Y0123148D02*
X0568160Y0122092D01*
X0568160Y0123148D02*
X0573916Y0123148D01*
X0573916Y0122092D01*
X0568160Y0122092D01*
X0568160Y0122685D02*
X0573916Y0122685D01*
X0568160Y0121148D02*
X0568160Y0120092D01*
X0568160Y0121148D02*
X0573916Y0121148D01*
X0573916Y0120092D01*
X0568160Y0120092D01*
X0568160Y0120685D02*
X0573916Y0120685D01*
X0568160Y0119248D02*
X0568160Y0118192D01*
X0568160Y0119248D02*
X0573916Y0119248D01*
X0573916Y0118192D01*
X0568160Y0118192D01*
X0568160Y0118785D02*
X0573916Y0118785D01*
X0565766Y0115798D02*
X0564710Y0115798D01*
X0565766Y0115798D02*
X0565766Y0110042D01*
X0564710Y0110042D01*
X0564710Y0115798D01*
X0564710Y0110635D02*
X0565766Y0110635D01*
X0565766Y0111228D02*
X0564710Y0111228D01*
X0564710Y0111821D02*
X0565766Y0111821D01*
X0565766Y0112414D02*
X0564710Y0112414D01*
X0564710Y0113007D02*
X0565766Y0113007D01*
X0565766Y0113600D02*
X0564710Y0113600D01*
X0564710Y0114193D02*
X0565766Y0114193D01*
X0565766Y0114786D02*
X0564710Y0114786D01*
X0564710Y0115379D02*
X0565766Y0115379D01*
X0563866Y0115798D02*
X0562810Y0115798D01*
X0563866Y0115798D02*
X0563866Y0110042D01*
X0562810Y0110042D01*
X0562810Y0115798D01*
X0562810Y0110635D02*
X0563866Y0110635D01*
X0563866Y0111228D02*
X0562810Y0111228D01*
X0562810Y0111821D02*
X0563866Y0111821D01*
X0563866Y0112414D02*
X0562810Y0112414D01*
X0562810Y0113007D02*
X0563866Y0113007D01*
X0563866Y0113600D02*
X0562810Y0113600D01*
X0562810Y0114193D02*
X0563866Y0114193D01*
X0563866Y0114786D02*
X0562810Y0114786D01*
X0562810Y0115379D02*
X0563866Y0115379D01*
X0561866Y0115798D02*
X0560810Y0115798D01*
X0561866Y0115798D02*
X0561866Y0110042D01*
X0560810Y0110042D01*
X0560810Y0115798D01*
X0560810Y0110635D02*
X0561866Y0110635D01*
X0561866Y0111228D02*
X0560810Y0111228D01*
X0560810Y0111821D02*
X0561866Y0111821D01*
X0561866Y0112414D02*
X0560810Y0112414D01*
X0560810Y0113007D02*
X0561866Y0113007D01*
X0561866Y0113600D02*
X0560810Y0113600D01*
X0560810Y0114193D02*
X0561866Y0114193D01*
X0561866Y0114786D02*
X0560810Y0114786D01*
X0560810Y0115379D02*
X0561866Y0115379D01*
X0559866Y0115798D02*
X0558810Y0115798D01*
X0559866Y0115798D02*
X0559866Y0110042D01*
X0558810Y0110042D01*
X0558810Y0115798D01*
X0558810Y0110635D02*
X0559866Y0110635D01*
X0559866Y0111228D02*
X0558810Y0111228D01*
X0558810Y0111821D02*
X0559866Y0111821D01*
X0559866Y0112414D02*
X0558810Y0112414D01*
X0558810Y0113007D02*
X0559866Y0113007D01*
X0559866Y0113600D02*
X0558810Y0113600D01*
X0558810Y0114193D02*
X0559866Y0114193D01*
X0559866Y0114786D02*
X0558810Y0114786D01*
X0558810Y0115379D02*
X0559866Y0115379D01*
X0557966Y0115798D02*
X0556910Y0115798D01*
X0557966Y0115798D02*
X0557966Y0110042D01*
X0556910Y0110042D01*
X0556910Y0115798D01*
X0556910Y0110635D02*
X0557966Y0110635D01*
X0557966Y0111228D02*
X0556910Y0111228D01*
X0556910Y0111821D02*
X0557966Y0111821D01*
X0557966Y0112414D02*
X0556910Y0112414D01*
X0556910Y0113007D02*
X0557966Y0113007D01*
X0557966Y0113600D02*
X0556910Y0113600D01*
X0556910Y0114193D02*
X0557966Y0114193D01*
X0557966Y0114786D02*
X0556910Y0114786D01*
X0556910Y0115379D02*
X0557966Y0115379D01*
X0555966Y0115798D02*
X0554910Y0115798D01*
X0555966Y0115798D02*
X0555966Y0110042D01*
X0554910Y0110042D01*
X0554910Y0115798D01*
X0554910Y0110635D02*
X0555966Y0110635D01*
X0555966Y0111228D02*
X0554910Y0111228D01*
X0554910Y0111821D02*
X0555966Y0111821D01*
X0555966Y0112414D02*
X0554910Y0112414D01*
X0554910Y0113007D02*
X0555966Y0113007D01*
X0555966Y0113600D02*
X0554910Y0113600D01*
X0554910Y0114193D02*
X0555966Y0114193D01*
X0555966Y0114786D02*
X0554910Y0114786D01*
X0554910Y0115379D02*
X0555966Y0115379D01*
X0553966Y0115798D02*
X0552910Y0115798D01*
X0553966Y0115798D02*
X0553966Y0110042D01*
X0552910Y0110042D01*
X0552910Y0115798D01*
X0552910Y0110635D02*
X0553966Y0110635D01*
X0553966Y0111228D02*
X0552910Y0111228D01*
X0552910Y0111821D02*
X0553966Y0111821D01*
X0553966Y0112414D02*
X0552910Y0112414D01*
X0552910Y0113007D02*
X0553966Y0113007D01*
X0553966Y0113600D02*
X0552910Y0113600D01*
X0552910Y0114193D02*
X0553966Y0114193D01*
X0553966Y0114786D02*
X0552910Y0114786D01*
X0552910Y0115379D02*
X0553966Y0115379D01*
X0551966Y0115798D02*
X0550910Y0115798D01*
X0551966Y0115798D02*
X0551966Y0110042D01*
X0550910Y0110042D01*
X0550910Y0115798D01*
X0550910Y0110635D02*
X0551966Y0110635D01*
X0551966Y0111228D02*
X0550910Y0111228D01*
X0550910Y0111821D02*
X0551966Y0111821D01*
X0551966Y0112414D02*
X0550910Y0112414D01*
X0550910Y0113007D02*
X0551966Y0113007D01*
X0551966Y0113600D02*
X0550910Y0113600D01*
X0550910Y0114193D02*
X0551966Y0114193D01*
X0551966Y0114786D02*
X0550910Y0114786D01*
X0550910Y0115379D02*
X0551966Y0115379D01*
X0550066Y0115798D02*
X0549010Y0115798D01*
X0550066Y0115798D02*
X0550066Y0110042D01*
X0549010Y0110042D01*
X0549010Y0115798D01*
X0549010Y0110635D02*
X0550066Y0110635D01*
X0550066Y0111228D02*
X0549010Y0111228D01*
X0549010Y0111821D02*
X0550066Y0111821D01*
X0550066Y0112414D02*
X0549010Y0112414D01*
X0549010Y0113007D02*
X0550066Y0113007D01*
X0550066Y0113600D02*
X0549010Y0113600D01*
X0549010Y0114193D02*
X0550066Y0114193D01*
X0550066Y0114786D02*
X0549010Y0114786D01*
X0549010Y0115379D02*
X0550066Y0115379D01*
X0548066Y0115798D02*
X0547010Y0115798D01*
X0548066Y0115798D02*
X0548066Y0110042D01*
X0547010Y0110042D01*
X0547010Y0115798D01*
X0547010Y0110635D02*
X0548066Y0110635D01*
X0548066Y0111228D02*
X0547010Y0111228D01*
X0547010Y0111821D02*
X0548066Y0111821D01*
X0548066Y0112414D02*
X0547010Y0112414D01*
X0547010Y0113007D02*
X0548066Y0113007D01*
X0548066Y0113600D02*
X0547010Y0113600D01*
X0547010Y0114193D02*
X0548066Y0114193D01*
X0548066Y0114786D02*
X0547010Y0114786D01*
X0547010Y0115379D02*
X0548066Y0115379D01*
X0546066Y0115798D02*
X0545010Y0115798D01*
X0546066Y0115798D02*
X0546066Y0110042D01*
X0545010Y0110042D01*
X0545010Y0115798D01*
X0545010Y0110635D02*
X0546066Y0110635D01*
X0546066Y0111228D02*
X0545010Y0111228D01*
X0545010Y0111821D02*
X0546066Y0111821D01*
X0546066Y0112414D02*
X0545010Y0112414D01*
X0545010Y0113007D02*
X0546066Y0113007D01*
X0546066Y0113600D02*
X0545010Y0113600D01*
X0545010Y0114193D02*
X0546066Y0114193D01*
X0546066Y0114786D02*
X0545010Y0114786D01*
X0545010Y0115379D02*
X0546066Y0115379D01*
X0544166Y0115798D02*
X0543110Y0115798D01*
X0544166Y0115798D02*
X0544166Y0110042D01*
X0543110Y0110042D01*
X0543110Y0115798D01*
X0543110Y0110635D02*
X0544166Y0110635D01*
X0544166Y0111228D02*
X0543110Y0111228D01*
X0543110Y0111821D02*
X0544166Y0111821D01*
X0544166Y0112414D02*
X0543110Y0112414D01*
X0543110Y0113007D02*
X0544166Y0113007D01*
X0544166Y0113600D02*
X0543110Y0113600D01*
X0543110Y0114193D02*
X0544166Y0114193D01*
X0544166Y0114786D02*
X0543110Y0114786D01*
X0543110Y0115379D02*
X0544166Y0115379D01*
X0534960Y0118192D02*
X0534960Y0119248D01*
X0540716Y0119248D01*
X0540716Y0118192D01*
X0534960Y0118192D01*
X0534960Y0118785D02*
X0540716Y0118785D01*
X0534960Y0120092D02*
X0534960Y0121148D01*
X0540716Y0121148D01*
X0540716Y0120092D01*
X0534960Y0120092D01*
X0534960Y0120685D02*
X0540716Y0120685D01*
X0534960Y0122092D02*
X0534960Y0123148D01*
X0540716Y0123148D01*
X0540716Y0122092D01*
X0534960Y0122092D01*
X0534960Y0122685D02*
X0540716Y0122685D01*
X0534960Y0124092D02*
X0534960Y0125148D01*
X0540716Y0125148D01*
X0540716Y0124092D01*
X0534960Y0124092D01*
X0534960Y0124685D02*
X0540716Y0124685D01*
X0534960Y0125992D02*
X0534960Y0127048D01*
X0540716Y0127048D01*
X0540716Y0125992D01*
X0534960Y0125992D01*
X0534960Y0126585D02*
X0540716Y0126585D01*
X0534960Y0127992D02*
X0534960Y0129048D01*
X0540716Y0129048D01*
X0540716Y0127992D01*
X0534960Y0127992D01*
X0534960Y0128585D02*
X0540716Y0128585D01*
X0534960Y0129992D02*
X0534960Y0131048D01*
X0540716Y0131048D01*
X0540716Y0129992D01*
X0534960Y0129992D01*
X0534960Y0130585D02*
X0540716Y0130585D01*
D20*
X0504773Y0118862D02*
X0504773Y0116808D01*
X0504773Y0118862D02*
X0508795Y0118862D01*
X0508795Y0116808D01*
X0504773Y0116808D01*
X0504773Y0117321D02*
X0508795Y0117321D01*
X0508795Y0117834D02*
X0504773Y0117834D01*
X0504773Y0118347D02*
X0508795Y0118347D01*
X0508795Y0118860D02*
X0504773Y0118860D01*
X0498080Y0118862D02*
X0498080Y0116808D01*
X0498080Y0118862D02*
X0502102Y0118862D01*
X0502102Y0116808D01*
X0498080Y0116808D01*
X0498080Y0117321D02*
X0502102Y0117321D01*
X0502102Y0117834D02*
X0498080Y0117834D01*
X0498080Y0118347D02*
X0502102Y0118347D01*
X0502102Y0118860D02*
X0498080Y0118860D01*
X0498080Y0115318D02*
X0498080Y0113264D01*
X0498080Y0115318D02*
X0502102Y0115318D01*
X0502102Y0113264D01*
X0498080Y0113264D01*
X0498080Y0113777D02*
X0502102Y0113777D01*
X0502102Y0114290D02*
X0498080Y0114290D01*
X0498080Y0114803D02*
X0502102Y0114803D01*
X0502102Y0115316D02*
X0498080Y0115316D01*
X0498080Y0111775D02*
X0498080Y0109721D01*
X0498080Y0111775D02*
X0502102Y0111775D01*
X0502102Y0109721D01*
X0498080Y0109721D01*
X0498080Y0110234D02*
X0502102Y0110234D01*
X0502102Y0110747D02*
X0498080Y0110747D01*
X0498080Y0111260D02*
X0502102Y0111260D01*
X0502102Y0111773D02*
X0498080Y0111773D01*
X0498080Y0108232D02*
X0498080Y0106178D01*
X0498080Y0108232D02*
X0502102Y0108232D01*
X0502102Y0106178D01*
X0498080Y0106178D01*
X0498080Y0106691D02*
X0502102Y0106691D01*
X0502102Y0107204D02*
X0498080Y0107204D01*
X0498080Y0107717D02*
X0502102Y0107717D01*
X0502102Y0108230D02*
X0498080Y0108230D01*
X0504773Y0108232D02*
X0504773Y0106178D01*
X0504773Y0108232D02*
X0508795Y0108232D01*
X0508795Y0106178D01*
X0504773Y0106178D01*
X0504773Y0106691D02*
X0508795Y0106691D01*
X0508795Y0107204D02*
X0504773Y0107204D01*
X0504773Y0107717D02*
X0508795Y0107717D01*
X0508795Y0108230D02*
X0504773Y0108230D01*
X0504773Y0109721D02*
X0504773Y0111775D01*
X0508795Y0111775D01*
X0508795Y0109721D01*
X0504773Y0109721D01*
X0504773Y0110234D02*
X0508795Y0110234D01*
X0508795Y0110747D02*
X0504773Y0110747D01*
X0504773Y0111260D02*
X0508795Y0111260D01*
X0508795Y0111773D02*
X0504773Y0111773D01*
X0504773Y0113264D02*
X0504773Y0115318D01*
X0508795Y0115318D01*
X0508795Y0113264D01*
X0504773Y0113264D01*
X0504773Y0113777D02*
X0508795Y0113777D01*
X0508795Y0114290D02*
X0504773Y0114290D01*
X0504773Y0114803D02*
X0508795Y0114803D01*
X0508795Y0115316D02*
X0504773Y0115316D01*
X0569346Y0111127D02*
X0571400Y0111127D01*
X0571400Y0107105D01*
X0569346Y0107105D01*
X0569346Y0111127D01*
X0569346Y0107618D02*
X0571400Y0107618D01*
X0571400Y0108131D02*
X0569346Y0108131D01*
X0569346Y0108644D02*
X0571400Y0108644D01*
X0571400Y0109157D02*
X0569346Y0109157D01*
X0569346Y0109670D02*
X0571400Y0109670D01*
X0571400Y0110183D02*
X0569346Y0110183D01*
X0569346Y0110696D02*
X0571400Y0110696D01*
X0572889Y0111127D02*
X0574943Y0111127D01*
X0574943Y0107105D01*
X0572889Y0107105D01*
X0572889Y0111127D01*
X0572889Y0107618D02*
X0574943Y0107618D01*
X0574943Y0108131D02*
X0572889Y0108131D01*
X0572889Y0108644D02*
X0574943Y0108644D01*
X0574943Y0109157D02*
X0572889Y0109157D01*
X0572889Y0109670D02*
X0574943Y0109670D01*
X0574943Y0110183D02*
X0572889Y0110183D01*
X0572889Y0110696D02*
X0574943Y0110696D01*
X0576432Y0111127D02*
X0578486Y0111127D01*
X0578486Y0107105D01*
X0576432Y0107105D01*
X0576432Y0111127D01*
X0576432Y0107618D02*
X0578486Y0107618D01*
X0578486Y0108131D02*
X0576432Y0108131D01*
X0576432Y0108644D02*
X0578486Y0108644D01*
X0578486Y0109157D02*
X0576432Y0109157D01*
X0576432Y0109670D02*
X0578486Y0109670D01*
X0578486Y0110183D02*
X0576432Y0110183D01*
X0576432Y0110696D02*
X0578486Y0110696D01*
X0579976Y0111127D02*
X0582030Y0111127D01*
X0582030Y0107105D01*
X0579976Y0107105D01*
X0579976Y0111127D01*
X0579976Y0107618D02*
X0582030Y0107618D01*
X0582030Y0108131D02*
X0579976Y0108131D01*
X0579976Y0108644D02*
X0582030Y0108644D01*
X0582030Y0109157D02*
X0579976Y0109157D01*
X0579976Y0109670D02*
X0582030Y0109670D01*
X0582030Y0110183D02*
X0579976Y0110183D01*
X0579976Y0110696D02*
X0582030Y0110696D01*
X0582030Y0104434D02*
X0579976Y0104434D01*
X0582030Y0104434D02*
X0582030Y0100412D01*
X0579976Y0100412D01*
X0579976Y0104434D01*
X0579976Y0100925D02*
X0582030Y0100925D01*
X0582030Y0101438D02*
X0579976Y0101438D01*
X0579976Y0101951D02*
X0582030Y0101951D01*
X0582030Y0102464D02*
X0579976Y0102464D01*
X0579976Y0102977D02*
X0582030Y0102977D01*
X0582030Y0103490D02*
X0579976Y0103490D01*
X0579976Y0104003D02*
X0582030Y0104003D01*
X0578486Y0104434D02*
X0576432Y0104434D01*
X0578486Y0104434D02*
X0578486Y0100412D01*
X0576432Y0100412D01*
X0576432Y0104434D01*
X0576432Y0100925D02*
X0578486Y0100925D01*
X0578486Y0101438D02*
X0576432Y0101438D01*
X0576432Y0101951D02*
X0578486Y0101951D01*
X0578486Y0102464D02*
X0576432Y0102464D01*
X0576432Y0102977D02*
X0578486Y0102977D01*
X0578486Y0103490D02*
X0576432Y0103490D01*
X0576432Y0104003D02*
X0578486Y0104003D01*
X0574943Y0104434D02*
X0572889Y0104434D01*
X0574943Y0104434D02*
X0574943Y0100412D01*
X0572889Y0100412D01*
X0572889Y0104434D01*
X0572889Y0100925D02*
X0574943Y0100925D01*
X0574943Y0101438D02*
X0572889Y0101438D01*
X0572889Y0101951D02*
X0574943Y0101951D01*
X0574943Y0102464D02*
X0572889Y0102464D01*
X0572889Y0102977D02*
X0574943Y0102977D01*
X0574943Y0103490D02*
X0572889Y0103490D01*
X0572889Y0104003D02*
X0574943Y0104003D01*
X0571400Y0104434D02*
X0569346Y0104434D01*
X0571400Y0104434D02*
X0571400Y0100412D01*
X0569346Y0100412D01*
X0569346Y0104434D01*
X0569346Y0100925D02*
X0571400Y0100925D01*
X0571400Y0101438D02*
X0569346Y0101438D01*
X0569346Y0101951D02*
X0571400Y0101951D01*
X0571400Y0102464D02*
X0569346Y0102464D01*
X0569346Y0102977D02*
X0571400Y0102977D01*
X0571400Y0103490D02*
X0569346Y0103490D01*
X0569346Y0104003D02*
X0571400Y0104003D01*
D21*
X0572872Y0180254D02*
X0585804Y0180254D01*
X0572872Y0180254D02*
X0572872Y0183386D01*
X0585804Y0183386D01*
X0585804Y0180254D01*
X0585804Y0180721D02*
X0572872Y0180721D01*
X0572872Y0181188D02*
X0585804Y0181188D01*
X0585804Y0181655D02*
X0572872Y0181655D01*
X0572872Y0182122D02*
X0585804Y0182122D01*
X0585804Y0182589D02*
X0572872Y0182589D01*
X0572872Y0183056D02*
X0585804Y0183056D01*
X0591872Y0180254D02*
X0604804Y0180254D01*
X0591872Y0180254D02*
X0591872Y0183386D01*
X0604804Y0183386D01*
X0604804Y0180254D01*
X0604804Y0180721D02*
X0591872Y0180721D01*
X0591872Y0181188D02*
X0604804Y0181188D01*
X0604804Y0181655D02*
X0591872Y0181655D01*
X0591872Y0182122D02*
X0604804Y0182122D01*
X0604804Y0182589D02*
X0591872Y0182589D01*
X0591872Y0183056D02*
X0604804Y0183056D01*
D22*
X0495098Y0139910D02*
X0490478Y0139910D01*
X0490478Y0141330D01*
X0495098Y0141330D01*
X0495098Y0139910D01*
X0495098Y0140489D02*
X0490478Y0140489D01*
X0490478Y0141068D02*
X0495098Y0141068D01*
X0495098Y0134710D02*
X0490478Y0134710D01*
X0490478Y0136130D01*
X0495098Y0136130D01*
X0495098Y0134710D01*
X0495098Y0135289D02*
X0490478Y0135289D01*
X0490478Y0135868D02*
X0495098Y0135868D01*
X0486898Y0134710D02*
X0482278Y0134710D01*
X0482278Y0136130D01*
X0486898Y0136130D01*
X0486898Y0134710D01*
X0486898Y0135289D02*
X0482278Y0135289D01*
X0482278Y0135868D02*
X0486898Y0135868D01*
X0486898Y0137310D02*
X0482278Y0137310D01*
X0482278Y0138730D01*
X0486898Y0138730D01*
X0486898Y0137310D01*
X0486898Y0137889D02*
X0482278Y0137889D01*
X0482278Y0138468D02*
X0486898Y0138468D01*
X0486898Y0139910D02*
X0482278Y0139910D01*
X0482278Y0141330D01*
X0486898Y0141330D01*
X0486898Y0139910D01*
X0486898Y0140489D02*
X0482278Y0140489D01*
X0482278Y0141068D02*
X0486898Y0141068D01*
D23*
X0594295Y0080331D02*
X0594794Y0081045D01*
X0595411Y0081661D01*
X0596125Y0082161D01*
X0596915Y0082529D01*
X0597756Y0082755D01*
X0598625Y0082831D01*
X0599493Y0082755D01*
X0600335Y0082529D01*
X0601125Y0082161D01*
X0601839Y0081661D01*
X0602455Y0081045D01*
X0602955Y0080331D01*
X0603323Y0079541D01*
X0603549Y0078699D01*
X0603625Y0077831D01*
X0603549Y0076962D01*
X0603323Y0076121D01*
X0602955Y0075331D01*
X0602455Y0074617D01*
X0601839Y0074000D01*
X0601125Y0073501D01*
X0600335Y0073132D01*
X0599493Y0072907D01*
X0598625Y0072831D01*
X0597756Y0072907D01*
X0596915Y0073132D01*
X0596125Y0073501D01*
X0595411Y0074000D01*
X0594794Y0074617D01*
X0594295Y0075331D01*
X0593926Y0076121D01*
X0593701Y0076962D01*
X0593625Y0077831D01*
X0593701Y0078699D01*
X0593926Y0079541D01*
X0594295Y0080331D01*
X0594397Y0080477D02*
X0602853Y0080477D01*
X0603119Y0079978D02*
X0594130Y0079978D01*
X0593910Y0079479D02*
X0603340Y0079479D01*
X0603473Y0078981D02*
X0593776Y0078981D01*
X0593682Y0078482D02*
X0603568Y0078482D01*
X0603611Y0077984D02*
X0593638Y0077984D01*
X0593655Y0077485D02*
X0603594Y0077485D01*
X0603551Y0076987D02*
X0593698Y0076987D01*
X0593828Y0076488D02*
X0603422Y0076488D01*
X0603262Y0075990D02*
X0593987Y0075990D01*
X0594220Y0075491D02*
X0603030Y0075491D01*
X0602718Y0074993D02*
X0594531Y0074993D01*
X0594917Y0074494D02*
X0602332Y0074494D01*
X0601832Y0073996D02*
X0595417Y0073996D01*
X0596132Y0073497D02*
X0601118Y0073497D01*
X0599837Y0072999D02*
X0597412Y0072999D01*
X0594746Y0080975D02*
X0602504Y0080975D01*
X0602026Y0081474D02*
X0595223Y0081474D01*
X0595855Y0081972D02*
X0601394Y0081972D01*
X0600460Y0082471D02*
X0596789Y0082471D01*
X0156957Y0426363D02*
X0156243Y0425863D01*
X0155453Y0425494D01*
X0154611Y0425269D01*
X0153743Y0425193D01*
X0152875Y0425269D01*
X0152033Y0425494D01*
X0151243Y0425863D01*
X0150529Y0426363D01*
X0149913Y0426979D01*
X0149413Y0427693D01*
X0149044Y0428483D01*
X0148819Y0429325D01*
X0148743Y0430193D01*
X0148819Y0431061D01*
X0149044Y0431903D01*
X0149413Y0432693D01*
X0149913Y0433407D01*
X0150529Y0434023D01*
X0151243Y0434523D01*
X0152033Y0434891D01*
X0152875Y0435117D01*
X0153743Y0435193D01*
X0154611Y0435117D01*
X0155453Y0434891D01*
X0156243Y0434523D01*
X0156957Y0434023D01*
X0157573Y0433407D01*
X0158073Y0432693D01*
X0158441Y0431903D01*
X0158667Y0431061D01*
X0158743Y0430193D01*
X0158667Y0429325D01*
X0158441Y0428483D01*
X0158073Y0427693D01*
X0157573Y0426979D01*
X0156957Y0426363D01*
X0157037Y0426443D02*
X0150448Y0426443D01*
X0149950Y0426942D02*
X0157536Y0426942D01*
X0157896Y0427440D02*
X0149589Y0427440D01*
X0149298Y0427939D02*
X0158188Y0427939D01*
X0158420Y0428437D02*
X0149065Y0428437D01*
X0148923Y0428936D02*
X0158563Y0428936D01*
X0158676Y0429434D02*
X0148809Y0429434D01*
X0148766Y0429933D02*
X0158720Y0429933D01*
X0158722Y0430431D02*
X0148764Y0430431D01*
X0148807Y0430930D02*
X0158678Y0430930D01*
X0158568Y0431428D02*
X0148917Y0431428D01*
X0149055Y0431927D02*
X0158430Y0431927D01*
X0158198Y0432426D02*
X0149288Y0432426D01*
X0149574Y0432924D02*
X0157911Y0432924D01*
X0157557Y0433423D02*
X0149928Y0433423D01*
X0150427Y0433921D02*
X0157059Y0433921D01*
X0156391Y0434420D02*
X0151095Y0434420D01*
X0152132Y0434918D02*
X0155353Y0434918D01*
X0156360Y0425945D02*
X0151126Y0425945D01*
X0152212Y0425446D02*
X0155273Y0425446D01*
X0105398Y0116219D02*
X0106240Y0115994D01*
X0107030Y0115625D01*
X0107744Y0115125D01*
X0108360Y0114509D01*
X0108860Y0113795D01*
X0109229Y0113005D01*
X0109454Y0112164D01*
X0109530Y0111295D01*
X0109454Y0110427D01*
X0109229Y0109585D01*
X0108860Y0108795D01*
X0108360Y0108081D01*
X0107744Y0107465D01*
X0107030Y0106965D01*
X0106240Y0106597D01*
X0105398Y0106371D01*
X0104530Y0106295D01*
X0103662Y0106371D01*
X0102820Y0106597D01*
X0102030Y0106965D01*
X0101316Y0107465D01*
X0100700Y0108081D01*
X0100200Y0108795D01*
X0099832Y0109585D01*
X0099606Y0110427D01*
X0099530Y0111295D01*
X0099606Y0112164D01*
X0099832Y0113005D01*
X0100200Y0113795D01*
X0100700Y0114509D01*
X0101316Y0115125D01*
X0102030Y0115625D01*
X0102820Y0115994D01*
X0103662Y0116219D01*
X0104530Y0116295D01*
X0105398Y0116219D01*
X0106504Y0115871D02*
X0102556Y0115871D01*
X0101669Y0115372D02*
X0107392Y0115372D01*
X0107996Y0114874D02*
X0101065Y0114874D01*
X0100606Y0114375D02*
X0108454Y0114375D01*
X0108803Y0113877D02*
X0100257Y0113877D01*
X0100006Y0113378D02*
X0109055Y0113378D01*
X0109262Y0112880D02*
X0099798Y0112880D01*
X0099664Y0112381D02*
X0109396Y0112381D01*
X0109479Y0111883D02*
X0099582Y0111883D01*
X0099538Y0111384D02*
X0109522Y0111384D01*
X0109494Y0110886D02*
X0099566Y0110886D01*
X0099617Y0110387D02*
X0109444Y0110387D01*
X0109310Y0109889D02*
X0099750Y0109889D01*
X0099923Y0109390D02*
X0109138Y0109390D01*
X0108905Y0108892D02*
X0100155Y0108892D01*
X0100482Y0108393D02*
X0108579Y0108393D01*
X0108174Y0107895D02*
X0100887Y0107895D01*
X0101415Y0107396D02*
X0107646Y0107396D01*
X0106885Y0106898D02*
X0102175Y0106898D01*
X0103558Y0106399D02*
X0105502Y0106399D01*
D24*
X0526438Y0171570D03*
D25*
X0334845Y0404602D03*
X0256105Y0404602D03*
D26*
X0263979Y0404602D03*
X0271853Y0404602D03*
X0279727Y0404602D03*
X0287601Y0404602D03*
X0287601Y0412476D03*
X0279727Y0412476D03*
X0271853Y0412476D03*
X0263979Y0412476D03*
X0256105Y0412476D03*
X0334845Y0412476D03*
X0342719Y0412476D03*
X0350593Y0412476D03*
X0350593Y0404602D03*
X0342719Y0404602D03*
X0358467Y0404602D03*
X0366341Y0404602D03*
X0366341Y0412476D03*
X0358467Y0412476D03*
D27*
X0353688Y0355020D03*
X0330688Y0336020D03*
X0270688Y0355020D03*
X0247688Y0336020D03*
X0187688Y0355020D03*
X0247688Y0287020D03*
X0247688Y0238020D03*
X0247688Y0189020D03*
X0330688Y0189020D03*
X0330688Y0238020D03*
X0330688Y0287020D03*
X0413688Y0287020D03*
X0413688Y0238020D03*
X0413688Y0189020D03*
X0496688Y0287020D03*
X0496688Y0336020D03*
X0413688Y0336020D03*
D28*
X0403688Y0336020D03*
X0403688Y0355020D03*
X0413688Y0355020D03*
X0436688Y0336020D03*
X0446688Y0336020D03*
X0446688Y0306020D03*
X0436688Y0306020D03*
X0436688Y0287020D03*
X0446688Y0287020D03*
X0413688Y0306020D03*
X0403688Y0306020D03*
X0403688Y0287020D03*
X0403688Y0257020D03*
X0413688Y0257020D03*
X0403688Y0238020D03*
X0436688Y0257020D03*
X0446688Y0257020D03*
X0486688Y0257020D03*
X0496688Y0257020D03*
X0486688Y0287020D03*
X0486688Y0306020D03*
X0496688Y0306020D03*
X0486688Y0336020D03*
X0413688Y0385020D03*
X0403688Y0385020D03*
X0363688Y0385020D03*
X0353688Y0385020D03*
X0330688Y0385020D03*
X0320688Y0385020D03*
X0320688Y0355020D03*
X0330688Y0355020D03*
X0320688Y0336020D03*
X0353688Y0336020D03*
X0363688Y0336020D03*
X0363688Y0355020D03*
X0363688Y0306020D03*
X0353688Y0306020D03*
X0353688Y0287020D03*
X0363688Y0287020D03*
X0330688Y0306020D03*
X0320688Y0306020D03*
X0320688Y0287020D03*
X0320688Y0257020D03*
X0330688Y0257020D03*
X0320688Y0238020D03*
X0353688Y0238020D03*
X0363688Y0238020D03*
X0363688Y0257020D03*
X0353688Y0257020D03*
X0353688Y0208020D03*
X0363688Y0208020D03*
X0363688Y0189020D03*
X0353688Y0189020D03*
X0330688Y0208020D03*
X0320688Y0208020D03*
X0320688Y0189020D03*
X0320688Y0159020D03*
X0330688Y0159020D03*
X0353688Y0159020D03*
X0363688Y0159020D03*
X0403688Y0159020D03*
X0413688Y0159020D03*
X0403688Y0189020D03*
X0403688Y0208020D03*
X0413688Y0208020D03*
X0280688Y0208020D03*
X0270688Y0208020D03*
X0270688Y0189020D03*
X0280688Y0189020D03*
X0247688Y0208020D03*
X0237688Y0208020D03*
X0237688Y0189020D03*
X0237688Y0159020D03*
X0247688Y0159020D03*
X0270688Y0159020D03*
X0280688Y0159020D03*
X0197688Y0159020D03*
X0187688Y0159020D03*
X0187688Y0189020D03*
X0197688Y0189020D03*
X0197688Y0208020D03*
X0187688Y0208020D03*
X0187688Y0238020D03*
X0197688Y0238020D03*
X0197688Y0257020D03*
X0187688Y0257020D03*
X0187688Y0287020D03*
X0197688Y0287020D03*
X0197688Y0306020D03*
X0187688Y0306020D03*
X0187688Y0336020D03*
X0197688Y0336020D03*
X0197688Y0355020D03*
X0197688Y0385020D03*
X0187688Y0385020D03*
X0237688Y0385020D03*
X0247688Y0385020D03*
X0270688Y0385020D03*
X0280688Y0385020D03*
X0280688Y0355020D03*
X0280688Y0336020D03*
X0270688Y0336020D03*
X0247688Y0355020D03*
X0237688Y0355020D03*
X0237688Y0336020D03*
X0237688Y0306020D03*
X0247688Y0306020D03*
X0237688Y0287020D03*
X0270688Y0287020D03*
X0280688Y0287020D03*
X0280688Y0306020D03*
X0270688Y0306020D03*
X0270688Y0257020D03*
X0280688Y0257020D03*
X0280688Y0238020D03*
X0270688Y0238020D03*
X0247688Y0257020D03*
X0237688Y0257020D03*
X0237688Y0238020D03*
D29*
X0137995Y0087673D03*
X0137995Y0418382D03*
M02*
