G75*
%MOIN*%
%OFA0B0*%
%FSLAX25Y25*%
%IPPOS*%
%LPD*%
%AMOC8*
5,1,8,0,0,1.08239X$1,22.5*
%
%ADD10C,0.13198*%
%ADD11OC8,0.06506*%
%ADD12R,0.06506X0.06506*%
%ADD13OC8,0.08277*%
%ADD14C,0.08277*%
%ADD15C,0.00500*%
%ADD16OC8,0.07096*%
%ADD17R,0.05324X0.05324*%
%ADD18OC8,0.05324*%
%ADD19OC8,0.06600*%
%ADD20C,0.06600*%
%ADD21C,0.07600*%
%ADD22C,0.22254*%
D10*
X0137995Y0050469D03*
X0137995Y0381177D03*
D11*
X0309333Y0078028D03*
X0319333Y0078028D03*
X0329333Y0078028D03*
X0339333Y0078028D03*
X0349333Y0078028D03*
X0359333Y0078028D03*
X0369333Y0078028D03*
X0379333Y0078028D03*
X0389333Y0078028D03*
X0399333Y0078028D03*
X0409333Y0078028D03*
X0419333Y0078028D03*
X0429333Y0078028D03*
X0439333Y0078028D03*
X0439333Y0068028D03*
X0429333Y0068028D03*
X0419333Y0068028D03*
X0409333Y0068028D03*
X0399333Y0068028D03*
X0389333Y0068028D03*
X0379333Y0068028D03*
X0369333Y0068028D03*
X0359333Y0068028D03*
X0349333Y0068028D03*
X0339333Y0068028D03*
X0329333Y0068028D03*
X0319333Y0068028D03*
X0596938Y0074065D03*
X0596938Y0084065D03*
X0596938Y0094065D03*
X0596938Y0104065D03*
X0596938Y0114065D03*
X0596938Y0124065D03*
D12*
X0309333Y0068028D03*
D13*
X0166932Y0211236D03*
X0166932Y0337220D03*
D14*
X0166932Y0322220D03*
X0166932Y0307220D03*
X0166932Y0292220D03*
X0166932Y0277220D03*
X0166932Y0262220D03*
X0166932Y0247220D03*
X0166932Y0232220D03*
X0166932Y0196236D03*
X0166932Y0181236D03*
X0166932Y0166236D03*
X0166932Y0151236D03*
X0166932Y0136236D03*
X0166932Y0121236D03*
X0166932Y0106236D03*
X0116932Y0106236D03*
X0116932Y0121236D03*
X0116932Y0136236D03*
X0116932Y0151236D03*
X0116932Y0166236D03*
X0116932Y0181236D03*
X0116932Y0196236D03*
X0116932Y0211236D03*
X0116932Y0232220D03*
X0116932Y0247220D03*
X0116932Y0262220D03*
X0116932Y0277220D03*
X0116932Y0292220D03*
X0116932Y0307220D03*
X0116932Y0322220D03*
X0116932Y0337220D03*
D15*
X0100700Y0070877D02*
X0101316Y0070260D01*
X0102030Y0069760D01*
X0102820Y0069392D01*
X0103662Y0069167D01*
X0104530Y0069091D01*
X0105398Y0069167D01*
X0106240Y0069392D01*
X0107030Y0069760D01*
X0107744Y0070260D01*
X0108360Y0070877D01*
X0108860Y0071591D01*
X0109229Y0072380D01*
X0109454Y0073222D01*
X0109530Y0074091D01*
X0109454Y0074959D01*
X0109229Y0075801D01*
X0108860Y0076591D01*
X0108360Y0077304D01*
X0107744Y0077921D01*
X0107030Y0078421D01*
X0106240Y0078789D01*
X0105398Y0079015D01*
X0104530Y0079091D01*
X0103662Y0079015D01*
X0102820Y0078789D01*
X0102030Y0078421D01*
X0101316Y0077921D01*
X0100700Y0077304D01*
X0100200Y0076591D01*
X0099832Y0075801D01*
X0099606Y0074959D01*
X0099530Y0074091D01*
X0099606Y0073222D01*
X0099832Y0072380D01*
X0100200Y0071591D01*
X0100700Y0070877D01*
X0100887Y0070690D02*
X0108174Y0070690D01*
X0108579Y0071188D02*
X0100482Y0071188D01*
X0100155Y0071687D02*
X0108905Y0071687D01*
X0109138Y0072185D02*
X0099923Y0072185D01*
X0099750Y0072684D02*
X0109310Y0072684D01*
X0109444Y0073182D02*
X0099617Y0073182D01*
X0099566Y0073681D02*
X0109494Y0073681D01*
X0109522Y0074179D02*
X0099538Y0074179D01*
X0099582Y0074678D02*
X0109479Y0074678D01*
X0109396Y0075177D02*
X0099664Y0075177D01*
X0099798Y0075675D02*
X0109262Y0075675D01*
X0109055Y0076174D02*
X0100006Y0076174D01*
X0100257Y0076672D02*
X0108803Y0076672D01*
X0108454Y0077171D02*
X0100606Y0077171D01*
X0101065Y0077669D02*
X0107996Y0077669D01*
X0107392Y0078168D02*
X0101669Y0078168D01*
X0102556Y0078666D02*
X0106504Y0078666D01*
X0107646Y0070191D02*
X0101415Y0070191D01*
X0102175Y0069693D02*
X0106885Y0069693D01*
X0105502Y0069194D02*
X0103558Y0069194D01*
X0152875Y0388064D02*
X0152033Y0388290D01*
X0151243Y0388658D01*
X0150529Y0389158D01*
X0149913Y0389774D01*
X0149413Y0390488D01*
X0149044Y0391278D01*
X0148819Y0392120D01*
X0148743Y0392988D01*
X0148819Y0393856D01*
X0149044Y0394698D01*
X0149413Y0395488D01*
X0149913Y0396202D01*
X0150529Y0396818D01*
X0151243Y0397318D01*
X0152033Y0397687D01*
X0152875Y0397912D01*
X0153743Y0397988D01*
X0154611Y0397912D01*
X0155453Y0397687D01*
X0156243Y0397318D01*
X0156957Y0396818D01*
X0157573Y0396202D01*
X0158073Y0395488D01*
X0158441Y0394698D01*
X0158667Y0393856D01*
X0158743Y0392988D01*
X0158667Y0392120D01*
X0158441Y0391278D01*
X0158073Y0390488D01*
X0157573Y0389774D01*
X0156957Y0389158D01*
X0156243Y0388658D01*
X0155453Y0388290D01*
X0154611Y0388064D01*
X0153743Y0387988D01*
X0152875Y0388064D01*
X0152212Y0388242D02*
X0155273Y0388242D01*
X0156360Y0388740D02*
X0151126Y0388740D01*
X0150448Y0389239D02*
X0157037Y0389239D01*
X0157536Y0389737D02*
X0149950Y0389737D01*
X0149589Y0390236D02*
X0157896Y0390236D01*
X0158188Y0390734D02*
X0149298Y0390734D01*
X0149065Y0391233D02*
X0158420Y0391233D01*
X0158563Y0391731D02*
X0148923Y0391731D01*
X0148809Y0392230D02*
X0158676Y0392230D01*
X0158720Y0392728D02*
X0148766Y0392728D01*
X0148764Y0393227D02*
X0158722Y0393227D01*
X0158678Y0393725D02*
X0148807Y0393725D01*
X0148917Y0394224D02*
X0158568Y0394224D01*
X0158430Y0394722D02*
X0149055Y0394722D01*
X0149288Y0395221D02*
X0158198Y0395221D01*
X0157911Y0395719D02*
X0149574Y0395719D01*
X0149928Y0396218D02*
X0157557Y0396218D01*
X0157059Y0396716D02*
X0150427Y0396716D01*
X0151095Y0397215D02*
X0156391Y0397215D01*
X0155353Y0397713D02*
X0152132Y0397713D01*
X0594794Y0043840D02*
X0595411Y0044456D01*
X0596125Y0044956D01*
X0596915Y0045324D01*
X0597756Y0045550D01*
X0598625Y0045626D01*
X0599493Y0045550D01*
X0600335Y0045324D01*
X0601125Y0044956D01*
X0601839Y0044456D01*
X0602455Y0043840D01*
X0602955Y0043126D01*
X0603323Y0042336D01*
X0603549Y0041494D01*
X0603625Y0040626D01*
X0603549Y0039758D01*
X0603323Y0038916D01*
X0602955Y0038126D01*
X0602455Y0037412D01*
X0601839Y0036796D01*
X0601125Y0036296D01*
X0600335Y0035928D01*
X0599493Y0035702D01*
X0598625Y0035626D01*
X0597756Y0035702D01*
X0596915Y0035928D01*
X0596125Y0036296D01*
X0595411Y0036796D01*
X0594794Y0037412D01*
X0594295Y0038126D01*
X0593926Y0038916D01*
X0593701Y0039758D01*
X0593625Y0040626D01*
X0593701Y0041494D01*
X0593926Y0042336D01*
X0594295Y0043126D01*
X0594794Y0043840D01*
X0594746Y0043770D02*
X0602504Y0043770D01*
X0602853Y0043272D02*
X0594397Y0043272D01*
X0594130Y0042773D02*
X0603119Y0042773D01*
X0603340Y0042275D02*
X0593910Y0042275D01*
X0593776Y0041776D02*
X0603473Y0041776D01*
X0603568Y0041278D02*
X0593682Y0041278D01*
X0593638Y0040779D02*
X0603611Y0040779D01*
X0603594Y0040281D02*
X0593655Y0040281D01*
X0593698Y0039782D02*
X0603551Y0039782D01*
X0603422Y0039284D02*
X0593828Y0039284D01*
X0593987Y0038785D02*
X0603262Y0038785D01*
X0603030Y0038287D02*
X0594220Y0038287D01*
X0594531Y0037788D02*
X0602718Y0037788D01*
X0602332Y0037290D02*
X0594917Y0037290D01*
X0595417Y0036791D02*
X0601832Y0036791D01*
X0601118Y0036293D02*
X0596132Y0036293D01*
X0597412Y0035794D02*
X0599837Y0035794D01*
X0602026Y0044269D02*
X0595223Y0044269D01*
X0595855Y0044767D02*
X0601394Y0044767D01*
X0600460Y0045266D02*
X0596789Y0045266D01*
D16*
X0526438Y0134365D03*
D17*
X0334845Y0367398D03*
X0256105Y0367398D03*
D18*
X0263979Y0367398D03*
X0271853Y0367398D03*
X0279727Y0367398D03*
X0279727Y0375272D03*
X0271853Y0375272D03*
X0263979Y0375272D03*
X0256105Y0375272D03*
X0287601Y0375272D03*
X0287601Y0367398D03*
X0334845Y0375272D03*
X0342719Y0375272D03*
X0350593Y0375272D03*
X0358467Y0375272D03*
X0366341Y0375272D03*
X0366341Y0367398D03*
X0358467Y0367398D03*
X0350593Y0367398D03*
X0342719Y0367398D03*
D19*
X0330688Y0347815D03*
X0330688Y0298815D03*
X0330688Y0249815D03*
X0330688Y0200815D03*
X0330688Y0151815D03*
X0413688Y0151815D03*
X0413688Y0200815D03*
X0413688Y0249815D03*
X0413688Y0298815D03*
X0413688Y0347815D03*
X0496688Y0298815D03*
X0496688Y0249815D03*
X0247688Y0249815D03*
X0247688Y0298815D03*
X0247688Y0347815D03*
X0247688Y0200815D03*
X0247688Y0151815D03*
D20*
X0237688Y0151815D03*
X0237688Y0170815D03*
X0247688Y0170815D03*
X0270688Y0170815D03*
X0280688Y0170815D03*
X0280688Y0151815D03*
X0270688Y0151815D03*
X0270688Y0121815D03*
X0280688Y0121815D03*
X0247688Y0121815D03*
X0237688Y0121815D03*
X0197688Y0121815D03*
X0187688Y0121815D03*
X0187688Y0151815D03*
X0197688Y0151815D03*
X0197688Y0170815D03*
X0187688Y0170815D03*
X0187688Y0200815D03*
X0197688Y0200815D03*
X0197688Y0219815D03*
X0187688Y0219815D03*
X0187688Y0249815D03*
X0197688Y0249815D03*
X0197688Y0268815D03*
X0187688Y0268815D03*
X0187688Y0298815D03*
X0197688Y0298815D03*
X0197688Y0317815D03*
X0187688Y0317815D03*
X0187688Y0347815D03*
X0197688Y0347815D03*
X0237688Y0347815D03*
X0270688Y0347815D03*
X0280688Y0347815D03*
X0280688Y0317815D03*
X0270688Y0317815D03*
X0270688Y0298815D03*
X0280688Y0298815D03*
X0247688Y0317815D03*
X0237688Y0317815D03*
X0237688Y0298815D03*
X0237688Y0268815D03*
X0247688Y0268815D03*
X0237688Y0249815D03*
X0270688Y0249815D03*
X0280688Y0249815D03*
X0280688Y0268815D03*
X0270688Y0268815D03*
X0320688Y0268815D03*
X0330688Y0268815D03*
X0320688Y0249815D03*
X0353688Y0249815D03*
X0363688Y0249815D03*
X0363688Y0268815D03*
X0353688Y0268815D03*
X0353688Y0298815D03*
X0363688Y0298815D03*
X0363688Y0317815D03*
X0353688Y0317815D03*
X0330688Y0317815D03*
X0320688Y0317815D03*
X0320688Y0298815D03*
X0320688Y0347815D03*
X0353688Y0347815D03*
X0363688Y0347815D03*
X0403688Y0347815D03*
X0403688Y0317815D03*
X0413688Y0317815D03*
X0403688Y0298815D03*
X0436688Y0298815D03*
X0446688Y0298815D03*
X0446688Y0268815D03*
X0436688Y0268815D03*
X0436688Y0249815D03*
X0446688Y0249815D03*
X0413688Y0268815D03*
X0403688Y0268815D03*
X0403688Y0249815D03*
X0403688Y0219815D03*
X0413688Y0219815D03*
X0403688Y0200815D03*
X0436688Y0219815D03*
X0446688Y0219815D03*
X0486688Y0219815D03*
X0496688Y0219815D03*
X0486688Y0249815D03*
X0486688Y0268815D03*
X0496688Y0268815D03*
X0486688Y0298815D03*
X0363688Y0219815D03*
X0353688Y0219815D03*
X0353688Y0200815D03*
X0363688Y0200815D03*
X0330688Y0219815D03*
X0320688Y0219815D03*
X0320688Y0200815D03*
X0320688Y0170815D03*
X0330688Y0170815D03*
X0320688Y0151815D03*
X0353688Y0151815D03*
X0363688Y0151815D03*
X0363688Y0170815D03*
X0353688Y0170815D03*
X0403688Y0170815D03*
X0413688Y0170815D03*
X0403688Y0151815D03*
X0403688Y0121815D03*
X0413688Y0121815D03*
X0363688Y0121815D03*
X0353688Y0121815D03*
X0330688Y0121815D03*
X0320688Y0121815D03*
X0280688Y0200815D03*
X0270688Y0200815D03*
X0270688Y0219815D03*
X0280688Y0219815D03*
X0247688Y0219815D03*
X0237688Y0219815D03*
X0237688Y0200815D03*
D21*
X0151738Y0089815D03*
X0141738Y0089815D03*
X0131738Y0089815D03*
D22*
X0137995Y0050469D03*
X0137995Y0381177D03*
M02*
