%
M48
M72
T01C0.01181
T02C0.01575
T03C0.03150
T04C0.03937
T05C0.04331
T06C0.05118
T07C0.12598
%
T01
X334738Y62215
X392038Y57765
T02
X401688Y83565
X398938Y86815
X388688Y95315
X388688Y103065
X358438Y89065
X352438Y97815
X344938Y88815
X353688Y135415
X353688Y160815
X376938Y176915
X353688Y188815
X290688Y175665
X265238Y176715
X261188Y164565
X257438Y145565
X230688Y140315
X218238Y144815
X214138Y136565
X207338Y127215
X223038Y127915
X229888Y119265
X222988Y158965
X214138Y182015
X218138Y188765
X197688Y186365
X207338Y206415
X176438Y235965
X135888Y247215
X129838Y239515
X125988Y220915
X158438Y284565
X197738Y286715
X237688Y311065
X253688Y325065
X257438Y341315
X313438Y311565
X348438Y280315
X353688Y277065
X346138Y255115
X289838Y251815
X289688Y235515
X280688Y236865
X270688Y236465
X257438Y244315
X264938Y264815
X270688Y289315
X260938Y295315
X252888Y210965
X313688Y140315
X396688Y140315
X423438Y100315
X419438Y89315
X437938Y89315
X458438Y99565
X462188Y87565
X471688Y85815
X470438Y75565
X478688Y73565
X478938Y68815
X465638Y65965
X450688Y67565
X482438Y85565
X488688Y89215
X480938Y97315
X476438Y97565
X488688Y100815
X496938Y98065
X503638Y96465
X507188Y100565
X523438Y100165
X527988Y99715
X527938Y93315
X532488Y93115
X543238Y90265
X542888Y85365
X537438Y79515
X532488Y82465
X517438Y86665
X516838Y80565
X510938Y86315
X496188Y80565
X506388Y62965
X510938Y47065
X554838Y64515
X558188Y61965
X562288Y61915
X564338Y70115
X558938Y81315
X555838Y83865
X553938Y87615
X549938Y88615
X546738Y95715
X562388Y90915
X565688Y93315
X580738Y99215
X583438Y108915
X578688Y112315
X575588Y114965
X572738Y112165
X545488Y121565
X543638Y126165
X541638Y129965
X541138Y134115
X539738Y138715
X532088Y126565
X532488Y122215
X538488Y124115
X543938Y115565
X524338Y115565
X523388Y108115
X563338Y153815
X574588Y153815
X585188Y144565
X588188Y144565
X594688Y147465
X594738Y141715
X512638Y188265
X511188Y183315
X509738Y178315
X509738Y173315
X509738Y168315
X509738Y163365
X506288Y157565
X499738Y175515
X503488Y181165
X511338Y193315
X515838Y214265
X530788Y224615
X533238Y221415
X535438Y217965
X547638Y225415
X551088Y222615
X553188Y218865
X560288Y205765
X563338Y205765
X566438Y205765
X585188Y214265
X585188Y251815
X588188Y251815
X566438Y285465
X563338Y285465
X560238Y285465
X585438Y295665
X588188Y311065
X528438Y322815
X508938Y316265
X507388Y322465
X496538Y329715
X486688Y311065
X515738Y295665
X519738Y258015
X515488Y256815
X510188Y248115
X510638Y243065
X464488Y284165
X455688Y299815
X455638Y303815
X423188Y292565
X403688Y311065
X397188Y311565
X426738Y239615
X434588Y230365
X430538Y227565
X456988Y178315
X457888Y171465
X460338Y168015
X463088Y163365
X577438Y54065
X573538Y52365
X573538Y48115
X568438Y48815
X580938Y57065
T03
X413688Y121815
X403688Y121815
X403688Y151815
X413688Y151815
X413688Y170815
X403688Y170815
X403688Y200815
X413688Y200815
X413688Y219815
X403688Y219815
X436688Y219815
X446688Y219815
X446688Y249815
X436688Y249815
X436688Y268815
X446688Y268815
X413688Y268815
X403688Y268815
X403688Y249815
X413688Y249815
X363688Y249815
X353688Y249815
X353688Y268815
X363688Y268815
X330688Y268815
X320688Y268815
X320688Y249815
X330688Y249815
X330688Y219815
X320688Y219815
X320688Y200815
X330688Y200815
X353688Y200815
X363688Y200815
X363688Y219815
X353688Y219815
X353688Y170815
X363688Y170815
X363688Y151815
X353688Y151815
X330688Y151815
X320688Y151815
X320688Y170815
X330688Y170815
X280688Y170815
X270688Y170815
X270688Y151815
X280688Y151815
X247688Y151815
X237688Y151815
X237688Y170815
X247688Y170815
X247688Y200815
X237688Y200815
X237688Y219815
X247688Y219815
X270688Y219815
X280688Y219815
X280688Y200815
X270688Y200815
X270688Y249815
X280688Y249815
X280688Y268815
X270688Y268815
X247688Y268815
X237688Y268815
X237688Y249815
X247688Y249815
X197688Y249815
X187688Y249815
X187688Y268815
X197688Y268815
X197688Y298815
X187688Y298815
X187688Y317815
X197688Y317815
X197688Y347815
X187688Y347815
X237688Y347815
X247688Y347815
X270688Y347815
X280688Y347815
X279727Y367398
X271853Y367398
X263979Y367398
X256105Y367398
X256105Y375272
X263979Y375272
X271853Y375272
X279727Y375272
X287601Y375272
X287601Y367398
X320688Y347815
X330688Y347815
X353688Y347815
X363688Y347815
X366341Y367398
X358467Y367398
X358467Y375272
X366341Y375272
X350593Y375272
X342719Y375272
X334845Y375272
X334845Y367398
X342719Y367398
X350593Y367398
X403688Y347815
X413688Y347815
X413688Y317815
X403688Y317815
X403688Y298815
X413688Y298815
X436688Y298815
X446688Y298815
X486688Y298815
X496688Y298815
X496688Y268815
X486688Y268815
X486688Y249815
X496688Y249815
X496688Y219815
X486688Y219815
X363688Y298815
X353688Y298815
X353688Y317815
X363688Y317815
X330688Y317815
X320688Y317815
X320688Y298815
X330688Y298815
X280688Y298815
X270688Y298815
X270688Y317815
X280688Y317815
X247688Y317815
X237688Y317815
X237688Y298815
X247688Y298815
X197688Y219815
X187688Y219815
X187688Y200815
X197688Y200815
X197688Y170815
X187688Y170815
X187688Y151815
X197688Y151815
X197688Y121815
X187688Y121815
X237688Y121815
X247688Y121815
X270688Y121815
X280688Y121815
X320688Y121815
X330688Y121815
X353688Y121815
X363688Y121815
T04
X359333Y78028
X369333Y78028
X379333Y78028
X389333Y78028
X399333Y78028
X409333Y78028
X419333Y78028
X429333Y78028
X439333Y78028
X439333Y68028
X429333Y68028
X419333Y68028
X409333Y68028
X399333Y68028
X389333Y68028
X379333Y68028
X369333Y68028
X359333Y68028
X349333Y68028
X339333Y68028
X339333Y78028
X349333Y78028
X329333Y78028
X319333Y78028
X309333Y78028
X309333Y68028
X319333Y68028
X329333Y68028
X596938Y74065
X596938Y84065
X596938Y94065
X596938Y104065
X596938Y114065
X596938Y124065
T05
X526438Y134365
T06
X166932Y136236
X166932Y121236
X166932Y106236
X116932Y106236
X116932Y121236
X116932Y136236
X116932Y151236
X116932Y166236
X116932Y181236
X116932Y196236
X116932Y211236
X116932Y232220
X116932Y247220
X116932Y262220
X116932Y277220
X116932Y292220
X116932Y307220
X116932Y322220
X116932Y337220
X166932Y337220
X166932Y322220
X166932Y307220
X166932Y292220
X166932Y277220
X166932Y262220
X166932Y247220
X166932Y232220
X166932Y211236
X166932Y196236
X166932Y181236
X166932Y166236
X166932Y151236
T07
X137995Y50469
X137995Y50469
X137995Y381177
X137995Y381177
M30
